<?xml version="1.0" encoding="utf-8"?>
<!-- Generator: Adobe Illustrator 24.0.1, SVG Export Plug-In . SVG Version: 6.00 Build 0)  -->
<svg version="1.1" id="Layer_1" xmlns="http://www.w3.org/2000/svg" xmlns:xlink="http://www.w3.org/1999/xlink" x="0px" y="0px"
	 viewBox="0 0 250 58.8" style="enable-background:new 0 0 250 58.8;" xml:space="preserve">
<style type="text/css">
	.st0{fill:#0C0E0F;}
	.st1{fill:#C64A4C;}
</style>
<g>
	<polygon class="st0" points="114.9,27.6 105.1,27.6 105.1,12 100.3,12 100.3,31 114.9,31 	"/>
	<polygon class="st0" points="101.1,40.8 103.4,40.8 103.4,46.4 106,46.4 106,40.8 108.4,40.8 108.4,38.8 101.1,38.8 	"/>
	<path class="st0" d="M90.4,38.8l-3.5,7.6h2.6l0.5-1.2h3.4l0.5,1.2h2.6l-3.4-7.6H90.4z M90.5,43.8l1.2-3l1.2,3H90.5z"/>
	<path class="st0" d="M140.2,41.2c0-0.4,0.3-0.5,0.7-0.5c0.7,0,1.4,0.4,2,0.9v-2c-0.7-0.5-1.5-0.8-2.3-0.8c-2.1,0-2.7,1.3-2.7,2.2
		c0,2.2,2.9,2.3,2.9,3.1c0,0.2-0.3,0.5-0.8,0.5c-0.8,0-1.5-0.3-2.1-0.8V46c0.8,0.4,1.7,0.6,2.6,0.6c2,0,2.7-1.2,2.7-2.2
		C143,42.1,140.2,42.1,140.2,41.2z"/>
	<polygon class="st0" points="125.6,12 120.9,12 120.9,31 135.4,31 135.4,27.6 125.6,27.6 	"/>
	<path class="st0" d="M117.5,38.8l-3.5,7.6h2.6l0.5-1.2h3.4l0.5,1.2h2.6l-3.4-7.6H117.5z M117.6,43.8l1.2-3l1.2,3H117.6z"/>
	<path class="st0" d="M78,38.8c-0.1,0-0.2,0-0.3,0h-3.8v7.6h4.3c1.9,0.1,3.5-1.4,3.6-3.3c0-0.1,0-0.2,0-0.4
		C81.8,40.6,80.1,38.8,78,38.8z M79.1,42.7c0,1.4-0.5,2-1.8,2l-0.7-0.1v-3.9h0.7c1-0.1,1.8,0.7,1.8,1.6
		C79.1,42.4,79.1,42.5,79.1,42.7z"/>
	<polygon class="st0" points="203.5,46.3 203.5,46.3 203.5,46.4 	"/>
	<polygon class="st0" points="153.3,41.4 151.9,38.8 148.8,38.8 151.6,43 151.6,43 151.6,46.4 154.2,46.4 154.2,43.1 157.2,38.8 
		154.6,38.8 	"/>
	<polygon class="st0" points="205.4,42 203.2,38.8 200.9,38.8 200.9,46.3 203.5,46.3 203.4,42.4 203.5,42.4 205.4,45.2 207.5,42.4 
		207.4,46.4 210,46.4 210,38.9 207.7,38.9 	"/>
	<path class="st0" d="M78.5,27.2H87l1.6,3.8h5.1l-8.5-19h-5.5L72,31h5.1L78.5,27.2z M82.6,16.6l3,7.4h-5.9L82.6,16.6z"/>
	<path class="st0" d="M219.2,41.2c0-0.4,0.4-0.5,0.8-0.5c0.7,0.1,1.4,0.4,1.8,0.9v-2c-0.7-0.5-1.5-0.8-2.4-0.8c-0.1,0-0.2,0-0.2,0
		c-1.3,0-2.3,1-2.4,2.2c0,2.2,2.7,2.3,2.7,3.1c-0.1,0.3-0.3,0.5-0.7,0.5c-0.8,0-1.5-0.3-2.1-0.8v0V46c0.8,0.4,1.7,0.6,2.6,0.5
		c2,0,2.7-1.2,2.7-2.2C222.2,42.1,219.2,42.1,219.2,41.2z"/>
	<polygon class="st0" points="188.4,46.3 194,46.3 194,44.8 191,44.8 191,43.3 193.7,43.3 193.7,41.8 191,41.8 191,40.5 194,40.5 
		194,38.8 188.4,38.8 	"/>
	<path class="st0" d="M165.3,41.2c0-0.4,0.3-0.5,0.7-0.5c0.7,0,1.4,0.4,1.9,0.9v-2c-0.7-0.5-1.5-0.8-2.3-0.8c-2.1,0-2.7,1.3-2.7,2.2
		c0,2.2,2.9,2.3,2.9,3.1c0,0.2-0.3,0.5-0.8,0.5c-0.8,0-1.5-0.3-2.1-0.8V46c0.8,0.4,1.7,0.5,2.6,0.5c2,0,2.7-1.2,2.7-2.2
		C168.2,42.1,165.3,42.1,165.3,41.2z"/>
	<polygon class="st0" points="174.4,40.8 176.8,40.8 176.8,46.4 179.4,46.4 179.4,40.8 181.7,40.8 181.7,38.8 174.4,38.8 	"/>
	<rect x="141.5" y="12" class="st0" width="4.8" height="19"/>
	<path class="st0" d="M214.6,21.5c0-3.4,2.9-5.7,6.9-5.7c2.3,0.1,4.6,0.8,6.5,2v-4.3c-2.1-1.2-4.5-1.7-6.9-1.7
		c-7.3,0-11.5,4.8-11.5,9.9c0,4.8,3.8,9.6,11.1,9.6c2.6,0,5.2-0.6,7.5-1.8v-4.2c-2.7,1.3-4.4,2.1-6.9,2.1
		C217.4,27.3,214.6,24.8,214.6,21.5z"/>
	<polygon class="st0" points="240.6,27.6 240.6,22.9 249.3,22.9 249.3,19.5 240.6,19.5 240.6,15.5 249.7,15.5 249.7,12 235.9,12 
		235.9,31 250,31 250,27.6 	"/>
	<path class="st0" d="M167.9,12h-5.5l-7.7,19h5l1.4-3.8h8.6l1.6,3.8h5.1L167.9,12z M162.5,24l2.7-7.4l3.1,7.4H162.5z"/>
	<polygon class="st0" points="202.3,12 197.6,12 197.6,23.7 187.4,12 183,12 183,31 187.9,31 187.9,18.9 198.3,31 202.3,31 	"/>
</g>
<g>
	<path class="st1" d="M36.1,29.7C35,27.1,34,24.5,33,21.9l-2.6,6.8l3.1,5.7L36.1,29.7z"/>
	<path class="st1" d="M26.2,21l3.1,5.9l3.3-5.9c-1.8-4.5-3.1-7.5-3.3-7.8C29.3,13.4,28,16.4,26.2,21z"/>
	<path class="st1" d="M22.3,30.6c-3,7.4-6.4,15.9-9.4,23.1c0.5,0.3,0.9,0.7,1.4,0.9l9.9-18.4L22.3,30.6z"/>
	<path class="st1" d="M50,8.5C38.5-2.9,19.9-2.8,8.5,8.7C3.1,14.2,0,21.6,0,29.3C0,37,3.1,44.5,8.5,50l20.7-37.9l0.1-0.3
		c0,0,0.1,0.3,0.3,0.3L50.3,50C61.7,38.5,61.6,19.8,50,8.5z"/>
	<path class="st1" d="M22.7,29.7l2.6,4.7l3.1-5.7l-2.6-6.8C24.8,24.5,23.7,27.1,22.7,29.7z"/>
	<polygon class="st1" points="27,37.5 29.3,42 31.8,37.5 29.3,31.1 	"/>
	<path class="st1" d="M31.3,45.4L31.3,45.4l6.6,12.1c0.5-0.1,1-0.3,1.4-0.5L33,40.4L31.3,45.4z"/>
	<path class="st1" d="M25.8,40.3L25.8,40.3l-6.4,16.6c0.5,0.2,0.9,0.4,1.4,0.5l6.6-12.1L25.8,40.3z"/>
	<path class="st1" d="M34.4,36.2l9.9,18.4c0.4-0.3,0.9-0.7,1.4-0.9c-3-7.2-6.4-15.7-9.3-23L34.4,36.2z"/>
	<path class="st1" d="M36.4,30.6C36.4,30.6,36.4,30.7,36.4,30.6L36.4,30.6L36.4,30.6z"/>
	<path class="st1" d="M26.5,58.6c0.9,0,1.8,0.1,2.7,0.1c0.9,0,2-0.1,2.9-0.1l-2.9-8.1L26.5,58.6z"/>
</g>
</svg>
