<svg xmlns="http://www.w3.org/2000/svg" viewBox="0 0 190 41"><path fill="#0c203d" d="M17.2 9.6c-1.6 0-2.9 1.2-2.9 2.8.1 1.6 1.6 2.8 3.2 2.7 1.4-.1 2.6-1.3 2.7-2.7-.1-1.6-1.4-2.9-3-2.8M8.6 25c1-.7 1.3-2.2.6-3.2-.4-1.2-1.7-1.9-2.9-1.5-1 .8-1.3 2.2-.6 3.3.5 1.1 1.7 1.8 2.9 1.4m3.2-4.2c1.6-.1 2.9-1.4 2.8-3 .1-1.6-1.1-2.9-2.7-3h-.1C10.3 14.7 9 16 9 17.6v.2c-.1 1.6 1.1 2.9 2.7 3h.1m-8 3.2c-.5.3-.3 1.4.3 2.4s1.6 1.5 2.1 1.2.3-1.4-.3-2.4-1.6-1.5-2.1-1.2m22 1c1.2.3 2.5-.3 2.9-1.5.7-1.1.4-2.5-.6-3.2-1.2-.3-2.5.3-2.9 1.5-.7 1.1-.4 2.5.6 3.2m-3.2-4.2c1.6 0 2.8-1.4 2.8-2.9v-.1c.1-1.5-1.1-2.9-2.6-3s-2.9 1.1-3 2.6v.3c-.1 1.6 1.2 2.9 2.8 3.1m7.7 5.6c.7-1 .8-2.1.4-2.4s-1.4.2-2.1 1.2-.8 2.1-.3 2.4 1.3-.1 2-1.2m1.9-.7c-.2-.1-.1-.8.2-1.7s.8-1.5 1-1.4c.6.3-.8 3.3-1.2 3.1M2.1 8.9c-.4.7-.8 1.5-1 2.3.2-.3.4-.7.6-1.1.2-.4.3-.8.4-1.2m30.2 0c.4.7.8 1.5 1.1 2.3-.2-.3-.4-.7-.6-1.1-.2-.4-.4-.8-.5-1.2M12.5.9c-.4.1-.8.2-1.3.2.8-.3 1.6-.6 2.4-.7-.3.2-.7.4-1.1.5"/><path d="M4.6 5.7c.1 0-.2.6-.8 1.3s-1 1.1-1.1 1 1.5-2.5 1.9-2.3M.6 22c0-.4 0-.9-.1-1.3 0-.5-.2-1-.5-1.5.1.9.3 1.9.6 2.8zm-.1-7c.1-.8.1-1.5 0-1.5-.3 1-.4 2-.5 3 .1 0 .4-.6.5-1.5m5.3-2.9c-.7 1.1-.4 2.5.6 3.2 1.2.3 2.5-.3 2.9-1.5.7-1.1.4-2.5-.6-3.2-1.2-.3-2.5.3-2.9 1.5m-4.1 4c.4.1 1-.7 1.2-1.8s.1-2.1-.3-2.1-1 .7-1.2 1.8-.1 2.1.3 2.1m15.5 9.7c1.5-.1 2.7-1.4 2.6-2.9-.1-1.5-1.4-2.7-2.9-2.6-1.5.1-2.6 1.3-2.6 2.8 0 1.5 1.3 2.8 2.9 2.7M2.9 21.4c-.3-1.1-.8-1.9-1.3-1.8s-.6 1.1-.3 2.2.8 1.9 1.3 1.8.6-1.1.3-2.2m-.3-3.6c0 1.3.6 2.4 1.4 2.4s1.4-1.1 1.4-2.4-.6-2.4-1.4-2.4-1.4 1.1-1.4 2.4M.7 16.1c-.3 0-.5.8-.5 1.8s.2 1.8.5 1.8.5-.7.5-1.7-.2-1.9-.5-1.9m9.4-6.8c.8 1 2.2 1.2 3.2.5 1.2-.5 1.8-1.8 1.4-3-.8-1-2.2-1.2-3.3-.5-1.1.5-1.7 1.8-1.3 3M8.6 4.8c-1 .7-1.5 1.6-1.2 2.1s1.4.3 2.4-.4 1.5-1.5 1.2-2-1.4-.3-2.4.3M4.2 9.1c-.7 1-.8 2.1-.3 2.4s1.4-.2 2.1-1.2.8-2.1.3-2.4-1.4.2-2.1 1.2M.9 13.2c.2.1.6-.6 1-1.5s.5-1.6.2-1.7-.6.6-1 1.4-.4 1.7-.2 1.8m13.7 15.4c.4-1.2-.2-2.5-1.4-3-1-.7-2.5-.5-3.2.5-.4 1.2.2 2.6 1.4 3 1 .8 2.4.5 3.2-.5m-12.4-3c.2-.1.1-.9-.2-1.7s-.8-1.5-1-1.4c-.6.4.9 3.4 1.2 3.1M4.5 8.2c.6-.8.9-1.5.7-1.7s-.9.3-1.6 1-.9 1.6-.7 1.8.9-.4 1.6-1.1m10.4-3.7c0 .8 1.1 1.4 2.4 1.4s2.4-.6 2.4-1.4-1.1-1.4-2.4-1.4-2.4.7-2.4 1.4M9.6 28.9c-1-.7-2.1-.9-2.4-.4s.2 1.4 1.2 2.1 2.1.8 2.4.4-.2-1.5-1.2-2.1m-6.7-2.7c-.2.2 0 .9.7 1.7s1.2 1.3 1.5 1.2-.1-.9-.7-1.8-1.2-1.2-1.5-1.1m16.7 4.7c0-.8-1.1-1.4-2.4-1.4s-2.4.6-2.4 1.4 1.1 1.4 2.4 1.4 2.5-.6 2.4-1.4M13.3 2c-1.1.3-1.9.8-1.8 1.2s1.1.6 2.2.3 1.9-.8 1.8-1.2-1.1-.6-2.2-.3M7 4.2c-.8.6-1.3 1.2-1.1 1.5.1.2.9-.1 1.7-.7s1.3-1.3 1.1-1.5-.9.1-1.7.7m6.5 27.7c-1.1-.2-2.1-.1-2.2.3s.7 1 1.8 1.2 2.1.1 2.2-.3-.7-.9-1.8-1.2m-4.8.1c.2-.2-.4-.9-1.1-1.5s-1.6-.9-1.8-.7.1.6.6 1l1.2.9c.6.3 1 .4 1.1.3m6.8-30.8c0 .3.8.5 1.8.5s1.7-.2 1.7-.4-.8-.5-1.8-.5-1.8.2-1.7.4M9.4 2.8c.1.2.9.1 1.7-.2s1.5-.8 1.5-1-.9-.1-1.8.3-1.4.7-1.4.9m-3 1.5c.6-.5 1.1-1 1-1.1s-.6.3-1.3.8-1 1-1 1 .7-.2 1.3-.7M19 34.2c0-.3-.8-.5-1.8-.5s-1.8.2-1.8.5.8.5 1.8.5h.4c.8-.1 1.4-.3 1.4-.5M33.8 22c.3-.9.5-1.8.5-2.8-.2.4-.4.9-.4 1.5-.1.4-.1.9-.1 1.3M14.5 1C15.3.9 16 .7 16 .5s-.7-.1-1.5 0S13 .9 13 1s.7.1 1.5 0m-5 1.2c.7-.4 1.2-.7 1.2-.8s-.7.2-1.4.5-1.2.7-1.2.8c.5-.1 1-.2 1.4-.5m6.4-2c.4.2.9.2 1.4.2.5.1.9 0 1.4-.2-.4-.2-.6-.2-.9-.2h-1.1c-.5 0-.8 0-.8.2m9.8 10.4c-1 .7-1.3 2.2-.6 3.2.4 1.2 1.6 1.8 2.8 1.5 1-.7 1.3-2.2.6-3.2-.3-1.1-1.6-1.8-2.8-1.5m6.1 1.6c-.4.1-.6 1.1-.3 2.2s.8 1.9 1.2 1.8.6-1.1.3-2.2-.8-2-1.2-1.8m.9 7.6c-.4-.1-1 .7-1.3 1.8s-.1 2.1.3 2.2 1-.7 1.3-1.8.1-2.1-.3-2.2m-2.3.6c.8 0 1.4-1.1 1.4-2.4s-.6-2.4-1.4-2.4-1.4 1-1.4 2.4.6 2.4 1.4 2.4m3.4-4.1c-.3 0-.5.8-.5 1.8s.2 1.7.5 1.7.5-.8.5-1.8-.3-1.8-.5-1.7M19.6 6.9c-.4 1.2.2 2.5 1.4 3 1 .7 2.5.5 3.3-.5.4-1.2-.2-2.5-1.4-3-1-.8-2.5-.6-3.3.5m3.9-2.5c-.3.5.2 1.4 1.2 2.1s2.1.9 2.4.4-.2-1.4-1.2-2.1-2.1-.9-2.4-.4m7 7.1c.5-.3.3-1.4-.3-2.4s-1.6-1.5-2.1-1.2-.3 1.4.3 2.4 1.6 1.5 2.1 1.2m3 1.7c.2 0 .1-.9-.2-1.7s-.8-1.5-1-1.4-.1.9.2 1.7.8 1.5 1 1.4m-9 13c-.8-1-2.3-1.3-3.3-.5-1.2.5-1.8 1.8-1.4 3 .8 1 2.2 1.2 3.2.5 1.3-.5 1.9-1.8 1.5-3m7-16.9c.2-.1-.1-.9-.7-1.7s-1.3-1.3-1.5-1.1.1.9.7 1.7 1.2 1.3 1.5 1.1m-6.7 19.8c-1 .7-1.5 1.6-1.2 2.1s1.4.3 2.4-.4 1.5-1.6 1.2-2.1-1.4-.3-2.4.4m5.3-1.7c-.6.8-.9 1.5-.7 1.7s.9-.3 1.5-1.2.9-1.5.7-1.7-.9.4-1.5 1.2m-.2-21.7c-.1 0 .2.6.7 1.3s1 1.1 1.1 1-1.5-2.5-1.8-2.3M21.2 2c-1.1-.3-2.1-.1-2.2.3s.7 1 1.8 1.2 2.1.1 2.2-.3-.8-1-1.8-1.2m6.3 2.1c-.8-.6-1.5-.9-1.7-.7s.4.9 1.1 1.5 1.5.9 1.7.7-.3-.8-1.1-1.5M21 31.9c-1.1.3-1.9.8-1.8 1.2s1.1.5 2.2.3 1.9-.8 1.8-1.2-1.1-.5-2.2-.3m7.6-2c-.1-.2-.9.1-1.7.7s-1.3 1.3-1.1 1.5.5 0 1-.2c.4-.2.9-.5 1.2-.9.4-.3.8-.9.6-1.1M23.2 2.6c.9.3 1.7.4 1.8.2s-.6-.7-1.5-1-1.5-.6-1.6-.3.5.7 1.3 1.1m4.7 1.7c.6.5 1.2.8 1.3.8s-.4-.6-1-1.1-1.2-.8-1.3-.7.4.5 1 1m-4.4 28.6c-.9.3-1.5.8-1.4 1l3.2-1.3c-.2-.2-1 0-1.8.3m0 0c-.9.4-1.5.8-1.4 1 1.1-.3 2.2-.7 3.2-1.3-.1-.2-1 0-1.8.3M20 1c.8.1 1.5.1 1.5 0S20.9.7 20 .5s-1.5-.1-1.5 0c.4.3 1 .5 1.5.5m5 1.2c.7.4 1.3.6 1.4.5s-.5-.4-1.2-.8-1.3-.6-1.4-.5.5.5 1.2.8M22 .8c.4.1.8.2 1.3.2-.8-.3-1.6-.6-2.5-.7.4.3.8.4 1.2.5M34.2 15c0 .5.2 1.1.5 1.5.1 0-.2-3.1-.5-3s-.2.8 0 1.5M11 32.9c-.9-.3-1.8-.5-1.7-.3 1 .6 2 1 3.1 1.3.2-.1-.5-.6-1.4-1m9.5 1.3c-.4 0-.8.2-1.2.4.8 0 1.7-.2 2.5-.5-.5-.1-.9 0-1.3.1m-6.3 0c-.4-.1-.8-.2-1.3-.1.8.3 1.6.4 2.5.5-.4-.2-.8-.3-1.2-.4" fill="#82bc00"/><path fill="#0c203d" d="M55.7 4.9h.5L68 33h-3.5L62 26.8H49.3L46.7 33h-3.4L55.7 4.9zm.1 6.7L50.6 24h10.3l-5.1-12.4zM70.4 33h2.8V5.3l-2.8.8V33zm7.1 0h2.8V5.3l-2.8.8V33zm5.8-2.7c1.4 2.1 3.9 3.3 6.5 3 3.3 0 6.7-1.5 6.7-5.2 0-3.4-2.5-4.4-5.4-5-2.2-.4-4.2-1-4.2-2.4s1.8-2.3 3.3-2.3c1.5 0 2.8.7 3.5 2l2.3-1.5c-1.2-2-3.4-3.2-5.7-3-3 0-6.2 1.7-6.2 4.9s2.7 4.1 5.9 4.8c1.8.4 3.6.9 3.6 2.7s-1.9 2.6-3.7 2.6c-1.7 0-3.3-.8-4.3-2.2l-2.3 1.6zm30.5-11.8c-1.7-1.8-4-2.7-6.4-2.6-4.6-.2-8.5 3.4-8.6 8v.7c-.3 4.6 3.2 8.5 7.7 8.8h.8c2.4.1 4.7-.9 6.3-2.7l-2.1-2c-1 1.4-2.6 2.2-4.2 2.1-3.2 0-5.7-2.7-5.7-5.8v-.4c0-3.4 1.9-6.2 5.6-6.2 1.6 0 3.2.7 4.2 2l2.4-1.9zm3.7 14.5h2.7v-8.2c0-3.8 1.5-6.2 4.9-6.2.5 0 1 .1 1.5.2l.2-2.8c-.4-.1-.8-.2-1.1-.2-2.3-.1-4.5 1.2-5.6 3.2v-2.7h-2.8c0 1.1.1 2.4.1 4l.1 12.7zm14.2-25.2c1.2.1 2 1.2 1.9 2.3-.1 1-.9 1.8-1.9 1.9-1.2 0-2.1-.9-2.2-2 0-1.2.9-2.1 2-2.2m-1.4 8.5h2.8V33h-2.7l-.1-16.7zm6.9 0h2.8v2.4c1.5-1.8 3.7-2.9 6-2.9 4.6-.2 8.5 3.4 8.8 8v.8c.2 4.7-3.4 8.6-8.1 8.8h-.1c-2.6.1-5-1.2-6.3-3.4v11h-2.9l-.2-24.7zm8.7 14.6c3.2.1 5.9-2.5 5.9-5.7v-.5c.2-3.3-2.3-6-5.6-6.2-3.3-.2-6 2.3-6.2 5.6v.6c-.2 3.2 2.2 6 5.4 6.2h.5m21-14.6h-4.9V10l-2.7 2.8v3.4h-1.2l-2.4 2.3h3.5v9.1c0 3.5.6 5.6 4.6 5.6 1.1 0 2.2-.2 3.2-.6l-.1-2.5c-.8.4-1.6.6-2.4.6-2.5 0-2.5-1.7-2.5-3.8v-8.3h4.9v-2.3zm2.2 14c1.5 2.1 3.9 3.2 6.5 3 3.3 0 6.7-1.5 6.7-5.2 0-3.4-2.5-4.4-5.4-5-2.2-.4-4.2-1-4.2-2.4s1.8-2.3 3.3-2.3c1.5 0 2.8.7 3.5 2l2.3-1.5c-1.2-2-3.4-3.2-5.7-3-3 0-6.2 1.7-6.2 4.9s2.7 4.1 5.9 4.8c1.8.4 3.6.9 3.6 2.7s-1.9 2.6-3.7 2.6c-1.7 0-3.3-.9-4.2-2.2l-2.4 1.6zm18.8-14.4c1.2 0 2.2 1 2.2 2.2s-1 2.2-2.2 2.2c-1.2 0-2.2-1-2.2-2.2 0-1.2 1-2.2 2.2-2.2m0 4.1c1 0 1.8-.8 1.8-1.8s-.8-1.8-1.8-1.8-1.8.8-1.8 1.8c0 .9.8 1.8 1.8 1.8m-.7-3.3h1c.6 0 .9.3.9.8 0 .4-.2.7-.6.7l.6 1.1h-.5l-.6-1h-.3v1h-.5v-2.6zm.5 1.1h.3c.3 0 .6 0 .6-.4s-.3-.4-.6-.4h-.3v.8z"/></svg>