<svg enable-background="new 0 0 309 60" viewBox="0 0 309 60" xmlns="http://www.w3.org/2000/svg"><g fill="#31aae1"><path d="m257.66 3.49v.23.12.59 52.82.59.48.67l-34.38-33.73-.06.23v.27c-.04.25-.07.5-.09.75v32.44h-.11-9.53c-.06-.18-.09-.36-.11-.55 0-18.19 0-36.38 0-54.57 0-.08 0-.16 0-.36l.51.48 23.76 23.33 9.77 9.57.36.3h.05c0-.19 0-.39 0-.58v-33.08z"/><path d="m44.31 18.28c-1.15-1.16-2.21-2.37-3.4-3.41-2.45-2.15-5.5-3.5-8.74-3.86-1.39-.18-2.8-.22-4.2-.12-3.13.26-6.14 1.37-8.7 3.19-8.82 6.11-11.02 18.21-4.91 27.03.39.56.81 1.1 1.25 1.62 2.52 3.06 5.99 5.19 9.85 6.06 1.62.37 3.29.51 4.99.76-.07.18-.18.48-.3.78-1.06 2.62-2.12 5.24-3.19 7.86-.37.89-.21.87-1.28.72-2.56-.34-5.06-1.01-7.45-2-9.28-3.93-15.08-10.84-17.35-20.72-.33-1.45-.42-3-.61-4.44-.23-2.55-.04-5.12.56-7.61 1.07-5.58 3.81-10.7 7.87-14.69 3.94-3.95 8.95-6.65 14.42-7.77 2.45-.56 4.96-.79 7.47-.67 1.74.13 3.47.35 5.18.68 4.68.88 9.04 2.98 12.64 6.09.26.21.38.38.23.74-1.44 3.21-2.85 6.45-4.26 9.67-.03.04-.05.06-.07.09z"/><path d="m140.1 58.87h-.18l-.14-.07c-1-2.5-2-4.99-3.06-7.5-.38-.91-.75-1.82-1.12-2.73-.09-.06-.19-.1-.3-.12h-11.27c-.01-.19.01-.38.06-.57 1-2.44 2-4.86 3-7.3h.25 4.86l.12-.09c-1.09-2.66-2.18-5.3-3.25-7.99-.91-2.25-1.8-4.5-2.71-6.76 0-.11-.09-.22-.2-.45-.38.92-.73 1.74-1.07 2.57-2.62 6.4-5.22 12.79-7.83 19.19-1.54 3.77-3.07 7.55-4.59 11.33-.12.3-.22.55-.65.54-3.27 0-6.55 0-9.82 0h-.26c8.2-18.53 16.4-37.08 24.6-55.66.69 1.62 1.34 3.11 2 4.62l8.99 21.03 9.39 22.01 3.2 7.54c.05.11.08.22.11.33h-9.6c-.19.02-.36.05-.53.08z"/><path d="m71.63 58.79c-1.33-3.33-2.68-6.66-4.05-9.98-.04-.09-.08-.18-.13-.26-.22-.05-.45-.09-.68-.12h-9.64c-.37 0-.75 0-1.13 0 0-.1-.12-.22-.09-.3 1-2.45 2-4.9 3.07-7.34.06-.14.36-.25.56-.25h4.79c-2.07-5.09-4.11-10.12-6.19-15.26-.11.22-.18.34-.24.47-2.76 6.77-5.51 13.53-8.28 20.3-1.68 4.11-3.36 8.24-4.99 12.36-.13.3-.23.49-.62.48h-9.74-.37l24.58-55.65 1.44 3.31c1.9 4.45 3.8 8.91 5.7 13.38l8.99 21.08 7.41 17.37.09.28c-.18.06-.36.1-.55.12z"/><path d="m261.44 58.79 24.39-55.23 22.81 55.35h-1.28c-2.9 0-5.79 0-8.7 0-.33.06-.65-.16-.71-.49-1-3.09-2-6.17-3-9.26-.06-.39-.42-.67-.81-.61 0 0 0 0-.01 0-3.35 0-6.71 0-10.06 0h-.93c.41-1 .8-2 1.19-2.9.61-1.48 1.25-2.95 1.84-4.44.1-.37.46-.6.83-.54h3.99.67c-2.06-5.08-4.09-10.08-6.17-15.19l-.68 1.62-8.67 21.26c-1.43 3.5-2.86 7-4.29 10.5h-9.98c-.14 0-.29-.03-.43-.07z"/></g><path d="m71.62 12.63c-.14-.13-.26-.27-.36-.44-1-2.64-1.91-5.26-2.86-7.9-.11-.23-.21-.46-.29-.7 0-.09.11-.22.17-.33.23.04.46.07.69.09h45.84c.21-.02.42-.05.63-.09h.51l-3.37 9.26c-4.99 0-10.04 0-15.06 0-.19.02-.37.05-.55.11l.02.14c-.04.25-.07.5-.09.75v29.65 15.74h-9.78c0-.22 0-.44 0-.66v-44.87c-.02-.24-.06-.48-.13-.72h-.11c-.19-.04-.38-.07-.57-.09-4.71 0-9.41 0-14.11 0-.19 0-.39.02-.58.06z" fill="#30abe2"/><path d="m163.93 3.6v.23.71 44.45.65s0 .15 0 .23l.09.1h.71 27.47v8.89h-.51-37.53v-55.26z" fill="#30abe2"/><path d="m197.12 3.79v-.23-.11h.23 9.45v55.45h-9.63c0-.26 0-.52 0-.77 0-17.83 0-35.65 0-53.47-.02-.27-.04-.55-.05-.87z" fill="#30abe2"/></svg>