<svg xmlns="http://www.w3.org/2000/svg" viewBox="0 0 1334 396.7"><path fill="#008dc6" d="M441 207.8c-8.1 0-15.5-1.5-22.4-4.5-6.9-3-12.8-7.2-17.9-12.4s-9-11.5-11.8-18.7c-2.8-7.2-4.2-15-4.2-23.4 0-8.5 1.4-16.3 4.2-23.3 2.8-7 6.8-13 11.8-17.9 5-4.9 11-8.8 17.9-11.5 6.8-2.7 14.3-4.1 22.4-4.1h62.8v20.2H441c-5.2 0-10 .9-14.4 2.8s-8.2 4.4-11.4 7.7c-3.2 3.3-5.7 7.2-7.5 11.8-1.8 4.6-2.7 9.6-2.7 15.1 0 5.4.9 10.5 2.7 15.1 1.8 4.7 4.3 8.7 7.5 12 3.2 3.3 7 6 11.4 7.9 4.4 1.9 9.2 2.9 14.4 2.9h62.8v20.2H441zm94.1 0V91.9h20.2v95.6h77.9v20.2h-98.1zm255.7 0l-17.4-29.2h-54.8l9.6-16.4h35.5l-25.8-43.4-52.6 88.9h-23.1l66.6-110.9c1.2-2 2.5-3.6 4.1-4.8 1.6-1.2 3.5-1.8 5.7-1.8s4.1.6 5.7 1.8c1.5 1.2 2.9 2.8 4.1 4.8l66.8 110.9h-24.4zm159.3 0l-29.3-32.2h-43.4v-17.9h48.3c7.3 0 12.9-2 16.6-6 3.7-4 5.6-9.7 5.6-17.3 0-7.5-1.9-13.1-5.8-16.8-3.9-3.7-9.3-5.5-16.3-5.5h-63.1v95.6h-20.1V91.9h83.2c6.6 0 12.5 1 17.7 3 5.2 2 9.6 4.8 13.2 8.4 3.6 3.7 6.4 8.1 8.3 13.3 1.9 5.2 2.9 11.1 2.9 17.5 0 9.7-2.1 17.8-6.3 24.3-4.2 6.5-10.1 11.2-17.6 14.1l34.9 35.2h-28.8zm55.1 0V91.9h20.2v115.9h-20.2zm93.4 0v-95.6h-44V91.9h108.2v20.2h-44v95.6h-20.2zm153.5 0v-44l-61.5-71.9h27.3l45.1 53.4 45.3-53.4h25.8l-61.7 71.9v44h-20.3z"/><path fill="#9c9c9c" d="M394.1 308.3v-72.7h12.7v72.7h-12.7zm49-53.2v53.2H431v-66c0-2.3.6-4.2 1.8-5.6 1.2-1.4 2.7-2.1 4.7-2.1.9 0 1.8.2 2.7.6.9.4 1.8 1.1 2.7 2l51.3 50.9V235h12.1v66.6c0 2.4-.6 4.3-1.8 5.6-1.2 1.3-2.7 2-4.6 2-2.1 0-4-.9-5.8-2.7l-51-51.4zm98.4 0v53.2h-12.1v-66c0-2.3.6-4.2 1.8-5.6 1.2-1.4 2.7-2.1 4.7-2.1.9 0 1.8.2 2.7.6.9.4 1.8 1.1 2.7 2l51.3 50.9V235h12.1v66.6c0 2.4-.6 4.3-1.8 5.6-1.2 1.3-2.7 2-4.6 2-2.1 0-4-.9-5.8-2.7l-51-51.4zm119.9 53.2c-5.1 0-9.8-.9-14.1-2.8-4.3-1.9-8-4.5-11.2-7.8s-5.6-7.2-7.4-11.8c-1.8-4.5-2.6-9.4-2.6-14.7 0-5.3.9-10.2 2.6-14.6 1.8-4.4 4.2-8.2 7.4-11.3 3.2-3.1 6.9-5.5 11.2-7.2 4.3-1.7 9-2.6 14.1-2.6h17.7c5.3 0 10.1.9 14.5 2.6 4.4 1.7 8.1 4.2 11.3 7.3 3.1 3.1 5.6 6.9 7.3 11.3 1.7 4.4 2.6 9.2 2.6 14.5 0 5.3-.9 10.2-2.7 14.7-1.8 4.5-4.2 8.5-7.4 11.8-3.2 3.3-6.9 5.9-11.3 7.8-4.3 1.9-9.1 2.8-14.3 2.8h-17.7zm17.7-12.7c3.3 0 6.4-.6 9.2-1.8 2.8-1.2 5.2-2.8 7.3-4.9 2-2.1 3.6-4.6 4.8-7.6 1.1-2.9 1.7-6.1 1.7-9.5 0-3.4-.6-6.6-1.7-9.5-1.1-2.9-2.7-5.4-4.8-7.5-2-2.1-4.4-3.7-7.3-4.9-2.8-1.2-5.9-1.8-9.2-1.8h-17.7c-3.3 0-6.3.6-9.1 1.8-2.8 1.2-5.1 2.8-7.2 4.9-2 2.1-3.6 4.5-4.7 7.4-1.1 2.9-1.7 6-1.7 9.5 0 3.4.6 6.6 1.7 9.5 1.1 2.9 2.7 5.5 4.7 7.6 2 2.1 4.4 3.8 7.2 4.9 2.8 1.2 5.8 1.8 9.1 1.8h17.7zm42.4-60H737l33 56 32.9-56h14.6l-41.9 69.6c-.7 1.3-1.6 2.3-2.6 3-1 .7-2.2 1.1-3.5 1.1-1.4 0-2.6-.4-3.6-1.1-1-.7-1.9-1.7-2.6-3l-41.8-69.6zm168.2 72.7L878.8 290h-34.4l6-10.3h22.3l-16.2-27.2-33 55.8H809l41.8-69.6c.7-1.3 1.6-2.3 2.6-3 1-.7 2.2-1.1 3.6-1.1s2.6.4 3.5 1.1c1 .7 1.8 1.7 2.6 3l41.9 69.6h-15.3zm48.3 0v-60h-27.6v-12.7h67.9v12.7h-27.6v60H938zm60.5 0v-72.7h12.7v72.7h-12.7zm70.4 0c-5.1 0-9.8-.9-14.1-2.8-4.3-1.9-8-4.5-11.2-7.8s-5.6-7.2-7.4-11.8c-1.8-4.5-2.6-9.4-2.6-14.7 0-5.3.9-10.2 2.6-14.6 1.8-4.4 4.2-8.2 7.4-11.3 3.2-3.1 6.9-5.5 11.2-7.2 4.3-1.7 9-2.6 14.1-2.6h17.7c5.3 0 10.1.9 14.5 2.6 4.4 1.7 8.1 4.2 11.3 7.3 3.1 3.1 5.6 6.9 7.3 11.3 1.7 4.4 2.6 9.2 2.6 14.5 0 5.3-.9 10.2-2.7 14.7-1.8 4.5-4.2 8.5-7.4 11.8-3.2 3.3-6.9 5.9-11.3 7.8s-9.1 2.8-14.3 2.8h-17.7zm17.7-12.7c3.3 0 6.4-.6 9.2-1.8 2.8-1.2 5.2-2.8 7.3-4.9 2-2.1 3.6-4.6 4.8-7.6 1.1-2.9 1.7-6.1 1.7-9.5 0-3.4-.6-6.6-1.7-9.5-1.1-2.9-2.7-5.4-4.8-7.5-2-2.1-4.4-3.7-7.3-4.9-2.8-1.2-5.9-1.8-9.2-1.8h-17.7c-3.3 0-6.3.6-9.1 1.8-2.8 1.2-5.1 2.8-7.2 4.9-2 2.1-3.6 4.5-4.7 7.4-1.1 2.9-1.7 6-1.7 9.5 0 3.4.6 6.6 1.7 9.5 1.1 2.9 2.7 5.5 4.7 7.6 2 2.1 4.4 3.8 7.2 4.9 2.8 1.2 5.8 1.8 9.1 1.8h17.7zm72.5-40.5v53.2H1147v-66c0-2.3.6-4.2 1.8-5.6 1.2-1.4 2.7-2.1 4.7-2.1.9 0 1.8.2 2.7.6.9.4 1.8 1.1 2.7 2l51.3 50.9V235h12.1v66.6c0 2.4-.6 4.3-1.8 5.6-1.2 1.3-2.7 2-4.5 2-2.1 0-4-.9-5.8-2.7l-51.1-51.4zm86.7 53.2v-12.7h54.5c3.4 0 6-.9 7.9-2.6 1.8-1.7 2.8-4 2.8-6.9 0-3.1-.9-5.5-2.8-7-1.8-1.6-4.5-2.4-7.9-2.4h-33.4c-3.4 0-6.5-.5-9.3-1.6s-5.1-2.5-7-4.3c-1.9-1.8-3.4-4-4.4-6.5-1-2.5-1.5-5.3-1.5-8.3 0-2.9.5-5.7 1.4-8.2 1-2.5 2.4-4.7 4.3-6.5 1.9-1.8 4.2-3.2 7-4.3 2.8-1 6-1.6 9.6-1.6h52.2v12.7H1267c-2.9 0-5.2.8-6.8 2.4s-2.4 3.8-2.4 6.6.8 5 2.5 6.5c1.6 1.5 3.9 2.3 6.7 2.3h33.3c7.4 0 13 1.7 16.9 5.2 3.8 3.5 5.7 8.7 5.7 15.8 0 3.1-.5 5.9-1.4 8.5-.9 2.6-2.3 4.9-4.2 6.8-1.9 1.9-4.2 3.4-7 4.5s-6.2 1.6-10 1.6h-54.5z"/><radialGradient id="a" cx="157.638" cy="261.795" r="146.692" fx="151.603" fy="262.271" gradientTransform="matrix(1 0 0 1.1391 0 -36.41)" gradientUnits="userSpaceOnUse"><stop offset="0" stop-color="#00ade3"/><stop offset="1" stop-color="#0077bd"/></radialGradient><path d="M304.5 324.1c-3.7 2-7.8 3-11.8 3-4.7 0-9.3-1.4-13.4-4L45.1 171c-12.8-8.3-20.5-21.6-21.2-36.5-.1-2.6 0-5.1.3-7.6l-4.1 3.3C7.4 140.5 0 156 0 172.3v88.4c0 7.4 3.7 14.4 9.8 18.6l159.6 110c11.8 8.1 26.9 9.6 40 3.9l60.7-26.2c23.3-10 39.9-30.6 45.2-54.7-2.2 5-5.9 9.1-10.8 11.8z" fill="url(#a)"/><linearGradient id="b" gradientUnits="userSpaceOnUse" x1="192.244" y1="205.561" x2="308.988" y2="205.561"><stop offset=".004" stop-color="#999"/><stop offset=".483" stop-color="#b2b5b7"/><stop offset="1" stop-color="#a8abae"/></linearGradient><path d="M192.2 92.9v163.5c0 .1.1.2.2.3l90.7 58.9c5.1 3.3 11.7 4.1 17.1 1.3 5.5-2.8 8.8-8.3 8.8-14.5l-.1-125c0-.1-.1-.2-.2-.3L192.8 92.6c-.2-.2-.6 0-.6.3z" fill="url(#b)"/><linearGradient id="c" gradientUnits="userSpaceOnUse" x1="192.244" y1="80.555" x2="693.64" y2="80.555"><stop offset=".004" stop-color="#999"/><stop offset=".483" stop-color="#b2b5b7"/><stop offset="1" stop-color="#a8abae"/></linearGradient><path d="M308.8 94.6c0-4.1-1.9-7.9-5.1-10.4l-84.3-65.6L200 3.4c-.3-.2-.5-.4-.8-.5-2.1-1.5-4.5-2.4-6.9-2.9v76.9c0 2.3 1.1 4.5 3 5.9l106 77.3c3.2 2.3 7.6 0 7.6-3.9l-.1-61.6z" fill="url(#c)"/><path d="M182.8.5c-2.2.7-4.3 1.8-6.2 3.3l-19.3 15.6-121.5 98.2c-.5.4-.9.9-1.1 1.5-1.9 4.7-2.8 9.8-2.5 15.1.6 12.2 7 23.1 17.4 29.9l68.1 44.2c1.4.9 3.3.7 4.5-.5l59.5-62c.6-.7 1-1.5 1-2.5V6.3c.1-.1.1-5.8.1-5.8z" fill="#0077bd"/></svg>