<svg version="1.1" id="Layer_1" xmlns="http://www.w3.org/2000/svg" x="0" y="0" viewBox="0 0 296.1 68.1" xml:space="preserve"><style></style><path d="M93 18h-4v31.5h20v-3.9H93zM261.9 29.3l-2.7-2.3-7.6 8.8-7.6-8.7-.1-.1-2.7 2.3 8 9.2-7.9 9.1-.1.1 2.7 2.3 7.7-8.8 7.6 8.8 2.7-2.3-8-9.2 8-9.1zM209.5 40.7L188 18h-.8v31.5h4V26.9l21.5 22.6h.8V18h-4zM265.9 27.5h3.8v22h-3.8zM265.8 18h4.1v3.5h-4.1zM229.3 27.2c-6.2 0-11.1 5-11.1 11.4 0 6.3 4.8 11.4 11.3 11.4 3.8 0 7-1.6 8.9-3.6l-2.7-2.3c-1.4 1.3-3.5 2.4-6.1 2.4-4 0-7-3-7.4-6.9H240c0-8-4.5-12.4-10.7-12.4m-7 8.9c.8-3.3 3.5-5.5 6.7-5.5 3.4 0 6.2 1.9 6.7 5.5h-13.4zM283.7 37l-1.9-.7c-2.7-.9-3.3-2-3.3-3.3 0-1.5 1.5-2.4 3.3-2.4 1.6 0 2.7.7 3.7 1.7L288 30c-1.6-1.9-3.8-2.9-6.3-2.9-4.2 0-7.1 2.6-7.1 5.9 0 2.6 1.4 5.1 5.5 6.5l1.8.7c2.7.9 3.9 1.8 3.9 3.5s-1.8 2.8-4.1 2.8c-2.4 0-4-1.1-5.4-2.8l-2.7 2.4c2 2.4 4.8 3.8 8 3.8 5 0 8.1-2.8 8.1-6.3-.1-3.3-2.1-5.3-6-6.6M154.2 29.3l-2.6-2.3-7.7 8.8-7.6-8.7-.1-.1-2.7 2.3 8 9.2-7.9 9.1-.1.1 2.7 2.3 7.7-8.8 7.6 8.8h.1l2.6-2.3-8-9.2 8-9.1zM158.2 27.5h3.8v22h-3.8zM158.1 18h4.1v3.5h-4.1zM121.6 27.2c-6.2 0-11.1 5-11.1 11.4 0 6.3 4.8 11.4 11.3 11.4 3.8 0 7-1.6 8.9-3.6L128 44c-1.4 1.3-3.5 2.4-6.1 2.4-4 0-7.1-3-7.4-6.9h17.9c-.1-7.9-4.6-12.3-10.8-12.3m-7 8.9c.8-3.3 3.5-5.5 6.7-5.5 3.3 0 6.2 1.9 6.7 5.5h-13.4zM176 37l-1.9-.7c-2.7-.9-3.3-2-3.3-3.3 0-1.5 1.5-2.4 3.3-2.4 1.6 0 2.7.7 3.7 1.7l2.6-2.2c-1.6-1.9-3.7-2.9-6.3-2.9-4.2 0-7.1 2.6-7.1 5.9 0 2.6 1.4 5.1 5.4 6.5l1.8.7c2.7.9 3.9 1.8 3.9 3.5s-1.8 2.8-4.1 2.8c-2.4 0-4-1.1-5.4-2.8l-2.7 2.4c2 2.4 4.8 3.8 8 3.8 5 0 8.1-2.8 8.1-6.3-.1-3.4-2.1-5.4-6-6.7M292.8 21.6c-1.6 0-2.9 1.3-2.9 2.9 0 1.7 1.3 2.9 2.9 2.9s2.9-1.3 2.9-2.9-1.3-2.9-2.9-2.9m0 5.4c-1.4 0-2.4-1.1-2.4-2.5s1.1-2.5 2.4-2.5 2.4 1.1 2.4 2.5-1.1 2.5-2.4 2.5"/><path d="M294 23.7c0-.6-.4-.9-1.2-.9h-1.2v3.3h.5v-1.4h.6l.8 1.4h.6l-.8-1.5c.5-.1.7-.4.7-.9m-1.2.5h-.6v-1h.6c.5 0 .7.1.7.5s-.2.5-.7.5M69.9 12.1c-1.6 0-2.9 1.3-2.9 2.9 0 1.7 1.3 2.9 2.9 2.9s2.9-1.3 2.9-2.9c.1-1.6-1.2-2.9-2.9-2.9m0 5.4c-1.4 0-2.4-1.1-2.4-2.5s1.1-2.5 2.4-2.5 2.4 1.1 2.4 2.5c.1 1.5-1 2.5-2.4 2.5"/><path d="M71.2 14.3c0-.6-.4-.9-1.2-.9h-1.2v3.3h.5v-1.4h.7l.8 1.4h.6l-.8-1.5c.4-.1.6-.4.6-.9m-1.2.5h-.6v-1h.6c.5 0 .7.1.7.5-.1.4-.3.5-.7.5"/><path fill="#E8171F" d="M13.3 30.6c3.5-7 9.2-12.6 16-15.8.8-.4 1.6-.7 2.4-1 .1 0 0-.1 0-.1-24.1 4.1-34.5 34-18.4 46.9.1 0 .1 0 .1-.1-2.3-3.3-7.8-14.4-.1-29.9"/><path fill="#E8171F" d="M18.8 50.6c-.6-4-.6-8 0-11.9 1.3-7.8 5-14.9 10.4-20.2 1-1 2.1-1.9 3.2-2.8.1 0 0-.1-.1-.1-12.6 5.6-19.9 19.7-19 32.5.5 5.9 2.8 16.6 14 18.8.1 0 .1-.1.1-.1-4.5-3.2-7.8-10.6-8.6-16.2M3.2 21.7c5.6-8 17.2-13.3 28.5-11.9.1 0 .1-.1 0-.1-8.6-2.5-17.6-.8-23.1 3.6-2.4 1.9-4.2 5.2-5.6 8.4.1 0 .2.1.2 0"/><path fill="#E8171F" d="M66.9 31.6C65.4 13.4 49-.4 30.8 1.3c-6.3.6-13.1 3.2-18.1 7.5-.1.1 0 .1.1.1C17 6.4 23 6.4 26.5 6.8c1.8.2 3.7.6 5.4 1.2 1.8.5 3.5 1.3 5.1 2.1.8.4 1.7.9 2.5 1.5 3-1.3 6.1-2.2 9.3-2.6.2 0 .5.1.5.3.1.3-.1.6-.3.6-1.7.4-3.4.8-5 1.5-.1 0-.1.1 0 .1 2.3 0 4.6.3 6.8.7.2 0 .4.2.4.4 0 .3-.2.6-.5.5-2-.3-3.9-.4-5.9-.3-.1 0-.1.1 0 .1.9.3 1.8.6 2.7 1 1.7.7 3.3 1.5 4.8 2.5.1.1.2.3.2.4 0 .4-.4.5-.7.4-1.5-.8-3.1-1.6-4.8-2.2-.7-.2-1.4-.5-2.1-.7-.1 0-.1.1-.1.1 1.2.7 2.3 1.5 3.3 2.4 1.4 1.2 2.7 2.5 3.9 3.8.1.1.2.3.1.5-.2.3-.6.4-.8.1-1.2-1.3-2.5-2.5-3.9-3.6-.8-.6-1.7-1.2-2.6-1.8-.1 0-.1 0-.1.1.3.3.5.5.7.8 1.2 1.4 2.3 2.8 3.2 4.4s1.7 3.2 2.4 4.9c.1.2 0 .4-.1.5-.3.3-.7.2-.8-.1-.7-1.6-1.5-3.2-2.4-4.7-.9-1.5-2-2.9-3.2-4.2-1.2-1.3-2.5-2.5-3.9-3.5-.4-.3-1-.7-1.2-.9C12 28.4 21.5 68.5 41.3 66.4c15.9-3.5 27-18.2 25.6-34.8"/><path fill="#E8171F" d="M7.4 26.6c6.3-10 17.3-14.3 24.1-15 .1 0 .1-.1 0-.1-2.8-.2-5.4-.1-8.7.6-3.4.8-6.7 2.1-9.7 4s-5.6 4.3-7.7 7.1c0 0 0 .1-.1.1-4 5.5-5.3 12.6-3.7 19.2.2.8.7 2.3 1 3.3 0 .1.1 0 .1 0-.8-7.9 1.5-14.1 4.7-19.2"/></svg>