<svg version="1.1" id="Layer_1" xmlns="http://www.w3.org/2000/svg" x="0" y="0" viewBox="0 0 275 60.5" xml:space="preserve">

<path d="M129.6 30.8l-.6-8-2.7 8h-1.9l-2.7-8-.6 8h-1.8l.8-10.9h2.6l2.8 8.2 2.8-8.2h2.6l.8 10.9h-2.1zm5.5 0V19.9h6.3v1.8h-4.2v2.6h3.2l.3 1.7h-3.5v3h4.4v1.8h-6.5zm9.6 0V19.9h2.1v9h3.7l.2 1.9h-6zm13 .2c-3.2 0-5.1-2.2-5.1-5.6s2-5.6 5.2-5.6c1.2 0 2.2.3 3 .8l-.3 2c-.7-.5-1.5-1-2.6-1-2 0-3.2 1.5-3.2 3.8 0 2.4 1.2 3.8 3.2 3.8 1 0 1.9-.4 2.8-.9l.3 1.8c-.9.5-2 .9-3.3.9m10.8 0c-3.1 0-5.1-2.3-5.1-5.6 0-3.4 2-5.7 5.1-5.7s5.1 2.3 5.1 5.6c0 3.4-2 5.7-5.1 5.7m0-9.5c-1.9 0-3 1.5-3 3.9s1.1 3.9 3 3.9 3-1.5 3-3.9-1.2-3.9-3-3.9m16.1 5.1h-.9v4.2h-2.1V19.9h3.4c2.4 0 3.9 1.2 3.9 3.3 0 1.6-.9 2.6-2.2 3.1l2.9 4.3-2.2.4-2.8-4.4zm.3-5h-1.2V25h1.1c1.3 0 2.1-.6 2.1-1.8 0-1-.7-1.6-2-1.6m7.5 9.2V19.9h6.4v1.8h-4.3v2.6h3.3l.3 1.7h-3.6v3h4.4v1.8h-6.5zm12.6.1c-1.3 0-2.5-.3-3.4-.8l.3-1.9c.9.5 2 1 3.1 1 1 0 1.6-.5 1.6-1.3s-.4-1.1-2-1.8c-2.1-.9-3-1.6-3-3.2 0-1.9 1.5-3 3.5-3 1.2 0 2.1.3 2.9.7l-.3 1.9c-.8-.5-1.7-.9-2.6-.9-1 0-1.5.5-1.5 1.2s.3 1 1.9 1.7c2.2.9 3.1 1.7 3.1 3.4.1 1.9-1.5 3-3.6 3m11.5.1c-3.1 0-5.1-2.3-5.1-5.6 0-3.4 2-5.7 5.1-5.7s5.1 2.3 5.1 5.6c0 3.4-2 5.7-5.1 5.7m0-9.5c-1.9 0-3 1.5-3 3.9s1.1 3.9 3 3.9 3-1.5 3-3.9-1.1-3.9-3-3.9m11.4 5.1h-.9v4.2h-2.1V19.9h3.4c2.4 0 3.9 1.2 3.9 3.3 0 1.6-.9 2.6-2.2 3.1l2.9 4.3-2.2.4-2.8-4.4zm.2-5H227V25h1.1c1.3 0 2.1-.6 2.1-1.8 0-1-.7-1.6-2.1-1.6m12 .1v9.1H238v-9.1h-3.3v-1.8h8.5l.3 1.8h-3.4zm9 9.2c-1.3 0-2.5-.3-3.4-.8l.3-1.9c.9.5 2 1 3.1 1 1 0 1.6-.5 1.6-1.3s-.4-1.1-2-1.8c-2.1-.9-3-1.6-3-3.2 0-1.9 1.5-3 3.5-3 1.2 0 2.1.3 2.9.7l-.3 1.9c-.8-.5-1.7-.9-2.6-.9-1 0-1.5.5-1.5 1.2s.3 1 1.9 1.7c2.2.9 3.1 1.7 3.1 3.4.1 1.9-1.5 3-3.6 3M125 48.5c-.9.9-2 1.4-3.3 1.4-2.2 0-3.6-1.1-3.6-3 0-1.5.9-2.6 2.3-3.2-.7-.8-1-1.4-1-2.4 0-1.4 1.1-2.7 3.1-2.7 1.1 0 2.1.3 2.8.7l-.3 1.8c-.9-.5-1.6-.8-2.4-.8s-1.2.4-1.2 1.1c0 .5.3.9.9 1.6l2.6 2.8c.3-.7.5-1.5.6-2.5l1.7.4c-.2 1.3-.6 2.4-1.1 3.4l2.3 2.4-2.1.3-1.3-1.3zm-1.1-1.1l-2.5-2.6c-.9.5-1.4 1.2-1.4 2 0 .9.7 1.6 1.8 1.6.8-.1 1.5-.4 2.1-1m11.7 2.3V38.8h6.3v1.8h-4.3v2.6h3.3l.3 1.8h-3.6v3h4.4v1.7h-6.4zm16.7 0l-5.2-7.5v7.5h-1.9V38.8h2l4.9 7.2v-7.2h1.9v10.9h-1.7zm10.1-9v9h-2.1v-9H157v-1.9h8.5l.3 1.9h-3.4zm6.3 9V38.8h6.3v1.8h-4.3v2.6h3.3l.3 1.8h-3.6v3h4.5v1.7h-6.5zm12.6-4.1h-.9v4.2h-2.1v-11h3.4c2.4 0 3.9 1.2 3.9 3.3 0 1.6-.9 2.6-2.2 3.1l2.9 4.3-2.2.4-2.8-4.3zm.2-5.1h-1.2V44h1.1c1.3 0 2.1-.6 2.1-1.8 0-1.1-.7-1.7-2-1.7m12 .2v9h-2.1v-9h-3.3v-1.9h8.4l.3 1.9h-3.3zm11.3 6.3h-4.1l-.9 2.8h-2.1l4.1-10.9h2.2l4 10.7-2.1.4-1.1-3zm-3.6-1.7h2.9l-1.5-4.2-1.4 4.2zm9.7-6.5h2.1v10.9h-2.1V38.8zm12.9 10.9l-5.1-7.5v7.5h-2V38.8h2l4.9 7.2v-7.2h1.9v10.9h-1.7zm15.5 0l-.6-8-2.7 8.1h-1.9l-2.7-8.1-.6 8H229l.8-10.9h2.6l2.8 8.2 2.8-8.2h2.6l.8 10.9h-2.1zm5.5 0V38.8h6.3v1.8h-4.2v2.6h3.2l.3 1.8h-3.5v3h4.4v1.7h-6.5zm16.7 0l-5.1-7.5v7.5h-2V38.8h2l4.9 7.2v-7.2h1.9v10.9h-1.7zm10.1-9v9h-2.1v-9h-3.2v-1.9h8.4l.3 1.9h-3.4z" fill="#32373b"/>

<path fill="none" d="M55.4 18.4c-.7-.1-1.4-.1-2-.1-.4 0-.9.1-1.3.1h3.3zM91.9 58.4c-.3 0-.6-.1-.9-.1.3 0 .6.1.9.1zM89.3 57.9c-.5-.1-1.1-.3-1.6-.5.5.3 1 .4 1.6.5zM98.6 57.3c.1 0-.2.2-.6.3.4-.2.7-.3.6-.3 7.2-2.8 8.2-16.8 7.1-24.2-1-6.2-5.7-14-12.8-14.5-7-.5-12.3 5.5-18.1 11.9 2 2.3 4.3 5.3 6.6 8.9 7.3 11.5 11.9 19.7 17.2 17.9zM39.4 21.8c.6 3.3 1 6.3 1.2 7.6 0 .1 0 .1.1.1-.5-2.8-2.3-18.4-6.3-20.9-.6-.4-1.6-.9-3.5-.6-10.4 1.9-22 43.8-22.8 47.5C9.7 52.1 22.7 30 39.4 21.8zM90.7 58.2c-.4-.1-.8-.2-1.3-.3.5.2.9.3 1.3.3z"/><radialGradient id="SVGID_1_" cx="-3147.339" cy="321.099" r="1.319" gradientTransform="matrix(38.6301 0 0 -38.6301 121615.18 12408.585)" gradientUnits="userSpaceOnUse"><stop offset="0" stop-color="#cdcecf"/><stop offset="1" stop-color="#898a8d"/></radialGradient>

<path d="M9.1 58.7c.1 0 .2-.1.4-.3-.2.2-.3.3-.4.3z" fill="url(#SVGID_1_)"/><radialGradient id="SVGID_2_" cx="-3147.339" cy="321.099" r="1.319" gradientTransform="matrix(38.6301 0 0 -38.6301 121615.18 12408.585)" gradientUnits="userSpaceOnUse"><stop offset="0" stop-color="#cdcecf"/><stop offset="1" stop-color="#898a8d"/></radialGradient>

<path d="M38.7 2.3C36.7.8 34.5 0 32 0c-.8 0-1.7.1-2.5.2C11.8 3.5.5 42 .2 51.9c-.1 1.7-.2 6.9 3.7 8.4 1.7.6 3.4 0 5.2-1.5H9c-.1.1-.3.2-.5.2-.5 0-.6-.6-.6-1.5 0-.6.1-1.2.2-1.9v-.1C8.9 51.8 20.5 9.9 30.9 8c1.9-.3 2.9.2 3.5.6 4 2.5 5.8 18.1 6.3 20.9v.3c.2 1.2.4 2.3.5 3.5 1.5 9 3.6 17.1 10.5 17.1.9 0 2.1-.2 3.1-.5-1.9.2-2.7-.7-3.2-1.5.1 0 .1.1.2.1-.3-.4-.4-.7-.5-1C50.2 45 49.2 36 48.5 32c-.2-1.5-.7-4.6-.7-4.9-.1-.4-1.3-7.6-1.3-7.8-1.4-7.2-3.4-13.6-7.8-17z" fill="url(#SVGID_2_)"/><linearGradient id="SVGID_3_" gradientUnits="userSpaceOnUse" x1="-3173.56" y1="368.63" x2="-3172.241" y2="368.63" gradientTransform="matrix(68.3838 0 0 -68.3838 217028.797 25246.701)"><stop offset="0" stop-color="#005cb9"/><stop offset=".6" stop-color="#0072c3"/><stop offset="1" stop-color="#005cb9"/></linearGradient>

<path d="M89.3 57.9h.1c.4.1.9.2 1.3.3h.3c.3 0 .6.1.9.1 2.9.3 5-.3 6-.8.5-.2.7-.3.6-.3-5.3 1.8-9.9-6.4-17.2-17.9-2.2-3.6-4.6-6.6-6.6-8.9-3-3.4-5.2-5.3-5.4-5.5v-.1c-3.9-3.5-8.5-6-14-6.5H52c-.4 0-.8 0-1.3.1-1.5.2-2.9.5-4.3.8.1.1 1.2 7.4 1.3 7.8 1.3-.3 2.6-.6 4-.8 4.9-.5 8.5 1.2 12.7 4.4C69 34.1 73.7 41.4 75.5 44c3.2 4.5 7.3 10.4 10.6 12.6 0 0 .1.1.3.2.3.2.7.4 1.2.6.6.3 1.1.4 1.7.5z" fill="url(#SVGID_4_)"/><radialGradient id="SVGID_4_" cx="-3147.339" cy="321.099" r="1.319" gradientTransform="matrix(38.6301 0 0 -38.6301 121615.18 12408.585)" gradientUnits="userSpaceOnUse"><stop offset="0" stop-color="#005cb9"/><stop offset="1" stop-color="#0072c3"/></radialGradient>

<path d="M47.8 27.1c-.1-.4-1.2-7.7-1.3-7.8 0 .2 1.2 7.4 1.3 7.8z" fill="url(#SVGID_4_)"/><linearGradient id="SVGID_4_" gradientUnits="userSpaceOnUse" x1="-3173.56" y1="368.852" x2="-3172.241" y2="368.852" gradientTransform="matrix(68.3838 0 0 -68.3838 217028.797 25246.701)"><stop offset="0" stop-color="#005cb9"/><stop offset=".6" stop-color="#0072c3"/><stop offset="1" stop-color="#005cb9"/></linearGradient>

<path d="M47.8 27.1c-.1-.4-1.2-7.7-1.3-7.8 0 .2 1.2 7.4 1.3 7.8z" fill="url(#SVGID_4_)"/><linearGradient id="SVGID_6_" gradientUnits="userSpaceOnUse" x1="-3173.56" y1="368.623" x2="-3172.241" y2="368.623" gradientTransform="matrix(68.384 0 0 -68.384 217029.453 25248.246)"><stop offset="0" stop-color="#005cb9"/><stop offset=".6" stop-color="#0072c3"/><stop offset="1" stop-color="#005cb9"/></linearGradient>

<path d="M40.6 29.4c-.2-1.3-.6-4.3-1.2-7.6C22.7 30 9.7 52.1 8.1 55.5v.2c-.1.6-.2 1.3-.2 1.8 0 .8.1 1.4.6 1.4.2 0 .3 0 .6-.2 0 0 .2-.1.5-.4 2.1-2.2 16.6-21.3 31.1-28.5v-.3c-.1 0-.1-.1-.1-.1z" fill="url(#SVGID_6_)"/><radialGradient id="SVGID_7_" cx="-3147.339" cy="321.099" r="1.319" gradientTransform="matrix(38.6301 0 0 -38.6301 121615.18 12408.585)" gradientUnits="userSpaceOnUse"><stop offset="0" stop-color="#cdcecf"/><stop offset="1" stop-color="#898a8d"/></radialGradient>

<path d="M40.7 29.8v-.3c-.1.1-.1.2 0 .3z" fill="url(#SVGID_7_)"/><linearGradient id="SVGID_8_" gradientUnits="userSpaceOnUse" x1="-3173.56" y1="368.779" x2="-3172.241" y2="368.779" gradientTransform="matrix(68.384 0 0 -68.384 217029.453 25248.246)"><stop offset="0" stop-color="#005cb9"/><stop offset=".6" stop-color="#0072c3"/><stop offset="1" stop-color="#005cb9"/></linearGradient>

<path d="M40.7 29.8v-.3c-.1.1-.1.2 0 .3z" fill="url(#SVGID_8_)"/><radialGradient id="SVGID_9_" cx="-3147.339" cy="321.099" r="1.319" gradientTransform="matrix(38.6301 0 0 -38.6301 121615.18 12408.585)" gradientUnits="userSpaceOnUse"><stop offset="0" stop-color="#cdcecf"/><stop offset="1" stop-color="#898a8d"/></radialGradient>

<path d="M8.1 55.5s0 .1 0 0c-.2.8-.2 1.4-.3 2 0-.5.1-1.1.2-1.8.1-.1.1-.1.1-.2z" fill="url(#SVGID_9_)"/><linearGradient id="SVGID_10_" gradientUnits="userSpaceOnUse" x1="-3173.56" y1="368.387" x2="-3172.241" y2="368.387" gradientTransform="matrix(68.384 0 0 -68.384 217029.453 25248.246)"><stop offset="0" stop-color="#005cb9"/><stop offset=".6" stop-color="#0072c3"/><stop offset="1" stop-color="#005cb9"/></linearGradient>

<path d="M8.1 55.5s0 .1 0 0c-.2.8-.2 1.4-.3 2 0-.5.1-1.1.2-1.8.1-.1.1-.1.1-.2z" fill="url(#SVGID_10_)"/><radialGradient id="SVGID_11_" cx="-3017.544" cy="84.959" r="1.319" gradientTransform="matrix(12.2587 0 0 -12.2587 37053.64 1073.633)" gradientUnits="userSpaceOnUse"><stop offset="0" stop-color="#898a8d"/><stop offset=".412" stop-color="#a2a3a5"/><stop offset="1" stop-color="#c1c2c4"/></radialGradient>


<path d="M55.4 49.6l-.6.3c.2 0 .4 0 .6-.1 4.8-1.9 9.2-7.2 14.2-13.1l.3-.3c-1.7-2.1-3.6-4.1-5.4-5.6-.2.1-1.1 1.3-1.2 1.5-5.4 7-9.1 17-11.5 16.2.5.7 1.5 1.4 3.6 1.1z" fill="url(#SVGID_11_)"/><radialGradient id="SVGID_12_" cx="-3147.339" cy="321.099" r="1.319" gradientTransform="matrix(38.6301 0 0 -38.6301 121615.18 12408.585)" gradientUnits="userSpaceOnUse"><stop offset="0" stop-color="#cdcecf"/><stop offset="1" stop-color="#898a8d"/></radialGradient>

<path d="M54.7 49.9l.6-.3c-2.1.3-3.1-.4-3.6-1.1-.1 0-.1-.1-.2-.1.5.8 1.3 1.6 3.2 1.5z" fill="url(#SVGID_12_)"/><radialGradient id="SVGID_13_" cx="-3017.544" cy="84.959" r="1.319" gradientTransform="matrix(12.2587 0 0 -12.2587 37053.64 1073.633)" gradientUnits="userSpaceOnUse"><stop offset="0" stop-color="#898a8d"/><stop offset=".412" stop-color="#a2a3a5"/><stop offset="1" stop-color="#c1c2c4"/></radialGradient>

<path d="M54.7 49.9l.6-.3c-2.1.3-3.1-.4-3.6-1.1-.1 0-.1-.1-.2-.1.5.8 1.3 1.6 3.2 1.5z" fill="url(#SVGID_13_)"/><radialGradient id="SVGID_14_" cx="91.369" cy="26.42" r="23.424" gradientTransform="matrix(1 0 0 -1 0 62)" gradientUnits="userSpaceOnUse"><stop offset="0" stop-color="#cdcecf"/><stop offset="1" stop-color="#898a8d"/></radialGradient>

<path d="M113 32c-1.8-11.7-10.5-20.5-19.8-21.2h-1.3c-9.3 0-16 7.1-22.5 14.2.3.3 2.5 2.2 5.4 5.5 5.8-6.4 11.1-12.4 18.1-11.9 7.1.5 11.8 8.3 12.8 14.5 1.1 7.4.1 21.4-7 24.2 0 0-.3.2-.7.3-.2.1-.4.2-.7.3-1.1.4-2.9.7-5.4.5-.3 0-.6-.1-.9-.1h-.3c-.4-.1-.8-.2-1.3-.3h-.1c-.5-.1-1.1-.3-1.6-.5-.6-.2-1-.4-1.2-.6-.2-.1-.3-.2-.4-.2.3.3 1 .8 1.5 1.1 3.7 2.5 7.8 3.5 12.7 1.6 11-4.3 14.3-16.8 12.7-27.4z" fill="url(#SVGID_14_)"/><linearGradient id="SVGID_15_" gradientUnits="userSpaceOnUse" x1="-3173.56" y1="368.339" x2="-3172.241" y2="368.339" gradientTransform="matrix(68.3838 0 0 -68.3838 217028.797 25246.701)"><stop offset="0" stop-color="#005cb9"/><stop offset=".6" stop-color="#0072c3"/><stop offset="1" stop-color="#005cb9"/></linearGradient>

<path d="M91 58.3h-.3c.1-.1.2 0 .3 0z" fill="url(#SVGID_15_)"/><radialGradient id="SVGID_16_" cx="91.346" cy="26.42" r="23.435" gradientTransform="matrix(1 0 0 -1 0 62)" gradientUnits="userSpaceOnUse"><stop offset="0" stop-color="#cdcecf"/><stop offset="1" stop-color="#898a8d"/></radialGradient>

<path d="M91 58.3h-.3c.1-.1.2 0 .3 0z" fill="url(#SVGID_16_)"/><linearGradient id="SVGID_17_" gradientUnits="userSpaceOnUse" x1="-3173.56" y1="368.355" x2="-3172.241" y2="368.355" gradientTransform="matrix(68.3838 0 0 -68.3838 217028.797 25246.701)"><stop offset="0" stop-color="#005cb9"/><stop offset=".6" stop-color="#0072c3"/><stop offset="1" stop-color="#005cb9"/></linearGradient>

<path d="M86.4 56.9c.3.2.7.4 1.2.6-.4-.2-.9-.5-1.2-.6z" fill="url(#SVGID_17_)"/><radialGradient id="SVGID_18_" cx="91.346" cy="26.42" r="23.435" gradientTransform="matrix(1 0 0 -1 0 62)" gradientUnits="userSpaceOnUse"><stop offset="0" stop-color="#cdcecf"/><stop offset="1" stop-color="#898a8d"/></radialGradient>

<path d="M86.4 56.9c.3.2.7.4 1.2.6-.4-.2-.9-.5-1.2-.6z" fill="url(#SVGID_18_)"/><linearGradient id="SVGID_19_" gradientUnits="userSpaceOnUse" x1="-3173.56" y1="368.342" x2="-3172.241" y2="368.342" gradientTransform="matrix(68.3838 0 0 -68.3838 217028.797 25246.701)"><stop offset="0" stop-color="#005cb9"/><stop offset=".6" stop-color="#0072c3"/><stop offset="1" stop-color="#005cb9"/></linearGradient>

<path d="M91.9 58.4c2.4.2 4.2-.1 5.4-.5.3-.1.5-.2.7-.3-1.1.4-3.2 1-6.1.8z" fill="url(#SVGID_19_)"/><radialGradient id="SVGID_20_" cx="91.346" cy="26.42" r="23.435" gradientTransform="matrix(1 0 0 -1 0 62)" gradientUnits="userSpaceOnUse"><stop offset="0" stop-color="#cdcecf"/><stop offset="1" stop-color="#898a8d"/></radialGradient>

<path d="M91.9 58.4c2.4.2 4.2-.1 5.4-.5.3-.1.5-.2.7-.3-1.1.4-3.2 1-6.1.8z" fill="url(#SVGID_20_)"/><linearGradient id="SVGID_21_" gradientUnits="userSpaceOnUse" x1="-3173.56" y1="368.344" x2="-3172.241" y2="368.344" gradientTransform="matrix(68.3838 0 0 -68.3838 217028.797 25246.701)"><stop offset="0" stop-color="#005cb9"/><stop offset=".6" stop-color="#0072c3"/><stop offset="1" stop-color="#005cb9"/></linearGradient>

<path d="M89.4 58h-.1.1z" fill="url(#SVGID_21_)"/><radialGradient id="SVGID_22_" cx="91.346" cy="26.42" r="23.435" gradientTransform="matrix(1 0 0 -1 0 62)" gradientUnits="userSpaceOnUse"><stop offset="0" stop-color="#cdcecf"/><stop offset="1" stop-color="#898a8d"/></radialGradient>

<path d="M89.4 58h-.1.1z" fill="url(#SVGID_22_)"/><linearGradient id="SVGID_23_" gradientUnits="userSpaceOnUse" x1="-3173.56" y1="368.786" x2="-3172.241" y2="368.786" gradientTransform="matrix(68.3838 0 0 -68.3838 217028.797 25246.701)"><stop offset="0" stop-color="#005cb9"/><stop offset=".6" stop-color="#0072c3"/><stop offset="1" stop-color="#005cb9"/></linearGradient>

<path d="M74.8 30.5c-2.9-3.3-5.1-5.3-5.4-5.5.2.2 2.4 2.1 5.4 5.5z" fill="url(#SVGID_23_)"/><radialGradient id="SVGID_24_" cx="91.346" cy="26.42" r="23.435" gradientTransform="matrix(1 0 0 -1 0 62)" gradientUnits="userSpaceOnUse"><stop offset="0" stop-color="#cdcecf"/><stop offset="1" stop-color="#898a8d"/></radialGradient>

<path d="M74.8 30.5c-2.9-3.3-5.1-5.3-5.4-5.5.2.2 2.4 2.1 5.4 5.5z" fill="url(#SVGID_24_)"/>

</svg>