<svg xmlns="http://www.w3.org/2000/svg" viewBox="0 0 80 29.3"><path fill="#231f20" d="M4.1 26.1L6.8 24c4.8 2.8 10.8 2.8 15.6 0l2.7 2.1c-2.4 1.6-5.1 2.7-8 3.1-4.5.6-9.2-.5-13-3.1zM25.2 3.2l-2.7 2.1c-4.9-2.8-10.8-2.8-15.7 0L4.1 3.2c6.4-4.3 14.7-4.3 21.1 0zm.9 22L24 22.5c2.8-4.8 2.8-10.8 0-15.6l2.1-2.7c1.7 2.4 2.7 5.2 3.1 8.1.6 4.5-.5 9.1-3.1 12.9zM5.3 22.5l-2.1 2.7c-4.3-6.4-4.3-14.7 0-21.1l.6.8 1.4 1.8c.1.1.1.2 0 .2-.9 1.6-1.5 3.4-1.8 5.2-.2 1.2-.2 2.4-.2 3.5.1 1.6.5 3.2 1.1 4.8.3.7.7 1.4 1 2.1zm.6-4.9c.2.2.4.4.7.6.9.8 2 1.2 3.2 1.2.5 0 .9-.1 1.2-.5.5-.6.5-1.5 0-2.2-.4-.4-.8-.7-1.3-.9-.6-.3-1.3-.7-2-1-.7-.3-1.2-.8-1.6-1.5-.7-1.4-.3-3.2 1-4.1.6-.5 1.4-.8 2.2-.9.9-.1 1.8-.1 2.6.2.5.1 1 .3 1.4.7 0 0 .1.1.1.2v2.4l-.3-.3c-1.1-.8-2.4-1-3.7-.7-.6.1-1 .7-.9 1.3.1.4.3.7.6.8.4.3.9.5 1.3.8.8.4 1.5.8 2.2 1.4 1 .8 1.5 2 1.4 3.2 0 1-.4 1.9-1.1 2.5-.7.6-1.6 1-2.5 1-.8.1-1.6 0-2.4-.3-.7-.2-1.3-.5-1.9-.9-.1 0-.1-.1-.1-.2-.1-1-.1-1.9-.1-2.8zm12 4.2h-2.5V9.2c0-.1.1-.2.2-.2 1-.4 2-.6 3.1-.7 1.4-.2 2.8 0 4.1.5.2.1.5.2.7.3.1 0 .1.1.1.2v2.3h-.1c-.7-.5-1.6-.8-2.5-.9-.9-.1-1.9-.1-2.8.2-.1 0-.2.1-.2.2v10.5c-.1.1-.1.1-.1.2z"/><path d="M22.2 15c0 .9-.7 1.5-1.5 1.5-.9 0-1.5-.7-1.5-1.5 0-.9.7-1.5 1.5-1.5.8-.1 1.5.6 1.5 1.5 0-.1 0-.1 0 0z" fill="#cd2730"/><path fill="#231f20" d="M56.1 15.9v3.2h-2.2v-8.8h3.4c.5 0 1 .1 1.4.3.8.3 1.3 1 1.3 1.8.2.8 0 1.6-.5 2.2-.3.3-.6.6-1 .8l2.4 3.7h-2.3c-.1 0-.3-.1-.3-.2-.5-1-1.1-2-1.6-3 0-.1-.1-.1-.2-.1l-.4.1zm0-4.1v2.4h.7c.6 0 1.1-.4 1.2-1 .1-.5-.2-1.1-.7-1.2h-.1c-.4-.2-.7-.2-1.1-.2zM49 16.3v2.3c0 .4 0 .4-.4.4h-1.8v-8.8h3.7c.8 0 1.6.3 2.2.9.4.4.6 1 .6 1.6.1.8-.1 1.5-.5 2.2-.4.6-1.1 1-1.8 1.2-.5.1-1 .2-1.6.2H49zm0-1.8c.4 0 .8-.1 1.2-.1.7-.1 1.2-.7 1.1-1.4 0-.1 0-.2-.1-.3-.1-.3-.3-.6-.6-.7-.6-.1-1.1-.2-1.7-.1l.1 2.6zm-15.7 4.6v-8.8h5.3c.2 0 .2 0 .2.2v1.4h-3.4v1.8h2.9v1.6h-2.9v2h3.3v1.5c0 .1 0 .2-.2.2l-5.2.1zm30.2-1.8h3.3V19h-5.5v-8.8h5.5v1.6h-3.3v1.8h2.9v1.6h-2.9v2.1zm-20.7-4.9c.4-.6.7-1.2 1-1.9.1-.2.3-.3.5-.3h2c-.2.4-.4.7-.6 1l-1.8 3.2c-.1.1-.1.2 0 .3l2.3 4.1.1.2h-2c-.2 0-.4-.1-.4-.3-.3-.7-.7-1.3-1.1-2-.2.3-.3.5-.5.8-.2.4-.5.9-.8 1.3 0 .1-.1.2-.2.2h-2c.1-.2.2-.4.2-.5.7-1.2 1.3-2.4 2-3.6.1-.2.1-.5 0-.7-.7-1.3-1.5-2.6-2.2-3.9l-.1-.1h2c.2 0 .3.1.4.2.3.6.7 1.2 1 1.7.1.2.1.2.2.3zm30.2 0c-.5-.3-1-.6-1.6-.7-.4-.1-.7-.1-1.1 0-.3.1-.5.3-.6.7-.1.3.1.6.4.7l1.2.6c.5.2 1 .5 1.4.9 1 1.2.8 2.9-.3 3.9-.3.3-.7.4-1 .6-1.2.3-2.5.3-3.6-.2-.1 0-.2-.2-.2-.3v-1.8c.3.2.5.3.8.5.6.3 1.4.5 2.1.3.5-.1.9-.6.8-1.1 0-.3-.2-.5-.4-.6l-1.2-.6c-.5-.2-.9-.5-1.3-.8-.7-.7-.9-1.7-.5-2.6.3-.9 1.1-1.5 2-1.6 1-.2 2.1-.1 3 .3.2.1.2.1.2.3-.1.4-.1.9-.1 1.5zm1.2 4.3c.4.2.8.5 1.2.6.5.2 1.1.2 1.6.1s.9-.5.8-1c0-.3-.2-.6-.5-.8-.4-.2-.8-.4-1.1-.6-.3-.2-.6-.3-.9-.5-.8-.5-1.2-1.4-1-2.3 0-.9.6-1.7 1.4-2 .4-.2.8-.3 1.3-.3.8-.1 1.7 0 2.5.4.1 0 .2.2.2.3v1.6c-.3-.2-.7-.4-1-.5-.5-.2-1-.3-1.5-.2-.4 0-.8.4-.8.8 0 .3.2.5.4.6l1.2.6c.5.2 1 .5 1.4.8.4.4.7 1 .7 1.6 0 .7-.2 1.4-.6 2-.3.4-.7.6-1.2.8-1.3.4-2.6.3-3.8-.2-.1 0-.1-.1-.1-.2-.2-.4-.2-1-.2-1.6z"/></svg>