<svg xmlns="http://www.w3.org/2000/svg" viewBox="0 0 128 34"><path fill-rule="evenodd" clip-rule="evenodd" fill="#0B203F" d="M47.6 12.9c1.5 0 2.3-.9 2.5-1.6.2-1.2-.8-1.9-1.9-2.1l-1.3-.3c-2.1-.5-2.3-1.7-2.3-2.5 0-1.6 1.5-2.7 3.1-2.7 1.8 0 3.1 1.1 3.1 2.9h-1c0-1.2-.9-1.9-2.2-1.9-1.1 0-2.2.7-2.2 1.8 0 .5.2 1.3 1.6 1.6l1.4.3c1.6.4 2.9 1.3 2.6 3.2-.2 1.2-1.3 2.4-3.4 2.4-2 0-3.2-1.6-3.2-3h1c-.1.9.8 1.9 2.2 1.9M57.1 13.7h-1V9.1l-3.7-5.4h1.1L56.6 8l3.1-4.3h1.2l-3.8 5.4v4.6M72.5 3.7h.9l1.2 10h-.9l-1-8.3-3.5 7.2h-1l-3.5-7.2-1 8.3h-1l1.2-10h1l3.8 7.8 3.8-7.8M78.4 4.7v4.2h2.9c1.4 0 1.9-1 1.9-2.1s-.5-2.1-1.9-2.1h-2.9zm3-1c2 0 2.8 1.5 2.8 3.1 0 1.5-.8 3-2.8 3h-3v3.9h-1v-10h4zM93.8 13.7h-1V9.2h-5.5v4.5h-.9v-10h.9v4.6h5.5V3.7h1v10M101.9 12.9c2.3 0 4.1-1.9 4.1-4.2 0-2.3-1.8-4.2-4.1-4.2s-4.1 1.9-4.1 4.2c0 2.4 1.8 4.2 4.1 4.2zm0-9.3c2.8 0 5 2.3 5 5.1s-2.2 5.1-5 5.1-5-2.3-5-5.1c-.1-2.8 2.1-5.1 5-5.1zM116 13.7l-5.1-8.3v8.3h-.9v-10h1l5.1 8.3V3.7h.9v10h-1M124.2 13.7h-1V9.1l-3.7-5.4h1.1l3.1 4.3 3.1-4.3h1.2l-3.8 5.4v4.6"/><path fill="none" d="M10.7 23c-1 0-1.8-.8-1.8-1.8s.8-1.8 1.8-1.8 1.8.8 1.8 1.8-.8 1.8-1.8 1.8"/><path fill-rule="evenodd" clip-rule="evenodd" fill="#6CB644" d="M37.4 16.6v-.3c0-2.5-.6-4.9-1.8-7 .4-.3.7-.8.7-1.4 0-1-.8-1.8-1.8-1.8-.4 0-.7.1-1 .3-2.1-2.4-4.9-4.3-8.2-5.2v.4c1.7.5 3.3 1.3 4.7 2.2-5.1.5-8.6 2.7-9.2 3.1V7h-.1V7.3H21c.2 0 .4.1.6.1l-.1.2c2.2 1.8 4.8 5.3 6.1 7-.3.2-.4.6-.4 1 0 .2.1.5.2.7-1 .9-4 3.4-9.1 5.7l.2.4c5.1-2.3 8.1-4.8 9.1-5.7.2.2.6.4.9.4.2 0 .4 0 .5-.1.5.9 1 1.9 1.4 2.9-1.8 3.9-4.3 6.7-4.9 7.3 0 0-.1 0-.1-.1v.4h.2s2.7-1 5.5-.6v.2c0 .3.1.7.3.9-3 2.4-6.8 3.9-11.1 3.9h-1.2v.4h1.2c4.3 0 8.3-1.5 11.3-4 .3.3.7.4 1.1.4.9 0 1.6-.7 1.6-1.6 0-.4-.2-.8-.4-1.1 1.6-1.9 2.7-4.2 3.2-6.7h.1c.7 0 1.3-.6 1.3-1.3.1-.8-.4-1.3-1.1-1.4zm-4.7 8.8h-.1c-.3-1.4-.9-3.6-1.7-5.7 1.1-2.5 1.8-5.3 1.6-8.4.9 1 3 3.6 4.1 5.5-.3.2-.5.6-.5 1 0 .1 0 .3.1.4-1.3.9-3 2.8-3.5 7.2zm4.3-9.1v.3c-.1 0-.2 0-.2.1-1.4-2.5-4.4-5.9-4.5-6l-.1-.2c.1-.7.1-1.5 0-2.2h.7c.1.7.8 1.3 1.7 1.3.3 0 .5-.1.7-.2 1.1 2.1 1.7 4.4 1.7 6.9zm-3.7-9.7c-.3.3-.5.8-.5 1.3h-.7c-.2-1.5-.7-2.8-1-3.5.8.6 1.5 1.4 2.2 2.2zm-1.6 1.3c-2.3.1-5.8 0-10.2-.9 1.1-.7 4.4-2.5 9-2.9.2.4.9 1.9 1.2 3.8zm-9.8-.4c3.4.6 6.3.8 8.5.8h1.4v.1c.3 2.7-.5 4.8-2.4 6.3-.2-.3-.6-.4-1-.4-.2 0-.4.1-.6.1-1.2-1.7-3.7-5-5.9-6.9zm7.4 9.1c.3-.2.5-.6.5-1 0-.2-.1-.4-.1-.6 1.3-1.1 2-2.4 2.3-3.7.2 2.8-.4 5.5-1.4 7.9-.4-.9-.8-1.8-1.3-2.6zm-3.1 10.2c.9-1 2.9-3.4 4.4-6.6.7 2 1.3 3.9 1.6 5.3-.5.2-.8.5-1 1-2.1-.4-4 0-5 .3zm7.4-1.1l-.6-.3c.6-4.1 2.1-5.9 3.1-6.8.1.2.3.4.6.4-.4 2.5-1.5 4.8-3.1 6.7z"/><g fill-rule="evenodd" clip-rule="evenodd" fill="#0B203F"><path d="M4.5 16c-.7 0-1.3.6-1.3 1.3 0 .7.6 1.3 1.3 1.3s1.3-.6 1.3-1.3c0-.7-.6-1.3-1.3-1.3zM7.8 5.4c0-.7-.6-1.3-1.3-1.3-.7 0-1.3.6-1.3 1.3s.6 1.3 1.3 1.3c.7.1 1.3-.5 1.3-1.3zM1.1 9.4c-.6 0-1.1.5-1.1 1.1 0 .6.5 1.1 1.1 1.1s1.1-.5 1.1-1.1c0-.6-.5-1.1-1.1-1.1zM8.3 9.4c-.9 0-1.6.7-1.6 1.6 0 .9.7 1.6 1.6 1.6.9 0 1.6-.7 1.6-1.6-.1-.9-.8-1.6-1.6-1.6zM15.7 25.8c-.7 0-1.3.6-1.3 1.3 0 .7.6 1.3 1.3 1.3.7 0 1.3-.6 1.3-1.3 0-.7-.6-1.3-1.3-1.3z"/><path d="M25.5 25.9c-.4 0-.8.2-1.1.5-2.1-1.2-3.8-2.4-5.1-3.6.2-.2.3-.5.3-.8 0-.7-.6-1.3-1.3-1.3-.3 0-.6.1-.8.3-1.9-2.1-2.8-4.1-3.3-5.4.6-.2 1-.8 1-1.5 0-.5-.2-.9-.5-1.2 1.1-1.3 2.9-3.4 5.1-4.8.3.3.7.6 1.1.6.8 0 1.4-.6 1.4-1.4 0-.6-.4-1.1-.9-1.3.5-1.4 1.4-3 3-4 .2.4.6.6 1.1.6.7 0 1.3-.6 1.3-1.3 0-.7-.6-1.3-1.3-1.3-.5 0-1 .3-1.2.8-1.3-.3-2.6-.4-4-.4-1.8 0-3.5.3-5.2.8-.3-.5-.9-.8-1.5-.8-1 0-1.9.8-1.9 1.9 0 1 .8 1.9 1.9 1.9.5 0 .9-.2 1.3-.5 1.1.9 2.9 2.2 4.8 3.2 0 .1-.1.3-.1.4 0 .2 0 .4.1.6-2.2 1.5-4.1 3.6-5.2 4.9-.2-.1-.5-.2-.8-.2-.9 0-1.7.7-1.7 1.7 0 .9.7 1.7 1.7 1.7h.2c.3.8.7 1.8 1.4 2.9.5.8 1.1 1.7 2 2.6-.2-.1-.3.2-.3.5 0 .7.6 1.3 1.3 1.3.3 0 .5-.1.7-.2 1.4 1.2 3.1 2.5 5.2 3.7 0 .1-.1.3-.1.4 0 .2 0 .4.1.5-1.2.7-2.8 2.1-4 3.1-.3-.3-.8-.5-1.2-.5-1 0-1.8.8-1.8 1.8s.8 1.8 1.8 1.8 1.8-.8 1.8-1.8c0-.4-.1-.8-.3-1.1 1.2-1 2.8-2.4 3.9-3 .2.3.6.5 1 .5.7 0 1.3-.6 1.3-1.3.1-.7-.4-1.3-1.2-1.3zM15.1 3.3c.2-.3.3-.7.3-1.1 0-.3-.1-.5-.2-.7 1.6-.5 3.3-.7 5-.7 1.4 0 2.7.2 3.9.4v.1c0 .1 0 .2.1.4-1.8 1.1-2.7 2.8-3.1 4h-.2c-.5 0-1 .3-1.2.7-1.8-.9-3.5-2.2-4.6-3.1z"/></g><path fill-rule="evenodd" clip-rule="evenodd" fill="#0B203F" d="M46.9 19.2v3.5h2.2c1 0 1.6-.9 1.6-1.7 0-.8-.5-1.7-1.5-1.7h-2.3zm6.6 10.1h-3.2L47.5 25h-.6v4.3h-2.6V16.9h5.1c2.8 0 4.1 2 4.1 4.1 0 1.8-1 3.5-3.1 3.9l3.1 4.4zM55.5 16.9h7.8v2.3h-5.2v2.9h4.6v2.2h-4.6V27h5.4v2.3h-8V16.9M64.9 16.9h9.3v2.4h-3.3v10h-2.7v-10h-3.3v-2.4"/><path fill-rule="evenodd" clip-rule="evenodd" fill="#6CB644" d="M80.4 24.1l-1.3-4.3-1.3 4.3h2.6zm-3.5 2.3l-1.1 2.9H73l4.6-12.4h2.9l4.6 12.4h-2.8l-1.1-2.9h-4.3z"/><path fill-rule="evenodd" clip-rule="evenodd" fill="#0B203F" d="M91.1 16.9h2.7V27h4.6v2.3h-7.3V16.9"/><path fill-rule="evenodd" clip-rule="evenodd" fill="#6CB644" d="M86.1 29.3h2.6V16.9h-2.6z"/></svg>