<svg id="Layer_1" data-name="Layer 1" xmlns="http://www.w3.org/2000/svg" viewBox="0 0 600.23 158.91"><path d="M223.36,60.46c7,0,10.78-4.21,11.71-7.5.94-5.62-3.75-8.9-8.9-9.84l-6.1-1.41c-9.84-2.34-10.78-8-10.78-11.71,0-7.5,7-12.66,14.53-12.66,8.44,0,14.53,5.16,14.53,13.59h-4.68c0-5.62-4.22-8.9-10.32-8.9C218.2,22,213,25.31,213,30.46c0,2.35.94,6.1,7.5,7.5l6.56,1.41c7.5,1.88,13.6,6.09,12.19,15-.94,5.63-6.09,11.25-15.94,11.25a14.62,14.62,0,0,1-15-14.06H213c-.47,4.22,3.75,8.9,10.31,8.9m44.54,3.75h-4.66V42.65L245.89,17.34H251L265.57,37.5,280.1,17.34h5.63L267.92,42.65V64.21M340.1,17.34h4.22L350,64.21h-4.22L341,25.31l-16.4,33.75H320L303.54,25.31l-4.69,38.9h-4.68l5.62-46.87h4.69L322.23,53.9,340,17.34M367.7,22V41.71h13.59c6.57,0,8.91-4.68,8.91-9.84S387.86,22,381.29,22Zm14.06-4.69c9.38,0,13.13,7,13.13,14.53,0,7-3.75,14.06-13.13,14.06h-14V64.21H363V17.34Zm58.13,46.87h-4.66V43.12H409.45V64.21h-4.22V17.34h4.22V38.9h25.78V17.34h4.69V64.21m38-3.75a19.69,19.69,0,1,0-19.25-20.13v.45c0,11.25,8.44,19.68,19.22,19.68Zm0-43.59a23.91,23.91,0,1,1-23.47,24.35v-.44a23,23,0,0,1,22.06-23.9c.46,0,.92,0,1.38,0ZM544,64.21,520.1,25.31v38.9h-4.21V17.34h4.68l23.91,38.91V17.34h4.22V64.21H544m38.44,0h-4.72V42.65L560.39,17.34h5.15L580.07,37.5l14.54-20.16h5.62L582.42,42.65V64.21" style="fill:#fff;fill-rule:evenodd"/><path d="M50.39,107.78a8.44,8.44,0,1,1,8.43-8.45h0a8.4,8.4,0,0,1-8.36,8.44h-.07" style="fill:none"/><path d="M175.54,77.78V76.37a65.88,65.88,0,0,0-8.43-32.81A8.25,8.25,0,0,0,170.39,37,8.4,8.4,0,0,0,162,28.56H162A7.9,7.9,0,0,0,157.26,30,78.85,78.85,0,0,0,118.82,5.59V7.47a86.16,86.16,0,0,1,22,10.31c-23.91,2.34-40.32,12.65-43.13,14.53v.47h-.46v1.4h1.41c.94,0,1.87.47,2.81.47l-.47.94c10.31,8.44,22.5,24.84,28.6,32.81-1.41.94-1.88,2.82-1.88,4.69a8.6,8.6,0,0,0,.94,3.28C124,80.59,109.89,92.31,86,103.09l.94,1.88c23.91-10.79,38-22.5,42.66-26.72a7,7,0,0,0,4.21,1.87,3.53,3.53,0,0,0,2.35-.47,121.51,121.51,0,0,1,6.56,13.6,132.79,132.79,0,0,1-23,34.22.45.45,0,0,1-.47-.45v1.85h1s12.66-4.69,25.78-2.81V127a6.52,6.52,0,0,0,1.41,4.22,82.6,82.6,0,0,1-52,18.28H89.76v1.87h5.63a83,83,0,0,0,53-18.75,7,7,0,0,0,5.15,1.88,7.4,7.4,0,0,0,7.5-7.3V127a10,10,0,0,0-1.87-5.16,70.08,70.08,0,0,0,15-31.41h.46a6.2,6.2,0,0,0,6.1-6.09C181.17,80.62,178.82,78.28,175.54,77.78Zm-22,41.25h-.47a195.45,195.45,0,0,0-8-26.72c5.16-11.72,8.44-24.84,7.5-39.38,4.22,4.69,14.07,16.88,19.22,25.79a5.74,5.74,0,0,0-2.34,4.68,2.79,2.79,0,0,0,.47,1.88c-6.1,4.25-14.07,13.15-16.41,33.78ZM173.7,76.37v1.41c-.47,0-.94,0-.94.47-6.56-11.72-20.63-27.66-21.09-28.13l-.47-.94a37.87,37.87,0,0,0,0-10.31h3.28c.47,3.28,3.75,6.1,8,6.1a6.8,6.8,0,0,0,3.28-.94,68.73,68.73,0,0,1,7.91,32.37ZM156.35,30.9A9,9,0,0,0,154,37h-3.28A64.72,64.72,0,0,0,146,20.59c3.72,2.84,7,6.59,10.28,10.34Zm-7.5,6.1A197.08,197.08,0,0,1,101,32.78a97.43,97.43,0,0,1,42.22-13.57A64.83,64.83,0,0,1,148.82,37Zm-45.93-1.88a232.35,232.35,0,0,0,39.84,3.75h6.56v.47q2.12,19-11.25,29.53c-.94-1.4-2.81-1.87-4.69-1.87-.93,0-1.87.47-2.81.47-5.65-7.94-17.34-23.41-27.68-32.32Zm34.65,42.66a5.78,5.78,0,0,0,2.35-4.69c0-.94-.47-1.87-.47-2.81A31.87,31.87,0,0,0,150.23,53c.94,13.13-1.88,25.79-6.56,37A98.21,98.21,0,0,0,137.57,77.78ZM123,125.59a131.43,131.43,0,0,0,20.63-30.94,228.5,228.5,0,0,1,7.5,24.85,7.69,7.69,0,0,0-4.69,4.68A50.68,50.68,0,0,0,123,125.62Zm34.69-5.16-2.81-1.4c2.81-19.22,9.84-27.66,14.53-31.88A3.15,3.15,0,0,0,172.26,89a64.62,64.62,0,0,1-14.53,31.43Z" style="fill:#6cb645;fill-rule:evenodd"/><path d="M21.32,75a6.09,6.09,0,1,0,6.1,6.09A6.2,6.2,0,0,0,21.32,75ZM36.79,25.31A6.09,6.09,0,1,0,30.7,31.4h0C34,31.87,36.79,29.06,36.79,25.31ZM5.39,44.06a5.16,5.16,0,0,0-.46,10.31,3.53,3.53,0,0,0,.46,0,5.16,5.16,0,0,0,0-10.31Zm33.75,0a7.5,7.5,0,1,0,7.5,7.5C46.17,47.34,42.89,44.06,39.14,44.06Zm34.68,76.87a6.1,6.1,0,1,0,6.1,6.1A6.22,6.22,0,0,0,73.82,120.93Z" style="fill:#fff;fill-rule:evenodd"/><path d="M119.76,121.4a7.47,7.47,0,0,0-5.15,2.35q-14.77-8.44-23.91-16.88a5.31,5.31,0,0,0,1.4-3.75A6.2,6.2,0,0,0,86,97a5.38,5.38,0,0,0-3.75,1.4A79,79,0,0,1,66.79,73.12a7.22,7.22,0,0,0,4.69-7,7.82,7.82,0,0,0-2.34-5.63C74.29,54.4,82.73,44.56,93,38c1.41,1.38,3.28,2.79,5.19,2.79a6.42,6.42,0,0,0,6.56-6.26v-.31a6.67,6.67,0,0,0-4.22-6.09c2.35-6.56,6.57-14.06,14.07-18.75a5.34,5.34,0,0,0,5.15,2.81,6.09,6.09,0,1,0-5.62-8.43A81.53,81.53,0,0,0,95.42,1.87,85.7,85.7,0,0,0,71,5.62a8.26,8.26,0,0,0-7-3.75,8.91,8.91,0,1,0-.6,17.81q.3,0,.6,0a9.84,9.84,0,0,0,6.09-2.34,143,143,0,0,0,22.5,15c0,.47-.46,1.41-.46,1.87A5.94,5.94,0,0,0,92.63,37C82.32,44,73.42,53.9,68.26,60a8.78,8.78,0,0,0-3.75-.94,8,8,0,0,0,0,15.94h.94A70,70,0,0,0,72,88.62a65.81,65.81,0,0,0,9.31,12.16c-.93-.47-1.4.93-1.4,2.34A6.2,6.2,0,0,0,86,109.21a6.69,6.69,0,0,0,3.28-.93,156.85,156.85,0,0,0,24.38,17.34c0,.47-.47,1.41-.47,1.88a3.49,3.49,0,0,0,.47,2.34c-5.63,3.28-13.13,9.84-18.75,14.53A8.63,8.63,0,0,0,89.29,142a8.44,8.44,0,1,0,8.44,8.44h0a9.52,9.52,0,0,0-1.41-5.15c5.63-4.69,13.13-11.25,18.29-14.06a5.77,5.77,0,0,0,4.68,2.34,6.22,6.22,0,0,0,6.1-6.09C125.86,124.21,123.51,121.4,119.76,121.4ZM71,15.46a9.52,9.52,0,0,0,1.41-5.15A6.74,6.74,0,0,0,71.48,7,78.41,78.41,0,0,1,94.92,3.78a109.27,109.27,0,0,1,18.31,1.84v.47A3.5,3.5,0,0,0,113.7,8,34.82,34.82,0,0,0,99.17,26.71h-.94A6.52,6.52,0,0,0,92.6,30C84.14,25.78,76.17,19.68,71,15.46Z" style="fill:#fff;fill-rule:evenodd"/><path d="M220.07,90v16.4h10.32c4.68,0,7.5-4.22,7.5-8s-2.35-8-7-8H220.07ZM251,137.34H236l-13.12-20.16h-2.82v20.16H207.89V79.21h23.9c13.13,0,19.22,9.38,19.22,19.22,0,8.44-4.69,16.41-14.53,18.28Zm9.38-58.13H297V90H272.57v13.59h21.57V113.9H272.57v12.66h25.32v10.78h-37.5V79.21m44.06,0H348V90.46H332.57v46.88H319.92V90.46H304.45V79.21" style="fill:#fff;fill-rule:evenodd"/><path d="M377.11,113,371,92.78l-6.09,20.15ZM360.7,123.78l-5.16,13.59H342.42L364,79.24h13.59l21.57,58.13H386l-5.15-13.59Z" style="fill:#6cb645;fill-rule:evenodd"/><path d="M427.23,79.21h12.66v47.35h21.56v10.78H427.23V79.21" style="fill:#fff;fill-rule:evenodd"/><path d="M403.82,137.34H416V79.21H403.82Z" style="fill:#6cb645;fill-rule:evenodd"/></svg>