<svg xmlns="http://www.w3.org/2000/svg" viewBox="0 0 150.7 32"><path fill="#B2191E" d="M16.1.2C7.4.2.3 7.3.3 16s7.1 15.8 15.8 15.8c8.7 0 15.8-7.1 15.8-15.8S24.8.2 16.1.2zM2.7 10.5c.2-.6.4-1.3.8-1.9 1-1.6 2.3-2.8 3.3-2.9h18.1c1 .4 1.7 1.3 1.6 2.4 0 .5-.1.9-.3 1.3H5.3c-1.3 0-2.3.8-2.8 1.9.1-.3.1-.5.2-.8zM18 30.4c-.6.2-1.3.3-2 .3-1.8 0-3.5-.6-4.1-1.4l-.2-.3S4.1 15.8 2.8 13.6c-.1-1.1.4-2.2 1.3-2.7.4-.3.8-.4 1.3-.4 1.4 2.3 10.5 18.1 10.5 18.1.6 1.1 1.8 1.6 2.9 1.5-.3.1-.5.2-.8.3zm11.6-17.1S22 26.5 20.7 28.7c-.8.7-2 .8-3 .2-.3-.2-.7-.5-.9-.9 1.4-2.3 10.5-18.1 10.5-18.1.6-1.1.5-2.4-.2-3.3.2.1.4.3.6.5.4.4.8 1 1.2 1.6 1 1.6 1.3 3.3.9 4.3l-.2.3zM59.3 6.7c.8-.7 1.6-1.2 2.5-1.5H34.3v4.5h8v20.6h5.3V9.7h9.1c.7-1.2 1.6-2.1 2.6-3z"/><path fill="#B2191E" d="M78.3 25.8h-8.5c-5.1 0-7-1.5-7.4-5.7h14.1v-4.5H62.4c.2-2.5.3-3 1.1-4.1 1.1-1.4 2.4-1.8 6-1.8h6.9V5.2h-9c-3.4 0-5.1.5-6.9 2-2.9 2.4-4.2 5.9-4.2 10.5 0 4 1.2 7.5 3.3 9.7 2 2.1 4.5 2.8 9.9 2.8h14.6c-2.5-.8-4.5-2.3-5.8-4.4z"/><path fill="#B2191E" d="M90.9 9.2c-4.7 0-6.6 2.5-6.6 8.4s2 8.5 6.6 8.5c4.3 0 6.4-2.7 6.4-8.5-.1-5.7-2.1-8.4-6.4-8.4zm.2 21.2c-8.3 0-12.7-4.4-12.7-12.5 0-8.7 4-12.8 12.4-12.8s12.3 4.2 12.3 13.3c0 7.8-4.2 12-12 12m34.5-4.6h-8.3c-5 0-6.8-2.3-6.8-8.4 0-5.6 1.8-7.7 6.6-7.7h7.8V5.2h-8.5c-2.4 0-4.9.4-6.3 1.1-3.5 1.7-5.5 5.8-5.5 11.4 0 4.5 1.1 8 3.3 10 1.9 1.9 4 2.5 8.3 2.5h15.2c-2.5-.8-4.5-2.3-5.8-4.4z"/><path fill="#B2191E" d="M138.1 9.2c-4.7 0-6.6 2.5-6.6 8.4s2 8.5 6.6 8.5c4.4 0 6.4-2.7 6.4-8.5 0-5.7-2-8.4-6.4-8.4zm.2 21.2c-8.3 0-12.7-4.4-12.7-12.5 0-8.7 4-12.8 12.4-12.8s12.3 4.2 12.3 13.3c.1 7.8-4.1 12-12 12"/></svg>