<svg id="e17776fa-37a7-4188-8191-8b0896137641" data-name="Layer 1" xmlns="http://www.w3.org/2000/svg" viewBox="0 0 309 204"><path d="M257.94,67.7l0,.23v.12c0,.19,0,.39,0,.59v52.91c0,.2,0,.4,0,.59v.48l0,.67L223.5,89.5l-.06.23V90a6.39,6.39,0,0,0-.09.75q0,16.25,0,32.49l-.11,0h-9.55a2.68,2.68,0,0,1-.11-.55q0-27.33,0-54.66c0-.08,0-.16,0-.36l.51.48,23.8,23.37,9.79,9.59.36.3.05,0a.09.09,0,0,0,0,0c0-.19,0-.39,0-.58V67.7Z" style="fill:#2eabe2"/><path d="M44.23,82.51c-1.15-1.16-2.21-2.37-3.41-3.42a16,16,0,0,0-8.75-3.87,21.18,21.18,0,0,0-4.21-.12,17.5,17.5,0,0,0-8.71,3.2A19.46,19.46,0,0,0,15.49,107a17.81,17.81,0,0,0,9.87,6.07c1.62.37,3.3.51,5,.76-.07.18-.18.48-.3.78-1.06,2.62-2.12,5.25-3.2,7.87-.37.89-.21.87-1.28.72a29.42,29.42,0,0,1-7.46-2C8.81,117.27,3,110.35.73,100.45.4,99,.31,97.45.12,96a23.52,23.52,0,0,1,.56-7.62A28,28,0,0,1,8.56,73.67,28.49,28.49,0,0,1,23,65.89a27.7,27.7,0,0,1,7.48-.67,45.79,45.79,0,0,1,5.19.68A27,27,0,0,1,48.33,72c.26.21.38.38.23.74-1.44,3.22-2.85,6.46-4.27,9.69A.47.47,0,0,1,44.23,82.51Z" style="fill:#2eabe2"/><path d="M140.18,123.17H140l-.14-.07c-1-2.5-2-5-3.07-7.51-.38-.91-.75-1.82-1.12-2.73a.94.94,0,0,0-.3-.12H124.08a2.12,2.12,0,0,1,.06-.57c1-2.44,2-4.87,3-7.31l.25,0h4.87l.12-.09c-1.09-2.66-2.18-5.31-3.26-8-.91-2.25-1.8-4.51-2.71-6.77,0-.11-.09-.22-.2-.45-.38.92-.73,1.74-1.07,2.57q-3.93,9.61-7.84,19.22-2.31,5.67-4.6,11.35c-.12.3-.22.55-.65.54-3.28,0-6.56,0-9.84,0l-.26,0q12.32-27.84,24.64-55.75c.69,1.62,1.34,3.12,2,4.63l9,21.06L147,115.22l3.21,7.55a1.83,1.83,0,0,1,.11.33H140.7A4.63,4.63,0,0,0,140.18,123.17Z" style="fill:#2eabe2"/><path d="M71.6,123.09q-2-5-4.06-10a2.1,2.1,0,0,0-.13-.26,5.39,5.39,0,0,0-.68-.12H57.07c-.37,0-.75,0-1.13,0,0-.1-.12-.22-.09-.3,1-2.45,2-4.91,3.08-7.35.06-.14.36-.25.56-.25,1.57,0,3.14,0,4.8,0-2.07-5.1-4.12-10.14-6.2-15.29-.11.22-.18.34-.24.47q-4.14,10.17-8.29,20.33c-1.68,4.12-3.37,8.25-5,12.38-.13.3-.23.49-.62.48H34.18l-.37,0L58.43,67.45l1.44,3.32q2.85,6.69,5.71,13.4l9,21.12L82,122.69l.09.28a2.71,2.71,0,0,1-.55.12Z" style="fill:#2eabe2"/><path d="M261.72,123.09l24.43-55.32L309,123.21h-1.28c-2.9,0-5.8,0-8.71,0a.61.61,0,0,1-.71-.49c-1-3.1-2-6.18-3-9.28a.72.72,0,0,0-.82-.61c-3.36,0-6.72,0-10.08,0h-.93c.41-1,.8-2,1.19-2.9.61-1.48,1.25-2.95,1.84-4.45a.74.74,0,0,1,.83-.54c1.33,0,2.67,0,4,0H292c-2.06-5.09-4.1-10.1-6.18-15.22l-.68,1.62-8.68,21.3q-2.15,5.26-4.3,10.52h-10A1.69,1.69,0,0,1,261.72,123.09Z" style="fill:#2eabe2"/><path d="M71.59,76.85a1.79,1.79,0,0,1-.36-.44c-1-2.64-1.91-5.27-2.86-7.91a6.91,6.91,0,0,1-.29-.7c0-.09.11-.22.17-.33a5.43,5.43,0,0,0,.69.09h45.92a4.55,4.55,0,0,0,.63-.09H116l-3.38,9.28c-5,0-10.06,0-15.09,0a2.68,2.68,0,0,0-.55.11L97,77a6.39,6.39,0,0,0-.09.75v29.7q0,7.89,0,15.77H87.11c0-.22,0-.44,0-.66V77.6a3.64,3.64,0,0,0-.13-.72l-.11,0a3.75,3.75,0,0,0-.57-.09q-7.07,0-14.13,0A2.75,2.75,0,0,0,71.59,76.85Z" style="fill:#2dabe2"/><path d="M164.05,67.81l0,.23c0,.24,0,.48,0,.71v44.52c0,.22,0,.44,0,.65s0,.15,0,.23l.09.1.71,0h27.52v8.9l-.51,0H154.27V67.81Z" style="fill:#2dabe2"/><path d="M197.3,68v-.23l0-.11.23,0H207v55.54h-9.65c0-.26,0-.52,0-.77q0-26.79,0-53.56C197.33,68.6,197.31,68.32,197.3,68Z" style="fill:#2dabe2"/></svg>