<svg id="e23b1834-7eb8-49a2-bf7c-46793ff52f2a" data-name="Layer 1" xmlns="http://www.w3.org/2000/svg" xmlns:xlink="http://www.w3.org/1999/xlink" viewBox="0 0 600 182.56"><defs><radialGradient id="aa25b686-35de-4658-9d7c-6d6792928edb" cx="70.9" cy="-145.94" r="65.96" gradientTransform="translate(0 286.77) scale(1 1.14)" gradientUnits="userSpaceOnUse"><stop offset="0" stop-color="#0aade3"/><stop offset="1" stop-color="#0678be"/></radialGradient><linearGradient id="a255ec26-e273-4a0f-9aca-b73326376084" x1="86.43" y1="-174.83" x2="139.01" y2="-174.83" gradientTransform="translate(0 270.05)" gradientUnits="userSpaceOnUse"><stop offset="0" stop-color="#989898"/><stop offset="0.48" stop-color="#b3b5b7"/><stop offset="1" stop-color="#a9acaf"/></linearGradient><linearGradient id="e741d965-b097-4d14-a842-dec78dfb99b3" x1="86.54" y1="-231.03" x2="312.03" y2="-231.03" xlink:href="#a255ec26-e273-4a0f-9aca-b73326376084"/></defs><path d="M198.34,96.28a24.92,24.92,0,0,1-10.08-2,25.6,25.6,0,0,1-8-5.57A24.8,24.8,0,0,1,175,80.3,29.11,29.11,0,0,1,173,69.74a28.21,28.21,0,0,1,1.88-10.48,23.25,23.25,0,0,1,5.31-8,23.89,23.89,0,0,1,8-5.17,27.12,27.12,0,0,1,10.08-1.84h28.24v9.08H198.34a16.2,16.2,0,0,0-6.48,1.26,15.25,15.25,0,0,0-8.5,8.77,19.69,19.69,0,0,0,0,13.58,15.66,15.66,0,0,0,3.37,5.4,15.85,15.85,0,0,0,5.13,3.55,16,16,0,0,0,6.48,1.31h28.24v9.08H198.34Zm42.32,0V44.15h9.08v43h35v9.08H240.66Zm115,0-7.83-13.14H323.18l4.32-7.37h16L331.89,56.25l-23.65,40H297.82l29.95-49.87a7.38,7.38,0,0,1,1.85-2.16,4.45,4.45,0,0,1,5.12,0,7.83,7.83,0,0,1,1.85,2.16l30,49.87h-11Zm71.64,0L414.12,81.8H394.6V73.74h21.73c3.28,0,5.8-.89,7.46-2.69s2.52-4.37,2.52-7.78-.85-5.9-2.61-7.56-4.18-2.47-7.33-2.47H388v43h-9V44.15h37.42a22,22,0,0,1,8,1.35,16.82,16.82,0,0,1,5.94,3.78,16.57,16.57,0,0,1,3.73,6,22.93,22.93,0,0,1,1.3,7.87,19.73,19.73,0,0,1-2.83,10.93,16,16,0,0,1-7.91,6.34l15.69,15.83h-13Zm24.78,0V44.15h9.08V96.28Zm42,0v-43H474.3V44.15H523v9.09H503.17v43h-9.08Zm69,0V76.49L535.42,44.15H547.7l20.28,24,20.38-24H600L572.25,76.49V96.28Z" style="fill:#058ec6"/><path d="M177.24,141.48v-32.7H183v32.7Zm22-23.93v23.93H193.8V111.79a3.81,3.81,0,0,1,.81-2.52,2.6,2.6,0,0,1,2.11-.94,2.86,2.86,0,0,1,1.22.27,4,4,0,0,1,1.21.9l23.07,22.89V108.51h5.44v30a3.61,3.61,0,0,1-.81,2.52,2.65,2.65,0,0,1-2.06.9,3.61,3.61,0,0,1-2.61-1.21Zm44.25,0v23.93h-5.44V111.79a3.81,3.81,0,0,1,.81-2.52,2.62,2.62,0,0,1,2.12-.94,3,3,0,0,1,1.21.27,4.15,4.15,0,0,1,1.22.9l23.07,22.89V108.51H272v30a3.61,3.61,0,0,1-.81,2.52,2.67,2.67,0,0,1-2.07.9,3.67,3.67,0,0,1-2.61-1.21l-22.94-23.12Zm53.93,23.93a15.51,15.51,0,0,1-6.34-1.26,16,16,0,0,1-5-3.51,15.68,15.68,0,0,1-3.33-5.31,17.56,17.56,0,0,1-1.17-6.61,18.21,18.21,0,0,1,1.17-6.57,14.75,14.75,0,0,1,3.33-5.08,15.27,15.27,0,0,1,5-3.24,17.17,17.17,0,0,1,6.34-1.17h8a17.91,17.91,0,0,1,6.52,1.17,15,15,0,0,1,5.06,3.29,14.5,14.5,0,0,1,3.29,5.08,17.91,17.91,0,0,1,1.17,6.52,17.61,17.61,0,0,1-1.22,6.61,16.09,16.09,0,0,1-3.33,5.31,15.6,15.6,0,0,1-11.51,4.77Zm8-5.72a10.5,10.5,0,0,0,4.14-.81,10.12,10.12,0,0,0,3.28-2.2,10.56,10.56,0,0,0,2.16-3.42,12.41,12.41,0,0,0,0-8.54,9.49,9.49,0,0,0-2.16-3.38,9.34,9.34,0,0,0-3.28-2.2,10.5,10.5,0,0,0-4.14-.81h-8a10.18,10.18,0,0,0-7.33,3,10.06,10.06,0,0,0-2.12,3.33,12,12,0,0,0-.76,4.28,12.2,12.2,0,0,0,.76,4.27,10.45,10.45,0,0,0,2.12,3.42,9.1,9.1,0,0,0,3.24,2.2,10.26,10.26,0,0,0,4.09.81h8Zm19.07-27h7L346.3,134l14.8-25.19h6.56l-18.84,31.3a3.81,3.81,0,0,1-1.17,1.35,2.69,2.69,0,0,1-1.57.5,2.75,2.75,0,0,1-1.62-.5,3.71,3.71,0,0,1-1.17-1.35Zm75.64,32.7-4.9-8.23H379.76l2.7-4.64h10l-7.29-12.23-14.84,25.1h-6.52l18.8-31.31a3.81,3.81,0,0,1,1.17-1.35,2.76,2.76,0,0,1,1.62-.49,2.53,2.53,0,0,1,1.57.49,4.58,4.58,0,0,1,1.17,1.35L407,141.48Zm21.73,0v-27H409.44v-5.71H440v5.71H427.57v27Zm27.21,0v-32.7h5.71v32.7Zm31.66,0a15.51,15.51,0,0,1-6.34-1.26,16,16,0,0,1-5-3.51,15.68,15.68,0,0,1-3.33-5.31,17.56,17.56,0,0,1-1.17-6.61,18.21,18.21,0,0,1,1.17-6.57,14.75,14.75,0,0,1,3.33-5.08,15.27,15.27,0,0,1,5-3.24,17,17,0,0,1,6.34-1.17h8a17.91,17.91,0,0,1,6.52,1.17,15,15,0,0,1,5.08,3.29,14.5,14.5,0,0,1,3.29,5.08,18.78,18.78,0,0,1-.05,13.13,16.09,16.09,0,0,1-3.33,5.31,15.68,15.68,0,0,1-5.08,3.51,15.93,15.93,0,0,1-6.43,1.26Zm8-5.72a10.5,10.5,0,0,0,4.14-.81,10.12,10.12,0,0,0,3.28-2.2,10.56,10.56,0,0,0,2.16-3.42,12.41,12.41,0,0,0,0-8.54,9.49,9.49,0,0,0-2.16-3.38,9.34,9.34,0,0,0-3.28-2.2,10.5,10.5,0,0,0-4.14-.81h-8a10.18,10.18,0,0,0-7.33,3,10.06,10.06,0,0,0-2.12,3.33,12,12,0,0,0-.76,4.28,12.2,12.2,0,0,0,.76,4.27,10.45,10.45,0,0,0,2.12,3.42,9.1,9.1,0,0,0,3.24,2.2,10.26,10.26,0,0,0,4.09.81h8Zm32.61-18.21v23.93h-5.45V111.79a3.81,3.81,0,0,1,.81-2.52,2.62,2.62,0,0,1,2.12-.94,3,3,0,0,1,1.21.27,4.15,4.15,0,0,1,1.22.9l23.07,22.89V108.51h5.44v30A3.61,3.61,0,0,1,549,141a2.63,2.63,0,0,1-2,.9,3.61,3.61,0,0,1-2.61-1.21l-23-23.12Zm39,23.93v-5.72H584.8a5.09,5.09,0,0,0,3.55-1.17,4.07,4.07,0,0,0,1.26-3.1,3.79,3.79,0,0,0-1.26-3.15,5.21,5.21,0,0,0-3.55-1.08h-15a11.31,11.31,0,0,1-4.19-.72,9.52,9.52,0,0,1-3.14-1.93,8.28,8.28,0,0,1-2-2.92,10.16,10.16,0,0,1-.68-3.74,11,11,0,0,1,.63-3.68,7.91,7.91,0,0,1,1.94-2.93,9.52,9.52,0,0,1,3.14-1.93,12.72,12.72,0,0,1,4.32-.72H593.3v5.71H569.82a4.16,4.16,0,0,0-3.06,1.08,4,4,0,0,0-1.08,3,3.69,3.69,0,0,0,1.13,2.92,4.3,4.3,0,0,0,3,1h15c3.33,0,5.85.76,7.6,2.34s2.56,3.91,2.56,7.1a11.3,11.3,0,0,1-.63,3.82,7.79,7.79,0,0,1-1.89,3.06,9,9,0,0,1-3.14,2,12.53,12.53,0,0,1-4.5.72Z" style="fill:#9b9c9c"/><path d="M137,148.58a11,11,0,0,1-11.34-.45L20.28,79.73a20.58,20.58,0,0,1-9.53-16.42,21.7,21.7,0,0,1,.13-3.42L9,61.38A24.42,24.42,0,0,0,0,80.31v39.76a10.19,10.19,0,0,0,4.41,8.36L76.19,177.9a18.64,18.64,0,0,0,18,1.76l27.3-11.78a35,35,0,0,0,20.32-24.61,11.08,11.08,0,0,1-4.85,5.31Z" style="fill:url(#aa25b686-35de-4658-9d7c-6d6792928edb)"/><path d="M86.44,44.6v73.53c0,.05,0,.09.09.14l40.79,26.49a7.73,7.73,0,0,0,7.69.58,7.2,7.2,0,0,0,4-6.52V82.6a.77.77,0,0,0-.09-.13l-52.13-38a.18.18,0,0,0-.24-.11A.18.18,0,0,0,86.44,44.6Z" style="fill:url(#a255ec26-e273-4a0f-9aca-b73326376084)"/><path d="M138.88,45.37a5.91,5.91,0,0,0-2.29-4.68L98.67,11.19,90,4.35a1.69,1.69,0,0,0-.36-.23,8.4,8.4,0,0,0-3.1-1.3V37.41a3.31,3.31,0,0,0,1.34,2.65l47.68,34.76a2.16,2.16,0,0,0,3-.5,2.08,2.08,0,0,0,.41-1.25l0-27.7Z" style="fill:url(#e741d965-b097-4d14-a842-dec78dfb99b3)"/><path d="M82.21,3.05a8.71,8.71,0,0,0-2.79,1.48l-8.68,7L16.1,55.71a1.5,1.5,0,0,0-.49.67,15.66,15.66,0,0,0-1.13,6.8,17,17,0,0,0,7.83,13.44L52.93,96.5a1.65,1.65,0,0,0,2-.22L81.72,68.39a1.61,1.61,0,0,0,.45-1.12V3.05Z" style="fill:#0678be"/></svg>