<svg id="Layer_1" data-name="Layer 1" xmlns="http://www.w3.org/2000/svg" viewBox="0 0 600 396.05"><defs><style>.cls-1{fill:#231f20;}</style></defs><path class="cls-1" d="M86.28,149.06H59.06V124.77h85.76v24.29H117.6v68.63H86.28Z"/><path class="cls-1" d="M173.36,213.58a47.63,47.63,0,0,1,0-84.69,61.3,61.3,0,0,1,53.89,0,47.64,47.64,0,0,1,0,84.69A61.36,61.36,0,0,1,173.36,213.58Zm37.5-22a20.38,20.38,0,0,0,7.5-8.1,28.49,28.49,0,0,0,0-24.56,20.59,20.59,0,0,0-7.5-8.1,21,21,0,0,0-21.11,0,20.59,20.59,0,0,0-7.5,8.1,28.42,28.42,0,0,0,0,24.56,20.38,20.38,0,0,0,7.5,8.1A21,21,0,0,0,210.86,191.58Z"/><path class="cls-1" d="M331.32,129a33.47,33.47,0,0,1,0,61.59q-9.56,4.26-22.43,4.25H295.48v22.83H264.15v-92.9h44.74Q321.76,124.77,331.32,129Zm-14.87,38.83a10.19,10.19,0,0,0,3.19-8c0-3.42-1.06-6.12-3.19-8S311.14,149,306.9,149H295.48V170.7H306.9q6.36,0,9.55-2.85Z"/><path class="cls-1" d="M443,124.77v92.92H411.63V148.4H395.7V124.77Z"/><path class="cls-1" d="M474.62,214a39.15,39.15,0,0,1-14.87-16.73q-5.38-11-5.38-26.08t5.38-26.08a39.22,39.22,0,0,1,14.87-16.73,44.22,44.22,0,0,1,43.67,0,39.34,39.34,0,0,1,14.87,16.73q5.37,10.95,5.37,26.08t-5.37,26.08A39.34,39.34,0,0,1,518.29,214,44.22,44.22,0,0,1,474.62,214Zm32.45-42.81q0-23.49-10.62-23.49t-10.62,23.49q0,23.51,10.62,23.5t10.62-23.46Z"/><path d="M65,243.43v8H79V257H65v11H58V237.82H80.85v5.61Z"/><path d="M85.6,237.82h7v30.23h-7Z"/><path d="M127.5,237.82v30.23h-5.74l-15.08-18.36v18.36H99.77V237.82h5.79l15,18.35V237.82Z"/><path d="M154.59,261.57h-14l-2.68,6.48H130.7l13.48-30.23h6.91l13.52,30.23h-7.34Zm-2.2-5.31-4.8-11.58-4.79,11.58Z"/><path d="M195.5,237.82v30.23h-5.75l-15.07-18.36v18.36h-6.92V237.82h5.79l15,18.35V237.82Z"/><path d="M208.78,266.56a14.92,14.92,0,0,1-5.87-5.57,16.23,16.23,0,0,1,0-16.11,14.85,14.85,0,0,1,5.87-5.57,17.44,17.44,0,0,1,8.4-2,17.68,17.68,0,0,1,7.11,1.38,14.25,14.25,0,0,1,5.33,4l-4.49,4.15a9.66,9.66,0,0,0-7.6-3.54,10.11,10.11,0,0,0-5,1.23,8.73,8.73,0,0,0-3.44,3.43,10.84,10.84,0,0,0,0,10,8.79,8.79,0,0,0,3.44,3.43,10.11,10.11,0,0,0,5,1.23,9.58,9.58,0,0,0,7.6-3.59l4.49,4.15a14,14,0,0,1-5.35,4,17.81,17.81,0,0,1-7.13,1.38A17.37,17.37,0,0,1,208.78,266.56Z"/><path d="M234.33,237.82h7v30.23h-7Z"/><path d="M268.41,261.57h-14l-2.68,6.48h-7.17L258,237.82h6.91l13.53,30.23h-7.35Zm-2.2-5.31-4.79-11.58-4.8,11.58Z"/><path d="M281.59,237.82h7v24.53h15.16v5.7H281.59Z"/><path d="M322.91,267.6a16.14,16.14,0,0,1-5.38-2.53l2.37-5.27a16,16,0,0,0,4.63,2.29,17.21,17.21,0,0,0,5.35.87,8.56,8.56,0,0,0,4.41-.89,2.66,2.66,0,0,0,1.42-2.35,2.27,2.27,0,0,0-.84-1.8,6.48,6.48,0,0,0-2.16-1.14c-.88-.29-2.06-.61-3.56-.95a51.13,51.13,0,0,1-5.66-1.64,9.21,9.21,0,0,1-3.78-2.64,7.12,7.12,0,0,1-1.58-4.84,8.44,8.44,0,0,1,1.43-4.77,9.57,9.57,0,0,1,4.3-3.39,17.42,17.42,0,0,1,7-1.25,23.33,23.33,0,0,1,5.66.69,16.76,16.76,0,0,1,4.83,2l-2.16,5.32a16.78,16.78,0,0,0-8.38-2.38,7.89,7.89,0,0,0-4.34,1,2.92,2.92,0,0,0-1.4,2.51,2.45,2.45,0,0,0,1.62,2.31,25.84,25.84,0,0,0,4.94,1.49,49,49,0,0,1,5.66,1.64,9.39,9.39,0,0,1,3.78,2.59,7,7,0,0,1,1.58,4.8,8.23,8.23,0,0,1-1.45,4.73,9.76,9.76,0,0,1-4.34,3.39,17.8,17.8,0,0,1-7,1.25A24.63,24.63,0,0,1,322.91,267.6Z"/><path d="M370.88,262.44v5.61H347.46V237.82h22.86v5.61h-15.9V250h14v5.44h-14v7Z"/><path d="M395.72,268.05l-5.84-8.42h-6.43v8.42h-7V237.82h13.09a16.8,16.8,0,0,1,7,1.33,10.31,10.31,0,0,1,4.56,3.81,10.42,10.42,0,0,1,1.6,5.83,9.83,9.83,0,0,1-6.22,9.54l6.78,9.72Zm-1.78-23.17a7.31,7.31,0,0,0-4.79-1.36h-5.7v10.54h5.7a7.26,7.26,0,0,0,4.79-1.38,5.43,5.43,0,0,0,0-7.8Z"/><path d="M437.27,237.82l-13.09,30.23h-6.91l-13-30.23h7.56L421,259.41l9.33-21.59Z"/><path d="M439.78,237.82h7v30.23h-7Z"/><path d="M460.06,266.56a15,15,0,0,1-5.88-5.57,16.23,16.23,0,0,1,0-16.11,14.88,14.88,0,0,1,5.88-5.57,18.74,18.74,0,0,1,15.5-.63,14.28,14.28,0,0,1,5.34,4l-4.49,4.15a9.67,9.67,0,0,0-7.61-3.54,10.11,10.11,0,0,0-5,1.23,8.7,8.7,0,0,0-3.43,3.43,10.84,10.84,0,0,0,0,10,8.77,8.77,0,0,0,3.43,3.43,10.11,10.11,0,0,0,5,1.23,9.6,9.6,0,0,0,7.61-3.59l4.49,4.15a14,14,0,0,1-5.36,4,17.77,17.77,0,0,1-7.12,1.38A17.34,17.34,0,0,1,460.06,266.56Z"/><path d="M509,262.44v5.61H485.61V237.82h22.85v5.61h-15.9V250h14v5.44h-14v7Z"/><path d="M517.6,267.6a16.14,16.14,0,0,1-5.38-2.53l2.37-5.27a16,16,0,0,0,4.63,2.29,17.21,17.21,0,0,0,5.35.87,8.56,8.56,0,0,0,4.41-.89,2.66,2.66,0,0,0,1.42-2.35,2.27,2.27,0,0,0-.84-1.8,6.48,6.48,0,0,0-2.16-1.14c-.88-.29-2.07-.61-3.56-.95a51.13,51.13,0,0,1-5.66-1.64,9.21,9.21,0,0,1-3.78-2.64,7.12,7.12,0,0,1-1.58-4.84,8.44,8.44,0,0,1,1.43-4.77,9.57,9.57,0,0,1,4.3-3.39,17.42,17.42,0,0,1,7-1.25,23.19,23.19,0,0,1,5.65.69,16.7,16.7,0,0,1,4.84,2l-2.16,5.32a16.78,16.78,0,0,0-8.38-2.38,7.89,7.89,0,0,0-4.34,1,2.9,2.9,0,0,0-1.4,2.51,2.45,2.45,0,0,0,1.62,2.31,25.84,25.84,0,0,0,4.94,1.49,49,49,0,0,1,5.66,1.64,9.39,9.39,0,0,1,3.78,2.59,7,7,0,0,1,1.58,4.8,8.23,8.23,0,0,1-1.45,4.73,9.76,9.76,0,0,1-4.34,3.39,17.8,17.8,0,0,1-7,1.25A24.63,24.63,0,0,1,517.6,267.6Z"/></svg>