<svg id="Layer_1" data-name="Layer 1" xmlns="http://www.w3.org/2000/svg" viewBox="0 0 100 100"><path d="M49.69,18a8.23,8.23,0,1,0,8.23,8.22A8.23,8.23,0,0,0,49.69,18Zm0,14a5.81,5.81,0,0,1-5.8-5.81,5.88,5.88,0,0,1,5.8-5.8,5.81,5.81,0,0,1,5.81,5.8A5.89,5.89,0,0,1,49.69,32Zm0,0" style="fill:#4b5459"/><path d="M75.93,62.45V55a1.14,1.14,0,0,0-1.21-1.21h-50A1.14,1.14,0,0,0,23.46,55v27a1.14,1.14,0,0,0,1.21,1.21H74.72a1.14,1.14,0,0,0,1.21-1.21ZM66.14,80.7h-33a8.59,8.59,0,0,0-7.38-7.37v-9.8a8.71,8.71,0,0,0,7.38-7.37h33a8.71,8.71,0,0,0,7.37,7.37v9.8a9,9,0,0,0-7.37,7.37Zm7.37-19.59a6.19,6.19,0,0,1-4.84-5h4.84Zm-42.8-5a6.33,6.33,0,0,1-4.83,5v-5ZM25.88,75.87a6.18,6.18,0,0,1,4.83,4.95H25.88ZM68.67,80.7a6.22,6.22,0,0,1,4.84-5v5Zm0,0" style="fill:#4b5459"/><path d="M49.69,57.37A11.12,11.12,0,1,0,60.82,68.49,11.09,11.09,0,0,0,49.69,57.37Zm0,19.82a8.7,8.7,0,1,1,8.71-8.7,8.66,8.66,0,0,1-8.71,8.7Zm0,0" style="fill:#4b5459"/><path d="M50.42,67.4v-3a5.54,5.54,0,0,1,2.3,1L53.8,63.9a7.06,7.06,0,0,0-3.38-1.21v-.85h-1v.85a3.69,3.69,0,0,0-2.54,1,3.14,3.14,0,0,0-1,2.3A2.37,2.37,0,0,0,46.79,68a6.13,6.13,0,0,0,2.66,1.08v3.15a5.19,5.19,0,0,1-2.78-1.45l-1.21,1.45a7,7,0,0,0,4,1.69v1.21h1V73.93a4,4,0,0,0,2.66-1,3.05,3.05,0,0,0,1-2.29,2.6,2.6,0,0,0-.85-2.18,10.51,10.51,0,0,0-2.78-1.09Zm-1.09-.24a3.5,3.5,0,0,1-1.21-.61,1.17,1.17,0,0,1,0-1.69,2.3,2.3,0,0,1,1.09-.48v2.78Zm2.3,4.59a2.89,2.89,0,0,1-1.21.49v-2.9a4.55,4.55,0,0,1,1.33.6,1.11,1.11,0,0,1,.36.85,1.81,1.81,0,0,1-.48,1Zm0,0" style="fill:#fbbe18"/><path d="M88.14,87.23H84.27V49.75H86a1.14,1.14,0,0,0,1.21-1.21V39.23h1.21A1.14,1.14,0,0,0,89.59,38a1.17,1.17,0,0,0-.73-1.09L50.42,10.09a1.32,1.32,0,0,0-1.33,0L10.4,36.93a1.17,1.17,0,0,0-.48,1.34,1.2,1.2,0,0,0,1.21.84h1.21v9.43a1.14,1.14,0,0,0,1.21,1.21h1.56V87.23H11.25a1.21,1.21,0,0,0,0,2.42h77a1.14,1.14,0,0,0,1.21-1.21,1.32,1.32,0,0,0-1.33-1.21ZM49.69,12.51,84.51,36.69H14.87ZM14.63,39.11H84.76v8.22H14.63Zm2.78,48.12V49.75H81.86V87.23Zm0,0" style="fill:#4b5459"/></svg>