<svg id="a2a960c7-84b1-45b9-82d6-b9545ea852cf" data-name="Layer 1" xmlns="http://www.w3.org/2000/svg" viewBox="0 0 295.97 89.95"><path d="M17.42,16.29H.65v-15H53.48v15H36.71V58.56H17.42Z" style="fill:#231f20"/><path d="M71.05,56a29.33,29.33,0,0,1,0-52.16,37.73,37.73,0,0,1,33.2,0,29.35,29.35,0,0,1,0,52.16A37.8,37.8,0,0,1,71.05,56Zm23.1-13.55a12.54,12.54,0,0,0,4.62-5,17.52,17.52,0,0,0,0-15.13,12.75,12.75,0,0,0-4.62-5,13,13,0,0,0-13,0,12.75,12.75,0,0,0-4.62,5,17.52,17.52,0,0,0,0,15.13,12.54,12.54,0,0,0,4.62,5A12.91,12.91,0,0,0,94.15,42.48Z" style="fill:#231f20"/><path d="M168.35,3.93a20.62,20.62,0,0,1,0,37.94,33.71,33.71,0,0,1-13.82,2.62h-8.26V58.55H127V1.33h27.56A34,34,0,0,1,168.35,3.93Zm-9.16,23.92a6.25,6.25,0,0,0,2-4.93,6.24,6.24,0,0,0-2-4.92c-1.31-1.16-3.27-1.75-5.88-1.75h-7V29.62h7q3.91,0,5.88-1.76Z" style="fill:#231f20"/><path d="M237.13,1.33V58.56H217.81V15.88H208V1.33Z" style="fill:#231f20"/><path d="M256.61,56.29A24.12,24.12,0,0,1,247.45,46a36.16,36.16,0,0,1-3.31-16.06,36.16,36.16,0,0,1,3.31-16.06,24.12,24.12,0,0,1,9.16-10.31,27.27,27.27,0,0,1,26.9,0,24.3,24.3,0,0,1,9.16,10.31A36.18,36.18,0,0,1,296,29.92,36.18,36.18,0,0,1,292.67,46a24.3,24.3,0,0,1-9.16,10.31A27.27,27.27,0,0,1,256.61,56.29Zm20-26.37q0-14.48-6.54-14.47t-6.55,14.47q0,14.47,6.55,14.47t6.54-14.45Z" style="fill:#231f20"/><path d="M4.31,74.42v4.92h8.62v3.43H4.31v6.78H0V71H14.07v3.46Z"/><path d="M17,71h4.31V89.58H17Z"/><path d="M42.81,71V89.58H39.27L30,78.27V89.58H25.73V71h3.56l9.24,11.3V71Z"/><path d="M59.49,85.59H50.87l-1.65,4H44.78L53.08,71h4.26l8.32,18.62H61.14Zm-1.35-3.27-3-7.13-3,7.13Z"/><path d="M84.69,71V89.58H81.15L71.87,78.27V89.58H67.6V71h3.57l9.24,11.3V71Z"/><path d="M92.87,88.66a9.19,9.19,0,0,1-3.62-3.43,10,10,0,0,1,0-9.92,9.12,9.12,0,0,1,3.62-3.43,11.58,11.58,0,0,1,9.55-.38A8.78,8.78,0,0,1,105.71,74l-2.77,2.56a5.91,5.91,0,0,0-4.68-2.18,6.24,6.24,0,0,0-3.08.75,5.34,5.34,0,0,0-2.12,2.12,6.68,6.68,0,0,0,0,6.15,5.47,5.47,0,0,0,2.12,2.12,6.24,6.24,0,0,0,3.08.75A5.88,5.88,0,0,0,102.94,84l2.77,2.56a8.71,8.71,0,0,1-3.3,2.46,10.84,10.84,0,0,1-4.39.85A10.64,10.64,0,0,1,92.87,88.66Z"/><path d="M108.61,71h4.31V89.58h-4.31Z"/><path d="M129.6,85.59H121l-1.66,4h-4.41L123.19,71h4.25l8.34,18.62h-4.53Zm-1.36-3.27-3-7.13-3,7.13Z"/><path d="M137.72,71H142V86.07h9.34v3.51H137.72Z"/><path d="M163.17,89.3a10,10,0,0,1-3.32-1.56l1.46-3.24a9.85,9.85,0,0,0,2.85,1.41,10.6,10.6,0,0,0,3.3.53,5.22,5.22,0,0,0,2.72-.54,1.66,1.66,0,0,0,.87-1.45,1.37,1.37,0,0,0-.52-1.11,3.86,3.86,0,0,0-1.33-.7c-.54-.18-1.27-.38-2.19-.59a30.83,30.83,0,0,1-3.49-1,5.56,5.56,0,0,1-2.32-1.62,4.41,4.41,0,0,1-1-3,5.21,5.21,0,0,1,.88-2.94,5.86,5.86,0,0,1,2.65-2.09,10.79,10.79,0,0,1,4.31-.77,14.62,14.62,0,0,1,3.49.42,10.33,10.33,0,0,1,3,1.24l-1.33,3.27A10.31,10.31,0,0,0,168,74.11a4.87,4.87,0,0,0-2.67.61,1.79,1.79,0,0,0-.86,1.55,1.5,1.5,0,0,0,1,1.42,15.44,15.44,0,0,0,3,.92,30.09,30.09,0,0,1,3.48,1,5.7,5.7,0,0,1,2.33,1.6,4.34,4.34,0,0,1,1,3,5.11,5.11,0,0,1-.9,2.91,6,6,0,0,1-2.67,2.09,10.79,10.79,0,0,1-4.31.77A14.79,14.79,0,0,1,163.17,89.3Z"/><path d="M192.71,86.12v3.46H178.29V71h14.08v3.46h-9.79v4h8.62v3.35h-8.62v4.31Z"/><path d="M208,89.58l-3.59-5.19h-4v5.19h-4.32V71h8.07a10.28,10.28,0,0,1,4.31.82,6.17,6.17,0,0,1,3.79,5.94,6,6,0,0,1-3.83,5.87l4.18,6Zm-1.09-14.27a4.52,4.52,0,0,0-2.95-.84h-3.51V81H204a4.41,4.41,0,0,0,2.95-.85,3.35,3.35,0,0,0,.07-4.73l-.07-.07Z"/><path d="M233.61,71l-8.07,18.62h-4.25l-8-18.62h4.66l5.64,13.3L229.33,71Z"/><path d="M235.15,71h4.31V89.58h-4.31Z"/><path d="M247.64,88.66A9.19,9.19,0,0,1,244,85.23a10,10,0,0,1,0-9.92,9.12,9.12,0,0,1,3.62-3.43,11.54,11.54,0,0,1,9.55-.39A8.86,8.86,0,0,1,260.48,74l-2.77,2.56A5.94,5.94,0,0,0,253,74.33a6.12,6.12,0,0,0-3.08.76,5.38,5.38,0,0,0-2.12,2.11,6.7,6.7,0,0,0,0,6.16A5.38,5.38,0,0,0,250,85.47a6.12,6.12,0,0,0,3.08.76A5.91,5.91,0,0,0,257.71,84l2.77,2.55a8.73,8.73,0,0,1-3.3,2.47,11,11,0,0,1-4.39.85A10.64,10.64,0,0,1,247.64,88.66Z"/><path d="M277.79,86.12v3.46H263.38V71h14.07v3.46h-9.79v4h8.62v3.35h-8.62v4.31Z"/><path d="M283.08,89.3a10,10,0,0,1-3.31-1.56l1.46-3.24a9.85,9.85,0,0,0,2.85,1.41,10.55,10.55,0,0,0,3.3.53,5.2,5.2,0,0,0,2.71-.54,1.65,1.65,0,0,0,.88-1.45,1.43,1.43,0,0,0-.52-1.11,4,4,0,0,0-1.33-.7c-.54-.18-1.28-.38-2.19-.59a30.25,30.25,0,0,1-3.49-1,5.65,5.65,0,0,1-2.33-1.62,4.35,4.35,0,0,1-1-3A5.21,5.21,0,0,1,281,73.5a5.86,5.86,0,0,1,2.65-2.09,10.76,10.76,0,0,1,4.31-.77,14.6,14.6,0,0,1,3.48.42,10.39,10.39,0,0,1,3,1.24l-1.33,3.27A10.31,10.31,0,0,0,288,74.11a4.87,4.87,0,0,0-2.67.61,1.82,1.82,0,0,0-.87,1.55,1.5,1.5,0,0,0,1,1.42,15.44,15.44,0,0,0,3,.92,29.68,29.68,0,0,1,3.49,1,5.7,5.7,0,0,1,2.33,1.6,4.28,4.28,0,0,1,1,3,5,5,0,0,1-.89,2.91,6,6,0,0,1-2.67,2.09,10.84,10.84,0,0,1-4.32.77A14.79,14.79,0,0,1,283.08,89.3Z"/></svg>