<?xml version="1.0" encoding="UTF-8" standalone="no"?>
<!DOCTYPE svg PUBLIC "-//W3C//DTD SVG 1.1//EN" "http://www.w3.org/Graphics/SVG/1.1/DTD/svg11.dtd">
<svg width="100%" height="100%" viewBox="0 0 970 187" version="1.1" xmlns="http://www.w3.org/2000/svg" xmlns:xlink="http://www.w3.org/1999/xlink" xml:space="preserve" xmlns:serif="http://www.serif.com/" style="fill-rule:evenodd;clip-rule:evenodd;stroke-linejoin:round;stroke-miterlimit:2;">
    <g transform="matrix(5.96073,0,0,5.96073,-18.7048,-28.695)">
        <path d="M42.857,21.907C42.857,19.461 42.744,16.989 42.629,14.545C43.113,14.629 43.567,14.685 44.022,14.685C44.477,14.685 44.933,14.629 45.416,14.545C45.303,16.988 45.187,19.461 45.187,21.907L45.187,26.797C45.187,29.242 45.303,31.718 45.416,34.159C44.933,34.077 44.478,34.019 44.022,34.019C43.566,34.019 43.113,34.077 42.629,34.159C42.743,31.718 42.857,29.242 42.857,26.797L42.857,21.907M65.668,18.014C64.503,16.619 62.283,15.227 59.414,15.227C54.693,15.227 51.083,18.041 51.083,24.352C51.083,29.926 54.21,33.339 59.556,33.339C61.177,33.339 63.139,33.025 64.104,32.427C64.132,31.29 64.162,29.425 64.162,28.261C64.162,26.924 64.078,25.558 64.02,24.365C64.39,24.451 64.931,24.507 65.383,24.507C65.812,24.507 66.236,24.48 66.606,24.365C66.549,25.216 66.494,27.794 66.494,30.863C66.494,31.605 66.523,32.4 66.523,33.168C64.899,33.737 61.49,34.534 59.27,34.534C52.503,34.534 48.299,31.007 48.299,24.352C48.299,17.899 52.674,14.178 59.414,14.178C63.249,14.178 65.329,15.114 66.664,15.825C66.379,16.335 66.095,17.303 66.009,18.014L65.668,18.014M83.677,21.907C83.677,19.461 83.564,16.989 83.449,14.545C83.933,14.629 84.386,14.685 84.841,14.685C85.297,14.685 85.754,14.629 86.236,14.545C86.121,16.988 86.007,19.461 86.007,21.907L86.007,26.797C86.007,29.242 86.12,31.718 86.236,34.159C85.776,34.073 85.309,34.026 84.841,34.019C84.386,34.019 83.933,34.077 83.449,34.159C83.563,31.718 83.677,29.242 83.677,26.797L83.677,24.239C81.687,24.212 79.725,24.181 77.734,24.181C75.746,24.181 73.783,24.211 71.791,24.239L71.791,26.797C71.791,29.242 71.907,31.718 72.02,34.159C71.56,34.073 71.094,34.026 70.626,34.019C70.169,34.019 69.718,34.077 69.232,34.159C69.346,31.718 69.461,29.242 69.461,26.797L69.461,21.907C69.461,19.461 69.347,16.989 69.232,14.545C69.717,14.629 70.169,14.685 70.626,14.685C71.081,14.685 71.537,14.629 72.02,14.545C71.906,16.988 71.791,19.461 71.791,21.907L71.791,22.902C73.783,22.931 75.746,22.987 77.734,22.987C79.725,22.987 81.687,22.931 83.677,22.902L83.677,21.907M91.688,14.176C94.276,19.519 96.949,24.523 99.85,29.841C100.988,27.624 105.507,19.437 108.295,14.176L108.663,14.176C109.517,21.453 110.087,27.65 110.995,34.161C110.554,34.072 110.106,34.025 109.657,34.019C109.206,34.019 108.774,34.077 108.322,34.161C107.924,29.07 107.525,24.351 106.93,19.49L106.87,19.49C104.283,24.24 101.668,28.902 99.422,34.02L99.167,34.02C96.947,29.301 94.332,24.412 91.86,19.49L91.802,19.49C91.262,24.182 90.466,30.948 90.436,34.161C90.096,34.077 89.783,34.019 89.442,34.019C89.101,34.019 88.787,34.077 88.448,34.161C89.442,27.875 90.578,20.202 91.204,14.176L91.688,14.176M144.252,26.797L144.252,21.907C144.252,19.461 144.137,16.989 144.024,14.545C144.509,14.629 144.962,14.685 145.419,14.685C145.873,14.685 146.326,14.629 146.809,14.545C146.696,16.988 146.586,19.461 146.586,21.907L146.586,23.47C146.586,23.639 146.638,23.699 146.754,23.699C146.866,23.699 146.924,23.639 147.152,23.443C149.797,21.141 153.038,17.585 155.709,14.545C156.079,14.629 156.478,14.685 156.873,14.685C157.332,14.685 157.785,14.629 158.239,14.545C155.625,16.847 151.189,21.053 149.141,23.412C152.182,26.852 156.827,32.55 160.04,36.186C159.475,36.096 158.905,36.049 158.333,36.044C157.819,36.044 157.282,36.1 156.768,36.186C154.068,32.861 148.287,25.602 147.065,24.381C146.897,24.209 146.808,24.152 146.724,24.152C146.637,24.152 146.585,24.239 146.585,24.326L146.585,26.797C146.585,29.242 146.694,31.718 146.808,34.159C146.35,34.072 145.885,34.025 145.418,34.019C144.962,34.019 144.509,34.074 144.023,34.159C144.137,31.718 144.252,29.242 144.252,26.797" style="fill:rgb(35,31,32);fill-rule:nonzero;"/>
    </g>
    <g transform="matrix(5.96073,0,0,5.96073,-18.7048,-28.695)">
        <path d="M135.447,24.466C137.604,24.18 141.274,22.703 141.274,19.037C141.274,15.652 138.574,14.544 135.357,14.544C134.28,14.544 133.2,14.684 132.12,14.684C131.04,14.684 129.96,14.628 128.88,14.544C128.992,16.989 129.108,19.461 129.108,21.906L129.108,26.795C129.108,29.235 128.996,31.7 128.88,34.138C127.363,31.074 123.113,20.758 120.332,14.175L119.793,14.175C116.896,20.867 113.93,27.529 110.894,34.16C111.264,34.075 111.605,34.018 111.946,34.018C112.287,34.018 112.628,34.075 112.997,34.16C113.482,32.37 119.394,18.014 119.394,18.014C119.394,18.014 125.336,32.199 125.876,34.16C126.374,34.071 126.878,34.023 127.384,34.018C127.892,34.018 128.371,34.075 128.88,34.159L128.88,34.16L128.889,34.16L128.889,34.159C129.345,34.072 129.808,34.025 130.272,34.018C130.728,34.018 131.179,34.075 131.665,34.16C131.552,31.717 131.439,29.243 131.439,26.796L131.439,21.907C131.439,19.859 131.523,17.813 131.609,15.738C132.205,15.68 133.059,15.595 134.365,15.595C136.3,15.595 138.774,16.334 138.774,19.319C138.774,22.704 135.672,23.671 133.342,23.671C132.992,23.671 132.669,23.664 132.51,23.644L132.51,24.724L132.516,24.724C134.965,27.2 138.529,32.428 139.663,34.161C140.209,34.072 140.762,34.024 141.315,34.019C141.881,34.019 142.45,34.076 143.019,34.161C141.373,32.313 136.839,26.2 135.447,24.466" style="fill:rgb(35,31,32);fill-rule:nonzero;"/>
    </g>
    <g transform="matrix(5.96073,0,0,5.96073,-18.7048,-28.695)">
        <clipPath id="_clip1">
            <rect x="3.138" y="4.814" width="162.726" height="31.372"/>
        </clipPath>
        <g clip-path="url(#_clip1)">
            <path d="M47.466,5.145C34.721,5.671 23.775,6.775 15.808,8.344C10.337,9.417 3.705,11.233 3.17,13.769C2.936,14.893 3.92,16.001 6.099,17.069C11.129,19.525 22.101,21.579 36.993,22.846L37.003,22.727L37.02,22.612L37.026,22.612L37.038,22.494L37.052,22.373C25.221,21.089 16.705,19.305 12.432,17.212C10.361,16.204 9.424,15.186 9.633,14.183C10.467,10.198 28.175,6.81 53.698,5.751C65.815,5.261 77.947,5.311 90.059,5.903L90.072,5.663C76.554,4.752 61.422,4.564 47.466,5.145" style="fill:rgb(29,163,221);fill-rule:nonzero;"/>
        </g>
    </g>
    <g transform="matrix(5.96073,0,0,5.96073,-18.7048,-28.695)">
        <path d="M38.959,21.207C38.959,18.346 39.076,14.12 39.194,11.258C38.694,11.358 38.227,11.425 37.756,11.425C37.285,11.425 36.817,11.357 36.32,11.258C36.439,14.12 36.556,18.346 36.556,21.207L36.556,26.396C36.556,29.253 36.439,31.341 36.32,34.204C36.792,34.1 37.273,34.045 37.756,34.038C38.228,34.038 38.695,34.103 39.194,34.204C39.076,31.342 38.959,29.254 38.959,26.396L38.959,21.207M24.297,22.487C23.476,22.369 22.673,22.25 21.893,22.127L21.893,26.397C21.893,29.254 21.776,31.341 21.658,34.205C22.13,34.101 22.611,34.045 23.094,34.038C23.564,34.038 24.032,34.104 24.532,34.205C24.416,31.342 24.298,29.255 24.298,26.397L24.298,22.487M21.658,11.258C21.765,13.831 21.869,16.293 21.887,19.087C22.66,19.253 23.465,19.415 24.299,19.574C24.308,16.732 24.42,13.983 24.532,11.258C24.032,11.358 23.564,11.425 23.094,11.425C22.625,11.425 22.156,11.357 21.658,11.258M163.628,30.993C164.671,30.993 165.477,31.871 165.477,32.939C165.477,34.031 164.671,34.907 163.628,34.907C162.582,34.907 161.772,34.031 161.772,32.939C161.771,31.871 162.582,30.993 163.628,30.993M163.628,35.261C164.867,35.261 165.863,34.231 165.863,32.94C165.863,31.67 164.867,30.638 163.628,30.638C162.383,30.638 161.384,31.67 161.384,32.94C161.384,34.23 162.383,35.261 163.628,35.261ZM162.816,34.243C162.897,34.234 162.981,34.222 163.067,34.222C163.151,34.222 163.235,34.235 163.319,34.243L163.319,33.031L163.434,33.031L164.107,34.243C164.203,34.234 164.297,34.222 164.396,34.222C164.491,34.222 164.589,34.235 164.681,34.243L164.543,34.002C164.323,33.655 164.106,33.312 163.904,32.952C164.257,32.876 164.484,32.639 164.484,32.267C164.484,31.881 164.224,31.655 163.774,31.655L162.815,31.655L162.815,34.243L162.816,34.243ZM163.319,31.894L163.518,31.894C163.726,31.894 163.931,31.915 163.931,32.365C163.931,32.758 163.737,32.94 163.319,32.908L163.319,31.894Z" style="fill:rgb(35,31,32);fill-rule:nonzero;"/>
    </g>
</svg>
