<svg id="Layer_1" data-name="Layer 1" xmlns="http://www.w3.org/2000/svg" viewBox="0 0 600 396.05"><path d="M125.09,144.7H98.64V121.08H182V144.7H155.54v66.71H125.09Z"/><path d="M209.74,207.41a46.3,46.3,0,0,1,0-82.33,59.65,59.65,0,0,1,52.39,0,46.32,46.32,0,0,1,0,82.33,59.56,59.56,0,0,1-52.39,0Zm36.45-21.36a19.93,19.93,0,0,0,7.3-7.87,27.71,27.71,0,0,0,0-23.86,20,20,0,0,0-7.3-7.88,20.39,20.39,0,0,0-20.52,0,19.77,19.77,0,0,0-7.28,7.88,27.61,27.61,0,0,0,0,23.86,19.74,19.74,0,0,0,7.28,7.87,20.32,20.32,0,0,0,20.52,0Z"/><path d="M363.29,125.22a32.52,32.52,0,0,1,0,59.86c-6.19,2.77-13.46,4.13-21.81,4.13h-13v22.2H298V121.08h43.48Q354,121.08,363.29,125.22ZM348.84,163a11.39,11.39,0,0,0,0-15.62q-3.09-2.78-9.29-2.77h-11.1v21.16h11.1Q345.75,165.73,348.84,163Z"/><path d="M495.75,166.18a24.77,24.77,0,0,1,5.61,16.32,27.76,27.76,0,0,1-4.45,15.16q-4.46,7.05-13.74,11.43t-23.1,4.39a88.94,88.94,0,0,1-19-2.07,59.09,59.09,0,0,1-16.58-6.07l10.32-22.45A50,50,0,0,0,459,189.47a17.47,17.47,0,0,0,8.52-1.8,5.67,5.67,0,0,0,3.22-5.17q0-6.19-10.71-6.19h-12V157.6l13.29-13.54H429.1v-23h67.36v18.71l-16.78,17Q490.14,159.42,495.75,166.18Z"/><path d="M99.76,229.92h6.65V276.5H99.76Z"/><path d="M160.44,229.92V276.5H155L127,241.76V276.5h-6.66V229.92h5.46l27.94,34.73V229.92Z"/><path d="M177.84,275.4a20.89,20.89,0,0,1-7.69-4.23l2.46-5.19a20.46,20.46,0,0,0,6.82,3.9,25.27,25.27,0,0,0,8.55,1.49c3.86,0,6.75-.65,8.65-2a6,6,0,0,0,2.86-5.22,5.13,5.13,0,0,0-1.56-3.89,10.39,10.39,0,0,0-3.86-2.3q-2.3-.79-6.49-1.8a65.28,65.28,0,0,1-8.48-2.53,14,14,0,0,1-5.52-3.89,10.38,10.38,0,0,1-2.3-7.08,12,12,0,0,1,2-6.72,13.35,13.35,0,0,1,5.95-4.79,24.11,24.11,0,0,1,9.91-1.8,31.8,31.8,0,0,1,8.12,1.06,21.54,21.54,0,0,1,6.85,3.06l-2.19,5.33a24,24,0,0,0-6.26-2.83,23.42,23.42,0,0,0-6.52-1c-3.77,0-6.59.69-8.48,2.07a6.3,6.3,0,0,0-2.83,5.32,5.1,5.1,0,0,0,1.6,3.89,10.91,10.91,0,0,0,4,2.33,59.74,59.74,0,0,0,6.42,1.76,66.88,66.88,0,0,1,8.45,2.53,14.3,14.3,0,0,1,5.49,3.86,10.17,10.17,0,0,1,2.29,7,11.85,11.85,0,0,1-2,6.68,13.39,13.39,0,0,1-6.06,4.8A25.11,25.11,0,0,1,188,277,31.76,31.76,0,0,1,177.84,275.4Z"/><path d="M220.52,271.71q-5.19-5.32-5.19-15.31V229.92H222v26.22q0,15,13.11,15,6.39,0,9.78-3.7t3.39-11.27V229.92h6.46V256.4q0,10.05-5.19,15.34T235,277Q225.71,277,220.52,271.71Z"/><path d="M299.5,276.5l-10.05-14.31c-1.24.09-2.22.13-2.93.13H275V276.5h-6.65V229.92h18.16q9,0,14.24,4.33T306,246.16a15.61,15.61,0,0,1-2.66,9.18,15,15,0,0,1-7.59,5.52l11.05,15.64ZM296,253.94a10.73,10.73,0,0,0,0-15.54q-3.33-2.68-9.65-2.69H275v21h11.31Q292.65,256.67,296,253.94Z"/><path d="M346.4,264.85H321.65l-5.12,11.65h-6.86l21.1-46.58h6.58l21.16,46.58h-7Zm-2.33-5.32-10-22.82-10,22.82Z"/><path d="M405.49,229.92V276.5H400l-27.94-34.74V276.5h-6.66V229.92h5.46l27.94,34.73V229.92Z"/><path d="M427.68,273.93a22.77,22.77,0,0,1-8.82-8.51,25,25,0,0,1,0-24.42,22.74,22.74,0,0,1,8.85-8.52,25.91,25.91,0,0,1,12.64-3.09,26.38,26.38,0,0,1,10,1.83,20.46,20.46,0,0,1,7.72,5.42l-4.32,4.19a17.38,17.38,0,0,0-13.11-5.52,19,19,0,0,0-9.38,2.33,16.87,16.87,0,0,0-6.56,6.42,18.92,18.92,0,0,0,0,18.3,16.87,16.87,0,0,0,6.56,6.42,19,19,0,0,0,9.38,2.33,17.42,17.42,0,0,0,13.11-5.59l4.32,4.19a20.85,20.85,0,0,1-7.75,5.46,26.29,26.29,0,0,1-10,1.86A25.6,25.6,0,0,1,427.68,273.93Z"/><path d="M501.36,270.71v5.79h-33.8V229.92h32.87v5.79H474.22V250h23.35v5.66H474.22v15Z"/></svg>