<svg id="eca4ff4b-1d1e-4112-9bba-3df99d65e1f0" data-name="Layer 1" xmlns="http://www.w3.org/2000/svg" viewBox="0 0 296.46 89.39"><path d="M38.44,16.13H21.82V1.3H74.18V16.13H57.57V58H38.44Z"/><path d="M91.61,55.52A28.41,28.41,0,0,1,76.05,29.66,28.41,28.41,0,0,1,91.61,3.81,35,35,0,0,1,108.06,0a35,35,0,0,1,16.46,3.81,28.41,28.41,0,0,1,15.56,25.85,28.41,28.41,0,0,1-15.56,25.86,35,35,0,0,1-16.46,3.81A35,35,0,0,1,91.61,55.52Zm22.9-13.41a12.47,12.47,0,0,0,4.58-5,15.78,15.78,0,0,0,1.7-7.5,15.77,15.77,0,0,0-1.7-7.49,12.54,12.54,0,0,0-4.58-5,12.81,12.81,0,0,0-12.89,0,12.54,12.54,0,0,0-4.58,5,15.77,15.77,0,0,0-1.7,7.49,15.78,15.78,0,0,0,1.7,7.5,12.47,12.47,0,0,0,4.58,5,12.81,12.81,0,0,0,12.89,0Z"/><path d="M188.06,3.89a20.24,20.24,0,0,1,9,7.46,20.39,20.39,0,0,1,3.16,11.34A20.4,20.4,0,0,1,197.06,34a20.24,20.24,0,0,1-9,7.46,33.49,33.49,0,0,1-13.7,2.59h-8.18V58H147.05V1.3h27.31A33.49,33.49,0,0,1,188.06,3.89ZM179,27.6a6.24,6.24,0,0,0,2-4.91,6.24,6.24,0,0,0-2-4.9c-1.29-1.16-3.24-1.74-5.83-1.74h-7V29.34h7C175.74,29.34,177.69,28.76,179,27.6Z"/><path d="M271.26,29.62a15.58,15.58,0,0,1,3.53,10.26A17.51,17.51,0,0,1,272,49.4a19.84,19.84,0,0,1-8.63,7.17q-5.83,2.76-14.51,2.76a55.73,55.73,0,0,1-12-1.3,36.92,36.92,0,0,1-10.41-3.81L233,40.12a30,30,0,0,0,7.5,3.08,30.54,30.54,0,0,0,7.74,1,10.9,10.9,0,0,0,5.35-1.13,3.56,3.56,0,0,0,2-3.24c0-2.6-2.25-3.89-6.73-3.89h-7.54V24.24l8.35-8.52H229.4V1.3h42.31V13.05l-10.54,10.7A18.35,18.35,0,0,1,271.26,29.62Z"/><path d="M15.1,79.3h2.68v7.61a10.47,10.47,0,0,1-3.37,1.84,12.54,12.54,0,0,1-4,.64,10.86,10.86,0,0,1-5.32-1.3,9.58,9.58,0,0,1-3.72-3.56,10.38,10.38,0,0,1,0-10.24,9.38,9.38,0,0,1,3.74-3.57,11.14,11.14,0,0,1,5.36-1.28,11.32,11.32,0,0,1,4.25.76A8.72,8.72,0,0,1,18,72.45l-1.73,1.72a7.87,7.87,0,0,0-5.66-2.25,8.27,8.27,0,0,0-4,1,7,7,0,0,0-2.77,2.67,7.91,7.91,0,0,0,0,7.7,7.23,7.23,0,0,0,2.77,2.69,8.22,8.22,0,0,0,4,1,8.3,8.3,0,0,0,4.57-1.25Z"/><path d="M23.1,69.66h2.79V86.74H36.45v2.43H23.1Z"/><path d="M42.78,88.09a9.49,9.49,0,0,1-3.72-3.58,10.31,10.31,0,0,1,0-10.2,9.63,9.63,0,0,1,3.72-3.58,11.57,11.57,0,0,1,10.62,0,9.62,9.62,0,0,1,3.7,3.57,10.43,10.43,0,0,1,0,10.23,9.53,9.53,0,0,1-3.7,3.56,11.49,11.49,0,0,1-10.62,0ZM52,85.94a7.26,7.26,0,0,0,2.7-2.69,7.92,7.92,0,0,0,0-7.67A7.19,7.19,0,0,0,52,72.89a7.66,7.66,0,0,0-3.86-1,7.83,7.83,0,0,0-3.89,1,7.13,7.13,0,0,0-2.73,2.69,7.92,7.92,0,0,0,0,7.67,7.2,7.2,0,0,0,2.73,2.69,7.93,7.93,0,0,0,3.89,1A7.76,7.76,0,0,0,52,85.94Z"/><path d="M78.5,80.76a5,5,0,0,1,1,3.14,4.51,4.51,0,0,1-1.91,3.9A9.48,9.48,0,0,1,72,89.17H62.7V69.66h8.75A8.63,8.63,0,0,1,76.62,71a4.33,4.33,0,0,1,1.83,3.71,4.82,4.82,0,0,1-.71,2.64,4.61,4.61,0,0,1-1.91,1.7A5.05,5.05,0,0,1,78.5,80.76Zm-13-8.84v6.24H71.2a5.85,5.85,0,0,0,3.31-.79,2.94,2.94,0,0,0,0-4.66,5.85,5.85,0,0,0-3.31-.79Zm10,14.21a2.71,2.71,0,0,0,1.2-2.45c0-2.18-1.59-3.26-4.77-3.26H65.49v6.49H71.9A6.61,6.61,0,0,0,75.47,86.13Z"/><path d="M96.23,84.29H85.86l-2.14,4.88H80.85l8.83-19.51h2.76l8.86,19.51H98.38Zm-1-2.23-4.2-9.56-4.21,9.56Z"/><path d="M104.2,69.66H107V86.74h10.57v2.43H104.2Z"/><path d="M128.25,69.66H131V89.17h-2.79Z"/><path d="M153.67,69.66V89.17h-2.29L139.67,74.62V89.17h-2.78V69.66h2.28l11.71,14.55V69.66Z"/><path d="M161,88.71a8.91,8.91,0,0,1-3.22-1.77l1-2.18a8.48,8.48,0,0,0,2.86,1.63,10.47,10.47,0,0,0,3.58.63,6.4,6.4,0,0,0,3.62-.82A2.54,2.54,0,0,0,170,84a2.18,2.18,0,0,0-.65-1.63,4.36,4.36,0,0,0-1.62-1c-.64-.22-1.55-.47-2.72-.75a28.25,28.25,0,0,1-3.55-1.06A5.87,5.87,0,0,1,159.17,78a4.35,4.35,0,0,1-1-3A5,5,0,0,1,159,72.2a5.64,5.64,0,0,1,2.49-2,10.18,10.18,0,0,1,4.16-.75,13.5,13.5,0,0,1,3.4.44A9.33,9.33,0,0,1,172,71.16L171,73.39a10.13,10.13,0,0,0-2.62-1.18,9.75,9.75,0,0,0-2.73-.4,6,6,0,0,0-3.56.86,2.65,2.65,0,0,0-1.18,2.23,2.12,2.12,0,0,0,.67,1.63,4.53,4.53,0,0,0,1.66,1,23.66,23.66,0,0,0,2.69.74,29,29,0,0,1,3.53,1.06,5.92,5.92,0,0,1,2.3,1.62,4.25,4.25,0,0,1,1,2.92,5,5,0,0,1-.83,2.81,5.6,5.6,0,0,1-2.54,2,10.32,10.32,0,0,1-4.18.74A13.51,13.51,0,0,1,161,88.71Z"/><path d="M178.83,87.16q-2.18-2.22-2.17-6.41V69.66h2.78v11q0,6.27,5.49,6.27a5.29,5.29,0,0,0,4.1-1.55,6.76,6.76,0,0,0,1.42-4.72v-11h2.7V80.75q0,4.22-2.17,6.42a9.41,9.41,0,0,1-12.15,0Z"/><path d="M211.91,89.17l-4.21-6c-.52,0-.93,0-1.23,0h-4.82v5.94h-2.78V69.66h7.6a9,9,0,0,1,6,1.81,6.14,6.14,0,0,1,2.17,5,6.52,6.52,0,0,1-1.11,3.84,6.4,6.4,0,0,1-3.18,2.32l4.62,6.55Zm-1.48-9.45a4.51,4.51,0,0,0,0-6.51,6.31,6.31,0,0,0-4-1.13h-4.74v8.78h4.74A6.25,6.25,0,0,0,210.43,79.72Z"/><path d="M231.56,84.29H221.19L219,89.17h-2.87L225,69.66h2.76l8.86,19.51H233.7Zm-1-2.23-4.21-9.56-4.2,9.56Z"/><path d="M256.3,69.66V89.17H254L242.31,74.62V89.17h-2.79V69.66h2.29l11.71,14.55V69.66Z"/><path d="M265.6,88.09a9.59,9.59,0,0,1-3.7-3.56,10.5,10.5,0,0,1,0-10.23,9.65,9.65,0,0,1,3.71-3.57,10.91,10.91,0,0,1,5.3-1.29,11.1,11.1,0,0,1,4.18.76,8.58,8.58,0,0,1,3.23,2.27l-1.81,1.76A7.28,7.28,0,0,0,271,71.92a8,8,0,0,0-3.93,1,7.11,7.11,0,0,0-2.75,2.69,7.92,7.92,0,0,0,0,7.67,7.18,7.18,0,0,0,2.75,2.69,8.06,8.06,0,0,0,3.93,1,7.3,7.3,0,0,0,5.49-2.34l1.81,1.76a8.71,8.71,0,0,1-3.25,2.28,11,11,0,0,1-4.19.78A10.7,10.7,0,0,1,265.6,88.09Z"/><path d="M296.46,86.74v2.43H282.3V69.66h13.77v2.42h-11v6h9.78v2.37h-9.78v6.29Z"/></svg>