<svg width="600" height="397" viewBox="0 0 600 397" fill="none" xmlns="http://www.w3.org/2000/svg">
<path d="M188.256 166.072H180.164V229.799H220.626V221.909H188.256V166.072ZM529.953 188.933L524.49 184.28L509.115 202.083L493.74 184.482L493.537 184.28L488.075 188.933L504.26 207.545L488.277 225.955L488.075 226.157L493.537 230.81L509.115 213.007L524.49 230.81L529.953 226.157L513.768 207.545L529.953 189.135V188.933ZM423.944 211.996L380.448 166.072H378.829V229.799H386.922V184.077L430.418 229.799H432.036V166.072H423.944V211.996ZM538.045 185.291H545.733V229.799H538.045V185.291ZM537.843 166.072H546.137V173.153H537.843V166.072ZM464.001 184.684C451.458 184.684 441.545 194.8 441.545 207.747C441.545 220.492 451.255 230.81 464.405 230.81C472.093 230.81 478.567 227.573 482.411 223.527L476.948 218.874C474.116 221.504 469.868 223.729 464.608 223.729C456.515 223.729 450.446 217.66 449.637 209.77H485.648C485.648 193.586 476.544 184.684 464.001 184.684V184.684ZM449.839 202.689C451.458 196.013 456.92 191.563 463.394 191.563C470.272 191.563 475.937 195.406 476.948 202.689H449.839V202.689ZM574.056 204.51L570.212 203.094C564.749 201.273 563.536 199.048 563.536 196.418C563.536 193.383 566.57 191.563 570.212 191.563C573.449 191.563 575.674 192.979 577.697 195.002L582.755 190.349C579.518 186.505 575.067 184.482 570.009 184.482C561.513 184.482 555.646 189.742 555.646 196.418C555.646 201.678 558.478 206.736 566.773 209.568L570.414 210.984C575.876 212.805 578.304 214.626 578.304 218.065C578.304 221.504 574.663 223.729 570.009 223.729C565.154 223.729 561.917 221.504 559.085 218.065L553.623 222.92C557.669 227.776 563.333 230.608 569.807 230.608C579.923 230.608 586.194 224.943 586.194 217.862C585.992 211.186 581.946 207.14 574.056 204.51ZM312.068 188.933L306.808 184.28L291.231 202.083L275.855 184.482L275.653 184.28L270.191 188.933L286.375 207.545L270.393 225.955L270.191 226.157L275.653 230.81L291.231 213.007L306.606 230.81H306.808L312.068 226.157L295.884 207.545L312.068 189.135V188.933ZM320.16 185.291H327.848V229.799H320.16V185.291ZM319.958 166.072H328.253V173.153H319.958V166.072ZM246.116 184.684C233.573 184.684 223.66 194.8 223.66 207.747C223.66 220.492 233.371 230.81 246.521 230.81C254.208 230.81 260.682 227.573 264.526 223.527L259.064 218.672C256.232 221.302 251.983 223.527 246.723 223.527C238.631 223.527 232.359 217.458 231.752 209.568H267.965C267.763 193.586 258.659 184.684 246.116 184.684V184.684ZM231.955 202.689C233.573 196.013 239.035 191.563 245.509 191.563C252.185 191.563 258.052 195.406 259.064 202.689H231.955V202.689ZM356.171 204.51L352.327 203.094C346.865 201.273 345.651 199.048 345.651 196.418C345.651 193.383 348.686 191.563 352.327 191.563C355.564 191.563 357.79 192.979 359.813 195.002L365.073 190.551C361.836 186.707 357.587 184.684 352.327 184.684C343.83 184.684 337.964 189.944 337.964 196.62C337.964 201.88 340.796 206.938 348.888 209.77L352.53 211.186C357.992 213.007 360.42 214.828 360.42 218.267C360.42 221.706 356.778 223.932 352.125 223.932C347.27 223.932 344.033 221.706 341.2 218.267L335.738 223.122C339.784 227.978 345.449 230.81 351.923 230.81C362.038 230.81 368.31 225.146 368.31 218.065C368.107 211.186 364.061 207.14 356.171 204.51V204.51ZM592.465 173.355C589.229 173.355 586.599 175.985 586.599 179.222C586.599 182.661 589.229 185.089 592.465 185.089C595.702 185.089 598.332 182.459 598.332 179.222C598.332 175.985 595.702 173.355 592.465 173.355ZM592.465 184.28C589.633 184.28 587.61 182.054 587.61 179.222C587.61 176.39 589.836 174.164 592.465 174.164C595.095 174.164 597.321 176.39 597.321 179.222C597.321 182.054 595.095 184.28 592.465 184.28Z" fill="black"/>
<path d="M594.893 177.603C594.893 176.39 594.084 175.783 592.465 175.783H590.038V182.459H591.049V179.627H592.263L593.882 182.459H595.096L593.477 179.424C594.489 179.222 594.893 178.615 594.893 177.603V177.603ZM592.465 178.615H591.252V176.592H592.465C593.477 176.592 593.882 176.794 593.882 177.603C593.882 178.413 593.477 178.615 592.465 178.615ZM141.524 154.136C138.287 154.136 135.657 156.766 135.657 160.003C135.657 163.442 138.287 165.87 141.524 165.87C144.76 165.87 147.39 163.24 147.39 160.003C147.593 156.766 144.963 154.136 141.524 154.136V154.136ZM141.524 165.06C138.691 165.06 136.668 162.835 136.668 160.003C136.668 157.17 138.894 154.945 141.524 154.945C144.154 154.945 146.379 157.17 146.379 160.003C146.581 163.037 144.356 165.06 141.524 165.06Z" fill="black"/>
<path d="M144.154 158.587C144.154 157.373 143.344 156.766 141.726 156.766H139.298V163.442H140.31V160.61H141.726L143.344 163.442H144.558L142.94 160.407C143.749 160.205 144.154 159.598 144.154 158.587V158.587ZM141.726 159.598H140.512V157.575H141.726C142.737 157.575 143.142 157.777 143.142 158.587C142.94 159.396 142.535 159.598 141.726 159.598Z" fill="black"/>
<path d="M27.0179 191.563C34.0987 177.401 45.6301 166.072 59.387 159.598C61.0055 158.789 62.6239 158.182 64.2424 157.575C64.4447 157.575 64.2424 157.373 64.2424 157.373C15.4864 165.667 -5.55349 226.157 27.0179 252.255C27.2202 252.255 27.2202 252.255 27.2202 252.052C22.5672 245.376 11.4403 222.92 27.0179 191.563Z" fill="#E8171F"/>
<path d="M38.1448 232.024C36.9309 223.932 36.9309 215.839 38.1448 207.949C40.7748 192.17 48.2601 177.806 59.1847 167.083C61.2078 165.06 63.4331 163.24 65.6585 161.419C65.8608 161.419 65.6585 161.217 65.4562 161.217C39.9655 172.546 25.1971 201.071 27.0179 226.966C28.0294 238.902 32.6825 260.549 55.3409 265C55.5432 265 55.5432 264.798 55.5432 264.798C46.4394 258.324 39.7632 243.353 38.1448 232.024V232.024ZM6.58491 173.557C17.9141 157.373 41.3817 146.65 64.2424 149.483C64.4447 149.483 64.4447 149.28 64.2424 149.28C46.844 144.223 28.6364 147.662 17.5095 156.564C12.6541 160.407 9.01259 167.083 6.1803 173.557C6.3826 173.557 6.58491 173.76 6.58491 173.557" fill="#E8171F"/>
<path d="M135.454 193.586C132.42 156.766 99.2414 128.848 62.4216 132.287C49.6762 133.501 35.9194 138.761 25.804 147.46C25.6017 147.662 25.804 147.662 26.0064 147.662C34.5032 142.604 46.6416 142.604 53.7224 143.414C57.3639 143.818 61.2077 144.627 64.647 145.841C68.2885 146.853 71.7277 148.471 74.9646 150.09C76.5831 150.899 78.4038 151.91 80.0223 153.124C86.0915 150.494 92.363 148.674 98.8368 147.864C99.2414 147.864 99.8483 148.067 99.8483 148.471C100.051 149.078 99.646 149.685 99.2414 149.685C95.8022 150.494 92.363 151.304 89.1261 152.72C88.9238 152.72 88.9238 152.922 89.1261 152.922C93.7791 152.922 98.4322 153.529 102.883 154.338C103.288 154.338 103.692 154.743 103.692 155.147C103.692 155.754 103.288 156.361 102.681 156.159C98.6345 155.552 94.7907 155.35 90.7445 155.552C90.5422 155.552 90.5422 155.754 90.7445 155.754C92.5653 156.361 94.3861 156.968 96.2068 157.777C99.646 159.194 102.883 160.812 105.918 162.835C106.12 163.037 106.322 163.442 106.322 163.644C106.322 164.454 105.513 164.656 104.906 164.454C101.871 162.835 98.6345 161.217 95.1953 160.003C93.7791 159.598 92.363 158.991 90.9469 158.587C90.7445 158.587 90.7445 158.789 90.7445 158.789C93.1722 160.205 95.3976 161.824 97.4207 163.644C100.253 166.072 102.883 168.702 105.311 171.332C105.513 171.534 105.715 171.939 105.513 172.343C105.108 172.95 104.299 173.153 103.894 172.546C101.467 169.916 98.8368 167.488 96.0045 165.263C94.3861 164.049 92.5653 162.835 90.7445 161.621C90.5422 161.621 90.5422 161.621 90.5422 161.824C91.1492 162.43 91.5538 162.835 91.9584 163.442C94.3861 166.274 96.6114 169.107 98.4322 172.343C100.253 175.58 101.871 178.817 103.288 182.257C103.49 182.661 103.288 183.066 103.085 183.268C102.478 183.875 101.669 183.673 101.467 183.066C100.051 179.829 98.4322 176.592 96.6114 173.557C94.7907 170.523 92.5653 167.69 90.1376 165.06C87.7099 162.43 85.0799 160.003 82.2476 157.98C81.4384 157.373 80.2246 156.564 79.82 156.159C24.3879 187.112 43.607 268.237 83.6638 263.988C115.831 256.908 138.287 227.169 135.454 193.586" fill="#E8171F"/>
<path d="M15.0818 183.47C27.8272 163.24 50.0809 154.54 63.8378 153.124C64.0401 153.124 64.0401 152.922 63.8378 152.922C58.1732 152.517 52.9132 152.72 46.2371 154.136C39.3586 155.754 32.6825 158.384 26.6133 162.228C20.5441 166.072 15.2841 170.927 11.0357 176.592C11.0357 176.592 11.0357 176.794 10.8334 176.794C2.74111 187.921 0.111119 202.285 3.34803 215.637C3.75264 217.256 4.76418 220.29 5.3711 222.313C5.3711 222.516 5.5734 222.313 5.5734 222.313C3.95495 206.331 8.60801 193.788 15.0818 183.47" fill="#E8171F"/>
</svg>
