<svg id="Layer_1" data-name="Layer 1" xmlns="http://www.w3.org/2000/svg" viewBox="0 0 600 396.05"><defs><style>.cls-1{fill:#0d213f;}.cls-1,.cls-3{fill-rule:evenodd;}.cls-2{fill:none;}.cls-3{fill:#6cb645;}</style></defs><path class="cls-1" d="M223.13,178.68c7,0,10.78-4.21,11.71-7.5.94-5.62-3.75-8.9-8.9-9.84l-6.1-1.41c-9.84-2.34-10.78-8-10.78-11.71,0-7.5,7-12.66,14.53-12.66,8.44,0,14.53,5.16,14.53,13.59h-4.68c0-5.62-4.22-8.9-10.32-8.9-5.15,0-10.31,3.28-10.31,8.43,0,2.35.94,6.1,7.5,7.5l6.56,1.41c7.5,1.88,13.6,6.09,12.19,15-.94,5.63-6.09,11.25-15.94,11.25a14.62,14.62,0,0,1-15-14.06h4.69c-.47,4.22,3.75,8.9,10.31,8.9m44.54,3.75H263V160.87l-17.34-25.31h5.15l14.53,20.16,14.53-20.16h5.63l-17.81,25.31v21.56m72.18-46.87h4.22l5.63,46.87h-4.22l-4.69-38.9-16.4,33.75h-4.69l-16.41-33.75-4.69,38.9h-4.68l5.62-46.87h4.69L322,172.12l17.81-36.56m27.66,4.69v19.68h13.59c6.57,0,8.91-4.68,8.91-9.84s-2.34-9.84-8.91-9.84Zm14.06-4.69c9.38,0,13.13,7,13.13,14.53,0,7-3.75,14.06-13.13,14.06H367.5v18.28h-4.69V135.56Zm58.13,46.87H435V161.34H409.22v21.09H405V135.56h4.22v21.56H435V135.56h4.69v46.87m38-3.75A19.69,19.69,0,1,0,458.44,159C458.44,170.25,466.88,178.68,477.66,178.68Zm0-43.59A23.91,23.91,0,1,1,454.22,159,23,23,0,0,1,477.66,135.09Zm66.09,47.34-23.91-38.9v38.9h-4.21V135.56h4.68l23.91,38.91V135.56h4.22v46.87h-4.69m38.44,0H577.5V160.87l-17.34-25.31h5.15l14.53,20.16,14.54-20.16H600l-17.81,25.31v21.56"/><path class="cls-2" d="M50.16,226a8.44,8.44,0,1,1,8.43-8.44A8.4,8.4,0,0,1,50.16,226"/><path class="cls-3" d="M175.31,196v-1.41a65.82,65.82,0,0,0-8.43-32.81,8.22,8.22,0,0,0,3.28-6.56,8.4,8.4,0,0,0-8.44-8.44,7.91,7.91,0,0,0-4.69,1.41,78.81,78.81,0,0,0-38.44-24.38v1.88a86.36,86.36,0,0,1,22,10.31c-23.91,2.34-40.32,12.65-43.13,14.53V151H97v1.4h1.41c.94,0,1.87.47,2.81.47l-.47.94c10.31,8.44,22.5,24.84,28.6,32.81-1.41.94-1.88,2.82-1.88,4.69a8.67,8.67,0,0,0,.94,3.28c-4.69,4.22-18.75,15.94-42.66,26.72l.94,1.88c23.91-10.79,38-22.5,42.66-26.72a7,7,0,0,0,4.21,1.87,3.52,3.52,0,0,0,2.35-.47,121.21,121.21,0,0,1,6.56,13.6,132.38,132.38,0,0,1-23,34.22.46.46,0,0,1-.47-.47v1.87H120s12.66-4.69,25.78-2.81v.94a6.55,6.55,0,0,0,1.41,4.22,82.56,82.56,0,0,1-52,18.28H89.53v1.87h5.63a82.89,82.89,0,0,0,53-18.75,7,7,0,0,0,5.15,1.88,7.4,7.4,0,0,0,7.5-7.5,9.9,9.9,0,0,0-1.87-5.16,70,70,0,0,0,15-31.41h.46a6.2,6.2,0,0,0,6.1-6.09C180.94,198.84,178.59,196.5,175.31,196Zm-22,41.25h-.47a195.34,195.34,0,0,0-8-26.72c5.16-11.72,8.44-24.84,7.5-39.38,4.22,4.69,14.07,16.88,19.22,25.79a5.77,5.77,0,0,0-2.34,4.68,2.83,2.83,0,0,0,.47,1.88C163.59,207.75,155.62,216.65,153.28,237.28Zm20.16-42.66V196c-.47,0-.94,0-.94.47-6.56-11.72-20.63-27.66-21.09-28.13l-.47-.94a37.87,37.87,0,0,0,0-10.31h3.28c.47,3.28,3.75,6.1,8,6.1a6.79,6.79,0,0,0,3.28-.94A68.74,68.74,0,0,1,173.44,194.62Zm-17.35-45.47a9,9,0,0,0-2.34,6.1h-3.28a64.26,64.26,0,0,0-4.69-16.41C149.53,141.65,152.81,145.4,156.09,149.15Zm-7.5,6.1A197.36,197.36,0,0,1,100.78,151,97.49,97.49,0,0,1,143,137.43,64.58,64.58,0,0,1,148.59,155.25Zm-45.93-1.88a232.64,232.64,0,0,0,39.84,3.75h6.56v.47q2.12,19-11.25,29.53c-.94-1.4-2.81-1.87-4.69-1.87-.93,0-1.87.47-2.81.47C124.69,177.75,113,162.28,102.66,153.37ZM137.34,196a5.77,5.77,0,0,0,2.35-4.69c0-.94-.47-1.87-.47-2.81A31.83,31.83,0,0,0,150,171.18c.94,13.13-1.88,25.79-6.56,37A98.32,98.32,0,0,0,137.34,196Zm-14.53,47.81a131.3,131.3,0,0,0,20.63-30.94,227.75,227.75,0,0,1,7.5,24.85,7.71,7.71,0,0,0-4.69,4.68A50.72,50.72,0,0,0,122.81,243.84Zm34.69-5.16-2.81-1.4c2.81-19.22,9.84-27.66,14.53-31.88a3.16,3.16,0,0,0,2.81,1.88A64.58,64.58,0,0,1,157.5,238.68Z"/><path class="cls-1" d="M21.09,193.22a6.09,6.09,0,1,0,6.1,6.09A6.2,6.2,0,0,0,21.09,193.22Zm15.47-49.69a6.09,6.09,0,1,0-6.09,6.09C33.75,150.09,36.56,147.28,36.56,143.53ZM5.16,162.28a5.16,5.16,0,1,0,0,10.31,5.16,5.16,0,0,0,0-10.31Zm33.75,0a7.5,7.5,0,1,0,7.5,7.5C45.94,165.56,42.66,162.28,38.91,162.28Zm34.68,76.87a6.1,6.1,0,1,0,6.1,6.1A6.21,6.21,0,0,0,73.59,239.15Z"/><path class="cls-1" d="M119.53,239.62a7.5,7.5,0,0,0-5.15,2.35q-14.77-8.44-23.91-16.88a5.3,5.3,0,0,0,1.4-3.75,6.2,6.2,0,0,0-6.09-6.09,5.37,5.37,0,0,0-3.75,1.4,79.19,79.19,0,0,1-15.47-25.31,7.21,7.21,0,0,0,4.69-7,7.81,7.81,0,0,0-2.34-5.63c5.15-6.09,13.59-15.93,23.9-22.5C94.22,157.59,96.09,159,98,159a6.41,6.41,0,0,0,6.56-6.57,6.67,6.67,0,0,0-4.22-6.09c2.35-6.56,6.57-14.06,14.07-18.75a5.36,5.36,0,0,0,5.15,2.81,6.09,6.09,0,1,0,0-12.18,6.07,6.07,0,0,0-5.62,3.75,82,82,0,0,0-18.75-1.88,85.51,85.51,0,0,0-24.38,3.75,8.27,8.27,0,0,0-7-3.75,8.91,8.91,0,1,0,0,17.81,9.83,9.83,0,0,0,6.09-2.34,143.84,143.84,0,0,0,22.5,15c0,.47-.46,1.41-.46,1.87a6.08,6.08,0,0,0,.46,2.82c-10.31,7-19.21,16.87-24.37,23a8.81,8.81,0,0,0-3.75-.94,8,8,0,0,0,0,15.94h.94a69.73,69.73,0,0,0,6.56,13.59A65.74,65.74,0,0,0,81.09,219c-.93-.47-1.4.93-1.4,2.34a6.2,6.2,0,0,0,6.09,6.09,6.72,6.72,0,0,0,3.28-.93,156.6,156.6,0,0,0,24.38,17.34c0,.47-.47,1.41-.47,1.88a3.51,3.51,0,0,0,.47,2.34c-5.63,3.28-13.13,9.84-18.75,14.53a8.64,8.64,0,0,0-5.63-2.34,8.44,8.44,0,1,0,8.44,8.43,9.41,9.41,0,0,0-1.41-5.15c5.63-4.69,13.13-11.25,18.29-14.06a5.77,5.77,0,0,0,4.68,2.34,6.21,6.21,0,0,0,6.1-6.09C125.63,242.43,123.28,239.62,119.53,239.62ZM70.78,133.68a9.41,9.41,0,0,0,1.41-5.15,6.72,6.72,0,0,0-.94-3.28A78.5,78.5,0,0,1,94.69,122,109.37,109.37,0,0,1,113,123.84v.47a3.5,3.5,0,0,0,.47,1.87,34.85,34.85,0,0,0-14.53,18.75H98a6.52,6.52,0,0,0-5.63,3.29C83.91,144,75.94,137.9,70.78,133.68Z"/><path class="cls-1" d="M219.84,208.22v16.4h10.32c4.68,0,7.5-4.22,7.5-8s-2.35-8-7-8H219.84Zm30.94,47.34h-15L222.66,235.4h-2.82v20.16H207.66V197.43h23.9c13.13,0,19.22,9.38,19.22,19.22,0,8.44-4.69,16.41-14.53,18.28Zm9.38-58.13h36.56v10.79H272.34v13.59h21.57v10.31H272.34v12.66h25.32v10.78h-37.5V197.43m44.06,0h43.59v11.25H332.34v46.88H319.69V208.68H304.22V197.43"/><path class="cls-3" d="M376.88,231.18,370.78,211l-6.09,20.15ZM360.47,242l-5.16,13.59H342.19l21.56-58.13h13.59l21.57,58.13H385.78L380.63,242Z"/><path class="cls-1" d="M427,197.43h12.66v47.35h21.56v10.78H427V197.43"/><path class="cls-3" d="M403.59,255.56h12.19V197.43H403.59Z"/></svg>