<svg id="aa0e1a91-889d-471a-b392-051639ec6860" data-name="Layer 1" xmlns="http://www.w3.org/2000/svg" viewBox="0 0 297.68 87.89"><path d="M17.52,16.38H.66v-15H53.78v15H36.92V58.9H17.52Z"/><path d="M71.46,56.35a29.5,29.5,0,0,1,0-52.46,38,38,0,0,1,33.39,0,29.51,29.51,0,0,1,0,52.46A38,38,0,0,1,71.46,56.35ZM94.69,42.72a12.6,12.6,0,0,0,4.65-5,17.65,17.65,0,0,0,0-15.22,12.76,12.76,0,0,0-4.65-5,13,13,0,0,0-13.07,0,12.76,12.76,0,0,0-4.65,5,17.65,17.65,0,0,0,0,15.22,12.67,12.67,0,0,0,4.65,5A13,13,0,0,0,94.69,42.72Z"/><path d="M169.32,4a20.73,20.73,0,0,1,0,38.15,33.74,33.74,0,0,1-13.9,2.63h-8.3V58.89H127.71V1.34h27.71A34.07,34.07,0,0,1,169.32,4ZM160.11,28a6.32,6.32,0,0,0,2-5,6.28,6.28,0,0,0-2-5q-2-1.76-5.92-1.75h-7.07V29.79h7.07q3.94,0,5.92-1.77Z"/><path d="M238.5,1.34V58.9H219.07V16H209.2V1.34Z"/><path d="M258.09,56.61a24.18,24.18,0,0,1-9.21-10.36,36.44,36.44,0,0,1-3.34-16.16,36.4,36.4,0,0,1,3.34-16.15,24.33,24.33,0,0,1,9.21-10.37,27.4,27.4,0,0,1,27.05,0,24.33,24.33,0,0,1,9.21,10.37,36.28,36.28,0,0,1,3.33,16.15,36.32,36.32,0,0,1-3.33,16.16,24.36,24.36,0,0,1-9.21,10.36A27.35,27.35,0,0,1,258.09,56.61Zm20.1-26.52q0-14.55-6.58-14.55T265,30.09q0,14.56,6.58,14.56t6.58-14.53Z"/><path d="M5.51,73.64H0V71H14.1v2.61H8.59v14H5.51Z"/><path d="M28.89,85.06v2.59H16.43V71H28.56v2.59h-9v4.32h8v2.54h-8v4.58Z"/><path d="M32.33,71h3.09V85h8.69v2.61H32.33Z"/><path d="M59,85.06v2.59H46.55V71H58.68v2.59h-9v4.32h8v2.54h-8v4.58Z"/><path d="M65.53,86.78a8.11,8.11,0,0,1-3.18-3,8.92,8.92,0,0,1,0-8.78,8.24,8.24,0,0,1,3.2-3,9.27,9.27,0,0,1,4.54-1.1,9.43,9.43,0,0,1,3.73.71,7.63,7.63,0,0,1,2.85,2.06l-2,1.88a5.8,5.8,0,0,0-4.44-2,6.19,6.19,0,0,0-3.06.75,5.41,5.41,0,0,0-2.11,2.08,6.36,6.36,0,0,0,0,6,5.38,5.38,0,0,0,2.11,2.07,6.19,6.19,0,0,0,3.06.75,5.79,5.79,0,0,0,4.44-2l2,1.9a7.59,7.59,0,0,1-2.86,2.06,9.48,9.48,0,0,1-3.74.72A9.34,9.34,0,0,1,65.53,86.78Z"/><path d="M82.47,86.78a8.06,8.06,0,0,1-3.2-3.06,8.78,8.78,0,0,1,0-8.76,8.19,8.19,0,0,1,3.2-3.06,10.08,10.08,0,0,1,9.16,0,8.26,8.26,0,0,1,3.21,3,8.89,8.89,0,0,1,0,8.78,8.19,8.19,0,0,1-3.21,3,10,10,0,0,1-9.16,0ZM90,84.43a5.36,5.36,0,0,0,2.09-2.08,6,6,0,0,0,.76-3,5.92,5.92,0,0,0-.76-3A5.38,5.38,0,0,0,90,74.25a6.34,6.34,0,0,0-6,0A5.38,5.38,0,0,0,82,76.34a6,6,0,0,0-.76,3,6.09,6.09,0,0,0,.76,3,5.36,5.36,0,0,0,2.09,2.08,6.34,6.34,0,0,0,6,0Z"/><path d="M114.54,87.65l0-11-5.46,9.11h-1.38l-5.46-9V87.65H99.28V71h2.54l6.6,11,6.48-11h2.54l0,16.62Z"/><path d="M137.21,87.65l0-11-5.46,9.11h-1.38l-5.46-9V87.65H122V71h2.54l6.6,11,6.48-11h2.54l0,16.62Z"/><path d="M146.4,86a7.52,7.52,0,0,1-1.92-5.54V71h3.08v9.26q0,4.89,4.23,4.89t4.2-4.89V71h3v9.38A7.56,7.56,0,0,1,157.12,86a8.37,8.37,0,0,1-10.72,0Z"/><path d="M178.11,71V87.65h-2.54L166.41,76.4V87.65h-3.06V71h2.54l9.16,11.26V71Z"/><path d="M182.58,71h3.08V87.65h-3.08Z"/><path d="M193.29,86.78a8.11,8.11,0,0,1-3.18-3,8.89,8.89,0,0,1,0-8.78,8.14,8.14,0,0,1,3.19-3,9.3,9.3,0,0,1,4.54-1.1,9.4,9.4,0,0,1,3.73.71,7.63,7.63,0,0,1,2.85,2.06l-2,1.88a5.83,5.83,0,0,0-4.44-2,6.26,6.26,0,0,0-3.07.75,5.41,5.41,0,0,0-2.11,2.08,6.36,6.36,0,0,0,0,6,5.38,5.38,0,0,0,2.11,2.07,6.26,6.26,0,0,0,3.07.75,5.82,5.82,0,0,0,4.44-2l2,1.9a7.59,7.59,0,0,1-2.86,2.06,9.48,9.48,0,0,1-3.74.72A9.34,9.34,0,0,1,193.29,86.78Z"/><path d="M217.83,83.81h-8.31l-1.64,3.84H204.7L212.18,71h3l7.5,16.62h-3.23Zm-1-2.43-3.14-7.26-3.11,7.26Z"/><path d="M227.37,73.64h-5.51V71H236v2.61h-5.5v14h-3.09Z"/><path d="M238.29,71h3.09V87.65h-3.09Z"/><path d="M249,86.78a8.06,8.06,0,0,1-3.2-3.06,8.85,8.85,0,0,1,0-8.76A8.19,8.19,0,0,1,249,71.9a10.11,10.11,0,0,1,9.17,0,8.17,8.17,0,0,1,3.2,3,8.82,8.82,0,0,1,0,8.78,8.1,8.1,0,0,1-3.2,3,10,10,0,0,1-9.17,0Zm7.58-2.35a5.42,5.42,0,0,0,2.09-2.08,6.09,6.09,0,0,0,.76-3,6,6,0,0,0-.76-3,5.45,5.45,0,0,0-2.09-2.09,6.34,6.34,0,0,0-6,0,5.32,5.32,0,0,0-2.09,2.09,5.92,5.92,0,0,0-.76,3,6,6,0,0,0,.76,3,5.29,5.29,0,0,0,2.09,2.08,6.34,6.34,0,0,0,6,0Z"/><path d="M280.62,71V87.65h-2.54L268.91,76.4V87.65h-3.06V71h2.54l9.16,11.26V71Z"/><path d="M286.52,87.34a7.64,7.64,0,0,1-2.84-1.45l1.07-2.39a8.54,8.54,0,0,0,2.5,1.31,9.11,9.11,0,0,0,3,.51,5.12,5.12,0,0,0,2.77-.59,1.8,1.8,0,0,0,.91-1.57A1.52,1.52,0,0,0,293.4,82a3.5,3.5,0,0,0-1.29-.72c-.53-.18-1.24-.38-2.14-.6a24.48,24.48,0,0,1-3.07-.9,5,5,0,0,1-2-1.41,3.82,3.82,0,0,1-.85-2.6,4.46,4.46,0,0,1,.75-2.51A5,5,0,0,1,287,71.46a9.16,9.16,0,0,1,3.69-.66,12.06,12.06,0,0,1,3,.37,8.3,8.3,0,0,1,2.54,1.1l-1,2.4a9.52,9.52,0,0,0-2.28-1,8.58,8.58,0,0,0-2.3-.33A4.74,4.74,0,0,0,288,74a1.87,1.87,0,0,0-.89,1.63,1.49,1.49,0,0,0,.51,1.17,3.63,3.63,0,0,0,1.29.71c.52.17,1.24.37,2.14.59a23.69,23.69,0,0,1,3,.89,5.23,5.23,0,0,1,2,1.42A3.71,3.71,0,0,1,297,83a4.35,4.35,0,0,1-.75,2.49,5,5,0,0,1-2.27,1.78,9.06,9.06,0,0,1-3.7.67A12.44,12.44,0,0,1,286.52,87.34Z"/></svg>