<svg id="Layer_1" data-name="Layer 1" xmlns="http://www.w3.org/2000/svg" viewBox="0 0 600 396.05"><defs><style>.cls-1{fill:#b22024;}</style></defs><path class="cls-1" d="M63.2,137.67a63.2,63.2,0,1,0,63.2,63.2A63.33,63.33,0,0,0,63.2,137.67ZM9.6,178.87a30.86,30.86,0,0,1,3.2-7.6c4-6.4,9.2-11.2,13.2-11.6H98.4c4,1.6,6.8,5.2,6.4,9.6a11.07,11.07,0,0,1-1.2,5.2H20c-5.2,0-9.2,3.2-11.2,7.6C9.2,180.87,9.2,180.07,9.6,178.87Zm61.2,79.6a25.79,25.79,0,0,1-8,1.2c-7.2,0-14-2.4-16.4-5.6l-.8-1.2s-30.4-52.8-35.6-61.6c-.4-4.4,1.6-8.8,5.2-10.8a8,8,0,0,1,5.2-1.6c5.6,9.2,42,72.4,42,72.4a11.94,11.94,0,0,0,11.6,6C72.8,257.67,72,258.07,70.8,258.47Zm46.4-68.4s-30.4,52.8-35.6,61.6a10.17,10.17,0,0,1-12,.8,10.32,10.32,0,0,1-3.6-3.6c5.6-9.2,42-72.4,42-72.4a12.1,12.1,0,0,0-.8-13.2,10.61,10.61,0,0,1,2.4,2,44.38,44.38,0,0,1,4.8,6.4c4,6.4,5.2,13.2,3.6,17.2ZM236,163.67a29,29,0,0,1,10-6H136v18h32v82.4h21.2v-82.4h36.4C228.4,170.87,232,167.27,236,163.67Z"/><path class="cls-1" d="M312,240.07H278c-20.4,0-28-6-29.6-22.8h56.4v-18H248.4c.8-10,1.2-12,4.4-16.4,4.4-5.6,9.6-7.2,24-7.2h27.6v-18h-36c-13.6,0-20.4,2-27.6,8-11.6,9.6-16.8,23.6-16.8,42,0,16,4.8,30,13.2,38.8,8,8.4,18,11.2,39.6,11.2h58.4C325.2,254.47,317.2,248.47,312,240.07Z"/><path class="cls-1" d="M362.4,173.67c-18.8,0-26.4,10-26.4,33.6s8,34,26.4,34c17.2,0,25.6-10.8,25.6-34C387.6,184.47,379.6,173.67,362.4,173.67Zm.8,84.8c-33.2,0-50.8-17.6-50.8-50,0-34.8,16-51.2,49.6-51.2s49.2,16.8,49.2,53.2c0,31.2-16.8,48-48,48m138-18.4H468c-20,0-27.2-9.2-27.2-33.6,0-22.4,7.2-30.8,26.4-30.8h31.2v-18h-34c-9.6,0-19.6,1.6-25.2,4.4-14,6.8-22,23.2-22,45.6,0,18,4.4,32,13.19,40,7.6,7.6,16,10,33.2,10h60.8C514.39,254.47,506.39,248.47,501.19,240.07Z"/><path class="cls-1" d="M551.19,173.67c-18.8,0-26.4,10-26.4,33.6s8,34,26.4,34c17.6,0,25.6-10.8,25.6-34C576.79,184.47,568.79,173.67,551.19,173.67Zm.8,84.8c-33.2,0-50.8-17.6-50.8-50,0-34.8,16-51.2,49.6-51.2s49.2,16.8,49.2,53.2c.4,31.2-16.4,48-48,48"/></svg>