<svg id="Layer_1" data-name="Layer 1" xmlns="http://www.w3.org/2000/svg" xmlns:xlink="http://www.w3.org/1999/xlink" viewBox="0 0 600 396.05"><defs><style>.cls-1{fill:#eb6806;}.cls-2{fill:#191715;}.cls-3{fill:url(#linear-gradient);}.cls-4{fill:url(#linear-gradient-2);}.cls-5{fill:url(#linear-gradient-3);}.cls-6{fill:url(#linear-gradient-4);}.cls-7{fill:url(#linear-gradient-5);}.cls-8{fill:url(#linear-gradient-6);}.cls-9{fill:url(#linear-gradient-7);}.cls-10{fill:url(#linear-gradient-8);}.cls-11{fill:url(#linear-gradient-9);}.cls-12{fill:url(#linear-gradient-10);}.cls-13{fill:url(#linear-gradient-11);}.cls-14{fill:url(#linear-gradient-12);}</style><linearGradient id="linear-gradient" x1="0.85" y1="235.58" x2="90.15" y2="238.13" gradientUnits="userSpaceOnUse"><stop offset="0" stop-color="#f2cc06"/><stop offset="1" stop-color="#f16d28"/></linearGradient><linearGradient id="linear-gradient-2" x1="0.98" y1="231.04" x2="90.28" y2="233.59" xlink:href="#linear-gradient"/><linearGradient id="linear-gradient-3" x1="2.12" y1="191.07" x2="91.42" y2="193.62" xlink:href="#linear-gradient"/><linearGradient id="linear-gradient-4" x1="1.47" y1="213.84" x2="90.77" y2="216.39" xlink:href="#linear-gradient"/><linearGradient id="linear-gradient-5" x1="2.55" y1="175.93" x2="91.85" y2="178.48" xlink:href="#linear-gradient"/><linearGradient id="linear-gradient-6" x1="3.61" y1="139.02" x2="92.91" y2="141.57" xlink:href="#linear-gradient"/><linearGradient id="linear-gradient-7" x1="2.53" y1="176.72" x2="91.83" y2="179.27" xlink:href="#linear-gradient"/><linearGradient id="linear-gradient-8" x1="3.19" y1="153.52" x2="92.5" y2="156.07" xlink:href="#linear-gradient"/><linearGradient id="linear-gradient-9" x1="2.05" y1="193.64" x2="91.35" y2="196.19" xlink:href="#linear-gradient"/><linearGradient id="linear-gradient-10" x1="1.92" y1="198.07" x2="91.22" y2="200.62" xlink:href="#linear-gradient"/><linearGradient id="linear-gradient-11" x1="2.54" y1="176.36" x2="91.84" y2="178.92" xlink:href="#linear-gradient"/><linearGradient id="linear-gradient-12" x1="1.51" y1="212.57" x2="90.81" y2="215.12" xlink:href="#linear-gradient"/></defs><polygon class="cls-1" points="184.29 165.81 184.29 174.82 194.13 174.82 194.13 217.14 203.48 217.14 203.48 174.82 212.97 174.82 212.97 165.81 184.29 165.81"/><path class="cls-1" d="M216.29,162.9h9.49v19.67h.14c2.36-3.67,6-5.61,11.3-5.61,8.17,0,13.85,6.51,13.85,16.35v23.9h-9.49v-22c0-5.89-2.7-9.35-6.86-9.35a9,9,0,0,0-9,9.14v22.17h-9.43Z"/><path class="cls-1" d="M255.3,177.59h9.28V182h.14a8.31,8.31,0,0,1,7.62-5.4,8.14,8.14,0,0,1,4.57,1.24l-3,8.46a6.49,6.49,0,0,0-3.12-1.11,5.74,5.74,0,0,0-5.75,6v26.19H255.3V177.59Z"/><path class="cls-1" d="M350.48,212.36h-.14c-2.63,3.6-7.48,5.89-12.75,5.89-12.74,0-20.09-10.6-20.09-20.85,0-9.77,8-20.85,20.51-20.85,5.75,0,10.18,2.56,12.33,5.89h.14v-4.85h9.21v39.55h-9.21Zm-11.85-2.15c6.58,0,12.19-5.75,12.19-12.81s-5.61-12.82-12.19-12.82a12.82,12.82,0,0,0,0,25.63"/><polygon class="cls-1" points="367.24 163.39 367.24 178.21 362.53 178.21 362.53 186.18 367.24 186.18 367.24 217.14 377.7 217.14 377.7 186.18 383.59 186.18 383.59 178.21 377.7 178.21 377.7 163.39 367.24 163.39"/><path class="cls-1" d="M295.27,210.7c-5.82,0-11.36-4.36-11.85-10.39h32.21v-1.53c0-15.44-12.05-22.23-20.09-22.23-13.57,0-21.4,10.39-21.4,20.85s7.83,20.85,21.4,20.85c6.51-.07,12.54-3.26,17.11-8.59l-7.34-3.74a13.39,13.39,0,0,1-10,4.78M294.43,184c5.27,0,9.7,3.19,11.43,9.21H283.42c1.39-5.82,5.68-9.21,11-9.21"/><path class="cls-2" d="M513.06,177.59h9.28V182h.14a8.33,8.33,0,0,1,7.62-5.4,8.17,8.17,0,0,1,4.58,1.24l-3,8.46a6.49,6.49,0,0,0-3.12-1.11,5.74,5.74,0,0,0-5.75,6v26.19h-9.77Z"/><polygon class="cls-2" points="398.07 165.67 407.42 165.67 418.5 199.69 430.35 165.67 439.84 165.67 447.53 217.14 438.38 217.14 433.47 185.14 433.26 185.14 422.31 217.14 413.31 217.14 403.96 185.14 403.68 185.14 398.83 217.14 389.41 217.14 398.07 165.67"/><path class="cls-2" d="M540.91,162.21a6.1,6.1,0,1,1-6,6.09,6,6,0,0,1,6-6.09m-4.57,15.31h9.07v39.62h-9.07Z"/><polygon class="cls-2" points="561.97 196.91 548.25 177.59 560.03 177.59 568.48 188.46 576.65 177.59 587.74 177.59 574.09 196.43 588.29 217.14 577.35 217.14 568 203.91 558.37 217.14 547.91 217.14 561.97 196.91"/><polygon class="cls-2" points="494.01 163.39 494.01 178.21 489.3 178.21 489.3 186.18 494.01 186.18 494.01 217.14 504.47 217.14 504.47 186.18 510.43 186.18 510.43 178.21 504.47 178.21 504.47 163.39 494.01 163.39"/><path class="cls-2" d="M467.9,184c-5.27,0-9.63,3.32-11,9.21h22.45c-1.74-6-6.1-9.21-11.43-9.21m10.94,21.82,7.34,3.74c-4.57,5.33-10.6,8.52-17.11,8.59-13.57,0-21.4-10.39-21.4-20.85s7.83-20.85,21.4-20.85c8.11,0,20.09,6.79,20.09,22.23v1.53H457c.49,6,6,10.39,11.85,10.39a12.93,12.93,0,0,0,10-4.78"/><path class="cls-2" d="M589.33,182.92h0a5.34,5.34,0,0,1,10.67-.07h0a5.34,5.34,0,0,1-5.33,5.34,5.21,5.21,0,0,1-5.34-5.27m10,0h0a4.71,4.71,0,1,0-9.42,0h0a4.71,4.71,0,1,0,9.42,0m-6.86-3h2.49a2.18,2.18,0,0,1,1.73.63,1.81,1.81,0,0,1,.49,1.24h0a1.73,1.73,0,0,1-1.25,1.73l1.39,2h-1.39l-1.17-1.8h-1v1.8h-1.32Zm2.49,2.77c.63,0,1-.34,1-.83h0c0-.55-.41-.83-1-.83H593.7v1.66Z"/><path class="cls-3" d="M116.59,207.63a4.38,4.38,0,0,0-4.38,4.38v7.11l-42.3,42.31a4.38,4.38,0,0,0,0,6.19,4.38,4.38,0,0,0,6.19,0L119.69,224a4.39,4.39,0,0,0,1.28-3.1V212A4.38,4.38,0,0,0,116.59,207.63Z"/><path class="cls-4" d="M90.68,224.13V215.2a4.38,4.38,0,0,0-8.76,0v7.12L56.36,247.88a4.39,4.39,0,0,0,3.1,7.48,4.33,4.33,0,0,0,3.09-1.29L89.4,227.23A4.39,4.39,0,0,0,90.68,224.13Z"/><path class="cls-5" d="M50.41,182.68v-8.93a4.38,4.38,0,0,0-8.76,0v7.11L15.5,207a4.38,4.38,0,0,0,0,6.19,4.38,4.38,0,0,0,6.19,0l27.43-27.44A4.34,4.34,0,0,0,50.41,182.68Z"/><path class="cls-6" d="M45.46,214.88V206a4.38,4.38,0,0,0-8.76,0v7.12l-7.58,7.57a4.38,4.38,0,0,0,6.19,6.2L44.17,218A4.36,4.36,0,0,0,45.46,214.88Z"/><path class="cls-7" d="M98.91,179.73v8.93a4.38,4.38,0,1,0,8.76,0v-7.11l9.2-9.2a4.38,4.38,0,0,0-6.19-6.2l-10.49,10.49A4.37,4.37,0,0,0,98.91,179.73Z"/><path class="cls-8" d="M57.15,157.51a4.38,4.38,0,0,0,4.37-4.38V146L76,131.51a4.38,4.38,0,0,0-6.19-6.19L54.05,141.11a4.37,4.37,0,0,0-1.28,3.1v8.92A4.38,4.38,0,0,0,57.15,157.51Z"/><path class="cls-9" d="M46.21,155.14a4.38,4.38,0,0,0-6.19,0l-38.2,38.2a4.38,4.38,0,0,0,0,6.19,4.36,4.36,0,0,0,6.19,0l38.2-38.2A4.38,4.38,0,0,0,46.21,155.14Z"/><path class="cls-10" d="M56.67,172a4.38,4.38,0,0,0,6.19,0l26.85-26.85A4.38,4.38,0,0,0,83.52,139L56.67,165.84A4.39,4.39,0,0,0,56.67,172Z"/><path class="cls-11" d="M96.65,213.79a4.38,4.38,0,0,0,6.19,0l27.73-27.74a4.38,4.38,0,0,0-6.19-6.19L96.65,207.59A4.39,4.39,0,0,0,96.65,213.79Z"/><path class="cls-12" d="M144.12,193.41a4.38,4.38,0,0,0-6.19,0l-10.78,10.77a4.38,4.38,0,0,0,6.19,6.2l10.78-10.78A4.38,4.38,0,0,0,144.12,193.41Z"/><path class="cls-13" d="M51.57,204.39a4.38,4.38,0,0,0,6.19,0l45.58-45.58a4.38,4.38,0,1,0-6.2-6.19L51.57,198.19A4.39,4.39,0,0,0,51.57,204.39Z"/><path class="cls-14" d="M94.42,188.61a4.39,4.39,0,0,0-6.2,0L42.65,234.18a4.38,4.38,0,0,0,6.2,6.19L94.42,194.8A4.38,4.38,0,0,0,94.42,188.61Z"/></svg>