<svg id="b9e8d79d-3cde-443a-8157-851c18b81a23" data-name="Layer 1" xmlns="http://www.w3.org/2000/svg" viewBox="0 0 600 396.05"><path d="M86.28,149.06H59.06V124.77h85.76v24.29H117.6v68.63H86.28Z" style="fill:#231f20"/><path d="M173.36,213.58a47.63,47.63,0,0,1,0-84.69,61.3,61.3,0,0,1,53.89,0,47.64,47.64,0,0,1,0,84.69A61.36,61.36,0,0,1,173.36,213.58Zm37.5-22a20.38,20.38,0,0,0,7.5-8.1,28.49,28.49,0,0,0,0-24.56,20.66,20.66,0,0,0-7.5-8.1,21,21,0,0,0-21.11,0,20.66,20.66,0,0,0-7.5,8.1,28.42,28.42,0,0,0,0,24.56,20.38,20.38,0,0,0,7.5,8.1A21,21,0,0,0,210.86,191.58Z" style="fill:#231f20"/><path d="M331.32,129a33.47,33.47,0,0,1,0,61.59q-9.56,4.26-22.43,4.25H295.48v22.83H264.15v-92.9h44.74Q321.76,124.77,331.32,129Zm-14.87,38.83a10.2,10.2,0,0,0,3.19-8c0-3.42-1.06-6.12-3.19-8S311.14,149,306.9,149H295.48v21.7H306.9q6.36,0,9.55-2.85Z" style="fill:#231f20"/><path d="M443,124.77v92.92H411.63V148.4H395.7V124.77Z" style="fill:#231f20"/><path d="M474.62,214a39.15,39.15,0,0,1-14.87-16.73q-5.38-11-5.38-26.08t5.38-26.08a39.22,39.22,0,0,1,14.87-16.73,44.22,44.22,0,0,1,43.67,0,39.34,39.34,0,0,1,14.87,16.73q5.37,10.95,5.37,26.08t-5.37,26.08A39.34,39.34,0,0,1,518.29,214,44.22,44.22,0,0,1,474.62,214Zm32.45-42.81q0-23.49-10.62-23.49t-10.62,23.49q0,23.51,10.62,23.5t10.62-23.46Z" style="fill:#231f20"/><path d="M87.85,269.92l0-19.68-9.65,16.21H74.73l-9.61-15.79v19.26H58v-32.8h6.28L76.55,257.5l12.09-20.38h6.23l.1,32.8Z"/><path d="M109.42,268.28a16.39,16.39,0,0,1-6.42-6.07,17.45,17.45,0,0,1,0-17.39,16.44,16.44,0,0,1,6.42-6.06,19.17,19.17,0,0,1,9.21-2.21,19,19,0,0,1,9.18,2.21,16.73,16.73,0,0,1,0,29.52,19.08,19.08,0,0,1-9.18,2.2A19.28,19.28,0,0,1,109.42,268.28Zm14.46-5.6a9.63,9.63,0,0,0,3.68-3.73,11.77,11.77,0,0,0,0-10.87,9.6,9.6,0,0,0-3.68-3.72,11,11,0,0,0-10.5,0,9.6,9.6,0,0,0-3.68,3.72,11.77,11.77,0,0,0,0,10.87,9.63,9.63,0,0,0,3.68,3.73,11,11,0,0,0,10.5,0Z"/><path d="M170.78,255.84a8.21,8.21,0,0,1,1.59,5.13A7.57,7.57,0,0,1,169,267.6q-3.35,2.31-9.77,2.32h-17v-32.8h16c4,0,7.06.76,9.2,2.29a7.27,7.27,0,0,1,3.21,6.23,7.85,7.85,0,0,1-4.35,7.22A8.63,8.63,0,0,1,170.78,255.84Zm-20.94-13v7.73h7.54a7.58,7.58,0,0,0,4.26-1,3.28,3.28,0,0,0,1.46-2.9,3.24,3.24,0,0,0-1.46-2.89,7.77,7.77,0,0,0-4.26-1Zm13.37,20.38a3.35,3.35,0,0,0,1.53-3q0-4.08-6.05-4.08h-8.85v8.11h8.85A8.35,8.35,0,0,0,163.21,263.21Z"/><path d="M178.14,237.12h7.59v32.8h-7.59Z"/><path d="M193.5,237.12h7.6v26.61h16.44v6.19h-24Z"/><path d="M247.2,263.82v6.1H221.81v-32.8h24.78v6.09H229.35v7.12h15.23v5.9H229.35v7.59Z"/><path d="M273.18,268.28a16.39,16.39,0,0,1-6.42-6.07,17.45,17.45,0,0,1,0-17.39,16.44,16.44,0,0,1,6.42-6.06,20.23,20.23,0,0,1,18.39,0,16.73,16.73,0,0,1,0,29.52,20.32,20.32,0,0,1-18.39,0Zm14.46-5.6a9.61,9.61,0,0,0,3.67-3.73,11.69,11.69,0,0,0,0-10.87,9.58,9.58,0,0,0-3.67-3.72,11,11,0,0,0-10.5,0,9.6,9.6,0,0,0-3.68,3.72,11.77,11.77,0,0,0,0,10.87,9.63,9.63,0,0,0,3.68,3.73,11,11,0,0,0,10.5,0Z"/><path d="M327.81,238.57a11.29,11.29,0,0,1,4.95,4.12,12.39,12.39,0,0,1,0,12.63,11,11,0,0,1-4.95,4.12,18.34,18.34,0,0,1-7.56,1.43h-6.61v9.05h-7.59v-32.8h14.2A18.18,18.18,0,0,1,327.81,238.57ZM325,253.21a5.15,5.15,0,0,0,1.78-4.19,5.21,5.21,0,0,0-1.78-4.24,8,8,0,0,0-5.2-1.48h-6.19v11.39h6.19A8,8,0,0,0,325,253.21Z"/><path d="M365.28,263.82v6.1h-25.4v-32.8h24.79v6.09H347.42v7.12h15.23v5.9H347.42v7.59Z"/><path d="M392.22,269.92l-6.33-9.14h-7v9.14h-7.59v-32.8h14.2a18.18,18.18,0,0,1,7.56,1.45,11.29,11.29,0,0,1,4.95,4.12,11.41,11.41,0,0,1,1.73,6.33A10.68,10.68,0,0,1,393,259.37l7.36,10.55Zm-1.92-25.14a8,8,0,0,0-5.2-1.48h-6.19v11.43h6.19a7.9,7.9,0,0,0,5.2-1.5,5.9,5.9,0,0,0,0-8.45Z"/><path d="M427.36,262.89H412.13l-2.91,7h-7.77l14.61-32.8h7.5l14.67,32.8h-8ZM425,257.12l-5.2-12.55-5.2,12.55Z"/><path d="M446.8,243.3H436.31v-6.18h28.58v6.18h-10.5v26.62H446.8Z"/><path d="M475.17,268.28a16.39,16.39,0,0,1-6.42-6.07,17.52,17.52,0,0,1,0-17.39,16.44,16.44,0,0,1,6.42-6.06,19.17,19.17,0,0,1,9.21-2.21,19,19,0,0,1,9.18,2.21,16.73,16.73,0,0,1,0,29.52,19.08,19.08,0,0,1-9.18,2.2A19.28,19.28,0,0,1,475.17,268.28Zm14.46-5.6a9.63,9.63,0,0,0,3.68-3.73,11.77,11.77,0,0,0,0-10.87,9.6,9.6,0,0,0-3.68-3.72,11,11,0,0,0-10.5,0,9.67,9.67,0,0,0-3.68,3.72,11.77,11.77,0,0,0,0,10.87,9.7,9.7,0,0,0,3.68,3.73,11,11,0,0,0,10.5,0Z"/><path d="M528.94,269.92l-6.33-9.14h-7v9.14H508v-32.8h14.2a18.23,18.23,0,0,1,7.57,1.45A10.84,10.84,0,0,1,536.48,249a10.66,10.66,0,0,1-6.74,10.35l7.35,10.55ZM527,244.78a7.94,7.94,0,0,0-5.2-1.48h-6.19v11.43h6.19a7.88,7.88,0,0,0,5.2-1.5,5.9,5.9,0,0,0,0-8.45Z"/></svg>