<svg id="Layer_1" data-name="Layer 1" xmlns="http://www.w3.org/2000/svg" viewBox="0 0 1354 677"><rect y="1" width="1354" height="676" style="fill:#242526"/><polygon points="966.44 374.3 972.85 363.49 944.5 314.55 888.12 314.55 882.05 325.35 910.06 374.3 966.44 374.3" style="fill:none;stroke:#424242;stroke-miterlimit:10"/><polygon points="865.5 334.8 853.01 334.8 825 383.75 853.01 432.69 865.5 432.69 893.86 383.75 865.5 334.8" style="fill:none;stroke:#424242;stroke-miterlimit:10"/><polygon points="910.06 393.2 882.05 442.15 888.12 452.61 944.5 452.61 972.85 404 966.44 393.2 910.06 393.2" style="fill:none;stroke:#424242;stroke-miterlimit:10"/><polygon points="831.44 294.3 837.85 283.49 809.5 234.55 753.12 234.55 747.05 245.35 775.06 294.3 831.44 294.3" style="fill:none;stroke:#424242;stroke-miterlimit:10"/><polygon points="730.5 254.8 718.01 254.8 690 303.75 718.01 352.69 730.5 352.69 758.86 303.75 730.5 254.8" style="fill:none;stroke:#424242;stroke-miterlimit:10"/><polygon points="775.06 313.2 747.05 362.15 753.12 372.61 809.5 372.61 837.85 324 831.44 313.2 775.06 313.2" style="fill:none;stroke:#424242;stroke-miterlimit:10"/><polygon points="831.44 451.3 837.85 440.49 809.5 391.55 753.12 391.55 747.05 402.35 775.06 451.3 831.44 451.3" style="fill:none;stroke:#424242;stroke-miterlimit:10"/><polygon points="730.5 411.8 718.01 411.8 690 460.75 718.01 509.69 730.5 509.69 758.86 460.75 730.5 411.8" style="fill:none;stroke:#424242;stroke-miterlimit:10"/><polygon points="775.06 470.2 747.05 519.15 753.12 529.61 809.5 529.61 837.85 481 831.44 470.2 775.06 470.2" style="fill:none;stroke:#424242;stroke-miterlimit:10"/><polygon points="831.44 611.3 837.85 600.49 809.5 551.55 753.12 551.55 747.05 562.35 775.06 611.3 831.44 611.3" style="fill:none;stroke:#424242;stroke-miterlimit:10"/><polygon points="730.5 571.8 718.01 571.8 690 620.75 718.01 669.7 730.5 669.7 758.86 620.75 730.5 571.8" style="fill:none;stroke:#424242;stroke-miterlimit:10"/><polygon points="775.06 630.2 747.05 679.15 753.12 689.61 809.5 689.61 837.85 641 831.44 630.2 775.06 630.2" style="fill:none;stroke:#424242;stroke-miterlimit:10"/><polygon points="966.44 216.05 972.85 205.25 944.5 156.3 888.12 156.3 882.05 167.11 910.06 216.05 966.44 216.05" style="fill:none;stroke:#424242;stroke-miterlimit:10"/><polygon points="865.5 176.56 853.01 176.56 825 225.5 853.01 274.45 865.5 274.45 893.86 225.5 865.5 176.56" style="fill:none;stroke:#424242;stroke-miterlimit:10"/><polygon points="910.06 234.96 882.05 283.9 888.12 294.37 944.5 294.37 972.85 245.76 966.44 234.96 910.06 234.96" style="fill:none;stroke:#424242;stroke-miterlimit:10"/><polygon points="1102.3 611.54 1108.71 600.74 1080.36 551.79 1023.98 551.79 1017.91 562.59 1045.93 611.54 1102.3 611.54" style="fill:none;stroke:#424242;stroke-miterlimit:10"/><polygon points="1001.37 572.04 988.88 572.04 960.86 620.99 988.88 669.94 1001.37 669.94 1029.72 620.99 1001.37 572.04" style="fill:none;stroke:#424242;stroke-miterlimit:10"/><polygon points="1045.93 630.44 1017.91 679.39 1023.98 689.86 1080.36 689.86 1108.71 641.25 1102.3 630.44 1045.93 630.44" style="fill:none;stroke:#424242;stroke-miterlimit:10"/><polygon points="1102.3 134.23 1108.71 123.42 1080.36 74.48 1023.98 74.48 1017.91 85.28 1045.93 134.23 1102.3 134.23" style="fill:none;stroke:#424242;stroke-miterlimit:10"/><polygon points="1001.37 94.73 988.88 94.73 960.86 143.68 988.88 192.63 1001.37 192.63 1029.72 143.68 1001.37 94.73" style="fill:none;stroke:#424242;stroke-miterlimit:10"/><polygon points="1045.93 153.13 1017.91 202.08 1023.98 212.54 1080.36 212.54 1108.71 163.93 1102.3 153.13 1045.93 153.13" style="fill:none;stroke:#424242;stroke-miterlimit:10"/><polygon points="966.44 532.14 972.85 521.34 944.5 472.39 888.12 472.39 882.05 483.19 910.06 532.14 966.44 532.14" style="fill:none;stroke:#424242;stroke-miterlimit:10"/><polygon points="865.5 492.65 853.01 492.65 825 541.59 853.01 590.54 865.5 590.54 893.86 541.59 865.5 492.65" style="fill:none;stroke:#424242;stroke-miterlimit:10"/><polygon points="910.06 551.04 882.05 599.99 888.12 610.46 944.5 610.46 972.85 561.85 966.44 551.04 910.06 551.04" style="fill:none;stroke:#424242;stroke-miterlimit:10"/><polygon points="1238.96 533.14 1245.38 522.34 1217.02 473.39 1160.65 473.39 1154.57 484.19 1182.59 533.14 1238.96 533.14" style="fill:none;stroke:#424242;stroke-miterlimit:10"/><polygon points="1138.03 493.65 1125.54 493.65 1097.52 542.59 1125.54 591.54 1138.03 591.54 1166.38 542.59 1138.03 493.65" style="fill:none;stroke:#424242;stroke-miterlimit:10"/><polygon points="1182.59 552.04 1154.57 600.99 1160.65 611.46 1217.02 611.46 1245.38 562.85 1238.96 552.04 1182.59 552.04" style="fill:none;stroke:#424242;stroke-miterlimit:10"/><polygon points="966.44 689.18 972.85 678.38 944.5 629.43 888.12 629.43 882.05 640.24 910.06 689.18 966.44 689.18" style="fill:none;stroke:#424242;stroke-miterlimit:10"/><polygon points="865.5 649.69 853.01 649.69 825 698.63 853.01 747.58 865.5 747.58 893.86 698.63 865.5 649.69" style="fill:none;stroke:#424242;stroke-miterlimit:10"/><polygon points="1238.96 690.18 1245.38 679.38 1217.02 630.43 1160.65 630.43 1154.57 641.24 1182.59 690.18 1238.96 690.18" style="fill:none;stroke:#424242;stroke-miterlimit:10"/><polygon points="1138.03 650.69 1125.54 650.69 1097.52 699.63 1125.54 748.58 1138.03 748.58 1166.38 699.63 1138.03 650.69" style="fill:none;stroke:#424242;stroke-miterlimit:10"/><polygon points="1102.3 454.42 1108.71 443.62 1080.36 394.67 1023.98 394.67 1017.91 405.47 1045.93 454.42 1102.3 454.42" style="fill:none;stroke:#424242;stroke-miterlimit:10"/><polygon points="1001.37 414.92 988.88 414.92 960.86 463.87 988.88 512.82 1001.37 512.82 1029.72 463.87 1001.37 414.92" style="fill:none;stroke:#424242;stroke-miterlimit:10"/><polygon points="1045.93 473.32 1017.91 522.27 1023.98 532.73 1080.36 532.73 1108.71 484.12 1102.3 473.32 1045.93 473.32" style="fill:none;stroke:#424242;stroke-miterlimit:10"/><polygon points="1238.96 375.3 1245.38 364.49 1217.02 315.55 1160.65 315.55 1154.57 326.35 1182.59 375.3 1238.96 375.3" style="fill:none;stroke:#424242;stroke-miterlimit:10"/><polygon points="1138.03 335.8 1125.54 335.8 1097.52 384.75 1125.54 433.69 1138.03 433.69 1166.38 384.75 1138.03 335.8" style="fill:none;stroke:#424242;stroke-miterlimit:10"/><polygon points="1182.59 394.2 1154.57 443.15 1160.65 453.61 1217.02 453.61 1245.38 405 1238.96 394.2 1182.59 394.2" style="fill:none;stroke:#424242;stroke-miterlimit:10"/><polygon points="1238.96 217.05 1245.38 206.25 1217.02 157.3 1160.65 157.3 1154.57 168.11 1182.59 217.05 1238.96 217.05" style="fill:none;stroke:#424242;stroke-miterlimit:10"/><polygon points="1138.03 177.56 1125.54 177.56 1097.52 226.5 1125.54 275.45 1138.03 275.45 1166.38 226.5 1138.03 177.56" style="fill:none;stroke:#424242;stroke-miterlimit:10"/><polygon points="1182.59 235.96 1154.57 284.9 1160.65 295.37 1217.02 295.37 1245.38 246.76 1238.96 235.96 1182.59 235.96" style="fill:none;stroke:#424242;stroke-miterlimit:10"/><polygon points="999.68 -60.75 987.19 -60.75 959.17 -11.8 987.19 37.15 999.68 37.15 1028.03 -11.8 999.68 -60.75" style="fill:none;stroke:#424242;stroke-miterlimit:10"/><polygon points="1044.24 -2.35 1016.22 46.6 1022.3 57.06 1078.67 57.06 1107.03 8.46 1100.61 -2.35 1044.24 -2.35" style="fill:none;stroke:#424242;stroke-miterlimit:10"/><polygon points="1237.27 60.58 1243.69 49.77 1215.33 0.83 1158.96 0.83 1152.88 11.63 1180.9 60.58 1237.27 60.58" style="fill:none;stroke:#424242;stroke-miterlimit:10"/><polygon points="1136.34 21.08 1123.85 21.08 1095.83 70.03 1123.85 118.97 1136.34 118.97 1164.7 70.03 1136.34 21.08" style="fill:none;stroke:#424242;stroke-miterlimit:10"/><polygon points="1180.9 79.48 1152.88 128.43 1158.96 138.89 1215.33 138.89 1243.69 90.28 1237.27 79.48 1180.9 79.48" style="fill:none;stroke:#424242;stroke-miterlimit:10"/><polygon points="1374.96 454.14 1381.38 443.34 1353.02 394.39 1296.65 394.39 1290.57 405.19 1318.59 454.14 1374.96 454.14" style="fill:none;stroke:#424242;stroke-miterlimit:10"/><polygon points="1274.03 414.65 1261.54 414.65 1233.52 463.59 1261.54 512.54 1274.03 512.54 1302.38 463.59 1274.03 414.65" style="fill:none;stroke:#424242;stroke-miterlimit:10"/><polygon points="1318.59 473.04 1290.57 521.99 1296.65 532.46 1353.02 532.46 1381.38 483.85 1374.96 473.04 1318.59 473.04" style="fill:none;stroke:#424242;stroke-miterlimit:10"/><polygon points="1374.96 611.18 1381.38 600.38 1353.02 551.43 1296.65 551.43 1290.57 562.24 1318.59 611.18 1374.96 611.18" style="fill:none;stroke:#424242;stroke-miterlimit:10"/><polygon points="1274.03 571.69 1261.54 571.69 1233.52 620.63 1261.54 669.58 1274.03 669.58 1302.38 620.63 1274.03 571.69" style="fill:none;stroke:#424242;stroke-miterlimit:10"/><polygon points="1318.59 630.09 1290.57 679.03 1296.65 689.5 1353.02 689.5 1381.38 640.89 1374.96 630.09 1318.59 630.09" style="fill:none;stroke:#424242;stroke-miterlimit:10"/><polygon points="1374.96 296.3 1381.38 285.49 1353.02 236.55 1296.65 236.55 1290.57 247.35 1318.59 296.3 1374.96 296.3" style="fill:none;stroke:#424242;stroke-miterlimit:10"/><polygon points="1274.03 256.8 1261.54 256.8 1233.52 305.75 1261.54 354.69 1274.03 354.69 1302.38 305.75 1274.03 256.8" style="fill:none;stroke:#424242;stroke-miterlimit:10"/><polygon points="1318.59 315.2 1290.57 364.15 1296.65 374.61 1353.02 374.61 1381.38 326 1374.96 315.2 1318.59 315.2" style="fill:none;stroke:#424242;stroke-miterlimit:10"/><polygon points="1374.96 138.05 1381.38 127.25 1353.02 78.3 1296.65 78.3 1290.57 89.11 1318.59 138.05 1374.96 138.05" style="fill:none;stroke:#424242;stroke-miterlimit:10"/><polygon points="1274.03 98.56 1261.54 98.56 1233.52 147.5 1261.54 196.45 1274.03 196.45 1302.38 147.5 1274.03 98.56" style="fill:none;stroke:#424242;stroke-miterlimit:10"/><polygon points="1318.59 156.96 1290.57 205.9 1296.65 216.37 1353.02 216.37 1381.38 167.76 1374.96 156.96 1318.59 156.96" style="fill:none;stroke:#424242;stroke-miterlimit:10"/><polygon points="1272.34 -56.92 1259.85 -56.92 1231.83 -7.97 1259.85 40.97 1272.34 40.97 1300.7 -7.97 1272.34 -56.92" style="fill:none;stroke:#424242;stroke-miterlimit:10"/><polygon points="1316.9 1.48 1288.88 50.42 1294.96 60.89 1351.33 60.89 1379.69 12.28 1373.27 1.48 1316.9 1.48" style="fill:none;stroke:#424242;stroke-miterlimit:10"/><polygon points="1102.3 296.17 1108.71 285.37 1080.36 236.43 1023.98 236.43 1017.91 247.23 1045.93 296.17 1102.3 296.17" style="fill:none;stroke:#fdcf41;stroke-miterlimit:10"/><polygon points="1001.37 256.68 988.88 256.68 960.86 305.63 988.88 354.57 1001.37 354.57 1029.72 305.63 1001.37 256.68" style="fill:none;stroke:#fdcf41;stroke-miterlimit:10"/><polygon points="1045.93 315.08 1017.91 364.02 1023.98 374.49 1080.36 374.49 1108.71 325.88 1102.3 315.08 1045.93 315.08" style="fill:none;stroke:#fdcf41;stroke-miterlimit:10"/></svg>