<svg id="Layer_1" data-name="Layer 1" xmlns="http://www.w3.org/2000/svg" viewBox="0 0 1354 677"><rect y="1" width="1354" height="676" style="fill:#242526"/><polygon points="1113.53 68.94 993.27 1.19 873.02 68.94 873.02 102.51 993.27 170.26 1113.53 102.51 1113.53 68.94" style="fill:none;stroke:#484949;stroke-miterlimit:10;stroke-width:0.5px"/><line x1="993.27" y1="136.99" x2="1113.53" y2="69.24" style="fill:none;stroke:#484949;stroke-miterlimit:10;stroke-width:0.5px"/><line x1="873.02" y1="69.24" x2="993.27" y2="136.99" style="fill:none;stroke:#484949;stroke-miterlimit:10;stroke-width:0.5px"/><line x1="993.27" y1="136.7" x2="993.27" y2="170.26" style="fill:none;stroke:#484949;stroke-miterlimit:10;stroke-width:0.5px"/><polygon points="1113.53 238 993.27 170.26 873.02 238 873.02 271.58 993.27 339.33 1113.53 271.58 1113.53 238" style="fill:none;stroke:#484949;stroke-miterlimit:10;stroke-width:0.5px"/><line x1="993.27" y1="306.05" x2="1113.53" y2="238.31" style="fill:none;stroke:#484949;stroke-miterlimit:10;stroke-width:0.5px"/><line x1="873.02" y1="238.31" x2="993.27" y2="306.05" style="fill:none;stroke:#484949;stroke-miterlimit:10;stroke-width:0.5px"/><line x1="993.27" y1="305.76" x2="993.27" y2="339.33" style="fill:none;stroke:#484949;stroke-miterlimit:10;stroke-width:0.5px"/><polygon points="1113.53 407.07 993.27 339.33 873.02 407.07 873.02 440.65 993.27 508.39 1113.53 440.65 1113.53 407.07" style="fill:none;stroke:#484949;stroke-miterlimit:10;stroke-width:0.5px"/><line x1="993.27" y1="475.12" x2="1113.53" y2="407.38" style="fill:none;stroke:#484949;stroke-miterlimit:10;stroke-width:0.5px"/><line x1="873.02" y1="407.38" x2="993.27" y2="475.12" style="fill:none;stroke:#484949;stroke-miterlimit:10;stroke-width:0.5px"/><line x1="993.27" y1="474.83" x2="993.27" y2="508.39" style="fill:none;stroke:#484949;stroke-miterlimit:10;stroke-width:0.5px"/><polygon points="1354.04 238 1233.78 170.26 1113.53 238 1113.53 271.58 1233.78 339.33 1354.04 271.58 1354.04 238" style="fill:none;stroke:#484949;stroke-miterlimit:10;stroke-width:0.5px"/><line x1="1233.78" y1="306.05" x2="1354.04" y2="238.31" style="fill:none;stroke:#484949;stroke-miterlimit:10;stroke-width:0.5px"/><line x1="1113.53" y1="238.31" x2="1233.78" y2="306.05" style="fill:none;stroke:#484949;stroke-miterlimit:10;stroke-width:0.5px"/><line x1="1233.78" y1="305.76" x2="1233.78" y2="339.33" style="fill:none;stroke:#484949;stroke-miterlimit:10;stroke-width:0.5px"/><polygon points="1354.04 407.07 1233.78 339.33 1113.53 407.07 1113.53 440.65 1233.78 508.39 1354.04 440.65 1354.04 407.07" style="fill:none;stroke:#484949;stroke-miterlimit:10;stroke-width:0.5px"/><line x1="1233.78" y1="475.12" x2="1354.04" y2="407.38" style="fill:none;stroke:#484949;stroke-miterlimit:10;stroke-width:0.5px"/><line x1="1113.53" y1="407.38" x2="1233.78" y2="475.12" style="fill:none;stroke:#484949;stroke-miterlimit:10;stroke-width:0.5px"/><line x1="1233.78" y1="474.83" x2="1233.78" y2="508.39" style="fill:none;stroke:#484949;stroke-miterlimit:10;stroke-width:0.5px"/><polygon points="632.51 407.07 512.25 339.33 392 407.07 392 440.65 512.25 508.39 632.51 440.65 632.51 407.07" style="fill:none;stroke:#484949;stroke-miterlimit:10;stroke-width:0.5px"/><line x1="512.25" y1="475.12" x2="632.51" y2="407.38" style="fill:none;stroke:#484949;stroke-miterlimit:10;stroke-width:0.5px"/><line x1="392" y1="407.38" x2="512.25" y2="475.12" style="fill:none;stroke:#484949;stroke-miterlimit:10;stroke-width:0.5px"/><line x1="512.25" y1="474.83" x2="512.25" y2="508.39" style="fill:none;stroke:#484949;stroke-miterlimit:10;stroke-width:0.5px"/><polygon points="873.02 238 752.76 170.26 632.51 238 632.51 271.58 752.76 339.33 873.02 271.58 873.02 238" style="fill:none;stroke:#484949;stroke-miterlimit:10;stroke-width:0.5px"/><line x1="752.76" y1="306.05" x2="873.02" y2="238.31" style="fill:none;stroke:#484949;stroke-miterlimit:10;stroke-width:0.5px"/><line x1="632.51" y1="238.31" x2="752.76" y2="306.05" style="fill:none;stroke:#484949;stroke-miterlimit:10;stroke-width:0.5px"/><line x1="752.76" y1="305.76" x2="752.76" y2="339.33" style="fill:none;stroke:#484949;stroke-miterlimit:10;stroke-width:0.5px"/><polygon points="873.02 407.07 752.76 339.33 632.51 407.07 632.51 440.65 752.76 508.39 873.02 440.65 873.02 407.07" style="fill:none;stroke:#484949;stroke-miterlimit:10;stroke-width:0.5px"/><line x1="752.76" y1="475.12" x2="873.02" y2="407.38" style="fill:none;stroke:#484949;stroke-miterlimit:10;stroke-width:0.5px"/><line x1="632.51" y1="407.38" x2="752.76" y2="475.12" style="fill:none;stroke:#484949;stroke-miterlimit:10;stroke-width:0.5px"/><line x1="752.76" y1="474.83" x2="752.76" y2="508.39" style="fill:none;stroke:#484949;stroke-miterlimit:10;stroke-width:0.5px"/><polygon points="1354.04 576.14 1233.78 508.39 1113.53 576.14 1113.53 609.72 1233.78 677.46 1354.04 609.72 1354.04 576.14" style="fill:none;stroke:#484949;stroke-miterlimit:10;stroke-width:0.5px"/><line x1="1233.78" y1="644.19" x2="1354.04" y2="576.44" style="fill:none;stroke:#484949;stroke-miterlimit:10;stroke-width:0.5px"/><line x1="1113.53" y1="576.44" x2="1233.78" y2="644.19" style="fill:none;stroke:#484949;stroke-miterlimit:10;stroke-width:0.5px"/><line x1="1233.78" y1="643.9" x2="1233.78" y2="677.46" style="fill:none;stroke:#484949;stroke-miterlimit:10;stroke-width:0.5px"/><polygon points="873.02 576.14 752.76 508.39 632.51 576.14 632.51 609.72 752.76 677.46 873.02 609.72 873.02 576.14" style="fill:none;stroke:#484949;stroke-miterlimit:10;stroke-width:0.5px"/><line x1="752.76" y1="644.19" x2="873.02" y2="576.44" style="fill:none;stroke:#484949;stroke-miterlimit:10;stroke-width:0.5px"/><line x1="632.51" y1="576.44" x2="752.76" y2="644.19" style="fill:none;stroke:#484949;stroke-miterlimit:10;stroke-width:0.5px"/><line x1="752.76" y1="643.9" x2="752.76" y2="677.46" style="fill:none;stroke:#484949;stroke-miterlimit:10;stroke-width:0.5px"/><polygon points="1113.53 576.14 993.27 508.39 873.02 576.14 873.02 609.72 993.27 677.46 1113.53 609.72 1113.53 576.14" style="fill:none;stroke:#484949;stroke-miterlimit:10;stroke-width:0.5px"/><line x1="993.27" y1="644.19" x2="1113.53" y2="576.44" style="fill:none;stroke:#484949;stroke-miterlimit:10;stroke-width:0.5px"/><line x1="873.02" y1="576.44" x2="993.27" y2="644.19" style="fill:none;stroke:#484949;stroke-miterlimit:10;stroke-width:0.5px"/><line x1="993.27" y1="643.9" x2="993.27" y2="677.46" style="fill:none;stroke:#484949;stroke-miterlimit:10;stroke-width:0.5px"/><path d="M1084.77,351.77h5.72v4.71h.17a6.44,6.44,0,0,1,1.51-2.18,11,11,0,0,1,2.19-1.69,16.37,16.37,0,0,1,2.53-1.17,8.22,8.22,0,0,1,2.86-.34,10.1,10.1,0,0,1,2.52.34l-.34,6.22c-.5-.17-1-.17-1.34-.34a4.41,4.41,0,0,0-1.35-.16c-2.86,0-5,.84-6.39,2.35-1.52,1.52-2.19,4-2.19,7.4v15.15h-5.72V351.77Zm-202.39,4.38-12.79-17.5h-7.4l17.49,22.88v20.53h5.89V361.19l17.16-22.54h-7.4Zm108.85,10.76a16,16,0,1,1-16-16A16,16,0,0,1,991.23,366.91Zm-15.82-10.26a10.27,10.27,0,1,0,10.27,10.26A10.3,10.3,0,0,0,975.41,356.65Zm-65.61-5.72a16,16,0,0,0,0,32,15.74,15.74,0,0,0,11.78-5.22l-5.05-2.86a10.69,10.69,0,0,1-6.73,2.52,10.44,10.44,0,0,1-10.09-8.07h25.74a9.35,9.35,0,0,0,.16-2.19A16,16,0,0,0,909.8,350.93Zm0,5.72a10.46,10.46,0,0,1,9.93,7.74H899.87A10.16,10.16,0,0,1,909.8,356.65Zm225.61,20.53a10.27,10.27,0,0,1,0-20.53,10.73,10.73,0,0,1,6.73,2.52l5-2.86a15.93,15.93,0,1,0-11.78,26.59,15.74,15.74,0,0,0,11.78-5.22l-5-2.86A11.59,11.59,0,0,1,1135.41,377.18ZM993.58,351.77h6.4l6.73,22.71h.17l7.23-22.71h6.06l7.74,22.71h.16l6.4-22.71h6l-9.75,30.29h-5.89l-8.08-22.72h-.17l-7.4,22.72h-6.06Zm113.57,0h5.72v30.29h-5.72Zm0-10.93h5.72v5.72h-5.72Zm-175,41.22h5.72V342l-5.72-3.36Zm15.14,0H953V342l-5.72-3.36Zm115.08-31.13a16,16,0,0,0-10.27,3.7V341.85l-5.72-3.37v43.41h5.72v-3a15.7,15.7,0,0,0,10.27,3.7,15.82,15.82,0,1,0,0-31.63Zm0,26.25a10.27,10.27,0,1,1,10.26-10.27A10.21,10.21,0,0,1,1062.4,377.18ZM1164,365.57l14.14-13.8h-7.91l-13.12,13.12V342l-5.72-3.36v43.41h5.72V366.41l14.13,15.65h8.07L1164,365.57Z" style="fill:#f3f6f6"/><path d="M830.56,325.86h-28.1l-3,5.39,14,24.39h28.09l3.2-5.38Z" style="fill:#fdcf41"/><path d="M830.56,325.86l-3,5.39,14,24.39,3.2-5.38Z" style="fill:#cf8a00"/><path d="M830.56,325.86l-3,5.39h-28.1l3-5.39Z" style="fill:#fff3a2"/><path d="M771,360.35l14,24.4h6.23l14.13-24.4L791.19,336H785Z" style="fill:#fdcf41"/><path d="M771,360.35h6.22l14-24.39H785Z" style="fill:#fff3a2"/><path d="M771,360.35h6.22l14,24.4H785Z" style="fill:#cf8a00"/><path d="M830.56,394.67l14.13-24.22-3.2-5.39H813.4l-14,24.4,3,5.21Z" style="fill:#fdcf41"/><path d="M830.56,394.67l-3-5.21h-28.1l3,5.21Z" style="fill:#cf8a00"/><path d="M830.56,394.67l-3-5.21,14-24.4,3.2,5.39Z" style="fill:#cf8a00"/></svg>