<?xml version="1.0" encoding="utf-8"?>
<!-- Generator: Adobe Illustrator 21.1.0, SVG Export Plug-In . SVG Version: 6.00 Build 0)  -->
<svg version="1.1" id="Layer_1" xmlns="http://www.w3.org/2000/svg" xmlns:xlink="http://www.w3.org/1999/xlink" x="0px" y="0px"
	 viewBox="0 0 1694 406" style="enable-background:new 0 0 1694 406;" xml:space="preserve">
<style type="text/css">
	.st0{fill:#00A0FF;}
</style>
<title>Artboard 2</title>
<path class="st0" d="M678.1,388H457.6c-81,0-114.1-68.5-116.5-114.5c0-0.7-0.1-1.3-0.1-2v-74.9c0-39.9,16.8-64.4,30.9-77.8
	C404.2,88.2,449,88,458.3,88h109.1l73.2,75h-183c-0.7,0-1.3,0.1-2,0.1c-5.2,0-23.1,1.4-32.2,10.3c-1.8,1.8-7.4,7.2-7.4,23.2v73.6
	c1,13.2,7.5,42.8,41.6,42.8H641V0h75v350.5C716,371.2,698.8,388,678.1,388"/>
<path class="st0" d="M1039.3,388h-183c-81,0-113.9-68.5-116.3-114.5c0-0.7,0-1.3,0-2v-74.9c0-39.9,16.7-64.4,30.8-77.8
	C803,88.2,847.7,88,857,88h219.8c20.7,0,37.2,17.2,37.2,37.9V388h-75V163H856.3c-0.7,0-1.3,0.1-2,0.1c-5.2,0-22.9,1.4-32.1,10.3
	c-1.8,1.8-7.2,7.2-7.2,23.2v73.6c1,13.2,7.2,42.8,41.3,42.8h106.8L1039.3,388z"/>
<path class="st0" d="M1594,388h-183c-81,0-113.8-68.5-116.2-114.5c0-0.7,0.2-1.3,0.2-2v-74.9c0-39.9,16.6-64.4,30.6-77.8
	c32.2-30.6,76.7-30.8,86.1-30.8h219.8c20.7,0,37.5,17.2,37.5,37.9V388H1594l0-225h-183c-0.7,0-1.3,0.1-2,0.1
	c-5.3-0.1-23.3,1.4-32.4,10.3c-1.8,1.8-7.6,7.2-7.6,23.2v73.6c1,13.2,7.9,42.8,42,42.8h107.8L1594,388z"/>
<path class="st0" d="M1256,313h-10c-16.9,0-22.3-7.7-24.1-9.5c-7.9-8.1-9.2-25.6-9.1-29.9c0-0.7,0.2-1.4,0.2-2.1V127h53V53h-53V0
	h-75v270.8c0,9.2,0,53.1,29.3,84.1c13.4,14.2,37.9,33.2,78.7,33.2h85L1256,313z"/>
<path class="st0" d="M373.4,388H116.5c-81,0-114-68.5-116.4-114.5c0-0.7-0.1-1.3-0.1-2v-74.9c0-39.9,16.8-64.4,30.9-77.8
	c32.2-30.6,77-30.8,86.3-30.8h254.2l-75.2,75H116.5c-0.7,0-1.3,0.1-2,0.1c-5.2,0-23,1.4-32.2,10.3c-1.8,1.8-7.3,7.2-7.3,23.2v73.6
	c1,13.2,7.4,42.8,41.5,42.8h179.7L373.4,388z"/>
<polygon class="st0" points="221.3,238.2 296,313.1 296,238.2 296,162.8 "/>
</svg>
