<svg id="b0de03fd-4ede-40b7-9dda-29d8d891dd22" data-name="Layer 1" xmlns="http://www.w3.org/2000/svg" viewBox="0 0 750 300">
  <defs>
    <style>
      .ac1867aa-81f2-44c4-828c-d7f21ccfd939, .bd8cf6a1-9bdd-4393-9542-e562a13a93b9 {
        fill: none;
        stroke-miterlimit: 10;
      }

      .ac1867aa-81f2-44c4-828c-d7f21ccfd939 {
        stroke: #e4e8ea;
      }

      .bd8cf6a1-9bdd-4393-9542-e562a13a93b9 {
        stroke: #ffdc32;
      }
    </style>
  </defs>
  <polygon class="ac1867aa-81f2-44c4-828c-d7f21ccfd939" points="466.94 139.35 396.18 99.49 325.42 139.35 325.42 159.11 396.18 198.97 466.94 159.11 466.94 139.35"/>
  <line class="ac1867aa-81f2-44c4-828c-d7f21ccfd939" x1="396.18" y1="179.39" x2="466.94" y2="139.53"/>
  <line class="ac1867aa-81f2-44c4-828c-d7f21ccfd939" x1="325.42" y1="139.53" x2="396.18" y2="179.39"/>
  <line class="ac1867aa-81f2-44c4-828c-d7f21ccfd939" x1="396.18" y1="179.22" x2="396.18" y2="198.97"/>
  <polygon class="bd8cf6a1-9bdd-4393-9542-e562a13a93b9" points="608.47 139.35 537.71 99.49 466.94 139.35 466.94 159.11 537.71 198.97 608.47 159.11 608.47 139.35"/>
  <line class="bd8cf6a1-9bdd-4393-9542-e562a13a93b9" x1="537.71" y1="179.39" x2="608.47" y2="139.53"/>
  <line class="bd8cf6a1-9bdd-4393-9542-e562a13a93b9" x1="466.94" y1="139.53" x2="537.71" y2="179.39"/>
  <line class="bd8cf6a1-9bdd-4393-9542-e562a13a93b9" x1="537.71" y1="179.22" x2="537.71" y2="198.97"/>
  <polygon class="ac1867aa-81f2-44c4-828c-d7f21ccfd939" points="608.47 238.84 537.71 198.97 466.94 238.84 466.94 258.59 537.71 298.46 608.47 258.59 608.47 238.84"/>
  <line class="ac1867aa-81f2-44c4-828c-d7f21ccfd939" x1="537.71" y1="278.88" x2="608.47" y2="239.02"/>
  <line class="ac1867aa-81f2-44c4-828c-d7f21ccfd939" x1="466.94" y1="239.02" x2="537.71" y2="278.88"/>
  <line class="ac1867aa-81f2-44c4-828c-d7f21ccfd939" x1="537.71" y1="278.71" x2="537.71" y2="298.46"/>
  <polygon class="ac1867aa-81f2-44c4-828c-d7f21ccfd939" points="750 39.86 679.24 0 608.47 39.86 608.47 59.62 679.24 99.49 750 59.62 750 39.86"/>
  <line class="ac1867aa-81f2-44c4-828c-d7f21ccfd939" x1="679.24" y1="79.91" x2="750" y2="40.04"/>
  <line class="ac1867aa-81f2-44c4-828c-d7f21ccfd939" x1="608.47" y1="40.04" x2="679.24" y2="79.91"/>
  <line class="ac1867aa-81f2-44c4-828c-d7f21ccfd939" x1="679.24" y1="79.74" x2="679.24" y2="99.49"/>
  <polygon class="ac1867aa-81f2-44c4-828c-d7f21ccfd939" points="750 139.35 679.24 99.49 608.47 139.35 608.47 159.11 679.24 198.97 750 159.11 750 139.35"/>
  <line class="ac1867aa-81f2-44c4-828c-d7f21ccfd939" x1="679.24" y1="179.39" x2="750" y2="139.53"/>
  <line class="ac1867aa-81f2-44c4-828c-d7f21ccfd939" x1="608.47" y1="139.53" x2="679.24" y2="179.39"/>
  <line class="ac1867aa-81f2-44c4-828c-d7f21ccfd939" x1="679.24" y1="179.22" x2="679.24" y2="198.97"/>
  <polygon class="ac1867aa-81f2-44c4-828c-d7f21ccfd939" points="750 238.84 679.24 198.97 608.47 238.84 608.47 258.59 679.24 298.46 750 258.59 750 238.84"/>
  <line class="ac1867aa-81f2-44c4-828c-d7f21ccfd939" x1="679.24" y1="278.88" x2="750" y2="239.02"/>
  <line class="ac1867aa-81f2-44c4-828c-d7f21ccfd939" x1="608.47" y1="239.02" x2="679.24" y2="278.88"/>
  <line class="ac1867aa-81f2-44c4-828c-d7f21ccfd939" x1="679.24" y1="278.71" x2="679.24" y2="298.46"/>
</svg>
