<svg id="a3f2fc14-d09e-4e0b-814f-a7ce934e9a7f" data-name="b6497a88-8454-4342-8a15-3afa67989096" xmlns="http://www.w3.org/2000/svg" viewBox="0 0 342.66 241.21"><polygon points="171.33 24.63 128.63 0.57 85.92 24.63 85.92 36.55 128.63 60.61 171.33 36.55 171.33 24.63" style="fill:none;stroke:#ffdc32;stroke-miterlimit:10"/><line x1="128.63" y1="48.8" x2="171.33" y2="24.74" style="fill:none;stroke:#ffdc32;stroke-miterlimit:10"/><line x1="85.92" y1="24.74" x2="128.63" y2="48.8" style="fill:none;stroke:#ffdc32;stroke-miterlimit:10"/><line x1="128.63" y1="48.69" x2="128.63" y2="60.61" style="fill:none;stroke:#ffdc32;stroke-miterlimit:10"/><polygon points="171.33 84.67 128.63 60.61 85.92 84.67 85.92 96.59 128.63 120.65 171.33 96.59 171.33 84.67" style="fill:none;stroke:#e4e8ea;stroke-miterlimit:10"/><line x1="128.63" y1="108.84" x2="171.33" y2="84.78" style="fill:none;stroke:#e4e8ea;stroke-miterlimit:10"/><line x1="85.92" y1="84.78" x2="128.63" y2="108.84" style="fill:none;stroke:#e4e8ea;stroke-miterlimit:10"/><line x1="128.63" y1="108.73" x2="128.63" y2="120.65" style="fill:none;stroke:#e4e8ea;stroke-miterlimit:10"/><polygon points="171.33 144.71 128.63 120.65 85.92 144.71 85.92 156.63 128.63 180.69 171.33 156.63 171.33 144.71" style="fill:none;stroke:#e4e8ea;stroke-miterlimit:10"/><line x1="128.63" y1="168.88" x2="171.33" y2="144.82" style="fill:none;stroke:#e4e8ea;stroke-miterlimit:10"/><line x1="85.92" y1="144.82" x2="128.63" y2="168.88" style="fill:none;stroke:#e4e8ea;stroke-miterlimit:10"/><line x1="128.63" y1="168.77" x2="128.63" y2="180.69" style="fill:none;stroke:#e4e8ea;stroke-miterlimit:10"/><polygon points="256.74 84.67 214.04 60.61 171.33 84.67 171.33 96.59 214.04 120.65 256.74 96.59 256.74 84.67" style="fill:none;stroke:#ffdc32;stroke-miterlimit:10"/><line x1="214.04" y1="108.84" x2="256.74" y2="84.78" style="fill:none;stroke:#ffdc32;stroke-miterlimit:10"/><line x1="171.33" y1="84.78" x2="214.04" y2="108.84" style="fill:none;stroke:#ffdc32;stroke-miterlimit:10"/><line x1="214.04" y1="108.73" x2="214.04" y2="120.65" style="fill:none;stroke:#ffdc32;stroke-miterlimit:10"/><polygon points="256.74 144.71 214.04 120.65 171.33 144.71 171.33 156.63 214.04 180.69 256.74 156.63 256.74 144.71" style="fill:none;stroke:#e4e8ea;stroke-miterlimit:10"/><line x1="214.04" y1="168.88" x2="256.74" y2="144.82" style="fill:none;stroke:#e4e8ea;stroke-miterlimit:10"/><line x1="171.33" y1="144.82" x2="214.04" y2="168.88" style="fill:none;stroke:#e4e8ea;stroke-miterlimit:10"/><line x1="214.04" y1="168.77" x2="214.04" y2="180.69" style="fill:none;stroke:#e4e8ea;stroke-miterlimit:10"/><polygon points="85.92 84.67 43.21 60.61 0.5 84.67 0.5 96.59 43.21 120.65 85.92 96.59 85.92 84.67" style="fill:none;stroke:#e4e8ea;stroke-miterlimit:10"/><line x1="43.21" y1="108.84" x2="85.92" y2="84.78" style="fill:none;stroke:#e4e8ea;stroke-miterlimit:10"/><line x1="0.5" y1="84.78" x2="43.21" y2="108.84" style="fill:none;stroke:#e4e8ea;stroke-miterlimit:10"/><line x1="43.21" y1="108.73" x2="43.21" y2="120.65" style="fill:none;stroke:#e4e8ea;stroke-miterlimit:10"/><polygon points="342.16 24.63 299.46 0.57 256.75 24.63 256.75 36.55 299.46 60.61 342.16 36.55 342.16 24.63" style="fill:none;stroke:#e4e8ea;stroke-miterlimit:10"/><line x1="299.46" y1="48.8" x2="342.16" y2="24.74" style="fill:none;stroke:#e4e8ea;stroke-miterlimit:10"/><line x1="256.75" y1="24.74" x2="299.46" y2="48.8" style="fill:none;stroke:#e4e8ea;stroke-miterlimit:10"/><line x1="299.46" y1="48.69" x2="299.46" y2="60.61" style="fill:none;stroke:#e4e8ea;stroke-miterlimit:10"/><polygon points="342.16 84.67 299.46 60.61 256.75 84.67 256.75 96.59 299.46 120.65 342.16 96.59 342.16 84.67" style="fill:none;stroke:#e4e8ea;stroke-miterlimit:10"/><line x1="299.46" y1="108.84" x2="342.16" y2="84.78" style="fill:none;stroke:#e4e8ea;stroke-miterlimit:10"/><line x1="256.75" y1="84.78" x2="299.46" y2="108.84" style="fill:none;stroke:#e4e8ea;stroke-miterlimit:10"/><line x1="299.46" y1="108.73" x2="299.46" y2="120.65" style="fill:none;stroke:#e4e8ea;stroke-miterlimit:10"/><polygon points="256.74 204.65 214.04 180.59 171.33 204.65 171.33 216.57 214.04 240.63 256.74 216.57 256.74 204.65" style="fill:none;stroke:#e4e8ea;stroke-miterlimit:10"/><line x1="214.04" y1="228.82" x2="256.74" y2="204.76" style="fill:none;stroke:#e4e8ea;stroke-miterlimit:10"/><line x1="171.33" y1="204.76" x2="214.04" y2="228.82" style="fill:none;stroke:#e4e8ea;stroke-miterlimit:10"/><line x1="214.04" y1="228.71" x2="214.04" y2="240.63" style="fill:none;stroke:#e4e8ea;stroke-miterlimit:10"/><polygon points="342.16 204.65 299.45 180.59 256.75 204.65 256.75 216.57 299.45 240.63 342.16 216.57 342.16 204.65" style="fill:none;stroke:#e4e8ea;stroke-miterlimit:10"/><line x1="299.45" y1="228.82" x2="342.16" y2="204.76" style="fill:none;stroke:#e4e8ea;stroke-miterlimit:10"/><line x1="256.75" y1="204.76" x2="299.45" y2="228.82" style="fill:none;stroke:#e4e8ea;stroke-miterlimit:10"/><line x1="299.45" y1="228.71" x2="299.45" y2="240.63" style="fill:none;stroke:#e4e8ea;stroke-miterlimit:10"/></svg>