<svg id="ee5aa2c4-54d7-487a-bc01-e9cb9ab61e51" data-name="Layer 1" xmlns="http://www.w3.org/2000/svg" viewBox="0 0 2500 1000">
  <defs>
    <style>
      .e815d776-e6b4-4ed3-983a-ec235aa5a857 {
        fill: #0d171c;
      }

      .b31c767e-db69-43db-b88b-f1aa8c28f686, .ede6e1e9-28e7-41cb-8377-9c650f907f76, .f5f39cf6-24c0-491a-ab88-52a3a40ea348 {
        fill: none;
        stroke-miterlimit: 10;
      }

      .f5f39cf6-24c0-491a-ab88-52a3a40ea348 {
        stroke: #ffdc32;
      }

      .b31c767e-db69-43db-b88b-f1aa8c28f686 {
        stroke: #424649;
      }

      .ede6e1e9-28e7-41cb-8377-9c650f907f76 {
        stroke: #acb3b7;
      }
    </style>
  </defs>
  <rect class="e815d776-e6b4-4ed3-983a-ec235aa5a857" width="2500" height="1000"/>
  <polygon class="f5f39cf6-24c0-491a-ab88-52a3a40ea348" points="1931.44 80.14 1789.19 0 1646.93 80.14 1646.93 119.86 1789.19 200 1931.44 119.86 1931.44 80.14"/>
  <line class="f5f39cf6-24c0-491a-ab88-52a3a40ea348" x1="1789.19" y1="160.64" x2="1931.44" y2="80.5"/>
  <line class="f5f39cf6-24c0-491a-ab88-52a3a40ea348" x1="1646.93" y1="80.5" x2="1789.19" y2="160.64"/>
  <line class="f5f39cf6-24c0-491a-ab88-52a3a40ea348" x1="1789.19" y1="160.3" x2="1789.19" y2="200"/>
  <polygon class="b31c767e-db69-43db-b88b-f1aa8c28f686" points="1931.44 280.14 1789.19 200 1646.93 280.14 1646.93 319.86 1789.19 400 1931.44 319.86 1931.44 280.14"/>
  <line class="b31c767e-db69-43db-b88b-f1aa8c28f686" x1="1789.19" y1="360.64" x2="1931.44" y2="280.5"/>
  <line class="b31c767e-db69-43db-b88b-f1aa8c28f686" x1="1646.93" y1="280.5" x2="1789.19" y2="360.64"/>
  <line class="b31c767e-db69-43db-b88b-f1aa8c28f686" x1="1789.19" y1="360.3" x2="1789.19" y2="400"/>
  <polygon class="ede6e1e9-28e7-41cb-8377-9c650f907f76" points="1931.44 480.14 1789.19 400 1646.93 480.14 1646.93 519.86 1789.19 600 1931.44 519.86 1931.44 480.14"/>
  <line class="ede6e1e9-28e7-41cb-8377-9c650f907f76" x1="1789.19" y1="560.64" x2="1931.44" y2="480.5"/>
  <line class="ede6e1e9-28e7-41cb-8377-9c650f907f76" x1="1646.93" y1="480.5" x2="1789.19" y2="560.64"/>
  <line class="ede6e1e9-28e7-41cb-8377-9c650f907f76" x1="1789.19" y1="560.3" x2="1789.19" y2="600"/>
  <polygon class="f5f39cf6-24c0-491a-ab88-52a3a40ea348" points="2215.96 280.14 2073.71 200 1931.44 280.14 1931.44 319.86 2073.71 400 2215.96 319.86 2215.96 280.14"/>
  <line class="f5f39cf6-24c0-491a-ab88-52a3a40ea348" x1="2073.71" y1="360.64" x2="2215.96" y2="280.5"/>
  <line class="f5f39cf6-24c0-491a-ab88-52a3a40ea348" x1="1931.44" y1="280.5" x2="2073.71" y2="360.64"/>
  <line class="f5f39cf6-24c0-491a-ab88-52a3a40ea348" x1="2073.71" y1="360.3" x2="2073.71" y2="400"/>
  <polygon class="f5f39cf6-24c0-491a-ab88-52a3a40ea348" points="2215.96 880.14 2073.71 800 1931.44 880.14 1931.44 919.86 2073.71 1000 2215.96 919.86 2215.96 880.14"/>
  <line class="f5f39cf6-24c0-491a-ab88-52a3a40ea348" x1="2073.71" y1="960.64" x2="2215.96" y2="880.5"/>
  <line class="f5f39cf6-24c0-491a-ab88-52a3a40ea348" x1="1931.44" y1="880.5" x2="2073.71" y2="960.64"/>
  <line class="f5f39cf6-24c0-491a-ab88-52a3a40ea348" x1="2073.71" y1="960.3" x2="2073.71" y2="1000"/>
  <polygon class="b31c767e-db69-43db-b88b-f1aa8c28f686" points="2215.96 480.14 2073.71 400 1931.44 480.14 1931.44 519.86 2073.71 600 2215.96 519.86 2215.96 480.14"/>
  <line class="b31c767e-db69-43db-b88b-f1aa8c28f686" x1="2073.71" y1="560.64" x2="2215.96" y2="480.5"/>
  <line class="b31c767e-db69-43db-b88b-f1aa8c28f686" x1="1931.44" y1="480.5" x2="2073.71" y2="560.64"/>
  <line class="b31c767e-db69-43db-b88b-f1aa8c28f686" x1="2073.71" y1="560.3" x2="2073.71" y2="600"/>
  <polygon class="b31c767e-db69-43db-b88b-f1aa8c28f686" points="1362.41 480.14 1220.16 400 1077.9 480.14 1077.9 519.86 1220.16 600 1362.41 519.86 1362.41 480.14"/>
  <line class="b31c767e-db69-43db-b88b-f1aa8c28f686" x1="1220.16" y1="560.64" x2="1362.41" y2="480.5"/>
  <line class="b31c767e-db69-43db-b88b-f1aa8c28f686" x1="1077.9" y1="480.5" x2="1220.16" y2="560.64"/>
  <line class="b31c767e-db69-43db-b88b-f1aa8c28f686" x1="1220.16" y1="560.3" x2="1220.16" y2="600"/>
  <polygon class="ede6e1e9-28e7-41cb-8377-9c650f907f76" points="1646.93 280.14 1504.68 200 1362.41 280.14 1362.41 319.86 1504.68 400 1646.93 319.86 1646.93 280.14"/>
  <line class="ede6e1e9-28e7-41cb-8377-9c650f907f76" x1="1504.68" y1="360.64" x2="1646.93" y2="280.5"/>
  <line class="ede6e1e9-28e7-41cb-8377-9c650f907f76" x1="1362.41" y1="280.5" x2="1504.68" y2="360.64"/>
  <line class="ede6e1e9-28e7-41cb-8377-9c650f907f76" x1="1504.68" y1="360.3" x2="1504.68" y2="400"/>
  <polygon class="b31c767e-db69-43db-b88b-f1aa8c28f686" points="1646.93 480.14 1504.68 400 1362.41 480.14 1362.41 519.86 1504.68 600 1646.93 519.86 1646.93 480.14"/>
  <line class="b31c767e-db69-43db-b88b-f1aa8c28f686" x1="1504.68" y1="560.64" x2="1646.93" y2="480.5"/>
  <line class="b31c767e-db69-43db-b88b-f1aa8c28f686" x1="1362.41" y1="480.5" x2="1504.68" y2="560.64"/>
  <line class="b31c767e-db69-43db-b88b-f1aa8c28f686" x1="1504.68" y1="560.3" x2="1504.68" y2="600"/>
  <polygon class="b31c767e-db69-43db-b88b-f1aa8c28f686" points="2215.96 680.14 2073.71 600 1931.44 680.14 1931.44 719.86 2073.71 800 2215.96 719.86 2215.96 680.14"/>
  <line class="b31c767e-db69-43db-b88b-f1aa8c28f686" x1="2073.71" y1="760.64" x2="2215.96" y2="680.5"/>
  <line class="b31c767e-db69-43db-b88b-f1aa8c28f686" x1="1931.44" y1="680.5" x2="2073.71" y2="760.64"/>
  <line class="b31c767e-db69-43db-b88b-f1aa8c28f686" x1="2073.71" y1="760.3" x2="2073.71" y2="800"/>
  <polygon class="b31c767e-db69-43db-b88b-f1aa8c28f686" points="2500.48 80.14 2358.23 0 2215.97 80.14 2215.97 119.86 2358.23 200 2500.48 119.86 2500.48 80.14"/>
  <line class="b31c767e-db69-43db-b88b-f1aa8c28f686" x1="2358.23" y1="160.64" x2="2500.48" y2="80.5"/>
  <line class="b31c767e-db69-43db-b88b-f1aa8c28f686" x1="2215.97" y1="80.5" x2="2358.23" y2="160.64"/>
  <line class="b31c767e-db69-43db-b88b-f1aa8c28f686" x1="2358.23" y1="160.3" x2="2358.23" y2="200"/>
  <polygon class="b31c767e-db69-43db-b88b-f1aa8c28f686" points="2500.48 280.14 2358.23 200 2215.97 280.14 2215.97 319.86 2358.23 400 2500.48 319.86 2500.48 280.14"/>
  <line class="b31c767e-db69-43db-b88b-f1aa8c28f686" x1="2358.23" y1="360.64" x2="2500.48" y2="280.5"/>
  <line class="b31c767e-db69-43db-b88b-f1aa8c28f686" x1="2215.97" y1="280.5" x2="2358.23" y2="360.64"/>
  <line class="b31c767e-db69-43db-b88b-f1aa8c28f686" x1="2358.23" y1="360.3" x2="2358.23" y2="400"/>
  <polygon class="f5f39cf6-24c0-491a-ab88-52a3a40ea348" points="1646.93 680.14 1504.68 600 1362.41 680.14 1362.41 719.86 1504.68 800 1646.93 719.86 1646.93 680.14"/>
  <line class="f5f39cf6-24c0-491a-ab88-52a3a40ea348" x1="1504.68" y1="760.64" x2="1646.93" y2="680.5"/>
  <line class="f5f39cf6-24c0-491a-ab88-52a3a40ea348" x1="1362.41" y1="680.5" x2="1504.68" y2="760.64"/>
  <line class="f5f39cf6-24c0-491a-ab88-52a3a40ea348" x1="1504.68" y1="760.3" x2="1504.68" y2="800"/>
  <polygon class="b31c767e-db69-43db-b88b-f1aa8c28f686" points="1931.44 680.14 1789.19 600 1646.93 680.14 1646.93 719.86 1789.19 800 1931.44 719.86 1931.44 680.14"/>
  <line class="b31c767e-db69-43db-b88b-f1aa8c28f686" x1="1789.19" y1="760.64" x2="1931.44" y2="680.5"/>
  <line class="b31c767e-db69-43db-b88b-f1aa8c28f686" x1="1646.93" y1="680.5" x2="1789.19" y2="760.64"/>
  <line class="b31c767e-db69-43db-b88b-f1aa8c28f686" x1="1789.19" y1="760.3" x2="1789.19" y2="800"/>
  <polygon class="b31c767e-db69-43db-b88b-f1aa8c28f686" points="2500.47 480.14 2358.22 400 2215.96 480.14 2215.96 519.86 2358.22 600 2500.47 519.86 2500.47 480.14"/>
  <line class="b31c767e-db69-43db-b88b-f1aa8c28f686" x1="2358.22" y1="560.64" x2="2500.47" y2="480.5"/>
  <line class="b31c767e-db69-43db-b88b-f1aa8c28f686" x1="2215.96" y1="480.5" x2="2358.22" y2="560.64"/>
  <line class="b31c767e-db69-43db-b88b-f1aa8c28f686" x1="2358.22" y1="560.3" x2="2358.22" y2="600"/>
  <polygon class="b31c767e-db69-43db-b88b-f1aa8c28f686" points="1931.44 880.14 1789.19 800 1646.93 880.14 1646.93 919.86 1789.19 1000 1931.44 919.86 1931.44 880.14"/>
  <line class="b31c767e-db69-43db-b88b-f1aa8c28f686" x1="1789.19" y1="960.64" x2="1931.44" y2="880.5"/>
  <line class="b31c767e-db69-43db-b88b-f1aa8c28f686" x1="1646.93" y1="880.5" x2="1789.19" y2="960.64"/>
  <line class="b31c767e-db69-43db-b88b-f1aa8c28f686" x1="1789.19" y1="960.3" x2="1789.19" y2="1000"/>
  <polygon class="ede6e1e9-28e7-41cb-8377-9c650f907f76" points="1646.93 880.14 1504.68 800 1362.42 880.14 1362.42 919.86 1504.68 1000 1646.93 919.86 1646.93 880.14"/>
  <line class="ede6e1e9-28e7-41cb-8377-9c650f907f76" x1="1504.69" y1="960.64" x2="1646.94" y2="880.5"/>
  <line class="ede6e1e9-28e7-41cb-8377-9c650f907f76" x1="1362.42" y1="880.5" x2="1504.69" y2="960.64"/>
  <line class="ede6e1e9-28e7-41cb-8377-9c650f907f76" x1="1504.69" y1="960.3" x2="1504.69" y2="1000"/>
  <polygon class="ede6e1e9-28e7-41cb-8377-9c650f907f76" points="2500.47 680.14 2358.22 600 2215.96 680.14 2215.96 719.86 2358.22 800 2500.47 719.86 2500.47 680.14"/>
  <line class="ede6e1e9-28e7-41cb-8377-9c650f907f76" x1="2358.22" y1="760.64" x2="2500.47" y2="680.5"/>
  <line class="ede6e1e9-28e7-41cb-8377-9c650f907f76" x1="2215.96" y1="680.5" x2="2358.22" y2="760.64"/>
  <line class="ede6e1e9-28e7-41cb-8377-9c650f907f76" x1="2358.22" y1="760.3" x2="2358.22" y2="800"/>
  <polygon class="b31c767e-db69-43db-b88b-f1aa8c28f686" points="2500.47 880.14 2358.22 800 2215.96 880.14 2215.96 919.86 2358.22 1000 2500.47 919.86 2500.47 880.14"/>
  <line class="b31c767e-db69-43db-b88b-f1aa8c28f686" x1="2358.22" y1="960.64" x2="2500.47" y2="880.5"/>
  <line class="b31c767e-db69-43db-b88b-f1aa8c28f686" x1="2215.96" y1="880.5" x2="2358.22" y2="960.64"/>
  <line class="b31c767e-db69-43db-b88b-f1aa8c28f686" x1="2358.22" y1="960.3" x2="2358.22" y2="1000"/>
</svg>
