<svg id="a7a262ff-674c-4c11-9ee2-1ab4747fe411" data-name="Layer 1" xmlns="http://www.w3.org/2000/svg" viewBox="0 0 544.6 38.3"><path d="M0,0V37.4H37.4V0ZM27.8,20.2H20.2v7.6H17.8V20.2H10.2V17.8h7.6V10.2h2.4v7.6h7.6Z" style="fill:#fdcd06"/><path d="M52.1,10.2H54V22.3H76.9V10.2h1.9V37.4H76.9V23.9H54V37.4H52.1Zm32.8,0h23.6v1.5H86.9V22.5h20.8V24H86.9V35.8h21.9v1.5H84.9Zm28.2,0H115V35.9h19.6v1.5H113.1Zm25.1,0h15.6c4.2,0,9.1,1.3,9.1,7.5,0,4.6-2.8,7.7-9.4,7.7H140.1v12h-1.9V10.2Zm1.9,13.7h13.3c3.7,0,7.5-1.3,7.5-6.1,0-6.1-5.4-6.1-8-6.1H140V23.9Zm27.6-13.7h7.2l17.8,20.4h.1V10.2h6V37.4h-7.1L173.8,17h-.1V37.4h-6Zm38.3,0h26v4.3H212.3v6.9h18.9v4.3H212.3v7.5h20v4.3H206Zm40.2,4.3H235V10.2h28.7v4.3H252.5V37.4h-6.3V14.5Zm42.2,3.7c-.3-1.9-1.9-3.2-6.5-3.2-3.3,0-5.2.9-5.2,2.7,0,.9.8,1.4,2.2,1.7,2.5.4,10.2,1.4,13.1,1.9,5.6.9,8.9,3,8.9,7.7,0,9.2-13.1,9.3-17.2,9.3-10.1,0-17.5-1.6-18-9.2h11.8c.2,2.1,1.5,3.3,6.7,3.3,2.5,0,5.2-.5,5.2-2.9,0-1.4-1.3-1.9-4.7-2.4l-10-1.4c-6.2-.8-8.5-3.6-8.5-7.7,0-3.5,2.4-8.6,15.5-8.6,10.9,0,17.3,2.4,18,8.8Zm17.6-8h30v5.9H316V21h18.7v5.6H316v4.9h20v5.9H306ZM377.4,27c-1.2,5.9-4.7,11.3-18.9,11.3-12.7,0-18.8-5-18.8-14.4,0-9.1,5.8-14.4,18.8-14.4,9.2,0,16.6,1.9,18.8,11.3H366.2c-.6-2-2.1-5.2-7.7-5.2-6.2,0-8.3,3.8-8.3,8.3s1.8,8.3,8.3,8.3c4.5,0,7.2-2,7.8-5.2Zm4.8-16.8h10V26.3c0,4.4,2.3,5.8,6.8,5.8s6.8-1.4,6.8-5.8V10.2h10V27.8c0,7.5-6.2,10.4-16.8,10.4s-16.8-2.9-16.8-10.4Zm40.2,0h24c7.4,0,10,3,10,7.6,0,3.7-2.1,5.6-4.8,6.2v.1c1.9.6,3.3,1.9,3.6,4.9.5,5.3.6,7.1,1.9,8.4H446.2a11.12,11.12,0,0,1-.6-4c0-4.3-1.6-5-4.1-5h-9.1v9.1h-10Zm10,12.1H442c2.5,0,3.7-1.1,3.7-3s-1.3-2.9-3.7-2.9h-9.6Zm29.9-12.1h10V37.4h-10Zm14.1,0h31.9v6.1h-11V37.4h-10V16.3h-11V10.2Z"/><path d="M521.4,28.9,508.1,10.3h11.6l6.7,11.5,6.7-11.5h11.6L531.4,28.9v8.6h-10Z"/></svg>