<?xml version="1.0" encoding="utf-8"?>
<!-- Generator: Adobe Illustrator 15.1.0, SVG Export Plug-In . SVG Version: 6.00 Build 0)  -->
<!DOCTYPE svg PUBLIC "-//W3C//DTD SVG 1.1//EN" "http://www.w3.org/Graphics/SVG/1.1/DTD/svg11.dtd">
<svg version="1.1" id="Layer_1" xmlns="http://www.w3.org/2000/svg" xmlns:xlink="http://www.w3.org/1999/xlink" x="0px" y="0px"
	 width="398.238px" height="104.064px" viewBox="0 0 398.238 104.064" enable-background="new 0 0 398.238 104.064"
	 xml:space="preserve">
<g>
	<g>
		<path d="M0.739,91.795H16.21v0.963H9.478v10.99H7.47v-10.99H0.739V91.795z"/>
		<path d="M21.052,98.32v5.428h-2.007V91.795h8.326c4.665,0,7.234,0.93,7.234,3.139c0,1.51-1.004,2.307-3.455,2.922
			c2.51,0.48,2.657,1.975,2.716,3.236c0.088,1.811,0.354,2.309,0.886,2.541v0.115h-2.214c-0.827-0.812-0.62-3.055-0.945-3.967
			c-0.473-1.295-2.214-1.461-4.222-1.461H21.052z M27.312,97.357c2.982,0,5.285-0.697,5.285-2.375c0-1.793-2.48-2.225-5.167-2.225
			h-6.378v4.6H27.312z"/>
		<path d="M38.767,103.748V91.795H52.91v0.963H40.774v4.316h10.954v0.963H40.774v4.748h12.43v0.963H38.767z"/>
		<path d="M58.814,93.322h-0.059v10.426h-2.008V91.795h2.273l12.283,10.443h0.059V91.795h2.008v11.953h-2.333L58.814,93.322z"/>
		<path d="M78.123,103.748V91.795h7.263c2.362,0,4.577,0.084,6.555,0.896c2.805,1.146,3.543,3.471,3.543,5.064
			c0,1.576-0.62,3.336-2.569,4.531c-1.949,1.229-4.724,1.461-7.529,1.461H78.123z M80.131,102.785h4.812
			c1.801,0,3.366-0.066,4.99-0.547c2.834-0.814,3.543-2.855,3.543-4.482c0-1.744-0.679-3.652-3.661-4.549
			c-1.27-0.383-3.101-0.449-4.872-0.449h-4.812V102.785z"/>
		<path d="M100.266,100.18c0.325,2.141,2.864,2.922,6.112,2.922c3.809,0,5.403-1.162,5.403-2.475c0-3.701-12.962-1.244-12.962-5.943
			c0-1.66,2.451-3.203,7.205-3.203c4.783,0,7.174,1.627,7.145,3.568h-1.919c0-1.826-2.509-2.605-5.226-2.605
			c-4.075,0-5.551,1.41-5.197,2.639c0.916,3.088,12.962,0.863,12.962,5.496c0,2.191-2.864,3.486-7.765,3.486
			c-4.429,0-7.707-1.295-7.707-3.885H100.266z"/>
		<path d="M123.738,103.748l8.355-11.953h2.273l8.149,11.953h-2.067l-2.45-3.752h-9.685l-2.509,3.752H123.738z M128.994,99.033
			h8.326l-4.163-6.275L128.994,99.033z"/>
		<path d="M147.388,93.322h-0.06v10.426h-2.008V91.795h2.273l12.283,10.443h0.059V91.795h2.008v11.953h-2.332L147.388,93.322z"/>
		<path d="M166.697,103.748V91.795h7.264c2.361,0,4.576,0.084,6.555,0.896c2.805,1.146,3.543,3.471,3.543,5.064
			c0,1.576-0.621,3.336-2.57,4.531c-1.947,1.229-4.723,1.461-7.527,1.461H166.697z M168.705,102.785h4.812
			c1.801,0,3.365-0.066,4.99-0.547c2.834-0.814,3.543-2.855,3.543-4.482c0-1.744-0.68-3.652-3.662-4.549
			c-1.27-0.383-3.1-0.449-4.871-0.449h-4.812V102.785z"/>
		<path d="M194.273,103.748l8.355-11.953h2.273l8.148,11.953h-2.066l-2.451-3.752h-9.684l-2.51,3.752H194.273z M199.527,99.033
			h8.326l-4.162-6.275L199.527,99.033z"/>
		<path d="M215.826,103.748V91.795h7.766c5.521,0,6.938,1.545,6.938,3.338c0,2.672-4.223,3.336-8.148,3.336h-4.547v5.279H215.826z
			 M222.439,97.506c3.75,0,6.082-0.432,6.082-2.457c0-1.494-1.713-2.291-5.492-2.291h-5.195v4.748H222.439z"/>
		<path d="M233.865,103.748V91.795h7.766c5.521,0,6.938,1.545,6.938,3.338c0,2.672-4.223,3.336-8.148,3.336h-4.547v5.279H233.865z
			 M240.479,97.506c3.75,0,6.082-0.432,6.082-2.457c0-1.494-1.713-2.291-5.492-2.291h-5.195v4.748H240.479z"/>
		<path d="M251.994,103.748V91.795h2.008v10.99h11.396v0.963H251.994z"/>
		<path d="M269.119,103.748V91.795h2.008v11.953H269.119z"/>
		<path d="M291.705,95.266c-0.826-2.043-3.07-2.822-6.701-2.822c-5.139,0-7.354,2.473-7.354,5.295c0,2.674,1.742,5.363,7.529,5.363
			c3.662,0,5.936-1.395,6.732-3.287h2.096c-0.943,2.307-3.514,4.25-9.211,4.25c-6.555,0-9.154-2.906-9.154-6.293
			c0-4.564,4.252-6.291,9.893-6.291c4.369,0,7.559,1.311,8.236,3.785H291.705z"/>
		<path d="M295.986,103.748l8.355-11.953h2.273l8.148,11.953h-2.066l-2.451-3.752h-9.684l-2.51,3.752H295.986z M301.24,99.033h8.326
			l-4.162-6.275L301.24,99.033z"/>
		<path d="M312.998,91.795h15.471v0.963h-6.732v10.99h-2.008v-10.99h-6.73V91.795z"/>
		<path d="M332.041,103.748V91.795h2.008v11.953H332.041z"/>
		<path d="M348.516,91.48c6.645,0,10.01,2.805,10.01,6.309c0,3.436-3.365,6.275-9.92,6.275s-9.893-2.84-9.893-6.275
			C338.684,94.303,342.168,91.48,348.516,91.48z M356.518,97.789c0-3.32-3.041-5.346-7.941-5.346c-5.463,0-7.855,2.572-7.855,5.346
			c0,2.822,2.363,5.312,7.914,5.312C354.156,103.102,356.518,100.578,356.518,97.789z"/>
		<path d="M364.52,93.322h-0.061v10.426h-2.006V91.795h2.273l12.281,10.443h0.061V91.795h2.006v11.953h-2.332L364.52,93.322z"/>
		<path d="M384.654,100.18c0.324,2.141,2.863,2.922,6.111,2.922c3.809,0,5.404-1.162,5.404-2.475c0-3.701-12.963-1.244-12.963-5.943
			c0-1.66,2.451-3.203,7.205-3.203c4.783,0,7.174,1.627,7.145,3.568h-1.918c0-1.826-2.51-2.605-5.227-2.605
			c-4.074,0-5.551,1.41-5.197,2.639c0.916,3.088,12.963,0.863,12.963,5.496c0,2.191-2.865,3.486-7.766,3.486
			c-4.43,0-7.707-1.295-7.707-3.885H384.654z"/>
	</g>
	<path fill="none" d="M220.312,68.633c3.325,0,4.551-2.414,5.005-5.176h-9.688C216.32,66.423,217.72,68.699,220.312,68.633z"/>
	<path fill="none" d="M381.134,36.145c0-2.15-1.398-6.131-5.809-6.131c-4.842,0-6.024,3.873-6.024,8.068v3.98h11.833V36.145z"/>
	<path fill="none" d="M225.583,58.197V42.6c0-3.551,0-9.789-4.949-9.789c-4.625,0-5.594,4.732-5.594,10.543v14.197
		c0,0.627,0.017,1.266,0.052,1.905h10.49C225.584,59.017,225.583,58.591,225.583,58.197z"/>
	<path fill="none" d="M75.517,70.031c3.992,0,5.498-3.285,6.01-6.574H69.177c0,0.042-0.007,0.077-0.007,0.119
		C69.17,67.342,71.429,70.031,75.517,70.031z"/>
	<path fill="none" d="M272.7,70.031c3.991,0,5.498-3.285,6.01-6.574h-12.35c0,0.042-0.007,0.077-0.007,0.119
		C266.354,67.342,268.612,70.031,272.7,70.031z"/>
	<path fill="none" d="M165.126,70.031c3.991,0,5.497-3.285,6.01-6.574h-12.35c-0.001,0.042-0.007,0.077-0.007,0.119
		C158.779,67.342,161.038,70.031,165.126,70.031z"/>
	<path fill="none" d="M162.76,55.83c-1.271,0.89-2.42,2.019-3.154,3.626h11.76V51.42C167.923,53.248,164.911,54.217,162.76,55.83z"
		/>
	<path fill="none" d="M270.334,55.83c-1.271,0.89-2.42,2.019-3.154,3.626h11.76V51.42C275.497,53.248,272.485,54.217,270.334,55.83z
		"/>
	<path fill="none" d="M27.324,43.998c0-5.164-0.753-11.402-4.948-11.295c-5.486,0-5.271,6.777-5.271,10.65v15.596
		c0,3.551,0,9.684,4.948,9.684c3.091,0,4.4-2.072,4.932-5.176H22.48v-4.001h4.83c0.008-0.413,0.013-0.831,0.013-1.259V43.998z"/>
	<path fill="none" d="M374.571,70.246c4.829,0.245,5.609-2.998,5.849-6.789h-11.119v0.441
		C369.301,67.232,370.807,70.031,374.571,70.246z"/>
	<path fill="none" d="M324.014,71.32c3.658,0,6.132-1.828,6.132-5.701c0-0.753-0.152-1.483-0.422-2.162h-11.858
		C317.924,67.331,319.326,71.32,324.014,71.32z"/>
	<path fill="none" d="M73.15,55.83c-1.271,0.89-2.419,2.019-3.154,3.626h11.76V51.42C78.314,53.248,75.302,54.217,73.15,55.83z"/>
	<path d="M22.053,68.633c-4.948,0-4.948-6.133-4.948-9.684V43.354c0-3.873-0.215-10.65,5.271-10.65
		c4.195-0.107,4.948,6.131,4.948,11.295v14.199c0,0.428-0.005,0.846-0.013,1.259h17.118V0H27.324v25.926h-0.215
		c-3.55-5.271-7.961-7.207-12.479-7.207C3.335,18.719,0,29.906,0,39.373V60.24c0,10.221,2.474,21.945,14.953,22.377
		c5.056,0,10.22-3.121,13.339-8.93h0.215v6.992h15.921V63.457H26.984C26.453,66.561,25.144,68.633,22.053,68.633z"/>
	<path fill="#ED1C24" d="M75.517,70.031c-4.088,0-6.347-2.689-6.347-6.455c0-0.042,0.006-0.077,0.007-0.119h-17.07
		c-0.088,0.959-0.148,1.953-0.148,3.023c0,9.574,6.024,16.137,15.706,16.137c6.777,0,10.435-2.582,14.738-7.316l1.183,5.379h16.674
		c-0.753-2.15-1.398-4.41-1.398-6.67V63.457H81.527C81.015,66.746,79.509,70.031,75.517,70.031z"/>
	<path d="M73.15,55.83c2.151-1.613,5.164-2.582,8.606-4.41v8.036h17.104V37.113c0-13.232-6.132-18.395-23.021-18.395
		c-13.77,0-23.882,5.701-23.128,20.762h17.104c0.323-5.057,0.323-9.359,6.562-9.359c3.442,0,5.379,2.904,5.379,6.238
		c0,6.455-7.422,7.209-14.845,9.684c-6.048,1.986-12.019,5.164-14.138,13.413h17.223C70.731,57.849,71.879,56.72,73.15,55.83z"/>
	<path fill="#ED1C24" d="M111.232,67.664c0,9.143,5.056,13.877,14.308,13.877c3.765,0,7.315-0.43,10.972-0.969V68.523
		c-1.828,0-2.474-0.107-4.41,0.217c-2.259,0-3.766-0.754-3.766-4.195v-1.088h-17.104V67.664z"/>
	<polygon points="128.336,32.811 136.512,32.811 136.512,20.439 128.336,20.439 128.336,3.228 111.232,3.228 111.232,20.439 
		104.455,20.439 104.455,32.811 111.232,32.811 111.232,59.456 128.336,59.456 	"/>
	<path d="M162.76,55.83c2.151-1.613,5.163-2.582,8.605-4.41v8.036h17.104V37.113c0-13.232-6.132-18.395-23.021-18.395
		c-13.77,0-23.881,5.701-23.128,20.762h17.104c0.322-5.057,0.322-9.359,6.562-9.359c3.442,0,5.379,2.904,5.379,6.238
		c0,6.455-7.423,7.209-14.846,9.684c-6.048,1.986-12.018,5.164-14.137,13.413h17.223C160.34,57.849,161.488,56.72,162.76,55.83z"/>
	<path fill="#ED1C24" d="M165.126,70.031c-4.088,0-6.347-2.689-6.347-6.455c0-0.042,0.006-0.077,0.007-0.119h-17.07
		c-0.088,0.959-0.148,1.953-0.148,3.023c0,9.574,6.024,16.137,15.706,16.137c6.776,0,10.435-2.582,14.737-7.316l1.184,5.379h16.674
		c-0.753-2.15-1.398-4.41-1.398-6.67V63.457h-17.334C170.623,66.746,169.117,70.031,165.126,70.031z"/>
	<path d="M215.04,57.551V43.354c0-5.811,0.969-10.543,5.594-10.543c4.949,0,4.949,6.238,4.949,9.789v15.598
		c0,0.394,0.001,0.819-0.001,1.259h17.104V39.373c0-9.467-3.334-20.654-14.63-20.654c-4.948,0-10.111,1.506-12.801,6.668h-0.216V0
		h-17.104v59.456h17.155C215.057,58.816,215.04,58.178,215.04,57.551z"/>
	<path fill="#ED1C24" d="M220.312,68.633c-2.592,0.066-3.991-2.21-4.684-5.176h-17.691V80.68h15.921v-6.885h0.215
		c2.797,5.594,8.176,8.607,13.662,8.822c11.184-0.387,14.329-9.844,14.861-19.16h-17.279
		C224.862,66.219,223.637,68.633,220.312,68.633z"/>
	<path fill="#ED1C24" d="M272.7,70.031c-4.088,0-6.347-2.689-6.347-6.455c0-0.042,0.007-0.077,0.007-0.119h-17.07
		c-0.088,0.959-0.148,1.953-0.148,3.023c0,9.574,6.023,16.137,15.706,16.137c6.776,0,10.435-2.582,14.737-7.316l1.184,5.379h16.674
		c-0.753-2.15-1.398-4.41-1.398-6.67V63.457H278.71C278.198,66.746,276.691,70.031,272.7,70.031z"/>
	<path d="M270.334,55.83c2.151-1.613,5.163-2.582,8.605-4.41v8.036h17.104V37.113c0-13.232-6.132-18.395-23.021-18.395
		c-13.77,0-23.881,5.701-23.128,20.762h17.104c0.322-5.057,0.322-9.359,6.562-9.359c3.442,0,5.379,2.904,5.379,6.238
		c0,6.455-7.423,7.209-14.846,9.684c-6.048,1.986-12.018,5.164-14.137,13.413h17.223C267.914,57.849,269.062,56.72,270.334,55.83z"
		/>
	<path d="M323.691,41.201c-2.582-1.291-5.271-2.904-5.271-6.131c0-3.551,2.367-5.057,5.702-5.057c5.486,0,5.271,4.195,5.701,8.283
		h16.028c0.646-13.34-9.358-19.578-21.838-19.578c-11.94,0-22.268,5.594-22.268,18.609c0,4.41,1.398,7.961,4.303,11.295
		c4.599,5.241,12.258,7.89,18.687,10.833h21.615C344.291,48.555,333.647,45.744,323.691,41.201z"/>
	<path fill="#ED1C24" d="M330.146,65.619c0,3.873-2.474,5.701-6.132,5.701c-4.688,0-6.09-3.989-6.148-7.863h-16.361
		c-0.093,13.661,9.22,19.16,22.402,19.16c12.587,0,22.806-5.701,22.806-19.148c0-0.004,0-0.008,0-0.012h-16.988
		C329.993,64.136,330.146,64.866,330.146,65.619z"/>
	<path d="M369.301,53.355h28.938V36.145c0-13.016-11.08-17.533-23.021-17.426c-13.231,0.107-23.021,5.162-23.021,20.654v20.083
		h17.104V53.355z M369.301,38.082c0-4.195,1.183-8.068,6.024-8.068c4.41,0,5.809,3.98,5.809,6.131v5.918h-11.833V38.082z"/>
	<path fill="#ED1C24" d="M374.571,70.246c-3.765-0.215-5.271-3.014-5.271-6.348v-0.441h-17.104v0.441
		c0,13.77,10.758,18.826,23.021,18.719c13.619-0.197,21.783-6.211,22.379-19.16H380.42C380.181,67.248,379.4,70.491,374.571,70.246z
		"/>
</g>
</svg>
