<svg viewBox="0 0 300 300" xmlns="http://www.w3.org/2000/svg" fill-rule="evenodd" clip-rule="evenodd" stroke-linejoin="round" stroke-miterlimit="2"><g fill="#fff" fill-rule="nonzero"><path d="M13.322 140.842c7.36 0 13.328-1.198 13.328-2.675 0-1.477-5.968-2.669-13.328-2.669-7.36 0-13.322 1.197-13.322 2.67 0 1.471 5.987 2.674 13.322 2.674M26.65 146.056c0 1.497-5.988 2.674-13.328 2.674-7.34 0-13.322-1.197-13.322-2.674v-2.39c0 1.497 5.987 2.67 13.322 2.67 7.335 0 13.328-1.193 13.328-2.67v2.39zM26.65 153.96c0 1.496-5.988 2.674-13.328 2.674-7.34 0-13.322-1.213-13.322-2.675v-2.405c0 1.497 5.987 2.67 13.322 2.67 7.335 0 13.328-1.193 13.328-2.67v2.405zM26.65 161.833c0 1.497-5.988 2.67-13.328 2.67-7.34 0-13.322-1.193-13.322-2.67v-2.385c0 1.472 5.987 2.67 13.322 2.67 7.335 0 13.328-1.203 13.328-2.67v2.385zM42.047 138.666h8.433c7.813 0 12.344 4.491 12.344 10.808v.065c0 6.311-4.595 10.977-12.474 10.977h-8.303v-21.85zm8.528 16.496c3.627 0 6.032-1.996 6.032-5.529v-.064c0-3.493-2.405-5.529-6.032-5.529H48.08v11.122h2.495zM72.794 158.475v2.061H66.86v-22.808H72.8v8.153c1.157-1.407 2.594-2.624 5.124-2.624 4.031 0 7.484 3.343 7.484 8.751v.06c0 5.489-3.468 8.842-7.484 8.842a6.346 6.346 0 01-5.13-2.435zm6.78-6.377v-.06c0-2.22-1.531-3.812-3.467-3.812-1.936 0-3.438 1.592-3.438 3.812v.06c0 2.25 1.532 3.847 3.438 3.847 1.906 0 3.467-1.567 3.467-3.847zM87.817 138.666h6.786l4.99 13.841 4.989-13.84h6.656l-8.916 22.024h-5.624l-8.88-22.025zM113.888 137.728h6.187v4.371h-6.187v-4.37zm.125 5.903h5.932v16.905h-5.932v-16.905zM123.243 158.41l2.22-3.592a10.974 10.974 0 005.814 1.935c1.027 0 1.496-.309 1.496-.903v-.064c0-.654-.938-.939-2.719-1.437-3.343-.874-5.987-1.996-5.987-5.404v-.065c0-3.593 2.874-5.593 6.78-5.593 2.467-.01 4.888.673 6.986 1.97l-2.03 3.748c-1.747-.968-3.653-1.562-4.99-1.562-.904 0-1.373.344-1.373.813v.065c0 .654.968.968 2.75 1.497 3.343.938 5.987 2.096 5.987 5.374v.065c0 3.717-2.78 5.653-6.905 5.653a13.643 13.643 0 01-8.029-2.5zM150.416 157.287l3.373-4.031a11.273 11.273 0 007.091 2.624c1.627 0 2.495-.564 2.495-1.497v-.06c0-.908-.719-1.406-3.682-2.095-4.661-1.058-8.254-2.375-8.254-6.87v-.066c0-4.061 3.219-6.985 8.483-6.985 3.722 0 6.626.998 8.981 2.909l-3.023 4.261a10.95 10.95 0 00-6.123-2.155c-1.467 0-2.185.623-2.185 1.402v.065c0 .997.748 1.437 3.777 2.125 5.035 1.093 8.158 2.72 8.158 6.81v.066c0 4.49-3.533 7.12-8.841 7.12-3.878 0-7.565-1.217-10.25-3.623zM172.141 152.163v-.065c0-4.81 3.937-8.841 9.376-8.841 5.438 0 9.31 3.991 9.31 8.781v.06c0 4.815-3.936 8.847-9.375 8.847s-9.31-3.992-9.31-8.782zm12.908 0v-.065a3.684 3.684 0 00-3.597-3.812c-2.156 0-3.528 1.722-3.528 3.752v.06l-.003.15a3.679 3.679 0 003.596 3.662c2.145 0 3.522-1.716 3.522-3.747h.01zM194.974 148.381h-1.966v-4.655h1.966v-.374c0-1.936.439-3.373 1.442-4.376 1.003-1.003 2.405-1.482 4.405-1.482 1.308-.04 2.613.118 3.873.469v4.186a6.978 6.978 0 00-2.22-.344c-1.094 0-1.688.499-1.688 1.591v.41h3.878v4.56h-3.783v12.17h-5.907v-12.155zM208.82 155.287v-6.876h-1.996v-4.78h1.996v-4.281h5.938v4.281h3.936v4.78h-3.936v5.718c0 1.187.529 1.691 1.621 1.691a5.188 5.188 0 002.25-.563v4.655a8.49 8.49 0 01-4.12.968c-3.563 0-5.689-1.562-5.689-5.593zM221.289 143.631h5.813l2.215 8.482 2.595-8.562h4.905l2.624 8.622 2.28-8.562h5.719l-5.22 17.05h-5.124l-2.75-8.782-2.828 8.782h-5.075l-5.154-17.03zM248.508 155.696v-.065c0-3.493 2.654-5.314 6.62-5.314 1.38-.002 2.751.218 4.062.649v-.28c0-1.751-1.093-2.75-3.373-2.75a11.911 11.911 0 00-4.655.934l-1.217-4.186a17.028 17.028 0 016.84-1.312c3.034 0 5.095.718 6.437 2.065 1.282 1.248 1.81 2.994 1.81 5.374v9.725h-5.872v-1.752a6.376 6.376 0 01-4.99 2.126c-3.193 0-5.662-1.841-5.662-5.214zm10.747-1.283v-.783a6.237 6.237 0 00-2.31-.434c-1.722 0-2.72.843-2.72 2.09v.065c0 1.153.874 1.842 2.091 1.842 1.722 0 2.939-1.093 2.939-2.78zM269.319 143.631h5.938v3.408c.967-2.315 2.53-3.812 5.338-3.687v6.246h-.499c-3.093 0-4.84 1.782-4.84 5.689v5.25h-5.937V143.63zM282.94 152.163v-.065c0-4.934 3.533-8.841 8.533-8.841 5.843 0 8.527 4.28 8.527 9.25 0 .375 0 .814-.03 1.218h-11.312c.47 1.841 1.812 2.779 3.658 2.779 1.407 0 2.53-.529 3.747-1.716l3.284 2.719c-1.627 2.061-3.992 3.438-7.345 3.438-5.31 0-9.062-3.533-9.062-8.782zm11.502-1.467c-.22-1.876-1.312-3.063-2.939-3.063s-2.625 1.217-2.94 3.063h5.879z"/></g></svg>