<svg version="1.1" id="Layer_1" xmlns="http://www.w3.org/2000/svg" x="0" y="0" viewBox="0 0 467 467" xml:space="preserve"><path fill="#fff" d="M440.9 234.2c-1.3-8.4-1.9-15.8-3.7-22.8-4.1-15.5-14.8-24-30-24.8-17.4-.9-29.9 6.4-35.6 21.6-5.9 15.6-5.5 31.7-1.6 47.7 4 16.1 14.5 24.4 30.6 25.2 17.6.8 30.3-6.8 35.4-22.5 2.6-8.1 3.4-16.8 4.9-24.4zm-276.5-46.3c1.9-.1 3.5-.2 5.2-.2 12.8 0 25.7-.2 38.5.1 5.1.1 5.4-2.7 5.4-6.3 0-3.7-.2-6.8-5.5-6.8-17.3.2-34.7.1-52 .1-5.4 0-7.2 1.8-7.2 7.2v104c0 5.5 1.8 7.3 7.1 7.3 17.7.1 35.3-.1 53 .1 5.3.1 5.4-3.1 5.4-6.8.1-3.8-.7-6.3-5.5-6.2-13 .3-26 .1-39 .1h-5.3v-42.8c12.7 0 25-.2 37.3.1 4.7.1 5.2-2.7 5.2-6 0-3.4-.2-6.8-5.3-6.6-6.3.3-12.7 0-19 0h-18.4c.1-12.9.1-25 .1-37.3zM40.6 238.4c.3 2.9.5 8.6 1.5 14.1 2.4 12.9 7.2 24.9 18.4 32.7 18.7 13.1 38.3 11.9 58.2 2.6 5.9-2.7 8.4-7 7.6-13.5-.6-4.4-1.7-5.2-5.7-2.9-4.5 2.5-8.8 5.6-13.6 7.2-17.2 5.8-39.6 2.7-46.9-22.3-4.5-15.4-4.5-30.9 1-46.1 6.7-18.3 21.3-26.7 40.2-22.4 6.4 1.5 12.3 5.6 18.4 8.5 2 1 3.9 3.3 5.7-.2 2.2-4.3.4-11.5-3.6-14.4-17.2-12.6-46.6-11-62.3 3.5-14.7 13.7-18.7 31.4-18.9 53.2zM2 249.9v34.9c0 9.1 0 9.1 9.1 8.8.5 0 1-.1 1.5-.1 3.1-.1 4.4-1.5 4.3-4.7-.1-26.1-.1-52.2 0-78.3 0-3-1.2-4.3-4-4.4-1.9-.1-3.7-.2-5.6-.2-3.8-.1-5.6 1.3-5.5 5.6.4 12.8.2 25.6.2 38.4zm7-60.4c7.5 0 9.3-1.7 9.3-8.8 0-6.8-2.1-9-8.8-9-7.1-.1-9.4 2.2-9.4 9.1 0 7 1.8 8.8 8.9 8.7z"/><path fill="#fff" d="M429.1 288.8c6.2 4.4 11.9 9 18.2 12.8 6.1 3.7 12.6 6.6 19.6 10.1V327H226.8V139.8h240V296c-8.7-5.3-16.7-10.2-25-15.2 16.6-22.1 17.5-46.1 12.4-70.8-4.7-22.3-21-35.8-43.8-36.7-7.6-.3-15.5.1-22.8 1.9-20.4 5.1-31 19.8-35 39.5-3.3 15.9-2.9 31.8 1.6 47.5 5.5 18.9 19.4 30.3 38.9 32.3 12.6 1.3 25 .5 36-5.7zm-188.2-55c0 17.5.1 35 0 52.5 0 4.4 1.7 7.2 6.3 7.2 13-.2 26 .2 38.9-1 23.4-2.3 39.6-16.8 43.8-39.9 1.9-10.6 2.3-22 1.1-32.7-3-25.7-20-41.8-45.8-44.2-11.9-1.1-24-.7-35.9-.8-6.9-.1-8.4 1.4-8.4 8.6v50.3z"/><path fill="#fff" d="M440.9 234.2c-1.5 7.6-2.3 16.3-4.9 24.4-5.1 15.7-17.8 23.3-35.4 22.5-16.1-.6-26.6-9.1-30.6-25.1s-4.3-32.1 1.6-47.7c5.7-15.2 18.2-22.6 35.6-21.6 15.2.8 25.9 9.3 30 24.8 1.9 7 2.4 14.4 3.7 22.7zm-276.5-46.3v37.3h18.4c6.3 0 12.7.2 19 0 5.1-.2 5.2 3.2 5.3 6.6 0 3.4-.5 6.1-5.2 6-12.3-.2-24.6-.1-37.3-.1v42.8h5.3c13 0 26 .2 39-.1 4.8-.1 5.6 2.3 5.5 6.2-.1 3.7-.1 6.9-5.4 6.8-17.7-.2-35.3 0-53-.1-5.4 0-7.1-1.8-7.1-7.3-.1-34.7-.1-69.4 0-104 0-5.4 1.8-7.2 7.2-7.2 17.3-.1 34.7.1 52-.1 5.3-.1 5.5 3.1 5.5 6.8 0 3.6-.3 6.4-5.4 6.3-12.8-.3-25.7-.1-38.5-.1-1.8-.2-3.3 0-5.3.2zM40.6 238.4c.2-21.8 4.1-39.5 18.8-53.1 15.7-14.5 45.1-16.1 62.3-3.5 4 2.9 5.8 10.1 3.6 14.4-1.8 3.5-3.7 1.1-5.7.2-6.1-3-11.9-7.1-18.4-8.5-18.8-4.4-33.5 4-40.2 22.3-5.5 15.2-5.5 30.7-1 46.1 7.4 25 29.7 28.1 46.9 22.3 4.8-1.6 9.1-4.7 13.6-7.2 4-2.2 5.1-1.5 5.7 2.9.8 6.6-1.7 10.8-7.6 13.5-19.9 9.3-39.5 10.5-58.2-2.6-11.1-7.8-16-19.7-18.4-32.7-.9-5.5-1.1-11.2-1.4-14.1zM2 249.9c0-12.8.2-25.6-.1-38.4-.1-4.3 1.7-5.7 5.5-5.6 1.8 0 3.7.1 5.5.2 2.8.1 4.1 1.5 4 4.4-.1 26.1-.1 52.2 0 78.3 0 3.2-1.3 4.6-4.3 4.7-.5 0-1 0-1.5.1-9.1.4-9.1.4-9.1-8.8v-34.9zm7-60.4c-7.1 0-8.9-1.8-8.9-8.7 0-6.9 2.3-9.1 9.3-9.1 6.7.1 8.8 2.2 8.8 9 .1 7.1-1.8 8.8-9.2 8.8zm248.2 91.1v-92.8c12.3.1 24.7-1.3 36.3 3.9 11.6 5.1 17.9 14.6 20.4 26.7 2.5 11.9 2.3 23.9-1.1 35.6-4 13.9-13.1 22.8-27.5 24.9-9.2 1.3-18.5 1.2-28.1 1.7z"/></svg>
