<svg id="ef6c3ccf-51c1-432c-bd46-a797fd79f5d9" data-name="Layer 1" xmlns="http://www.w3.org/2000/svg" viewBox="0 0 300 300"><path d="M92.8,163.7l5.3-4.7a15.44,15.44,0,0,0,12.4,5.9c6,0,9.2-2.8,9.2-7.2,0-3.5-1.9-5.5-7.4-6.5l-4.2-.7c-9.2-1.6-13.9-5.7-13.9-12.9,0-8,6.5-12.9,16.6-12.9,7.1,0,12.4,2.5,16,6.9l-5.4,4.5c-2.4-3-5.8-5-11.1-5s-8.6,2.1-8.6,6.1c0,3.8,2.4,5.4,7.5,6.3l4.2.8c9.4,1.7,13.7,5.8,13.7,12.9,0,8.4-6.3,14-17.2,14C102.2,171.4,96.7,168.4,92.8,163.7Zm42.4-9.9c0-10.7,6.4-17.6,16.2-17.6s16.2,6.9,16.2,17.6-6.4,17.6-16.2,17.6S135.2,164.5,135.2,153.8Zm24.6,2.8v-5.7c0-6-3.4-8.9-8.4-8.9s-8.4,3-8.4,8.9v5.7c0,6,3.4,8.9,8.4,8.9S159.8,162.6,159.8,156.6Zm27.2,14c-5.1,0-7.8-2.7-7.8-7.3V142.7h-5.5V137h3c2.4,0,3.3-1,3.3-3.3v-5.9h6.7V137h7.4v5.8h-7.4v22.1h6.9v5.8H187Zm14-16.8c0-10.7,6.2-17.6,16.2-17.6,10.4,0,15.7,7.4,15.7,16.8v2.7H208.6v1.1c0,5.2,3.3,8.9,9.3,8.9a10.43,10.43,0,0,0,9.3-5l4.3,4.1c-2.6,4.1-7.8,6.8-14.4,6.8C207.1,171.4,201,164.5,201,153.8Zm7.6-3.3v.5H225v-.6c0-5.2-3-8.6-7.9-8.6S208.6,145.3,208.6,150.5Zm34.1,20.1V137h7.4v6.5h.3c1-3.4,4.1-6.5,9.7-6.5h2v6.8h-2.9c-5.8,0-9.1,1.9-9.1,5.4v21.5h-7.4Zm24.8-16.8c0-10.7,6.4-17.6,16.2-17.6S300,143,300,153.8s-6.4,17.6-16.2,17.6S267.5,164.5,267.5,153.8Zm24.7,2.8v-5.7c0-6-3.4-8.9-8.4-8.9s-8.4,3-8.4,8.9v5.7c0,6,3.4,8.9,8.4,8.9S292.2,162.6,292.2,156.6Z" style="fill:#fff"/><path d="M0,150.3v24.9l33.3,24.5,33.4-24.4V148.2L18.8,124.6v9.3l39.6,19.4v17.8L33.3,189.4,8.3,171V154.5Z" style="fill:#ca0b0a"/><path d="M66.7,139.3V107.5L33.3,98.9,0,107.5v33.6L47.4,165v-9.3L8.3,136V113.8l25-6.3h.2l24.9,6.3v21.3Z" style="fill:#ca0b0a"/></svg>