<svg id="Layer_1" data-name="Layer 1" xmlns="http://www.w3.org/2000/svg" viewBox="0 0 300 300"><defs><style>.cls-1{fill:#fff;}.cls-2{fill:#f39523;}.cls-3{fill:#46c7ef;}</style></defs><path class="cls-1" d="M166.81,110.77V148.9H101.9v9.35h64.84v15.07H87.8V110.77Zm-65,24.15h49.34v-9.13H101.84Z"/><path class="cls-1" d="M81.15,110.76v62.59h-14V125.77H16.34v47.54H2.07V110.76Z"/><path class="cls-1" d="M252.38,88.91h14.07v21.6H297v15.14H266.57v47.7H252.38Z"/><path class="cls-2" d="M171.5,173.39,198.85,142c-9-10.39-18-20.64-27.22-31.28H192.4L219.11,142l-26.75,31.38Z"/><path class="cls-1" d="M162.5,204.91q3.94-11.47,7.9-23H177c2.67,7.7,5.33,15.41,8.21,23.75l6.94-23.74h6.54c-3,10.8-5.94,21.42-8.91,32.11h-7.84c-2.63-7.27-5.28-14.62-7.93-22h-.54l-7.94,22h-7.84l-8.91-32h6.56l6.71,22.9Z"/><path class="cls-1" d="M132.06,195.77V182h7.63v32h-7.54V201.28H114.49v12.66h-7.81V182.06h7.63v13.71Z"/><path class="cls-1" d="M71,214.08H63.28c-1.1-2.19-2.23-4.48-3.42-6.87H44.21l-3.82,6.85h-7.8c5.13-10.82,10.16-21.41,15.24-32.11h7.93ZM58,201.74l-6.22-13.38c-2.09,4.63-4,8.88-6.06,13.38Z"/><path class="cls-1" d="M2.07,214V181.84c6.13,0,12.21,0,18.28,0a17,17,0,0,1,4.62.61,18.91,18.91,0,0,1,5.1,2.23,8.45,8.45,0,0,1-1.16,15c-2.87,1.35-6.26,1.79-9.46,2.15a89,89,0,0,1-9.71.08V214Zm7.76-17c2.2,0,4.15,0,6.09,0a54,54,0,0,0,7.43-.49c2.14-.37,3.39-2.5,3.33-4.76s-1.28-4.28-3.4-4.4c-4.46-.24-9-.07-13.45-.07Z"/><path class="cls-1" d="M212.48,181.89h7.89L235.62,214h-7.79l-3.35-6.78h-15.6c-1.24,2.2-2.52,4.49-3.86,6.86h-7.8C202.36,203.23,207.39,192.63,212.48,181.89Zm10.15,19.87c-2.17-4.6-4.13-8.77-6.28-13.35-2.17,4.76-4.09,9-6.08,13.35Z"/><path class="cls-3" d="M246.15,110.74l-23.5,27.33-10.22-11.86,13.66-16h19.62Z"/><path class="cls-3" d="M222.62,145.53l23.49,27.73c-.94.11-1.43.22-1.92.22-5.39,0-10.78.07-16.18,0a4.31,4.31,0,0,1-2.88-1.07c-4.36-4.76-8.57-9.66-13-14.71Z"/><path class="cls-1" d="M253.55,214h-7.92c0-3.16.1-6.26,0-9.35A7.65,7.65,0,0,0,244.5,201c-3.67-5.63-7.48-11.17-11.23-16.74-.46-.69-.87-1.41-1.44-2.32h7.7l9.88,14.78c3.12-5.12,6-9.88,9-14.77h7.84c-3.69,6-7.2,11.9-10.89,17.66a10.43,10.43,0,0,0-1.84,6.57C253.68,208.74,253.55,211.32,253.55,214Z"/><path class="cls-1" d="M67.13,187.09v-5.15H99V187H86.32v27H79.87V187.09Z"/></svg>