<svg xmlns="http://www.w3.org/2000/svg" viewBox="0 0 601 601"><path d="M85.9 177.2c-8.5-.2-17.3.8-26.3 3.1-41.6 10.3-88.2 63.9-37.3 125.6l30.4 36.8 8.6 10.5c5.8 6.8 15.2 6.7 22.1 1 7-5.7 8.9-15.1 3.2-22.1-1.2-1.4-2.3-2.8-3.5-4.2h.1c-2.2-2.6-2.7-3.1-4.9-5.8-11-13.2-23.5-28.5-23.5-28.5-22.1-26.8-12.2-59.9 17.7-78.8 26.4-16.6 74.8-10.7 91.5 16.6-10.6-31.1-41.2-53.4-78.1-54.2zM92 242c-3.9-.1-8 1.4-11.5 4.2-7 5.7-8.9 15.1-3.2 22.1 0 0 .7.9 1.9 2.3 13.2 15.8 30.7 37.1 30.7 37.1 22.1 26.8 12.2 59.8-17.7 78.6-26.4 16.6-74.8 10.6-91.5-16.6C13.6 407.9 57 432.8 105 420.8c41.6-10.4 88.2-63.8 37.3-125.5l-35.6-43-4.1-5.1c-2.9-3.4-6.7-5.1-10.6-5.2z" fill="#097dc2"/><path d="M248.9 206.5c-26.4 0-56.5 13.6-56.5 46.4 0 31.2 24.8 39.9 49.4 45.9 24.9 6 49.5 9.4 49.5 30.2 0 20.5-21.1 24.3-36.6 24.3-20.5 0-39.8-7.5-40.7-31.4h-24.8c1.5 40.3 30.1 55.1 64.1 55.1 30.8 0 64.5-12.5 64.5-51.3 0-31.5-24.7-40.4-49.5-46.4-23.1-6-49.5-9.1-49.5-28.3 0-16.4 17.3-20.8 32.3-20.8 16.4 0 33.4 6.5 35.2 27.3H311c-2.1-39.7-28.7-51-62.1-51zm143.6 0c-33.7 0-62.8 14.2-64.2 54.5h24.8c1.2-23.9 16.7-30.8 37.8-30.8 15.8 0 33.7 3.7 33.7 27 0 20.2-23.3 18.3-50.9 24-25.8 5.4-51.3 13.3-51.3 50.1 0 32.4 22.6 45.6 50.1 45.6 21.1 0 39.4-8 53.2-25.3 0 17.6 8.3 25.3 21.2 25.3 7.9 0 13.3-1.7 17.7-4.5v-20.8c-3.2 1.3-5.5 1.6-7.6 1.6-7.9 0-7.8-5.6-7.8-18.2v-83.8c.1-38-29.5-44.7-56.7-44.7zm130.2 0c-26.4 0-56.5 13.6-56.5 46.4 0 31.2 25 39.9 49.5 45.9 24.9 6 49.5 9.4 49.5 30.2 0 20.5-21.1 24.3-36.6 24.3-20.5 0-39.8-7.5-40.7-31.4h-25c1.5 40.3 30.3 55.1 64.2 55.1 30.7 0 64.4-12.5 64.4-51.3 0-31.5-24.7-40.4-49.5-46.4-23.1-6-49.4-9.1-49.4-28.3 0-16.4 17.2-20.8 32.1-20.8 16.4 0 33.4 6.5 35.2 27.3h25c-2.1-39.7-28.8-51-62.2-51zM424.3 289v27.5c0 14.8-13.4 36.8-46.2 36.8-15.2 0-29.4-6.3-29.4-24 0-19.8 14.1-26.1 30.5-29.2 16.8-3.2 35.5-3.5 45.1-11.1zm-246.6 71.4c-5.3 0-9.7 4.1-9.7 9.6s4.5 9.6 9.7 9.6 9.6-4.1 9.6-9.6-4.4-9.6-9.6-9.6zm413.6 0c-5.3 0-9.7 4.1-9.7 9.6s4.5 9.6 9.7 9.6 9.7-4.1 9.7-9.6-4.5-9.6-9.7-9.6zM177.7 362c4.3 0 7.7 3.4 7.7 8s-3.4 8-7.7 8c-4.4 0-7.8-3.4-7.8-8s3.4-8 7.8-8zm413.6 0c4.3 0 7.8 3.4 7.8 8s-3.5 8-7.8 8c-4.4 0-7.7-3.4-7.7-8s3.3-8 7.7-8zM174 364.5v11h1.7v-4.8h1.9l2.9 4.8h1.9l-3.2-4.9c1.6-.2 2.9-.9 2.9-2.9 0-2.2-1.3-3.2-3.9-3.2H174zm413.6 0v11h1.6v-4.8h2l2.9 4.8h1.9l-3.2-4.9c1.6-.2 2.9-.9 2.9-2.9 0-2.2-1.3-3.2-3.9-3.2h-4.2zm-411.9 1.4h2.3c1.2 0 2.3.2 2.3 1.6 0 1.7-1.2 1.7-2.6 1.7h-2v-3.3zm413.5 0h2.3c1.2 0 2.5.2 2.5 1.6 0 1.7-1.3 1.7-2.8 1.7h-2v-3.3z" fill="#fff"/></svg>
