<svg xmlns="http://www.w3.org/2000/svg" id="art" viewBox="0 0 84.42 84.17"><defs><style>.cls-1,.cls-2{fill:#89be4d;}.cls-1{stroke:#89be4d;}.cls-1,.cls-3,.cls-7{stroke-miterlimit:10;}.cls-3,.cls-4{fill:#e05726;}.cls-3{stroke:#e15627;}.cls-5{fill:#e15627;}.cls-6{fill:#005ec3;}.cls-7{fill:none;stroke:#005ec3;}</style></defs><title>Artboard 1</title><g id="green"><line class="cls-1" x1="28.37" y1="4.17" x2="37.46" y2="12.67"/><line class="cls-1" x1="28.37" y1="4.17" x2="27.27" y2="16.56"/><circle class="cls-2" cx="27.25" cy="16.72" r="2.2" transform="translate(-4.52 20.32) rotate(-38)"/><circle class="cls-2" cx="28.37" cy="4.17" r="2.2" transform="translate(3.45 18.35) rotate(-38)"/><circle class="cls-2" cx="37.6" cy="12.8" r="2.2" transform="translate(0.09 25.86) rotate(-38)"/><line class="cls-1" x1="10.53" y1="65.95" x2="15.42" y2="54.52"/><line class="cls-1" x1="10.53" y1="65.95" x2="22.56" y2="62.77"/><circle class="cls-2" cx="22.71" cy="62.73" r="2.2" transform="translate(-42.51 48.66) rotate(-57.93)"/><circle class="cls-2" cx="10.53" cy="65.95" r="2.2" transform="translate(-50.95 39.85) rotate(-57.93)"/><circle class="cls-2" cx="15.5" cy="54.34" r="2.2" transform="translate(-38.78 38.62) rotate(-57.93)"/><line class="cls-1" x1="2.21" y1="42.52" x2="13.21" y2="36.73"/><line class="cls-1" x1="2.21" y1="42.52" x2="13.55" y2="47.63"/><circle class="cls-2" cx="13.69" cy="47.69" r="2.2" transform="translate(-14.67 6.98) rotate(-18.84)"/><circle class="cls-2" cx="2.21" cy="42.52" r="2.2" transform="translate(-13.62 2.99) rotate(-18.84)"/><circle class="cls-2" cx="13.38" cy="36.64" r="2.2" transform="translate(-11.12 6.29) rotate(-18.84)"/><line class="cls-1" x1="9.47" y1="18.58" x2="21.82" y2="20.1"/><line class="cls-1" x1="9.47" y1="18.58" x2="15.87" y2="29.25"/><circle class="cls-2" cx="15.95" cy="29.39" r="2.2" transform="translate(-16.68 36.66) rotate(-74.07)"/><circle class="cls-2" cx="9.47" cy="18.58" r="2.2" transform="translate(-11 22.59) rotate(-74.07)"/><circle class="cls-2" cx="21.72" cy="20.61" r="2.2" transform="translate(-4.07 35.84) rotate(-74.07)"/><line class="cls-1" x1="29.79" y1="79.62" x2="28.29" y2="67.27"/><line class="cls-1" x1="29.79" y1="79.62" x2="38.59" y2="70.84"/><circle class="cls-2" cx="38.71" cy="70.72" r="2.2" transform="translate(-33.3 106.97) rotate(-88.03)"/><circle class="cls-2" cx="29.79" cy="79.62" r="2.2" transform="translate(-50.81 106.65) rotate(-88.03)"/><circle class="cls-2" cx="28.26" cy="67.08" r="2.2" transform="matrix(0.03, -1, 1, 0.03, -39.75, 93.02)"/><line class="cls-1" x1="56.04" y1="79.62" x2="46.96" y2="71.12"/><line class="cls-1" x1="56.04" y1="79.62" x2="57.15" y2="67.23"/><circle class="cls-2" cx="57.16" cy="67.07" r="2.2" transform="translate(-29.17 49.41) rotate(-38)"/><circle class="cls-2" cx="56.04" cy="79.62" r="2.2" transform="translate(-37.14 51.38) rotate(-38)"/><circle class="cls-2" cx="46.82" cy="70.99" r="2.2" transform="translate(-33.78 43.87) rotate(-38)"/><line class="cls-1" x1="73.89" y1="17.84" x2="68.99" y2="29.28"/><line class="cls-1" x1="73.89" y1="17.84" x2="61.86" y2="21.02"/><circle class="cls-2" cx="61.71" cy="21.06" r="2.2" transform="translate(11.09 62.17) rotate(-57.93)"/><circle class="cls-2" cx="73.89" cy="17.84" r="2.2" transform="translate(19.54 70.97) rotate(-57.93)"/><circle class="cls-2" cx="68.92" cy="29.45" r="2.2" transform="translate(7.36 72.21) rotate(-57.93)"/><line class="cls-1" x1="82.21" y1="41.28" x2="71.2" y2="47.07"/><line class="cls-1" x1="82.21" y1="41.28" x2="70.87" y2="36.17"/><circle class="cls-2" cx="70.72" cy="36.1" r="2.2" transform="matrix(0.95, -0.32, 0.32, 0.95, -7.87, 24.78)"/><circle class="cls-2" cx="82.21" cy="41.28" r="2.2" transform="translate(-8.93 28.77) rotate(-18.84)"/><circle class="cls-2" cx="71.03" cy="47.16" r="2.2" transform="translate(-11.42 25.47) rotate(-18.84)"/><line class="cls-1" x1="74.95" y1="65.21" x2="62.6" y2="63.69"/><line class="cls-1" x1="74.95" y1="65.21" x2="68.54" y2="54.54"/><circle class="cls-2" cx="68.46" cy="54.41" r="2.2" transform="translate(-2.64 105.31) rotate(-74.07)"/><circle class="cls-2" cx="74.95" cy="65.21" r="2.2" transform="translate(-8.33 119.38) rotate(-74.07)"/><circle class="cls-2" cx="62.7" cy="63.18" r="2.2" transform="translate(-15.26 106.13) rotate(-74.07)"/><line class="cls-1" x1="54.63" y1="4.17" x2="56.13" y2="16.52"/><line class="cls-1" x1="54.63" y1="4.17" x2="45.82" y2="12.96"/><circle class="cls-2" cx="45.71" cy="13.07" r="2.2" transform="translate(31.07 58.3) rotate(-88.03)"/><circle class="cls-2" cx="54.63" cy="4.17" r="2.2" transform="translate(48.58 58.63) rotate(-88.03)"/><circle class="cls-2" cx="56.15" cy="16.71" r="2.2" transform="translate(37.52 72.26) rotate(-88.03)"/></g><g id="red"><line class="cls-3" x1="36.88" y1="34.74" x2="25.86" y2="28.97"/><line class="cls-3" x1="36.88" y1="34.74" x2="34.64" y2="22.5"/><circle class="cls-4" cx="34.61" cy="22.35" r="2.2" transform="translate(-3.94 36.87) rotate(-53.49)"/><circle class="cls-4" cx="36.88" cy="34.74" r="2.2" transform="translate(-12.98 43.71) rotate(-53.49)"/><circle class="cls-5" cx="25.68" cy="28.88" r="2.2" transform="translate(-12.81 32.34) rotate(-53.49)"/><line class="cls-3" x1="46.43" y1="34.75" x2="48.68" y2="22.52"/><line class="cls-3" x1="46.43" y1="34.75" x2="57.46" y2="28.99"/><circle class="cls-4" cx="57.6" cy="28.92" r="2.2" transform="translate(11.25 73.71) rotate(-70.68)"/><circle class="cls-4" cx="46.43" cy="34.75" r="2.2" transform="translate(-1.73 67.07) rotate(-70.68)"/><circle class="cls-5" cx="48.72" cy="22.33" r="2.2" transform="translate(11.52 60.91) rotate(-70.68)"/><line class="cls-3" x1="41.81" y1="49.39" x2="46.97" y2="60.72"/><line class="cls-3" x1="41.81" y1="49.39" x2="36.06" y2="60.42"/><circle class="cls-4" cx="35.99" cy="60.57" r="2.2" transform="translate(-14.94 11.88) rotate(-15.57)"/><circle class="cls-4" cx="41.81" cy="49.39" r="2.2" transform="translate(-11.72 13.04) rotate(-15.57)"/><circle class="cls-5" cx="47.05" cy="60.89" r="2.2" transform="translate(-14.62 14.86) rotate(-15.57)"/><line class="cls-3" x1="48.77" y1="43.24" x2="62.81" y2="42.7"/><line class="cls-3" x1="48.77" y1="43.24" x2="59.04" y2="53.37"/><circle class="cls-4" cx="59.04" cy="53.37" r="2.2" transform="matrix(0.14, -0.99, 0.99, 0.14, -2.31, 104.05)"/><circle class="cls-4" cx="48.64" cy="43.57" r="2.2" transform="translate(-1.52 85.38) rotate(-81.67)"/><circle class="cls-5" cx="62.81" cy="42.7" r="2.2" transform="translate(11.46 98.66) rotate(-81.67)"/><line class="cls-3" x1="34.83" y1="43.31" x2="24.77" y2="53.14"/><line class="cls-3" x1="34.83" y1="43.31" x2="20.41" y2="42.7"/><circle class="cls-4" cx="20.41" cy="42.7" r="2.2" transform="translate(-20.31 18.58) rotate(-33.82)"/><circle class="cls-4" cx="34.61" cy="43.53" r="2.2" transform="translate(-18.37 26.62) rotate(-33.82)"/><circle class="cls-5" cx="24.77" cy="53.14" r="2.2" transform="translate(-25.38 22.78) rotate(-33.82)"/></g><g id="blue"><circle class="cls-6" cx="37.78" cy="1.88" r="1.88"/><circle class="cls-6" cx="45.85" cy="1.92" r="1.88"/><circle class="cls-6" cx="41.8" cy="10.24" r="1.88"/><line class="cls-7" x1="37.78" y1="2.05" x2="41.8" y2="10.55"/><line class="cls-7" x1="45.85" y1="1.92" x2="41.8" y2="10.55"/><circle class="cls-6" cx="62.45" cy="6.9" r="1.88" transform="translate(20.67 53.83) rotate(-54.63)"/><circle class="cls-6" cx="69.07" cy="11.61" r="1.88" transform="translate(19.62 61.21) rotate(-54.63)"/><circle class="cls-6" cx="60.96" cy="16.05" r="1.88" transform="translate(12.59 56.47) rotate(-54.63)"/><line class="cls-7" x1="62.45" y1="6.9" x2="60.78" y2="16.3"/><line class="cls-7" x1="69.07" y1="11.61" x2="60.78" y2="16.3"/><circle class="cls-6" cx="14.23" cy="11.55" r="1.87" transform="translate(-4.09 10.92) rotate(-37.1)"/><circle class="cls-6" cx="20.71" cy="6.65" r="1.87" transform="translate(0.18 13.84) rotate(-37.1)"/><circle class="cls-6" cx="22.5" cy="15.72" r="1.88" transform="translate(-4.93 16.75) rotate(-37.1)"/><line class="cls-7" x1="14.23" y1="11.55" x2="22.68" y2="15.97"/><line class="cls-7" x1="20.71" y1="6.65" x2="22.68" y2="15.97"/><circle class="cls-6" cx="46.81" cy="82.29" r="1.88"/><circle class="cls-6" cx="38.69" cy="82.29" r="1.88"/><circle class="cls-6" cx="42.73" cy="73.98" r="1.88"/><line class="cls-7" x1="46.81" y1="82.29" x2="42.73" y2="73.67"/><line class="cls-7" x1="38.69" y1="82.29" x2="42.73" y2="73.67"/><circle class="cls-6" cx="21.8" cy="76.87" r="1.88" transform="translate(-53.45 50.02) rotate(-54.53)"/><circle class="cls-6" cx="15.18" cy="72.15" r="1.88" transform="translate(-52.39 42.65) rotate(-54.53)"/><circle class="cls-6" cx="23.3" cy="67.73" r="1.87" transform="translate(-45.38 47.4) rotate(-54.53)"/><line class="cls-7" x1="21.8" y1="76.87" x2="23.48" y2="67.47"/><line class="cls-7" x1="15.18" y1="72.15" x2="23.48" y2="67.47"/><circle class="cls-6" cx="69.93" cy="71.55" r="1.88" transform="translate(-29.26 58.52) rotate(-38.17)"/><circle class="cls-6" cx="63.54" cy="76.57" r="1.87" transform="translate(-33.73 55.64) rotate(-38.17)"/><circle class="cls-6" cx="61.58" cy="67.53" r="1.88" transform="translate(-28.57 52.5) rotate(-38.17)"/><line class="cls-7" x1="69.93" y1="71.55" x2="61.39" y2="67.29"/><line class="cls-7" x1="63.54" y1="76.57" x2="61.39" y2="67.29"/><circle class="cls-6" cx="4.49" cy="58.22" r="1.87" transform="translate(-17.15 3.99) rotate(-17.34)"/><circle class="cls-6" cx="2.07" cy="50.46" r="1.87" transform="translate(-14.95 2.91) rotate(-17.34)"/><circle class="cls-6" cx="11.21" cy="51.85" r="1.87" transform="translate(-14.95 5.7) rotate(-17.34)"/><line class="cls-7" x1="4.49" y1="58.22" x2="11.51" y2="51.75"/><line class="cls-7" x1="2.07" y1="50.46" x2="11.51" y2="51.75"/><circle class="cls-6" cx="2.3" cy="32.47" r="1.87" transform="matrix(0.28, -0.96, 0.96, 0.28, -29.48, 25.42)"/><circle class="cls-6" cx="4.77" cy="25.3" r="1.87" transform="translate(-20.85 22.67) rotate(-73.45)"/><circle class="cls-6" cx="11.72" cy="31.97" r="1.87" transform="matrix(0.28, -0.96, 0.96, 0.28, -22.26, 34.1)"/><line class="cls-7" x1="2" y1="32.51" x2="11.72" y2="31.96"/><line class="cls-7" x1="4.77" y1="25.3" x2="11.88" y2="31.64"/><circle class="cls-6" cx="80.02" cy="25.79" r="1.88" transform="matrix(0.96, -0.27, 0.27, 0.96, -3.99, 22.49)"/><circle class="cls-6" cx="82.21" cy="33.62" r="1.88" transform="translate(-6.01 23.37) rotate(-15.62)"/><circle class="cls-6" cx="73.11" cy="31.96" r="1.87" transform="translate(-5.9 20.86) rotate(-15.62)"/><line class="cls-7" x1="80.02" y1="25.79" x2="72.81" y2="32.04"/><line class="cls-7" x1="82.21" y1="33.62" x2="72.81" y2="32.04"/><circle class="cls-6" cx="81.58" cy="50.94" r="1.87" transform="translate(4.13 107.95) rotate(-68.34)"/><circle class="cls-6" cx="78.58" cy="58.49" r="1.88" transform="translate(-4.78 109.93) rotate(-68.34)"/><circle class="cls-6" cx="72.35" cy="51.66" r="1.88" transform="translate(-2.37 99.83) rotate(-68.34)"/><line class="cls-7" x1="81.58" y1="50.94" x2="72.06" y2="51.54"/><line class="cls-7" x1="78.58" y1="58.49" x2="72.06" y2="51.54"/></g></svg>