<svg xmlns="http://www.w3.org/2000/svg" viewBox="0 0 601 601"><path fill="#ff671d" d="M19.4 300.7c0 2.6-2 4.6-4.6 4.6H5.1c-2.6 0-4.6-2-4.6-4.6 0-2.6 2-4.6 4.6-4.6h9.3c2.6-.3 5 2 5 4.6zM61.2 300.7c0 2.6-2 4.6-4.6 4.6H32.4c-2.6 0-4.6-2-4.6-4.6 0-2.6 2-4.6 4.6-4.6h24.1c2.3-.3 4.7 2 4.7 4.6z"/><path fill="#abc8e7" d="M29.8 274.6c0 2.6-2 4.6-4.6 4.6h-9.3c-2.6 0-4.6-2-4.6-4.6 0-2.6 2-4.6 4.6-4.6h9.3c2.3-.4 4.6 2 4.6 4.6zM71.6 274.6c0 2.6-2 4.6-4.6 4.6H42.9c-2.6 0-4.6-2-4.6-4.6 0-2.6 2-4.6 4.6-4.6H67c2.3-.4 4.6 2 4.6 4.6zM29.8 326.8c0 2.6-2 4.6-4.6 4.6h-9.3c-2.6 0-4.6-2-4.6-4.6 0-2.6 2-4.6 4.6-4.6h9.3c2.3-.3 4.6 2 4.6 4.6zM71.6 326.8c0 2.6-2 4.6-4.6 4.6H42.9c-2.6 0-4.6-2-4.6-4.6 0-2.6 2-4.6 4.6-4.6H67c2.3-.3 4.6 2 4.6 4.6z"/><path fill="#4197cb" d="M74.8 247.9c0 2.3-2 4.1-4.6 4.1H48.1c-2.6 0-4.6-1.7-4.6-4.1s2-4.1 4.6-4.1h22.1c2.3-.3 4.6 1.8 4.6 4.1zM106.2 247.9c0 2.3-2 4.1-4.6 4.1H89.9c-2.6 0-4.6-1.7-4.6-4.1s2-4.1 4.6-4.1h11.6c2.3-.3 4.7 1.8 4.7 4.1zM74.8 353.2c0 2.3-2 4.1-4.6 4.1H48.1c-2.6 0-4.6-1.7-4.6-4.1 0-2.3 2-4.1 4.6-4.1h22.1c2.3.1 4.6 1.8 4.6 4.1zM106.2 353.2c0 2.3-2 4.1-4.6 4.1H89.9c-2.6 0-4.6-1.7-4.6-4.1 0-2.3 2-4.1 4.6-4.1h11.6c2.3.1 4.7 1.8 4.7 4.1z"/><path fill="#ff671d" d="M171.8 326.7c-15.8 0-28.6-11.5-28.6-25.7s12.8-25.7 28.6-25.7 28.6 11.5 28.6 25.7-12.9 25.7-28.6 25.7zm0-44.1c-11.7 0-21.3 8.3-21.3 18.4 0 10.1 9.6 18.4 21.3 18.4 11.7 0 21.3-8.3 21.3-18.4 0-10.2-9.6-18.4-21.3-18.4zM110.2 326.7c-15.8 0-28.6-11.5-28.6-25.7s12.8-25.7 28.6-25.7c8.3 0 15.9 3.1 21.5 8.6 1.4 1.4 1.4 3.7 0 5.2-1.4 1.4-3.7 1.4-5.2 0-4.2-4.2-10-6.5-16.3-6.5-11.7 0-21.3 8.3-21.3 18.4 0 10.1 9.6 18.4 21.3 18.4 6.3 0 12.1-2.3 16.3-6.5 1.4-1.4 3.7-1.4 5.2 0 1.4 1.4 1.4 3.7 0 5.2-5.6 5.6-13.2 8.6-21.5 8.6zM219.9 328.2c-2 0-3.7-1.6-3.7-3.7v-46.4l2.8-.7c1-.3 24.9-6.1 37.7 2.2 9 5.8 8.9 14.6 8.6 44 0 2-1.7 3.6-3.7 3.6s-3.6-1.7-3.6-3.7c.3-28.2.2-34.3-5.3-37.8-7.4-4.8-21.7-3.3-29.2-1.9v40.6c.1 2.1-1.5 3.8-3.6 3.8zM291 328.2c-2 0-3.7-1.6-3.7-3.7v-53.7c0-16.9 22.9-23 23.9-23.3 1.9-.5 3.9.7 4.5 2.6.5 2-.7 3.9-2.6 4.5-.2 0-18.5 5-18.5 16.2v53.7c.1 2-1.5 3.7-3.6 3.7z"/><path fill="#ff671d" d="M291 328.2c-2 0-3.7-1.6-3.7-3.7v-34c0-4.6 1.4-8.3 4.1-10.8 2.9-2.7 7.1-3.9 12.4-3.6 2 0 3.7 1.6 3.7 3.7s-1.6 3.7-3.6 3.7h-.6c-1.2-.1-4.9-.3-7 1.6-1.2 1.1-1.8 3-1.8 5.5v34c.2 1.9-1.4 3.6-3.5 3.6zM336.9 328.2c-2 0-3.7-1.6-3.7-3.7v-64.7c0-2 1.6-3.7 3.7-3.7 2 0 3.7 1.6 3.7 3.7v64.7c0 2-1.7 3.7-3.7 3.7zM389.8 326.8c-6.8 0-14.1-1-19.2-4.5-8.7-5.6-8.6-12.1-8.3-39.7V280c0-2 1.8-3.6 3.7-3.6 2 0 3.6 1.7 3.6 3.7v2.6c-.3 26.7 0 30.3 5 33.5 7.2 4.8 22 3.3 29.8 1.9v-37.4c0-2 1.6-3.7 3.7-3.7s3.7 1.6 3.7 3.7v43.2l-2.8.7c-.7.1-9.5 2.2-19.2 2.2zM507.3 328.2c-2 0-3.7-1.6-3.7-3.7v-46.4l2.8-.7c1-.3 24.9-6.1 37.7 2.2 9 5.8 8.9 14.6 8.6 44 0 2-1.7 3.6-3.7 3.6s-3.6-1.7-3.6-3.7c.3-28.2.2-34.3-5.3-37.8-7.4-4.8-21.7-3.3-29.2-1.9v40.6c0 2.1-1.6 3.8-3.6 3.8zM463.6 326.5c-9.9 0-20.9-1.6-28-7.6-4.9-4.2-7.4-9.9-7.4-17 0-8.7 3.2-15.8 9.3-20.3 8.5-6.4 21.2-6.6 29.9-4.1 15.5 4.6 17.4 19.3 16.2 26.5l-.5 3.1h-34.7c-2 0-3.7-1.6-3.7-3.7 0-2 1.6-3.7 3.7-3.7h28.2c-.1-4.5-1.6-12.3-11.3-15.2-6.7-2-17-1.9-23.4 2.9-4.2 3.2-6.4 8-6.4 14.5 0 4.9 1.6 8.6 4.8 11.4 10.2 8.6 33.2 5.6 40 4.5 2-.3 3.9 1 4.2 3s-1 3.9-3 4.2c-4.1.6-10.7 1.5-17.9 1.5zM597.8 327.6c-16.7 0-25.1-5.7-25.1-17v-41.2c0-2 1.6-3.7 3.7-3.7 2 0 3.7 1.6 3.7 3.7v41.2c0 2.9 0 9.7 17.8 9.7 2 0 3.7 1.6 3.7 3.7-.1 1.9-1.7 3.6-3.8 3.6z"/><g><path fill="#ff671d" d="M576.4 294.2c-2 0-3.7-1.6-3.7-3.7 0-4.8 1.4-8.7 4.2-11.4 1.9-1.9 5.5-4.1 11.3-3.9 2 .1 3.7 1.7 3.6 3.7 0 2-1.6 3.6-3.6 3.6-3.6-.1-5.4.9-6.3 1.8-1.3 1.3-2 3.3-2 6.1.1 2.2-1.5 3.8-3.5 3.8z"/></g></svg>