<svg id="a4891f92-4b3c-45c0-ba21-ffb2aacb56ce" data-name="Layer 1" xmlns="http://www.w3.org/2000/svg" viewBox="0 0 600 600"><path d="M228.8,307.19l1.46.13c.33,0,.7.05,1.11.05a12,12,0,0,0,12.76-12.67q0-5.4-3.1-8.24t-8.95-2.84c-1,0-2,.05-2.84.13a29.07,29.07,0,0,0-3.27.58c-.06,1.3-.12,2.9-.18,4.79s-.11,4.23-.14,7,0,6.08,0,9.84v13.15c0,3,0,5.51,0,7.49s.11,3.58.23,4.79a13.32,13.32,0,0,0,.44,2.65,1.88,1.88,0,0,0,.71,1.11,1.94,1.94,0,0,0,.62.27,7.61,7.61,0,0,0,.93.17,14.83,14.83,0,0,0,1.59.14l2.8.13v3.28l-2.88-.18c-.86-.06-1.7-.1-2.53-.13s-1.68-.05-2.57-.05h-6.11c-1,0-2.07,0-3.19.05s-2.34.07-3.64.13l-4.52.18V336l1-.09q1.59-.09,2.61-.18a13.72,13.72,0,0,0,1.64-.22,6.1,6.1,0,0,0,.93-.26,1.14,1.14,0,0,0,.49-.4,6.37,6.37,0,0,0,.49-1.95c.14-1,.26-2.62.35-4.83s.15-5.13.18-8.73,0-8.15,0-13.65q0-5.49,0-9.39t-.18-6.42c-.09-1.68-.21-3-.35-3.86a5.13,5.13,0,0,0-.58-1.86,2.78,2.78,0,0,0-1.55-.79,24.72,24.72,0,0,0-3.68-.45l-1.33-.09v-3.19l5,.14,2.79.09c.68,0,1.19,0,1.55,0h3.81c.77,0,1.64,0,2.61,0l3.5-.14,5.05-.17,5.94-.09a48.36,48.36,0,0,1,6.51.35,15.57,15.57,0,0,1,4.48,1.33,10.42,10.42,0,0,1,4.69,4.34,13.08,13.08,0,0,1,1.78,6.74,14.28,14.28,0,0,1-3.86,10,22.52,22.52,0,0,1-10.76,6.15c.11.18.51.77,1.19,1.78s1.54,2.24,2.57,3.72,2.16,3.1,3.37,4.87,2.39,3.49,3.54,5.14l3.19,4.56c1,1.39,1.73,2.44,2.26,3.15.65.94,1.21,1.7,1.69,2.26a5.34,5.34,0,0,0,1.5,1.28,5.67,5.67,0,0,0,1.73.62,12.08,12.08,0,0,0,2.26.18V339l-3.41-.13c-.86,0-1.54-.05-2-.05h-1.91c-1,0-2.06,0-3.19.05s-2.48.1-4.07.22l-1.37-1.91c-.45-.62-.88-1.25-1.29-1.9l-7.44-11.16q-3-4.53-5.45-8t-5.36-7.49Z" style="fill:#fff"/><path d="M267.61,279.63q4.08.18,6.91.27t5.94.09h2.88c.85,0,1.73,0,2.61-.05s1.86-.07,2.93-.13l3.72-.18v3.19c-1.42.06-2.54.14-3.37.23a6.41,6.41,0,0,0-2,.44,1.9,1.9,0,0,0-1,.8,4.86,4.86,0,0,0-.45,1.37,17.3,17.3,0,0,0-.26,3q-.09,2.4-.18,6.07t-.13,8.24c0,3-.05,6.25-.05,9.62q0,4.33.09,7.09a32.71,32.71,0,0,0,.4,4.51,12.32,12.32,0,0,0,.84,2.93,10.22,10.22,0,0,0,1.42,2.21q4.26,5,13.2,5,6.39,0,10.19-2.44a10.72,10.72,0,0,0,4.79-7.22,27.11,27.11,0,0,0,.53-3.28c.12-1.18.22-2.73.31-4.65s.15-4.36.18-7.31,0-6.71,0-11.26q0-4.33,0-6.95t-.18-4.08a9.28,9.28,0,0,0-.36-2.08,2.16,2.16,0,0,0-.66-1,4.09,4.09,0,0,0-2-.84c-.88-.14-2.36-.28-4.43-.4v-3.19l3.68.18c1,.06,2,.11,2.79.13s1.6.05,2.3.05h2.22c1.59,0,3,0,4.16-.09s2.66-.18,4.43-.35v3.27a29.11,29.11,0,0,0-2.92.27,7.49,7.49,0,0,0-1.86.49,2.64,2.64,0,0,0-1.11.88,5.28,5.28,0,0,0-.66,1.47,12.25,12.25,0,0,0-.27,1.37c-.06.44-.1,1.06-.13,1.86s-.06,1.86-.09,3.19-.08,3.09-.13,5.27-.11,4.92-.14,8.2-.07,7.25-.13,11.92a41.6,41.6,0,0,1-1.28,9.88,15.13,15.13,0,0,1-3.59,6.42,20.09,20.09,0,0,1-8,4.83,33.57,33.57,0,0,1-11.07,1.73,34.13,34.13,0,0,1-10.9-1.64,20.11,20.11,0,0,1-7.89-4.65,12.69,12.69,0,0,1-3.23-5.59,32.36,32.36,0,0,1-.93-8.59l.09-26.58q0-3.81-.14-5.94a6.28,6.28,0,0,0-.79-3.1,3.11,3.11,0,0,0-2.13-1.24,39,39,0,0,0-4.21-.45Z" style="fill:#fff"/><path d="M336.28,335.72c1.54-.06,2.57-.12,3.1-.17a6.28,6.28,0,0,0,1.51-.36l.66-.49a4.75,4.75,0,0,0,.8-.79c.32-.39.77-1,1.33-1.69s1.34-1.78,2.35-3.14l13.82-18.7L352.41,298q-2.13-3.63-4.12-6.65a55.1,55.1,0,0,0-3.41-4.7,6.76,6.76,0,0,0-5.23-2.39h-1.07a8.92,8.92,0,0,0-1.5.18l-.27-3.1,14.89-2.57a26,26,0,0,1,1.95,1.81,18.09,18.09,0,0,1,1.55,1.91c.5.71,1,1.54,1.59,2.48s1.26,2.16,2.09,3.63L366,301.7l10.37-15.33c.65-.95,1.15-1.68,1.51-2.22a10.2,10.2,0,0,0,.79-1.37,3.21,3.21,0,0,0,.31-1.06c0-.33.05-.73.05-1.2v-.71c1.24.06,2.35.11,3.32.13s1.79.05,2.44.05h2.13c.82,0,1.83,0,3-.09v2.75l-.89.09a17.74,17.74,0,0,0-1.86.22,9.33,9.33,0,0,0-1.24.31,2.68,2.68,0,0,0-.93.53c-.27.24-.58.53-.93.89a5,5,0,0,0-.89.93q-.61.75-1.41,1.77l-1.6,2-1.33,1.72L368.09,305.6,380.58,327q2.4,4.08,3.55,5.76a8.17,8.17,0,0,0,1.86,2.13,3.53,3.53,0,0,0,1.55.57c.62.09,1.67.16,3.15.22V339c-.71,0-1.51,0-2.4,0l-2.7-.09c-.92,0-1.8-.05-2.66-.05h-4.87a26.58,26.58,0,0,0-2.7.18c-.36-.59-.68-1.09-1-1.5s-.63-1-1-1.64-.87-1.55-1.46-2.62-1.39-2.51-2.39-4.34l-7.8-14.35-7.62,11.16q-3.9,6-5.4,9c-1,2-1.45,3.42-1.33,4.3-1.42-.06-2.66-.1-3.73-.13s-1.94-.05-2.65-.05h-2c-.79,0-1.7,0-2.7.09Z" style="fill:#fff"/><path d="M410.18,336l3-.13a12,12,0,0,0,1.82-.18,9.39,9.39,0,0,0,1.06-.27,2.54,2.54,0,0,0,.66-.31,2.2,2.2,0,0,0,.71-1.33,34.7,34.7,0,0,0,.36-3.72c.06-.71.1-2,.13-3.94s.06-4.18.09-6.78.06-5.42.09-8.46,0-6.07,0-9.08v-7.85c0-1.21,0-2.55,0-4s-.05-3.3-.05-5.49h-2.39q-5.31,0-8.06.13a14.74,14.74,0,0,0-3.72.49,2.42,2.42,0,0,0-1.6,1.64,21.41,21.41,0,0,0-.62,4.92l-.18,2-3.27-.08c0-.65.08-1.21.08-1.69V290.8q0-3.19-.13-6.16c-.09-2-.19-3.73-.31-5.27q3.9.27,7.05.4c2.09.09,4.09.16,6,.22s3.79.1,5.71.13,4,.05,6.34.05,4.5,0,6.42-.05l5.76-.09q2.88,0,6.2-.17c2.22-.09,4.8-.23,7.76-.4-.18.94-.33,2-.45,3.28s-.22,2.51-.31,3.81-.16,2.57-.22,3.81-.09,2.33-.09,3.27h-3.19l-.09-1.59c-.11-1.54-.22-2.75-.31-3.63a8.45,8.45,0,0,0-.39-2,1.74,1.74,0,0,0-.8-1,6.31,6.31,0,0,0-1.42-.44c-.65-.12-1.23-.21-1.73-.26s-1.19-.11-2.08-.14l-3.5-.09c-1.45,0-3.38,0-5.8,0l-.18,41.38c0,2.13,0,3.79,0,5a12.86,12.86,0,0,0,.31,2.8,2.28,2.28,0,0,0,.8,1.33,4.18,4.18,0,0,0,1.42.53,7.21,7.21,0,0,0,1.59.26l3.46.27v3.19c-1.77-.06-3.28-.12-4.52-.18s-2.35-.1-3.32-.13-1.86-.05-2.66-.05H420.5c-.8,0-1.68,0-2.66.05s-2.07.07-3.28.13-2.67.12-4.38.18Z" style="fill:#fff"/><path d="M489.84,278.31a37.66,37.66,0,0,1,12.8,2,27,27,0,0,1,9.57,5.81,24.63,24.63,0,0,1,6,9.21,34.45,34.45,0,0,1,2.09,12.36A37.35,37.35,0,0,1,518,321.19a30.38,30.38,0,0,1-6.6,10.46,29.61,29.61,0,0,1-10.19,6.73A35,35,0,0,1,488,340.77a36.2,36.2,0,0,1-12.8-2.12,25.32,25.32,0,0,1-9.52-6.21,27.33,27.33,0,0,1-6-9.88,39,39,0,0,1-2.09-13.24,34.92,34.92,0,0,1,2.26-12.89,27.12,27.12,0,0,1,6.47-9.75,28.6,28.6,0,0,1,10.15-6.2A38.64,38.64,0,0,1,489.84,278.31Zm-1.42,4.25q-9.39,0-14.4,6.33t-5,18.3q0,12.06,4.7,20.12,5.13,8.94,15.68,8.94,9.39,0,14.36-6.73t5-19.4q0-13.22-5.27-20.38T488.42,282.56Z" style="fill:#fff"/><path d="M530.59,336.08c1.42-.06,2.56-.14,3.42-.22a9.65,9.65,0,0,0,2-.4,1.93,1.93,0,0,0,1.07-.8,4.57,4.57,0,0,0,.48-1.33,14.73,14.73,0,0,0,.4-3c.09-1.39.15-3.54.18-6.47s.06-6.82.09-11.69,0-11.12,0-18.74c0-2.07,0-3.68,0-4.83a23,23,0,0,0-.18-2.62,1.79,1.79,0,0,0-.53-1.19l-1-.76a6,6,0,0,0-1-.53,7.83,7.83,0,0,0-1.07-.31,13.68,13.68,0,0,0-1.55-.22q-.93-.09-2.43-.18v-3.19c1.89.12,3.51.2,4.87.23s2.8,0,4.34,0,2.6,0,3.55,0,2.09-.11,3.45-.23q4.78,6.21,9.84,12.59t9.92,12.36q4.88,6,9.3,11.25c3,3.52,5.64,6.63,8.07,9.35q-.09-7.62-.09-13.07t0-9.22q0-3.76-.08-6.24c0-1.66-.06-3-.09-4.17s-.08-2.11-.14-3-.11-1.78-.17-2.79a13.54,13.54,0,0,0-.4-1.86,2,2,0,0,0-.89-1.11,5.21,5.21,0,0,0-1.81-.57,29.78,29.78,0,0,0-3-.27l-1.24-.09v-3.19l2.93.14,2.21.09c.65,0,1.29,0,1.91,0H587c.71,0,1.46,0,2.26-.09s1.69-.1,2.7-.13,2.21-.1,3.63-.22v3.28a23.83,23.83,0,0,0-4.61.44,2.85,2.85,0,0,0-1.94,1.33,2.38,2.38,0,0,0-.4.88,14.55,14.55,0,0,0-.27,1.73q-.13,1.2-.18,3.24t-.09,5.31q0,3.29,0,8.07v17.05c0,1.63,0,3.31,0,5s.06,3.72.09,5.94.08,5,.14,8.2l-.18.44c-.71-.18-1.3-.31-1.77-.4l-1.33-.27-1.38-.26-1.81-.31q-9-10.73-15.46-18.43t-11-13.29q-4.56-5.58-7.62-9.4c-2-2.53-3.77-4.75-5.18-6.64l.08,18.7q0,8.24.09,13.06t.22,7.36a12.88,12.88,0,0,0,.45,3.32,2,2,0,0,0,.75,1.07,4.29,4.29,0,0,0,1.82.62c.79.11,2.2.23,4.21.35v3.28c-1.72-.12-3.21-.19-4.48-.22s-2.73,0-4.39,0c-1.95,0-3.69,0-5.22,0s-3.4.1-5.59.22Z" style="fill:#fff"/><path d="M145,336.05l4.07-.18a16.37,16.37,0,0,0,2.45-.24,11.71,11.71,0,0,0,1.43-.36,3.78,3.78,0,0,0,.9-.42,3,3,0,0,0,1-1.79,47.51,47.51,0,0,0,.48-5c.07-1,.13-2.73.18-5.32s.07-5.64.11-9.15.08-7.31.12-11.42.06-8.19.06-12.25V279.32c0-1.64,0-3.45-.06-5.44s-.06-4.47-.06-7.42h-3.22c-4.79,0-8.41.06-10.88.18a20,20,0,0,0-5,.66,3.26,3.26,0,0,0-2.16,2.21,27.82,27.82,0,0,0-.83,6.64l-.24,2.75-4.43-.12c.08-.88.12-1.63.12-2.27v-1.44q0-4.31-.18-8.31t-.42-7.11q5.27.36,9.51.54t8.07.3q3.83.12,7.71.18c2.59,0,5.44.05,8.55.05s6.08,0,8.67-.05l7.77-.12q3.88-.06,8.37-.24c3-.12,6.47-.3,10.46-.54-.24,1.27-.44,2.75-.6,4.42s-.3,3.39-.42,5.14-.22,3.47-.29,5.14-.12,3.15-.12,4.43h-4.31l-.12-2.15c-.16-2.08-.3-3.71-.42-4.91a12.13,12.13,0,0,0-.53-2.75,2.29,2.29,0,0,0-1.08-1.31,7.85,7.85,0,0,0-1.91-.6q-1.32-.24-2.34-.36c-.67-.08-1.61-.14-2.8-.18l-4.73-.12q-2.93-.06-7.83-.06l-.24,55.84q0,4.31.06,6.75a16.65,16.65,0,0,0,.42,3.77,3,3,0,0,0,1.08,1.79,5.22,5.22,0,0,0,1.91.72,9.91,9.91,0,0,0,2.15.36l4.67.36v4.3q-3.6-.12-6.1-.24c-1.68-.08-3.17-.14-4.49-.18s-2.51-.06-3.58-.06H159c-1.07,0-2.27,0-3.58.06s-2.8.1-4.43.18-3.61.16-5.92.24Z" style="fill:#fff"/><polygon points="55.34 289.5 55.34 260.07 29.85 245.36 4.37 260.07 4.37 289.5 29.85 304.21 55.34 289.5" style="fill:#602c91"/><polygon points="113.97 289.5 113.97 260.07 88.49 245.36 63 260.07 63 289.5 88.49 304.21 113.97 289.5" style="fill:#9b7cba"/><polygon points="85.21 339.93 85.21 310.5 59.72 295.79 34.24 310.5 34.24 339.93 59.72 354.64 85.21 339.93" style="fill:#beaed6"/></svg>