<svg id="b073174d-c9c1-4e04-a9e2-181c8f3eeb42" data-name="Layer 1" xmlns="http://www.w3.org/2000/svg" viewBox="0 0 300 300"><g id="f591a75e-87f9-412a-aae4-c3e02b05244f" data-name="VaRDlp.tif"><path d="M204.26,174.7c1.16-1.31,2.19-2.48,3.27-3.72.69.62,1.28,1.17,1.89,1.68a12.94,12.94,0,0,0,11.89,2.57,8,8,0,0,0,6.29-6.69,38.13,38.13,0,0,0,.42-7,12.23,12.23,0,0,1-11.1,4.64,14,14,0,0,1-9.89-4.77c-4.89-5.63-4.24-15.58,1.31-20.29A13.82,13.82,0,0,1,228,142.89v-4.25h4.66v1.54c0,8.28,0,16.55,0,24.83a21.44,21.44,0,0,1-.42,4.23c-1.27,6.1-5.22,9.67-11.49,10.47-5.39.68-10.44-.12-14.82-3.59C205.36,175.72,204.89,175.26,204.26,174.7ZM208.74,152a9.61,9.61,0,0,0,9.31,10,9.43,9.43,0,0,0,10-9.58c.13-5.93-3.76-10.18-9.43-10.29S208.84,146.11,208.74,152Z" style="fill:#fff"/><path d="M86.52,179.17V138.63h4.41v3.87c.56-.48.89-.75,1.2-1,4.09-3.86,8.88-4.47,14-2.76s8,5.42,8.93,10.63A14.45,14.45,0,0,1,111,162.89c-5.94,5.82-15.77,4.38-19.42-1.14-.07-.11-.21-.17-.49-.39v17.81Zm23.84-26.75c.11-5.89-3.76-10.17-9.29-10.3-5.79-.13-9.93,4-10,9.92s3.89,10.21,9.5,10.29S110.26,158.38,110.36,152.42Z" style="fill:#fff"/><path d="M201.67,153.68H179.82c.53,3.78,2.16,6.69,5.67,8,4.65,1.7,8.67.39,12-3.42l3.43,2.65a11.93,11.93,0,0,1-4.73,4.11c-5.24,2.33-10.51,2.5-15.4-.75-8.37-5.56-7.7-19.72,1.05-24.64,5.37-3,12.6-2.14,16.5,2C201,144.45,202.35,149.31,201.67,153.68Zm-21.76-4h16.93a7.33,7.33,0,0,0-7.15-7.5C184.32,141.8,180.64,144.58,179.91,149.65Z" style="fill:#fff"/><path d="M145.77,166.58c-8.6,0-14.52-5.92-14.5-14.44s6-14.3,14.67-14.28,14.6,6,14.55,14.45S154.37,166.61,145.77,166.58Zm9.7-14.39c0-4.88-2.69-8.64-6.94-9.74a9.56,9.56,0,0,0-12.3,8.59c-.5,5.21,2.29,9.71,6.79,10.93C149.75,163.8,155.48,159.3,155.47,152.19Z" style="fill:#fff"/><path d="M273.07,138.54c1.72,0,3.24-.09,4.73.05.4,0,.89.72,1.08,1.2,2.49,6.21,4.94,12.44,7.4,18.66.15.38.32.75.61,1.44.3-.72.52-1.19.7-1.67,2.32-6.12,4.67-12.23,6.93-18.37.39-1,.88-1.43,2-1.34s2.23,0,3.51,0c-.21.63-.36,1.15-.56,1.65q-6.26,15.93-12.53,31.86a29.83,29.83,0,0,1-1.65,3.59,8.84,8.84,0,0,1-11.6,3.5l.54-3.76c1,.11,2,.25,2.92.29a4.38,4.38,0,0,0,4.62-2.79c.88-2.05,1.68-4.14,2.38-6.25a3.08,3.08,0,0,0-.31-1.87q-5-12.25-10.07-24.49C273.53,139.76,273.35,139.25,273.07,138.54Z" style="fill:#fff"/><path d="M260.79,130.85h4.51v7.66h6.52v3.9h-6.43c0,.6-.09,1-.09,1.48q0,6.33,0,12.65c0,.3,0,.61,0,.91.17,4.28,2.09,5.69,6.29,4.62l1.81-.47c0,.5.08.9.09,1.31.1,3.09.11,3.18-3,3.52a19.7,19.7,0,0,1-4.85-.11c-2.63-.37-4.08-2.11-4.58-4.64a17,17,0,0,1-.34-3.17q0-13.35,0-26.68C260.72,131.53,260.76,131.23,260.79,130.85Z" style="fill:#fff"/><path d="M167.06,130.9v7.62h6.39v3.89h-6.26a6.76,6.76,0,0,0-.16,1c0,4.62,0,9.24,0,13.86.05,4.47,2,5.93,6.38,4.79l1.87-.5c0,1.25.06,2.35,0,3.44a1.29,1.29,0,0,1-.75.92,13.3,13.3,0,0,1-8.09.19,5.27,5.27,0,0,1-3.63-4.49,16.87,16.87,0,0,1-.32-3.17c0-8.89,0-17.77,0-26.65,0-.26,0-.51,0-.88Z" style="fill:#fff"/><path d="M239.83,142.52c4.28-4.12,7.83-5.47,11-4.18-.1,1.41-.2,2.86-.3,4.41-.75-.09-1.38-.21-2-.24-4.75-.29-8,2.8-8.25,8.13-.21,4.5-.1,9-.13,13.55,0,.54,0,1.09,0,1.7h-4.6V138.65h4Z" style="fill:#fff"/><path d="M117.53,138.6h4.07l.23,3.5a48.75,48.75,0,0,1,5-3.42,8.65,8.65,0,0,1,6.05-.58l-.29,4.53c-1-.06-1.89-.17-2.78-.16a6.73,6.73,0,0,0-6.87,5,20.54,20.54,0,0,0-.76,5.24c-.11,3.86,0,7.72,0,11.58v1.57h-4.59Z" style="fill:#fff"/><path d="M253.64,165.82V138.6h4.42v27.22Z" style="fill:#fff"/><path d="M259.18,127.88a3.15,3.15,0,0,1-3.35,3.33,3.22,3.22,0,0,1-3.35-3.21,3.4,3.4,0,0,1,3.31-3.48A3.34,3.34,0,0,1,259.18,127.88Z" style="fill:#fff"/></g><path d="M36,124.89H36a58,58,0,0,1,32.34,9.61,36,36,0,0,0-64.92.1A57.8,57.8,0,0,1,36,124.89Z" style="fill:#e41b23"/><path d="M68.52,134.8a65.23,65.23,0,0,1-9.47,27.93c-7.33,11.5-18.76,20.64-22.13,23.21a36,36,0,0,0,31.6-51.14Z" style="fill:#e41b23"/><path d="M12.93,162.73a64.93,64.93,0,0,1-9.48-28.1A36,36,0,0,0,35,185.94C31.63,183.38,20.26,174.23,12.93,162.73Z" style="fill:#e41b23"/></svg>