<svg id="Layer_1" data-name="Layer 1" xmlns="http://www.w3.org/2000/svg" viewBox="0 0 300 300"><defs><style>.cls-1{fill:#fff;}.cls-2{fill:#357bff;}.cls-3{fill:#ff7436;}</style></defs><path id="cinaa" class="cls-1" d="M158.2,175.54l-21-36.57h-.14v36.57h-9.32V125.23h10.59l20.83,36.57h.14V125.23h9.29v50.31Zm52.64-14.82H181.52a10.92,10.92,0,0,0,10.39,7.76,9.41,9.41,0,0,0,8.73-4.84h9.52a19.78,19.78,0,1,1-19-27.13h.69a19.38,19.38,0,0,1,19.59,19.16A19.64,19.64,0,0,1,210.84,160.72Zm-18.9-15.92c-5.52,0-9.4,3.26-10.68,8.64h20.88C201.23,148,197.44,144.8,191.94,144.8Zm42.29,30.74-8.07-12.92-8,12.92H207.38l13.4-19.44-11.7-18.3h10.14l6.94,11.34L233,137.8h10.14l-11.7,18.3L245,175.54Zm12.84,0V125.23h9.06v50.31Zm43.91,0v-4.71a18.59,18.59,0,0,1-13.18,5.95c-11.36,0-18.35-9.63-18.35-20.34s7.73-19.94,18.89-19.94A16.61,16.61,0,0,1,289.5,141a10.33,10.33,0,0,1,1.36,1.55H291V137.8h8.3v37.74ZM279.7,144.8c-6.74,0-11.22,5.58-11.22,12a11.33,11.33,0,0,0,11,11.61h.17c6.74,0,11-5.43,11-11.89S286.36,144.8,279.7,144.8Z"/><path id="cinab" class="cls-2" d="M8.77,165.79l26.57-30.2a6,6,0,0,1,8.28-.36l16.54,15.49,7.73-8.27L51.35,127a17.29,17.29,0,0,0-24.42,1l-.08.1L.27,158.31Z"/><path id="cinac" class="cls-3" d="M93.36,128.06,66.79,158.29a5.94,5.94,0,0,1-8.24.34L42,143.16l-7.73,8.3L50.78,166.9a17.29,17.29,0,0,0,24.42-1l.12-.13,26.57-30.22Z"/></svg>