<svg id="b9c5b41d-399e-4dba-86ec-d3e61c78688e" data-name="Layer 1" xmlns="http://www.w3.org/2000/svg" viewBox="0 0 300 71.88"><g id="ae830f7e-a34e-48ea-a814-53243eac7544" data-name="VaRDlp.tif"><path d="M204.26,60.64c1.16-1.31,2.19-2.48,3.27-3.72.69.62,1.28,1.17,1.89,1.68a12.94,12.94,0,0,0,11.89,2.57,8,8,0,0,0,6.29-6.69,38.13,38.13,0,0,0,.42-7,12.23,12.23,0,0,1-11.1,4.64A14,14,0,0,1,207,47.38c-4.89-5.64-4.24-15.58,1.31-20.29A13.82,13.82,0,0,1,228,28.83V24.58h4.66v1.54c0,8.27,0,16.55,0,24.83a21.52,21.52,0,0,1-.42,4.23c-1.27,6.1-5.22,9.67-11.49,10.46-5.39.69-10.44-.11-14.82-3.58C205.36,61.66,204.89,61.2,204.26,60.64Zm4.48-22.71a9.61,9.61,0,0,0,9.31,10,9.43,9.43,0,0,0,10-9.58c.13-5.93-3.76-10.18-9.43-10.29S208.84,32.05,208.74,37.93Z" style="fill:#fff"/><path d="M86.52,65.11V24.57h4.41v3.87c.56-.49.89-.75,1.2-1,4.09-3.86,8.88-4.47,14-2.76s8,5.42,8.93,10.63A14.45,14.45,0,0,1,111,48.83c-5.94,5.82-15.77,4.38-19.42-1.14-.07-.11-.21-.17-.49-.39V65.11Zm23.84-26.75c.11-5.89-3.76-10.17-9.29-10.3-5.79-.13-9.93,4-10,9.91s3.89,10.22,9.5,10.3S110.26,44.32,110.36,38.36Z" style="fill:#fff"/><path d="M201.67,39.61H179.82c.53,3.79,2.16,6.7,5.67,8,4.65,1.71,8.67.4,12-3.42l3.43,2.65a11.78,11.78,0,0,1-4.73,4.11c-5.24,2.34-10.51,2.51-15.4-.75-8.37-5.55-7.7-19.71,1.05-24.64,5.37-3,12.6-2.13,16.5,2C201,30.38,202.35,35.25,201.67,39.61Zm-21.76-4h16.93a7.33,7.33,0,0,0-7.15-7.5C184.32,27.74,180.64,30.52,179.91,35.59Z" style="fill:#fff"/><path d="M145.77,52.52c-8.6,0-14.52-5.93-14.5-14.44s6-14.3,14.67-14.28,14.6,6.05,14.55,14.45S154.37,52.55,145.77,52.52Zm9.7-14.39c0-4.88-2.69-8.64-6.94-9.75a9.56,9.56,0,0,0-12.3,8.6c-.5,5.21,2.29,9.71,6.79,10.93C149.75,49.74,155.48,45.24,155.47,38.13Z" style="fill:#fff"/><path d="M273.07,24.48c1.72,0,3.24-.09,4.73.05.4,0,.89.71,1.08,1.2,2.49,6.21,4.94,12.44,7.4,18.66.15.38.32.74.61,1.44.3-.72.52-1.19.7-1.68,2.32-6.11,4.67-12.22,6.93-18.36.39-1,.88-1.43,2-1.34s2.23,0,3.51,0c-.21.63-.36,1.15-.56,1.65Q293.18,42.05,286.91,58a29.83,29.83,0,0,1-1.65,3.59,8.84,8.84,0,0,1-11.6,3.5l.54-3.76c1,.1,2,.24,2.92.29a4.38,4.38,0,0,0,4.62-2.79c.88-2.05,1.68-4.14,2.38-6.25a3.08,3.08,0,0,0-.31-1.87q-5-12.25-10.07-24.49C273.53,25.7,273.35,25.19,273.07,24.48Z" style="fill:#fff"/><path d="M260.79,16.79h4.51v7.65h6.52v3.91h-6.43c0,.6-.09,1-.09,1.48q0,6.31,0,12.65c0,.3,0,.61,0,.91.17,4.28,2.09,5.69,6.29,4.61.58-.14,1.16-.3,1.81-.47,0,.51.08.91.09,1.31.1,3.1.11,3.19-3,3.53a19.7,19.7,0,0,1-4.85-.11c-2.63-.37-4.08-2.11-4.58-4.64a17,17,0,0,1-.34-3.18q0-13.33,0-26.67C260.72,17.47,260.76,17.17,260.79,16.79Z" style="fill:#fff"/><path d="M167.06,16.83v7.63h6.39v3.88h-6.26a7.09,7.09,0,0,0-.16,1c0,4.62,0,9.24,0,13.86s2,5.93,6.38,4.79l1.87-.5c0,1.25.06,2.35,0,3.44a1.31,1.31,0,0,1-.75.92,13.38,13.38,0,0,1-8.09.19,5.27,5.27,0,0,1-3.63-4.49,16.87,16.87,0,0,1-.32-3.17c0-8.89,0-17.77,0-26.66,0-.25,0-.5,0-.88Z" style="fill:#fff"/><path d="M239.83,28.46c4.28-4.12,7.83-5.47,11-4.18-.1,1.41-.2,2.86-.3,4.41-.75-.09-1.38-.21-2-.25-4.75-.28-8,2.81-8.25,8.13-.21,4.51-.1,9-.13,13.55,0,.55,0,1.1,0,1.7h-4.6V24.59h4Z" style="fill:#fff"/><path d="M117.53,24.54h4.07l.23,3.5a48.75,48.75,0,0,1,5-3.42,8.6,8.6,0,0,1,6.05-.58l-.29,4.53c-1-.06-1.89-.17-2.78-.16a6.73,6.73,0,0,0-6.87,5,20.54,20.54,0,0,0-.76,5.24c-.11,3.86,0,7.72,0,11.58v1.57h-4.59Z" style="fill:#fff"/><path d="M253.64,51.76V24.54h4.42V51.76Z" style="fill:#fff"/><path d="M259.18,13.82a3.15,3.15,0,0,1-3.35,3.33,3.22,3.22,0,0,1-3.35-3.21,3.41,3.41,0,0,1,3.31-3.49A3.36,3.36,0,0,1,259.18,13.82Z" style="fill:#fff"/></g><path d="M36,10.83H36a58,58,0,0,1,32.34,9.61,36,36,0,0,0-64.92.1A57.8,57.8,0,0,1,36,10.83Z" style="fill:#e41b23"/><path d="M68.52,20.74a65.23,65.23,0,0,1-9.47,27.93c-7.33,11.5-18.76,20.64-22.13,23.21a36,36,0,0,0,31.6-51.14Z" style="fill:#e41b23"/><path d="M12.93,48.67a65,65,0,0,1-9.48-28.1A36,36,0,0,0,35,71.88C31.63,69.31,20.26,60.17,12.93,48.67Z" style="fill:#e41b23"/></svg>