<svg id="a3122892-4c63-42c4-bf7c-99986183b1b9" data-name="final artwork" xmlns="http://www.w3.org/2000/svg" viewBox="0 0 420.48 420.48">
  <defs>
    <style>
      .b1032eb8-b5a8-4e74-9cef-0053b4d184f3 {
        fill: #ae132a;
      }

      .a8f0ac66-813f-4f8e-b315-7f24163d0cdb {
        fill: #65bd60;
      }

      .a76cf36c-a768-4cf2-acda-4404a85c7f78 {
        fill: #ffce34;
      }

      .b60c74c0-15bd-4841-ad9c-ee3d3e9a873e {
        fill: #0099d8;
      }

      .fbc3e28c-3ec6-415d-92a2-33659d801d7b {
        fill: #fff;
      }
    </style>
  </defs>
  <g>
    <path class="b1032eb8-b5a8-4e74-9cef-0053b4d184f3" d="M253.31,282.92c1.24-.4,2.49-.83,3.73-1.27-1.24.44-2.49.87-3.73,1.27Z"/>
    <path class="b1032eb8-b5a8-4e74-9cef-0053b4d184f3" d="M253.31,11.13c1.24.41,2.48.83,3.71,1.27C255.79,12,254.55,11.54,253.31,11.13Z"/>
    <path class="b1032eb8-b5a8-4e74-9cef-0053b4d184f3" d="M257.19,12.46q1.86.66,3.69,1.38Q259.05,13.12,257.19,12.46Z"/>
    <path class="b1032eb8-b5a8-4e74-9cef-0053b4d184f3" d="M260.91,280.2h0c-1.23.48-2.48.95-3.72,1.4C258.43,281.15,259.68,280.68,260.91,280.2Z"/>
    <path class="b1032eb8-b5a8-4e74-9cef-0053b4d184f3" d="M242.62,8.1c1.26.31,2.53.63,3.76,1C245.15,8.73,243.88,8.41,242.62,8.1Z"/>
    <path class="b1032eb8-b5a8-4e74-9cef-0053b4d184f3" d="M250.21,10.15c-1.24-.37-2.49-.72-3.75-1.06,1.26.34,2.51.69,3.75,1.06Z"/>
    <path class="b1032eb8-b5a8-4e74-9cef-0053b4d184f3" d="M246.36,285c-1.24.34-2.49.65-3.74,1C243.87,285.64,245.12,285.33,246.36,285Z"/>
    <path class="b1032eb8-b5a8-4e74-9cef-0053b4d184f3" d="M250.21,283.9h0c-1.23.36-2.48.72-3.72,1.06C247.74,284.62,249,284.26,250.21,283.9Z"/>
    <path class="b1032eb8-b5a8-4e74-9cef-0053b4d184f3" d="M231.89,5.94h0c1.28.21,2.55.43,3.81.67C234.44,6.37,233.17,6.15,231.89,5.94Z"/>
    <path class="b1032eb8-b5a8-4e74-9cef-0053b4d184f3" d="M239.49,286.67c-1.24.27-2.48.53-3.73.76C237,287.2,238.25,286.94,239.49,286.67Z"/>
    <path class="b1032eb8-b5a8-4e74-9cef-0053b4d184f3" d="M235.73,6.62c1.26.24,2.51.49,3.76.76C238.24,7.11,237,6.86,235.73,6.62Z"/>
    <path class="b1032eb8-b5a8-4e74-9cef-0053b4d184f3" d="M235.69,287.44c-1.25.24-2.49.46-3.74.66C233.2,287.9,234.44,287.68,235.69,287.44Z"/>
    <path class="b1032eb8-b5a8-4e74-9cef-0053b4d184f3" d="M221.19,289.43q1.92-.17,3.81-.39-1.89.22-3.81.39Z"/>
    <path class="b1032eb8-b5a8-4e74-9cef-0053b4d184f3" d="M221.21,4.63c1.27.11,2.53.23,3.77.37C223.74,4.86,222.48,4.74,221.21,4.63Z"/>
    <path class="b1032eb8-b5a8-4e74-9cef-0053b4d184f3" d="M228.8,5.48c-1.25-.17-2.5-.33-3.76-.47,1.26.14,2.51.3,3.76.47Z"/>
    <path class="b1032eb8-b5a8-4e74-9cef-0053b4d184f3" d="M228.76,288.57c-1.23.18-2.48.33-3.74.47C226.28,288.9,227.53,288.75,228.76,288.57Z"/>
    <path class="b1032eb8-b5a8-4e74-9cef-0053b4d184f3" d="M210.49,289.93c1.26,0,2.53-.05,3.79-.09-1.26,0-2.53.07-3.79.09Z"/>
    <path class="b1032eb8-b5a8-4e74-9cef-0053b4d184f3" d="M218.1,4.4c-1.25-.08-2.51-.14-3.78-.19,1.27,0,2.53.11,3.78.19Z"/>
    <path class="b1032eb8-b5a8-4e74-9cef-0053b4d184f3" d="M218.06,289.65c-1.24.09-2.48.14-3.73.19C215.58,289.79,216.82,289.74,218.06,289.65Z"/>
    <path class="b1032eb8-b5a8-4e74-9cef-0053b4d184f3" d="M210.49,4.12h0c1.26,0,2.53,0,3.79.09C213,4.16,211.75,4.13,210.49,4.12Z"/>
    <path class="b1032eb8-b5a8-4e74-9cef-0053b4d184f3" d="M207.39,289.93h0c-1.26,0-2.53-.05-3.79-.09C204.86,289.88,206.13,289.91,207.39,289.93Z"/>
    <path class="b1032eb8-b5a8-4e74-9cef-0053b4d184f3" d="M207.39,4.12c-1.27,0-2.53,0-3.8.09,1.27,0,2.53-.08,3.8-.09Z"/>
    <path class="b1032eb8-b5a8-4e74-9cef-0053b4d184f3" d="M203.55,289.84c-1.25,0-2.49-.1-3.73-.19C201.06,289.74,202.3,289.79,203.55,289.84Z"/>
    <path class="b1032eb8-b5a8-4e74-9cef-0053b4d184f3" d="M199.78,4.4h0c1.26-.08,2.51-.14,3.78-.19C202.29,4.26,201,4.32,199.78,4.4Z"/>
    <path class="b1032eb8-b5a8-4e74-9cef-0053b4d184f3" d="M196.69,289.43h0q-3.83-.33-7.58-.86Q192.86,289.1,196.69,289.43Z"/>
    <path class="b1032eb8-b5a8-4e74-9cef-0053b4d184f3" d="M189.08,5.48h0c1.25-.17,2.51-.33,3.77-.47C191.59,5.15,190.33,5.31,189.08,5.48Z"/>
    <path class="b1032eb8-b5a8-4e74-9cef-0053b4d184f3" d="M192.89,5c1.25-.14,2.52-.26,3.79-.37C195.41,4.74,194.14,4.86,192.89,5Z"/>
    <path class="b1032eb8-b5a8-4e74-9cef-0053b4d184f3" d="M186,5.94c-1.28.21-2.54.43-3.8.67,1.26-.24,2.52-.46,3.8-.67Z"/>
    <path class="b1032eb8-b5a8-4e74-9cef-0053b4d184f3" d="M178.37,286.66c1.26.28,2.51.54,3.78.77-1.27-.23-2.52-.49-3.78-.77Z"/>
    <path class="b1032eb8-b5a8-4e74-9cef-0053b4d184f3" d="M186,288.1c-1.27-.2-2.53-.42-3.78-.67C183.43,287.67,184.69,287.9,186,288.1Z"/>
    <path class="b1032eb8-b5a8-4e74-9cef-0053b4d184f3" d="M178.37,7.38h0c1.26-.27,2.5-.52,3.77-.76C180.87,6.86,179.63,7.11,178.37,7.38Z"/>
    <path class="b1032eb8-b5a8-4e74-9cef-0053b4d184f3" d="M175.28,286h0c-1.26-.31-2.52-.64-3.77-1C172.76,285.32,174,285.65,175.28,286Z"/>
    <path class="b1032eb8-b5a8-4e74-9cef-0053b4d184f3" d="M167.67,283.9c1.24.36,2.49.72,3.75,1.06-1.26-.34-2.51-.7-3.75-1.06Z"/>
    <path class="b1032eb8-b5a8-4e74-9cef-0053b4d184f3" d="M175.28,8.1c-1.26.3-2.52.62-3.77,1,1.25-.34,2.51-.66,3.77-1Z"/>
    <path class="b1032eb8-b5a8-4e74-9cef-0053b4d184f3" d="M167.68,10.15c1.24-.37,2.48-.72,3.73-1.06C170.16,9.43,168.92,9.78,167.68,10.15Z"/>
    <path class="b1032eb8-b5a8-4e74-9cef-0053b4d184f3" d="M160.7,281.6c-1.23-.45-2.46-.91-3.67-1.38C158.24,280.69,159.47,281.15,160.7,281.6Z"/>
    <path class="b1032eb8-b5a8-4e74-9cef-0053b4d184f3" d="M157,13.85h0c1.23-.48,2.48-.95,3.73-1.4C159.45,12.9,158.2,13.37,157,13.85Z"/>
    <path class="b1032eb8-b5a8-4e74-9cef-0053b4d184f3" d="M164.57,282.92c-1.25-.41-2.5-.84-3.73-1.28C162.07,282.08,163.32,282.51,164.57,282.92Z"/>
    <path class="b1032eb8-b5a8-4e74-9cef-0053b4d184f3" d="M160.83,12.41c1.23-.44,2.48-.87,3.74-1.28C163.31,11.54,162.06,12,160.83,12.41Z"/>
    <path class="a8f0ac66-813f-4f8e-b315-7f24163d0cdb" d="M218.1,94.64l-.41.41-.64.64c1.4.22,2.77.5,4.11.82L218.69,94h0l-.59.6Z"/>
    <path class="a76cf36c-a768-4cf2-acda-4404a85c7f78" d="M135.44,147l5.38,5.37,2.19,2.19L148.4,160l2.18,2.19,5.38,5.37h0l1,1h0l1.18,1.18,5.38,5.38,2.18,2.19,5.39,5.38,1.05,1a51.77,51.77,0,0,1-13.72-24.48L156,156.78h0l-.6-.6-1.59-1.59-5.37-5.37-.65-.65L146.21,147l-5.39-5.39L137,137.87l-3.09-3.1-7.6-7.6-3.1-3.1-7.61-7.61-3.09-3.09-7.61-7.62-3.1-3.09-7.61-7.61L81.48,82.3s0,0,0,0c-.59,1.18-1.17,2.37-1.74,3.56a1.3,1.3,0,0,0-.08.17c-.55,1.17-1.09,2.36-1.61,3.55h0l5.44,5.45h0l7.61,7.61h0l3.09,3.09h0l7.62,7.62h0l3.09,3.09h0l7.61,7.61h0l3.09,3.1h0l7.62,7.6h0l3.08,3.1h0l7.61,7.61h0l1.55,1.55Z"/>
    <polygon class="b1032eb8-b5a8-4e74-9cef-0053b4d184f3" points="260.91 95.05 260.91 92.86 258.73 95.05 260.91 95.05"/>
    <polygon class="b1032eb8-b5a8-4e74-9cef-0053b4d184f3" points="260.91 95.05 260.91 92.86 258.73 95.05 260.91 95.05"/>
    <polygon class="a8f0ac66-813f-4f8e-b315-7f24163d0cdb" points="258.73 95.05 258.73 95.05 260.91 92.86 260.91 92.86 258.73 95.05"/>
    <polygon class="b1032eb8-b5a8-4e74-9cef-0053b4d184f3" points="258.73 95.05 258.73 95.05 260.91 92.86 260.91 92.86 258.73 95.05"/>
    <polygon class="b1032eb8-b5a8-4e74-9cef-0053b4d184f3" points="253.31 11.13 253.31 11.13 253.31 11.13 253.31 11.13"/>
    <path class="b1032eb8-b5a8-4e74-9cef-0053b4d184f3" d="M260.91,13.85h0Z"/>
    <path class="b1032eb8-b5a8-4e74-9cef-0053b4d184f3" d="M257,12.4l.17.06Z"/>
    <path class="b1032eb8-b5a8-4e74-9cef-0053b4d184f3" d="M260.91,13.85h0q-1.83-.72-3.69-1.38L257,12.4c-1.23-.44-2.47-.86-3.71-1.27h0v18l7.6-7.62Z"/>
    <path class="b1032eb8-b5a8-4e74-9cef-0053b4d184f3" d="M260.91,13.85h0q-1.83-.72-3.69-1.38L257,12.4c-1.23-.44-2.47-.86-3.71-1.27h0v18l7.6-7.62Z"/>
    <polygon class="b1032eb8-b5a8-4e74-9cef-0053b4d184f3" points="253.31 178.44 255.56 180.68 259.92 180.68 256.83 177.59 253.31 177.59 253.31 178.44"/>
    <polygon class="b1032eb8-b5a8-4e74-9cef-0053b4d184f3" points="253.31 178.44 255.56 180.68 259.92 180.68 256.83 177.59 253.31 177.59 253.31 178.44"/>
    <polygon class="b1032eb8-b5a8-4e74-9cef-0053b4d184f3" points="253.31 89.71 260.91 82.1 260.91 77.73 253.31 85.34 253.31 89.71"/>
    <polygon class="b1032eb8-b5a8-4e74-9cef-0053b4d184f3" points="253.31 89.71 260.91 82.1 260.91 77.73 253.31 85.34 253.31 89.71"/>
    <polygon class="b1032eb8-b5a8-4e74-9cef-0053b4d184f3" points="253.31 223.85 260.91 231.46 260.91 227.08 253.31 219.47 253.31 223.85"/>
    <polygon class="b1032eb8-b5a8-4e74-9cef-0053b4d184f3" points="253.31 223.85 260.91 231.46 260.91 227.08 253.31 219.47 253.31 223.85"/>
    <polygon class="b1032eb8-b5a8-4e74-9cef-0053b4d184f3" points="253.31 59.44 260.91 51.83 260.91 47.46 253.31 55.06 253.31 59.44"/>
    <polygon class="b1032eb8-b5a8-4e74-9cef-0053b4d184f3" points="253.31 59.44 260.91 51.83 260.91 47.46 253.31 55.06 253.31 59.44"/>
    <polygon class="a8f0ac66-813f-4f8e-b315-7f24163d0cdb" points="253.31 59.44 260.91 51.83 260.91 51.83 253.31 59.44 253.31 59.44"/>
    <polygon class="b1032eb8-b5a8-4e74-9cef-0053b4d184f3" points="253.31 59.44 260.91 51.83 260.91 51.83 253.31 59.44 253.31 59.44"/>
    <polygon class="a8f0ac66-813f-4f8e-b315-7f24163d0cdb" points="253.31 55.06 253.31 55.06 260.91 47.46 260.91 47.46 253.31 55.06"/>
    <polygon class="b1032eb8-b5a8-4e74-9cef-0053b4d184f3" points="253.31 55.06 253.31 55.06 260.91 47.46 260.91 47.46 253.31 55.06"/>
    <polygon class="b1032eb8-b5a8-4e74-9cef-0053b4d184f3" points="260.91 168.55 259.73 169.73 259.98 169.98 260.91 169.98 260.91 168.55"/>
    <polygon class="b1032eb8-b5a8-4e74-9cef-0053b4d184f3" points="260.91 168.55 259.73 169.73 259.98 169.98 260.91 169.98 260.91 168.55"/>
    <polygon class="b1032eb8-b5a8-4e74-9cef-0053b4d184f3" points="253.31 208.71 260.91 216.33 260.91 211.95 253.31 204.34 253.31 208.71"/>
    <polygon class="b1032eb8-b5a8-4e74-9cef-0053b4d184f3" points="253.31 208.71 260.91 216.33 260.91 211.95 253.31 204.34 253.31 208.71"/>
    <polygon class="b1032eb8-b5a8-4e74-9cef-0053b4d184f3" points="255.49 191.39 253.31 189.2 253.31 191.39 255.49 191.39"/>
    <polygon class="b1032eb8-b5a8-4e74-9cef-0053b4d184f3" points="255.49 191.39 253.31 189.2 253.31 191.39 255.49 191.39"/>
    <polygon class="b1032eb8-b5a8-4e74-9cef-0053b4d184f3" points="256.83 116.46 259.92 113.37 255.56 113.37 253.31 115.61 253.31 116.46 256.83 116.46"/>
    <polygon class="b1032eb8-b5a8-4e74-9cef-0053b4d184f3" points="256.83 116.46 259.92 113.37 255.56 113.37 253.31 115.61 253.31 116.46 256.83 116.46"/>
    <polygon class="b1032eb8-b5a8-4e74-9cef-0053b4d184f3" points="253.31 254.12 260.91 261.74 260.91 257.36 253.31 249.75 253.31 254.12"/>
    <polygon class="b1032eb8-b5a8-4e74-9cef-0053b4d184f3" points="253.31 254.12 260.91 261.74 260.91 257.36 253.31 249.75 253.31 254.12"/>
    <polygon class="b1032eb8-b5a8-4e74-9cef-0053b4d184f3" points="260.91 201.19 260.91 199 258.73 199 260.91 201.19"/>
    <polygon class="b1032eb8-b5a8-4e74-9cef-0053b4d184f3" points="260.91 201.19 260.91 199 258.73 199 260.91 201.19"/>
    <polygon class="a76cf36c-a768-4cf2-acda-4404a85c7f78" points="258.73 199 260.91 201.19 260.91 201.19 258.73 199 258.73 199"/>
    <polygon class="b1032eb8-b5a8-4e74-9cef-0053b4d184f3" points="258.73 199 260.91 201.19 260.91 201.19 258.73 199 258.73 199"/>
    <polygon class="b1032eb8-b5a8-4e74-9cef-0053b4d184f3" points="253.31 44.3 260.91 36.69 260.91 32.32 253.31 39.93 253.31 44.3"/>
    <polygon class="b1032eb8-b5a8-4e74-9cef-0053b4d184f3" points="253.31 44.3 260.91 36.69 260.91 32.32 253.31 39.93 253.31 44.3"/>
    <polygon class="b1032eb8-b5a8-4e74-9cef-0053b4d184f3" points="255.49 102.66 253.31 102.66 253.31 104.85 255.49 102.66"/>
    <polygon class="b1032eb8-b5a8-4e74-9cef-0053b4d184f3" points="255.49 102.66 253.31 102.66 253.31 104.85 255.49 102.66"/>
    <path class="b1032eb8-b5a8-4e74-9cef-0053b4d184f3" d="M257.19,281.6l-.15,0Z"/>
    <path class="b1032eb8-b5a8-4e74-9cef-0053b4d184f3" d="M253.31,282.92c1.24-.4,2.49-.83,3.73-1.27l.15,0c1.24-.45,2.49-.92,3.72-1.4v-7.7l-7.6-7.62Z"/>
    <path class="b1032eb8-b5a8-4e74-9cef-0053b4d184f3" d="M253.31,282.92c1.24-.4,2.49-.83,3.73-1.27l.15,0c1.24-.45,2.49-.92,3.72-1.4v-7.7l-7.6-7.62Z"/>
    <polygon class="b1032eb8-b5a8-4e74-9cef-0053b4d184f3" points="253.31 74.58 260.91 66.96 260.91 62.59 253.31 70.2 253.31 74.58"/>
    <polygon class="b1032eb8-b5a8-4e74-9cef-0053b4d184f3" points="253.31 74.58 260.91 66.96 260.91 62.59 253.31 70.2 253.31 74.58"/>
    <polygon class="b1032eb8-b5a8-4e74-9cef-0053b4d184f3" points="253.31 238.99 260.91 246.6 260.91 242.22 253.31 234.61 253.31 238.99"/>
    <polygon class="b1032eb8-b5a8-4e74-9cef-0053b4d184f3" points="253.31 238.99 260.91 246.6 260.91 242.22 253.31 234.61 253.31 238.99"/>
    <polygon class="a76cf36c-a768-4cf2-acda-4404a85c7f78" points="253.31 234.61 253.31 234.61 260.91 242.22 260.91 242.22 253.31 234.61"/>
    <polygon class="b1032eb8-b5a8-4e74-9cef-0053b4d184f3" points="253.31 234.61 253.31 234.61 260.91 242.22 260.91 242.22 253.31 234.61"/>
    <polygon class="a76cf36c-a768-4cf2-acda-4404a85c7f78" points="253.31 238.99 260.91 246.6 260.91 246.6 253.31 238.99 253.31 238.99"/>
    <polygon class="b1032eb8-b5a8-4e74-9cef-0053b4d184f3" points="253.31 238.99 260.91 246.6 260.91 246.6 253.31 238.99 253.31 238.99"/>
    <polygon class="b1032eb8-b5a8-4e74-9cef-0053b4d184f3" points="260.91 124.07 259.98 124.07 259.73 124.32 260.91 125.49 260.91 124.07"/>
    <polygon class="b1032eb8-b5a8-4e74-9cef-0053b4d184f3" points="260.91 124.07 259.98 124.07 259.73 124.32 260.91 125.49 260.91 124.07"/>
    <polygon class="b1032eb8-b5a8-4e74-9cef-0053b4d184f3" points="250.21 77.67 250.21 73.3 242.6 80.91 242.6 85.28 250.21 77.67"/>
    <polygon class="b1032eb8-b5a8-4e74-9cef-0053b4d184f3" points="250.21 77.67 250.21 73.3 242.6 80.91 242.6 85.28 250.21 77.67"/>
    <polygon class="b1032eb8-b5a8-4e74-9cef-0053b4d184f3" points="250.21 92.81 250.21 88.43 243.59 95.05 247.96 95.05 250.21 92.81"/>
    <polygon class="b1032eb8-b5a8-4e74-9cef-0053b4d184f3" points="250.21 92.81 250.21 88.43 243.59 95.05 247.96 95.05 250.21 92.81"/>
    <polygon class="b1032eb8-b5a8-4e74-9cef-0053b4d184f3" points="250.21 105.75 250.21 103.57 248.02 105.75 250.21 105.75"/>
    <polygon class="b1032eb8-b5a8-4e74-9cef-0053b4d184f3" points="250.21 105.75 250.21 103.57 248.02 105.75 250.21 105.75"/>
    <polygon class="a8f0ac66-813f-4f8e-b315-7f24163d0cdb" points="250.21 103.57 250.21 103.57 248.02 105.75 248.02 105.75 250.21 103.57"/>
    <polygon class="b1032eb8-b5a8-4e74-9cef-0053b4d184f3" points="250.21 103.57 250.21 103.57 248.02 105.75 248.02 105.75 250.21 103.57"/>
    <polygon class="b1032eb8-b5a8-4e74-9cef-0053b4d184f3" points="250.21 62.53 250.21 58.16 242.6 65.77 242.6 70.14 250.21 62.53"/>
    <polygon class="b1032eb8-b5a8-4e74-9cef-0053b4d184f3" points="250.21 62.53 250.21 58.16 242.6 65.77 242.6 70.14 250.21 62.53"/>
    <polygon class="a8f0ac66-813f-4f8e-b315-7f24163d0cdb" points="242.6 70.14 250.21 62.53 250.21 62.53 242.6 70.14 242.6 70.14"/>
    <polygon class="b1032eb8-b5a8-4e74-9cef-0053b4d184f3" points="242.6 70.14 250.21 62.53 250.21 62.53 242.6 70.14 242.6 70.14"/>
    <polygon class="a8f0ac66-813f-4f8e-b315-7f24163d0cdb" points="250.21 58.16 242.6 65.77 242.6 65.77 250.21 58.16 250.21 58.16"/>
    <polygon class="b1032eb8-b5a8-4e74-9cef-0053b4d184f3" points="250.21 58.16 242.6 65.77 242.6 65.77 250.21 58.16 250.21 58.16"/>
    <polygon class="b1032eb8-b5a8-4e74-9cef-0053b4d184f3" points="248.02 188.3 250.21 190.48 250.21 188.3 248.02 188.3"/>
    <polygon class="b1032eb8-b5a8-4e74-9cef-0053b4d184f3" points="248.02 188.3 250.21 190.48 250.21 188.3 248.02 188.3"/>
    <polygon class="a76cf36c-a768-4cf2-acda-4404a85c7f78" points="248.02 188.3 250.21 190.48 250.21 190.48 248.02 188.3 248.02 188.3"/>
    <polygon class="b1032eb8-b5a8-4e74-9cef-0053b4d184f3" points="248.02 188.3 250.21 190.48 250.21 190.48 248.02 188.3 248.02 188.3"/>
    <path class="b1032eb8-b5a8-4e74-9cef-0053b4d184f3" d="M242.6,286h0Z"/>
    <path class="b1032eb8-b5a8-4e74-9cef-0053b4d184f3" d="M246.49,285l-.13,0Z"/>
    <path class="b1032eb8-b5a8-4e74-9cef-0053b4d184f3" d="M242.6,286h0c1.25-.31,2.5-.62,3.74-1l.13,0c1.24-.34,2.49-.7,3.72-1.06V261.8l-7.61-7.61Z"/>
    <path class="b1032eb8-b5a8-4e74-9cef-0053b4d184f3" d="M242.6,286h0c1.25-.31,2.5-.62,3.74-1l.13,0c1.24-.34,2.49-.7,3.72-1.06V261.8l-7.61-7.61Z"/>
    <path class="b1032eb8-b5a8-4e74-9cef-0053b4d184f3" d="M246.38,9.07l.08,0Z"/>
    <polygon class="b1032eb8-b5a8-4e74-9cef-0053b4d184f3" points="242.6 8.1 242.6 8.1 242.62 8.1 242.6 8.1"/>
    <path class="b1032eb8-b5a8-4e74-9cef-0053b4d184f3" d="M250.21,10.15c-1.24-.37-2.49-.72-3.75-1.06l-.08,0c-1.23-.34-2.5-.66-3.76-1h0V39.87l7.61-7.61Z"/>
    <path class="b1032eb8-b5a8-4e74-9cef-0053b4d184f3" d="M250.21,10.15c-1.24-.37-2.49-.72-3.75-1.06l-.08,0c-1.23-.34-2.5-.66-3.76-1h0V39.87l7.61-7.61Z"/>
    <polygon class="b1032eb8-b5a8-4e74-9cef-0053b4d184f3" points="250.21 220.75 250.21 216.38 242.6 208.77 242.6 213.15 250.21 220.75"/>
    <polygon class="b1032eb8-b5a8-4e74-9cef-0053b4d184f3" points="250.21 220.75 250.21 216.38 242.6 208.77 242.6 213.15 250.21 220.75"/>
    <polygon class="b1032eb8-b5a8-4e74-9cef-0053b4d184f3" points="250.21 47.4 250.21 43.02 242.6 50.63 242.6 55 250.21 47.4"/>
    <polygon class="b1032eb8-b5a8-4e74-9cef-0053b4d184f3" points="250.21 47.4 250.21 43.02 242.6 50.63 242.6 55 250.21 47.4"/>
    <polygon class="b1032eb8-b5a8-4e74-9cef-0053b4d184f3" points="250.21 235.89 250.21 231.52 242.6 223.91 242.6 228.28 250.21 235.89"/>
    <polygon class="b1032eb8-b5a8-4e74-9cef-0053b4d184f3" points="250.21 235.89 250.21 231.52 242.6 223.91 242.6 228.28 250.21 235.89"/>
    <polygon class="a76cf36c-a768-4cf2-acda-4404a85c7f78" points="250.21 231.52 242.6 223.91 242.6 223.91 250.21 231.52 250.21 231.52"/>
    <polygon class="b1032eb8-b5a8-4e74-9cef-0053b4d184f3" points="250.21 231.52 242.6 223.91 242.6 223.91 250.21 231.52 250.21 231.52"/>
    <polygon class="a76cf36c-a768-4cf2-acda-4404a85c7f78" points="242.6 228.28 250.21 235.89 250.21 235.89 242.6 228.28 242.6 228.28"/>
    <polygon class="b1032eb8-b5a8-4e74-9cef-0053b4d184f3" points="242.6 228.28 250.21 235.89 250.21 235.89 242.6 228.28 242.6 228.28"/>
    <polygon class="b1032eb8-b5a8-4e74-9cef-0053b4d184f3" points="250.21 205.62 250.21 201.24 247.96 199 243.59 199 250.21 205.62"/>
    <polygon class="b1032eb8-b5a8-4e74-9cef-0053b4d184f3" points="250.21 205.62 250.21 201.24 247.96 199 243.59 199 250.21 205.62"/>
    <polygon class="b1032eb8-b5a8-4e74-9cef-0053b4d184f3" points="242.6 239.05 242.6 243.41 250.21 251.03 250.21 246.66 242.6 239.05"/>
    <polygon class="b1032eb8-b5a8-4e74-9cef-0053b4d184f3" points="242.6 239.05 242.6 243.41 250.21 251.03 250.21 246.66 242.6 239.05"/>
    <path class="b1032eb8-b5a8-4e74-9cef-0053b4d184f3" d="M235.7,6.61h0Z"/>
    <path class="b1032eb8-b5a8-4e74-9cef-0053b4d184f3" d="M239.51,7.38h0c-1.25-.27-2.5-.52-3.76-.76h0c-1.26-.24-2.53-.46-3.81-.67V50.57L239.51,43Z"/>
    <path class="b1032eb8-b5a8-4e74-9cef-0053b4d184f3" d="M239.51,7.38h0c-1.25-.27-2.5-.52-3.76-.76h0c-1.26-.24-2.53-.46-3.81-.67V50.57L239.51,43Z"/>
    <polygon class="b1032eb8-b5a8-4e74-9cef-0053b4d184f3" points="239.51 191.39 239.51 190.55 239.22 190.25 238.07 191.39 239.51 191.39"/>
    <polygon class="b1032eb8-b5a8-4e74-9cef-0053b4d184f3" points="239.51 191.39 239.51 190.55 239.22 190.25 238.07 191.39 239.51 191.39"/>
    <polygon class="b1032eb8-b5a8-4e74-9cef-0053b4d184f3" points="239.51 225.19 239.51 220.81 231.89 213.21 231.89 217.58 239.51 225.19"/>
    <polygon class="b1032eb8-b5a8-4e74-9cef-0053b4d184f3" points="239.51 225.19 239.51 220.81 231.89 213.21 231.89 217.58 239.51 225.19"/>
    <polygon class="a76cf36c-a768-4cf2-acda-4404a85c7f78" points="239.51 220.81 231.89 213.21 231.89 213.21 239.51 220.81 239.51 220.81"/>
    <polygon class="b1032eb8-b5a8-4e74-9cef-0053b4d184f3" points="239.51 220.81 231.89 213.21 231.89 213.21 239.51 220.81 239.51 220.81"/>
    <polygon class="a76cf36c-a768-4cf2-acda-4404a85c7f78" points="231.89 217.58 239.51 225.19 239.51 225.19 231.89 217.58 231.89 217.58"/>
    <polygon class="b1032eb8-b5a8-4e74-9cef-0053b4d184f3" points="231.89 217.58 239.51 225.19 239.51 225.19 231.89 217.58 231.89 217.58"/>
    <polygon class="b1032eb8-b5a8-4e74-9cef-0053b4d184f3" points="239.51 58.1 239.51 53.73 231.89 61.34 231.89 65.71 239.51 58.1"/>
    <polygon class="b1032eb8-b5a8-4e74-9cef-0053b4d184f3" points="239.51 58.1 239.51 53.73 231.89 61.34 231.89 65.71 239.51 58.1"/>
    <polygon class="b1032eb8-b5a8-4e74-9cef-0053b4d184f3" points="231.89 202.44 239.51 210.06 239.51 205.68 232.82 199 231.89 199 231.89 202.44"/>
    <polygon class="b1032eb8-b5a8-4e74-9cef-0053b4d184f3" points="231.89 202.44 239.51 210.06 239.51 205.68 232.82 199 231.89 199 231.89 202.44"/>
    <polygon class="b1032eb8-b5a8-4e74-9cef-0053b4d184f3" points="232.83 95.05 239.51 88.37 239.51 84 231.89 91.61 231.89 95.05 232.83 95.05"/>
    <polygon class="b1032eb8-b5a8-4e74-9cef-0053b4d184f3" points="232.83 95.05 239.51 88.37 239.51 84 231.89 91.61 231.89 95.05 232.83 95.05"/>
    <polygon class="b1032eb8-b5a8-4e74-9cef-0053b4d184f3" points="231.89 228.34 231.89 232.71 239.51 240.32 239.51 235.95 231.89 228.34"/>
    <polygon class="b1032eb8-b5a8-4e74-9cef-0053b4d184f3" points="231.89 228.34 231.89 232.71 239.51 240.32 239.51 235.95 231.89 228.34"/>
    <polygon class="b1032eb8-b5a8-4e74-9cef-0053b4d184f3" points="239.51 73.23 239.51 68.86 231.89 76.47 231.89 80.85 239.51 73.23"/>
    <polygon class="b1032eb8-b5a8-4e74-9cef-0053b4d184f3" points="239.51 73.23 239.51 68.86 231.89 76.47 231.89 80.85 239.51 73.23"/>
    <polygon class="a8f0ac66-813f-4f8e-b315-7f24163d0cdb" points="231.89 80.85 239.51 73.23 239.51 73.23 231.89 80.85 231.89 80.85"/>
    <polygon class="b1032eb8-b5a8-4e74-9cef-0053b4d184f3" points="231.89 80.85 239.51 73.23 239.51 73.23 231.89 80.85 231.89 80.85"/>
    <polygon class="a8f0ac66-813f-4f8e-b315-7f24163d0cdb" points="239.51 68.86 231.89 76.47 231.89 76.47 239.51 68.86 239.51 68.86"/>
    <polygon class="b1032eb8-b5a8-4e74-9cef-0053b4d184f3" points="239.51 68.86 231.89 76.47 231.89 76.47 239.51 68.86 239.51 68.86"/>
    <path class="b1032eb8-b5a8-4e74-9cef-0053b4d184f3" d="M235.76,287.43h0Z"/>
    <path class="b1032eb8-b5a8-4e74-9cef-0053b4d184f3" d="M239.51,286.66Z"/>
    <path class="b1032eb8-b5a8-4e74-9cef-0053b4d184f3" d="M231.89,288.11h0Z"/>
    <path class="b1032eb8-b5a8-4e74-9cef-0053b4d184f3" d="M231.89,288.11H232c1.25-.2,2.49-.42,3.74-.66h.07c1.25-.23,2.49-.49,3.73-.76h0V251.09l-7.62-7.61Z"/>
    <path class="b1032eb8-b5a8-4e74-9cef-0053b4d184f3" d="M231.89,288.11H232c1.25-.2,2.49-.42,3.74-.66h.07c1.25-.23,2.49-.49,3.73-.76h0V251.09l-7.62-7.61Z"/>
    <polygon class="b1032eb8-b5a8-4e74-9cef-0053b4d184f3" points="239.51 102.66 238.07 102.66 239.22 103.8 239.51 103.51 239.51 102.66"/>
    <polygon class="b1032eb8-b5a8-4e74-9cef-0053b4d184f3" points="239.51 102.66 238.07 102.66 239.22 103.8 239.51 103.51 239.51 102.66"/>
    <path class="b1032eb8-b5a8-4e74-9cef-0053b4d184f3" d="M225,289h0Z"/>
    <path class="b1032eb8-b5a8-4e74-9cef-0053b4d184f3" d="M228.8,288.57Z"/>
    <path class="b1032eb8-b5a8-4e74-9cef-0053b4d184f3" d="M221.19,289.43q1.92-.17,3.81-.39h0c1.26-.14,2.51-.29,3.74-.47h0V240.39l-7.61-7.62Z"/>
    <path class="b1032eb8-b5a8-4e74-9cef-0053b4d184f3" d="M221.19,289.43q1.92-.17,3.81-.39h0c1.26-.14,2.51-.29,3.74-.47h0V240.39l-7.61-7.62Z"/>
    <polygon class="b1032eb8-b5a8-4e74-9cef-0053b4d184f3" points="227.3 85.44 228.8 83.93 228.8 79.57 226.65 81.71 221.89 86.48 222.98 87.57 224.08 88.66 227.3 85.44"/>
    <polygon class="b1032eb8-b5a8-4e74-9cef-0053b4d184f3" points="227.3 85.44 228.8 83.93 228.8 79.57 226.65 81.71 221.89 86.48 222.98 87.57 224.08 88.66 227.3 85.44"/>
    <polygon class="a8f0ac66-813f-4f8e-b315-7f24163d0cdb" points="228.8 83.93 228.8 83.93 227.3 85.44 228.8 83.93"/>
    <polygon class="b1032eb8-b5a8-4e74-9cef-0053b4d184f3" points="228.8 83.93 228.8 83.93 227.3 85.44 228.8 83.93"/>
    <polygon class="a8f0ac66-813f-4f8e-b315-7f24163d0cdb" points="228.8 79.57 226.65 81.71 228.8 79.57 228.8 79.57"/>
    <polygon class="b1032eb8-b5a8-4e74-9cef-0053b4d184f3" points="228.8 79.57 226.65 81.71 228.8 79.57 228.8 79.57"/>
    <polygon class="a76cf36c-a768-4cf2-acda-4404a85c7f78" points="222.98 87.57 224.08 88.66 224.08 88.66 222.98 87.57"/>
    <polygon class="b1032eb8-b5a8-4e74-9cef-0053b4d184f3" points="222.98 87.57 224.08 88.66 224.08 88.66 222.98 87.57"/>
    <polygon class="b1032eb8-b5a8-4e74-9cef-0053b4d184f3" points="227.75 213.43 228.8 214.49 228.8 210.11 228.05 209.38 224.08 205.39 221.89 207.58 227.75 213.43"/>
    <polygon class="b1032eb8-b5a8-4e74-9cef-0053b4d184f3" points="227.75 213.43 228.8 214.49 228.8 210.11 228.05 209.38 224.08 205.39 221.89 207.58 227.75 213.43"/>
    <polygon class="a76cf36c-a768-4cf2-acda-4404a85c7f78" points="228.8 210.11 228.05 209.38 228.8 210.11 228.8 210.11"/>
    <polygon class="b1032eb8-b5a8-4e74-9cef-0053b4d184f3" points="228.8 210.11 228.05 209.38 228.8 210.11 228.8 210.11"/>
    <polygon class="a76cf36c-a768-4cf2-acda-4404a85c7f78" points="228.8 214.49 228.8 214.49 227.75 213.43 228.8 214.49"/>
    <polygon class="b1032eb8-b5a8-4e74-9cef-0053b4d184f3" points="228.8 214.49 228.8 214.49 227.75 213.43 228.8 214.49"/>
    <polygon class="b1032eb8-b5a8-4e74-9cef-0053b4d184f3" points="221.19 217.63 221.19 222.01 228.8 229.62 228.8 225.25 221.19 217.63"/>
    <polygon class="b1032eb8-b5a8-4e74-9cef-0053b4d184f3" points="221.19 217.63 221.19 222.01 228.8 229.62 228.8 225.25 221.19 217.63"/>
    <path class="b1032eb8-b5a8-4e74-9cef-0053b4d184f3" d="M221.19,4.63Z"/>
    <path class="b1032eb8-b5a8-4e74-9cef-0053b4d184f3" d="M225,5h0Z"/>
    <path class="b1032eb8-b5a8-4e74-9cef-0053b4d184f3" d="M228.8,5.48c-1.25-.17-2.5-.33-3.76-.47H225c-1.24-.14-2.5-.26-3.77-.37h0V61.28l7.61-7.62Z"/>
    <path class="b1032eb8-b5a8-4e74-9cef-0053b4d184f3" d="M228.8,5.48c-1.25-.17-2.5-.33-3.76-.47H225c-1.24-.14-2.5-.26-3.77-.37h0V61.28l7.61-7.62Z"/>
    <polygon class="b1032eb8-b5a8-4e74-9cef-0053b4d184f3" points="228.8 68.8 228.8 64.43 221.19 72.04 221.19 76.41 228.8 68.8"/>
    <polygon class="b1032eb8-b5a8-4e74-9cef-0053b4d184f3" points="228.8 68.8 228.8 64.43 221.19 72.04 221.19 76.41 228.8 68.8"/>
    <polygon class="b1032eb8-b5a8-4e74-9cef-0053b4d184f3" points="211.13 86.48 210.49 85.83 210.49 87.12 211.13 86.48"/>
    <polygon class="b1032eb8-b5a8-4e74-9cef-0053b4d184f3" points="211.13 86.48 210.49 85.83 210.49 87.12 211.13 86.48"/>
    <polygon class="a8f0ac66-813f-4f8e-b315-7f24163d0cdb" points="210.49 87.12 211.13 86.48 211.13 86.48 210.49 87.12"/>
    <polygon class="b1032eb8-b5a8-4e74-9cef-0053b4d184f3" points="210.49 87.12 211.13 86.48 211.13 86.48 210.49 87.12"/>
    <polygon class="a76cf36c-a768-4cf2-acda-4404a85c7f78" points="211.13 86.48 211.13 86.48 210.49 85.83 210.49 85.83 211.13 86.48 211.13 86.48"/>
    <polygon class="b1032eb8-b5a8-4e74-9cef-0053b4d184f3" points="211.13 86.48 211.13 86.48 210.49 85.83 210.49 85.83 211.13 86.48 211.13 86.48"/>
    <polygon class="b1032eb8-b5a8-4e74-9cef-0053b4d184f3" points="218.1 94.64 218.1 93.45 217.47 92.81 216.51 91.86 214.31 94.04 215.33 95.05 217.69 95.05 218.1 94.64"/>
    <polygon class="b1032eb8-b5a8-4e74-9cef-0053b4d184f3" points="218.1 94.64 218.1 93.45 217.47 92.81 216.51 91.86 214.31 94.04 215.33 95.05 217.69 95.05 218.1 94.64"/>
    <polygon class="a8f0ac66-813f-4f8e-b315-7f24163d0cdb" points="218.1 94.64 217.69 95.05 217.69 95.05 218.1 94.64 218.1 94.64"/>
    <polygon class="b1032eb8-b5a8-4e74-9cef-0053b4d184f3" points="218.1 94.64 217.69 95.05 217.69 95.05 218.1 94.64 218.1 94.64"/>
    <polygon class="a8f0ac66-813f-4f8e-b315-7f24163d0cdb" points="216.51 91.86 214.31 94.04 214.31 94.04 216.51 91.86 216.51 91.86"/>
    <polygon class="b1032eb8-b5a8-4e74-9cef-0053b4d184f3" points="216.51 91.86 214.31 94.04 214.31 94.04 216.51 91.86 216.51 91.86"/>
    <polygon class="a76cf36c-a768-4cf2-acda-4404a85c7f78" points="218.1 93.45 217.47 92.81 218.1 93.45 218.1 93.45"/>
    <polygon class="b1032eb8-b5a8-4e74-9cef-0053b4d184f3" points="218.1 93.45 217.47 92.81 218.1 93.45 218.1 93.45"/>
    <polygon class="b1032eb8-b5a8-4e74-9cef-0053b4d184f3" points="218.1 75.13 214.31 78.91 216.51 81.09 218.1 79.5 218.1 75.13"/>
    <polygon class="b1032eb8-b5a8-4e74-9cef-0053b4d184f3" points="218.1 75.13 214.31 78.91 216.51 81.09 218.1 79.5 218.1 75.13"/>
    <path class="b1032eb8-b5a8-4e74-9cef-0053b4d184f3" d="M214.28,4.21h0Z"/>
    <path class="b1032eb8-b5a8-4e74-9cef-0053b4d184f3" d="M218.1,4.4c-1.25-.08-2.51-.14-3.78-.19h0c-1.26,0-2.53-.08-3.79-.09V72l7.61-7.61Z"/>
    <path class="b1032eb8-b5a8-4e74-9cef-0053b4d184f3" d="M218.1,4.4c-1.25-.08-2.51-.14-3.78-.19h0c-1.26,0-2.53-.08-3.79-.09V72l7.61-7.61Z"/>
    <polygon class="b1032eb8-b5a8-4e74-9cef-0053b4d184f3" points="216.51 212.95 214.31 215.14 218.1 218.92 218.1 214.54 216.51 212.95"/>
    <polygon class="b1032eb8-b5a8-4e74-9cef-0053b4d184f3" points="216.51 212.95 214.31 215.14 218.1 218.92 218.1 214.54 216.51 212.95"/>
    <polygon class="b1032eb8-b5a8-4e74-9cef-0053b4d184f3" points="210.69 208.01 211.13 207.58 210.49 206.94 210.49 208.22 210.69 208.01"/>
    <polygon class="b1032eb8-b5a8-4e74-9cef-0053b4d184f3" points="210.69 208.01 211.13 207.58 210.49 206.94 210.49 208.22 210.69 208.01"/>
    <polygon class="a8f0ac66-813f-4f8e-b315-7f24163d0cdb" points="211.13 207.58 211.13 207.58 210.69 208.01 211.13 207.58"/>
    <polygon class="b1032eb8-b5a8-4e74-9cef-0053b4d184f3" points="211.13 207.58 211.13 207.58 210.69 208.01 211.13 207.58"/>
    <path class="b1032eb8-b5a8-4e74-9cef-0053b4d184f3" d="M218.1,289.65Z"/>
    <path class="b1032eb8-b5a8-4e74-9cef-0053b4d184f3" d="M210.49,289.93c1.26,0,2.53-.05,3.79-.09h.05c1.25,0,2.49-.1,3.73-.19h0v-60l-7.61-7.61Z"/>
    <path class="b1032eb8-b5a8-4e74-9cef-0053b4d184f3" d="M210.49,289.93c1.26,0,2.53-.05,3.79-.09h.05c1.25,0,2.49-.1,3.73-.19h0v-60l-7.61-7.61Z"/>
    <polygon class="b1032eb8-b5a8-4e74-9cef-0053b4d184f3" points="215.34 199 214.31 200.01 216.51 202.19 218.1 200.6 218.1 199.41 217.69 199 215.34 199"/>
    <polygon class="b1032eb8-b5a8-4e74-9cef-0053b4d184f3" points="215.34 199 214.31 200.01 216.51 202.19 218.1 200.6 218.1 199.41 217.69 199 215.34 199"/>
    <polygon class="a76cf36c-a768-4cf2-acda-4404a85c7f78" points="218.1 199.41 218.1 199.41 217.69 199 217.69 199 218.1 199.41"/>
    <polygon class="b1032eb8-b5a8-4e74-9cef-0053b4d184f3" points="218.1 199.41 218.1 199.41 217.69 199 217.69 199 218.1 199.41"/>
    <polygon class="a76cf36c-a768-4cf2-acda-4404a85c7f78" points="214.31 200.01 214.31 200.01 216.51 202.19 216.51 202.19 214.31 200.01"/>
    <polygon class="b1032eb8-b5a8-4e74-9cef-0053b4d184f3" points="214.31 200.01 214.31 200.01 216.51 202.19 216.51 202.19 214.31 200.01"/>
    <polygon class="b1032eb8-b5a8-4e74-9cef-0053b4d184f3" points="202.55 199 200.2 199 199.78 199.41 199.78 200.6 201.37 202.19 203.56 200.01 202.55 199"/>
    <polygon class="b1032eb8-b5a8-4e74-9cef-0053b4d184f3" points="202.55 199 200.2 199 199.78 199.41 199.78 200.6 201.37 202.19 203.56 200.01 202.55 199"/>
    <polygon class="b1032eb8-b5a8-4e74-9cef-0053b4d184f3" points="199.78 218.92 203.56 215.14 201.37 212.95 199.78 214.54 199.78 218.92"/>
    <polygon class="b1032eb8-b5a8-4e74-9cef-0053b4d184f3" points="199.78 218.92 203.56 215.14 201.37 212.95 199.78 214.54 199.78 218.92"/>
    <polygon class="b1032eb8-b5a8-4e74-9cef-0053b4d184f3" points="206.76 86.48 207.17 86.89 207.39 87.12 207.39 85.84 206.76 86.48"/>
    <polygon class="b1032eb8-b5a8-4e74-9cef-0053b4d184f3" points="206.76 86.48 207.17 86.89 207.39 87.12 207.39 85.84 206.76 86.48"/>
    <polygon class="a76cf36c-a768-4cf2-acda-4404a85c7f78" points="207.39 87.12 207.39 87.12 207.17 86.89 207.39 87.12"/>
    <polygon class="b1032eb8-b5a8-4e74-9cef-0053b4d184f3" points="207.39 87.12 207.39 87.12 207.17 86.89 207.39 87.12"/>
    <path class="b1032eb8-b5a8-4e74-9cef-0053b4d184f3" d="M199.78,289.65h0Z"/>
    <path class="b1032eb8-b5a8-4e74-9cef-0053b4d184f3" d="M199.78,289.65h0c1.24.09,2.48.14,3.73.19h0c1.26,0,2.53.07,3.79.09V222.07l-7.61,7.61Z"/>
    <path class="b1032eb8-b5a8-4e74-9cef-0053b4d184f3" d="M199.78,289.65h0c1.24.09,2.48.14,3.73.19h0c1.26,0,2.53.07,3.79.09V222.07l-7.61,7.61Z"/>
    <path class="b1032eb8-b5a8-4e74-9cef-0053b4d184f3" d="M203.56,4.21h0Z"/>
    <path class="b1032eb8-b5a8-4e74-9cef-0053b4d184f3" d="M207.39,4.12c-1.27,0-2.53,0-3.8.09h0c-1.27,0-2.52.11-3.78.19v60L207.39,72Z"/>
    <path class="b1032eb8-b5a8-4e74-9cef-0053b4d184f3" d="M207.39,4.12c-1.27,0-2.53,0-3.8.09h0c-1.27,0-2.52.11-3.78.19v60L207.39,72Z"/>
    <polygon class="b1032eb8-b5a8-4e74-9cef-0053b4d184f3" points="203.56 94.04 201.37 91.86 199.78 93.45 199.78 94.64 200.19 95.05 202.55 95.05 203.56 94.04"/>
    <polygon class="b1032eb8-b5a8-4e74-9cef-0053b4d184f3" points="203.56 94.04 201.37 91.86 199.78 93.45 199.78 94.64 200.19 95.05 202.55 95.05 203.56 94.04"/>
    <polygon class="b1032eb8-b5a8-4e74-9cef-0053b4d184f3" points="206.99 207.35 206.76 207.58 207.39 208.22 207.39 206.94 206.99 207.35"/>
    <polygon class="b1032eb8-b5a8-4e74-9cef-0053b4d184f3" points="206.99 207.35 206.76 207.58 207.39 208.22 207.39 206.94 206.99 207.35"/>
    <polygon class="a8f0ac66-813f-4f8e-b315-7f24163d0cdb" points="206.76 207.58 206.76 207.58 206.99 207.35 206.76 207.58"/>
    <polygon class="b1032eb8-b5a8-4e74-9cef-0053b4d184f3" points="206.76 207.58 206.76 207.58 206.99 207.35 206.76 207.58"/>
    <polygon class="b1032eb8-b5a8-4e74-9cef-0053b4d184f3" points="201 76.34 199.78 75.13 199.78 79.51 200.3 80.03 201.37 81.09 203.56 78.91 201 76.34"/>
    <polygon class="b1032eb8-b5a8-4e74-9cef-0053b4d184f3" points="201 76.34 199.78 75.13 199.78 79.51 200.3 80.03 201.37 81.09 203.56 78.91 201 76.34"/>
    <polygon class="a76cf36c-a768-4cf2-acda-4404a85c7f78" points="199.78 75.13 199.78 75.13 201 76.34 199.78 75.13"/>
    <polygon class="b1032eb8-b5a8-4e74-9cef-0053b4d184f3" points="199.78 75.13 199.78 75.13 201 76.34 199.78 75.13"/>
    <polygon class="a76cf36c-a768-4cf2-acda-4404a85c7f78" points="199.78 79.51 200.3 80.03 199.78 79.51 199.78 79.51"/>
    <polygon class="b1032eb8-b5a8-4e74-9cef-0053b4d184f3" points="199.78 79.51 200.3 80.03 199.78 79.51 199.78 79.51"/>
    <polygon class="b1032eb8-b5a8-4e74-9cef-0053b4d184f3" points="189.08 64.43 189.08 68.8 196.69 76.41 196.69 72.04 189.08 64.43"/>
    <polygon class="b1032eb8-b5a8-4e74-9cef-0053b4d184f3" points="189.08 64.43 189.08 68.8 196.69 76.41 196.69 72.04 189.08 64.43"/>
    <polygon class="a76cf36c-a768-4cf2-acda-4404a85c7f78" points="196.69 72.04 189.08 64.43 189.08 64.43 196.69 72.04 196.69 72.04"/>
    <polygon class="b1032eb8-b5a8-4e74-9cef-0053b4d184f3" points="196.69 72.04 189.08 64.43 189.08 64.43 196.69 72.04 196.69 72.04"/>
    <polygon class="a76cf36c-a768-4cf2-acda-4404a85c7f78" points="189.08 68.8 196.69 76.41 196.69 76.41 189.08 68.8 189.08 68.8"/>
    <polygon class="b1032eb8-b5a8-4e74-9cef-0053b4d184f3" points="189.08 68.8 196.69 76.41 196.69 76.41 189.08 68.8 189.08 68.8"/>
    <path class="b1032eb8-b5a8-4e74-9cef-0053b4d184f3" d="M189.08,288.57h0Z"/>
    <path class="b1032eb8-b5a8-4e74-9cef-0053b4d184f3" d="M189.08,288.57h0q3.75.53,7.58.86V232.77l-7.61,7.62Z"/>
    <path class="b1032eb8-b5a8-4e74-9cef-0053b4d184f3" d="M189.08,288.57h0q3.75.53,7.58.86V232.77l-7.61,7.62Z"/>
    <path class="b1032eb8-b5a8-4e74-9cef-0053b4d184f3" d="M192.85,5h0Z"/>
    <path class="b1032eb8-b5a8-4e74-9cef-0053b4d184f3" d="M196.69,4.63h0Z"/>
    <path class="b1032eb8-b5a8-4e74-9cef-0053b4d184f3" d="M196.69,4.63h0c-1.27.11-2.54.23-3.79.37h0c-1.26.14-2.52.3-3.77.47V53.66l7.61,7.62Z"/>
    <path class="b1032eb8-b5a8-4e74-9cef-0053b4d184f3" d="M196.69,4.63h0c-1.27.11-2.54.23-3.79.37h0c-1.26.14-2.52.3-3.77.47V53.66l7.61,7.62Z"/>
    <polygon class="b1032eb8-b5a8-4e74-9cef-0053b4d184f3" points="189.08 225.25 189.08 229.62 196.69 222.01 196.69 217.63 189.08 225.25"/>
    <polygon class="b1032eb8-b5a8-4e74-9cef-0053b4d184f3" points="189.08 225.25 189.08 229.62 196.69 222.01 196.69 217.63 189.08 225.25"/>
    <polygon class="b1032eb8-b5a8-4e74-9cef-0053b4d184f3" points="189.08 210.11 189.08 214.49 195.99 207.58 193.81 205.38 189.08 210.11"/>
    <polygon class="b1032eb8-b5a8-4e74-9cef-0053b4d184f3" points="189.08 210.11 189.08 214.49 195.99 207.58 193.81 205.38 189.08 210.11"/>
    <polygon class="a8f0ac66-813f-4f8e-b315-7f24163d0cdb" points="193.81 205.38 189.08 210.11 193.81 205.38 193.81 205.38"/>
    <polygon class="b1032eb8-b5a8-4e74-9cef-0053b4d184f3" points="193.81 205.38 189.08 210.11 193.81 205.38 193.81 205.38"/>
    <polygon class="a76cf36c-a768-4cf2-acda-4404a85c7f78" points="193.81 205.38 195.99 207.58 195.99 207.58 193.81 205.38 193.81 205.38 193.81 205.38"/>
    <polygon class="b1032eb8-b5a8-4e74-9cef-0053b4d184f3" points="193.81 205.38 195.99 207.58 195.99 207.58 193.81 205.38 193.81 205.38 193.81 205.38"/>
    <polygon class="b1032eb8-b5a8-4e74-9cef-0053b4d184f3" points="189.08 79.57 189.08 83.93 193.81 88.66 195.99 86.48 189.08 79.57"/>
    <polygon class="b1032eb8-b5a8-4e74-9cef-0053b4d184f3" points="189.08 79.57 189.08 83.93 193.81 88.66 195.99 86.48 189.08 79.57"/>
    <polygon class="b1032eb8-b5a8-4e74-9cef-0053b4d184f3" points="178.37 53.73 178.37 58.1 185.99 65.71 185.99 61.34 178.37 53.73"/>
    <polygon class="b1032eb8-b5a8-4e74-9cef-0053b4d184f3" points="178.37 53.73 178.37 58.1 185.99 65.71 185.99 61.34 178.37 53.73"/>
    <polygon class="a76cf36c-a768-4cf2-acda-4404a85c7f78" points="185.99 61.34 178.37 53.73 178.37 53.73 185.99 61.34 185.99 61.34"/>
    <polygon class="b1032eb8-b5a8-4e74-9cef-0053b4d184f3" points="185.99 61.34 178.37 53.73 178.37 53.73 185.99 61.34 185.99 61.34"/>
    <polygon class="a76cf36c-a768-4cf2-acda-4404a85c7f78" points="178.37 58.1 185.99 65.71 185.99 65.71 178.37 58.1 178.37 58.1"/>
    <polygon class="b1032eb8-b5a8-4e74-9cef-0053b4d184f3" points="178.37 58.1 185.99 65.71 185.99 65.71 178.37 58.1 178.37 58.1"/>
    <polygon class="b1032eb8-b5a8-4e74-9cef-0053b4d184f3" points="185.06 199 178.37 205.68 178.37 210.06 185.99 202.44 185.99 199 185.06 199"/>
    <polygon class="b1032eb8-b5a8-4e74-9cef-0053b4d184f3" points="185.06 199 178.37 205.68 178.37 210.06 185.99 202.44 185.99 199 185.06 199"/>
    <path class="b1032eb8-b5a8-4e74-9cef-0053b4d184f3" d="M182.18,287.43h0Z"/>
    <path class="b1032eb8-b5a8-4e74-9cef-0053b4d184f3" d="M186,288.11Z"/>
    <path class="b1032eb8-b5a8-4e74-9cef-0053b4d184f3" d="M178.37,286.66c1.26.28,2.51.54,3.78.77h0c1.25.25,2.51.47,3.78.67h0V243.48l-7.62,7.61Z"/>
    <path class="b1032eb8-b5a8-4e74-9cef-0053b4d184f3" d="M178.37,286.66c1.26.28,2.51.54,3.78.77h0c1.25.25,2.51.47,3.78.67h0V243.48l-7.62,7.61Z"/>
    <polygon class="b1032eb8-b5a8-4e74-9cef-0053b4d184f3" points="178.37 191.39 179.81 191.39 178.66 190.25 178.37 190.55 178.37 191.39"/>
    <polygon class="b1032eb8-b5a8-4e74-9cef-0053b4d184f3" points="178.37 191.39 179.81 191.39 178.66 190.25 178.37 190.55 178.37 191.39"/>
    <polygon class="b1032eb8-b5a8-4e74-9cef-0053b4d184f3" points="178.37 220.81 178.37 225.19 185.99 217.58 185.99 213.21 178.37 220.81"/>
    <polygon class="b1032eb8-b5a8-4e74-9cef-0053b4d184f3" points="178.37 220.81 178.37 225.19 185.99 217.58 185.99 213.21 178.37 220.81"/>
    <polygon class="b1032eb8-b5a8-4e74-9cef-0053b4d184f3" points="178.37 235.95 178.37 240.32 185.99 232.71 185.99 228.34 178.37 235.95"/>
    <polygon class="b1032eb8-b5a8-4e74-9cef-0053b4d184f3" points="178.37 235.95 178.37 240.32 185.99 232.71 185.99 228.34 178.37 235.95"/>
    <path class="b1032eb8-b5a8-4e74-9cef-0053b4d184f3" d="M182.14,6.62h0Z"/>
    <path class="b1032eb8-b5a8-4e74-9cef-0053b4d184f3" d="M186,5.94c-1.28.21-2.54.43-3.8.67h-.05c-1.27.24-2.51.49-3.77.76V43L186,50.57Z"/>
    <path class="b1032eb8-b5a8-4e74-9cef-0053b4d184f3" d="M186,5.94c-1.28.21-2.54.43-3.8.67h-.05c-1.27.24-2.51.49-3.77.76V43L186,50.57Z"/>
    <polygon class="b1032eb8-b5a8-4e74-9cef-0053b4d184f3" points="179.27 103.2 179.81 102.66 178.37 102.66 178.37 103.51 178.66 103.8 179.27 103.2"/>
    <polygon class="b1032eb8-b5a8-4e74-9cef-0053b4d184f3" points="179.27 103.2 179.81 102.66 178.37 102.66 178.37 103.51 178.66 103.8 179.27 103.2"/>
    <polygon class="a8f0ac66-813f-4f8e-b315-7f24163d0cdb" points="178.66 103.8 179.27 103.2 178.66 103.8 178.66 103.8"/>
    <polygon class="b1032eb8-b5a8-4e74-9cef-0053b4d184f3" points="178.66 103.8 179.27 103.2 178.66 103.8 178.66 103.8"/>
    <polygon class="a76cf36c-a768-4cf2-acda-4404a85c7f78" points="178.66 103.8 178.37 103.51 178.37 103.51 178.66 103.8 178.66 103.8 178.66 103.8"/>
    <polygon class="b1032eb8-b5a8-4e74-9cef-0053b4d184f3" points="178.66 103.8 178.37 103.51 178.37 103.51 178.66 103.8 178.66 103.8 178.66 103.8"/>
    <polygon class="b1032eb8-b5a8-4e74-9cef-0053b4d184f3" points="185.99 91.61 178.37 84 178.37 88.37 185.06 95.05 185.99 95.05 185.99 91.61"/>
    <polygon class="b1032eb8-b5a8-4e74-9cef-0053b4d184f3" points="185.99 91.61 178.37 84 178.37 88.37 185.06 95.05 185.99 95.05 185.99 91.61"/>
    <polygon class="b1032eb8-b5a8-4e74-9cef-0053b4d184f3" points="178.37 68.86 178.37 73.23 185.99 80.85 185.99 76.47 178.37 68.86"/>
    <polygon class="b1032eb8-b5a8-4e74-9cef-0053b4d184f3" points="178.37 68.86 178.37 73.23 185.99 80.85 185.99 76.47 178.37 68.86"/>
    <path class="b1032eb8-b5a8-4e74-9cef-0053b4d184f3" d="M171.41,9.09l.1,0Z"/>
    <path class="b1032eb8-b5a8-4e74-9cef-0053b4d184f3" d="M167.67,10.15Z"/>
    <path class="b1032eb8-b5a8-4e74-9cef-0053b4d184f3" d="M175.28,8.1c-1.26.3-2.52.62-3.77,1l-.1,0c-1.25.34-2.49.69-3.73,1.06h0V32.26l7.61,7.61Z"/>
    <path class="b1032eb8-b5a8-4e74-9cef-0053b4d184f3" d="M175.28,8.1c-1.26.3-2.52.62-3.77,1l-.1,0c-1.25.34-2.49.69-3.73,1.06h0V32.26l7.61,7.61Z"/>
    <path class="b1032eb8-b5a8-4e74-9cef-0053b4d184f3" d="M171.51,285l-.09,0Z"/>
    <path class="b1032eb8-b5a8-4e74-9cef-0053b4d184f3" d="M167.67,283.9c1.24.36,2.49.72,3.75,1.06l.09,0c1.25.34,2.51.67,3.77,1V254.19l-7.61,7.61Z"/>
    <path class="b1032eb8-b5a8-4e74-9cef-0053b4d184f3" d="M167.67,283.9c1.24.36,2.49.72,3.75,1.06l.09,0c1.25.34,2.51.67,3.77,1V254.19l-7.61,7.61Z"/>
    <polygon class="b1032eb8-b5a8-4e74-9cef-0053b4d184f3" points="167.67 58.16 167.67 62.53 175.28 70.14 175.28 65.77 167.67 58.16"/>
    <polygon class="b1032eb8-b5a8-4e74-9cef-0053b4d184f3" points="167.67 58.16 167.67 62.53 175.28 70.14 175.28 65.77 167.67 58.16"/>
    <polygon class="b1032eb8-b5a8-4e74-9cef-0053b4d184f3" points="169.86 105.75 167.67 103.57 167.67 105.75 169.86 105.75"/>
    <polygon class="b1032eb8-b5a8-4e74-9cef-0053b4d184f3" points="169.86 105.75 167.67 103.57 167.67 105.75 169.86 105.75"/>
    <polygon class="b1032eb8-b5a8-4e74-9cef-0053b4d184f3" points="167.67 73.3 167.67 77.67 175.28 85.28 175.28 80.91 167.67 73.3"/>
    <polygon class="b1032eb8-b5a8-4e74-9cef-0053b4d184f3" points="167.67 73.3 167.67 77.67 175.28 85.28 175.28 80.91 167.67 73.3"/>
    <polygon class="b1032eb8-b5a8-4e74-9cef-0053b4d184f3" points="167.67 190.48 169.86 188.3 167.67 188.3 167.67 190.48"/>
    <polygon class="b1032eb8-b5a8-4e74-9cef-0053b4d184f3" points="167.67 190.48 169.86 188.3 167.67 188.3 167.67 190.48"/>
    <polygon class="b1032eb8-b5a8-4e74-9cef-0053b4d184f3" points="167.67 246.66 167.67 251.03 175.28 243.41 175.28 239.05 167.67 246.66"/>
    <polygon class="b1032eb8-b5a8-4e74-9cef-0053b4d184f3" points="167.67 246.66 167.67 251.03 175.28 243.41 175.28 239.05 167.67 246.66"/>
    <polygon class="b1032eb8-b5a8-4e74-9cef-0053b4d184f3" points="169.93 199 169.27 199.65 167.67 201.24 167.67 205.62 172.35 200.94 174.29 199 169.93 199"/>
    <polygon class="b1032eb8-b5a8-4e74-9cef-0053b4d184f3" points="169.93 199 169.27 199.65 167.67 201.24 167.67 205.62 172.35 200.94 174.29 199 169.93 199"/>
    <polygon class="a8f0ac66-813f-4f8e-b315-7f24163d0cdb" points="172.35 200.94 174.29 199 174.29 199 172.35 200.94"/>
    <polygon class="b1032eb8-b5a8-4e74-9cef-0053b4d184f3" points="172.35 200.94 174.29 199 174.29 199 172.35 200.94"/>
    <polygon class="a8f0ac66-813f-4f8e-b315-7f24163d0cdb" points="169.93 199 169.27 199.65 169.93 199 169.93 199"/>
    <polygon class="b1032eb8-b5a8-4e74-9cef-0053b4d184f3" points="169.93 199 169.27 199.65 169.93 199 169.93 199"/>
    <polygon class="b1032eb8-b5a8-4e74-9cef-0053b4d184f3" points="167.67 216.38 167.67 220.75 175.28 213.15 175.28 208.77 167.67 216.38"/>
    <polygon class="b1032eb8-b5a8-4e74-9cef-0053b4d184f3" points="167.67 216.38 167.67 220.75 175.28 213.15 175.28 208.77 167.67 216.38"/>
    <polygon class="b1032eb8-b5a8-4e74-9cef-0053b4d184f3" points="167.67 231.52 167.67 235.89 175.28 228.28 175.28 223.91 167.67 231.52"/>
    <polygon class="b1032eb8-b5a8-4e74-9cef-0053b4d184f3" points="167.67 231.52 167.67 235.89 175.28 228.28 175.28 223.91 167.67 231.52"/>
    <polygon class="b1032eb8-b5a8-4e74-9cef-0053b4d184f3" points="174.29 95.05 167.67 88.43 167.67 92.81 169.93 95.05 174.29 95.05"/>
    <polygon class="b1032eb8-b5a8-4e74-9cef-0053b4d184f3" points="174.29 95.05 167.67 88.43 167.67 92.81 169.93 95.05 174.29 95.05"/>
    <polygon class="a76cf36c-a768-4cf2-acda-4404a85c7f78" points="174.29 95.05 167.67 88.43 167.67 88.43 174.29 95.05 174.29 95.05"/>
    <polygon class="b1032eb8-b5a8-4e74-9cef-0053b4d184f3" points="174.29 95.05 167.67 88.43 167.67 88.43 174.29 95.05 174.29 95.05"/>
    <polygon class="a76cf36c-a768-4cf2-acda-4404a85c7f78" points="167.67 92.81 167.67 92.81 169.93 95.05 169.93 95.05 167.67 92.81"/>
    <polygon class="b1032eb8-b5a8-4e74-9cef-0053b4d184f3" points="167.67 92.81 167.67 92.81 169.93 95.05 169.93 95.05 167.67 92.81"/>
    <polygon class="b1032eb8-b5a8-4e74-9cef-0053b4d184f3" points="167.67 43.02 167.67 47.4 175.28 55 175.28 50.63 167.67 43.02"/>
    <polygon class="b1032eb8-b5a8-4e74-9cef-0053b4d184f3" points="167.67 43.02 167.67 47.4 175.28 55 175.28 50.63 167.67 43.02"/>
    <polygon class="a76cf36c-a768-4cf2-acda-4404a85c7f78" points="175.28 50.63 167.67 43.02 167.67 43.02 175.28 50.63 175.28 50.63"/>
    <polygon class="b1032eb8-b5a8-4e74-9cef-0053b4d184f3" points="175.28 50.63 167.67 43.02 167.67 43.02 175.28 50.63 175.28 50.63"/>
    <polygon class="a76cf36c-a768-4cf2-acda-4404a85c7f78" points="167.67 47.4 175.28 55 175.28 55 167.67 47.4 167.67 47.4"/>
    <polygon class="b1032eb8-b5a8-4e74-9cef-0053b4d184f3" points="167.67 47.4 175.28 55 175.28 55 167.67 47.4 167.67 47.4"/>
    <polygon class="b1032eb8-b5a8-4e74-9cef-0053b4d184f3" points="156.97 199 156.97 201.19 159.16 199 156.97 199"/>
    <polygon class="b1032eb8-b5a8-4e74-9cef-0053b4d184f3" points="156.97 199 156.97 201.19 159.16 199 156.97 199"/>
    <polygon class="b1032eb8-b5a8-4e74-9cef-0053b4d184f3" points="161.05 177.59 157.96 180.68 162.33 180.68 164.58 178.44 164.58 177.59 161.05 177.59"/>
    <polygon class="b1032eb8-b5a8-4e74-9cef-0053b4d184f3" points="161.05 177.59 157.96 180.68 162.33 180.68 164.58 178.44 164.58 177.59 161.05 177.59"/>
    <polygon class="b1032eb8-b5a8-4e74-9cef-0053b4d184f3" points="157.9 169.98 158.15 169.73 156.97 168.55 156.97 169.98 157.9 169.98"/>
    <polygon class="b1032eb8-b5a8-4e74-9cef-0053b4d184f3" points="157.9 169.98 158.15 169.73 156.97 168.55 156.97 169.98 157.9 169.98"/>
    <polygon class="a8f0ac66-813f-4f8e-b315-7f24163d0cdb" points="157.9 169.98 157.9 169.98 158.15 169.73 158.15 169.73 157.9 169.98"/>
    <polygon class="b1032eb8-b5a8-4e74-9cef-0053b4d184f3" points="157.9 169.98 157.9 169.98 158.15 169.73 158.15 169.73 157.9 169.98"/>
    <polygon class="a76cf36c-a768-4cf2-acda-4404a85c7f78" points="156.97 168.55 156.97 168.55 158.15 169.73 158.15 169.73 158.15 169.73 156.97 168.55"/>
    <polygon class="b1032eb8-b5a8-4e74-9cef-0053b4d184f3" points="156.97 168.55 156.97 168.55 158.15 169.73 158.15 169.73 158.15 169.73 156.97 168.55"/>
    <path class="b1032eb8-b5a8-4e74-9cef-0053b4d184f3" d="M160.7,12.45l.13,0Z"/>
    <path class="b1032eb8-b5a8-4e74-9cef-0053b4d184f3" d="M164.58,11.13h0Z"/>
    <path class="b1032eb8-b5a8-4e74-9cef-0053b4d184f3" d="M164.58,11.13h0c-1.26.41-2.51.84-3.74,1.28l-.13,0c-1.25.45-2.5.92-3.73,1.4v7.7l7.61,7.62Z"/>
    <path class="b1032eb8-b5a8-4e74-9cef-0053b4d184f3" d="M164.58,11.13h0c-1.26.41-2.51.84-3.74,1.28l-.13,0c-1.25.45-2.5.92-3.73,1.4v7.7l7.61,7.62Z"/>
    <polygon class="b1032eb8-b5a8-4e74-9cef-0053b4d184f3" points="164.58 55.06 156.97 47.46 156.97 51.83 164.58 59.44 164.58 55.06"/>
    <polygon class="b1032eb8-b5a8-4e74-9cef-0053b4d184f3" points="164.58 55.06 156.97 47.46 156.97 51.83 164.58 59.44 164.58 55.06"/>
    <polygon class="b1032eb8-b5a8-4e74-9cef-0053b4d184f3" points="162.4 191.39 164.58 191.39 164.58 189.2 162.4 191.39"/>
    <polygon class="b1032eb8-b5a8-4e74-9cef-0053b4d184f3" points="162.4 191.39 164.58 191.39 164.58 189.2 162.4 191.39"/>
    <path class="b1032eb8-b5a8-4e74-9cef-0053b4d184f3" d="M164.58,282.92Z"/>
    <path class="b1032eb8-b5a8-4e74-9cef-0053b4d184f3" d="M160.84,281.64l-.14,0Z"/>
    <path class="b1032eb8-b5a8-4e74-9cef-0053b4d184f3" d="M157,280.2l.06,0-.06,0Z"/>
    <path class="b1032eb8-b5a8-4e74-9cef-0053b4d184f3" d="M157,280.2l.06,0c1.21.47,2.44.93,3.67,1.38l.14,0c1.23.44,2.48.87,3.73,1.28h0v-18L157,272.5Z"/>
    <path class="b1032eb8-b5a8-4e74-9cef-0053b4d184f3" d="M157,280.2l.06,0c1.21.47,2.44.93,3.67,1.38l.14,0c1.23.44,2.48.87,3.73,1.28h0v-18L157,272.5Z"/>
    <polygon class="b1032eb8-b5a8-4e74-9cef-0053b4d184f3" points="156.97 92.86 156.97 95.05 159.16 95.05 156.97 92.86"/>
    <polygon class="b1032eb8-b5a8-4e74-9cef-0053b4d184f3" points="156.97 92.86 156.97 95.05 159.16 95.05 156.97 92.86"/>
    <polygon class="b1032eb8-b5a8-4e74-9cef-0053b4d184f3" points="157.9 124.07 156.97 124.07 156.97 125.5 158.15 124.32 157.9 124.07"/>
    <polygon class="b1032eb8-b5a8-4e74-9cef-0053b4d184f3" points="157.9 124.07 156.97 124.07 156.97 125.5 158.15 124.32 157.9 124.07"/>
    <polygon class="a8f0ac66-813f-4f8e-b315-7f24163d0cdb" points="156.97 125.5 156.97 125.5 158.15 124.32 158.15 124.32 156.97 125.5"/>
    <polygon class="b1032eb8-b5a8-4e74-9cef-0053b4d184f3" points="156.97 125.5 156.97 125.5 158.15 124.32 158.15 124.32 156.97 125.5"/>
    <polygon class="a76cf36c-a768-4cf2-acda-4404a85c7f78" points="158.15 124.32 158.15 124.32 158.15 124.32 157.9 124.07 157.9 124.07 158.15 124.32"/>
    <polygon class="b1032eb8-b5a8-4e74-9cef-0053b4d184f3" points="158.15 124.32 158.15 124.32 158.15 124.32 157.9 124.07 157.9 124.07 158.15 124.32"/>
    <polygon class="b1032eb8-b5a8-4e74-9cef-0053b4d184f3" points="164.58 115.61 162.33 113.37 157.96 113.37 161.05 116.46 164.58 116.46 164.58 115.61"/>
    <polygon class="b1032eb8-b5a8-4e74-9cef-0053b4d184f3" points="164.58 115.61 162.33 113.37 157.96 113.37 161.05 116.46 164.58 116.46 164.58 115.61"/>
    <polygon class="b1032eb8-b5a8-4e74-9cef-0053b4d184f3" points="164.58 219.47 156.97 227.08 156.97 231.46 164.58 223.85 164.58 219.47"/>
    <polygon class="b1032eb8-b5a8-4e74-9cef-0053b4d184f3" points="164.58 219.47 156.97 227.08 156.97 231.46 164.58 223.85 164.58 219.47"/>
    <polygon class="b1032eb8-b5a8-4e74-9cef-0053b4d184f3" points="164.58 234.61 156.97 242.22 156.97 246.6 164.58 238.99 164.58 234.61"/>
    <polygon class="b1032eb8-b5a8-4e74-9cef-0053b4d184f3" points="164.58 234.61 156.97 242.22 156.97 246.6 164.58 238.99 164.58 234.61"/>
    <polygon class="b1032eb8-b5a8-4e74-9cef-0053b4d184f3" points="164.58 85.34 156.97 77.73 156.97 82.1 164.58 89.71 164.58 85.34"/>
    <polygon class="b1032eb8-b5a8-4e74-9cef-0053b4d184f3" points="164.58 85.34 156.97 77.73 156.97 82.1 164.58 89.71 164.58 85.34"/>
    <polygon class="a76cf36c-a768-4cf2-acda-4404a85c7f78" points="164.58 85.34 156.97 77.73 156.97 77.73 164.58 85.34 164.58 85.34"/>
    <polygon class="b1032eb8-b5a8-4e74-9cef-0053b4d184f3" points="164.58 85.34 156.97 77.73 156.97 77.73 164.58 85.34 164.58 85.34"/>
    <polygon class="a76cf36c-a768-4cf2-acda-4404a85c7f78" points="164.58 89.71 164.58 89.71 156.97 82.1 156.97 82.1 164.58 89.71"/>
    <polygon class="b1032eb8-b5a8-4e74-9cef-0053b4d184f3" points="164.58 89.71 164.58 89.71 156.97 82.1 156.97 82.1 164.58 89.71"/>
    <polygon class="b1032eb8-b5a8-4e74-9cef-0053b4d184f3" points="164.58 39.93 156.97 32.32 156.97 36.69 164.58 44.3 164.58 39.93"/>
    <polygon class="b1032eb8-b5a8-4e74-9cef-0053b4d184f3" points="164.58 39.93 156.97 32.32 156.97 36.69 164.58 44.3 164.58 39.93"/>
    <polygon class="a76cf36c-a768-4cf2-acda-4404a85c7f78" points="164.58 39.93 156.97 32.32 156.97 32.32 164.58 39.93 164.58 39.93"/>
    <polygon class="b1032eb8-b5a8-4e74-9cef-0053b4d184f3" points="164.58 39.93 156.97 32.32 156.97 32.32 164.58 39.93 164.58 39.93"/>
    <polygon class="a76cf36c-a768-4cf2-acda-4404a85c7f78" points="164.58 44.3 164.58 44.3 156.97 36.69 156.97 36.69 164.58 44.3"/>
    <polygon class="b1032eb8-b5a8-4e74-9cef-0053b4d184f3" points="164.58 44.3 164.58 44.3 156.97 36.69 156.97 36.69 164.58 44.3"/>
    <polygon class="b1032eb8-b5a8-4e74-9cef-0053b4d184f3" points="164.58 249.75 156.97 257.36 156.97 261.74 164.58 254.12 164.58 249.75"/>
    <polygon class="b1032eb8-b5a8-4e74-9cef-0053b4d184f3" points="164.58 249.75 156.97 257.36 156.97 261.74 164.58 254.12 164.58 249.75"/>
    <polygon class="b1032eb8-b5a8-4e74-9cef-0053b4d184f3" points="162.4 102.66 164.58 104.85 164.58 102.66 162.4 102.66"/>
    <polygon class="b1032eb8-b5a8-4e74-9cef-0053b4d184f3" points="162.4 102.66 164.58 104.85 164.58 102.66 162.4 102.66"/>
    <polygon class="b1032eb8-b5a8-4e74-9cef-0053b4d184f3" points="164.58 70.2 156.97 62.59 156.97 66.96 164.58 74.58 164.58 70.2"/>
    <polygon class="b1032eb8-b5a8-4e74-9cef-0053b4d184f3" points="164.58 70.2 156.97 62.59 156.97 66.96 164.58 74.58 164.58 70.2"/>
    <polygon class="b1032eb8-b5a8-4e74-9cef-0053b4d184f3" points="164.58 204.34 156.97 211.95 156.97 216.33 164.58 208.71 164.58 204.34"/>
    <polygon class="b1032eb8-b5a8-4e74-9cef-0053b4d184f3" points="164.58 204.34 156.97 211.95 156.97 216.33 164.58 208.71 164.58 204.34"/>
    <path class="b60c74c0-15bd-4841-ad9c-ee3d3e9a873e" d="M344.84,102.66h0c-.41-1.25-.84-2.49-1.27-3.73l-.07-.15c-.44-1.25-.9-2.49-1.38-3.73h-7.7l-7.61,7.61Z"/>
    <path class="b60c74c0-15bd-4841-ad9c-ee3d3e9a873e" d="M83.47,95.05H75.76s0,0,0,0c-.48,1.22-.93,2.45-1.38,3.69l-.06.17c-.43,1.23-.86,2.46-1.26,3.71h18Z"/>
    <polygon class="b60c74c0-15bd-4841-ad9c-ee3d3e9a873e" points="240.35 102.66 247.96 95.05 243.59 95.05 237.03 101.61 238.07 102.66 239.51 102.66 240.35 102.66"/>
    <polygon class="b60c74c0-15bd-4841-ad9c-ee3d3e9a873e" points="121.36 102.66 113.74 95.05 109.37 95.05 116.98 102.66 121.36 102.66"/>
    <polygon class="b60c74c0-15bd-4841-ad9c-ee3d3e9a873e" points="316.04 102.66 323.65 95.05 319.28 95.05 311.67 102.66 316.04 102.66"/>
    <polygon class="b60c74c0-15bd-4841-ad9c-ee3d3e9a873e" points="132.12 102.66 132.12 102.66 136.49 102.66 136.49 102.66 128.88 95.05 128.88 95.05 124.51 95.05 124.51 95.05 132.12 102.66"/>
    <polygon class="b60c74c0-15bd-4841-ad9c-ee3d3e9a873e" points="185.99 95.05 185.06 95.05 186.24 96.23 187.41 95.05 185.99 95.05"/>
    <polygon class="b60c74c0-15bd-4841-ad9c-ee3d3e9a873e" points="270.63 102.66 278.24 95.05 273.86 95.05 266.25 102.66 270.63 102.66"/>
    <polygon class="b60c74c0-15bd-4841-ad9c-ee3d3e9a873e" points="300.9 102.66 308.51 95.05 304.14 95.05 296.52 102.66 300.9 102.66"/>
    <polygon class="b60c74c0-15bd-4841-ad9c-ee3d3e9a873e" points="285.76 102.66 293.37 95.05 289 95.05 281.39 102.66 285.76 102.66"/>
    <polygon class="b60c74c0-15bd-4841-ad9c-ee3d3e9a873e" points="151.63 102.66 144.02 95.05 139.64 95.05 147.26 102.66 151.63 102.66"/>
    <polygon class="b60c74c0-15bd-4841-ad9c-ee3d3e9a873e" points="106.22 102.66 98.61 95.05 94.23 95.05 101.84 102.66 106.22 102.66"/>
    <polygon class="b60c74c0-15bd-4841-ad9c-ee3d3e9a873e" points="258.73 95.05 251.12 102.66 251.12 102.66 253.31 102.66 255.49 102.66 263.1 95.05 260.91 95.05 258.73 95.05 258.73 95.05"/>
    <polygon class="b60c74c0-15bd-4841-ad9c-ee3d3e9a873e" points="232.83 95.05 231.89 95.05 230.47 95.05 231.65 96.23 232.83 95.05"/>
    <path class="b60c74c0-15bd-4841-ad9c-ee3d3e9a873e" d="M217.05,95.69l.64-.64h-2.36l.47.47C216.22,95.57,216.63,95.62,217.05,95.69Z"/>
    <path class="b60c74c0-15bd-4841-ad9c-ee3d3e9a873e" d="M202.55,95.05h-2.36l.63.64c.43-.07.84-.12,1.26-.17Z"/>
    <polygon class="b60c74c0-15bd-4841-ad9c-ee3d3e9a873e" points="179.81 102.66 180.86 101.61 174.29 95.05 174.29 95.05 169.93 95.05 169.93 95.05 177.53 102.66 177.53 102.66 178.37 102.66 179.81 102.66"/>
    <polygon class="b60c74c0-15bd-4841-ad9c-ee3d3e9a873e" points="162.4 102.66 164.58 102.66 166.76 102.66 159.16 95.05 156.97 95.05 154.78 95.05 162.4 102.66"/>
    <polygon class="b60c74c0-15bd-4841-ad9c-ee3d3e9a873e" points="109.31 105.75 104.94 105.75 112.55 113.37 116.92 113.37 109.31 105.75"/>
    <polygon class="b60c74c0-15bd-4841-ad9c-ee3d3e9a873e" points="124.45 105.75 120.07 105.75 127.69 113.37 132.06 113.37 124.45 105.75"/>
    <path class="b60c74c0-15bd-4841-ad9c-ee3d3e9a873e" d="M94.17,105.75H72.08c-.38,1.25-.74,2.5-1.08,3.76a.64.64,0,0,0,0,.07c-.33,1.25-.66,2.5-1,3.77v0h31.77Z"/>
    <path class="b60c74c0-15bd-4841-ad9c-ee3d3e9a873e" d="M347.87,113.37a0,0,0,0,0,0,0c-.29-1.25-.62-2.5-.95-3.74,0,0,0-.09,0-.13-.33-1.25-.69-2.49-1.06-3.73h-22.1l-7.61,7.62Z"/>
    <polygon class="b60c74c0-15bd-4841-ad9c-ee3d3e9a873e" points="154.72 105.75 150.35 105.75 157.96 113.37 162.33 113.37 154.72 105.75"/>
    <polygon class="b60c74c0-15bd-4841-ad9c-ee3d3e9a873e" points="147.2 113.37 139.58 105.75 139.58 105.75 135.21 105.75 135.21 105.75 142.82 113.37 142.82 113.37 147.2 113.37 147.2 113.37"/>
    <polygon class="b60c74c0-15bd-4841-ad9c-ee3d3e9a873e" points="312.94 105.75 308.57 105.75 300.96 113.37 305.33 113.37 312.94 105.75"/>
    <polygon class="b60c74c0-15bd-4841-ad9c-ee3d3e9a873e" points="282.67 105.75 278.3 105.75 270.69 113.37 275.06 113.37 282.67 105.75"/>
    <path class="b60c74c0-15bd-4841-ad9c-ee3d3e9a873e" d="M172.24,110.23l1-1-3.42-3.43h-4.38l5.62,5.62,1.05-1.05A.76.76,0,0,1,172.24,110.23Z"/>
    <polygon class="b60c74c0-15bd-4841-ad9c-ee3d3e9a873e" points="297.81 105.75 293.43 105.75 285.83 113.37 290.2 113.37 297.81 105.75"/>
    <path class="b60c74c0-15bd-4841-ad9c-ee3d3e9a873e" d="M245.69,110.28l1.09,1.09,5.61-5.62H248l-3.42,3.43,1.09,1.09Z"/>
    <polygon class="b60c74c0-15bd-4841-ad9c-ee3d3e9a873e" points="267.54 105.75 263.16 105.75 255.56 113.37 259.92 113.37 267.54 105.75"/>
    <polygon class="b60c74c0-15bd-4841-ad9c-ee3d3e9a873e" points="287.11 116.46 282.73 116.46 275.12 124.07 279.49 124.07 287.11 116.46"/>
    <path class="b60c74c0-15bd-4841-ad9c-ee3d3e9a873e" d="M104.88,116.46H69.3v0c-.27,1.24-.53,2.5-.77,3.75v0c-.25,1.27-.47,2.53-.67,3.81h44.63Z"/>
    <polygon class="b60c74c0-15bd-4841-ad9c-ee3d3e9a873e" points="157.9 124.07 157.9 124.07 150.29 116.46 150.29 116.46 145.92 116.46 145.92 116.46 153.52 124.07 153.52 124.07 156.97 124.07 157.9 124.07"/>
    <polygon class="b60c74c0-15bd-4841-ad9c-ee3d3e9a873e" points="135.15 116.46 130.78 116.46 138.39 124.07 142.76 124.07 135.15 116.46"/>
    <polygon class="b60c74c0-15bd-4841-ad9c-ee3d3e9a873e" points="264.36 124.07 271.96 116.46 267.6 116.46 259.98 124.07 260.91 124.07 264.36 124.07"/>
    <path class="b60c74c0-15bd-4841-ad9c-ee3d3e9a873e" d="M350,124.07a.11.11,0,0,0,0,0c-.2-1.25-.42-2.5-.65-3.74a.64.64,0,0,0,0-.07c-.24-1.25-.49-2.5-.76-3.73v0H313l-7.62,7.61Z"/>
    <polygon class="b60c74c0-15bd-4841-ad9c-ee3d3e9a873e" points="302.24 116.46 297.87 116.46 290.26 124.07 294.63 124.07 302.24 116.46"/>
    <polygon class="b60c74c0-15bd-4841-ad9c-ee3d3e9a873e" points="120.02 116.46 115.64 116.46 123.25 124.07 127.63 124.07 120.02 116.46"/>
    <polygon class="b60c74c0-15bd-4841-ad9c-ee3d3e9a873e" points="254.35 118.93 256.83 116.46 253.31 116.46 252.45 116.46 252.16 116.75 254.35 118.93"/>
    <polygon class="b60c74c0-15bd-4841-ad9c-ee3d3e9a873e" points="165.71 116.75 165.43 116.46 164.58 116.46 161.05 116.46 163.53 118.93 165.71 116.75"/>
    <polygon class="b60c74c0-15bd-4841-ad9c-ee3d3e9a873e" points="130.72 127.17 126.35 127.17 133.95 134.77 138.33 134.77 130.72 127.17"/>
    <path class="b60c74c0-15bd-4841-ad9c-ee3d3e9a873e" d="M115.58,127.17H67.4c-.18,1.24-.33,2.49-.48,3.76v0c-.14,1.25-.27,2.51-.37,3.77v0H123.2Z"/>
    <path class="b60c74c0-15bd-4841-ad9c-ee3d3e9a873e" d="M351.33,134.77h0c-.1-1.27-.23-2.54-.37-3.81v0c-.14-1.25-.3-2.5-.47-3.74v0H302.31l-7.63,7.6Z"/>
    <polygon class="b60c74c0-15bd-4841-ad9c-ee3d3e9a873e" points="276.4 127.17 272.03 127.17 267.3 131.89 269.49 134.07 276.4 127.17"/>
    <polygon class="b60c74c0-15bd-4841-ad9c-ee3d3e9a873e" points="145.86 127.17 141.48 127.17 148.4 134.07 150.57 131.89 145.86 127.17"/>
    <polygon class="b60c74c0-15bd-4841-ad9c-ee3d3e9a873e" points="291.54 127.17 287.16 127.17 279.55 134.77 283.93 134.77 291.54 127.17"/>
    <path class="b60c74c0-15bd-4841-ad9c-ee3d3e9a873e" d="M126.28,137.87h-60c-.08,1.25-.15,2.51-.19,3.77v0c0,1.26-.08,2.53-.09,3.8h67.85Z"/>
    <polygon class="b60c74c0-15bd-4841-ad9c-ee3d3e9a873e" points="149.03 145.48 148.4 144.84 147.75 145.48 149.03 145.48"/>
    <polygon class="b60c74c0-15bd-4841-ad9c-ee3d3e9a873e" points="277.06 141.64 280.83 137.87 276.46 137.87 274.87 139.46 277.06 141.64"/>
    <path class="b60c74c0-15bd-4841-ad9c-ee3d3e9a873e" d="M260.28,138.92c.07.41.11.83.17,1.25l1.47,1.47,2.19-2.18-1.59-1.59h-1.19Z"/>
    <polygon class="b60c74c0-15bd-4841-ad9c-ee3d3e9a873e" points="270.12 145.48 269.49 144.84 268.85 145.48 270.12 145.48"/>
    <path class="b60c74c0-15bd-4841-ad9c-ee3d3e9a873e" d="M157.43,140.17c.06-.41.11-.84.17-1.26l-1-1h-1.2l-1.59,1.59,2.19,2.18Z"/>
    <path class="b60c74c0-15bd-4841-ad9c-ee3d3e9a873e" d="M351.85,145.48h0c0-1.27,0-2.53-.09-3.8a.07.07,0,0,1,0-.05q-.06-1.86-.18-3.72v0h-60L284,145.48Z"/>
    <polygon class="b60c74c0-15bd-4841-ad9c-ee3d3e9a873e" points="141.41 137.87 137.04 137.87 140.82 141.64 143.01 139.46 141.41 137.87"/>
    <polygon class="b60c74c0-15bd-4841-ad9c-ee3d3e9a873e" points="147.75 148.57 148.4 149.22 149.03 148.57 147.75 148.57"/>
    <path class="b60c74c0-15bd-4841-ad9c-ee3d3e9a873e" d="M133.89,148.57H66c0,1.27,0,2.54.09,3.8v0c0,1.27.11,2.53.19,3.78h60Z"/>
    <polygon class="b60c74c0-15bd-4841-ad9c-ee3d3e9a873e" points="268.85 148.57 269.49 149.22 270.12 148.57 268.85 148.57"/>
    <path class="b60c74c0-15bd-4841-ad9c-ee3d3e9a873e" d="M351.57,156.18v0c.08-1.24.14-2.48.18-3.73a.06.06,0,0,1,0,0c.05-1.26.07-2.53.09-3.8H284l7.61,7.61Z"/>
    <polygon class="b60c74c0-15bd-4841-ad9c-ee3d3e9a873e" points="274.87 154.59 276.46 156.18 280.83 156.18 277.06 152.41 274.87 154.59"/>
    <path class="b60c74c0-15bd-4841-ad9c-ee3d3e9a873e" d="M157.6,155.14c-.06-.42-.11-.85-.17-1.26L156,152.4l-2.19,2.19,1.59,1.59h1.2Z"/>
    <polygon class="b60c74c0-15bd-4841-ad9c-ee3d3e9a873e" points="137.04 156.18 141.42 156.18 143.01 154.59 140.82 152.41 137.04 156.18"/>
    <path class="b60c74c0-15bd-4841-ad9c-ee3d3e9a873e" d="M260.45,153.88c-.06.42-.1.84-.17,1.26l1,1h1.2l1.59-1.59-2.19-2.19Z"/>
    <polygon class="b60c74c0-15bd-4841-ad9c-ee3d3e9a873e" points="287.16 166.88 291.53 166.88 283.93 159.28 279.55 159.28 287.16 166.88"/>
    <polygon class="b60c74c0-15bd-4841-ad9c-ee3d3e9a873e" points="272.03 166.88 276.4 166.88 269.49 159.98 267.3 162.17 272.03 166.88"/>
    <path class="b60c74c0-15bd-4841-ad9c-ee3d3e9a873e" d="M123.2,159.28H66.55c.1,1.27.23,2.53.37,3.8v0c.14,1.26.3,2.51.48,3.76h48.18Z"/>
    <path class="b60c74c0-15bd-4841-ad9c-ee3d3e9a873e" d="M350.49,166.88v0q.52-3.77.84-7.58H294.68l7.63,7.6Z"/>
    <polygon class="b60c74c0-15bd-4841-ad9c-ee3d3e9a873e" points="141.48 166.88 145.86 166.88 150.57 162.17 148.4 159.98 141.48 166.88"/>
    <polygon class="b60c74c0-15bd-4841-ad9c-ee3d3e9a873e" points="126.35 166.88 130.72 166.88 138.33 159.28 133.95 159.28 126.35 166.88"/>
    <path class="b60c74c0-15bd-4841-ad9c-ee3d3e9a873e" d="M348.58,177.58h0c.27-1.24.52-2.5.77-3.76v0c.24-1.26.46-2.51.67-3.78v0H305.39l7.62,7.6Z"/>
    <polygon class="b60c74c0-15bd-4841-ad9c-ee3d3e9a873e" points="282.73 177.59 287.11 177.59 279.49 169.98 275.12 169.98 282.73 177.59"/>
    <polygon class="b60c74c0-15bd-4841-ad9c-ee3d3e9a873e" points="130.78 177.59 135.15 177.59 142.76 169.98 138.39 169.98 130.78 177.59"/>
    <polygon class="b60c74c0-15bd-4841-ad9c-ee3d3e9a873e" points="252.16 177.3 252.45 177.59 253.31 177.59 256.83 177.59 254.35 175.11 252.16 177.3"/>
    <polygon class="b60c74c0-15bd-4841-ad9c-ee3d3e9a873e" points="156.97 169.98 153.53 169.98 153.53 169.98 145.92 177.59 145.92 177.59 150.29 177.59 150.29 177.59 157.9 169.98 157.9 169.98 156.97 169.98"/>
    <path class="b60c74c0-15bd-4841-ad9c-ee3d3e9a873e" d="M112.49,170H67.86c.2,1.27.42,2.53.67,3.8a.15.15,0,0,0,0,.06c.23,1.25.49,2.5.76,3.74h35.58Z"/>
    <polygon class="b60c74c0-15bd-4841-ad9c-ee3d3e9a873e" points="297.87 177.59 302.24 177.59 294.63 169.98 290.26 169.98 297.87 177.59"/>
    <polygon class="b60c74c0-15bd-4841-ad9c-ee3d3e9a873e" points="115.64 177.59 120.02 177.59 127.63 169.98 123.25 169.98 115.64 177.59"/>
    <polygon class="b60c74c0-15bd-4841-ad9c-ee3d3e9a873e" points="259.98 169.98 267.6 177.59 271.96 177.59 264.36 169.98 260.91 169.98 259.98 169.98"/>
    <polygon class="b60c74c0-15bd-4841-ad9c-ee3d3e9a873e" points="163.53 175.11 161.05 177.59 164.58 177.59 165.43 177.59 165.71 177.3 163.53 175.11"/>
    <polygon class="b60c74c0-15bd-4841-ad9c-ee3d3e9a873e" points="142.82 180.68 135.21 188.3 135.21 188.3 139.58 188.3 139.58 188.3 147.2 180.68 147.2 180.68 142.82 180.68 142.82 180.68"/>
    <polygon class="b60c74c0-15bd-4841-ad9c-ee3d3e9a873e" points="308.57 188.3 312.94 188.3 305.33 180.68 300.96 180.68 308.57 188.3"/>
    <polygon class="b60c74c0-15bd-4841-ad9c-ee3d3e9a873e" points="293.43 188.3 297.81 188.3 290.2 180.68 285.83 180.68 293.43 188.3"/>
    <path class="b60c74c0-15bd-4841-ad9c-ee3d3e9a873e" d="M345.81,188.3h0c.37-1.25.73-2.5,1.07-3.75,0,0,0-.05,0-.09.33-1.25.67-2.52,1-3.78H316.1l7.61,7.62Z"/>
    <path class="b60c74c0-15bd-4841-ad9c-ee3d3e9a873e" d="M172.15,183.73l-1.05-1-5.61,5.62h4.37l3.42-3.43-1-1.05A.38.38,0,0,1,172.15,183.73Z"/>
    <polygon class="b60c74c0-15bd-4841-ad9c-ee3d3e9a873e" points="120.08 188.3 124.45 188.3 132.06 180.68 127.69 180.68 120.08 188.3"/>
    <polygon class="b60c74c0-15bd-4841-ad9c-ee3d3e9a873e" points="278.3 188.3 282.67 188.3 275.06 180.68 270.69 180.68 278.3 188.3"/>
    <polygon class="b60c74c0-15bd-4841-ad9c-ee3d3e9a873e" points="104.94 188.3 109.31 188.3 116.93 180.68 112.55 180.68 104.94 188.3"/>
    <path class="b60c74c0-15bd-4841-ad9c-ee3d3e9a873e" d="M101.79,180.68H70c.29,1.26.62,2.53,1,3.78,0,0,0,.06,0,.1.34,1.24.7,2.49,1.07,3.73a0,0,0,0,1,0,0h22.1Z"/>
    <polygon class="b60c74c0-15bd-4841-ad9c-ee3d3e9a873e" points="263.16 188.3 267.53 188.3 259.92 180.68 255.56 180.68 263.16 188.3"/>
    <path class="b60c74c0-15bd-4841-ad9c-ee3d3e9a873e" d="M245.69,183.78l-1.09,1.09L248,188.3h4.37l-5.61-5.62-1.09,1.09Z"/>
    <polygon class="b60c74c0-15bd-4841-ad9c-ee3d3e9a873e" points="150.35 188.3 154.72 188.3 162.33 180.68 157.96 180.68 150.35 188.3"/>
    <path class="b60c74c0-15bd-4841-ad9c-ee3d3e9a873e" d="M342.12,199a.14.14,0,0,1,0-.06c.48-1.22.93-2.45,1.37-3.68,0,0,0-.09.05-.13.44-1.23.86-2.48,1.27-3.73a0,0,0,0,1,0,0h-18l7.61,7.61Z"/>
    <polygon class="b60c74c0-15bd-4841-ad9c-ee3d3e9a873e" points="230.47 199 231.89 199 232.82 199 231.65 197.82 230.47 199"/>
    <path class="b60c74c0-15bd-4841-ad9c-ee3d3e9a873e" d="M91.08,191.39h-18c.41,1.26.84,2.5,1.28,3.73a.65.65,0,0,0,0,.13c.45,1.25.91,2.5,1.39,3.74h7.71Z"/>
    <polygon class="b60c74c0-15bd-4841-ad9c-ee3d3e9a873e" points="177.53 191.39 177.53 191.39 169.93 199 169.93 199 174.29 199 174.29 199 180.86 192.44 179.81 191.39 178.37 191.39 177.53 191.39"/>
    <polygon class="b60c74c0-15bd-4841-ad9c-ee3d3e9a873e" points="147.26 191.39 139.64 199 144.02 199 151.63 191.39 147.26 191.39"/>
    <polygon class="b60c74c0-15bd-4841-ad9c-ee3d3e9a873e" points="266.25 191.39 273.86 199 278.24 199 270.63 191.39 266.25 191.39"/>
    <polygon class="b60c74c0-15bd-4841-ad9c-ee3d3e9a873e" points="136.49 191.39 136.49 191.39 132.12 191.39 132.12 191.39 124.51 199 124.51 199 128.88 199 128.88 199 136.49 191.39"/>
    <polygon class="b60c74c0-15bd-4841-ad9c-ee3d3e9a873e" points="311.67 191.39 319.28 199 323.65 199 316.04 191.39 311.67 191.39"/>
    <polygon class="b60c74c0-15bd-4841-ad9c-ee3d3e9a873e" points="281.39 191.39 289 199 293.37 199 285.76 191.39 281.39 191.39"/>
    <polygon class="b60c74c0-15bd-4841-ad9c-ee3d3e9a873e" points="101.84 191.39 94.23 199 98.61 199 106.22 191.39 101.84 191.39"/>
    <polygon class="b60c74c0-15bd-4841-ad9c-ee3d3e9a873e" points="116.98 191.39 109.37 199 113.74 199 121.36 191.39 116.98 191.39"/>
    <polygon class="b60c74c0-15bd-4841-ad9c-ee3d3e9a873e" points="296.52 191.39 304.14 199 308.51 199 300.9 191.39 296.52 191.39"/>
    <polygon class="b60c74c0-15bd-4841-ad9c-ee3d3e9a873e" points="255.49 191.39 253.31 191.39 251.12 191.39 251.12 191.39 258.73 199 258.73 199 260.91 199 263.1 199 255.49 191.39"/>
    <polygon class="b60c74c0-15bd-4841-ad9c-ee3d3e9a873e" points="238.07 191.39 237.03 192.44 243.59 199 247.96 199 240.35 191.39 239.51 191.39 238.07 191.39"/>
    <path class="b60c74c0-15bd-4841-ad9c-ee3d3e9a873e" d="M215.8,198.53l-.46.47h2.35l-.64-.63Z"/>
    <path class="b60c74c0-15bd-4841-ad9c-ee3d3e9a873e" d="M200.2,199h2.35l-.47-.47-1.26-.16Z"/>
    <polygon class="b60c74c0-15bd-4841-ad9c-ee3d3e9a873e" points="185.06 199 185.99 199 187.41 199 186.24 197.82 185.06 199"/>
    <polygon class="b60c74c0-15bd-4841-ad9c-ee3d3e9a873e" points="166.76 191.39 164.58 191.39 162.4 191.39 154.78 199 156.97 199 159.16 199 166.76 191.39"/>
    <polygon class="a8f0ac66-813f-4f8e-b315-7f24163d0cdb" points="262.52 156.18 262.29 156.43 261.92 156.78 261.92 156.78 267.3 162.17 269.49 159.98 264.11 154.59 262.52 156.18"/>
    <polygon class="a8f0ac66-813f-4f8e-b315-7f24163d0cdb" points="211.13 207.58 210.69 208.01 210.49 208.22 209.99 208.71 208.94 209.77 208.94 209.77 214.31 215.14 216.51 212.95 211.13 207.58"/>
    <path class="a8f0ac66-813f-4f8e-b315-7f24163d0cdb" d="M244.57,184.85l0,0,1.09-1.09C245.33,184.14,245,184.5,244.57,184.85Z"/>
    <path class="a8f0ac66-813f-4f8e-b315-7f24163d0cdb" d="M245.69,183.77l1.09-1.09,0,0C246.4,183,246.06,183.41,245.69,183.77Z"/>
    <polygon class="a8f0ac66-813f-4f8e-b315-7f24163d0cdb" points="216.51 202.19 216.51 202.19 221.89 207.58 224.08 205.39 218.69 200.01 218.69 200.01 218.1 200.6 216.51 202.19"/>
    <path class="a8f0ac66-813f-4f8e-b315-7f24163d0cdb" d="M203.56,215.14l-3.78,3.78L196.69,222l-7.61,7.61L186,232.71l-7.62,7.61-3.09,3.09L167.67,251l-3.09,3.09L157,261.73l-12.75,12.76h0c1.19.59,2.38,1.18,3.59,1.75l.09.05c1.2.56,2.41,1.11,3.62,1.65L157,272.5l7.61-7.62,3.09-3.08,7.61-7.61,3.09-3.1,7.62-7.61,3.09-3.09,7.61-7.62,3.09-3.09,7.61-7.61,1.55-1.55h0Z"/>
    <path class="a8f0ac66-813f-4f8e-b315-7f24163d0cdb" d="M313,105.75l-7.62,7.62-3.09,3.09-7.61,7.61-3.09,3.1-7.61,7.6-3.09,3.1-3.78,3.77,5.38,5.39,1.55-1.55,7.61-7.61,3.08-3.1,7.63-7.6,3.08-3.1,7.62-7.61,3.09-3.09,7.61-7.62,3.1-3.09,7.61-7.61,5.43-5.44c-.53-1.21-1.07-2.41-1.64-3.6l0-.12c-.57-1.21-1.16-2.4-1.76-3.59h0L323.65,95.05,316,102.66Z"/>
    <polygon class="a8f0ac66-813f-4f8e-b315-7f24163d0cdb" points="269.49 149.22 274.87 154.59 277.06 152.41 271.67 147.03 270.12 148.57 269.49 149.22"/>
    <path class="a8f0ac66-813f-4f8e-b315-7f24163d0cdb" d="M257,166.94l2.78,2.79,1.18-1.18,1-1-3.78-3.78C257.78,164.84,257.39,165.9,257,166.94Z"/>
    <path class="a8f0ac66-813f-4f8e-b315-7f24163d0cdb" d="M251.59,176.72l.57.58,2.19-2.19-1-1C252.78,175,252.19,175.85,251.59,176.72Z"/>
    <path class="a8f0ac66-813f-4f8e-b315-7f24163d0cdb" d="M236,191.4l1,1,1-1.05,1.14-1.14-.57-.58C237.76,190.27,236.9,190.85,236,191.4Z"/>
    <path class="a8f0ac66-813f-4f8e-b315-7f24163d0cdb" d="M225.68,196.23l3.78,3.78h0l1-1,1.18-1.18L228.86,195C227.83,195.47,226.75,195.86,225.68,196.23Z"/>
    <path class="a8f0ac66-813f-4f8e-b315-7f24163d0cdb" d="M297.81,105.75l-7.61,7.62-3.09,3.09-7.62,7.61-3.09,3.1-6.91,6.9,5.38,5.39,1.59-1.59,3.09-3.1,7.61-7.6,3.1-3.1,7.61-7.61,3.09-3.09,7.61-7.62,3.1-3.09,7.61-7.61L334.9,79.43l0,0c-1.23-2.3-2.54-4.57-3.9-6.8,0,0,0,0,0,0h0L308.51,95.05l-7.61,7.61Z"/>
    <path class="a8f0ac66-813f-4f8e-b315-7f24163d0cdb" d="M167.67,246.66l7.61-7.61,3.09-3.1,7.62-7.61,3.09-3.09,7.61-7.62,3.09-3.09,1.59-1.59L196,207.58h0l-6.91,6.91L186,217.58l-7.62,7.61-3.09,3.09-7.61,7.61-3.09,3.1L157,246.6l-22.46,22.46h0c2.23,1.37,4.51,2.68,6.81,3.92l8.59-8.57,7-7.05,7.61-7.61Z"/>
    <polygon class="a8f0ac66-813f-4f8e-b315-7f24163d0cdb" points="207.39 206.94 207.89 206.44 208.94 205.38 208.94 205.38 203.56 200.01 201.37 202.19 206.76 207.58 206.99 207.35 207.39 206.94"/>
    <polygon class="a8f0ac66-813f-4f8e-b315-7f24163d0cdb" points="261.92 141.64 267.3 147.03 268.85 145.48 269.49 144.84 264.11 139.46 261.92 141.64"/>
    <path class="a8f0ac66-813f-4f8e-b315-7f24163d0cdb" d="M261.92,152.4l-1.18-1.19c-.08.9-.17,1.78-.29,2.67Z"/>
    <path class="a8f0ac66-813f-4f8e-b315-7f24163d0cdb" d="M215.34,199l.46-.47c-.88.12-1.77.21-2.67.28l1.18,1.2h0Z"/>
    <path class="a8f0ac66-813f-4f8e-b315-7f24163d0cdb" d="M282.67,105.75l-7.61,7.62-3.1,3.09-7.6,7.61-2.44,2.44,5.38,5.38,4.73-4.72,3.09-3.1,7.61-7.61,3.1-3.09,7.6-7.62,3.09-3.09,7.62-7.61L329.29,69.9l-.06-.1c-.67-1-1.36-2.07-2.06-3.1a1,1,0,0,0-.09-.13c-.71-1-1.43-2.06-2.15-3.07h0L293.37,95.05l-7.61,7.61Z"/>
    <path class="a8f0ac66-813f-4f8e-b315-7f24163d0cdb" d="M167.67,231.52l7.61-7.61,3.09-3.1,7.62-7.6,3.09-3.1,4.73-4.73h0L188.42,200h0L186,202.44l-7.62,7.62-3.09,3.09-7.61,7.6-3.09,3.1L157,231.46,125.42,263h0c1,.73,2,1.45,3.06,2.15l.14.1c1,.69,2,1.38,3.09,2l.1.08L157,242.22l7.61-7.61Z"/>
    <path class="a8f0ac66-813f-4f8e-b315-7f24163d0cdb" d="M260.28,138.92l1.05-1,.59-.6h0l-2.46-2.47C259.78,136.15,260.06,137.53,260.28,138.92Z"/>
    <path class="a8f0ac66-813f-4f8e-b315-7f24163d0cdb" d="M200.2,199l.62-.63c-1.38-.22-2.75-.51-4.1-.84l2.47,2.48.59-.6Z"/>
    <path class="a8f0ac66-813f-4f8e-b315-7f24163d0cdb" d="M267.54,105.75l-7.62,7.62-3.09,3.09-2.48,2.47,5.38,5.39.25-.25,7.62-7.61,3.09-3.09,7.6-7.62,3.1-3.09L289,95.05,323.07,61c-.77-1-1.54-2-2.33-3l-.05-.06c-.78-1-1.58-2-2.38-2.9l0,0h0L285.82,87.47l-7.58,7.58-7.61,7.61Z"/>
    <path class="a8f0ac66-813f-4f8e-b315-7f24163d0cdb" d="M167.67,216.38l7.61-7.61,3.09-3.09,6.69-6.68,1.18-1.18-5.38-5.38L174.29,199l-1.94,1.94-4.68,4.68-3.09,3.09L157,216.33l-38,38-2,2h0l0,0c1,.8,1.91,1.6,2.89,2.38a.18.18,0,0,1,.07.05c1,.79,2,1.57,3,2.33L157,227.08l7.61-7.61Z"/>
    <path class="a8f0ac66-813f-4f8e-b315-7f24163d0cdb" d="M167.67,201.24l1.6-1.59.66-.65,7.6-7.61h0l.28-.28.56-.56.29-.3-5.38-5.38-3.42,3.43-2.19,2.18-.91.91-7.6,7.61L157,201.19l-48,48h0c.89.87,1.81,1.75,2.72,2.6l.05,0c.92.84,1.84,1.68,2.78,2.51h0L157,212l7.61-7.61Z"/>
    <path class="a8f0ac66-813f-4f8e-b315-7f24163d0cdb" d="M255.49,102.66l-2.18,2.19-.92.9-5.61,5.62,5.38,5.38.29-.29.86-.85,2.25-2.24,7.6-7.62,3.09-3.09,7.61-7.61,42.41-42.4,0,0c-.81-.93-1.66-1.86-2.51-2.77l0-.05c-.86-.92-1.73-1.83-2.6-2.73h0l-48,48Z"/>
    <path class="a8f0ac66-813f-4f8e-b315-7f24163d0cdb" d="M250.21,92.81,248,95.05l-7.61,7.61-.84.85-.3.29,5.39,5.38,3.42-3.43,2.19-2.18h0l.91-.91h0l7.6-7.61,2.19-2.19h0l48-48h0l0,0c-.88-.87-1.79-1.73-2.7-2.57l-.06-.07q-1.38-1.28-2.79-2.52h0L260.91,82.1l-7.6,7.61Z"/>
    <path class="a8f0ac66-813f-4f8e-b315-7f24163d0cdb" d="M162.4,191.39l2.18-2.19.91-.9,5.61-5.62-5.39-5.38-.28.28-.85.86-2.25,2.24-7.61,7.62-3.09,3.09L144,199l-42.4,42.4h0c.83.95,1.67,1.87,2.53,2.8l0,.06c.85.92,1.72,1.82,2.6,2.72h0l48-48Z"/>
    <path class="a8f0ac66-813f-4f8e-b315-7f24163d0cdb" d="M150.35,188.3l7.61-7.62,3.09-3.1,2.48-2.47-5.38-5.38h0l-.25.25-7.61,7.6h0l-3.09,3.1h0l-7.62,7.62h0l-3.09,3.09h0L128.88,199h0L94.81,233.07c.77,1,1.55,2,2.34,3,0,0,0,0,0,0,.79,1,1.59,2,2.41,2.93h0l40-40.05,7.62-7.61Z"/>
    <path class="a8f0ac66-813f-4f8e-b315-7f24163d0cdb" d="M250.21,77.67l-7.61,7.61-3.09,3.09-6.68,6.68-1.18,1.18,5.38,5.38,6.56-6.56,6.62-6.62,3.1-3.09,7.6-7.61,40-40.05h0c-.95-.81-1.92-1.6-2.9-2.38l-.09-.07c-1-.79-2-1.55-3-2.31l0,0L260.91,67l-7.6,7.62Z"/>
    <path class="a8f0ac66-813f-4f8e-b315-7f24163d0cdb" d="M132.12,191.39h0l3.09-3.09h0l7.61-7.62h0l3.1-3.1h0l7.61-7.6h0l2.43-2.44h0l-5.38-5.37-4.72,4.71-3.1,3.1-7.62,7.6-3.08,3.1-7.61,7.62-3.09,3.09L113.74,199,88.59,224.15l0,.06c.68,1.06,1.37,2.1,2.08,3.14l.09.13c.7,1,1.43,2.06,2.15,3.06h0l26.34-26.33,5.22-5.21h0Z"/>
    <path class="a8f0ac66-813f-4f8e-b315-7f24163d0cdb" d="M253.31,59.44h0l-3.1,3.09h0l-7.61,7.61h0l-3.09,3.09h0l-7.62,7.62h0l-3.09,3.08h0l-1.5,1.51-3.22,3.22h0l5.38,5.39h0l1.64-1.65.79-.79L239.51,84l3.09-3.09,7.61-7.61,3.1-3.09,7.6-7.62L292.46,31h0c-1-.74-2.06-1.46-3.1-2.18,0,0-.05,0-.08-.06-1.07-.72-2.14-1.43-3.22-2.12L260.91,51.83h0Z"/>
    <path class="a8f0ac66-813f-4f8e-b315-7f24163d0cdb" d="M157.6,155.14l-1,1-.22.22-.38.38h0l2.47,2.47C158.11,157.9,157.82,156.53,157.6,155.14Z"/>
    <path class="a8f0ac66-813f-4f8e-b315-7f24163d0cdb" d="M120.08,188.3l7.61-7.62,3.09-3.1,7.61-7.6,3.09-3.1,6.92-6.9L143,154.59l-1.59,1.59-3.09,3.1-7.61,7.6-3.09,3.1-7.61,7.6-3.09,3.1-7.62,7.62-3.09,3.09L98.61,199,83,214.62h0q1.88,3.48,3.93,6.84l19.31-19.31,3.15-3.15,7.61-7.61Z"/>
    <path class="a8f0ac66-813f-4f8e-b315-7f24163d0cdb" d="M250.21,47.4,242.6,55l-3.09,3.1-7.62,7.61L228.8,68.8l-7.61,7.61L218.1,79.5l-1.59,1.59,5.38,5.39,4.76-4.77,2.15-2.14h0l3.09-3.1h0l7.62-7.61h0l3.09-3.09h0l7.61-7.61h0l3.1-3.1h0l7.6-7.6h0L283.37,25c-2.23-1.37-4.52-2.68-6.84-3.92h0L260.91,36.69l-7.6,7.61Z"/>
    <polygon class="a8f0ac66-813f-4f8e-b315-7f24163d0cdb" points="211.13 86.48 211.13 86.48 210.49 87.12 208.94 88.66 208.94 88.66 214.31 94.04 216.51 91.86 211.13 86.48"/>
    <path class="a8f0ac66-813f-4f8e-b315-7f24163d0cdb" d="M202.08,95.52c.89-.12,1.78-.21,2.68-.28l-1.2-1.2-1,1Z"/>
    <path class="a8f0ac66-813f-4f8e-b315-7f24163d0cdb" d="M157.43,140.17,156,141.64l1.19,1.19C157.22,141.94,157.31,141.06,157.43,140.17Z"/>
    <polygon class="a8f0ac66-813f-4f8e-b315-7f24163d0cdb" points="150.57 147.03 149.03 148.57 148.4 149.22 153.77 154.59 155.96 152.41 150.57 147.03"/>
    <path class="a8f0ac66-813f-4f8e-b315-7f24163d0cdb" d="M104.94,188.3l7.61-7.62,3.09-3.1,7.61-7.6,3.1-3.1,7.6-7.6,3.09-3.1,3.78-3.78L135.44,147h0l-1.55,1.54h0l-7.61,7.61h0l-3.08,3.1h0l-7.62,7.6h0l-3.09,3.1h0l-7.61,7.6h0l-3.09,3.1h0l-7.61,7.62h0l-3.1,3.09h0L83.47,199h0l-.51.5L78,204.44h0c.53,1.2,1.07,2.4,1.62,3.58a1.09,1.09,0,0,0,.08.15q.85,1.8,1.74,3.57s0,0,0,0L94.23,199l7.61-7.61Z"/>
    <path class="a8f0ac66-813f-4f8e-b315-7f24163d0cdb" d="M160.93,127.1l-2.78-2.78h0L157,125.5h0l-1,1h0l3.78,3.78C160.1,129.21,160.49,128.15,160.93,127.1Z"/>
    <path class="a8f0ac66-813f-4f8e-b315-7f24163d0cdb" d="M214.31,78.91l3.79-3.78L221.19,72l7.61-7.61,3.09-3.09,7.62-7.62,3.09-3.09L250.21,43l3.1-3.09,7.6-7.61,12.75-12.76h0c-1.18-.6-2.36-1.18-3.56-1.75l-.15-.07c-1.19-.56-2.39-1.1-3.58-1.63h0l-5.45,5.44-7.6,7.62-3.1,3.09-7.61,7.61L239.51,43l-7.62,7.61-3.09,3.09-7.61,7.62-3.09,3.09L210.49,72l-.51.51-1,1h0Z"/>
    <polygon class="a8f0ac66-813f-4f8e-b315-7f24163d0cdb" points="208.94 84.29 208.94 84.29 203.56 78.91 201.37 81.09 206.76 86.48 207.39 85.84 208.94 84.29"/>
    <polygon class="a8f0ac66-813f-4f8e-b315-7f24163d0cdb" points="201.37 91.86 195.99 86.48 193.81 88.66 199.19 94.04 199.78 93.45 201.37 91.86"/>
    <path class="a8f0ac66-813f-4f8e-b315-7f24163d0cdb" d="M181.89,102.64l-1-1-1.06,1-.53.54-.61.6h0l.58.58C180.11,103.78,181,103.19,181.89,102.64Z"/>
    <path class="a8f0ac66-813f-4f8e-b315-7f24163d0cdb" d="M192.2,97.83l-3.78-3.78-1,1-1.18,1.18L189,99C190.06,98.58,191.12,98.19,192.2,97.83Z"/>
    <path class="a8f0ac66-813f-4f8e-b315-7f24163d0cdb" d="M173.31,109.21l0,0-1,1C172.58,109.89,173,109.55,173.31,109.21Z"/>
    <path class="a8f0ac66-813f-4f8e-b315-7f24163d0cdb" d="M171.1,111.37l0,0c.34-.37.68-.73,1-1.08Z"/>
    <path class="a8f0ac66-813f-4f8e-b315-7f24163d0cdb" d="M166.3,117.33l-.59-.58-2.18,2.18,1,1C165.11,119.07,165.7,118.2,166.3,117.33Z"/>
    <polygon class="a8f0ac66-813f-4f8e-b315-7f24163d0cdb" points="155.35 137.87 155.96 137.27 155.96 137.27 150.57 131.89 148.4 134.07 153.77 139.46 155.35 137.87"/>
    <polygon class="a8f0ac66-813f-4f8e-b315-7f24163d0cdb" points="148.4 144.84 143.01 139.46 140.82 141.64 146.21 147.03 147.75 145.48 148.4 144.84"/>
    <path class="a76cf36c-a768-4cf2-acda-4404a85c7f78" d="M277.06,141.64l-2.19-2.18-5.38-5.39-2.19-2.18-5.38-5.38-1-1-1.18-1.17-5.38-5.39-2.19-2.18-5.38-5.38-1.09-1.09a51.89,51.89,0,0,1,13.77,24.52l2.46,2.47h0l.36.36.24.24,1.59,1.59,5.38,5.38.63.64,1.55,1.55,5.39,5.37,3.78,3.78,3.09,3.1,7.6,7.6,3.1,3.1,7.61,7.6,3.09,3.1,7.61,7.62,3.1,3.09,7.61,7.61,12.75,12.75h0c.6-1.19,1.19-2.39,1.76-3.6a.36.36,0,0,0,0-.09c.57-1.2,1.12-2.4,1.65-3.62h0L334.42,199l-7.61-7.61-3.1-3.09-7.61-7.62-3.09-3.1-7.62-7.6-3.08-3.1-7.63-7.6-3.08-3.1L284,148.57,282.44,147Z"/>
    <path class="a76cf36c-a768-4cf2-acda-4404a85c7f78" d="M164.58,39.93h0L167.67,43h0l7.61,7.61h0l3.09,3.09h0L186,61.34h0l3.09,3.09h0L196.69,72h0l3.09,3.09h0L201,76.34l2.56,2.57,5.38,5.38h0l1.55,1.55h0l.64.64,5.38,5.38h0l1,1,.63.63h0l.24.24.35.35h0l2.47,2.47a52,52,0,0,1,24.53,13.76l-1.09-1.09-5.39-5.38-1.14-1.14-1-1-5.38-5.38-1.18-1.18-1-1h0l-5.38-5.39L223,87.57l-1.09-1.09-5.38-5.39-2.2-2.18-5.37-5.38h0L207.39,72l-7.61-7.61-3.09-3.09-7.61-7.62L186,50.57,178.37,43l-3.09-3.09-7.61-7.61-3.09-3.09L157,21.55l-5.45-5.44h0c-1.18.52-2.38,1.06-3.55,1.62l-.16.08c-1.2.56-2.38,1.14-3.56,1.74h0L157,32.32h0Z"/>
    <path class="a76cf36c-a768-4cf2-acda-4404a85c7f78" d="M308.57,188.3,301,180.68l-3.09-3.1-7.61-7.6-3.1-3.1-7.61-7.6-3.09-3.1-1.59-1.59-5.38-5.37-.64-.65L267.3,147l-5.38-5.39-1.47-1.47a51.66,51.66,0,0,1,.46,6.86c0,1.41-.07,2.8-.17,4.18l1.18,1.19,2.19,2.19,5.38,5.39,6.91,6.9,3.09,3.1,7.62,7.6,3.09,3.1,7.61,7.62,3.09,3.09,7.61,7.61L331,221.46l0,0q2-3.33,3.89-6.78s0,0,0,0L319.28,199l-7.61-7.61Z"/>
    <path class="a76cf36c-a768-4cf2-acda-4404a85c7f78" d="M167.67,58.16l7.61,7.61,3.09,3.09L186,76.47l3.09,3.1L196,86.48l5.38,5.38L203.56,94l1.2,1.2c1.38-.11,2.77-.19,4.18-.19a51.88,51.88,0,0,1,6.86.47l-.47-.47-1-1h0l-5.37-5.38h0l-1.55-1.54h0l-.22-.24-.41-.4-5.39-5.39L200.3,80l-.52-.52h0l-3.09-3.1h0l-7.61-7.61h0L186,65.71h0l-7.62-7.61h0L175.28,55h0l-7.61-7.6h0l-3.09-3.1h0L157,36.69h0L141.34,21.07h0q-3.48,1.88-6.83,3.92h0L157,47.46l7.61,7.6Z"/>
    <path class="a76cf36c-a768-4cf2-acda-4404a85c7f78" d="M293.43,188.3l-7.6-7.62-3.11-3.1-7.6-7.6-3.09-3.1-4.73-4.71-5.38-5.39h0l-.6-.6-1-1a51.25,51.25,0,0,1-2.14,8.62l3.78,3.78,2.44,2.44,7.6,7.6,3.1,3.1,7.61,7.62,3.09,3.09,7.61,7.61,31.56,31.54h0c.73-1,1.45-2,2.16-3.08a1,1,0,0,0,.08-.11c.68-1,1.35-2,2-3l.12-.18L304.14,199l-7.62-7.61Z"/>
    <path class="a76cf36c-a768-4cf2-acda-4404a85c7f78" d="M167.67,73.3l7.61,7.61L178.37,84,186,91.61l2.43,2.44,3.78,3.78a50.77,50.77,0,0,1,8.62-2.14l-.63-.64-.41-.41-.59-.6-5.38-5.38-4.73-4.73L186,80.85l-7.62-7.62-3.09-3.09-7.61-7.61-3.09-3.09L157,51.83,131.81,26.68h0c-1.07.69-2.13,1.4-3.19,2.11l-.14.1c-1,.7-2,1.42-3,2.14h0L157,62.59l7.61,7.62Z"/>
    <path class="a76cf36c-a768-4cf2-acda-4404a85c7f78" d="M278.29,188.3l-7.6-7.62-3.09-3.1L260,170l-.25-.25L257,166.94a52,52,0,0,1-3.62,7.14l1,1,2.48,2.47,3.09,3.1,7.61,7.62,3.1,3.09,7.61,7.61,40.05,40.05,0,0c.8-1,1.59-1.91,2.35-2.88a.27.27,0,0,0,.07-.08c.79-1,1.56-2,2.33-3h0L289,199l-7.61-7.61Z"/>
    <path class="a76cf36c-a768-4cf2-acda-4404a85c7f78" d="M164.58,85.34h0l3.09,3.09h0l6.62,6.62,6.57,6.56,1,1A51.85,51.85,0,0,1,189,99l-2.78-2.79-1.18-1.18-6.69-6.68-3.09-3.09-7.61-7.61-3.09-3.09L157,67,122.9,32.9l0,0c-1,.75-2,1.51-3,2.29l-.09.08c-1,.77-1.94,1.56-2.88,2.36h0L157,77.73h0Z"/>
    <path class="a76cf36c-a768-4cf2-acda-4404a85c7f78" d="M263.16,188.3l-7.6-7.62-2.25-2.24-.86-.86-.29-.28-.57-.58a53.07,53.07,0,0,1-4.83,5.94l0,0,5.61,5.62.92.9,2.18,2.19L263.1,199l48,48h0c.87-.9,1.75-1.81,2.61-2.74l0,0c.84-.92,1.69-1.84,2.51-2.78l0,0L273.86,199l-7.61-7.61Z"/>
    <path class="a76cf36c-a768-4cf2-acda-4404a85c7f78" d="M166.76,102.66l.91.91,2.19,2.18,3.42,3.43,0,0a52.75,52.75,0,0,1,5.93-4.83l-.58-.58-.29-.29h0l-.84-.85h0l-7.6-7.61-2.26-2.24h0l-3.09-3.1h0L157,82.1h0L114.56,39.7c-.94.83-1.88,1.68-2.8,2.54l0,0c-.92.86-1.84,1.73-2.73,2.61h0l48,48,2.19,2.19Z"/>
    <path class="a76cf36c-a768-4cf2-acda-4404a85c7f78" d="M154.72,105.75l7.61,7.62,2.25,2.24.85.85.28.29.59.58a51.78,51.78,0,0,1,4.82-5.93l0,0-5.62-5.62-.9-.9-2.18-2.19-7.62-7.61-48-48h0c-.88.89-1.75,1.8-2.6,2.72l0,.06c-.85.92-1.69,1.84-2.52,2.78v0L144,95.05l7.61,7.61Z"/>
    <path class="a76cf36c-a768-4cf2-acda-4404a85c7f78" d="M258.72,199l-7.6-7.61h0l-.91-.91h0L248,188.3l-3.42-3.43,0,0a53.79,53.79,0,0,1-5.93,4.82l.57.58.3.3.84.84L248,199l2.25,2.24,3.1,3.1,7.6,7.61,42.41,42.39h0c.94-.82,1.86-1.66,2.78-2.51a.76.76,0,0,0,.09-.09c.91-.83,1.8-1.68,2.68-2.55l0,0h0l-48-48h0Z"/>
    <path class="a76cf36c-a768-4cf2-acda-4404a85c7f78" d="M250.21,205.62,243.59,199,237,192.44l-1-1a48.75,48.75,0,0,1-7.13,3.63l2.79,2.79,1.17,1.18,6.69,6.68,3.09,3.09,7.61,7.61,3.1,3.09,7.6,7.61L295,261.15l0,0q1.5-1.12,3-2.31l.07-.06c1-.78,2-1.58,2.91-2.39h0l-40-40-7.6-7.62Z"/>
    <path class="a76cf36c-a768-4cf2-acda-4404a85c7f78" d="M136.49,102.66h0l3.09,3.09h0l7.62,7.62h0l3.09,3.09h0l7.61,7.61.25.25,2.78,2.78a52.48,52.48,0,0,1,3.63-7.13l-1-1-2.48-2.47L158,113.37l-7.61-7.62-3.09-3.09-7.62-7.61-40-40h0c-.81,1-1.61,1.93-2.4,2.92l0,.06c-.79,1-1.57,2-2.34,3l34.07,34.06h0Z"/>
    <path class="a76cf36c-a768-4cf2-acda-4404a85c7f78" d="M124.45,105.75l7.61,7.62,3.08,3.09,7.62,7.61,3.1,3.1,4.72,4.72,5.38,5.38h0l.38.38.22.22,1,1a52.23,52.23,0,0,1,2.14-8.62L156,126.51h0l-2.44-2.44h0l-7.6-7.61h0l-3.1-3.09h0l-7.61-7.62h0l-3.09-3.09h0l-7.61-7.61h0L93,63.5c-.72,1-1.45,2-2.15,3.07l-.09.13c-.71,1-1.39,2.08-2.08,3.14l0,.06,25.15,25.15,7.62,7.61Z"/>
    <path class="a76cf36c-a768-4cf2-acda-4404a85c7f78" d="M250.21,220.75l-7.61-7.6-3.09-3.09-7.62-7.62-.39-.39-2-2h0l-3.78-3.78a53.63,53.63,0,0,1-8.63,2.14l.64.63.41.41h0l.59.6h0l5.39,5.38,4,4,.75.74h0l3.09,3.1h0l7.62,7.6h0l3.09,3.1h0l7.61,7.61h0l3.1,3.09h0l7.6,7.61h0l25.15,25.15c1.08-.69,2.14-1.4,3.2-2.11l.15-.11c1-.7,2-1.41,3-2.13h0l-31.55-31.55-7.6-7.61Z"/>
    <path class="a76cf36c-a768-4cf2-acda-4404a85c7f78" d="M109.31,105.75l7.61,7.62,3.1,3.09,7.61,7.61,3.09,3.1,7.61,7.6,3.08,3.1,1.6,1.59,5.39,5.38.63.64,1.55,1.55L156,152.4l1.47,1.48A51.62,51.62,0,0,1,157,147c0-1.42.07-2.81.18-4.2L156,141.64l-2.19-2.18-5.37-5.39-6.92-6.9-3.09-3.1-7.61-7.61-3.09-3.09-7.62-7.62L117,102.66l-7.61-7.61L86.91,72.59h0Q84.86,75.95,83,79.43h0L98.61,95.05l7.61,7.61Z"/>
    <path class="a76cf36c-a768-4cf2-acda-4404a85c7f78" d="M253.31,239h0l-3.1-3.1h0l-7.61-7.61h0l-3.09-3.09h0l-7.62-7.61h0l-3.09-3.09h0l-1.05-1.06-5.86-5.85-5.38-5.39-2.2-2.18-1.18-1.2c-1.39.11-2.78.19-4.19.19a51.88,51.88,0,0,1-6.86-.47l.47.47,1,1,5.38,5.37h0l1.55,1.56.64.64h0l5.38,5.37,1.59,1.59,3.09,3.09,7.61,7.62,3.09,3.09,7.62,7.61,3.09,3.1,7.61,7.61,3.1,3.09,7.6,7.61L276.53,273h0c2.32-1.24,4.61-2.55,6.84-3.92L260.91,246.6h0Z"/>
    <path class="a76cf36c-a768-4cf2-acda-4404a85c7f78" d="M266.36,277.94c1.19-.53,2.39-1.08,3.58-1.63l.15-.08c1.2-.57,2.38-1.15,3.56-1.74h0l-12.75-12.76-7.6-7.61-3.1-3.09-7.61-7.62-3.09-3.09-7.62-7.61-3.09-3.09L221.19,222l-3.09-3.09-3.79-3.78-5.37-5.37h0l-1.55-1.55-.63-.64h0l-5.39-5.39-1.59-1.59-.59-.59-2.47-2.48a51.75,51.75,0,0,1-24.48-13.71l1,1.05,5.38,5.38,1.14,1.14,1.06,1.05,5.38,5.38,1.17,1.18.43.42.58.59h0l5.39,5.37,2.18,2.2,5.38,5.37,2.19,2.19,5.38,5.38h0l1.29,1.3.26.25,7.61,7.61,3.09,3.09,7.61,7.62,3.09,3.09,7.62,7.61,3.09,3.1,7.61,7.61,3.1,3.08,7.6,7.62,5.45,5.44Z"/>
  </g>
  <g>
    <path class="fbc3e28c-3ec6-415d-92a2-33659d801d7b" d="M36.41,380.67V325.53H41.2v55.05c0,5.17,1.6,7.6,6.95,7.6h3.29v4.24H47.31C39.89,392.42,36.41,387.81,36.41,380.67Z"/>
    <path class="fbc3e28c-3ec6-415d-92a2-33659d801d7b" d="M66,325.53h5.92v5.92H66Zm.56,21.61h4.8v45.28h-4.8Z"/>
    <path class="fbc3e28c-3ec6-415d-92a2-33659d801d7b" d="M104.73,414.58c-6.77,0-10.24-1.78-14.94-6L93,405.38c3.57,3.29,6,5,11.75,5,9.48,0,13.71-6.67,13.71-15.69v-8.08c-4,5.26-8.27,6.39-13.43,6.39-4.79,0-8.74-1.6-11.09-4-4.6-4.6-5.82-12.12-5.82-19.26s1.22-14.65,5.82-19.25c2.35-2.35,6.3-3.95,11.09-3.95,5.16,0,9.39,1.13,13.43,6.39v-5.82h4.79V395C123.23,406.32,116.47,414.58,104.73,414.58Zm.93-63.78c-11.08,0-12.77,9.58-12.77,19s1.69,19,12.77,19,12.78-9.58,12.78-19S116.75,350.8,105.66,350.8Z"/>
    <path class="fbc3e28c-3ec6-415d-92a2-33659d801d7b" d="M171.29,364.32c0-8.73-4.32-13.52-12.49-13.52S146,355.69,146,364.32v28.1h-4.79V325.53H146v27a16.67,16.67,0,0,1,13.34-5.92c10.43,0,16.72,6.39,16.72,16.91v28.94h-4.79Z"/>
    <path class="fbc3e28c-3ec6-415d-92a2-33659d801d7b" d="M194.91,380.58V350.7h-6.2v-3.56h6.2V332.67h4.79v14.47h10.24v3.56H199.7v30c0,4.79,2.16,7.51,7,7.51h3.29v4.24h-4.13C198.67,392.42,194.91,387.44,194.91,380.58Z"/>
    <path class="fbc3e28c-3ec6-415d-92a2-33659d801d7b" d="M266.42,392.42l-12.77-37.77-12.78,37.77H236l-14.47-45.28h5.26l11.55,39.64,13-39.64H256l13,39.64,11.55-39.64h5.26l-14.46,45.28Z"/>
    <path class="fbc3e28c-3ec6-415d-92a2-33659d801d7b" d="M315.08,388.66c5.35,0,8.64-1.6,12.49-5.45l3.57,2.82c-4.61,4.6-8.83,7-16.35,7-12.49,0-19.25-8.08-19.25-23.21,0-14.65,6.76-23.2,18.13-23.2s18.13,8.18,18.13,22.08v2.16H300.33C300.33,382.36,305.4,388.66,315.08,388.66Zm10.33-30.25a12.87,12.87,0,0,0-23.49,0,24.72,24.72,0,0,0-1.59,8.54H327C326.72,362.63,326.63,361.13,325.41,358.41Z"/>
    <path class="fbc3e28c-3ec6-415d-92a2-33659d801d7b" d="M347.87,380.67V325.53h4.79v55.05c0,5.17,1.6,7.6,7,7.6h3.29v4.24h-4.14C351.35,392.42,347.87,387.81,347.87,380.67Z"/>
    <path class="fbc3e28c-3ec6-415d-92a2-33659d801d7b" d="M376.34,380.67V325.53h4.79v55.05c0,5.17,1.6,7.6,6.95,7.6h3.29v4.24h-4.13C379.81,392.42,376.34,387.81,376.34,380.67Z"/>
  </g>
</svg>
