<svg xmlns="http://www.w3.org/2000/svg" viewBox="0 0 601 601"><path d="M324.5 332.4v-65.6h9.7v23.7l6.6-1.5c11.7-2.6 24.5 4.2 26.1 19.6.3 3.6 0 7.2-.8 10.7-2.1 8.9-8.4 13.8-17 15.6-8.6 1.7-16.3.3-24.6-2.5m9.5-7.7c4.9 2.3 10.5 2.5 15.6.5 3-1.2 5.2-3.7 6.2-6.8.8-2.7 1.1-5.5 1-8.3-.6-6.5-3.4-10.5-9.2-12-4.6-1.2-9.4-.5-13.5 1.9v24.7h-.1zm-50.2-33.8c0-.6.2-1.5.2-2.4h9.2c.8 3.4.8 30-.2 43.9l-2.6 1.1c-8.4 2.3-17 3.2-25.4.2-7.9-2.5-13.4-9.7-13.8-18-.6-4.3-.2-8.8 1-13 4.1-11.8 15.1-15.6 24.3-13.9 2.5.6 4.9 1.3 7.3 2.1m-.2 9.4c-1.7-1-3.5-1.8-5.3-2.3-7.1-1.6-13.1.8-15.9 7-1.5 3.6-1.8 7.6-.8 11.3.8 5.5 5.3 9.7 10.9 10 3.8.5 7.6.1 11.2-1.1l-.1-24.9zm242.8-9c0-1 .2-2 .3-2.9h9.4v43.8c-2.3 1.8-4.9 1.9-7.5 2.4-6.1 1.5-12.5 1.5-18.6 0-9.4-2.6-14.7-8.4-16.2-18.2-.8-4.3-.5-8.8.8-13 4.1-14.1 18.8-17.3 28.5-13.6l3.3 1.5m0 34v-25c-1.8-.9-3.6-1.7-5.5-2.3-7.9-1.8-14.6 1.1-16.5 9.2-1 3.6-.9 7.5.3 11 4.9 13.6 21.7 7.1 21.7 7.1zm-55.9-11.2h-32.7c.3 7.5 4.7 12 11.8 12.5 6.3.5 12.6-.6 18.3-3.2v8.9c-2.6 1.7-5.5 2.7-8.6 3.1-8.1 1.1-16 .8-23.2-4.1-5.1-3.5-8.3-9.1-8.9-15.2-1-6.5.5-13.1 4.2-18.5 5-7.1 12.2-9.9 20.6-8.9 11.2 1.5 17.8 9.2 18.5 20.6v4.8m-11-7.3c.3-4.2-1.3-7-4.9-8.4-6.4-2.5-13.7.7-16.1 7.2-.2.4-.3.8-.4 1.3h21.4v-.1zm-265-9.7h-25.6v9.1h17.2c2.9 0 5.7-.5 8.6.3v29h9.9v-29.3h25.8v-4.5c0-1.5-.2-2.9-.2-4.7h-25.8v-27.1h-9.9v27.2zm366.6-7.6c-.2.8-.3 4.2-.3 4.9 0 9.1.2 15.7 0 24.8s4.9 13 11.7 15.1c4.6 1.3 9.5 1.5 14.3.5 9.1-1.6 14.4-7.1 14.3-16.9v-25.3c0-1.1-.2-2.2-.3-3.2h-9.6v5.5c0 7.6.2 15.2 0 22.9-.2 7.6-2.6 9.4-7.6 10.2-2.2.2-4.4.1-6.5-.5-3.6-.7-6.2-3.9-6.2-7.6v-30.3h-9.8m-169.7 53.9h9.6v-2.9c0-27.4 0-54.8-.2-82.3v-.3l-.3-.3h-8.9l-.2 85.8z" fill="#fff"/><path fill="#e87830" d="M73.3 275.7v20.6h18.8v7.6H73.3v20.6h-7.7v-20.6H46.7v-7.5h18.9v-20.7z"/><path fill="#214880" d="M108.6 311.8v18.4h17v5.8h-17v18.6h-6.7v-18.4h-17v-5.9h17v-18.5z"/><path d="M108.6 288H102v-18.3H85v-5.8h17v-18.6h6.6v16.9c0 1.8 0 1.8 1.8 1.8h15.2v5.7h-17V288z" fill="#5d899d"/><path fill="#c92237" d="M30.3 354.6V336h-17v-5.7h16.8v-18.5h6.7v18.5h17v5.7h-17v18.6z"/><path fill="#eb9230" d="M53.8 263.9v5.5h-17V288h-6.2v-18.5H13.3v-5.6h17.2v-18.7h6.1v18.7z"/><path fill="#5d6792" d="M72.3 350.9H84v5H72.3v13h-5.5v-12.8H55.3v-5.2h11.3v-13h5.7z"/><path fill="#5b6691" d="M121.6 315.6v-12.8h-11.5v-5.1h11.5v-12.9h5.6v12.8h11.4v5h-11.4v13z"/><path d="M11.5 302.1H0V298h11.3v-12.3h4.4V298H27v4.1h-9.9c-1.1 0-1.6.3-1.6 1.6s0 6.5.2 9.7-.3 1.5-1.3 1.5-2.9 0-2.9-2.9v-9.9z" fill="#719aa6"/><path fill="#739ba7" d="M71.6 244.7H83v3.8H71.8v12.8h-4.4v-12.7H56.1v-3.9h11.3v-12.6h4.2z"/></svg>
