<svg xmlns="http://www.w3.org/2000/svg" x="0" y="0" viewBox="0 0 130 130" xml:space="preserve"><g id="layer1" transform="translate(0 -283.77)"><path id="path4268" fill="#fff" d="M20.2 335.4C9.1 335.4 0 344.5 0 355.6c0 2.6.5 5.1 1.4 7.4-.2-.5.1-1.1.6-1.3l7.7-2.6c.5-.2 1 .1 1.3.6-.6-1.3-.9-2.7-.9-4.1 0-5.6 4.5-10.1 10.1-10.1 4 0 7.6 2.4 9.2 6 .2.5.8.8 1.3.6l7.7-2.6c.6-.2.9-.8.6-1.3-3-7.7-10.4-12.8-18.8-12.8zM11 359.7c.1.3.3.6.5.9-.2-.3-.4-.6-.5-.9zm.7 1.3c.2.3.3.5.5.8-.2-.3-.4-.5-.5-.8zm.8 1.1l.6.6c-.3-.2-.4-.4-.6-.6zm.8.9c.3.2.5.5.8.7-.3-.2-.5-.5-.8-.7zm-11.9.1c.4 1.1 1 2.2 1.6 3.2-.6-1.1-1.1-2.1-1.6-3.2zm13 .8l.9.6-.9-.6zM3 366.2l.6.9-.6-.9zm3.1 3.9l.6.6-.6-.6zm1 .9c.4.3.8.7 1.3 1-.5-.3-.9-.7-1.3-1zm1.7 1.3c.2.1.4.3.7.4-.3-.1-.5-.3-.7-.4zm1.2.7c.2.1.4.3.6.4-.2-.1-.4-.2-.6-.4zm1.8 1c.2.1.4.2.5.2-.1-.1-.3-.1-.5-.2zm1.4.6c.2.1.3.1.5.2-.1-.1-.3-.2-.5-.2zm2.9.3c-.1.1-.3.2-.4.2.1 0 .3-.1.4-.2zm-1.1.2c.1 0 .1 0 .2.1h.2-.2c-.1 0-.2 0-.2-.1z"/><path id="path4266" fill="#b8433d" d="M9.7 359.1L2 361.7c-.6.2-.9.8-.6 1.3 2.4 6 7.5 10.5 13.7 12.2.3.1.7 0 1-.3l3.4-3.4c.4-.4 1-.4 1.4 0l3.4 3.4c.2.2.7.4 1 .3 6.3-1.6 11.4-6.2 13.7-12.2.2-.5-.1-1.1-.6-1.3l-7.7-2.6c-.5-.2-1 .1-1.2.6-.9 2.1-2.5 3.8-4.4 4.8-.4.2-.9.1-1.2-.2l-2.9-2.9c-.4-.4-1-.4-1.4 0l-2.9 2.9c-.3.3-.9.4-1.2.2-2-1.1-3.5-2.7-4.4-4.8-.3-.5-.9-.7-1.4-.6z"/></g><path fill="#fff" d="M48.7 73.3c0 .7-.2 1.2-.5 1.7s-.7.9-1.3 1.2c-.5.3-1.2.4-1.9.4-1.1 0-2-.4-2.7-1.2-.7-.8-1-1.9-1-3.4v-.5c0-.9.1-1.7.4-2.4.3-.7.7-1.2 1.3-1.6s1.2-.6 1.9-.6c1.1 0 1.9.3 2.5.9s1 1.4 1.1 2.5h-2.1c0-.6-.1-1-.4-1.2-.3-.2-.6-.4-1.1-.4s-.9.2-1.1.6c-.2.4-.4 1.1-.4 2v.7c0 1 .1 1.7.4 2.1.2.4.6.6 1.2.6.5 0 .9-.1 1.1-.4.3-.2.4-.6.4-1.2l2.2.2zm.7-.2c0-.7.1-1.2.4-1.8.2-.5.6-.9 1-1.2.4-.3 1-.4 1.5-.4.8 0 1.5.3 2 .8s.8 1.3.9 2.2v.5c0 1-.3 1.8-.8 2.4s-1.2.9-2.1.9-1.6-.3-2.1-.9c-.5-.5-.8-1.3-.8-2.5zm1.7.1c0 .6.1 1.1.3 1.4s.5.5.9.5.7-.2.9-.5.3-.9.3-1.6c0-.6-.1-1.1-.3-1.4s-.5-.5-.9-.5-.7.2-.9.5c-.2.4-.3.9-.3 1.6zm6.7-3.3l.1.7c.4-.6 1-.9 1.8-.9s1.3.3 1.6 1c.4-.7 1.1-1 1.9-1 .7 0 1.2.2 1.5.6s.5 1 .5 1.9v4.2h-1.7v-4.2c0-.4-.1-.7-.2-.8-.1-.2-.4-.3-.7-.3-.5 0-.8.3-1 .8v4.6H60v-4.2c0-.4-.1-.7-.2-.8-.1-.2-.4-.3-.7-.3-.5 0-.8.2-1 .6v4.7h-1.6v-6.6h1.3zm14.1 3.3c0 1-.2 1.8-.6 2.5-.4.6-1 .9-1.7.9-.6 0-1.1-.2-1.5-.7V79h-1.6v-9.2H68l.1.6c.4-.5.9-.8 1.6-.8.8 0 1.3.3 1.8.9.2.8.4 1.6.4 2.7zm-1.6-.1c0-.6-.1-1.1-.3-1.4-.2-.3-.5-.5-.9-.5-.5 0-.9.2-1.1.6v2.7c.2.4.6.7 1.1.7.8 0 1.2-.7 1.2-2.1zm2.6-4.9c0-.3.1-.5.2-.7.2-.2.4-.3.7-.3.3 0 .5.1.7.3.2.2.2.4.2.7 0 .3-.1.5-.3.7s-.4.3-.7.3c-.3 0-.5-.1-.7-.3 0-.3-.1-.5-.1-.7zm1.8 8.3H73v-6.6h1.7v6.6zm3.1 0h-1.7v-9.4h1.7v9.4zm4.2.1c-.9 0-1.6-.3-2.2-.9s-.9-1.4-.9-2.4v-.2c0-.7.1-1.3.4-1.8.2-.5.6-.9 1-1.2.4-.3.9-.4 1.5-.4.8 0 1.5.3 2 .9s.7 1.4.7 2.4v.7h-3.9c.1.4.2.8.5 1 .3.3.6.4 1 .4.6 0 1.1-.2 1.5-.7l.8 1c-.2.4-.6.7-1 .9-.4.2-.9.3-1.4.3zm-.2-5.4c-.3 0-.6.1-.8.4-.2.2-.3.6-.4 1h2.3v-.1c0-.4-.1-.7-.3-.9s-.5-.4-.8-.4zm7.1.3h-.6c-.6 0-1 .2-1.2.7v4.3h-1.6v-6.6H87v.8c.3-.6.8-.9 1.4-.9.2 0 .4 0 .5.1v1.6z"/><path fill="#b8433d" d="M96.7 73.8l1.1-6.7h1.7l-1.8 9.3H96l-1.3-6.3-1.3 6.3h-1.7l-1.8-9.3h1.7l1.1 6.6 1.3-6.6h1.4l1.3 6.7zm3.3-.7c0-.7.1-1.2.3-1.8.2-.5.5-.9 1-1.2.4-.3.9-.4 1.4-.4.8 0 1.4.3 1.9.8s.8 1.3.8 2.2v.5c0 1-.2 1.8-.7 2.4s-1.2.9-2 .9-1.5-.3-2-.9c-.4-.5-.7-1.3-.7-2.5zm1.6.2c0 .6.1 1.1.3 1.4.2.3.5.5.9.5s.7-.2.9-.5c.2-.3.3-.9.3-1.6 0-.6-.1-1.1-.3-1.4-.2-.3-.5-.5-.9-.5s-.7.2-.9.5c-.2.3-.3.8-.3 1.6zm8.1-1.8h-.6c-.6 0-1 .2-1.1.7v4.3h-1.5v-6.6h1.5v.8c.3-.6.7-.9 1.3-.9.2 0 .3 0 .5.1l-.1 1.6zm2.8 2.3l-.6.6v2h-1.5V67h1.5v5.2l.3-.4 1.5-2h1.9l-2.1 2.8 2.3 3.9H114l-1.5-2.7zm6.9.9c0-.2-.1-.4-.3-.5s-.5-.2-.9-.3c-1.4-.3-2.1-1-2.1-2 0-.6.2-1.1.6-1.5s1-.6 1.7-.6 1.3.2 1.8.6c.4.4.7.9.7 1.5h-1.5c0-.3-.1-.5-.2-.6-.1-.2-.4-.2-.7-.2-.3 0-.5.1-.6.2s-.2.3-.2.5.1.4.2.5c.2.1.4.2.8.3.4.1.7.2 1 .3.8.3 1.2.9 1.2 1.8 0 .6-.2 1.1-.7 1.5s-1 .6-1.8.6c-.5 0-.9-.1-1.3-.3-.4-.2-.7-.5-.9-.8-.2-.3-.3-.7-.3-1.1h1.5c0 .3.1.6.3.7.2.2.4.3.8.3.3 0 .5-.1.7-.2.1-.4.2-.5.2-.7z"/><path fill="#fff" d="M129.9 38.6h.1v.2h-.1v-.2z"/><circle cx="123" cy="68.3" r="1.6" fill="none" stroke="#b8433d" stroke-width=".25" stroke-miterlimit="10"/><path fill="#b8433d" d="M123.6 69.2l-.5-.8c.2-.1.4-.2.4-.5 0-.4-.3-.5-.6-.5h-.6v1.8h.2v-.8h.3l.4.8h.4zm-1-1.6h.3c.3 0 .4.1.4.3 0 .2-.2.3-.4.3h-.3v-.6z"/></svg>