<svg id="Layer_1" data-name="Layer 1" xmlns="http://www.w3.org/2000/svg" viewBox="0 0 300 300"><defs><style>.cls-1{fill:#fff;}</style></defs><g id="nNNawJ.tif"><path class="cls-1" d="M38.62,125.18l26,13.18c3.25,1.65,6.51,3.28,9.75,4.93.48.24,1,.51,1.61.86l-22.54,11L76,166.59c-3.67,1.8-7.08,3.48-10.49,5.14L39.78,184.31a2.41,2.41,0,0,1-2.44.1q-17.63-9-35.3-17.84c-.3-.15-.57-.32-1.06-.6L23.5,155,.94,143.54l1.8-.91,33.75-16.5a12.58,12.58,0,0,0,1.46-.95ZM31,177.46c2.21,1.13,4.23,2.1,6.18,3.18a2.5,2.5,0,0,0,2.6,0c7.56-3.74,15.14-7.43,22.72-11.14l6-2.95c-2.45-1.24-4.69-2.29-6.83-3.49a2.71,2.71,0,0,0-2.9,0q-13.14,6.79-26.33,13.52C32.07,176.83,31.67,177.08,31,177.46ZM8.34,143.57c2.37,1.2,4.46,2.2,6.48,3.31a2.59,2.59,0,0,0,2.76,0c8.88-4.55,17.78-9.05,26.68-13.57.4-.2.79-.44,1.36-.77A45.24,45.24,0,0,1,41,130.14c-1.82-1.21-3.37-1-5.28,0C26.75,134.65,17.67,139,8.34,143.57Zm48.19,16.91c-2-1-3.76-1.82-5.43-2.77a2.77,2.77,0,0,0-2.92,0c-8.87,4.47-17.76,8.89-26.64,13.33-.48.24-.95.51-1.61.87,2.11,1.06,4.05,2,5.91,3a2.57,2.57,0,0,0,2.76,0c8.77-4.55,17.57-9,26.36-13.54C55.39,161.15,55.81,160.89,56.53,160.48Zm-36.6-11c2.13,1.07,4,1.95,5.86,3a2.42,2.42,0,0,0,2.59,0c8.82-4.53,17.68-9,26.52-13.5.47-.24.91-.52,1.57-.91-2.09-1-4-1.94-5.79-2.95a2.41,2.41,0,0,0-2.58,0c-8.87,4.56-17.78,9.06-26.67,13.58C21,148.82,20.58,149.07,19.93,149.43Zm21.81-.13c2.51,1.26,4.63,2.42,6.84,3.4a3,3,0,0,0,2.23,0c5.44-2.58,10.83-5.24,16.23-7.89.41-.2.81-.44,1.42-.78-2.68-1.36-5.12-2.62-7.59-3.81a1.55,1.55,0,0,0-1.23,0C53.78,143.17,47.94,146.15,41.74,149.3Zm-7,11.3c-2.52-1.27-4.8-2.44-7.1-3.57a1.21,1.21,0,0,0-.93.07C20.65,160,14.62,163,8.34,166c2.58,1.31,4.92,2.53,7.3,3.66a1.82,1.82,0,0,0,1.38-.14C22.83,166.65,28.63,163.7,34.72,160.6Zm11-5.58c-2.42-1.22-4.62-2.33-6.83-3.42a1,1,0,0,0-.76-.07c-2.31,1.09-4.61,2.22-7.16,3.46,2.43,1.23,4.53,2.32,6.66,3.32a2,2,0,0,0,1.52,0C41.28,157.29,43.36,156.2,45.72,155Z"/><path class="cls-1" d="M224.7,179c-2.16,0-4.2.08-6.23,0a2.74,2.74,0,0,1-1.68-1q-11.64-14.2-23.22-28.45c-.44-.54-.9-1.05-1.58-1.84v31.27h-8.57V132.46c2.2,0,4.45-.06,6.68,0,.46,0,1,.65,1.32,1.09q11.63,14.22,23.21,28.46c.41.5.84,1,1.52,1.79V132.53h8.55Z"/><path class="cls-1" d="M148.82,131.61c11.25.19,20.57,6.38,23.88,16,5.14,15-4.22,29.84-20,31.8-7.88,1-15.16-.57-21.17-5.93-7.32-6.52-9.45-14.87-7-24.17s8.88-14.68,18.12-16.85C144.63,132,146.74,131.89,148.82,131.61ZM165.23,156a15.9,15.9,0,0,0-15.92-16.55c-9.68-.17-16.69,6.49-16.91,16.06a15.9,15.9,0,0,0,16,16.63C158.06,172.23,165.06,165.51,165.23,156Z"/><path class="cls-1" d="M299,139.64l-5.56,5.19a16.9,16.9,0,0,0-14.28-5.36,16.1,16.1,0,0,0-10.84,5.1,17,17,0,0,0,0,22.37c3.4,3.65,7.75,5.15,12.67,5.15a16.55,16.55,0,0,0,12.42-5.5l5.48,5.17c-4.25,6.08-14.81,9.6-25.1,7.2a23.34,23.34,0,0,1-18.41-21.37c-.74-10.85,5.11-20.18,15-24C280.6,129.68,293.07,132.26,299,139.64Z"/><path class="cls-1" d="M105.32,139.77v39.17H96.69V139.86H81.22v-7.29H120.8v7.2Z"/><path class="cls-1" d="M237.55,132.51H246v46.42h-8.44Z"/></g></svg>