<svg xmlns="http://www.w3.org/2000/svg" viewBox="0 0 236 236" enable-background="new 0 0 236 236"><g transform="translate(83.5)"><defs><filter id="a" filterUnits="userSpaceOnUse" x=".3" y="103.2" width="42.7" height="29.8"><feColorMatrix values="1 0 0 0 0 0 1 0 0 0 0 0 1 0 0 0 0 0 1 0"/></filter></defs><mask maskUnits="userSpaceOnUse" x=".3" y="103.2" width="42.7" height="29.8" id="b"><g filter="url(#a)"><path fill-rule="evenodd" clip-rule="evenodd" fill="#fff" d="M.3 103.2H43V133H.3z"/></g></mask><path d="M14.5 122.6h15.1l-8-12.9L7 133H.3l17.8-27.9c.8-1.1 2.1-1.8 3.5-1.8s2.7.7 3.4 1.8L43 133h-6.7l-3.1-5.2H17.9l-3.4-5.2z" mask="url(#b)" fill-rule="evenodd" clip-rule="evenodd" fill="#c74634"/></g><path fill-rule="evenodd" clip-rule="evenodd" fill="#c74636" d="M166.2 127.9V104h-5.7v26.2c0 .7.3 1.4.8 1.9.6.5 1.3.8 2.1.8h25.7l3.3-5.1h-26.2zM72.8 123.6c5.4 0 9.7-4.4 9.7-9.8s-4.3-9.8-9.7-9.8H48.5v29H54v-23.9h18.3c2.6 0 4.7 2.1 4.7 4.7s-2.1 4.7-4.7 4.7H56.7L73.3 133h8.1l-11.1-9.4h2.5zM31.6 127.9c5.2 0 9.4-4.2 9.4-9.4s-4.2-9.4-9.4-9.4H15.4c-5.2 0-9.4 4.2-9.4 9.4s4.2 9.4 9.4 9.4h16.2zM15.1 133c-8 0-14.6-6.5-14.6-14.5S7 104 15.1 104H32c8 0 14.5 6.5 14.5 14.5S40 133 32 133H15.1zM138 133c-8 0-14.5-6.5-14.5-14.5S130 104 138 104h20l-3.3 5.1h-16.4c-5.2 0-9.4 4.2-9.4 9.4s4.2 9.4 9.4 9.4h20.1l-3.3 5.1H138zM206.4 127.9c-4.3 0-7.9-2.9-9-6.8h23.8l3.3-5.1h-27.1c1.1-3.9 4.7-6.8 9-6.8h16.4l3.3-5.1h-20c-8 0-14.5 6.5-14.5 14.5s6.5 14.5 14.5 14.5h17.2l3.3-5.1h-20.2zM232.5 105.7c.2 0 .4 0 .5-.2.1-.1.1-.2.1-.3 0-.2-.1-.3-.3-.4-.2-.1-.3-.1-.6-.1h-.2v1h.5zm-.3-1.5c.5 0 .6 0 .9.1.6.2.6.7.6.9v.3c0 .1-.1.4-.4.6 0 0-.1 0-.2.1l.8 1.4h-.8l-.7-1.3h-.4v1.3h-.7v-3.4h.9zm.3 4.8c1.7 0 3-1.3 3-3s-1.3-3-3-3-3 1.3-3 3 1.4 3 3 3zm-2.4-3c0-1.3 1.1-2.4 2.4-2.4 1.3 0 2.4 1.1 2.4 2.4 0 1.3-1 2.4-2.4 2.4-1.3-.1-2.4-1.1-2.4-2.4z"/></svg>