<svg xmlns="http://www.w3.org/2000/svg" x="0" y="0" viewBox="0 0 256 256" xml:space="preserve"><style>.st0{fill:#6fc100}.st1{fill-rule:evenodd;clip-rule:evenodd;fill:#fff}</style><path class="st0" d="M34.7 98.8c-1.3 0-2.3 1.1-2.3 2.4s1.1 2.4 2.3 2.4c1.3 0 2.3-1.1 2.3-2.4s-1-2.4-2.3-2.4zM16 144.5c-1.3 0-2.3 1.1-2.3 2.4 0 1.3 1.1 2.4 2.3 2.4 1.3 0 2.3-1.1 2.3-2.4 0-1.4-1-2.4-2.3-2.4zM34.7 152.3c-1.3 0-2.3 1.1-2.3 2.4 0 1.3 1.1 2.4 2.3 2.4 1.3 0 2.3-1.1 2.3-2.4 0-1.3-1-2.4-2.3-2.4zM53.4 111.4c1.3 0 2.3-1.1 2.3-2.4s-1.1-2.4-2.3-2.4-2.3 1.1-2.3 2.4 1 2.4 2.3 2.4zM53.4 144.5c-1.3 0-2.3 1.1-2.3 2.4 0 1.3 1.1 2.4 2.3 2.4 1.3 0 2.3-1.1 2.3-2.4.1-1.4-1-2.4-2.3-2.4zM10.5 128c0-1.3-1.1-2.4-2.3-2.4-1.3 0-2.3 1.1-2.3 2.4s1.1 2.4 2.3 2.4c1.3-.1 2.3-1.1 2.3-2.4zM34.7 106.7c-1.3 0-2.3 1.1-2.3 2.4v9.5c0 1.3 1.1 2.4 2.3 2.4 1.3 0 2.3-1.1 2.3-2.4V109c0-1.3-1-2.3-2.3-2.3zM9.9 120.8h15.5c1.3 0 2.3-1.1 2.3-2.4s-1.1-2.4-2.3-2.4H9.9c-1.3 0-2.3 1.1-2.3 2.4s1 2.4 2.3 2.4zM25.3 111.4c1.3 0 2.3-1.1 2.3-2.4V102.8c0-1.3-1-2.4-2.3-2.4-1.3 0-2.3 1.1-2.3 2.4V109c0 1.3 1 2.4 2.3 2.4zM61.2 125.6c-1.3 0-2.3 1.1-2.3 2.4 0 1.3 1 2.4 2.3 2.4 1.3 0 2.3-1.1 2.3-2.4.1-1.3-1-2.4-2.3-2.4zM44.1 120.9c1.3 0 2.3-1.1 2.3-2.4v-15.7c0-1.3-1.1-2.4-2.3-2.4s-2.3 1.1-2.3 2.4v15.7c-.1 1.3 1 2.4 2.3 2.4zM59.5 135.1H44.1c-1.3 0-2.3 1.1-2.3 2.4 0 1.3 1.1 2.4 2.3 2.4h15.5c1.3 0 2.3-1.1 2.3-2.4 0-1.4-1.1-2.4-2.4-2.4zM53.4 120.9h6.1c1.3 0 2.3-1.1 2.3-2.4 0-1.3-1.1-2.4-2.3-2.4H53.3c-1.3 0-2.3 1.1-2.3 2.4.1 1.3 1.1 2.4 2.4 2.4zM16 111.3c1.3 0 2.3-1.1 2.3-2.4 0-1.3-1-2.4-2.3-2.4-1.3 0-2.3 1.1-2.3 2.4-.1 1.4 1 2.4 2.3 2.4zM16 139.8c1.3 0 2.3-1.1 2.3-2.4 0-1.3-1-2.4-2.3-2.4H9.8c-1.3 0-2.3 1.1-2.3 2.4s1.1 2.4 2.3 2.4H16zM34.7 135.1c-1.3 0-2.3 1.1-2.3 2.4v9.5c0 1.3 1.1 2.4 2.3 2.4 1.3 0 2.3-1.1 2.3-2.4v-9.5c0-1.4-1-2.4-2.3-2.4zM30 125.6H15.9c-1.3 0-2.3 1.1-2.3 2.4 0 1.3 1.1 2.4 2.3 2.4H30c1.3 0 2.3-1.1 2.3-2.4.1-1.3-1-2.4-2.3-2.4zM53.4 130.3c1.3 0 2.3-1.1 2.3-2.4 0-1.3-1.1-2.4-2.3-2.4H39.3c-1.3 0-2.3 1.1-2.3 2.4s1.1 2.4 2.3 2.4h14.1zM25.3 135.1c-1.3 0-2.3 1.1-2.3 2.4v15.6c0 1.3 1.1 2.4 2.3 2.4s2.3-1.1 2.3-2.4v-15.7c0-1.3-1-2.3-2.3-2.3zM44.1 144.5c-1.3 0-2.3 1.1-2.3 2.4V153.1c0 1.3 1.1 2.4 2.3 2.4 1.3 0 2.3-1.1 2.3-2.4V146.9c0-1.4-1-2.4-2.3-2.4z"/><g><path class="st1" d="M101.8 115.2c4.9 0 9.2 3.3 10.3 7.9l.1.4 4.8-.7-.1-.5c-1.6-6.8-7.9-11.7-15.1-11.7-9.5 0-16.5 7.2-16.5 17.2 0 4.9 1.7 9.3 4.8 12.5 3 3 7.1 4.7 11.7 4.7 7.1 0 13.5-4.7 15-11.2l.1-.5-4.7-.9-.1.4c-1.2 4.4-5.6 7.7-10.3 7.7-6.7 0-11.5-5.3-11.5-12.7 0-7.2 4.8-12.6 11.5-12.6zM153.7 138.8v-27.3h-4.6V140c0 3.4 2.6 4.4 5.5 4.4h2.5v-4h-1.5c-1.1 0-1.9-.3-1.9-1.6zM133 119.8c-7.3 0-12.3 5.1-12.3 12.5s5.1 12.6 12.3 12.6c7.1 0 12.3-5.3 12.3-12.6.1-7.2-5.1-12.5-12.3-12.5zm0 20.8c-4.6 0-7.8-3.4-7.8-8.3 0-4.8 3.3-8.2 7.8-8.2s7.8 3.5 7.8 8.2c0 4.8-3.3 8.3-7.8 8.3zM165.4 138.8v-27.3h-4.6V140c0 3.4 2.6 4.4 5.5 4.4h2.5v-4h-1.5c-1.1 0-1.9-.3-1.9-1.6zM173.4 120.8h4.6v23.5h-4.6zM175.7 111.1c-1.6 0-2.7 1.1-2.7 2.7s1.2 2.8 2.7 2.8c1.6 0 2.7-1.2 2.7-2.8.1-1.6-1.1-2.7-2.7-2.7zM216.6 123.3v-2.5H212v23.5h4.6v-12.6c0-4.2 1.7-6.6 5.2-6.6 2.2 0 3.3.6 3.3.6v-4.5s-.9-.6-3.1-.6c-2.3 0-4.2.9-5.4 2.7zM196.3 119.9c-3.4 0-6.3 1.3-8.1 3.7v-12.2h-4.6v32.9h4.6v-3c1.8 2.5 4.6 3.8 8.1 3.8 6.8 0 12-5.4 12-12.7 0-7-5.1-12.5-12-12.5zm-.4 21c-4.5 0-7.8-3.6-7.8-8.3 0-4.7 3.4-8.3 7.8-8.3s7.8 3.6 7.8 8.3c0 4.8-3.3 8.3-7.8 8.3zM249.5 140.4c-1.1 0-1.9-.2-1.9-1.5v-10c0-5.4-3.9-8.9-9.9-8.9-5.9 0-9.8 3.3-9.8 8.3v.5h4.7v-.5c0-1 .3-1.9 1-2.6.9-.9 2.3-1.4 4.1-1.4 3.3 0 5.3 1.7 5.3 4.5v.5l-5.8.7c-6.6.8-10.4 3.7-10.4 8.2 0 4.1 3.4 6.9 8.5 6.9 3.3 0 6-1.2 7.7-3.5h.2c.7 2.1 2.9 2.8 5.3 2.8h1.5v-4h-.5zm-6.5-5.5c0 3.6-2.9 6.1-7.2 6.1-2.7 0-4.4-1.1-4.4-2.9 0-2.7 3.2-3.6 5.9-4l5.6-.7v1.5z"/></g></svg>