<svg xmlns="http://www.w3.org/2000/svg" id="LOGO" x="0" y="0" version="1.1" viewBox="0 0 300 300" xml:space="preserve"><style>.st3{fill:#fff}</style><path fill="#b1b1b1" d="M240.1 184.1L300 184.1 300 164.8 281.8 150z"/><path fill="#0091b3" d="M240.1 116L300 164.8 300 116z"/><path fill="#79242f" d="M228.9 116L228.9 184.1 228.9 184.1 270.8 150z"/><path d="M196.8,116v41.3L168.9,116h-16.3c0,0,0,20.5-0.1,30.7c-0.3-2.4-0.8-4.7-1.6-6.9c-0.3-1.1-0.7-2.1-1.2-3.1 c-1.4-2.7-3.1-5.3-5-7.6c-1.9-2.3-4.2-4.3-6.6-6.1c-2.6-1.8-5.4-3.3-8.3-4.4c-3.9-1.5-8.1-2.4-12.3-2.5c-2.1-0.1-4.3-0.1-6.3,0.2 c-1.3,0.2-2.6,0.3-3.8,0.6c-4.4,1-8.6,2.7-12.4,5c-1.8,1.1-3.4,2.4-5,3.7c-1.5,1.4-2.9,2.9-4.2,4.5c-3.9,4.8-6.7,11-7.1,19l0,1.8 c0.5,10.7,5,17.9,11.1,23.4c0.4,0.4,0.7,0.7,1.1,1.1c0.4,0.3,0.8,0.6,1.2,0.9c2.5,1.8,5.1,3.6,8.1,4.8c4,1.6,8.8,3.1,14.2,3.1 c2.7,0,5.4-0.1,8.1-0.5c3.4-0.6,6.7-1.7,9.8-3.1c3-1.3,5.5-3.1,7.9-5c0.8-0.6,1.5-1.3,2.3-2c0.7-0.7,1.4-1.4,2.1-2.2 c2-2.4,3.7-5,5.1-7.8c0.5-1,0.9-2,1.2-3.1c0.8-2.3,1.3-4.6,1.6-7V184h16.5v-41.3l27.9,41.2H213v-68H196.8z M135.9,154.3 c-0.9,4.3-2.9,7.4-5.3,10.1c-1.6,1.8-3.7,3.1-6,4.3c-3.3,1.9-8.3,2.6-12.9,1.6c-2.9-0.6-5.1-1.8-7.2-3.1c-1-0.7-1.9-1.4-2.8-2.3 c-0.4-0.4-0.8-0.9-1.2-1.4c-0.4-0.5-0.8-1-1.2-1.4c-2.2-2.9-3.6-6.8-3.8-11.6c-0.1-1.6,0.1-3.2,0.4-4.7c0.3-1.3,0.7-2.7,1.2-4 c1-2.3,2.4-4.3,4.1-6.2c0.8-0.9,1.7-1.7,2.7-2.4c1-0.7,2.1-1.4,3.2-1.9c1.2-0.5,2.5-1,3.8-1.3c1.5-0.4,3-0.6,4.6-0.6 c3.2-0.1,6.3,0.8,8.5,1.8c0.6,0.3,1.2,0.5,1.8,0.9c0.5,0.4,1.1,0.6,1.6,1c1,0.7,1.9,1.5,2.8,2.3c0.9,0.9,1.6,1.8,2.3,2.8 c0.7,1,1.4,2.1,1.9,3.3c1.2,2.4,1.7,5.1,1.9,8.3C136.4,151.3,136.2,152.8,135.9,154.3" class="st3"/><path d="M51,116l-18.7,46.9L16.2,116H0l22.9,68h18.8L61,133.1l17.8,0l0-17.1H51z M62.4,183.8h16.5v-47.1H62.4V183.8z" class="st3"/></svg>