<svg id="Layer_1" data-name="Layer 1" xmlns="http://www.w3.org/2000/svg" viewBox="0 0 300 300"><g id="jLkBks.tif"><path d="M71.13,87.84a9.32,9.32,0,0,1,5.66,1.78l20.71,14,25.26,17c7.29,4.92,14.63,9.76,21.85,14.79,4.31,3,8.67,3.36,13.51,1.42,17.53-7,35.1-14,52.66-20.94L255,98.29q18.75-7.44,37.5-14.84a12.7,12.7,0,0,1,3.63-.89,2.4,2.4,0,0,1,2.71,3.22,20.68,20.68,0,0,1-1.62,4.07q-9,17.4-18,34.77l-24.18,46.6q-9,17.43-18.09,34.85a9.17,9.17,0,0,1-9.06,5.38,9.41,9.41,0,0,1-4.9-1.74l-30.89-20.83q-18.78-12.67-37.56-25.36a12,12,0,0,0-7.43-2.44,13.09,13.09,0,0,0-4.06.86q-29.26,11.55-58.48,23.18L21.32,210.21c-5,2-10,4-15,5.9a10.94,10.94,0,0,1-3.57.5,1.74,1.74,0,0,1-1.86-1.93A10.47,10.47,0,0,1,1.72,211c3.91-7.74,7.92-15.44,11.91-23.15s8-15.33,11.95-23l25.08-48.3c4.08-7.87,8.14-15.74,12.24-23.59A8.88,8.88,0,0,1,71.13,87.84Zm152.4,98.42a14.79,14.79,0,0,0,2.77-1,10.75,10.75,0,0,0,4-4.52c1.54-2.88,3-5.78,4.53-8.68q5.63-10.83,11.25-21.66c4.88-9.43,9.78-18.84,14.61-28.29a16.77,16.77,0,0,0,1.49-4.34c.3-1.51-.51-2.21-2-1.83a57.7,57.7,0,0,0-6,1.89c-4,1.5-7.95,3.1-11.91,4.68q-30.51,12.18-61,24.38a15.61,15.61,0,0,0-4.21,2.54c-2.57,2.17-2.64,4.48-.16,6.77a60.21,60.21,0,0,0,6.78,5.46q16.22,11.09,32.56,22A16.61,16.61,0,0,0,223.53,186.26Zm-98.39-39.75a5,5,0,0,0-1.68-3.15,48.91,48.91,0,0,0-5.06-4.17q-16.86-11.48-33.82-22.83a28.32,28.32,0,0,0-4.79-2.65,6.4,6.4,0,0,0-7.89,1.76,17.38,17.38,0,0,0-2.31,3.22q-8.06,15.39-16,30.83c-4.42,8.53-8.89,17-13.26,25.6a33.39,33.39,0,0,0-2.43,6.17c-.45,1.62.46,2.37,2.13,2a22.51,22.51,0,0,0,3.59-1.09q17.35-6.84,34.7-13.73l39.78-15.8a13.29,13.29,0,0,0,5.65-3.62A17,17,0,0,0,125.14,146.51Z" style="fill:#f16a24"/></g></svg>