<svg xmlns="http://www.w3.org/2000/svg" x="0" y="0" viewBox="0 0 300 300" xml:space="preserve"><path fill="#fff" d="M176.7 182.3c-11.6 0-21.8-8.2-21.8-23V129H167v31.2c0 6.8 3.5 11.3 9.8 11.3 6.3 0 9.8-4.5 9.8-11.3V129h12.1v30.3c0 14.9-10.4 23-22 23M71.1 113.6H59.2v14.3c6.2-2.3 10.8-7.7 11.9-14.3M59.2 130.3v50.9h12.1v-34.3c-.3-7.7-5.2-14.1-12.1-16.6M101.1 129.1c-10.3 0-18.7 8.4-18.7 18.7v33.4h11.9v-31.9c0-5.2 4.2-9.3 9.3-9.3h4.3v-10.9h-6.8zM232.3 149.9l-8.2-1.9c-.4-.1-.7-.2-1.1-.3-2.4-.8-4.1-2.4-4.1-4.6 0-2.7 2.7-4.9 7.2-4.9 5.9 0 9.9 3.4 12.3 6.6l7.5-8.3c-4.8-5-10.7-8.7-19.5-8.7-11 0-19 5.8-19 15.5 0 9 6.1 14 15.8 16.5l6.9 1.7c.9.2 1.6.5 2.3.7 2.8 1.1 3.8 2.6 3.8 4.4 0 2.6-1.8 5.3-8.1 5.3-6.2 0-11.2-2.6-15.1-7.6l-7.6 7.8c4 5.1 10.7 10.1 21.7 10.1 13.7 0 20.7-7.1 20.7-16.2 0-9-6.6-14-15.5-16.1M147 170.2c-.4 0-2.8.2-3.9.2-6.8 0-8.5-1.9-8.5-9.5v-21.1H147V129h-12.4v-15.5h-12V129H115v10.8h7.7v22.9c0 13.2 4.4 18.5 18 18.5 3.8 0 6.1-.2 6.4-.2l-.1-10.8zM50.8 129.1l-18.5 52.1H19.1L.6 129.1h12.5l12.6 38.2 12.7-38.2zM285.4 177.1c.2-.1.3-.3.5-.4v4.4h11.4v-33.7c0-13.3-9.3-19.7-22.2-19.7-8 0-16.5 3.5-20.6 10.8l8.2 7.6c3.3-6 8.3-7.5 12.4-7.6 6.5-.1 10.9 4.2 10.9 9.6v2.8c-.2-.1-.5-.2-.7-.2-.4-.1-.8-.3-1.2-.4-.1 0-.2-.1-.3-.1-.1 0-.1 0-.2-.1-.1 0-.3-.1-.4-.1-.1 0-.2-.1-.4-.1h-.2c-2.3-.5-5.1-1-7.8-1-12 0-21.7 5.5-21.7 17.4 0 10 8.1 15.8 17.5 15.8 6.6.2 11.5-2.1 14.8-5m-12.6-5c-5.7 0-8.4-3-8.4-6.5 0-4.5 4-6.9 9.9-6.9 4.7 0 8.3 1 11.6 2.3v6.4c-2.9 2.7-8.1 4.7-13.1 4.7"/></svg>