<svg id="a8e10c98-715a-4f60-abd0-aef834f0560a" data-name="e4fbc5bd-1559-4fd1-aeaa-9c9a3d1be373" xmlns="http://www.w3.org/2000/svg" viewBox="0 0 300 300">
  <defs>
    <style>
      .a1313477-015e-4fbf-b4bb-5eb8f2bedc4a {
        fill: #8d8d8e;
      }

      .b47561cc-a40b-472d-97fd-b2a35b67f0ee {
        fill: #e47a28;
      }

      .e548c12b-2684-4e1a-95ef-ecbf428363c4 {
        fill: #d86619;
      }
    </style>
  </defs>
  <path class="a1313477-015e-4fbf-b4bb-5eb8f2bedc4a" d="M141.49,145.53H126.1v19.21h3v-6.81h12.39a4.87,4.87,0,0,0,4.87-4.87V150.4A4.87,4.87,0,0,0,141.49,145.53Zm1.87,7.53a1.87,1.87,0,0,1-1.87,1.87H129.1v-6.4h12.39a1.87,1.87,0,0,1,1.87,1.87Z"/>
  <path class="a1313477-015e-4fbf-b4bb-5eb8f2bedc4a" d="M165,145.53H149.63v19.21h3v-6.81H165a4.87,4.87,0,0,0,4.87-4.87V150.4A4.87,4.87,0,0,0,165,145.53Zm1.87,7.53a1.87,1.87,0,0,1-1.87,1.87H152.63v-6.4H165a1.87,1.87,0,0,1,1.87,1.87Z"/>
  <polygon class="a1313477-015e-4fbf-b4bb-5eb8f2bedc4a" points="174.92 145.42 171.92 145.42 171.92 164.92 188.12 164.92 188.12 161.92 174.92 161.92 174.92 145.42"/>
  <rect class="a1313477-015e-4fbf-b4bb-5eb8f2bedc4a" x="191.75" y="145.42" width="3" height="19.32"/>
  <path class="a1313477-015e-4fbf-b4bb-5eb8f2bedc4a" d="M239.75,145.53H232a6.67,6.67,0,0,0-3.79,1.16v-1.27h-3v19.32h3V152.32a3.79,3.79,0,0,1,3.79-3.79h7.78a3.79,3.79,0,0,1,3.78,3.79v12.42h3V152.32a6.79,6.79,0,0,0-6.79-6.79Z"/>
  <path class="a1313477-015e-4fbf-b4bb-5eb8f2bedc4a" d="M214.56,145.53h-9a6.79,6.79,0,0,0-6.79,6.79v12.42h3v-8.16h16.59v8.16h3V152.32a6.79,6.79,0,0,0-6.79-6.79Zm-12.8,8.05v-1.26a3.79,3.79,0,0,1,3.79-3.79h9a3.79,3.79,0,0,1,3.79,3.79v1.26Z"/>
  <path class="a1313477-015e-4fbf-b4bb-5eb8f2bedc4a" d="M115.81,145.53h-9a6.8,6.8,0,0,0-6.79,6.79v12.42h3v-8.16h16.6v8.16h3V152.32a6.79,6.79,0,0,0-6.79-6.79ZM103,153.58v-1.26a3.79,3.79,0,0,1,3.79-3.79h9a3.79,3.79,0,0,1,3.79,3.79v1.26Z"/>
  <path class="a1313477-015e-4fbf-b4bb-5eb8f2bedc4a" d="M257.21,148.36H267a3.79,3.79,0,0,1,3.79,3.79h3a6.8,6.8,0,0,0-6.79-6.79h-9.76a6.8,6.8,0,0,0-6.79,6.79v6a6.8,6.8,0,0,0,6.79,6.79H267a6.8,6.8,0,0,0,6.79-6.79h-3a3.79,3.79,0,0,1-3.79,3.79h-9.76a3.79,3.79,0,0,1-3.79-3.79v-6A3.79,3.79,0,0,1,257.21,148.36Z"/>
  <path class="a1313477-015e-4fbf-b4bb-5eb8f2bedc4a" d="M292.29,161.92h-9.76a3.79,3.79,0,0,1-3.79-3.79h0V157H291.5v-3H278.74v-1.81a3.79,3.79,0,0,1,3.79-3.79h9.76a3.79,3.79,0,0,1,3.79,3.79h3a6.8,6.8,0,0,0-6.79-6.79h-9.76a6.8,6.8,0,0,0-6.79,6.79v6a6.8,6.8,0,0,0,6.79,6.79h9.76a6.8,6.8,0,0,0,6.79-6.79h-3A3.79,3.79,0,0,1,292.29,161.92Z"/>
  <path class="b47561cc-a40b-472d-97fd-b2a35b67f0ee" d="M100.9,170.75h.93v2.69h1.48v.82h-1.48v6.41h-.93v-6.41H99.62v-.82h1.28Z"/>
  <path class="b47561cc-a40b-472d-97fd-b2a35b67f0ee" d="M105.3,177.13a2.75,2.75,0,0,0,2.63,2.87H108a3.05,3.05,0,0,0,2.77-1.73l.77.41a3.6,3.6,0,0,1-3.44,2.16,3.66,3.66,0,0,1-3.77-3.55v-.22a3.73,3.73,0,1,1,7.46.06Zm5.49-.82a2.76,2.76,0,0,0-5.39,0Z"/>
  <path class="b47561cc-a40b-472d-97fd-b2a35b67f0ee" d="M120.56,179.21a3.87,3.87,0,0,1-3.39,1.63,3.76,3.76,0,0,1-4-3.53,1.28,1.28,0,0,1,0-.19,3.87,3.87,0,0,1,3.87-3.87h.13a3.74,3.74,0,0,1,3.32,1.69l-.75.46a3.11,3.11,0,0,0-2.61-1.25,2.93,2.93,0,1,0-.34,5.85h.34a3.19,3.19,0,0,0,2.6-1.26Z"/>
  <path class="b47561cc-a40b-472d-97fd-b2a35b67f0ee" d="M122.34,170.65h.93v4.08a3.3,3.3,0,0,1,2.7-1.48c1.57,0,2.67,1.1,2.67,3.27v4.15h-.92v-3.94c0-1.7-.52-2.64-1.92-2.64a2.31,2.31,0,0,0-1.91,1,3.86,3.86,0,0,0-.62,2.56v3h-.93Z"/>
  <path class="b47561cc-a40b-472d-97fd-b2a35b67f0ee" d="M131.57,174.73a3.33,3.33,0,0,1,2.71-1.48c1.58,0,2.68,1.09,2.68,3.36v4.06h-1v-3.94c0-1.7-.53-2.64-1.93-2.64a2.31,2.31,0,0,0-1.91,1,3.75,3.75,0,0,0-.62,2.56v3h-.93v-7.23h.93Z"/>
  <path class="b47561cc-a40b-472d-97fd-b2a35b67f0ee" d="M146.14,177.07a3.77,3.77,0,1,1-7.54,0h0a3.77,3.77,0,1,1,7.54,0Zm-6.58,0a2.82,2.82,0,0,0,5.63.34,1.93,1.93,0,0,0,0-.34,2.82,2.82,0,0,0-5.63-.34A1.93,1.93,0,0,0,139.56,177.07Z"/>
  <path class="b47561cc-a40b-472d-97fd-b2a35b67f0ee" d="M147.72,170.65h.93v10h-.93Z"/>
  <path class="b47561cc-a40b-472d-97fd-b2a35b67f0ee" d="M157.78,177.07a3.77,3.77,0,1,1-7.54,0h0a3.77,3.77,0,1,1,7.54,0Zm-6.59,0a2.82,2.82,0,1,0,5.64,0h0a2.82,2.82,0,0,0-5.64,0Z"/>
  <path class="b47561cc-a40b-472d-97fd-b2a35b67f0ee" d="M166.67,179.2a4.92,4.92,0,0,1-.65,3,3.65,3.65,0,0,1-3.07,1.32,3.61,3.61,0,0,1-3.73-2.25h1a2.78,2.78,0,0,0,2.67,1.4,2.67,2.67,0,0,0,2.52-1.22,3.2,3.2,0,0,0,.31-1.58v-.55a3.71,3.71,0,0,1-6.6-2.28,3.76,3.76,0,0,1,3.7-3.76,3.56,3.56,0,0,1,2.9,1.44v-1.25h.94Zm-6.59-2.14a2.68,2.68,0,0,0,2.66,2.72H163a2.65,2.65,0,0,0,2.76-2.53V177a2.73,2.73,0,0,0-2.62-2.84H163a2.86,2.86,0,0,0-2.9,2.8Z"/>
  <path class="b47561cc-a40b-472d-97fd-b2a35b67f0ee" d="M169.76,171.22a.79.79,0,0,1-.78.78.78.78,0,0,1-.76-.78.76.76,0,0,1,.76-.76A.78.78,0,0,1,169.76,171.22Zm-1.23,2.22h.93v7.23h-.93Z"/>
  <path class="b47561cc-a40b-472d-97fd-b2a35b67f0ee" d="M172,177.13a2.75,2.75,0,0,0,2.63,2.87h.09a3,3,0,0,0,2.76-1.73l.78.41a3.6,3.6,0,0,1-3.44,2.16,3.66,3.66,0,0,1-3.77-3.55v-.22a3.73,3.73,0,1,1,7.46.06Zm5.48-.82a2.76,2.76,0,0,0-5.39,0Z"/>
  <path class="b47561cc-a40b-472d-97fd-b2a35b67f0ee" d="M180.13,179.16a2.07,2.07,0,0,0,1.51.8,1.27,1.27,0,0,0,1.33-1.2,1.17,1.17,0,0,0-.6-1c-1.66-.92-2.5-1.32-2.5-2.58a1.9,1.9,0,0,1,1.88-1.92h.12a2.78,2.78,0,0,1,2,1l-.6.61a2,2,0,0,0-1.46-.69,1,1,0,0,0-1.09.91v.09a1.22,1.22,0,0,0,.56,1c1.66,1,2.59,1.34,2.59,2.64a2.13,2.13,0,0,1-2.12,2.14h-.06a2.73,2.73,0,0,1-2.14-1Z"/>
  <path class="e548c12b-2684-4e1a-95ef-ecbf428363c4" d="M40.64,195.76a40.08,40.08,0,1,1,40.08-40.08A40.07,40.07,0,0,1,40.64,195.76Zm0-70.61A30.54,30.54,0,1,0,71.17,155.7v0A30.57,30.57,0,0,0,40.64,125.15Z"/>
  <path class="e548c12b-2684-4e1a-95ef-ecbf428363c4" d="M84.69,138.24a4.77,4.77,0,0,1-4.26-2.62A44.77,44.77,0,0,0,57.2,114.31a4.77,4.77,0,1,1,3.56-8.86A54.34,54.34,0,0,1,89,131.31a4.78,4.78,0,0,1-2.11,6.42A4.68,4.68,0,0,1,84.69,138.24Z"/>
</svg>
