<svg xmlns="http://www.w3.org/2000/svg" viewBox="0 0 300 114.4"><path fill="#fff" d="M177.2,90c-11.6,0-21.8-8.2-21.8-23V36.7h12.1v31.2c0,6.8,3.5,11.3,9.8,11.3s9.8-4.5,9.8-11.3V36.7h12.1V67	C199.2,81.9,188.8,90,177.2,90 M71.6,21.3H59.7v14.3C65.9,33.3,70.5,27.9,71.6,21.3 M59.7,38v50.9h12.1V54.6	C71.5,46.9,66.6,40.5,59.7,38 M101.6,36.8c-10.3,0-18.7,8.4-18.7,18.7v33.4h11.9V57c0-5.2,4.2-9.3,9.3-9.3h4.3V36.8L101.6,36.8	L101.6,36.8z M232.8,57.6l-8.2-1.9c-0.4-0.1-0.7-0.2-1.1-0.3c-2.4-0.8-4.1-2.4-4.1-4.6c0-2.7,2.7-4.9,7.2-4.9	c5.9,0,9.9,3.4,12.3,6.6l7.5-8.3c-4.8-5-10.7-8.7-19.5-8.7c-11,0-19,5.8-19,15.5c0,9,6.1,14,15.8,16.5l6.9,1.7	c0.9,0.2,1.6,0.5,2.3,0.7c2.8,1.1,3.8,2.6,3.8,4.4c0,2.6-1.8,5.3-8.1,5.3c-6.2,0-11.2-2.6-15.1-7.6l-7.6,7.8	c4,5.1,10.7,10.1,21.7,10.1c13.7,0,20.7-7.1,20.7-16.2C248.3,64.7,241.7,59.7,232.8,57.6 M147.5,77.9c-0.4,0-2.8,0.2-3.9,0.2	c-6.8,0-8.5-1.9-8.5-9.5V47.5h12.4V36.7h-12.4V21.2h-12v15.5h-7.6v10.8h7.7v22.9c0,13.2,4.4,18.5,18,18.5c3.8,0,6.1-0.2,6.4-0.2	L147.5,77.9L147.5,77.9z M51.3,36.8L32.8,88.9H19.6L1.1,36.8h12.5L26.2,75l12.7-38.2H51.3z M285.9,84.8c0.2-0.1,0.3-0.3,0.5-0.4v4.4	h11.4V55.1c0-13.3-9.3-19.7-22.2-19.7c-8,0-16.5,3.5-20.6,10.8l8.2,7.6c3.3-6,8.3-7.5,12.4-7.6c6.5-0.1,10.9,4.2,10.9,9.6v2.8	c-0.2-0.1-0.5-0.2-0.7-0.2c-0.4-0.1-0.8-0.3-1.2-0.4c-0.1,0-0.2-0.1-0.3-0.1c-0.1,0-0.1,0-0.2-0.1c-0.1,0-0.3-0.1-0.4-0.1	s-0.2-0.1-0.4-0.1h-0.2c-2.3-0.5-5.1-1-7.8-1c-12,0-21.7,5.5-21.7,17.4c0,10,8.1,15.8,17.5,15.8C277.7,90,282.6,87.7,285.9,84.8 M273.3,79.8c-5.7,0-8.4-3-8.4-6.5c0-4.5,4-6.9,9.9-6.9c4.7,0,8.3,1,11.6,2.3v6.4C283.5,77.8,278.3,79.8,273.3,79.8"/></svg>