<svg xmlns="http://www.w3.org/2000/svg" viewBox="0 0 300 300"><linearGradient id="a" x1="114.188" x2="133.867" y1="250.596" y2="136.18" gradientTransform="matrix(1 0 0 -1 0 302)" gradientUnits="userSpaceOnUse"><stop offset="0" stop-color="#fff"/><stop offset="1" stop-color="#b8b8b8"/></linearGradient><path fill="url(#a)" d="M111.4,69.5c0,0-18.2,8.7-44.8,29.5C45.5,115.6,24.4,118.5,9.7,116c-14.7-2.5-10.2,0.5-3.7,4.6	c6.5,4.1,32.1,17.3,62.8,15.3c38.7-2.5,69.4-24.5,89.7-36.8c20.3-12.4,43.8-26.3,69.9-31c19.4-3.5,15.8-4.1,1-2.8	c-26.3,2.2-53.9,13.9-74.9,24.5C103.6,115.3,111.4,69.5,111.4,69.5L111.4,69.5z"/><linearGradient id="b" x1="33.496" x2="39.031" y1="244.761" y2="168.745" gradientTransform="matrix(1 0 0 -1 0 302)" gradientUnits="userSpaceOnUse"><stop offset="0" stop-color="#fff"/><stop offset="1" stop-color="#b8b8b8"/></linearGradient><path fill="url(#b)" d="M49.6,65.9c0,0,1.1,9.9,7.3,17.1c6.4,7.4,13.8,8.6,13.8,8.6s-12.2,10.2-23.6,15.5c-14.2,6.6-30.1,7-38.4,5.8	c-8.3-1.2-7.8-1.2,0.6-5C20,103,28.4,95.6,34.8,83.1C41.1,70.6,47,66.9,49.6,65.9L49.6,65.9z"/><path fill="#fff" d="M-0.1,177h6.7l21.3,31.9L49.1,177h6.7v58.4h-6.6v-47.3l-21.3,31.3h-0.3L6.3,188.2v47.2h-6.4V177z M82.3,214	l13.3-29.7l13.3,29.7H82.3z M66,235.4h6.8l6.9-15.4h31.8l6.8,15.4h7.1l-26.6-58.8h-6.2L66,235.4z M135.7,177h6.2l36.8,46.8V177h6.4	v58.4h-5.3l-37.7-47.9v47.9h-6.4L135.7,177z M215.7,183.1h-19.6V177H242v6.1h-19.6v52.3h-6.7L215.7,183.1z M256.9,214l13.3-29.7	l13.3,29.7H256.9z M240.6,235.4h6.8l6.9-15.4h31.8l6.8,15.4h7.1l-26.6-58.8h-6.2L240.6,235.4z"/></svg>