<svg xmlns="http://www.w3.org/2000/svg" viewBox="0 0 300 300"><path d="M300 156.5v-20c0-11-13.1-20-29.3-20s-29.3 8.9-29.3 20c0 11 13.1 20 29.3 20 8.2 0 15.6-2.3 20.9-6v6h8.4zm-29.3-5.7c-11.5 0-20.9-6.4-20.9-14.3s9.4-14.3 20.9-14.3c11.5 0 20.9 6.4 20.9 14.3s-9.3 14.3-20.9 14.3zm-31.8-14.2c0-11-13.1-20-29.3-20-8.2 0-15.6 2.3-20.9 6v-6h-8.4v39.9h8.4v-20c0-7.9 9.4-14.3 20.9-14.3 11.5 0 20.9 6.4 20.9 14.3h8.4zm-90.3-20c-8.2 0-15.6 2.3-20.9 6v-6h-8.4v39.9h8.4v-20c0-7.9 9.4-14.3 20.9-14.3 11.5 0 20.9 6.4 20.9 14.3v20h8.4v-20c-.1-11-13.2-19.9-29.3-19.9zm-61.1 0c-16.2 0-29.3 8.9-29.3 20 0 11 13.1 20 29.3 20s29.3-8.9 29.3-20c-.1-11.1-13.2-20-29.3-20zm0 34.2c-11.5 0-20.9-6.4-20.9-14.3s9.4-14.3 20.9-14.3c11.5 0 20.9 6.4 20.9 14.3s-9.4 14.3-20.9 14.3zm-29.9-5.7c0-6-6.9-11-15.6-11.4H16.9c-4.6 0-8.4-2.6-8.4-5.7 0-3.2 3.7-5.7 8.4-5.7h33.5v-5.7H16.9C7.7 116.6.2 121.7.2 128c0 6.3 7.5 11.4 16.7 11.4h24c4.6 0 8.4 2.6 8.4 5.7 0 3.2-3.7 5.7-8.4 5.7H-.4v5.7H42c8.7-.4 15.6-5.3 15.6-11.4z" fill="#fff"/><path d="M289.7 184.1c.3.1 1 .2 1.3.2 1.7 0 3-.6 3.7-2.5L300 169h-2.5l-3.2 8.2-3.2-8.2h-2.5l4.5 11-.5 1.2c-.3.7-.8.9-1.6.9-.3 0-.7-.1-.9-.2l-.4 2.2zm-2.6-4.2v-7.7c0-2.2-1.2-3.5-3.5-3.5-1.7 0-3.1.9-3.8 1.8V169h-2.4v10.9h2.4v-7.6c.5-.7 1.6-1.5 2.8-1.5 1.3 0 2.2.6 2.2 2.3v6.8h2.3zm-12.8 0v-7.2c0-2.9-2.1-3.9-4.5-3.9-1.7 0-3.3.6-4.6 1.8l1 1.6c.9-.9 2-1.4 3.2-1.4 1.5 0 2.5.8 2.5 2v1.6c-.8-.9-2-1.4-3.5-1.4-1.8 0-3.8 1-3.8 3.5 0 2.4 2 3.6 3.8 3.6 1.4 0 2.7-.5 3.5-1.4v1.2h2.4zm-5-1.4c-1.3 0-2.3-.8-2.3-1.9 0-1.2 1-2 2.3-2 1 0 2 .4 2.6 1.1v1.6c-.5.8-1.6 1.2-2.6 1.2zm-11.2 1.6c2.8 0 4.8-2.1 4.8-5.7s-2-5.7-4.8-5.7c-1.4 0-2.7.7-3.5 1.8V169h-2.4v15h2.4v-5.7c.9 1.2 2.1 1.8 3.5 1.8zm-.7-2.1c-1.1 0-2.3-.7-2.8-1.5v-4.3c.5-.8 1.7-1.5 2.8-1.5 1.9 0 3.1 1.5 3.1 3.6 0 2.2-1.2 3.7-3.1 3.7zm-8.3 1.9V172c0-2.2-1.1-3.3-3.1-3.3-1.6 0-3.1 1-3.7 2-.4-1.2-1.4-2-3-2s-3.1 1.1-3.5 1.8V169h-2.4v10.9h2.4v-7.6c.5-.7 1.5-1.5 2.5-1.5 1.3 0 1.8.8 1.8 2v7.1h2.4v-7.6c.5-.7 1.5-1.4 2.5-1.4 1.3 0 1.8.8 1.8 2v7.1h2.3v-.1zm-23.6.2c3.5 0 5.6-2.6 5.6-5.7s-2.1-5.7-5.6-5.7c-3.4 0-5.6 2.6-5.6 5.7s2.1 5.7 5.6 5.7zm0-2.1c-2 0-3.1-1.7-3.1-3.6 0-1.9 1.1-3.6 3.1-3.6s3.2 1.7 3.2 3.6c-.1 1.9-1.2 3.6-3.2 3.6zm-13 2.1c3 0 4.9-1.6 6-3.4l-2.3-1.1c-.7 1.3-2.2 2.2-3.8 2.2-3 0-5.2-2.3-5.2-5.4s2.2-5.4 5.2-5.4c1.6 0 3.1.9 3.8 2.2l2.3-1.1c-1.1-1.8-3-3.4-6-3.4-4.4 0-7.9 3.2-7.9 7.8s3.4 7.6 7.9 7.6zm-16.4-.2v-7.7c0-2.2-1.2-3.5-3.5-3.5-1.7 0-3.1.9-3.8 1.8V169h-2.4v10.9h2.4v-7.6c.5-.7 1.6-1.5 2.8-1.5 1.3 0 2.2.6 2.2 2.3v6.8h2.3zm-17.7.2c3.5 0 5.6-2.6 5.6-5.7s-2.1-5.7-5.6-5.7c-3.4 0-5.6 2.6-5.6 5.7s2.2 5.7 5.6 5.7zm0-2.1c-2 0-3.1-1.7-3.1-3.6 0-1.9 1.1-3.6 3.1-3.6s3.2 1.7 3.2 3.6c0 1.9-1.1 3.6-3.2 3.6zm-9.2-10.4c.8 0 1.5-.7 1.5-1.5s-.7-1.5-1.5-1.5-1.5.7-1.5 1.5.8 1.5 1.5 1.5zm1.2 12.3V169H168v10.9h2.4zm-6.3.2c1.1 0 1.8-.3 2.2-.7l-.6-1.8c-.2.2-.6.4-1.1.4-.7 0-1-.5-1-1.3V171h2.2v-2h-2.2v-3h-2.4v3h-1.8v2.1h1.8v6.3c.1 1.7 1.1 2.7 2.9 2.7zm-6.3-.2v-7.2c0-2.9-2.1-3.9-4.5-3.9-1.7 0-3.3.6-4.6 1.8l1 1.6c.9-.9 2-1.4 3.2-1.4 1.5 0 2.5.8 2.5 2v1.6c-.8-.9-2-1.4-3.5-1.4-1.8 0-3.8 1-3.8 3.5 0 2.4 2 3.6 3.8 3.6 1.4 0 2.7-.5 3.5-1.4v1.2h2.4zm-5-1.4c-1.3 0-2.3-.8-2.3-1.9 0-1.2 1-2 2.3-2 1 0 2 .4 2.6 1.1v1.6c-.5.8-1.6 1.2-2.6 1.2zm-9.5 1.4v-7.4c.5-.8 1.8-1.4 2.8-1.4.3 0 .5 0 .7.1v-2.3c-1.4 0-2.7.8-3.5 1.8V169h-2.4v10.9h2.4zm-9.9.2c1.7 0 3.3-.5 4.4-1.6l-1.1-1.6c-.8.8-2 1.2-3.1 1.2-2 0-3.3-1.4-3.5-3h8.4v-.6c0-3.4-2.1-5.9-5.4-5.9-3.2 0-5.5 2.5-5.5 5.7.1 3.6 2.5 5.8 5.8 5.8zm2.9-6.6h-6.1c.1-1.3 1-2.9 3.1-2.9s2.9 1.6 3 2.9zm-18.7 3.1v-4.3c.5-.8 1.7-1.5 2.8-1.5 1.9 0 3.1 1.5 3.1 3.6s-1.2 3.6-3.1 3.6c-1.1 0-2.2-.6-2.8-1.4zm0 3.3v-1.5c.8 1.1 2.1 1.8 3.5 1.8 2.8 0 4.8-2.1 4.8-5.7 0-3.5-2-5.7-4.8-5.7-1.4 0-2.6.6-3.5 1.8v-5.7h-2.4v15h2.4zm-6.6-12.3c.8 0 1.5-.7 1.5-1.5s-.7-1.5-1.5-1.5-1.5.7-1.5 1.5.7 1.5 1.5 1.5zm1.2 12.3V169h-2.4v10.9h2.4zm-4.7 0v-2.3h-6.6v-12.7h-2.6v15h9.2zm-18.4 0v-7.2c0-2.9-2.1-3.9-4.5-3.9-1.7 0-3.3.6-4.6 1.8l1 1.6c.9-.9 2-1.4 3.2-1.4 1.5 0 2.5.8 2.5 2v1.6c-.8-.9-2-1.4-3.5-1.4-1.8 0-3.8 1-3.8 3.5 0 2.4 2 3.6 3.8 3.6 1.4 0 2.7-.5 3.5-1.4v1.2h2.4zm-4.9-1.4c-1.3 0-2.3-.8-2.3-1.9 0-1.2 1-2 2.3-2 1 0 2 .4 2.6 1.1v1.6c-.6.8-1.6 1.2-2.6 1.2zm-8 1.6c1.1 0 1.8-.3 2.2-.7l-.6-1.8c-.2.2-.6.4-1.1.4-.7 0-1-.5-1-1.3V171H78v-2h-2.2v-3h-2.4v3h-1.8v2.1h1.8v6.3c0 1.7 1 2.7 2.8 2.7zm-6.4-.2v-7.2c0-2.9-2.1-3.9-4.5-3.9-1.7 0-3.3.6-4.6 1.8l1 1.6c.9-.9 2-1.4 3.2-1.4 1.5 0 2.5.8 2.5 2v1.6c-.8-.9-2-1.4-3.5-1.4-1.8 0-3.8 1-3.8 3.5 0 2.4 2 3.6 3.8 3.6 1.4 0 2.7-.5 3.5-1.4v1.2h2.4zm-4.9-1.4c-1.3 0-2.3-.8-2.3-1.9 0-1.2 1-2 2.3-2 1 0 2 .4 2.6 1.1v1.6c-.6.8-1.6 1.2-2.6 1.2zm-14.4 1.4c4.7 0 7.9-3.1 7.9-7.5s-3.2-7.5-7.9-7.5h-5.6v15h5.6zm0-2.4h-3v-10.4h3c3.4 0 5.2 2.3 5.2 5.2 0 2.9-1.9 5.2-5.2 5.2zm-19.2 2.6c1.7 0 3.3-.5 4.4-1.6l-1.1-1.6c-.8.8-2 1.2-3.1 1.2-2 0-3.3-1.4-3.5-3h8.4v-.6c0-3.4-2.1-5.9-5.4-5.9-3.2 0-5.5 2.5-5.5 5.7.1 3.6 2.6 5.8 5.8 5.8zm2.9-6.6h-6.1c.1-1.3 1-2.9 3.1-2.9s3 1.6 3 2.9zm-10.9 6.4v-7.7c0-2.2-1.2-3.4-3.5-3.4-1.7 0-3.1.9-3.9 1.8V165h-2.4v15h2.4v-7.6c.6-.7 1.6-1.5 2.8-1.5 1.3 0 2.2.5 2.2 2.2v6.8h2.4zm-16.5 0v-12.7h4.6v-2.3H-.4v2.3h4.6v12.7h2.6z" fill="#00a1ae"/></svg>