<svg xmlns="http://www.w3.org/2000/svg" id="Layer_1" x="0" y="0" viewBox="0 0 300 300" xml:space="preserve"><style>.st0{fill:#fff}.st1{fill:#3c88c8}</style><g><path d="M.7 140.9c.3-.7.5-1.5.8-2.2 1.1-3.1 3.1-4.8 6.4-4.8 10.5-.1 20.9 0 31.4 0 .1 0 .3.1.5.2 0 2.2 0 4.4 0 6.8-.6 0-1.2.1-1.8.1-7.4 0-14.9 0-22.3 0-1 0-2.1.1-3.1.3-1.2.2-1.9 1.1-1.9 2.4 0 1.3.9 2 2.1 2.1 2.3.2 4.7.3 7 .4 4.5.2 8.9.3 13.4.5 4.7.2 7.4 3 7.6 7.7 0 1.1 0 2.2 0 3.3 0 5.4-2.5 8.6-7.9 8.7-10.4.3-20.8.1-31.2.1 0-2.4 0-4.7 0-7.2.8 0 1.5 0 2.3 0 7.2 0 14.3 0 21.5 0 1.1 0 2.2 0 3.3-.2 1.2-.2 2-.8 2.2-2.1.1-1.3-.5-2.1-1.6-2.5-.5-.2-1-.3-1.6-.4-5.8-.3-11.5-.7-17.3-.8-4.7 0-8.3-1.3-9.6-6.3C.7 145 .7 143 .7 140.9zM.7 119.4c99.3 0 198.7 0 298.1 0 .4 1 .4 1.7-.9 1.7-.4 0-.8 0-1.2 0-97.9 0-195.8 0-293.7 0-.8 0-1.5 0-2.3 0C.7 120.5.7 120 .7 119.4zM.7 179.3c98.7 0 197.4 0 296.1 0 .9 0 2.5-.7 2 1.6-99.4 0-198.8 0-298.2 0C.7 180.4.7 179.9.7 179.3z" class="st0"/><path d="M234.2 27.3c-19.7 3.7-38.6 10.2-56.7 18.9-18.8 9-36 20.5-51.3 34.6-8.2 7.5-15.7 15.6-22.1 24.7-.5.7-.9 1.4-1.5 2.4 10 0 19.5 0 29-.1.6 0 1.3-.6 1.7-1.1 7.6-10.7 16.3-20.4 25.9-29.4 20.4-19 43.5-33.5 69.7-43.1 18-6.6 36.7-10.6 55.8-11.9 2.9-.1 5.8-.3 8.7-.4.2 0 .3-.2.5-.3C289.8 21.4 273.5 20 234.2 27.3zM65.8 272.7c19.7-3.7 38.6-10.2 56.7-18.9 18.8-9 36-20.5 51.3-34.6 8.2-7.5 15.7-15.6 22.1-24.7.5-.7.9-1.4 1.5-2.4-10 0-19.5 0-29 .1-.6 0-1.3.6-1.7 1.1-7.6 10.7-16.3 20.4-25.9 29.4-20.4 19-43.5 33.5-69.7 43.1-18 6.6-36.7 10.6-55.8 11.9-2.9.1-5.8.3-8.7.4-.2 0-.3.2-.5.3C10.2 278.6 26.5 280 65.8 272.7z" class="st1"/><path d="M92.1 166.5c0-2.5 0-4.8 0-7.2.8 0 1.6 0 2.3 0 7.2 0 14.3 0 21.5 0 1.1 0 2.2 0 3.3-.2 1.2-.2 2-.8 2.2-2.1.1-1.3-.5-2.1-1.6-2.5-.5-.2-1-.3-1.6-.4-6.1-.3-12.2-.6-18.4-.8-5.8-.2-8.6-2.9-8.5-8.7 0-2 .3-4.1.8-6.1.7-3.1 3.1-4.6 6-4.7 10.7-.1 21.3-.1 32.1-.1 0 2.3 0 4.6 0 7-.6 0-1.1.1-1.7.1-7.4 0-14.9 0-22.3 0-1 0-2.1.2-3.1.3-1.2.2-1.9 1.1-1.9 2.3 0 1.3.8 2.1 2.1 2.2 2.6.2 5.2.3 7.8.4 4.3.2 8.5.3 12.8.5 4.6.2 7.2 3 7.4 7.6 0 1.1 0 2.2 0 3.3 0 5.5-2.7 8.7-8.1 8.8C112.9 166.7 102.6 166.5 92.1 166.5zM185.9 153.5c0 1.9 0 3.4 0 5 8.4 0 16.8 0 25.4 0 0 2.7 0 5.2 0 7.8-11.8 0-23.7 0-35.7 0 0-10.8 0-21.5 0-32.4 11.9 0 23.7 0 35.7 0 0 2.4 0 4.9 0 7.5-8.4 0-16.9 0-25.4 0 0 1.8 0 3.3 0 5.1 7.8 0 15.7 0 23.7 0 0 2.4 0 4.5 0 6.9C201.8 153.5 193.9 153.5 185.9 153.5zM256.9 166.4c0-10.8 0-21.6 0-32.4 3.4 0 6.7 0 10.2 0 0 3.7 0 7.4 0 11.3 7.2 0 14.3 0 21.5 0 0-3.7 0-7.4 0-11.3 3.5 0 6.8 0 10.3 0 0 10.7 0 21.4 0 32.3-3.2 0-6.6 0-10.1 0 0-3.8 0-7.8 0-11.8-7.3 0-14.3 0-21.5 0 0 3.9 0 7.8 0 11.8C263.8 166.4 260.4 166.4 256.9 166.4zM253.3 133.9c0 2.8 0 5.4 0 8.1-.7 0-1.3.1-1.9.1-8.1 0-16.2 0-24.4 0-2.9 0-3.3.2-3.3 3.1-.1 3.7 0 7.4 0 11.1 0 1.3.7 1.9 1.8 2 .6.1 1.2.1 1.8.1 7.9 0 15.8 0 23.7 0 .7 0 1.3 0 2.1 0 0 2.8 0 5.4 0 8.1-.8 0-1.5 0-2.1 0-8.4 0-16.8 0-25.2 0-1.5 0-3-.2-4.5-.4-4.1-.7-6.7-3.6-6.8-7.7-.1-5.5-.2-11 0-16.5.3-5.1 3.1-7.7 8.4-7.9C233.2 133.6 243.2 133.9 253.3 133.9zM71 166.4c-3.5 0-6.8 0-10.4 0 0-2.6-.2-5.3 0-7.9.2-2.4-.7-4.2-2.2-6-5-5.8-9.8-11.7-14.6-17.5-.2-.2-.4-.5-.7-1.1 4.1 0 7.9 0 11.8.1.5 0 1.2.6 1.5 1.1 3.2 3.9 6.3 7.8 9.5 11.8 3-3.7 6-7.3 8.8-11 1.1-1.4 2.2-2.1 4.1-2 3.2.2 6.5 0 10.1 0-2.2 2.6-4.2 5.1-6.2 7.5-3.6 4.4-7.3 8.7-10.9 13.1-.4.5-.6 1.3-.7 2C71 159.8 71 163 71 166.4zM148.6 166.4c0-8.2 0-16.4 0-24.8-4.8 0-9.5 0-14.3 0 0-2.6 0-5 0-7.6 12.7 0 25.4 0 38.2 0 0 2.3 0 4.8 0 7.4-4.4 0-8.8 0-13.4 0 0 8.4 0 16.6 0 25C155.5 166.4 152.2 166.4 148.6 166.4z" class="st0"/></g></svg>