<svg xmlns="http://www.w3.org/2000/svg" viewBox="0 0 601 601"><path fill="#fff" d="M144.4 310.2h14.8l-7.8-22.6h-.2l-6.8 22.6zm23 23l-4.8-13.1H141l-5.1 13.1H123l24.3-63.7h9.4l23.6 63.7h-12.9zm38.8 0v-51.6h-12.6v-10.5h37.3v10.5h-12.6v51.6h-12.1zm57.8 0v-51.6h-12.5v-10.5h37.2v10.5h-12.5v51.6H264zm159.7 1.2L390.9 291h-.2v42.2h-12.1v-63.8h8.8l32.7 43.4h.2v-41.7h12.1v63.3h-8.7zm32-63.3h12.1v62.1h-12.1v-62.1zm49.7 62.1v-51.6h-12.5v-10.5h37.2v10.5h-12.6v51.6h-12.1zm63.3 0v-28.5l-19.3-33.6h14.1l10.9 21.6 11.9-21.6h14.2l-19.6 33.6v28.5h-12.2z"/><path d="M17.2 273.7s37.8-37.1 57.7-9.6c20 27.5-4.7 70.5-4.7 70.5s10.7-66.2-25.6-66.2c-9.1-.2-17.2 1.5-27.4 5.3M85 231.8c4.7 2.8 5.7 10 2.1 15.9-3.6 6-10.3 8.5-15.1 5.7-4.7-2.8-5.7-10-2.1-15.9 3.6-6 10.4-8.6 15.1-5.7" fill="#40b3e3"/><path d="M17.8 347.9c4.7 2.8 5.7 10 2.1 15.9-3.6 6-10.3 8.5-15.1 5.7-4.7-2.8-5.7-10-2.1-15.9s10.3-8.5 15.1-5.7M56.4 289s-31.8 2.3-33.2 23.5c-.8 12.6 10 24.1 25.8 28.4 17.3 4.7 32.2-4.6 32.2-4.6s-14.9 22.2-43.6 15.2c-22.1-5.4-29.4-18.8-31.1-27.7-1.7-9.4-1.2-22.6 14.8-32 15.9-9.3 35.1-2.8 35.1-2.8" fill="#f18900"/><path fill="#fff" d="M309.4 271.1h12.1v34.8c0 7.7.7 18.5 11 18.5s11-10.8 11-18.5v-34.8h12.1v37.1c0 15.2-6.4 26.6-23.1 26.6s-23.1-11.4-23.1-26.6v-37.1z"/></svg>
