<svg id="Layer_1" data-name="Layer 1" xmlns="http://www.w3.org/2000/svg" viewBox="0 0 300 300"><defs><style>.cls-1{fill:#fff;}.cls-2{fill:#d93027;}</style></defs><g id="LKk2rT.tif"><path class="cls-1" d="M1.27,125.57a6,6,0,0,1,3.18-.38q15.9,0,31.79,0a86.25,86.25,0,0,0,11.81-.54,8.44,8.44,0,0,1,3.22.1v17.91c-2.55,1-3,.76-3.74-1.75a22.32,22.32,0,0,0-4.33-8.37A10.16,10.16,0,0,0,35.68,129c-2.85-.14-5.72-.08-8.58,0-2.07,0-2.62.59-3.17,2.64a9.78,9.78,0,0,0-.27,2.52q0,6.61,0,13.23c0,2.33.07,2.38,2.28,2.45,6.69.2,9-1.57,11.52-8.66.76-2.19.76-2.19,2.78-1.93a2.33,2.33,0,0,1,.42,1.75q0,10.2,0,20.42c0,.31,0,.62,0,.93a1.12,1.12,0,0,1-1.12,1.22c-.75,0-1.39-.12-1.6-1s-.43-1.8-.73-2.67c-1.6-4.73-4.35-6.75-9.33-6.76-4.79,0-4.16-.54-4.19,4.2,0,4.25,0,8.51,0,12.76a13.57,13.57,0,0,0,.48,3.66A4.07,4.07,0,0,0,28,177a32.29,32.29,0,0,0,7,0c3.06-.36,5.19-2.24,7-4.56,2.17-2.83,3.74-6,5.59-9.07,1.36-2.25,1.34-2.27,4.4-1.94-.63,6.78-2,13.46-3,20.52-15.95-1.17-31.85-.36-47.74-.67V178.5c1.26-.34,2.54-.64,3.78-1,4.75-1.47,5.83-2.92,5.85-7.84,0-5.26,0-10.52,0-15.79,0-5.72,0-11.44,0-17.17,0-4.51-1.14-6-5.43-7.48-1.39-.46-2.79-.86-4.19-1.3Z"/><path class="cls-1" d="M132,182H106.87c-.7-1.81-.2-2.64,1.55-3.2,3.88-1.26,4.63-2.49,4.63-6.66s0-8.51,0-12.77c0-8.07-5.58-9.65-11.48-9-1.56.18-1.79,1.45-1.78,2.8,0,5.65,0,11.29,0,16.94,0,1.39.09,2.77.21,4.16a5.07,5.07,0,0,0,3.43,4.51l.86.34c.9.39.91,1.16.82,2s-.78,1.07-1.52,1.07H83.18c-.76,0-1.39-.21-1.48-1.12s0-1.56.91-1.9a2,2,0,0,1,.21-.1c4.45-.84,5.43-3.82,5.21-7.88s0-8.35-.07-12.53-2.14-7.05-5.69-8.06a15,15,0,0,0-5.75-.14,2,2,0,0,0-1.8,2.29c0,6.73,0,13.46,0,20.18a5.94,5.94,0,0,0,4,6A1.8,1.8,0,0,1,80,181.16c-.27,1.19-1.27,1-2.07,1q-9.63,0-19.26,0c-.9,0-2,.15-2.08-1.23a1.75,1.75,0,0,1,1.4-2.07,18.86,18.86,0,0,0,2.12-.92,4.35,4.35,0,0,0,2.75-4.2c0-6.57.08-13.15,0-19.72,0-3.18-1.38-4.69-4.48-5.69-1-.33-2.17-.5-1.91-2.07.12-.71.42-1.17,1.15-1.2,5.61-.26,11.2-1,16.68-1,.74,1,.1,2.07.8,3a60,60,0,0,0,7.63-2.28c5.49-1.73,10.66-1.76,15.15,2.46.71.67,1.35.44,2.12.17,3-1,6-2,9-3a14.06,14.06,0,0,1,10,.28c3.93,1.6,5.83,4.72,5.88,8.89.07,6,0,11.91,0,17.87,0,4.86.88,6.17,5.52,7.42C132.22,179.3,132.61,180.16,132,182Z"/><path class="cls-1" d="M174.63,163.54c1.63,7.65,9.41,13.74,18.92,10.16,1.87-.7,3.77-1.29,5.66-1.94.69,1.58.45,2.5-1,3.22-3.79,1.9-7.36,4.41-11.33,5.79-9.61,3.36-21.6,1-24.2-12.5a27.75,27.75,0,0,1,0-10.82c1.33-6.51,5.05-11,11.42-13.1a28.39,28.39,0,0,1,17.51-.26c4.57,1.4,6.9,4.71,7.38,9.39.24,2.28-.11,2.76-2.37,3.41q-10.23,2.94-20.45,5.85A2.8,2.8,0,0,0,174.63,163.54Zm-.46-4.27c2.91-.72,5.59-1.36,8.27-2,4.49-1.14,4.63-1.41,3.41-5.87-.06-.22-.19-.43-.26-.65-.73-2.33-2.18-3.94-4.72-4.1a5.63,5.63,0,0,0-5.68,3.23A12.7,12.7,0,0,0,174.17,159.27Z"/><path class="cls-1" d="M237.77,172.84c.71,1.7.15,2.56-1.15,3.23-2.61,1.35-5.12,2.89-7.74,4.2-7,3.49-18.94,2.88-23.12-7.84a24.71,24.71,0,0,1-.28-18.31c2.69-7.08,8.52-10,15.62-11a30.06,30.06,0,0,1,11,.44,6.55,6.55,0,0,1,4.84,3.93,2.51,2.51,0,0,1-.67,3.29c-1.94,1.65-3.7,3.51-5.58,5.23-1.6,1.45-2.73,1.09-3.19-1a29.38,29.38,0,0,0-1.28-5.15c-.86-2-2.14-3.72-4.55-3.69s-4,1.54-4.82,3.73a17.32,17.32,0,0,0-1,6.59,25.34,25.34,0,0,0,1.65,9.28c2.84,7,8.84,9.57,16.2,8.17C235,173.68,236.34,173.23,237.77,172.84Z"/><path class="cls-1" d="M128.3,147.32a3.29,3.29,0,0,1-.14-2.5c2-.79,4.14-.77,6.17-1.17a7.93,7.93,0,0,0,4.6-2.44c2.38-2.64,4.73-5.3,7.09-8,.73-.83,1.42-1.7,2.86-1a34.75,34.75,0,0,1-.14,6.83c0,.31-.14.61-.17.91-.37,3.66-.07,4,3.6,4.07,2.62.09,5.23.34,7.86.43,1.1,0,1.77.32,1.74,1.57s-.71,1.43-1.68,1.42c-2.78,0-5.52.52-8.32.51-3,0-3.75.83-3.68,3.75.13,5.32-.38,10.65.37,16,.7,4.92,2.66,7.08,7.51,8a22.54,22.54,0,0,0,2.28.37c.74.06,1.15.37,1.19,1.12s-.07,1.31-.8,1.49c-4.38,1.06-8.39,3.59-13.12,3.17-5.32-.47-8.71-4.06-8.79-9.51-.08-6.18,0-12.37,0-18.55,0-.54,0-1.08,0-1.62-.08-3.77-.3-4-4-4.28C131.22,147.77,129.78,147.52,128.3,147.32Z"/></g><polygon class="cls-2" points="294.54 127.51 282.57 115.55 299.19 112.39 279.63 112.61 278.49 111.46 295.92 108.37 277.72 108.37 279.12 106.32 298.32 102.93 281.44 102.93 290.98 89.01 277.29 102.93 274.84 102.93 284.28 89.48 272.81 100.83 272.44 98.86 283.04 83.76 271.71 94.94 268.58 78.22 268.75 97.85 267.03 99.56 264.18 83.29 264.1 99.43 262.44 98.3 259.26 80.13 259.15 96.04 245.12 86.43 259.12 100.19 259.11 102.62 245.59 93.13 256.95 104.6 254.97 104.97 239.87 94.38 251.05 105.7 234.34 108.83 253.97 108.66 255.67 110.38 239.41 113.23 255.56 113.31 254.44 114.97 236.24 118.16 252.19 118.26 242.6 132.34 256.35 118.29 257.94 118.3 247.76 132.88 260.64 120 261.1 122.42 249.9 138.42 261.87 126.46 265.02 143.07 264.8 123.52 265.95 122.37 269.05 139.81 269.05 121.59 271.08 122.98 274.48 142.21 274.48 125.29 288.46 134.81 274.48 121.14 274.48 119.51 289 129.65 276.11 116.77 278.54 116.31 294.54 127.51"/><path class="cls-1" d="M248.84,176.83a4.27,4.27,0,1,1-4.26-4.16A4.18,4.18,0,0,1,248.84,176.83Zm-7.48,0a3.22,3.22,0,0,0,3.25,3.32,3.19,3.19,0,0,0,3.17-3.3,3.21,3.21,0,1,0-6.42,0Zm2.56,2.18h-1v-4.16a8,8,0,0,1,1.6-.13A2.54,2.54,0,0,1,246,175a1.13,1.13,0,0,1,.41.91,1.07,1.07,0,0,1-.86,1v0a1.25,1.25,0,0,1,.76,1,3.19,3.19,0,0,0,.3,1h-1a4.12,4.12,0,0,1-.33-1c-.07-.45-.33-.66-.86-.66h-.46Zm0-2.36h.46c.53,0,1-.18,1-.61s-.28-.63-.89-.63a2.07,2.07,0,0,0-.53.05Z"/></svg>