<svg version="1.1" id="Logo" xmlns="http://www.w3.org/2000/svg" x="0" y="0" viewBox="0 0 601 601" xml:space="preserve"><path fill="#ff4d00" d="M66.1 312.5l44.3 24.8 1.6-18.8-12.3-13.1-18.1-3z"/><path fill="#ff7d00" d="M73.6 226.9l36.8 110.4 36.8-36.8z"/><path fill="#001aff" d="M67.6 285.4l-1.5 27.1 56.5-12z"/><path fill="#e23400" d="M0 300.5l39.3 39.3 7.3-9.8-1.3-11.8-18.1-11.7z"/><path fill="#ff4d00" d="M69.6 230.9L0 300.5l45.3 17.7z"/><path fill="#ff7d00" d="M45.3 318.2l-6 21.6 34.3 34.3 32.2-32.2z"/><path fill="#fff" d="M196.1 321.5h-6.8v-55.7l6.8-4zM504.1 271.9h-7v-7.4h7zM226.9 278.6c-5.3-.1-10.2 2.5-13 7v-6.1h-6.7v42h6.7v-24c0-7.3 4.7-12.5 11.4-12.5s10.5 4.5 10.5 12v24.5h6.6v-26c.2-4.4-1.3-8.7-4-12.1-3-3.2-7.2-5-11.5-4.8zM296.1 278.6c-5.7 0-11.2 2.3-15 6.5-3.9 4.2-6 9.7-5.9 15.4v.2c-.4 11.6 8.7 21.4 20.4 21.8h.4c5.7.1 11.3-2.3 15.2-6.5 3.9-4.2 6.1-9.7 6.1-15.4v-.2c.4-11.7-8.8-21.4-20.5-21.8h-.7zm14 21.9v.2c0 8.8-6.1 15.4-14 15.4-8 0-14.2-6.8-14.2-15.6v-.2c0-8.8 6.1-15.5 14-15.5s14.2 6.9 14.2 15.7zM331.9 288.7v-9.2h-6.7v42h6.7v-16.8c0-11.2 5.9-18.7 15.2-18.7h.9v-7.2h-.5c-6.5-.4-12.2 3.3-15.6 9.9zM400 278.6c-5.7-.1-10.9 2.9-13.8 7.7-2.3-4.9-7.3-7.9-12.7-7.7-5 0-9.7 2.5-12.3 6.8v-5.9h-6.7v42h6.7v-23.9c0-7.3 4.4-12.5 10.5-12.5s9.7 4.4 9.7 11.8v24.7h6.7v-24.3c-.1-3.3 1-6.6 3.1-9.1 1.9-2.1 4.5-3.2 7.3-3.2 6.2 0 9.8 4.4 9.8 12v24.6h6.7v-25.9c0-10.6-5.8-17.1-15-17.1zM488.9 285.7v-6.3h-12.6v-14.6l-6.7 3.9v10.7h-7.3v6.3h7.3v24.4c0 10.5 7.2 12.1 11.5 12.1 2.5 0 5.1-.6 7.3-1.8l.2-.1V314l-.6.3c-1.7.9-3.6 1.4-5.5 1.4-4.2 0-6.2-2-6.2-6.4v-23.6h12.6zM544.8 310.1c-2.8 3.7-7.1 5.9-11.7 6.1-7.9 0-14-6.8-14-15.6v-.2c0-8.7 6.1-15.5 13.7-15.5 5.4 0 8.8 2.9 11.6 6.1l.3.4 4.5-5-.3-.3c-3.9-4.8-9.9-7.6-16.1-7.5-5.6 0-11 2.4-14.7 6.5-3.8 4.2-5.9 9.7-5.9 15.4v.2c0 5.7 2.1 11.1 5.9 15.3 3.8 4.1 9.1 6.5 14.7 6.5 6.4 0 12.5-3 16.4-8.1l.3-.3-4.3-4.3-.4.3zM440.5 278.6c-5 0-10 1.2-14.5 3.5l-.3.2 2 5.8.4-.2c3.6-1.9 7.7-2.9 11.8-3 7.2 0 11.4 3.3 11.4 11h-11.8c-11 0-17.3 4.8-17.3 13.1v.1c0 8.7 7.6 13.3 15.1 13.3 5.3.1 10.4-2.2 13.9-6.3v5.4h6.4V296c.3-4.6-1.2-9.1-4.1-12.6-2.9-3.3-7.2-4.8-13-4.8zm10.8 22.6v4.7c0 6.1-5.5 10.7-12.7 10.7-6.5 0-9.5-4-9.5-7.8v-.2c0-3.4 1.9-7.5 11.1-7.5l11.1.1zM261.4 275.5c0-6.1 1.6-8.3 6.3-8.3 1.9 0 3.8.4 5.6 1l.4.1v-6.2h-.1c-2.1-.8-4.4-1.1-6.6-1.1-3.3-.2-6.4 1-8.8 3.3-2.5 3-3.8 6.9-3.5 10.9v4.2h-7.3v6.3h7.3v35.7h6.7v-35.8H274v-6.3h-12.6v-3.8zM504 321.5h-6.8v-42.1h6.8zM571.8 278.6c-5 0-10 1.2-14.5 3.5l-.3.2 2 5.8.4-.2c3.6-1.9 7.7-2.9 11.8-3 7.2 0 11.4 3.3 11.4 11h-11.8c-11 0-17.3 4.8-17.3 13.1v.1c0 8.7 7.6 13.3 15.1 13.3 5.3.1 10.4-2.2 13.9-6.3v5.4h6.4V296c.3-4.6-1.2-9.1-4.1-12.6-2.9-3.3-7.3-4.8-13-4.8zm10.8 22.6v4.7c0 6.1-5.5 10.7-12.7 10.7-6.5 0-9.5-4-9.5-7.8v-.2c0-3.4 1.9-7.5 11.1-7.5l11.1.1zM593 280.2h-1.5v-.8h4v.8H594v4h-.9l-.1-4zM596.2 279.4h.9l1.5 2.3 1.5-2.3h.9v4.9h-.7v-3.5l-1.5 2.3-1.5-2.3v3.5h-1v-4.9h-.1z"/></svg>
