<svg id="Layer_1" data-name="Layer 1" xmlns="http://www.w3.org/2000/svg" viewBox="0 0 300 300"><g id="_1gBhvQ.tif" data-name="1gBhvQ.tif"><path d="M136.82,134.81a1.59,1.59,0,0,0-.09.81q0,9.48,0,19c0,.53-.08.73-.68.72-1.74-.05-3.48,0-5.22,0-.42,0-.55-.1-.55-.54q0-14,0-27.93c0-.46.16-.53.56-.53,2.46,0,4.92,0,7.37,0a1.2,1.2,0,0,1,1.21.67q5.75,9.45,11.54,18.88a1,1,0,0,0,.42.5v-.67c0-6.24,0-12.49,0-18.73,0-.49.1-.66.63-.65,1.76,0,3.52,0,5.28,0,.39,0,.52.09.52.5q0,14,0,28c0,.4-.12.5-.51.5q-3.72,0-7.43,0a.77.77,0,0,1-.75-.48l-12-19.49C137.07,135.18,137,135,136.82,134.81Z" style="fill:#fff"/><path d="M94.33,140.79a14.63,14.63,0,0,1,4.85-11.48,15,15,0,0,1,8.32-3.57,17.8,17.8,0,0,1,9.82,1.37,13.72,13.72,0,0,1,8,10.53,16.84,16.84,0,0,1-.53,8.48,13.33,13.33,0,0,1-8.2,8.69,17.58,17.58,0,0,1-14.51-.55c-4.4-2.17-6.77-5.88-7.57-10.66A16.45,16.45,0,0,1,94.33,140.79Zm6.64-.28c0,5.58,3.31,9.05,7.75,9.54a9,9,0,0,0,7.49-2.29c3.14-2.93,3.49-8.37,1.51-11.93-2.67-4.82-8.81-5.21-12.33-3.18A8.8,8.8,0,0,0,101,140.51Z" style="fill:#fff"/><path d="M272.59,145.72v7c0,.29,0,.55-.32.71-5.62,2.61-11.46,3.53-17.47,1.73a13.88,13.88,0,0,1-9.94-12.62,16.39,16.39,0,0,1,2-9.87,13.79,13.79,0,0,1,9.68-6.68,20.61,20.61,0,0,1,12.21,1.16,11.69,11.69,0,0,1,2.88,1.85c.34.27.27.43,0,.71-1.26,1.34-2.51,2.69-3.73,4.07-.34.39-.54.45-.93.05-3-3-9.06-3-12.15-.54a9.05,9.05,0,0,0-3.37,6.88,9.48,9.48,0,0,0,2.29,7.16,8.4,8.4,0,0,0,5.9,2.77,12.77,12.77,0,0,0,6.21-1.12.76.76,0,0,0,.55-.81c0-1.21,0-2.42,0-3.63,0-.4-.1-.52-.51-.51-1.39,0-2.78,0-4.17,0-.4,0-.52-.11-.52-.51,0-1.66,0-3.32,0-5,0-.39.11-.47.48-.47,3.46,0,6.92,0,10.38,0,.48,0,.52.19.52.57Q272.58,142.2,272.59,145.72Z" style="fill:#fff"/><path d="M242.7,155.29c-2.52,0-4.94,0-7.35,0-.35,0-.45-.2-.57-.44-1.79-3.44-3.61-6.86-5.37-10.32a1.22,1.22,0,0,0-1.39-.83,8.27,8.27,0,0,1-1.65,0c-.45,0-.54.12-.54.54,0,3.48,0,7,0,10.43,0,.47-.1.62-.6.61-1.76,0-3.52,0-5.28,0-.41,0-.55-.07-.55-.52q0-14,0-27.93c0-.35,0-.56.48-.55,3.88,0,7.77,0,11.66.06a14.72,14.72,0,0,1,4.64.78,7.55,7.55,0,0,1,5.35,7,10.41,10.41,0,0,1-.43,4A6.92,6.92,0,0,1,235.9,143c-.54.12-.48.26-.25.65,2.2,3.62,4.37,7.24,6.55,10.86ZM225.84,135c0,1,0,1.92,0,2.89,0,.24,0,.43.34.42,1.91-.05,3.81.09,5.71-.12a3.13,3.13,0,0,0,.23-6.25,40.63,40.63,0,0,0-5.94-.19c-.36,0-.34.19-.34.43C225.85,133.12,225.84,134.06,225.84,135Z" style="fill:#fff"/><path d="M193.52,140.82q0-6.94,0-13.87c0-.5.11-.66.63-.65,6.16,0,12.32,0,18.49,0,.51,0,.59.18.58.63,0,1.57,0,3.15,0,4.72,0,.48-.11.62-.6.61-4,0-8,0-12,0-.57,0-.67.16-.66.68,0,1.39,0,2.78,0,4.17,0,.44.12.54.55.54,3.78,0,7.57,0,11.36,0,.49,0,.66.1.65.63,0,1.57,0,3.15,0,4.72,0,.48-.12.61-.6.61-3.75,0-7.5,0-11.24,0-.62,0-.74.18-.72.75,0,1.49,0,3,0,4.48,0,.5.1.64.63.64,4.25,0,8.51,0,12.77,0,.51,0,.64.12.63.63,0,1.58,0,3.15,0,4.73,0,.44-.08.59-.56.58q-9.67,0-19.34,0c-.44,0-.53-.13-.53-.55Q193.53,147.79,193.52,140.82Z" style="fill:#fff"/><path d="M277.79,140.8c0-4.62,0-9.25,0-13.87,0-.52.15-.64.65-.63q9.21,0,18.42,0c.5,0,.66.11.65.63,0,1.57,0,3.15,0,4.72,0,.51-.16.6-.62.6-4,0-8,0-12,0-.56,0-.67.16-.66.68,0,1.39,0,2.78,0,4.17,0,.44.12.54.54.54,3.79,0,7.57,0,11.36,0,.55,0,.68.14.67.68,0,1.55,0,3.11,0,4.66,0,.55-.18.62-.66.62-3.74,0-7.49,0-11.24,0-.51,0-.7.09-.68.66.05,1.55,0,3.11,0,4.66,0,.44.11.54.54.54,4.29,0,8.59,0,12.89,0,.47,0,.63.09.62.59,0,1.59,0,3.19,0,4.79,0,.41-.07.55-.52.55q-9.7,0-19.41,0c-.46,0-.52-.16-.52-.56Q277.8,147.76,277.79,140.8Z" style="fill:#fff"/><path d="M47.88,150.24A12.59,12.59,0,0,0,46,148.88Q27.37,136,8.71,123.23a1,1,0,0,1-.51-.94c0-2.48,0-5,0-7.43v-.55c.28-.08.41.12.56.23l46.05,31.67q2.73,1.88,5.45,3.76c.09.07.5.06.22.38-.14-.17-.34-.11-.52-.11Z" style="fill:#fff"/><path d="M47.88,150.24H60c.18,0,.38-.06.52.11L46.1,160.27,8.87,185.87l-.54.37c-.17-.2-.11-.39-.11-.57,0-2.52,0-5,0-7.55a.89.89,0,0,1,.45-.84l38.45-26.44A3,3,0,0,0,47.88,150.24Z" style="fill:#fff"/><path d="M81.31,156c-4.58-.1-8.66-1.44-11.79-4.95A14.36,14.36,0,0,1,66,142.34a15.93,15.93,0,0,1,2.21-10,14.32,14.32,0,0,1,10.47-6.54,15.43,15.43,0,0,1,8.37.85,10.66,10.66,0,0,1,4,2.83c.22.26.3.4,0,.66-1.44,1.15-2.86,2.33-4.28,3.49-.19.17-.34.26-.56,0-2.55-3-8.76-3.06-11.8,1.22a10.54,10.54,0,0,0,.75,12.83c3.12,3.38,8.73,3.25,11.3-.34.24-.34.4-.26.66-.06,1.52,1.15,3,2.3,4.58,3.41.35.25.32.4.08.7a12.2,12.2,0,0,1-8,4.48A13.65,13.65,0,0,1,81.31,156Z" style="fill:#fff"/><path d="M175.69,142.86c.73-1.66,1.42-3.2,2.1-4.75q2.52-5.67,5-11.37c.12-.29.25-.45.61-.44,2.1,0,4.21,0,6.46,0l-14.36,29c-4.79-9.7-9.55-19.33-14.35-29h6.16c1.18,0,1.17,0,1.62,1l6.53,15Z" style="fill:#fff"/><path d="M39.36,150.34,9.91,170.61Q5.29,173.79.66,177c-.19.14-.36.35-.71.26l19.59-27,.25,0H38.91C39.06,150.24,39.24,150.19,39.36,150.34Z" style="fill:#fff"/><path d="M39.36,150.34c-.12-.15-.3-.1-.45-.1H19.79l-.25,0c-1.48-2-2.95-4.11-4.44-6.16q-7.47-10.31-15-20.59c-.08-.11-.22-.19-.14-.45L2.82,125,22,138.17q8.55,5.87,17.08,11.75c.14.09.35.14.39.35,0,0,0,0,0,0Z" style="fill:#fff"/><path d="M285.3,169.94c0-2.17,0-4.29,0-6.42,0-.5.15-.61.62-.61,1.34,0,1.34,0,1.34,1.37,0,2.8,0,5.61,0,8.41,0,.44-.11.56-.57.62a2.22,2.22,0,0,1-2.48-1.32c-1.17-2-2.53-4-3.83-6-.16.2-.09.38-.09.55,0,2,0,4.09,0,6.13,0,.46-.11.6-.58.6-1.3,0-1.3,0-1.3-1.33,0-2.82,0-5.64,0-8.47,0-.45.14-.53.58-.6a2.26,2.26,0,0,1,2.53,1.35c1.14,1.94,2.44,3.78,3.68,5.65Z" style="fill:#969696"/><path d="M116.76,165.93v3.74c0,1,0,2.09,0,3.13,0,.37-.11.49-.49.49-1.45,0-1.45,0-1.45-1.38,0-2.78,0-5.56,0-8.34,0-.51.16-.61.65-.67a2.2,2.2,0,0,1,2.44,1.29c1.16,2,2.48,3.85,3.74,5.77.21-.17.12-.37.12-.53,0-2,0-4,0-6,0-.42.11-.57.54-.57,1.34,0,1.34,0,1.34,1.3,0,2.82,0,5.64,0,8.46,0,.48-.12.59-.6.64a2.13,2.13,0,0,1-2.35-1.23c-1.06-1.86-2.3-3.62-3.47-5.42Z" style="fill:#969696"/><path d="M263.19,168.08a5.46,5.46,0,0,1,10.92.11,5.46,5.46,0,0,1-10.92-.11Zm8.88.09a3.42,3.42,0,0,0-3.36-3.73,3.38,3.38,0,0,0-3.47,3.5,3.43,3.43,0,1,0,6.83.23Z" style="fill:#969696"/><path d="M163.18,168.07a5.46,5.46,0,1,1-10.92,0,5.46,5.46,0,0,1,10.92,0Zm-2,0a3.42,3.42,0,1,0-3.37,3.66A3.41,3.41,0,0,0,161.14,168.07Z" style="fill:#969696"/><path d="M138.87,168.07a5.46,5.46,0,1,1-5.44-5.39A5.21,5.21,0,0,1,138.87,168.07Zm-2,.05a3.56,3.56,0,0,0-1-2.64,3.43,3.43,0,0,0-4.89,0,4,4,0,0,0,.19,5.48,3.3,3.3,0,0,0,3.72.49A3.34,3.34,0,0,0,136.83,168.12Z" style="fill:#969696"/><path d="M214,162.68a5.25,5.25,0,0,1,5.47,5.44,5.33,5.33,0,0,1-5.48,5.41,5.26,5.26,0,0,1-5.43-5.47A5.17,5.17,0,0,1,214,162.68Zm0,1.76a3.65,3.65,0,0,0-.11,7.29,3.65,3.65,0,0,0,.11-7.29Z" style="fill:#969696"/><path d="M176.42,170v2.08c0,.24,0,.45-.26.56-2.3,1-4.61,1.31-6.86-.07a5.38,5.38,0,0,1-2.2-5.87,5.12,5.12,0,0,1,4.44-4,5.89,5.89,0,0,1,4.52,1.09c.3.24.42.44.06.71a3,3,0,0,0-.28.33c-.21.22-.39.53-.65.62s-.47-.3-.7-.47a3.63,3.63,0,1,0-2.68,6.64,4.74,4.74,0,0,0,2.3-.17.45.45,0,0,0,.39-.51c0-.51,0-1,0-1.54,0-.33-.12-.43-.43-.41s-.45,0-.68,0c-1.06,0-1.32-.35-1.06-1.43,0-.2.15-.26.34-.26H176c.36,0,.38.22.38.49Z" style="fill:#969696"/><path d="M101.78,168.07c0-1.53,0-3.06,0-4.6,0-.42.12-.56.55-.56,1.4,0,1.4,0,1.4,1.36,0,.76,0,1.52,0,2.27,0,.35.07.52.47.51,1.17,0,2.34,0,3.5,0,.35,0,.47-.12.46-.47,0-1,0-2,0-3.06,0-.44.08-.61.57-.61,1.38,0,1.38,0,1.38,1.39,0,2.78,0,5.56,0,8.35,0,.51-.16.66-.67.65-1.29,0-1.29,0-1.29-1.28,0-.92,0-1.84,0-2.76,0-.38-.12-.49-.49-.49-1.17,0-2.34,0-3.5,0-.36,0-.45.13-.45.47,0,1.16,0,2.33,0,3.49,0,.43-.11.57-.55.57-1.4,0-1.4,0-1.4-1.36Z" style="fill:#969696"/><path d="M77.8,168.11c0-1.55,0-3.11,0-4.66,0-.39.09-.54.51-.53,1.92,0,3.84,0,5.77,0,.38,0,.53.08.53.51,0,1.26,0,1.26-1.25,1.26-1,0-2,0-3.07,0-.44,0-.57.15-.54.57a9.11,9.11,0,0,1,0,1.28c0,.46.16.55.57.54,1.16,0,2.33,0,3.5,0,.44,0,.54.13.54.55,0,1.18,0,1.18-1.19,1.18h-3c-.34,0-.48.08-.46.44,0,.61,0,1.23,0,1.84,0,.37.15.44.47.44,1.35,0,2.7,0,4.05,0,.41,0,.57.08.57.53,0,1.27,0,1.27-1.24,1.27H78.31c-.39,0-.53-.1-.52-.51C77.81,171.22,77.8,169.67,77.8,168.11Z" style="fill:#969696"/><path d="M233.32,166.66c0-1.07,0-2.13,0-3.2,0-.37.07-.54.5-.55,1.39,0,1.39,0,1.39,1.37s0,3.07,0,4.61a7.16,7.16,0,0,0,.09,1,2,2,0,0,0,2.28,1.81,2,2,0,0,0,1.91-2c.06-1.47,0-2.95,0-4.42v-1.9c0-.18,0-.43.21-.45.51,0,1,0,1.53,0,.24,0,.18.24.18.39,0,2.15.05,4.3,0,6.44a4.06,4.06,0,0,1-8.1-.11C233.3,168.66,233.32,167.66,233.32,166.66Z" style="fill:#969696"/><path d="M93.87,171.75a3,3,0,0,0,2.47-1.09s0,0,0,0c.75-.41,1,.45,1.49.63s.1.39,0,.56a5.41,5.41,0,1,1-7.76-7.53A5.41,5.41,0,0,1,96,163a3.7,3.7,0,0,1,1.76,1.18c.16.21.22.38,0,.55a2.31,2.31,0,0,0-.39.31c-.48.44-.81.64-1.45,0a3.06,3.06,0,0,0-4.21.38,3.79,3.79,0,0,0-.83,3.83,3.1,3.1,0,0,0,2.47,2.37C93.49,171.71,93.73,171.73,93.87,171.75Z" style="fill:#969696"/><path d="M201.49,162.66a4.25,4.25,0,0,1,2.89,1.13c.22.23.27.39,0,.59a2.89,2.89,0,0,0-.32.29c-.23.22-.44.56-.72.64s-.41-.37-.66-.53a2.12,2.12,0,0,0-2.37-.08,1.11,1.11,0,0,0,.06,2,6.39,6.39,0,0,0,1,.41c.37.14.74.24,1.1.38a2.86,2.86,0,0,1,2.16,2.92,3,3,0,0,1-2.45,3,4.47,4.47,0,0,1-4.51-1.18c-.25-.26-.32-.46,0-.68a3.11,3.11,0,0,0,.28-.23c.26-.21.48-.51.77-.6s.45.38.69.57a2.35,2.35,0,0,0,2.37.39,1.18,1.18,0,0,0,.84-1.09,1.14,1.14,0,0,0-.72-1.23c-.75-.31-1.53-.55-2.29-.87a2.76,2.76,0,0,1-1.7-3.54,2.83,2.83,0,0,1,1.9-1.93A5.58,5.58,0,0,1,201.49,162.66Z" style="fill:#969696"/><path d="M295.32,162.66a4.27,4.27,0,0,1,2.92,1.14c.19.19.26.34,0,.54s-.26.26-.39.39c-.62.62-.61.61-1.28.1a2.06,2.06,0,0,0-2.14-.29,1.16,1.16,0,0,0-.81,1.05,1,1,0,0,0,.69,1.12c.64.27,1.3.48,1.95.72a2.89,2.89,0,0,1,2.18,3.43,3.18,3.18,0,0,1-2.94,2.6,4.47,4.47,0,0,1-4-1.31c-.25-.26-.31-.46,0-.67a3.22,3.22,0,0,0,.28-.24c.26-.2.48-.5.77-.59s.45.38.69.57a2.33,2.33,0,0,0,2.37.39,1.19,1.19,0,0,0,.84-1.09,1.11,1.11,0,0,0-.72-1.23c-.77-.32-1.58-.55-2.35-.89a2.87,2.87,0,0,1-.65-5A4.39,4.39,0,0,1,295.32,162.66Z" style="fill:#969696"/><path d="M188.77,162.92c-.83,1.26-1.5,2.48-2.36,3.55a6.4,6.4,0,0,0-1.52,5.1,11.09,11.09,0,0,1,0,1.29c0,.31-.12.41-.43.43-1.52.1-1.63.09-1.49-1.42a7.21,7.21,0,0,0-1.69-5.54c-.75-.91-1.31-2-2-3-.23-.34-.19-.44.23-.46,1.77-.09,1.77-.1,2.69,1.4q.69,1.1,1.35,2.19c.35.57.36.57.72,0,.66-1.06,1.32-2.12,1.95-3.19a.69.69,0,0,1,.7-.39C187.52,162.94,188.08,162.92,188.77,162.92Z" style="fill:#969696"/><path d="M69,169c0-1.19,0-2.38,0-3.56,0-.62-.19-.77-.76-.73s-1.31,0-2,0c-.28,0-.39-.07-.41-.37-.1-1.4-.11-1.4,1.29-1.4,2.11,0,4.21,0,6.32,0,.46,0,.64.1.63.61,0,1.17,0,1.17-1.15,1.17-.52,0-1,0-1.54,0s-.51.14-.51.53c0,2.47,0,4.94,0,7.42,0,.55-.15.69-.68.67-1.26,0-1.26,0-1.26-1.27Z" style="fill:#969696"/><path d="M250.16,169c0,1.27,0,2.54,0,3.8,0,.34-.09.46-.45.48-1.49,0-1.49.06-1.49-1.45,0-2.16,0-4.33,0-6.5,0-.57-.17-.7-.69-.67-.68,0-1.35,0-2,0-.28,0-.38-.09-.41-.38-.09-1.39-.1-1.39,1.25-1.39,2.11,0,4.22,0,6.33,0,.45,0,.6.12.59.58,0,1.2,0,1.2-1.19,1.2-.48,0-1,0-1.42,0s-.52.14-.51.53C250.17,166.48,250.16,167.75,250.16,169Z" style="fill:#969696"/><path d="M223.67,168.1c0-1.53,0-3.06,0-4.6,0-.45.14-.59.59-.59,1.35,0,1.35,0,1.35,1.34,0,2.21,0,4.42,0,6.62,0,.53.15.65.65.64,1.08,0,2.17,0,3.25,0,.36,0,.51.09.5.48,0,1.61.2,1.29-1.26,1.31s-3,0-4.48,0c-.46,0-.6-.14-.59-.6C223.69,171.17,223.67,169.64,223.67,168.1Z" style="fill:#969696"/><path d="M143.17,168c0-1.53,0-3.06,0-4.6,0-.39.1-.52.51-.53,1.43,0,1.43,0,1.43,1.41,0,2.19,0,4.37,0,6.56,0,.47.1.65.6.63,1.06,0,2.13,0,3.19,0,.41,0,.57.08.57.53,0,1.27,0,1.27-1.24,1.27-1.5,0-3,0-4.48,0-.48,0-.58-.15-.57-.6C143.18,171.15,143.17,169.6,143.17,168Z" style="fill:#969696"/><path d="M258.89,168.1c0,1.53,0,3.07,0,4.6,0,.43-.07.61-.56.6-1.38,0-1.38,0-1.38-1.39,0-2.78,0-5.56,0-8.34,0-.5.13-.67.65-.66,1.29,0,1.29,0,1.29,1.27Z" style="fill:#969696"/></g></svg>