<svg xmlns="http://www.w3.org/2000/svg" id="Layer_1" x="0" y="0" version="1.1" viewBox="0 0 300 114.4" xml:space="preserve"><style>.st0{fill:#53b052}.st2{fill:#90cb83}.st3{fill:#509049}.st4{fill:#fff}</style><g id="SCALEMATRIX"><path d="M126.9 28.1L127.9 28.9 128 28.8 131.8 26 130.8 25.2 130.8 25.2 122.9 19.4 122.9 25.2 122.9 25.2z" class="st0"/><path fill="#017d4a" d="M114.1 37.6L114.1 37.6 114.1 37.6z"/><path d="M147.4 24.5L131.7 12.9 131.7 12.9 131.7 24.5 139.5 30.3 139.5 30.3 141.6 31.8 141.7 31.7 149.4 26zM149.3 0L149.3 23 169 37.5 184.6 26z" class="st0"/><path d="M169 37.5L149.3 52.1 149.3 75.1 184.6 49.1zM141.6 31.8L141.6 31.8 131.8 39 131.7 39.1 131.7 39.1 139.6 44.8 149.4 37.6zM122.9 25.2L122.9 19.4 130.8 25.2 130.8 25.2 131.8 24.5 131.7 24.5 131.7 13 114.1 26 114.1 26 114.1 26 114.1 26 114.1 26 118 28.9 118 28.9 122.9 25.2zM127.9 28.9L123.1 32.5 123.1 32.4 123 32.5 122.9 32.5 122.9 32.5 126.8 35.4 126.9 35.4 131.8 31.8zM149.3 23L149.3 0 131.7 12.9 147.4 24.5z" class="st2"/><path d="M141.6 31.8L141.6 31.8 149.4 37.6 149.4 26 141.7 31.7zM169 37.5L184.6 49.1 184.6 26zM149.3 52.1L149.3 75.1 114.1 49.1 114.1 26zM128 28.8L127.9 28.9 131.8 31.8 131.8 26 128 28.8z" class="st3"/><path d="M0 110.4l3.4-4.9c2.1 2.1 5 3.3 8 3.3 2.2 0 3.6-.9 3.6-2.1 0-3.4-14.2-.7-14.2-10.4 0-4.2 3.6-8 10-8 4 0 7.5 1.2 10.2 3.5l-3.5 4.6c-2.1-1.7-4.7-2.6-7.3-2.6-1.9 0-2.7.8-2.7 1.8 0 3.2 14.2.9 14.2 10.2 0 5-3.7 8.4-10.5 8.4C6.1 114.4 2.5 112.8 0 110.4M27.5 101.4c0-7.8 5.9-13 13.6-13 6.1 0 9.3 3.4 11 6.7l-5.6 2.6c-.9-2.2-3-3.6-5.4-3.6-4.1 0-7 3.2-7 7.3s2.9 7.3 7 7.3c2.4-.1 4.5-1.5 5.4-3.7l5.6 2.6c-1.6 3.2-4.9 6.7-11 6.7C33.4 114.4 27.5 109.1 27.5 101.4M77.5 113.9l-1.2-3.6h-9.9l-1.2 3.6h-7.4l9.5-25.1h8.1l9.5 25.1H77.5zM71.3 95.2l-3.2 9.5h6.4L71.3 95.2zM92.5 113.9L92.5 88.8 99 88.8 99 108.3 109.1 108.3 109.1 113.9zM117.5 113.9L117.5 88.8 135.9 88.8 135.9 94.5 123.9 94.5 123.9 98.4 135.6 98.4 135.6 104 123.9 104 123.9 108.3 135.9 108.3 135.9 113.9zM170.5 113.9L170.5 93.2 162 113.9 160.7 113.9 152.2 93.2 152.2 113.9 149.1 113.9 149.1 88.8 153.5 88.8 161.3 107.7 169.2 88.8 173.6 88.8 173.6 113.9zM202.2 113.9l-2.2-5.6h-12.5l-2.2 5.6h-3.6l10.1-25.1h3.9l10.1 25.1H202.2zM193.7 92l-5.3 13.5H199L193.7 92zM217.2 113.9L217.2 91.6 209.3 91.6 209.3 88.8 228.3 88.8 228.3 91.6 220.3 91.6 220.3 113.9zM250.8 113.9l-6.4-10h-5v10h-3.1V88.8h10.1c4.6 0 7.9 2.9 7.9 7.6 0 4.5-3.1 7-6.5 7.3l6.8 10.2L250.8 113.9zM251 96.4c0-2.8-2-4.8-5-4.8h-6.6v9.6h6.6C249 101.2 251 99.2 251 96.4M264.3 88.8H267.40000000000003V113.9H264.3zM296.2 113.9L288.2 103.2 280.2 113.9 276.4 113.9 286.2 101 277 88.8 280.8 88.8 288.2 98.9 295.6 88.8 299.4 88.8 290.2 101 300 113.9z" class="st4"/></g></svg>