<svg xmlns="http://www.w3.org/2000/svg" viewBox="0 0 601 601"><path d="M-.5 180.4h117v16.5H-.5v-16.5zm259.5 0h4.3l4.1.7 4.1.8 4.2.9 4.2 1.4 3.8 1.5 3.8 1.8 3.9 2 3.5 2.4 3.4 2.4 2.6 2.5H133.3v-16.5H259v.1zm74.8 0H429l5.8 16.5h-101v-16.5zm172.5 0h94.2v16.5h-100l5.8-16.5zm-506.8 32h117v16.2H-.5v-16.2zm33.4 31.8h50v16.6h-50v-16.6zm0 31.9h50v16.6h-50v-16.6zm279.8-63.7l.9 1.5 1.8 3.9 1.5 4.3 2 6.5H133.3v-16.2h179.4zm-146 31.8h50v16.6h-50v-16.6zm153.8 0l-.1 2.6-.5 4.3-.7 4.2-1 4.1-.5 1.4H267v-16.6h53.5zm-9.8 31.9l-1.5 2.3-2.6 3.4-2.7 3.2-2.9 3-3.2 2.8-2.8 1.8H166.7V276h144v.1zm23.1-63.7h106.3l5.8 16.2H333.8v-16.2zm266.7 0v16.2H489.4l5.6-16.2h105.5zm-233.2 31.8h83.9l5.8 16.6h-89.7v-16.6zm200.6 0v16.6h-89.8l5.7-16.6h84.1zm-145.2 48.5h90l5.1-14.8v14.8h50.1v-16.6h-95.1l-5.2 14.8-5.2-14.8h-95.1v16.6h50.1v-14.9l5.3 14.9zM-.5 403.9h117v16.7H-.5v-16.7zm0-32.1h117v16.7H-.5v-16.7zm33.4-63.7h50v16.4h-50v-16.4zm0 31.9h50v16.6h-50V340zm262-31.9l2.8 2 3.2 2.7 2.9 3.1 2.7 3.2 2.6 3.4 1.5 2h-144v-16.4h128.3zM166.7 340h50v16.6h-50V340zm151.1 0l.5 1.6 1 4.1.7 4.1.5 4.3.1 2.5H267V340h50.8zm1.2 31.8l-.7 3.4-1.2 4-1.5 4-1.8 3.9-.9 1.5H133.3v-16.7H319v-.1zm-18.1 32.1l-3.2 2.7-3.4 2.6-3.5 2.3-3.8 2-3.9 1.8-3.8 1.5-4.2 1.4-4.2.9-4 .8-4.3.5-4.3.2h-125v-16.7h167.6zm66.4-95.8h50.1v16.4h-50.1v-16.4zm134.2 16.5h-68l-5.7-16.4h79.4l-5.7 16.4zm16.3-16.5h50.1v16.4h-50.1v-16.4zM367.3 340h50.1v16.6h-50.1V340zm129.2 0l-5.7 16.6h-46.3l-5.7-16.6h57.7zm21.3 0h50.1v16.6h-50.1V340zm-184 31.8h83.6v16.7h-83.6v-16.7zm151.7 0l-5.7 16.7h-24.5l-5.7-16.7h35.9zm32.3 0h82.7v16.7h-82.7v-16.7zm-184 32.1h83.6v16.7h-83.6v-16.7zm184 0h82.7v16.7h-82.7v-16.7zm-49 16.7l5.7-16.7h-13.8l5.7 16.7h2.4z" fill="#4181c2"/></svg>
