<svg viewBox="0 0 300 300" xmlns="http://www.w3.org/2000/svg" fill-rule="evenodd" clip-rule="evenodd" stroke-linejoin="round" stroke-miterlimit="2"><g transform="translate(0 37.615) scale(1.06229)"><path d="M147.22 35.54h-.09v27.63h.09c11.893 0 21.68 9.787 21.68 21.68 0 11.893-9.787 21.68-21.68 21.68h-.09v27.62h.09c27.045 0 49.3-22.255 49.3-49.3 0-27.045-22.255-49.3-49.3-49.3v-.01z" fill="#fff" fill-rule="nonzero"/><path d="M135.18 98.6h.09V71h-.09c-11.893 0-21.68-9.787-21.68-21.68 0-11.893 9.787-21.68 21.68-21.68h.09V0h-.09c-27.045 0-49.3 22.255-49.3 49.3 0 27.045 22.255 49.3 49.3 49.3z" fill="#ffcb05" fill-rule="nonzero"/><path d="M43.47 168.44h10.89v42.88H43.47v-42.88zm81.06-.28c12.34 0 20.74 9.26 20.74 22.8v2.4H114.5c.69 5.23 4.89 9.6 11.92 9.6 3.85 0 8.4-1.54 11-4.11l4.8 7c-4.11 3.77-10.63 5.74-17.05 5.74-12.61 0-22.12-8.49-22.12-21.77.05-11.97 8.88-21.66 21.48-21.66zM114.33 186h20.4c-.26-3.94-3-9.17-10.2-9.17-6.77-.01-9.69 5.05-10.2 9.17zm66.2-.44c0-5.74-3-7.71-7.63-7.71a11.808 11.808 0 00-9.43 4.88v28.66h-10.89v-43h10.89v6.18a19.01 19.01 0 0114.53-6.41c9.08 0 13.45 5.14 13.45 13.2v30h-10.92v-25.8zm81.13-17.4c12.34 0 20.74 9.26 20.74 22.8v2.4h-30.77c.68 5.23 4.88 9.6 11.91 9.6 4.059 0 7.986-1.46 11.06-4.11l4.8 7c-4.11 3.77-10.63 5.74-17.06 5.74-12.6 0-22.11-8.49-22.11-21.77 0-11.97 8.83-21.66 21.43-21.66zM251.46 186h20.4c-.26-3.94-3-9.17-10.2-9.17-6.78-.01-9.66 5.05-10.2 9.17zM4.47 199.28c2.12 1.13 8.17 3.72 13.31 3.72 4.16 0 6.45-1.14 6.45-3.72 0-2.91-2.73-4.18-7.45-5.13C9.67 192.78 0 190.34 0 180.48c0-6.94 4.69-12.15 17.79-12.15a31.472 31.472 0 0116.49 4.73l-4.39 7.39a21.325 21.325 0 00-12.08-3.86c-4.18 0-6.5 1.46-6.49 3.86 0 2.66 2.38 3.59 6.45 4.19 7.16 1.07 17.77 4.37 17.77 14.66 0 7.54-6.28 12.11-17.77 12.11-7.2 0-14.29-2.17-17.78-4.5l4.48-7.63zm61.53 0c2.12 1.13 8.17 3.72 13.31 3.72 4.16 0 6.45-1.14 6.45-3.72 0-2.91-2.74-4.18-7.45-5.12-7.11-1.38-16.77-3.82-16.77-13.68 0-6.94 4.69-12.15 17.79-12.15a31.472 31.472 0 0116.49 4.73l-4.4 7.39a21.251 21.251 0 00-12.07-3.86c-4.18 0-6.5 1.46-6.49 3.86 0 2.66 2.38 3.59 6.44 4.19 7.17 1.07 17.78 4.37 17.78 14.66 0 7.54-6.28 12.11-17.77 12.11-7.2 0-14.29-2.17-17.78-4.5l4.47-7.63zm137.16 0c2.12 1.13 8.17 3.72 13.31 3.72 4.15 0 6.45-1.14 6.45-3.72 0-2.91-2.74-4.18-7.45-5.12-7.12-1.38-16.77-3.82-16.77-13.68 0-6.94 4.69-12.15 17.79-12.15a31.412 31.412 0 0116.51 4.74l-4.4 7.38a21.313 21.313 0 00-12.07-3.85c-4.18 0-6.5 1.45-6.49 3.85 0 2.66 2.38 3.59 6.44 4.19 7.17 1.07 17.78 4.38 17.78 14.66 0 7.54-6.28 12.11-17.77 12.11-7.2 0-14.29-2.17-17.78-4.5l4.45-7.63z" fill="#fff" fill-rule="nonzero"/><circle cx="48.91" cy="157.45" r="5.44" fill="#ffcb05"/></g></svg>