<svg xmlns="http://www.w3.org/2000/svg" id="Layer_1" x="0" y="0" version="1.1" viewBox="0 0 300 300" xml:space="preserve"><style>.st0{fill:#53b052}.st2{fill:#90cb83}.st3{fill:#509049}.st4{fill:#fff}</style><g id="SCALEMATRIX"><path d="M126.9 116.8L127.9 117.6 128 117.5 131.8 114.7 130.8 113.9 130.8 113.9 122.9 108.1 122.9 113.9 122.9 113.9z" class="st0"/><path fill="#017d4a" d="M114.1 126.2L114.1 126.2 114.1 126.2z"/><path d="M147.4 113.2L131.7 101.6 131.7 101.6 131.7 113.2 139.5 118.9 139.5 118.9 141.6 120.5 141.7 120.4 149.4 114.7zM149.3 88.7L149.3 111.7 169 126.2 184.6 114.7z" class="st0"/><path d="M169 126.2L149.3 140.7 149.3 163.8 184.6 137.7zM141.6 120.5L141.6 120.5 131.8 127.7 131.7 127.7 131.7 127.7 139.6 133.5 149.4 126.2zM122.9 113.9L122.9 108.1 130.8 113.9 130.8 113.9 131.8 113.2 131.7 113.2 131.7 101.6 114.1 114.7 114.1 114.7 114.1 114.7 114.1 114.7 114.1 114.7 118 117.6 118 117.6 122.9 113.9zM127.9 117.6L123.1 121.1 123.1 121.1 123 121.2 122.9 121.2 122.9 121.2 126.8 124.1 126.9 124.1 131.8 120.5zM149.3 111.7L149.3 88.7 131.7 101.6 147.4 113.2z" class="st2"/><path d="M141.6 120.5L141.6 120.5 149.4 126.2 149.4 114.7 141.7 120.4zM169 126.2L184.6 137.7 184.6 114.7zM149.3 140.7L149.3 163.8 114.1 137.7 114.1 114.7zM128 117.5L127.9 117.6 131.8 120.5 131.8 114.7 128 117.5z" class="st3"/><path d="M0 199.1l3.4-4.9c2.1 2.1 5 3.3 8 3.3 2.2 0 3.6-.9 3.6-2.1 0-3.4-14.2-.7-14.2-10.4 0-4.2 3.6-8 10-8 4 0 7.5 1.2 10.2 3.5l-3.5 4.6c-2.1-1.7-4.7-2.6-7.3-2.6-1.9 0-2.7.8-2.7 1.8 0 3.2 14.2.9 14.2 10.2 0 5-3.7 8.4-10.5 8.4C6.1 203.1 2.5 201.5 0 199.1M27.5 190.1c0-7.8 5.9-13 13.6-13 6.1 0 9.3 3.4 11 6.7l-5.6 2.6c-.9-2.2-3-3.6-5.4-3.6-4.1 0-7 3.2-7 7.3s2.9 7.3 7 7.3c2.4-.1 4.5-1.5 5.4-3.7l5.6 2.6c-1.6 3.2-4.9 6.7-11 6.7C33.4 203 27.5 197.8 27.5 190.1M77.5 202.6l-1.2-3.6h-9.9l-1.2 3.6h-7.4l9.5-25.1h8.1l9.5 25.1H77.5zM71.3 183.9l-3.2 9.5h6.4L71.3 183.9zM92.5 202.6L92.5 177.5 99 177.5 99 197 109.1 197 109.1 202.6zM117.5 202.6L117.5 177.5 135.9 177.5 135.9 183.1 123.9 183.1 123.9 187.1 135.6 187.1 135.6 192.7 123.9 192.7 123.9 197 135.9 197 135.9 202.6zM170.5 202.6L170.5 181.9 162 202.6 160.7 202.6 152.2 181.9 152.2 202.6 149.1 202.6 149.1 177.5 153.5 177.5 161.3 196.4 169.2 177.5 173.6 177.5 173.6 202.6zM202.2 202.6l-2.2-5.6h-12.5l-2.2 5.6h-3.6l10.1-25.1h3.9l10.1 25.1H202.2zM193.7 180.7l-5.3 13.5H199L193.7 180.7zM217.2 202.6L217.2 180.3 209.3 180.3 209.3 177.5 228.3 177.5 228.3 180.3 220.3 180.3 220.3 202.6zM250.8 202.6l-6.4-10h-5v10h-3.1v-25.1h10.1c4.6 0 7.9 2.9 7.9 7.6 0 4.5-3.1 7-6.5 7.3l6.8 10.2H250.8zM251 185.1c0-2.8-2-4.8-5-4.8h-6.6v9.6h6.6C249 189.9 251 187.9 251 185.1M264.3 177.5H267.40000000000003V202.6H264.3zM296.2 202.6L288.2 191.9 280.2 202.6 276.4 202.6 286.2 189.7 277 177.5 280.8 177.5 288.2 187.5 295.6 177.5 299.4 177.5 290.2 189.7 300 202.6z" class="st4"/></g></svg>