<svg xmlns="http://www.w3.org/2000/svg" viewBox="0 0 500 500"><defs><style>.cls-1{fill:#fff;}.cls-2{fill:#f36d24;}.cls-3{fill:#f05123;}</style></defs><g id="Layer_2" data-name="Layer 2"><circle class="cls-1" cx="247.51" cy="217.22" r="50.8"/><path class="cls-2" d="M274.81,207a2.43,2.43,0,0,0-2.4,2.4,2.35,2.35,0,0,0,2.4,2.3,2.26,2.26,0,0,0,2.3-2.3A2.35,2.35,0,0,0,274.81,207Z"/><path class="cls-3" d="M250.31,147.82a68.6,68.6,0,1,0,68.6,68.6A68.58,68.58,0,0,0,250.31,147.82Zm-24.6,64.3c.6,1,1.4,1.4,5.9,3.6s6,3.9,6,7c0,4.3-3.4,7-8.9,7a14.8,14.8,0,0,1-4.9-.8,16.38,16.38,0,0,1-3.4-1.8l-.3-.2,2-3.8.3.2a13.56,13.56,0,0,0,3,1.8,10,10,0,0,0,3.8.8c2.5,0,4.1-1.1,4.1-2.8,0-1.4-.7-2.4-2.5-3.2l-4.3-2.1c-3.7-1.8-5.4-3.8-5.4-6.5,0-4.1,3.5-6.7,8.9-6.7a15.81,15.81,0,0,1,4.5.6,13.51,13.51,0,0,1,3.2,1.4l.3.1-1.6,3.7-.3-.2a9.65,9.65,0,0,0-2.9-1.4,12.48,12.48,0,0,0-3.2-.5c-2.8,0-4.5,1-4.5,2.6A2.87,2.87,0,0,0,225.71,212.12Zm24,17.1h-4.4v-24.1h4.4Zm23.6,0-6.3-8.6-6.3,8.6h-5.5l9.1-12.4-8.6-11.8h5.5l17.6,24.2Zm1.5-14.1a5.75,5.75,0,1,1,0-11.5,5.72,5.72,0,0,1,5.7,5.8A5.63,5.63,0,0,1,274.81,215.12Z"/><path class="cls-1" d="M43.91,339.42a5.47,5.47,0,0,0-1.9-.9,8.81,8.81,0,0,0-2.1-.3c-1.9,0-3.1.7-3.1,1.9a1.88,1.88,0,0,0,.2.8c.4.7,1,1,3.9,2.4s3.8,2.5,3.8,4.3c0,2.7-2.1,4.3-5.5,4.3a10.07,10.07,0,0,1-3.1-.5c-.6-.3-1.1-.5-2.2-1.1l1.1-2.1a7.88,7.88,0,0,0,2,1.2,7.42,7.42,0,0,0,2.5.5c1.8,0,2.8-.8,2.8-2a2.47,2.47,0,0,0-1.7-2.3l-2.8-1.3c-2.3-1.1-3.4-2.4-3.4-4,0-2.5,2.2-4.1,5.5-4.1a9,9,0,0,1,4.8,1.3Z"/><path class="cls-1" d="M54.91,351.62v-15.2h2.4v15.2Z"/><path class="cls-1" d="M77.71,351.62l-4.4-5.8-4.2,5.8h-2.8l5.6-7.8-5.3-7.4h2.9l4,5.4,4-5.4h2.8l-5.6,7.4,5.8,7.8Z"/><path class="cls-1" d="M113.81,349.52c-1.4,1.4-3.3,2.1-6.3,2.1h-5.6v-15.2h5.6c2.9,0,4.9.7,6.3,2.1A9,9,0,0,1,116,344,8.34,8.34,0,0,1,113.81,349.52Zm-2.4-10.1c-1-.8-1.9-1.1-4.1-1.1h-3v11.2h2.8c2.2,0,3.2-.3,4.3-1.1a6.11,6.11,0,0,0,2-4.5A5.46,5.46,0,0,0,111.41,339.42Z"/><path class="cls-1" d="M125.81,351.62v-15.2h9.4v2h-7v4.4H134v2h-5.8v4.8h7.2v2Z"/><path class="cls-1" d="M157.11,351.32a23.16,23.16,0,0,1-4.5.6c-5.2,0-9.1-3.4-9.1-8s3.8-7.8,8.9-7.8a17.75,17.75,0,0,1,3.5.4,11.82,11.82,0,0,1,2.3.9l-1,2a6.4,6.4,0,0,0-1.1-.6,11,11,0,0,0-3.6-.7c-3.7,0-6.4,2.5-6.4,5.7,0,3.5,3,6.1,6.9,6.1a21.59,21.59,0,0,0,2.9-.3v-4.8h2.4V351C157.91,351.12,157.41,351.22,157.11,351.32Z"/><path class="cls-1" d="M178.41,351.62l-4-6.2h-2.2v6.2h-2.4v-15.2h5.1c3.7,0,5.7,1.5,5.7,4.3a4.29,4.29,0,0,1-3.6,4.5l4.2,6.4Zm-1.4-12.8c-.5-.4-.7-.4-2.5-.4h-2.4v5h2.4c1.6,0,1.9-.1,2.5-.6a2.24,2.24,0,0,0,.8-1.9A1.92,1.92,0,0,0,177,338.82Z"/><path class="cls-1" d="M190.61,351.62v-15.2H200v2h-7v4.4h5.8v2H193v4.8h7.2v2Z"/><path class="cls-1" d="M210.21,351.62v-15.2h9.4v2h-7v4.4h5.8v2h-5.8v4.8h7.2v2Z"/><path class="cls-1" d="M238.11,339.42a5.47,5.47,0,0,0-1.9-.9,8.81,8.81,0,0,0-2.1-.3c-1.9,0-3.1.7-3.1,1.9a1.88,1.88,0,0,0,.2.8c.4.7,1,1,3.9,2.4s3.8,2.5,3.8,4.3c0,2.7-2.1,4.3-5.5,4.3a10.07,10.07,0,0,1-3.1-.5c-.6-.3-1.1-.5-2.2-1.1l1.1-2.1a7.88,7.88,0,0,0,2,1.2,7.42,7.42,0,0,0,2.5.5c1.8,0,2.8-.8,2.8-2a2.47,2.47,0,0,0-1.7-2.3l-2.8-1.3c-2.3-1.1-3.4-2.4-3.4-4,0-2.5,2.2-4.1,5.5-4.1a9,9,0,0,1,4.8,1.3Z"/><path class="cls-3" d="M272.31,339.42a6.51,6.51,0,0,0-1.5-.9,9.35,9.35,0,0,0-2.5-.4,5.49,5.49,0,0,0-5.8,5.7,6.34,6.34,0,0,0,1.8,4.5c1.1,1.1,2.5,1.6,4.8,1.6a6.81,6.81,0,0,0,3.4-.8l.7,1.8a11.6,11.6,0,0,1-4.6,1c-5.1,0-8.7-3.3-8.7-8,0-4.5,3.6-7.8,8.4-7.8a8.68,8.68,0,0,1,5.1,1.5Z"/><path class="cls-3" d="M289.31,351.92c-4.9,0-8.4-3.3-8.4-7.9s3.5-7.9,8.4-7.9,8.4,3.3,8.4,7.9S294.11,351.92,289.31,351.92Zm0-13.8a5.9,5.9,0,1,0,5.9,5.9A5.85,5.85,0,0,0,289.31,338.12Z"/><path class="cls-3" d="M319.41,351.82l-8.6-11a4.21,4.21,0,0,1-.8-1.4v12.2h-2.2v-15.2h2.4l8.6,10.8a3,3,0,0,1,.6,1.4v-12.2h2.2v15.4Z"/><path class="cls-3" d="M341.71,339.42a5.47,5.47,0,0,0-1.9-.9,8.81,8.81,0,0,0-2.1-.3c-1.9,0-3.1.7-3.1,1.9a1.88,1.88,0,0,0,.2.8c.4.7,1,1,3.9,2.4s3.8,2.5,3.8,4.3c0,2.7-2.1,4.3-5.5,4.3a10.07,10.07,0,0,1-3.1-.5c-.6-.3-1.1-.5-2.2-1.1l1.1-2.1a7.88,7.88,0,0,0,2,1.2,7.42,7.42,0,0,0,2.5.5c1.8,0,2.8-.8,2.8-2a2.47,2.47,0,0,0-1.7-2.3l-2.8-1.3c-2.3-1.1-3.4-2.4-3.4-4,0-2.5,2.2-4.1,5.5-4.1a9,9,0,0,1,4.8,1.3Z"/><path class="cls-3" d="M363.11,350.92a8.86,8.86,0,0,1-4.3,1.1,11,11,0,0,1-4.4-1.1c-1.6-1-2.2-2.5-2.2-5.5v-9h2.4v9.4q0,4.2,4.2,4.2t4.2-4.2v-9.4h2.4v9C365.31,348.42,364.71,349.92,363.11,350.92Z"/><path class="cls-3" d="M376.71,351.62v-15.2h2.4v13.2h7.2v2Z"/><path class="cls-3" d="M399.71,338.32v13.2h-2.4v-13.2h-5.4v-2h13.2v2Z"/><path class="cls-3" d="M413.81,351.62v-15.2h2.4v15.2Z"/><path class="cls-3" d="M439.81,351.82l-8.6-11a4.21,4.21,0,0,1-.8-1.4v12.2h-2.2v-15.2h2.4l8.6,10.8a3,3,0,0,1,.6,1.4v-12.2H442v15.4Z"/><path class="cls-3" d="M465.61,351.32a23.16,23.16,0,0,1-4.5.6c-5.2,0-9.1-3.4-9.1-8s3.8-7.8,8.9-7.8a17.75,17.75,0,0,1,3.5.4,11.82,11.82,0,0,1,2.3.9l-1,2a6.4,6.4,0,0,0-1.1-.6,11,11,0,0,0-3.6-.7c-3.7,0-6.4,2.5-6.4,5.7,0,3.5,3,6.1,6.9,6.1a21.59,21.59,0,0,0,2.9-.3v-4.8h2.4V351A10.38,10.38,0,0,0,465.61,351.32Z"/></g></svg>