<svg id="f072f34b-ee21-44c5-970f-616e6f7cce0d" data-name="Layer 1" xmlns="http://www.w3.org/2000/svg" viewBox="0 0 300 300"><path d="M93.57,100.43c-1.88-.51-3.76-1.06-5.65-1.53a61.52,61.52,0,0,0-18.37-2,49.58,49.58,0,0,0-29,11.07,58.35,58.35,0,0,0-13.91,15.51,48.44,48.44,0,0,0-6.72,20,58.6,58.6,0,0,0,2.56,24.74,48.24,48.24,0,0,0,11.37,18.91A57.39,57.39,0,0,0,56,201.53a49.28,49.28,0,0,0,14.73,2.8,60.9,60.9,0,0,0,20.37-2.84l1.51-.43s.07.05.21.16c-.88.6-1.69,1.22-2.56,1.76a53,53,0,0,1-18.94,7.19,58.71,58.71,0,0,1-13.75.88,60.64,60.64,0,0,1-53.64-39,61.33,61.33,0,0,1-1-40.34A59.16,59.16,0,0,1,18.49,107,60.4,60.4,0,0,1,76.25,92.1a52.56,52.56,0,0,1,17.16,8,1.26,1.26,0,0,1,.22.24Z" style="fill:#1076bc"/><path d="M89.2,131.52c-2.22,1.33-4.09,3.28-7,3.21a6.86,6.86,0,0,1-4.74-1.82,20.2,20.2,0,0,0-15.16-5.56c-7.85.23-13.57,4.13-17.68,10.58a20.76,20.76,0,0,0-3,13.48c.77,8.2,5.06,14.07,12.2,17.9a20,20,0,0,0,11.93,1.94,19.86,19.86,0,0,0,12-5.7,6.46,6.46,0,0,1,7.85-.73c1.21.74,2.36,1.57,3.7,2.47-1.18,1.43-2.25,2.9-3.49,4.21A30.17,30.17,0,0,1,68.31,181c-9.54,1.54-18.14-.64-25.53-7a31.64,31.64,0,0,1-9.72-14.4,33.8,33.8,0,0,1-1.31-14.17,30.33,30.33,0,0,1,7.42-16.94,30.4,30.4,0,0,1,18-10.6A31.24,31.24,0,0,1,88.89,131Z" style="fill:#1076bc"/><path d="M291.3,133.84v-2.73H300v.7c0,11.41.11,22.83,0,34.24-.1,8-3.67,14.27-10.74,18.18-5.35,3-10.9,2.63-16.3-.09a20.69,20.69,0,0,1-9.63-9.72c-.13-.27-.24-.56-.4-.9l3.77-1.46c1.24-.47,2.49-.92,3.72-1.44.51-.21.71-.08,1,.38a11.82,11.82,0,0,0,9,6.46,8.32,8.32,0,0,0,7.19-2.62,12.69,12.69,0,0,0,3.74-8.4,19.07,19.07,0,0,1-25.41-4.34,19.71,19.71,0,0,1-.14-23.79A18.55,18.55,0,0,1,277.54,131,18.76,18.76,0,0,1,291.3,133.84Zm-10.37,26.95a10.7,10.7,0,1,0-10.47-10.71C270.44,156.38,275.76,161,280.93,160.79Z" style="fill:#1076bc"/><path d="M133.05,151.73c-.3,9-4.58,15.43-12.66,19.31a18.52,18.52,0,0,1-10,1.49c-8.09-.84-13.56-5.3-17-12.46a20,20,0,0,1-1.57-10.56,20.3,20.3,0,0,1,7.28-13.94,19.14,19.14,0,0,1,11-4.77,19.64,19.64,0,0,1,10.73,1.65,20.87,20.87,0,0,1,11.46,13.4A22.3,22.3,0,0,1,133.05,151.73Zm-32.67.29c.08.63.17,1.61.34,2.56a9.23,9.23,0,0,0,.52,1.72,11.84,11.84,0,0,0,16.9,6.14,12.45,12.45,0,0,0,3-19.13,11.67,11.67,0,0,0-14.31-2.59C102.58,143.1,100.5,146.82,100.38,152Z" style="fill:#02aded"/><path d="M226.23,172.2h-8.31V131.12h8.42v2.51c.61-.37,1.11-.69,1.62-1a17.65,17.65,0,0,1,20.66,2,20.66,20.66,0,0,1,7.2,16c0,6.9,0,13.8,0,20.7v.76h-8.47v-.75c0-7.1.1-14.2-.06-21.3a11.37,11.37,0,0,0-6.64-10.54,9.39,9.39,0,0,0-11.17,2.65,12.46,12.46,0,0,0-3,7.12,1.92,1.92,0,0,1-.09.32l-.05-.56h-.09Z" style="fill:#1076bc"/><path d="M164.06,139.56H152.54v32.61H144V139.59h-4.1v-8.5h4c.37-1.56.62-3.1,1.11-4.56a12,12,0,0,1,8.63-8,20.09,20.09,0,0,1,5.67-.71c1.58,0,3.15,0,4.77,0v8.51c-.31,0-.62,0-.92,0-2.09.06-4.19,0-6.27.21-2.67.26-4,1.74-4.24,4.51h11.38Z" style="fill:#1076bc"/><path d="M182.76,172.2h-8.49V139.61h-4.12v-8.49h4.07c.25-1.25.41-2.44.72-3.59,1.41-5.15,4.87-8.1,10-9.24,3.09-.68,6.24-.38,9.41-.45v8.52c-.26,0-.5,0-.74,0-2.15.06-4.32,0-6.46.21-2.69.26-4,1.71-4.24,4.51h11.37v8.5H182.76Z" style="fill:#1076bc"/><path d="M109.74,178.52c-.6.79-1.09,1.5-1.63,2.16a44.05,44.05,0,0,1-15.12,12,47.87,47.87,0,0,1-10.67,3.65,47,47,0,0,1-15.78.73A40.32,40.32,0,0,1,48,190.15a1.1,1.1,0,0,1-.41-.46c1.1.27,2.21.52,3.32.8A48.54,48.54,0,0,0,61.53,192a42.21,42.21,0,0,0,10.4-.89,39.09,39.09,0,0,0,11.63-4.6,45.25,45.25,0,0,0,8.14-6.16,6.94,6.94,0,0,1,4.92-2c3.87,0,7.74,0,11.61,0C108.68,178.39,109.14,178.46,109.74,178.52Z" style="fill:#02aded"/><path d="M47,111.83c16.88-13.25,48.38-10.39,62.66,10.74a5.33,5.33,0,0,1-1.16.24c-4.42-.17-8.84-.32-13.26-.57a6.69,6.69,0,0,1-4.08-2,42.93,42.93,0,0,0-11.5-7.66A40.58,40.58,0,0,0,66,109.16a47.25,47.25,0,0,0-11.88.62c-2,.37-4,1.1-5.95,1.67Z" style="fill:#02aded"/><path d="M209.2,172.2h-8.41V131.14h8.41Z" style="fill:#1076bc"/><path d="M160.74,196.9h-3.87c-.65-5.27-1.31-10.52-2-15.81h2.75l1.42,11.84h.09c.42-3.93.85-7.86,1.28-11.84h2.73q.65,5.83,1.28,11.64h.16c.44-3.88.89-7.75,1.34-11.66h2.46c-.2,1.62-.39,3.22-.59,4.82-.43,3.44-.87,6.88-1.26,10.32-.07.58-.24.75-.81.73-1,0-2,0-3,0l-.92-7.59h-.15Z" style="fill:#1376bb"/><path d="M250.65,181.06h2.46v15.87c-.87,0-1.71,0-2.55,0-.16,0-.38-.31-.44-.51-1-3.33-2-6.67-3.06-10a.86.86,0,0,0-.27-.45v11h-2.46V181.08h3.49l2.72,8.93h.11Z" style="fill:#1376bb"/><path d="M113.7,196.92V181h4.54a6,6,0,0,1,1.12.09,3.33,3.33,0,0,1,3,3.48q0,4.39,0,8.81a3.35,3.35,0,0,1-3.46,3.48C117.16,197,115.46,196.92,113.7,196.92Zm2.78-2.26h1.18c1.5,0,1.86-.37,1.86-1.88,0-2.4,0-4.8,0-7.2a9.39,9.39,0,0,0-.06-1.19,1.09,1.09,0,0,0-1-1c-.63,0-1.27,0-1.93,0Z" style="fill:#1376bb"/><path d="M179.69,181.14c1.9,0,3.75-.12,5.58,0a2.76,2.76,0,0,1,2.7,2.73,13.69,13.69,0,0,1,0,2.79,2.73,2.73,0,0,1-1.67,2.37c1.62.84,1.75,2.24,1.75,3.73s0,2.69.09,4.14c-.71,0-1.56,0-2.41,0-.13,0-.34-.28-.36-.44-.07-.89-.09-1.78-.12-2.66,0-.54,0-1.07,0-1.6,0-1.27-.55-1.76-1.81-1.81-.3,0-.61,0-1,0v6.51h-2.75Zm2.79,2.18v4.76a13.73,13.73,0,0,0,1.44,0,1.28,1.28,0,0,0,1.28-1.29,16.15,16.15,0,0,0,0-2.2c-.07-.86-.47-1.2-1.35-1.25C183.41,183.3,183,183.32,182.48,183.32Z" style="fill:#1376bb"/><path d="M207.93,196.13v.76h-2.78v-6.73h-3.22v6.74h-2.75V181.07h2.73v6.74h3.18v-6.75h2.71q0,7.16,0,14.31A5.21,5.21,0,0,0,207.93,196.13Z" style="fill:#1076bc"/><path d="M218.22,189v4.2a3.45,3.45,0,0,1-3.16,3.78,7.46,7.46,0,0,1-2.58-.1,3.34,3.34,0,0,1-2.68-3.44q0-4.44,0-8.87a3.51,3.51,0,0,1,3.49-3.64,7.74,7.74,0,0,1,2.25.15,3.37,3.37,0,0,1,2.67,3.45C218.23,186,218.22,187.51,218.22,189Zm-5.62,0h0c0,1.44,0,2.88,0,4.33,0,1,.47,1.43,1.36,1.44a1.25,1.25,0,0,0,1.44-1.42c0-2.89,0-5.77,0-8.66,0-1-.49-1.49-1.39-1.49s-1.4.48-1.42,1.53C212.58,186.15,212.6,187.57,212.6,189Z" style="fill:#1376bb"/><path d="M260.42,186.42c0-.68,0-1.28,0-1.87a1.28,1.28,0,0,0-1.4-1.36,1.25,1.25,0,0,0-1.4,1.35q0,4.47,0,8.94a1.23,1.23,0,0,0,1.4,1.28,1.25,1.25,0,0,0,1.39-1.29c0-1,0-2,0-3.05h-1.18v-2.27h3.85v5.19a3.46,3.46,0,0,1-3.28,3.68,6.64,6.64,0,0,1-2-.05,3.37,3.37,0,0,1-3-3.63q0-4.34,0-8.68a3.44,3.44,0,0,1,3.37-3.72,8.09,8.09,0,0,1,2.25.13,3,3,0,0,1,2.5,2.48,22.27,22.27,0,0,1,.21,2.87Z" style="fill:#1376bb"/><path d="M219.82,181.07h2.78v.74q0,5.34,0,10.68c0,.29,0,.58,0,.86.06,1,.52,1.42,1.41,1.41a1.3,1.3,0,0,0,1.38-1.39c0-.42,0-.84,0-1.26v-11h2.65v12a3.6,3.6,0,0,1-3.93,3.95h-.87a3.44,3.44,0,0,1-3.44-3.39C219.79,189.49,219.82,185.31,219.82,181.07Z" style="fill:#1376bb"/><path d="M168.65,196.93c1-5.34,1.89-10.6,2.83-15.87h4.13l2.83,15.87c-.89,0-1.73,0-2.57,0-.13,0-.32-.26-.36-.43-.13-.63-.22-1.27-.3-1.91-.05-.39-.18-.58-.63-.56-.93,0-1.86,0-2.83,0-.14.83-.29,1.62-.4,2.41,0,.38-.2.53-.59.51C170.07,196.91,169.39,196.93,168.65,196.93Zm6.08-5.11c-.42-2.45-.84-4.86-1.25-7.26h-.18c-.4,2.41-.79,4.81-1.19,7.26Z" style="fill:#1376bb"/><path d="M143.7,194c-.14.84-.25,1.63-.42,2.41-.05.19-.28.47-.45.48-.7.05-1.42,0-2.22,0,.95-5.32,1.89-10.58,2.83-15.86h4.13c.94,5.26,1.87,10.52,2.83,15.86-.89,0-1.73,0-2.57,0-.13,0-.32-.26-.36-.43-.13-.63-.22-1.27-.3-1.91,0-.36-.16-.57-.58-.56C145.66,194,144.73,194,143.7,194Zm1.71-9.74h-.09c-.42,2.5-.84,5-1.26,7.53h2.61Z" style="fill:#1376bb"/><path d="M130.21,181.07c.94,5.28,1.87,10.52,2.82,15.82h-2.85c-.13-.76-.28-1.52-.36-2.29,0-.44-.22-.61-.67-.59-.91,0-1.82,0-2.81,0-.13.8-.29,1.58-.39,2.36,0,.41-.18.59-.62.56-.66,0-1.33,0-2.08,0l2.83-15.86Zm-3.52,10.74h2.62c-.42-2.55-.84-5.06-1.26-7.56H128C127.54,186.75,127.12,189.26,126.69,191.81Z" style="fill:#1376bb"/><path d="M237.79,185.4h-2.56c0-.35,0-.68-.06-1a1.21,1.21,0,0,0-1.31-1.21,1.23,1.23,0,0,0-1.35,1.25,2.88,2.88,0,0,0,1,2.45c.85.81,1.79,1.53,2.66,2.33a5.08,5.08,0,0,1,1.69,5.05,3.1,3.1,0,0,1-2.6,2.62,8.47,8.47,0,0,1-3,0,3.08,3.08,0,0,1-2.6-2.83c-.08-.61-.08-1.23-.13-1.9h2.7c0,.36,0,.75,0,1.14a1.33,1.33,0,0,0,1.58,1.45,1.27,1.27,0,0,0,1.3-1.63,4.4,4.4,0,0,0-.95-2c-.8-.88-1.8-1.58-2.69-2.39a5.17,5.17,0,0,1-1.79-4.46,3.39,3.39,0,0,1,3.22-3.32,7.15,7.15,0,0,1,2.44.15C237.15,181.54,238.09,183.26,237.79,185.4Z" style="fill:#1376bb"/><path d="M189.91,181.07c.2,0,.39,0,.59,0h6.86v2.13h-4.11a3.38,3.38,0,0,0-.67.15v4.38h3.81V190h-3.78v4.66h4.75v2.17c-2.24,0-4.48,0-6.73,0-.59,0-.74-.17-.74-.75C189.92,191.06,189.91,186.07,189.91,181.07Z" style="fill:#1076bc"/><path d="M209.69,122a4.58,4.58,0,0,1-4.66,4.69,4.69,4.69,0,1,1,4.66-4.69Z" style="fill:#1076bc"/><path d="M138.36,183.29l-.15.16a5,5,0,0,0-.11.76c0,4,0,8,0,11.94,0,.48-.11.69-.63.65s-1.33,0-2,0l0-9.8v-3.66h-2.9v-2.27H141c0,.51,0,1,0,1.52s-.13.61-.6.61C139.75,183.18,139.06,183.25,138.36,183.29Z" style="fill:#1076bc"/><path d="M242.22,196.9H239.5V181.09h2.72Z" style="fill:#1376bb"/><path d="M189.91,181.07c0,5,0,10,0,15,0,.58.15.76.74.75,2.25,0,4.49,0,6.73,0-.11.05-.21.14-.32.14h-6.93a2.21,2.21,0,0,1-.29-.05c0-.19,0-.36,0-.53q0-7.36,0-14.73A2.82,2.82,0,0,1,189.91,181.07Z" style="fill:#1376bb"/><path d="M226.23,172.2V149.13h.09l.05.56v12.73c0,3.05,0,6.09,0,9.14A3.94,3.94,0,0,1,226.23,172.2Z" style="fill:#1376bb"/><path d="M135.47,196.79c.67,0,1.34,0,2,0s.63-.17.63-.65c0-4,0-8,0-11.94a5,5,0,0,1,.11-.76q0,6.15,0,12.3V197Z" style="fill:#1376bb"/><path d="M207.93,196.13a5.21,5.21,0,0,1-.12-.76q0-7.16,0-14.31a1.53,1.53,0,0,1,.15.44q0,7.25,0,14.5A.79.79,0,0,1,207.93,196.13Z" style="fill:#1376bb"/><path d="M138.36,183.29c.7,0,1.39-.11,2.08-.1.47,0,.62-.16.6-.61s0-1,0-1.52l.21,2.23Z" style="fill:#1376bb"/><path d="M192.58,183.33a3.38,3.38,0,0,1,.67-.15h4.11a3.16,3.16,0,0,1-.59.14Z" style="fill:#1376bb"/><path d="M93.63,100.37l.1.1-.16,0Z" style="fill:#1076bc"/></svg>