<svg xmlns="http://www.w3.org/2000/svg" x="0" y="0" viewBox="0 0 600 600" xml:space="preserve"><style>.st0{fill:none;stroke:#0051aa;stroke-width:8;stroke-miterlimit:10}.st1{fill:#ceddef}.st2{fill:#7da7d2}.st3{fill:#2f74bb}.st4{fill:#0051aa}</style><path class="st0" d="M584.1 272.1c0-95.4-77.3-172.7-172.7-172.7s-172.7 77.3-172.7 172.7"/><path class="st1" d="M240.6 272.1v-3.8 3.8zm151.5-151.5c-82.2 0-149.5 65.7-151.5 147.7v3.8h303c0-83.7-67.8-151.5-151.5-151.5z"/><path class="st2" d="M240.6 272.1v-3 3zm119.7-119.7c-65 0-118.1 51.9-119.7 116.7v3H480c0-66.2-53.5-119.7-119.7-119.7z"/><path class="st3" d="M240.6 272.1v-2.3 2.3zm89.8-89.8c-48.7 0-88.6 39-89.8 87.5v2.3h179.6c0-49.6-40.2-89.8-89.8-89.8z"/><path class="st4" d="M240.6 272.1v-1.5 1.5zm59.7-59.7c-32.4 0-58.9 25.9-59.7 58.2v1.5H360c0-33-26.7-59.7-59.7-59.7z"/><path class="st1" d="M359.4 327.8v3.8-3.8zM207.9 479.3c82.2 0 149.5-65.7 151.5-147.7v-3.8h-303c0 83.7 67.8 151.5 151.5 151.5z"/><path class="st2" d="M359.4 327.8v3-3zM239.7 447.5c65 0 118.1-51.9 119.7-116.7v-3H120c0 66.2 53.5 119.7 119.7 119.7z"/><path class="st3" d="M359.4 327.8v2.3-2.3zm-89.8 89.8c48.7 0 88.6-39 89.8-87.5v-2.3H179.8c0 49.6 40.2 89.8 89.8 89.8z"/><path class="st4" d="M359.4 327.8v1.5-1.5zm-59.7 59.7c32.4 0 58.9-25.9 59.7-58.2v-1.5H240c0 33 26.7 59.7 59.7 59.7z"/><circle class="st4" cx="584.1" cy="272.1" r="15.9"/><path class="st0" d="M15.9 327.9c0 95.4 77.3 172.7 172.7 172.7s172.7-77.3 172.7-172.7"/><circle class="st4" cx="15.9" cy="327.9" r="15.9"/><g><path d="M72.2 310.3c.2 1 .6 1.7 1.3 2.3.7.6 1.7 1 2.8 1.3 1.1.3 2.4.4 3.7.4.9 0 1.9-.1 3-.2s2.2-.4 3.2-.8c1.1-.4 2-.9 2.9-1.6.8-.7 1.5-1.5 1.8-2.5.4-1.1.4-2-.2-2.7s-1.4-1.3-2.5-1.7c-1.1-.4-2.4-.9-3.9-1.2-1.5-.3-3-.8-4.6-1.1-1.6-.4-3.1-.8-4.5-1.4-1.5-.6-2.6-1.3-3.6-2.2-1-.9-1.6-2-1.9-3.3s-.1-2.9.6-4.8c.8-2.1 2-3.9 3.6-5.5s3.4-2.9 5.4-3.9 4.2-1.8 6.4-2.3c2.3-.5 4.4-.8 6.5-.8 2.4 0 4.6.3 6.7.7 2 .5 3.7 1.3 5 2.3 1.3 1.1 2.2 2.5 2.5 4.1s.1 3.7-.8 6.1h-9.8c.4-1.2.4-2.2.3-3-.2-.8-.6-1.5-1.3-1.9-.6-.4-1.5-.8-2.5-1s-2.1-.3-3.4-.3c-.8 0-1.7.1-2.5.3-.9.1-1.7.4-2.5.8s-1.5.9-2.2 1.5c-.6.6-1.1 1.3-1.5 2.2-.3.8-.4 1.5-.2 2 .1.5.6 1 1.5 1.4.8.4 2.1.8 3.7 1.3 1.7.4 3.7 1 6.4 1.6.8.1 1.9.4 3.3.8s2.7 1.1 3.8 1.9c1.2.9 2 2.1 2.6 3.6s.4 3.4-.4 5.7c-.7 1.9-1.8 3.6-3.2 5.3-1.4 1.6-3.2 3-5.2 4.2-2 1.1-4.4 2.1-7 2.7s-5.5 1-8.7 1c-2.5 0-4.9-.3-7.1-.8-2.2-.6-4-1.5-5.3-2.6-1.4-1.2-2.3-2.7-2.7-4.6-.4-1.8-.1-4.1.9-6.6h9.8c-.3 1.1-.4 2.3-.2 3.3h0zm40.8-31.1h11.4l4.8 16.3 16.8-16.3h11.3l-26.6 25.4-5.9 15.8h-10.2l6-16.1-7.6-25.1h0zm58.2 0l9 27.7h.1l10.3-27.7h9.5l-15.3 41.2h-10.2l-9-27.6h-.1l-10.3 27.6h-9.5l15.4-41.2h10.1zm60.8 0l1.9 41.2h-10.5l-.1-9.2H206l-7 9.2h-10.2l32.8-41.2H232zm-8.8 25.3l-.2-15.1h-.1l-11.6 15.1h11.9zm44.4-25.3l.3 28.3h.1l20.8-28.3H303l-15.4 41.2h-9.5l10.9-29.2h-.1l-22.2 29.2h-7.8l-.6-29h-.1l-10.8 29h-9.5l15.4-41.2h14.3zm78.9 0l-2.9 7.6h-24.4l-3.3 8.8h22.3l-2.6 7h-22.3l-3.7 10.1h24.9l-2.9 7.6h-35l15.4-41.2h34.5v.1zm.9 7.7l2.9-7.6h37.8l-2.9 7.6h-13.8l-12.5 33.6h-10.2l12.5-33.6h-13.8zm70.8-7.7c2.1 0 3.8.3 5.3.9s2.5 1.4 3.4 2.5c.8 1 1.3 2.2 1.4 3.6s-.1 2.9-.7 4.4c-.9 2.4-2.3 4.5-4.1 6.3-1.8 1.8-4.2 3.1-7.1 4.1l-.1.1c1.1.3 2 .8 2.6 1.4s1 1.4 1.1 2.2c.2.9.2 1.8.1 2.9s-.4 2.1-.7 3.1c-.2.6-.4 1.4-.8 2.3-.3.9-.6 1.8-.8 2.7-.3 1-.4 1.8-.4 2.6-.1.8 0 1.5.3 2.1h-10.2c-.1-1.3.2-2.9.7-4.7.6-1.8 1-3.6 1.3-5.2.4-2.2.3-3.7-.4-4.8-.8-1-2.4-1.5-5-1.5H394l-6 16.1h-10.2l15.4-41.2 25 .1h0zm-10.5 18.7c2.3 0 4.3-.4 5.8-1.4s2.7-2.4 3.4-4.5c.8-2 .7-3.4-.1-4.4-.8-.9-2.4-1.3-4.8-1.3h-11.1l-4.3 11.6h11.1zm42.5-18.7l-15.4 41.2h-10.2l15.4-41.2h10.2zm34.4 11c-.3-.9-.8-1.7-1.4-2.3-.6-.6-1.5-1.1-2.5-1.5s-2.2-.6-3.4-.6c-2.3 0-4.4.4-6.3 1.2-1.9.8-3.6 1.8-5.1 3.2-1.5 1.3-2.8 2.9-3.9 4.5-1.1 1.7-2 3.4-2.7 5.3-.6 1.7-1 3.4-1.2 5.1-.1 1.7 0 3.1.5 4.4s1.4 2.3 2.7 3.2c1.3.8 3.1 1.2 5.4 1.2 3.1 0 5.8-.8 8.2-2.5s4.3-3.9 5.7-6.7h9.8c-1.2 2.6-2.7 4.9-4.6 7-1.8 2.1-3.9 3.9-6.2 5.3-2.3 1.5-4.8 2.6-7.4 3.4-2.7.8-5.4 1.1-8.3 1.1-3.6 0-6.5-.6-9-1.7s-4.3-2.6-5.5-4.5-1.8-4.2-1.9-6.8.4-5.4 1.6-8.4c1.1-3 2.7-6 4.8-8.6 2-2.7 4.4-5 7-6.9 2.7-2 5.7-3.5 8.9-4.6s6.6-1.7 10.2-1.7c2.5 0 4.8.3 6.9 1 2 .6 3.7 1.6 5 2.9s2.2 2.8 2.7 4.6c.4 1.8.4 3.9-.2 6.3h-9.8c.4-1 .3-2 0-2.9h0zm18.6 20.1c.2 1 .6 1.7 1.3 2.3.7.6 1.7 1 2.8 1.3 1.1.3 2.4.4 3.7.4.9 0 1.9-.1 3-.2s2.2-.4 3.2-.8c1.1-.4 2-.9 2.9-1.6.8-.7 1.5-1.5 1.8-2.5.4-1.1.4-2-.2-2.7-.6-.7-1.4-1.3-2.5-1.7-1.1-.4-2.4-.9-3.9-1.2-1.5-.3-3-.8-4.6-1.1-1.6-.4-3.1-.8-4.5-1.4-1.5-.6-2.6-1.3-3.6-2.2-1-.9-1.6-2-1.9-3.3s-.1-2.9.6-4.8c.8-2.1 2-3.9 3.6-5.5s3.4-2.9 5.4-3.9 4.2-1.8 6.4-2.3c2.3-.5 4.4-.8 6.5-.8 2.4 0 4.6.3 6.7.7 2 .5 3.7 1.3 5 2.3 1.3 1.1 2.2 2.5 2.5 4.1s.1 3.7-.8 6.1h-9.8c.4-1.2.4-2.2.3-3-.2-.8-.6-1.5-1.3-1.9-.6-.4-1.5-.8-2.5-1s-2.1-.3-3.4-.3c-.8 0-1.7.1-2.5.3-.9.1-1.7.4-2.5.8s-1.5.9-2.2 1.5c-.6.6-1.1 1.3-1.5 2.2-.3.8-.4 1.5-.2 2 .1.5.6 1 1.5 1.4.8.4 2.1.8 3.7 1.3 1.7.4 3.7 1 6.4 1.6.8.1 1.9.4 3.3.8s2.7 1.1 3.8 1.9c1.2.9 2 2.1 2.6 3.6s.4 3.4-.4 5.7c-.7 1.9-1.8 3.6-3.2 5.3-1.4 1.6-3.2 3-5.2 4.2-2 1.1-4.4 2.1-7 2.7-2.7.6-5.5 1-8.7 1-2.5 0-4.9-.3-7.1-.8-2.2-.6-4-1.5-5.3-2.6-1.4-1.2-2.3-2.7-2.7-4.6s-.1-4.1.9-6.6h9.8c-.2 1.1-.4 2.3-.2 3.3h0z" fill="#fff" stroke="#fff" stroke-width="2" stroke-miterlimit="10"/></g></svg>