<svg  xmlns="http://www.w3.org/2000/svg" xmlns:xlink="http://www.w3.org/1999/xlink" x="0px" y="0px"	 viewBox="0 0 601 601" style="enable-background:new 0 0 601 601;" xml:space="preserve"><path fill="#ffffff" d="M188.8,313.4c-0.3-6.9-3.6-13.4-5.9-20.1c0-17,0.3-42.4,0.5-59.7c0.2-15.7-9.3-28-24.4-29.5
	c-17.5-1.8-35.2-0.5-53.3-0.5v192.6h51.9c19.1-0.2,31.4-13.1,31.6-32.7C189.3,346.7,189.8,330,188.8,313.4L188.8,313.4z
	 M130.2,225.4h15.1c7.5,0,13.6,6.1,13.6,13.6v26.3c0,7.5-6.1,13.6-13.6,13.6h-15.1V225.4z M164.1,355.1c0,10-7.2,18-16,18h-17.8
	v-70.9H148c8.8,0,16,8,16,18C163.9,320.2,164.1,355.1,164.1,355.1z M427.1,253l-16,86.4L394.8,253h-24.2l26.7,143h27.5l26.7-143
	H427.1L427.1,253z M367.5,299.3v-23.2c0-12.8-10.3-23.2-23.2-23.2h-30.5c-9.3,0-16.9,7.5-16.9,16.9v6.2h37.5c4.1,0,7.4,3.3,7.4,7.4
	v15.7h-27.2c-7,0-13.3,3.1-17.5,8c-3.6,4.1-5.7,9.3-5.7,15.2V373c0,12.8,10.3,23.2,23.2,23.2h52.9V299.3L367.5,299.3z M341.8,373.2
	h-16.5c-4.4,0-8.2-3.6-8.2-8V330c0-4.4,3.6-8,8.2-8h16.5V373.2z M257.1,372.8h-17.5c-5.4,0-9.8-4.4-9.8-9.8v-27.7h49.7
	c0-20.1,0.2-39.4,0-58.3c-0.2-14.7-9.2-24.1-23.9-24.5c-8.5-0.3-16.9-0.2-25.4,0c-17.2,0.2-26,9.2-26.2,26.3
	c-0.2,17.5,0.2,34.9,0,52.4c-0.5,68.6-4.1,65,64.8,64.3h10.3C278.3,378.5,272.6,372.7,257.1,372.8L257.1,372.8z M229.7,282.8
	c0-4.1,3.3-7.4,7.4-7.4h9.8c4.1,0,7.4,3.3,7.4,7.4V312h-24.5C229.7,312,229.7,282.8,229.7,282.8z M510.7,372.8h-17.5
	c-5.4,0-9.8-4.4-9.8-9.8v-27.7h49.7c0-20.1,0.2-39.4,0-58.3c-0.2-14.7-9.2-24.1-23.9-24.5c-8.5-0.3-16.9-0.2-25.4,0
	c-17.2,0.2-26,9.2-26.2,26.3c-0.2,17.5,0.2,34.9,0,52.4c-0.5,68.6-4.1,65,64.8,64.3h10.4C531.9,378.5,526.2,372.7,510.7,372.8
	L510.7,372.8z M483.3,282.8c0-4.1,3.3-7.4,7.4-7.4h9.8c4.1,0,7.4,3.3,7.4,7.4V312h-24.5C483.3,312,483.3,282.8,483.3,282.8
	L483.3,282.8z M591.3,253.6h-18c-2,0.2-3.8,0.2-5.7,0.5c-13.9,1.5-21.1,10.8-21.3,25v116.8h25.2V283.6c0-4.6,3.8-8.2,8.2-8.2h7.9
	c3.1,0,5.9-1,8.2-2.6c0.2,0,0.2-0.2,0.3-0.2c0.2-0.2,0.5-0.3,0.7-0.5c0.3-0.2,0.5-0.5,0.7-0.7s0.3-0.3,0.3-0.5
	c0.2-0.2,0.3-0.3,0.3-0.5c2.1-2.5,3.6-5.7,3.6-9.3v-7.4h-10.3C591.3,253.8,591.3,253.6,591.3,253.6L591.3,253.6z"/><path fill="#C60909" d="M55.1,203.1H0.7v193h54.5c17.3,0,31.3-14.1,31.3-31.3V234.3C86.6,217.1,72.5,203.1,55.1,203.1z M48.8,373.1
	H26.2V226.3h22.4c6.7,0,12.1,5.4,12.1,12.1V361h0.2C60.9,367.8,55.5,373.1,48.8,373.1z"/></svg>
