<svg viewBox="0 0 100 100" xmlns="http://www.w3.org/2000/svg" fill-rule="evenodd" clip-rule="evenodd" stroke-linejoin="round" stroke-miterlimit="2"><g fill-rule="nonzero"><path d="M50 12.5C29.29 12.5 12.5 29.29 12.5 50S29.29 87.5 50 87.5 87.5 70.712 87.5 50 70.71 12.5 50 12.5" fill="#ff6d70"/><path d="M69.96 55.101a3.838 3.838 0 01-1.367-1.77c-.286-.733-.427-1.55-.427-2.453 0-.87.18-1.678.54-2.424.36-.746.9-1.345 1.62-1.8.72-.454 1.598-.681 2.631-.681.532 0 .984.042 1.352.127.37.085.756.248 1.157.493l-.085-3.58c0-.413-.16-.701-.484-.864-.323-.162-.79-.266-1.405-.31a.362.362 0 01-.168-.132.443.443 0 01-.057-.244c0-.087.022-.177.065-.267.044-.092.098-.14.16-.146.977-.063 2.236-.094 3.778-.094h.78c.067 0 .133.03.192.089.06.06.09.156.09.287v12.524c0 .25.05.441.154.57a.69.69 0 00.368.248c.14.038.317.07.53.093.138.013.228.04.272.08.044.042.066.13.066.268 0 .082-.03.166-.09.255-.059.086-.136.13-.23.13h-3.231c-.238 0-.41-.036-.512-.108a.422.422 0 01-.184-.295c-.019-.125-.024-.33-.019-.612-.301.414-.742.732-1.325.953a4.852 4.852 0 01-1.756.335c-.983 0-1.789-.224-2.415-.672m4.707-.92c.32-.155.557-.368.714-.644v-5.562c-.05-.151-.16-.306-.328-.466a2.234 2.234 0 00-.578-.394 1.398 1.398 0 00-.606-.155c-.915 0-1.567.34-1.955 1.02-.388.68-.581 1.645-.581 2.898 0 2.355.794 3.533 2.386 3.533.312 0 .63-.078.948-.23M46.252 54.485c-.883-.857-1.324-2.092-1.324-3.701 0-1.009.236-1.876.71-2.602a4.498 4.498 0 011.902-1.65c.794-.372 1.669-.559 2.62-.559 1.391 0 2.427.272 3.11.813.684.542 1.112 1.336 1.288 2.381.057.339.084.855.084 1.552l-6.52.008c0 .909.143 1.645.428 2.208.284.563.646.968 1.084 1.213.439.245.902.366 1.39.366.577 0 1.062-.074 1.453-.226.39-.15.733-.398 1.028-.742.007-.005.024-.027.053-.06a.216.216 0 01.089-.07.181.181 0 01.103-.011l.414.198c.063.025.093.062.093.113 0 .036-.018.09-.056.159-.339.589-.834 1.052-1.484 1.39-.652.339-1.453.507-2.406.507-1.822 0-3.176-.428-4.06-1.287m4.934-6.986c-.219-.485-.57-.727-1.052-.727-.507 0-.945.252-1.311.757-.366.502-.59 1.28-.672 2.325h3.364c0-1.084-.11-1.868-.33-2.355M55.445 55.373a.454.454 0 01-.084-.258c0-.106.021-.188.066-.243.043-.058.125-.093.243-.105.665-.08.996-.282.996-.6V48.19c0-.288-.052-.507-.159-.658a.796.796 0 00-.371-.3c-.14-.05-.324-.09-.55-.122a2.067 2.067 0 01-.318-.057.358.358 0 01-.17-.13.44.44 0 01-.056-.245.65.65 0 01.06-.269c.04-.09.096-.139.166-.144a67.63 67.63 0 013.974-.132c.062 0 .12.028.179.084.055.057.09.154.102.291v1.053c.145-.17.413-.381.808-.635a6.921 6.921 0 011.377-.666 4.48 4.48 0 011.544-.287c.928 0 1.665.2 2.21.597.544.398.817 1.132.817 2.202v5.084c0 .35.087.58.262.686.176.108.36.17.55.188.191.019.317.032.38.037.114.012.193.044.241.09.046.047.07.133.07.258a.447.447 0 01-.085.258.265.265 0 01-.234.127h-5.045a.268.268 0 01-.236-.127.462.462 0 01-.084-.258c0-.112.017-.195.056-.249.038-.053.116-.087.235-.099.231-.024.44-.09.624-.197.185-.106.278-.24.278-.403V48.82a3.54 3.54 0 00-.056-.658.977.977 0 00-.306-.525c-.166-.157-.417-.235-.756-.235-.32 0-.647.06-.982.182a4.536 4.536 0 00-.92.456c-.28.182-.498.36-.655.535v5.281c0 .25.046.441.138.57.09.128.2.212.334.253.131.04.3.07.505.088.139.012.23.04.274.08.044.042.065.13.065.268 0 .082-.03.166-.088.255-.061.087-.137.13-.231.13H55.68a.268.268 0 01-.235-.127M44.532 54.849c-.044-.043-.135-.069-.273-.08a5.155 5.155 0 01-.573-.091.798.798 0 01-.399-.225c-.116-.116-.175-.283-.175-.502v-12.62c0-.13-.03-.226-.088-.285a.27.27 0 00-.193-.09c-1.435 0-2.828.044-4.18.132-.064.005-.117.053-.16.146a.612.612 0 00-.066.266c0 .107.018.189.055.245a.37.37 0 00.17.132c.025.005.144.025.357.056.257.03.466.073.629.122.163.05.303.15.423.302.119.149.179.372.179.667l-.01 11.236c0 .157-.941.54-1.621.54-.681 0-1.571-.378-1.64-.544a1.618 1.618 0 01-.103-.616v-5.055a2.23 2.23 0 00-.432-1.356c-.289-.393-.737-.7-1.344-.923-.608-.222-1.374-.333-2.302-.333-.652 0-1.323.08-2.016.24-.692.16-1.277.407-1.756.742-.479.336-.72.753-.72 1.255 0 .387.143.706.428.953.192.167.425.272.69.327.278.04.57-.026.533-.392-.002-.025 0-.038 0-.057-.064-.765.316-1.567 1.274-1.982.044-.018.082-.03.122-.046.164-.081.529-.148 1.041-.148.464 0 .812.106 1.047.316.236.21.352.594.352 1.15v1.55a21.6 21.6 0 00-2.88.484c-.848.21-1.568.547-2.16 1.01-.592.464-.888 1.081-.888 1.852 0 .564.146 1.033.438 1.41.291.375.651.65 1.084.826.432.174.859.264 1.279.264.67 0 1.288-.11 1.855-.326a3.88 3.88 0 001.45-.953v.029c0 .212.044.545.044.545s.035.272.356.438c.321.169 2.312.04 2.676.04h7.243c.1 0 .179-.042.235-.126a.46.46 0 00.084-.259c0-.138-.022-.226-.065-.266m-10.75-1.19a1.86 1.86 0 01-1.513.714c-.388 0-.69-.122-.907-.366a1.28 1.28 0 01-.323-.874c0-.608.131-1.084.394-1.427.264-.345.587-.59.972-.735a7.032 7.032 0 011.376-.338v3.027zM27.21 54.51a1.103 1.103 0 00-.16-.305c-.07-.095-.122-.133-.159-.114-.238.119-.499.22-.78.3a2.7 2.7 0 01-.733.123c-.232 0-.41-.052-.53-.155-.123-.103-.21-.295-.264-.573-.054-.279-.08-.685-.08-1.217v-5.402h2.02c.07 0 .133-.066.193-.197a1.2 1.2 0 00.09-.49c0-.08-.021-.153-.062-.215a.21.21 0 00-.165-.104h-2.076V43.54c0-.109-.073-.186-.2-.237-.235-.075-.372.18-.372.18a5.513 5.513 0 01-3.407 3.07s-.314.075-.233.402c.01.029.018.057.031.086.044.09.097.14.16.145h1.004v6.221c0 .882.268 1.5.804 1.85.537.351 1.255.526 2.157.526.282 0 .608-.052.981-.16a5.958 5.958 0 001.053-.408c.329-.166.571-.333.728-.502.038-.025.038-.093 0-.203" fill="#f8f3ef"/></g></svg>