<svg id="layer" xmlns="http://www.w3.org/2000/svg" viewBox="0 0 652 652"><defs><style>.cls-1{fill:#f3cf00;}</style></defs><path class="cls-1" d="M145.25,329.22V292.1c0-4.32-1.89-6.89-5.94-8.1-36.58-11.07-73-22.28-109.61-33.21C24,249,19.58,252.41,19.58,258.35v48.86c0,1.35.13,3.11-.54,4.19a5.38,5.38,0,0,1-3.78,2.43c-1.22,0-2.84-1.35-3.78-2.43-.68-.81-.68-2.16-.68-3.38,0-16.19-.13-32.26,0-48.46.14-13,9.86-20,22.28-16.33,5.26,1.48,10.52,3.24,15.79,4.86l90.71,27.54c10,3,14,7.83,14,18.36.13,23.89.13,47.65,0,71.54,0,11.07-7.16,18.9-16.87,17.68-5.54-.67-10.94-3-16.2-4.72-2.16-.68-2.7-2.84-2-5s2.7-3,4.86-2.43c3.38.95,6.75,1.89,10.13,3.11,7.15,2.43,11.61-.68,11.61-8.1V329.22Z"/><path class="cls-1" d="M603.67,318.15c10.66,2.7,15.93,8.77,16.33,18.49.41,8.78-6.07,17.55-15.39,20.52A41.3,41.3,0,0,1,594,359.05c-8.23.27-16.47.13-24.7,0a7.89,7.89,0,0,1-1.49-.41,32.87,32.87,0,0,1-.13-3.51c0-22.94.13-46-.14-69,0-3.38,1-4.19,4.19-4.05,9.31.4,18.63,0,27.8.81,9.72.94,16.2,7.42,17,15.66.41,6.74-2.29,14.84-12.82,19.57m-22.95,6.48c0,7.69,0,14.71.14,21.73a3,3,0,0,0,2,2,83.23,83.23,0,0,0,13-.54c5.94-.81,9.58-5.4,9.58-11.21s-3.1-9.85-9.45-10.8a129.26,129.26,0,0,0-15.25-1.21m0-21.06h0c0,2.7-.13,5.4.14,8.1,0,.81,1.21,2.16,1.89,2.16,3.91,0,7.83.13,11.6-.68,7.29-1.75,10.53-11.34,5.94-16.6-2.56-3-14.17-5.67-17.95-3.1-1.75,1.21-1.08,5.8-1.48,8.9a4,4,0,0,0-.14,1.22"/><path class="cls-1" d="M389.58,319.9c-3.65,12.42-7,23.9-10.26,35.5-.81,2.84-1.89,3.92-5,3.92-9.31,0-9.44.27-12-8.64-4.32-14.44-8.5-28.89-12.69-43.33a29.23,29.23,0,0,1-.67-3.11c4.18,0,8-.13,11.88.14.81,0,1.89,1.62,2.16,2.56,3,11.21,5.66,22.28,8.5,33.48a9.88,9.88,0,0,0,1.62,3.78c2-6.88,3.91-13.9,5.94-20.79,1.62-5.67,3.1-11.34,5-17a3.67,3.67,0,0,1,2.7-2.16c9.86-.67,9.86-.67,12.29,8.78,2.7,10.8,5.4,21.6,8.1,32.94,3.24-13.1,6.48-25.65,9.45-38.34.67-2.7,1.75-3.65,4.45-3.51s5.53,0,8.91,0c-1.49,5.4-3,10.12-4.46,15-3.64,12.15-7.28,24.3-10.66,36.58-.67,2.43-1.62,3.65-4.45,3.51-10.26-.13-10.26,0-12.83-9.71-2.56-9.45-5.13-19-8-29.57"/><path class="cls-1" d="M232.05,359.18c-.14-1.62-.27-2.7-.27-3.64,0-23,0-46-.14-69,0-3.37,1.08-4.45,4.46-4.32,8.91.41,18-.13,26.86.81,12.82,1.35,20.38,10,20.65,22.27.41,12-7.56,22.68-19.17,25.11-5.13,1.08-10.52,1.08-15.79,1.22-2.56.13-3.37.94-3.37,3.51.13,6.88,0,13.63.13,20.51,0,2.84-.81,3.78-3.64,3.51-3.11-.27-6.21,0-9.72,0m13.36-38.33c5.27-.41,10.13-.41,14.71-1.35,6.08-1.22,9.18-6.35,9.18-13.23,0-6.62-2.83-10.8-9-12-4.18-.81-8.64-.54-13-.54a2.73,2.73,0,0,0-1.75,1.89c-.14,8.09-.14,16.19-.14,25.24"/><path class="cls-1" d="M88.83,345.42V304.65c0-4.59,2.42-8.23,6.34-9.58s8.5-.54,10.8,2.83a13.74,13.74,0,0,1,2.43,7.15c.27,26.87.13,53.86.13,80.59,0,4.32-1.48,8-5.67,9.86a9.45,9.45,0,0,1-10.26-1.08c-2.83-2.16-3.77-5.27-3.77-8.78Z"/><path class="cls-1" d="M314.93,360.4c-16.87,0-27.94-11.07-27.94-28.08,0-18.22,11.47-29.43,30.1-29.56,16.74,0,26.86,10.8,26.86,28.62,0,18.09-10.8,29-29,29M331,332.05c-.13,0-.4-.13-.54-.13-.13-1.89-.13-3.78-.4-5.67-.68-6.08-5-11.34-10.26-12.56-6.75-1.48-13.09.68-16.33,6.21a23.53,23.53,0,0,0-.41,23c2.57,5.13,7.43,7.16,13,7.16s10-2.3,12.15-7.56c1.48-3.24,1.89-6.89,2.83-10.4"/><path class="cls-1" d="M448,335.56c-.27,8,5,13.91,12.55,14.58a26,26,0,0,0,17.28-3.78,5.28,5.28,0,0,1,1.22-.67h1.34a62.33,62.33,0,0,1-.13,8.64,4.32,4.32,0,0,1-2.43,2.69c-9.45,4.19-19.17,5-28.89,1.22a21.54,21.54,0,0,1-9.45-7.56c-7.69-10.12-8.1-30.91,3.65-41.31,7.83-7,16.87-8.64,26.59-5.4,9.18,3.11,13.09,10.53,14.31,19.71.4,2.7.27,5.4.54,8.1s-.95,3.65-3.65,3.65c-9.71-.14-19.3,0-29,0H448ZM471.52,326c.67-7.7-3.51-13-10.4-13.37S448,318.69,448,326Z"/><path class="cls-1" d="M81.13,346.09v30.37a9.6,9.6,0,0,1-6.21,9.45c-3.78,1.49-7.69,1.22-10.39-2a13.24,13.24,0,0,1-3-7.56c-.27-20.39-.14-40.77,0-61.15,0-6.35,4.18-10.53,10-10.4,5.53.14,9.58,4.46,9.58,10.53v30.78"/><path class="cls-1" d="M53.59,345.69v19.7c0,5.94-4.32,10.4-9.72,10.4s-9.71-4.46-9.71-10.4V325.57c0-5.94,3.91-10,9.44-10.12a9.64,9.64,0,0,1,10,10c.14,6.75,0,13.5,0,20.25"/><path class="cls-1" d="M647,358.91H633.37V282.24c4,0,8.1-.13,12.15.14.54,0,1.35,1.89,1.35,3,.13,9.58,0,19.16,0,28.61v45Z"/><path class="cls-1" d="M508.91,359.18H498.38c-.68,0-1.35-.13-2.3-.13V304.51h12.69v8.64c1.62-2.16,2.57-3.78,3.78-5.13,3.38-4,8-5.4,13.1-4.32a3.6,3.6,0,0,1,2.43,2.16c.27,3.38.13,6.75.13,10.4a44.12,44.12,0,0,0-4.86-1.08c-8.1-.81-14,5.53-14.17,15.12-.14,8.23,0,16.47,0,24.83v4.05Z"/><path class="cls-1" d="M26.06,346v10.66c0,5.67-3.78,9.72-9.18,10.12a9.94,9.94,0,0,1-10.13-9.31c-.27-7.83-.27-15.52,0-23.35.14-5.27,5.27-9.45,10.26-9.18,5.4.27,9,4.45,9.18,10.12V346Z"/></svg>