<svg xmlns="http://www.w3.org/2000/svg" viewBox="0 0 601 601"><path fill="#fff" d="M173.8 288.5l-9.9-2.3c-6.6-1.7-8-3.6-8-6.1 0-4.6 3.4-6.8 10.4-6.8 4.1 0 7.6 1 11.2 3.1 3.8 2 7.8 1.5 10-1.1 1.2-1.4 1.8-3.5 1.6-5.5-.2-1.8-1-3.4-2.4-4.5-4.6-3.8-12.3-6.2-19.8-6.2-15.5 0-26 8.6-26 21.4 0 9.9 6.6 16.9 19.1 20 3.1.8 4.2 1.1 5.7 1.4.9.2 1.9.4 3.4.8 6.6 1.6 8 3.7 8 6.5 0 4.6-4 7.3-10.6 7.3-7.6 0-11.7-1.8-15.8-4.8-3.8-2.4-7.8-1.8-10.2 1.5-2.1 3-1.5 7.5 1.5 10 6 4.9 14 7.5 24 7.5 15.6 0 26.5-9 26.5-21.9-.1-10.5-6.3-17.3-18.7-20.3M248.6 259.8c-3.5 0-6.4 2.2-7.8 6l-15.3 39.7-16.7-40c-1.3-3.7-4.1-5.7-7.8-5.7-2.5 0-5 1.3-6.4 3.5-1.5 2.2-1.7 5-.6 7.7l22.9 52.7c-4.1 10.4-10.2 15.1-12.8 16.6-2.4 1.6-3.2 4.4-3.2 6.3 0 4.2 3.2 7.4 7.4 7.4 2 0 4.2-.7 6.2-2.1 4.7-3 12.1-11.1 17.6-24.3l23.8-56.6c1.1-2.6.9-5.4-.6-7.6-1.6-2.3-4.1-3.6-6.7-3.6M292.1 258.9c-12.8 0-22.5 3.9-26.8 7.1-2.3 1.5-3.1 3.2-3.1 6v49.8c0 4.3 3.5 7.9 7.7 7.9 4.3 0 7.7-3.5 7.7-7.9V277c2.9-1.6 8.2-3.1 14.1-3.1 8.6 0 13.7 5 13.7 13.4v34.6c0 4.3 3.5 7.9 7.7 7.9 4.4 0 7.7-3.4 7.7-7.9v-35.2c.1-17.9-10.1-27.8-28.7-27.8M382.5 302.8c-3.1 0-5.3 1.4-6.8 4.3-2.5 5.5-7.4 8.5-13.6 8.5-8.7 0-14.3-5.1-15.1-13.8-.4-3.8-.3-11.6 0-14.9.7-8.3 6.2-13 15.1-13 6.2 0 11 3 13.5 8.6 1.4 2.8 3.6 4.2 6.6 4.2 4.2 0 7.4-3.4 7.4-7.9 0-7.1-9.3-19.9-27.8-19.9-16.8 0-29.2 10.9-30.3 26.4-.3 5.1-.3 12.9 0 18.1 1.2 15.7 14 27 30.3 27 18.4 0 28-13 28-19.9 0-4.4-3.1-7.7-7.3-7.7M422.2 291.4c-8.8-2.1-16.4-3.9-16.4-11.1 0-10.1 8.5-12.2 15.6-12.2 4.6 0 8.9 1.4 12.9 4.1 1.9 1.3 4.1 1.2 5.3-.2.8-.9 1.1-2 1-3.1-.1-.8-.5-1.8-1.8-2.7-2.4-1.6-8.9-5.4-17.5-5.4-14 0-23 7.7-23 19.6 0 13 11.7 15.9 22 18.4 9.1 2.2 17 4.2 17 11.9 0 7.5-6.5 12.7-15.7 12.7-7.2 0-13.9-2.1-18.4-5.9-1-.8-2-1.1-3.1-1-1 .1-1.9.6-2.7 1.6-1.2 1.7-.8 3.9.9 5.2 6.3 5 14.2 7.5 23.4 7.5 13.8 0 23-8.1 23-20.1.2-13.8-11.8-16.7-22.5-19.3M482.7 260.7c-15.9 0-27.3 10.6-27.8 25.7-.3 5.1-.3 12.8 0 17.9.5 15.3 12.2 26.4 27.8 26.4 15.4 0 27-11.1 27.7-26.4.3-5.1.3-12.8 0-17.9-.7-15.1-12-25.7-27.7-25.7m20.1 44.2c-1 11.2-8.8 18.4-20.1 18.4-11.5 0-19.2-7-20.2-18.4-.4-5.1-.2-14.1 0-18.9.6-10.8 8.5-17.8 20.2-17.8 11.6 0 19.4 7 20.1 17.9.3 5.2.4 14.1 0 18.8M557.8 261.9c-2.3-.6-6.3-1.2-10.5-1.2-13 0-20.5 7.3-20.5 20.1v45.5c0 2.1 1.6 3.8 3.6 3.8 2.1 0 3.8-1.6 3.8-3.8V281c0-9 3.8-12.7 13.1-12.8 2.9 0 5.3.4 7.1.7 1.2.2 2.2.3 3 .3 2.1 0 3.5-1.8 3.5-3.5.1-1.8-1.1-3.2-3.1-3.8M599.4 320.9c-1.1-.7-2.6-.8-4-.1-3.6 1.5-7.4 2.4-10.3 2.4-9.3 0-10.7-7.1-10.7-11.3v-41.5H595c2.3 0 3.9-1.6 3.9-3.8 0-2-1.7-3.6-3.9-3.6h-20.6v-10.3c0-2.3-1.5-3.8-3.6-3.8s-3.8 1.7-3.8 3.8v58.7c0 12.2 6.6 19.2 18.1 19.2 4.6 0 8.9-1 13.1-2.9 2.6-1.1 2.9-3 2.9-3.8-.1-1.2-.7-2.3-1.7-3"/><path fill="#fff" d="M173.8 288.5l-9.9-2.3c-6.6-1.7-8-3.6-8-6.1 0-4.6 3.4-6.8 10.4-6.8 4.1 0 7.6 1 11.2 3.1 3.8 2 7.8 1.5 10-1.1 1.2-1.4 1.8-3.5 1.6-5.5-.2-1.8-1-3.4-2.4-4.5-4.6-3.8-12.3-6.2-19.8-6.2-15.5 0-26 8.6-26 21.4 0 9.9 6.6 16.9 19.1 20 3.1.8 4.2 1.1 5.7 1.4.9.2 1.9.4 3.4.8 6.6 1.6 8 3.7 8 6.5 0 4.6-4 7.3-10.6 7.3-7.6 0-11.7-1.8-15.8-4.8-3.8-2.4-7.8-1.8-10.2 1.5-2.1 3-1.5 7.5 1.5 10 6 4.9 14 7.5 24 7.5 15.6 0 26.5-9 26.5-21.9-.1-10.5-6.3-17.3-18.7-20.3M248.6 259.8c-3.5 0-6.4 2.2-7.8 6l-15.3 39.7-16.7-40c-1.3-3.7-4.1-5.7-7.8-5.7-2.5 0-5 1.3-6.4 3.5-1.5 2.2-1.7 5-.6 7.7l22.9 52.7c-4.1 10.4-10.2 15.1-12.8 16.6-2.4 1.6-3.2 4.4-3.2 6.3 0 4.2 3.2 7.4 7.4 7.4 2 0 4.2-.7 6.2-2.1 4.7-3 12.1-11.1 17.6-24.3l23.8-56.6c1.1-2.6.9-5.4-.6-7.6-1.6-2.3-4.1-3.6-6.7-3.6M292.1 258.9c-12.8 0-22.5 3.9-26.8 7.1-2.3 1.5-3.1 3.2-3.1 6v49.8c0 4.3 3.5 7.9 7.7 7.9 4.3 0 7.7-3.5 7.7-7.9V277c2.9-1.6 8.2-3.1 14.1-3.1 8.6 0 13.7 5 13.7 13.4v34.6c0 4.3 3.5 7.9 7.7 7.9 4.4 0 7.7-3.4 7.7-7.9v-35.2c.1-17.9-10.1-27.8-28.7-27.8M382.5 302.8c-3.1 0-5.3 1.4-6.8 4.3-2.5 5.5-7.4 8.5-13.6 8.5-8.7 0-14.3-5.1-15.1-13.8-.4-3.8-.3-11.6 0-14.9.7-8.3 6.2-13 15.1-13 6.2 0 11 3 13.5 8.6 1.4 2.8 3.6 4.2 6.6 4.2 4.2 0 7.4-3.4 7.4-7.9 0-7.1-9.3-19.9-27.8-19.9-16.8 0-29.2 10.9-30.3 26.4-.3 5.1-.3 12.9 0 18.1 1.2 15.7 14 27 30.3 27 18.4 0 28-13 28-19.9 0-4.4-3.1-7.7-7.3-7.7M422.2 291.4c-8.8-2.1-16.4-3.9-16.4-11.1 0-10.1 8.5-12.2 15.6-12.2 4.6 0 8.9 1.4 12.9 4.1 1.9 1.3 4.1 1.2 5.3-.2.8-.9 1.1-2 1-3.1-.1-.8-.5-1.8-1.8-2.7-2.4-1.6-8.9-5.4-17.5-5.4-14 0-23 7.7-23 19.6 0 13 11.7 15.9 22 18.4 9.1 2.2 17 4.2 17 11.9 0 7.5-6.5 12.7-15.7 12.7-7.2 0-13.9-2.1-18.4-5.9-1-.8-2-1.1-3.1-1-1 .1-1.9.6-2.7 1.6-1.2 1.7-.8 3.9.9 5.2 6.3 5 14.2 7.5 23.4 7.5 13.8 0 23-8.1 23-20.1.2-13.8-11.8-16.7-22.5-19.3M482.7 260.7c-15.9 0-27.3 10.6-27.8 25.7-.3 5.1-.3 12.8 0 17.9.5 15.3 12.2 26.4 27.8 26.4 15.4 0 27-11.1 27.7-26.4.3-5.1.3-12.8 0-17.9-.7-15.1-12-25.7-27.7-25.7m20.1 44.2c-1 11.2-8.8 18.4-20.1 18.4-11.5 0-19.2-7-20.2-18.4-.4-5.1-.2-14.1 0-18.9.6-10.8 8.5-17.8 20.2-17.8 11.6 0 19.4 7 20.1 17.9.3 5.2.4 14.1 0 18.8M557.8 261.9c-2.3-.6-6.3-1.2-10.5-1.2-13 0-20.5 7.3-20.5 20.1v45.5c0 2.1 1.6 3.8 3.6 3.8 2.1 0 3.8-1.6 3.8-3.8V281c0-9 3.8-12.7 13.1-12.8 2.9 0 5.3.4 7.1.7 1.2.2 2.2.3 3 .3 2.1 0 3.5-1.8 3.5-3.5.1-1.8-1.1-3.2-3.1-3.8M599.4 320.9c-1.1-.7-2.6-.8-4-.1-3.6 1.5-7.4 2.4-10.3 2.4-9.3 0-10.7-7.1-10.7-11.3v-41.5H595c2.3 0 3.9-1.6 3.9-3.8 0-2-1.7-3.6-3.9-3.6h-20.6v-10.3c0-2.3-1.5-3.8-3.6-3.8s-3.8 1.7-3.8 3.8v58.7c0 12.2 6.6 19.2 18.1 19.2 4.6 0 8.9-1 13.1-2.9 2.6-1.1 2.9-3 2.9-3.8-.1-1.2-.7-2.3-1.7-3"/><path fill="#4b8bff" d="M56.5 261.7c-19.3-19.3-9.2-40-7.6-43v-.1l5.1-5.1c5.8-5.8 13.5-8.8 21.3-8.8 7.7 0 15.4 2.9 21.2 8.8 11.7 11.7 11.7 30.8 0 42.5L74 279l-.1-.1-.1-.1c-4-3.9-8.3-8.2-12.8-12.6-1.5-1.4-3-2.9-4.5-4.5M31.1 236.9s.1-.1 0 0z"/><path fill="#ff437b" d="M10.3 256.4z"/><path d="M56.3 382.3s13.6-22.5-7.3-43.4c-6.1-6.1-12-11.9-17.4-17.2L8.8 345c-11.7 11.7-11.7 30.8 0 42.5s30.8 11.7 42.5 0l6.2-6.3-1.2 1.1z" fill="#7fe25a"/><path fill="#4b8bff" d="M31.6 321.8l42.3-43s.1 0 .1.1v.1l21.2 20.9s20.3 22.6 1.3 41.6l-40.2 40.8c.9-1.5 12.7-23.1-7.4-43.3-6-6.1-11.9-11.9-17.3-17.2z"/><path fill="#ff437b" d="M30.3 236.1c.1-.1 0 0 0 0"/><path fill="#4d3cc6" d="M10.3 300.9l21.3 20.9 42.3-43c-4-3.9-8.3-8.2-12.8-12.6l-4.5-4.5c-19.3-19.3-9.2-40-7.6-43v-.1c.1-.1.1-.2.1-.2L9 259.3c-19 18.9 1.3 41.6 1.3 41.6m20.8-64s.1-.1 0 0"/><path fill="#4d3cc6" d="M31.6 321.9l42.2-43s.1 0 .1.1l-42.3 42.9zM31.1 236.9s.1-.1 0 0z"/></svg>