<svg xmlns="http://www.w3.org/2000/svg" viewBox="0 0 601 601"><path fill="#df3741" d="M102.2 269.8l8.7-1.7-7.2-1.6 3.8-4.6-6.7 1.7 1.2-6.6-4.6 3.1-2.2-8.5-1.9 9.7-5.5-4.3 1.8 5.9-5.3-1 4.6 4.8-7.6 1.6L89 270l-3.1 3.5 4.8-.4-2.2 6.5 5.3-5.4 1.6 8.7 1.7-8.7 4.1 4.3-.5-5.4 5.9 2c-.1.1-4.4-5.3-4.4-5.3zm-3-2.3c0 2-1.6 3.6-3.6 3.6s-3.6-1.6-3.6-3.6 1.6-3.6 3.6-3.6 3.6 1.6 3.6 3.6zm495.7 19.4h1.3c.8 0 1.1.5 1.1.8 0 .5-.2.8-1.1.8h-1.3v-1.6zm1.2 2.5c.4 0 .6 0 .8.2.2.2.2.7.4 1.3 0 .4.1.7.2 1.1h.8c-.2-.6-.2-1.2-.4-1.7-.1-.6-.2-1-.8-1.2.7-.1 1.1-.7 1.1-1.4 0-1.2-1-1.4-1.9-1.4h-2v5.8h.8v-2.6c0-.1 1-.1 1-.1z"/><path fill="#df3741" d="M600.2 289c0 2.3-1.9 4.2-4.2 4.2-2.3 0-4.2-1.9-4.2-4.2 0-2.3 1.9-4.2 4.2-4.2 2.2.1 4.2 1.9 4.2 4.2zm-4.2-4.9c-2.8 0-5 2.3-5 5 0 2.8 2.3 5 5 5 2.8 0 5-2.3 5-5 0-2.8-2.3-5-5-5zM51.4 266l-7.1 24.6c-.7 2.6-1.2 5.5-1.6 8.3h-.6L33.5 266H10.1L0 328.6h22l2.6-26.8c.2-2.5.4-5 .6-7.6h.8c.1 2.6.7 5.2 1.4 7.8l8.2 26.6h13.3l9-28.1c.7-2 1.1-4.2 1.4-6.3h.4l3.1 34.4h22L74.5 266H51.4zm55.1 33.8v-15.4H85v44.1h21.4v-14.7c2.9 10.2 11.8 15.6 23.6 15.6 3.7 0 7.5-1 10.8-2l1-18.2c-2.5 1.8-4.9 3.4-8.3 3.4-3.5 0-6.4-2.8-6.4-6.4 0-4 2.8-6.6 6.7-6.6 3.1 0 5.6 1.8 7.9 3.6v-17.7c-4.3-1.4-9-2.3-13.5-2.3-10.6.2-19.1 7-21.7 16.6zm461.2-16.2l-7.6 17.3-2.2 6.7h-.6l-.1-6.7-2.2-17.3h-42.7l-.4 6.4h-.6c-2.2-4.7-6.1-7.3-11.8-7.3-10.7 0-18.6 9.3-21.6 18.9-1.1-11.4-10.6-18-23.4-18-9.6 0-18.8 4.3-24.2 11.8l1.7-10.6-7.2.4 2.3-14.8h-21.6l-2.4 14.8-4.4-.2v-.2h-21l-.1 5.3h-.5c-2.5-4.3-6.6-6.3-11.9-6.3-10.5 0-18.2 8.4-21.4 17.8l2.8-17.4c-7.2-.1-11.3 1.1-16 6.9h-.5l1.4-5.9h-21.4l-7.3.4 2.3-14.8h-21.6l-2.4 14.8-5.2-.4-2.2 13.5c-2.2-4.4-6.7-7-12.7-8.3l-4.9-1.2c-1.7-.4-4.4-.7-4.1-3.1.4-2.5 3.5-3.4 5.4-3.4 4.9 0 9 2 12.5 4.7l8.7-16c-5.5-3.7-11.9-5.5-19-5.5-13.6 0-28.5 8.3-30.9 23.2-1.6 9.9 5 15 13.7 16.6l4.4.8c2 .4 4.9.7 4.6 3.5-.5 2.8-4.2 3.7-6.4 3.7-5.3 0-9.7-2.5-13.3-5.8l-1.2-1.2c-.4-15-12.4-23-26.7-23-9.5 0-17.9 3.5-22.7 10.2v-10.2c-7.2-.1-11.2 1.1-14.9 6.9h-.5l.5-5.9h-21.4v44.1h21.4v-16.9c0-5.5 2.9-8.8 8.4-8.8 1.1 0 1.9.2 2.8.5-.1 1.2-.2 2.4-.2 3.7 0 14.7 13 22.5 26.8 22.5 6.4 0 12.6-1.7 17.4-5 6.5 3.5 15.1 5.6 23 5.6 13.6 0 28.4-7.5 30.8-22.4.4-2.4.4-4.4 0-6.3l3.7-.2-4.7 27.4h21.6l4.3-27.4 7.2.5-4.3 27.2h21.4l2.6-16.9c.8-5.5 4.2-8.8 9.7-8.8 2.5 0 4 1 5.8 2.2-.1.5-.2 1-.2 1.4-1.7 10.7 3 22.8 15 22.8 6 0 10-2.6 14.5-6.9h.5l-1.6 5.8h21l4.3-27.2 4.6-.4-4.3 27.5h21.6l4.3-27.4 4.7.2c-.7 1.8-1.2 3.7-1.6 5.8-2.4 15.3 9.1 22.4 23.1 22.4 10.1 0 22.8-4.9 27.3-15.5h-20.9c-.7 2-2.6 3.6-4.9 3.6-4.4 0-4.4-4-3.8-7.6h30.5c0 9.6 5.2 18.6 15.6 18.6 5 0 11.2-2.5 14.1-7.3h.6l-1.1 4.4c-1.3 5.5-5.5 9.7-11.3 9.7-5.3 0-11.1-1.9-14.7-5.4l-7.1 14.9 2 .7c5.9 2.3 11.5 3.5 18.4 3.5 15.4 0 30.7-7 33.3-24.2l6.3-39.2 11.8 37.4-14.9 22.6h22.6l38.1-62.4-22.6.1zM204.6 313c-3.4 0-6-2.5-6-6 0-3.6 2.4-6.5 6-6.5s6 2.9 6 6.5c0 3.4-2.7 6-6 6zm170.3-6.8c-.5 3.4-2.8 6.6-6.7 6.6-3.8 0-5-3-4.6-6.5.5-3.2 3.1-6 6.5-6s5.3 2.4 4.8 5.9zm82.9-5.3v.2h-10.7v-.4c.5-3.2 2.4-5.4 4.9-5.9.4-.1.7-.1 1.1-.1 1.4 0 2.6.6 3.5 1.6 1.1 1.3 1.6 2.8 1.2 4.6zm51.7 4.8c-.5 3.4-2.8 6.1-6.4 6.1-3.7 0-5.6-2.6-5-6.3.6-3.5 3.4-6.4 6.9-6.4 3.6.3 5 3.4 4.5 6.6z"/></svg>
