<svg id="fbb7ef90-1afd-45da-b979-98de20e94f18" data-name="Layer 1" xmlns="http://www.w3.org/2000/svg" viewBox="0 0 800 800"><rect x="69.37" y="69.77" width="661.13" height="660.26" style="fill:#fff"/><path d="M193.57,340.93a88.21,88.21,0,0,1,20.68,41.24,88.41,88.41,0,0,1,173.28,0v-70.8l88.4,88.4,88.65-88.4v70.8A88.43,88.43,0,0,1,731,361.64V69H69V311.38h58.61A88.19,88.19,0,0,1,193.57,340.93Z" style="fill:#9bcbea"/><path d="M651.23,488.18a88.43,88.43,0,0,1-86.65-70.81v70.81h-29.8V382.46l-58.85,59.1-59.1-59.1V488.18h-29.3V417.37a88.41,88.41,0,0,1-173.28,0,88.47,88.47,0,0,1-86.64,70.79H69V731H731V437.92A88.41,88.41,0,0,1,651.23,488.18Z" style="fill:#9bcbea"/><path d="M300.89,458.77a59,59,0,1,0-59-59A59,59,0,0,0,300.89,458.77Z" style="fill:#9bcbea"/><path d="M186.59,399.78a59,59,0,0,0-55.12-58.85H98.3v117.7h33.15A59,59,0,0,0,186.59,399.78Z" style="fill:#9bcbea"/><path d="M651.23,458.77a59,59,0,1,0-59-59A59,59,0,0,0,651.23,458.77Z" style="fill:#9bcbea"/></svg>