<svg xmlns="http://www.w3.org/2000/svg" x="0" y="0" viewBox="0 0 300 300" xml:space="preserve"><style>.st0{fill:#c1392b}.st1{fill:#aed320}.st2{fill:#f04a12}.st3{fill:#00a7e5}.st4{fill:#f1c40f}.st5{fill:#9a59b5}.st6{fill:#fff}</style><circle class="st0" cx="49.7" cy="197.8" r="6"/><circle class="st0" cx="59.7" cy="187.2" r="5.3"/><circle class="st0" cx="64.2" cy="175.7" r="4.6"/><circle class="st0" cx="62.5" cy="164.3" r="4.1"/><circle class="st0" cx="56.1" cy="158.5" r="3.2"/><circle class="st0" cx="50.8" cy="154.4" r="2.5"/><circle class="st0" cx="45.4" cy="152.3" r="1.8"/><circle class="st0" cx="40.8" cy="151.9" r="1.1"/><g><circle class="st1" cx="49.7" cy="110.1" r="5.6"/><circle class="st1" cx="36.7" cy="111.4" r="4.6"/><circle class="st1" cx="27.4" cy="118.3" r="3.9"/><circle class="st1" cx="22" cy="126.2" r="3.4"/><circle class="st1" cx="20.7" cy="134.4" r="3"/><circle class="st1" cx="24" cy="141.7" r="2.5"/><circle class="st1" cx="26.8" cy="147.3" r="1.8"/><circle class="st1" cx="31" cy="150.4" r="1.2"/></g><g><circle class="st2" cx="27.3" cy="101.4" r="5.2"/><circle class="st2" cx="16.2" cy="109.1" r="5.1"/><circle class="st2" cx="7.2" cy="118.3" r="4.6"/><circle class="st2" cx="4.2" cy="128.7" r="4.2"/><circle class="st2" cx="5.5" cy="138.9" r="4.1"/><circle class="st2" cx="11.4" cy="144.6" r="3.2"/><circle class="st2" cx="16.9" cy="148.5" r="2.5"/><circle class="st2" cx="22.7" cy="151.1" r="1.8"/><circle class="st2" cx="27.3" cy="151.9" r="1.1"/></g><g><circle class="st3" cx="54.3" cy="126" r="3.8"/><circle class="st3" cx="63.4" cy="131.7" r="4.8"/><circle class="st3" cx="44.8" cy="125.5" r="3.3"/><circle class="st3" cx="37.4" cy="129" r="3"/><circle class="st3" cx="34.4" cy="134.9" r="2.5"/><circle class="st3" cx="32.6" cy="140.2" r="1.8"/><circle class="st3" cx="32.5" cy="144.7" r="1.3"/><circle class="st3" cx="33.1" cy="148.4" r="1.1"/></g><g><circle class="st4" cx="45.7" cy="163.2" r="2.6"/><circle class="st4" cx="48.3" cy="169.6" r="3"/><circle class="st4" cx="48.4" cy="178.4" r="3.4"/><circle class="st4" cx="42.7" cy="185.7" r="4.4"/><circle class="st4" cx="32.6" cy="191.6" r="4.8"/><circle class="st4" cx="20" cy="193.5" r="5.7"/><circle class="st4" cx="43" cy="157.9" r="1.9"/><circle class="st4" cx="38.9" cy="154.8" r="1.7"/><circle class="st4" cx="35.1" cy="152.4" r="1.3"/></g><g><circle class="st5" cx="15.2" cy="179" r="4.1"/><circle class="st5" cx="5" cy="174.5" r="4.9"/><circle class="st5" cx="24.5" cy="179" r="3.3"/><circle class="st5" cx="31.9" cy="175.7" r="3.2"/><circle class="st5" cx="34.8" cy="169.6" r="2.7"/><circle class="st5" cx="36.7" cy="164.3" r="1.9"/><circle class="st5" cx="36.7" cy="159.8" r="1.3"/><circle class="st5" cx="36.1" cy="156.1" r="1.1"/></g><g><path class="st6" d="M96.3 142.7c0-4.3 4.1-5.6 8.2-5.6 2.6 0 4.5.6 6.1 1.1 1.4.5 2.5 1 3.5 1 1.6 0 2.8-1.3 2.8-3 0-1.6-1.1-2.4-2.4-3-2.1-.9-5.6-2.1-9.9-2.1-7 0-14.6 3.5-14.6 11.6 0 13.5 21.9 11.7 21.9 20.3 0 5.1-4.3 6.3-8.6 6.3s-7.9-1.8-9.6-2.7c-.9-.5-1.7-.9-2.7-.9-1.4 0-2.8 1.2-2.8 2.9s1 2.6 2.1 3.2c1.8 1 6.8 3.5 13.1 3.5 8.9 0 14.9-5.6 14.9-12.3-.1-14-22-12.2-22-20.3zM151.4 168.1c-1.6 0-3.4 1.3-6 1.3-4.1 0-8.9-1.3-8.9-10.5v-21.2h11c1.9 0 3.1-1.2 3.1-3s-1.2-3-3.1-3h-11V122c0-1.8-1.3-3.1-3.1-3.1s-3.1 1.3-3.1 3.1v9.7h-3.7c-1.9 0-3.1 1.2-3.1 3s1.2 3 3.1 3h3.7v21.2c0 14.5 7.7 16.5 15.3 16.5 1.7 0 3.4-.2 5-.8 2.2-.8 3.4-2 3.4-3.5.1-2-1.2-3-2.6-3zM183.8 131.5c-1.1-.2-2.1-.4-3.8-.4-6.2 0-10.5 4.4-11.3 7.2v-3.5c0-1.8-1.3-3.1-3.1-3.1s-3.1 1.3-3.1 3.1v37c0 1.8 1.3 3.1 3.1 3.1s3.1-1.3 3.1-3.1v-16.5c0-16.1 7.7-18.1 11.3-18.1 1.7 0 2.6.6 3.8.6 1.7 0 3-1.3 3-2.9-.1-2.1-1.4-3-3-3.4zM198.4 131.7c-1.8 0-3.1 1.3-3.1 3.1v37c0 1.8 1.3 3.1 3.1 3.1s3.1-1.3 3.1-3.1v-37c0-1.8-1.3-3.1-3.1-3.1zM198.4 117c-1.8 0-3.1 1.3-3.1 3.1v.6c0 1.8 1.3 3.1 3.1 3.1s3.1-1.3 3.1-3.1v-.7c0-1.7-1.3-3-3.1-3zM218.5 131.7c-1.8 0-3.1 1.3-3.1 3.1v37c0 1.8 1.3 3.1 3.1 3.1s3.1-1.3 3.1-3.1v-37c0-1.8-1.4-3.1-3.1-3.1zM218.5 117c-1.8 0-3.1 1.3-3.1 3.1v.6c0 1.8 1.3 3.1 3.1 3.1s3.1-1.3 3.1-3.1v-.7c0-1.7-1.4-3-3.1-3zM299.8 145.5c-.3-7.8-5.3-13-12.9-14.2-6.6-1-12.1 1.1-16.3 6.3-1.1 1.4-1.6 1.4-2.6-.1-3.8-5.5-9.2-7.1-15.6-6.1-4.4.7-7.4 3.4-10.3 6.9-.2-.8-.3-1.2-.3-1.6 0-2.4-.1-5.1-3.4-5-3.4.1-3 2.9-3 5.2v25.8c0 3.1-.1 6.2.1 9.2.1 1 1.1 2.4 2 2.8.8.4 2.6.1 3.1-.6.8-.9 1.1-2.5 1.1-3.8.1-7.1-.1-14.2.1-21.3.2-7.1 5.6-12.4 12.1-12.2 6.4.2 10.4 4.9 10.4 12.3v20.3c0 1-.2 2.4.4 3.1.8 1 1.3 2.1 3.3 2.1 1.5 0 2.1-1.4 2.6-2.5.2-.7.1-1.9.1-3.1.1-7.3-.1-14.6.4-21.9.5-6.2 5.4-10.3 11.3-10.4 5.8 0 9.8 3.5 10.8 9.6.2 1.1.2 2.3.2 3.5v21.3c0 2.2.9 3.8 3.4 3.7 2.3-.1 3-1.6 3-3.7.1-8.5.3-17.1 0-25.6z"/></g></svg>