<svg width="185" height="50" viewBox="0 0 185 50" xmlns="http://www.w3.org/2000/svg">
  <g id="Page-1" fill="none" fill-rule="evenodd">
    <g id="Home-Rev3--Desktop-HD" transform="translate(-335 -1222)" fill="#FE492B" fill-rule="nonzero">
      <g id="Panoply-Ranked-#1-In-Customer-Reviews" transform="translate(0 1000)">
        <g id="Group-4" transform="translate(304 222)">
          <g id="reviews-g2crowd" transform="translate(31)">
            <path d="M37.1 8.2c.8-.9 1.3-1.9 1.3-3 0-1.7-1.5-2.9-3.3-2.9-1.6 0-3.1 1-3.3 3l-2.4-.7c.4-3 3-4.6 5.8-4.6 3.2 0 6 2 6 5.2 0 1.7-.9 3.2-2 4.4-2.5 2.6-2.5 2.7-5 5.7h7v2.3H29.6v-.9L37 8.2zm-6.2 22v-9h20.3A25.4 25.4 0 0 1 25.8 50 25.3 25.3 0 0 1 0 25.1 25.3 25.3 0 0 1 25.7.2V9C16.7 9 9.2 16 9.2 25s7.3 16 16.5 16c7.4 0 13.6-4.5 15.7-10.9l-10.5.2zm39.4-6.3c0-6.5.4-9.2 1.5-11 1.5-2 4-3.1 7.6-3.1 3.2 0 5.7.8 7 2.4 1 1 1.5 2.7 1.5 5.2v1.5h-5.7c0-2.8 0-3.3-.7-3.9-.4-.6-1.2-1-2.2-1-1 0-2 .5-2.5 1.3-.7 1-.8 3.2-.8 8.5 0 4.5.2 7.1.6 8.2.3.9 1.3 1.4 2.5 1.4 2.2 0 3-1 3.2-5.2H88c0 3.5-.3 4.8-1 6.1-1 2-3.7 3.1-7.8 3.1-4.6 0-7.3-1.6-8.4-4.8a55 55 0 0 1-.5-8.7zm21-13.4h8.9c4.2 0 5 0 6.5 1.2 1.3 1 2 2.8 2 5.3 0 2.1-.4 3.9-1.2 4.9-.8 1-1.6 1.4-3.6 1.8 3.6.5 5 2.1 5 6.7v4.1c0 1.3 0 1.6.4 2.7h-6c-.3-1.8-.3-1.8-.3-5 0-3.3-.2-4.9-.8-5.6-.4-.4-1-.6-2.5-.6H97v11.2h-5.6V10.5zM99.5 22c2.5 0 3.5-.9 3.5-3.8a5 5 0 0 0-1-3.3c-.4-.4-.8-.4-2.2-.4h-2.5V22h2.2zm12.9 1.8c0-6.1.3-8.3 1.5-10.3 1.2-2.1 4-3.5 8-3.5 4.2 0 7.3 1.6 8.4 4.5.7 1.5.8 4.4.8 9.4 0 5.5-.3 8.3-1 9.7-1.2 2.7-4 3.9-8 3.9s-6.6-1.2-8-3.5c-1.4-1.7-1.7-3.9-1.7-10.2zm9.3 9.7c1.6 0 2.7-.8 3.2-2.5a66.3 66.3 0 0 0-.4-15.5c-.3-.8-1.5-1.5-2.7-1.5-1.6 0-2.8.7-3.1 1.9-.3 1-.5 3.8-.5 8.1 0 3.5.1 5.9.3 7 .5 1.8 1.4 2.5 3.2 2.5zm11.2-23h5.7l1.9 9.7c.7 3.5.8 6.8 1 13 1-8 1.5-10.4 2-13l2.2-9.7h6.3l2.1 9.7c1 4.5 1 7.6 1.5 13 .3-4.4.8-7.7 1.6-13l1.9-9.7h5l-5.5 26.8h-6.3l-2.7-12.5c-.4-2-1-7-1-10-.8 6-.8 6.9-1.5 10l-2.8 12.5h-6.4l-5-26.8zm33.8 0h7.7c4.6 0 6 .2 7.4 1.2 1.8 1.2 2.7 3.4 3 7.5.2 1.6.3 3.8.3 5.8 0 4.8-.3 7.1-1 8.8-1 2.1-3.7 3.5-7.3 3.5h-10l-.1-26.8zm8.3 22.3c2 0 3.2-.4 3.4-1.4.5-1 .7-2.6.7-7 0-4.8 0-6.8-.7-8.2-.4-.9-1.5-1.8-3.2-1.8h-2.5v18.4h2.3zM60.2 0h2v49.4h-2V0z" id="Shape"/>
          </g>
        </g>
      </g>
    </g>
  </g>
</svg>
