<svg data-name="clock" xmlns="http://www.w3.org/2000/svg" viewBox="0 0 100 100"><circle fill="none" stroke="#fecf41" stroke-width="2" stroke-linecap="round" stroke-linejoin="round" cx="50.38" cy="50.44" r="42.14"/><polyline fill="none" stroke="#fecf41" stroke-width="2" stroke-linecap="round" stroke-linejoin="round" points="57.74 27.2 50.38 50.44 37.7 61.6"/><line fill="none" stroke="#fecf41" stroke-width="2" stroke-linecap="round" stroke-linejoin="round" x1="50.49" y1="14.14" x2="50.49" y2="21.22"/><line fill="none" stroke="#fecf41" stroke-width="2" stroke-linecap="round" stroke-linejoin="round" x1="50.49" y1="79.12" x2="50.49" y2="86.2"/><line fill="none" stroke="#fecf41" stroke-width="2" stroke-linecap="round" stroke-linejoin="round" x1="86.52" y1="50.17" x2="79.44" y2="50.17"/><line fill="none" stroke="#fecf41" stroke-width="2" stroke-linecap="round" stroke-linejoin="round" x1="21.54" y1="50.17" x2="14.46" y2="50.17"/><line fill="none" stroke="#fecf41" stroke-width="2" stroke-linecap="round" stroke-linejoin="round" x1="75.97" y1="75.65" x2="74.21" y2="73.89"/><line fill="none" stroke="#fecf41" stroke-width="2" stroke-linecap="round" stroke-linejoin="round" x1="26.77" y1="26.45" x2="25.02" y2="24.69"/><line fill="none" stroke="#fecf41" stroke-width="2" stroke-linecap="round" stroke-linejoin="round" x1="75.97" y1="24.69" x2="74.21" y2="26.45"/><line fill="none" stroke="#fecf41" stroke-width="2" stroke-linecap="round" stroke-linejoin="round" x1="26.77" y1="73.89" x2="25.02" y2="75.65"/><line fill="none" stroke="#fecf41" stroke-width="2" stroke-linecap="round" stroke-linejoin="round" x1="36.71" y1="16.88" x2="37.66" y2="19.18"/><line fill="none" stroke="#fecf41" stroke-width="2" stroke-linecap="round" stroke-linejoin="round" x1="63.33" y1="81.16" x2="64.28" y2="83.46"/><line fill="none" stroke="#fecf41" stroke-width="2" stroke-linecap="round" stroke-linejoin="round" x1="83.78" y1="36.38" x2="81.48" y2="37.34"/><line fill="none" stroke="#fecf41" stroke-width="2" stroke-linecap="round" stroke-linejoin="round" x1="19.5" y1="63.01" x2="17.21" y2="63.96"/><line fill="none" stroke="#fecf41" stroke-width="2" stroke-linecap="round" stroke-linejoin="round" x1="83.78" y1="63.96" x2="81.48" y2="63.01"/><line fill="none" stroke="#fecf41" stroke-width="2" stroke-linecap="round" stroke-linejoin="round" x1="19.5" y1="37.34" x2="17.21" y2="36.38"/><line fill="none" stroke="#fecf41" stroke-width="2" stroke-linecap="round" stroke-linejoin="round" x1="64.28" y1="16.88" x2="63.33" y2="19.18"/><line fill="none" stroke="#fecf41" stroke-width="2" stroke-linecap="round" stroke-linejoin="round" x1="37.66" y1="81.16" x2="36.71" y2="83.46"/></svg>