<svg data-name="handshake" xmlns="http://www.w3.org/2000/svg" viewBox="0 0 100 100"><line fill="none" stroke="#fecf41" stroke-width="2" stroke-linecap="round" stroke-linejoin="round" x1="71.13" y1="17.87" x2="62.97" y2="26.36"/><line fill="none" stroke="#fecf41" stroke-width="2" stroke-linecap="round" stroke-linejoin="round" x1="7.95" y1="38.56" x2="26.8" y2="57.61"/><path fill="none" stroke="#fecf41" stroke-width="2" stroke-linecap="round" stroke-linejoin="round" d="M91.41,38.35,75,55.11s-.06,3,0,5.75a11,11,0,0,1-1.45,6.26,15.24,15.24,0,0,1-2.42,2.82L58.68,82.59a5,5,0,0,1-7.08,0h0a5,5,0,0,1,0-7.08l-4.88,4.91a5,5,0,0,1-7.15-.07h0a5,5,0,0,1-.07-7.15l-2.45,2.47a5,5,0,0,1-7.08,0h0a5,5,0,0,1,0-7.08L32.61,66a5,5,0,0,1-7.09,0h0a5,5,0,0,1,0-7.08l22.3-22.35h9.23a6.81,6.81,0,0,0,6.81-6.82h0a6.81,6.81,0,0,0-6.81-6.81H33.15L28.5,18.07"/><path fill="none" stroke="#fecf41" stroke-width="2" stroke-linecap="round" stroke-linejoin="round" d="M82.91,47.13l2.45,2.46a5,5,0,0,1,0,7h0a5,5,0,0,1-7,0l-1.9-1.89,6.35,6.35A4.87,4.87,0,0,1,82.84,68l-.25.25a4.87,4.87,0,0,1-6.89-.12l-1.44-1.44,4.41,4.41a5,5,0,0,1,0,7l-.26.26a5,5,0,0,1-7,0l-4-4,1.37,1.37a4.87,4.87,0,0,1,0,6.9l-.3.3a4.88,4.88,0,0,1-6.89,0l-1.64-1.64"/></svg>