<svg data-name="speedometer" xmlns="http://www.w3.org/2000/svg" viewBox="0 0 100 100"><path fill="none" stroke="#fecf41" stroke-width="2" stroke-linecap="round" d="M19.14,81.62A41.61,41.61,0,0,1,7.9,53a42.15,42.15,0,0,1,84.3,0A41.61,41.61,0,0,1,81,81.62M54.55,54.92l18.82,9.84M42.32,48.6l3.52,1.83"/><circle fill="none" stroke="#fecf41" stroke-width="2" cx="50.05" cy="52.96" r="4.92"/><path fill="none" stroke="#fecf41" stroke-width="2" d="M36.7,79H62.55a4.92,4.92,0,1,1,0,9.83H36.7a4.88,4.88,0,0,1-4.91-4.92A5,5,0,0,1,36.7,79Z"/><line fill="none" stroke="#fecf41" stroke-linecap="round" x1="87.42" y1="52.74" x2="85.17" y2="52.74"/><line fill="none" stroke="#fecf41" stroke-linecap="round" x1="14.93" y1="52.74" x2="12.68" y2="52.74"/><line fill="none" stroke="#fecf41" stroke-linecap="round" x1="50.05" y1="17.62" x2="50.05" y2="15.37"/><line fill="none" stroke="#fecf41" stroke-linecap="round" x1="74.89" y1="27.9" x2="76.47" y2="26.32"/><line fill="none" stroke="#fecf41" stroke-linecap="round" x1="23.63" y1="26.32" x2="25.21" y2="27.9"/><line fill="none" stroke="#fecf41" stroke-linecap="round" x1="84.57" y1="38.44" x2="82.5" y2="39.3"/><line fill="none" stroke="#fecf41" stroke-linecap="round" x1="17.6" y1="66.18" x2="15.53" y2="67.04"/><line fill="none" stroke="#fecf41" stroke-linecap="round" x1="36.61" y1="20.29" x2="35.75" y2="18.22"/><line fill="none" stroke="#fecf41" stroke-linecap="round" x1="63.49" y1="20.29" x2="64.35" y2="18.22"/><line fill="none" stroke="#fecf41" stroke-linecap="round" x1="15.53" y1="38.44" x2="17.6" y2="39.3"/><line fill="none" stroke="#fecf41" stroke-linecap="round" x1="82.5" y1="66.18" x2="84.57" y2="67.04"/></svg>