<svg data-name="unlock" xmlns="http://www.w3.org/2000/svg" viewBox="0 0 100 100"><rect fill="none" stroke="#fecf41" stroke-width="2" stroke-linecap="round" stroke-linejoin="round" x="25.03" y="43.6" width="48.53" height="48.53" rx="8.92"/><path fill="none" stroke="#fecf41" stroke-width="2" stroke-miterlimit="10" d="M32.49,43.67V25.11a16.81,16.81,0,0,1,33.61,0v7a3.3,3.3,0,0,1-6.59,0v-7a10.21,10.21,0,0,0-20.42,0V43.67"/><path fill="none" stroke="#fecf41" stroke-width="2" stroke-miterlimit="10" d="M56.54,62.89A7.25,7.25,0,1,0,45.35,69c0,.12,0,.25,0,.38v5.33a4,4,0,1,0,8,0V69.34a2.33,2.33,0,0,0,0-.38A7.24,7.24,0,0,0,56.54,62.89Z"/></svg>