<svg id="Layer_1" data-name="Layer 1" xmlns="http://www.w3.org/2000/svg" viewBox="0 0 800.02 285.9"><defs><style>.cls-1{fill:#718096;}.cls-1,.cls-2,.cls-3{stroke:#231f20;stroke-miterlimit:10;}.cls-2{fill:#fed042;}.cls-3,.cls-5{fill:#fff;}.cls-4{fill:#231f20;}</style></defs><polygon class="cls-1" points="183.02 74.13 0.5 74.13 0.5 256.65 29.25 285.4 211.77 285.4 211.77 102.88 183.02 74.13"/><polygon class="cls-1" points="476.89 74.13 294.37 74.13 294.37 256.65 323.13 285.4 505.65 285.4 505.65 102.88 476.89 74.13"/><polygon class="cls-2" points="770.77 74.13 588.25 74.13 588.25 256.65 617 285.4 799.52 285.4 799.52 102.88 770.77 74.13"/><polygon class="cls-3" points="200.75 0.5 0.5 0.5 0.5 44.75 12.2 56.45 212.45 56.45 212.45 12.2 200.75 0.5"/><polygon class="cls-3" points="494.29 0.5 294.04 0.5 294.04 44.75 305.73 56.45 505.98 56.45 505.98 12.2 494.29 0.5"/><polygon class="cls-3" points="787.82 0.5 587.57 0.5 587.57 44.75 599.27 56.45 799.52 56.45 799.52 12.2 787.82 0.5"/><path class="cls-4" d="M36,22h3.52c2.39,0,4.06.81,4.06,2.89a2.6,2.6,0,0,1-1.72,2.57v.07a2.72,2.72,0,0,1,2.39,2.83c0,2.32-1.84,3.46-4.46,3.46H36Zm3.26,5c2,0,2.83-.74,2.83-1.95,0-1.36-.94-1.87-2.77-1.87h-1.8V27Zm.31,5.58c2,0,3.19-.72,3.19-2.3s-1.14-2.13-3.19-2.13h-2v4.43Z"/><path class="cls-4" d="M46.29,30.56V25h1.49v5.34c0,1.62.51,2.33,1.66,2.33.88,0,1.51-.45,2.32-1.48V25h1.5v8.75H52l-.12-1.37h-.06A3.7,3.7,0,0,1,49,34C47.12,34,46.29,32.79,46.29,30.56Z"/><path class="cls-4" d="M55.23,32.72l.69-.86a3.83,3.83,0,0,0,2.63,1c1.15,0,1.71-.59,1.71-1.35s-1-1.28-2-1.64c-1.32-.46-2.58-1.1-2.58-2.54s1.12-2.48,3-2.48a4.17,4.17,0,0,1,2.71,1l-.68.86a3.26,3.26,0,0,0-2-.7c-1.11,0-1.6.61-1.6,1.26s.76,1.12,1.86,1.5c1.36.48,2.68,1.08,2.68,2.66,0,1.42-1.14,2.61-3.21,2.61A4.68,4.68,0,0,1,55.23,32.72Z"/><path class="cls-4" d="M63.51,22.24a1,1,0,0,1,2,0,1,1,0,0,1-2,0ZM63.75,25h1.49v8.75H63.75Z"/><path class="cls-4" d="M68.19,25h1.23l.12,1.26h.06a4.13,4.13,0,0,1,2.93-1.48c1.86,0,2.69,1.19,2.69,3.42v5.55h-1.5V28.42c0-1.64-.5-2.32-1.65-2.32a3.28,3.28,0,0,0-2.38,1.33v6.34h-1.5Z"/><path class="cls-4" d="M77.39,29.39c0-2.84,1.93-4.59,3.93-4.59,2.23,0,3.51,1.58,3.51,4.1a5,5,0,0,1-.07.89H78.87a2.88,2.88,0,0,0,2.88,3,3.91,3.91,0,0,0,2.2-.65l.52.95a4.84,4.84,0,0,1-2.9.9C79.23,34,77.39,32.29,77.39,29.39Zm6.11-.76c0-1.72-.81-2.64-2.15-2.64a2.64,2.64,0,0,0-2.48,2.64Z"/><path class="cls-4" d="M86,32.72l.68-.86a3.85,3.85,0,0,0,2.63,1c1.15,0,1.71-.59,1.71-1.35s-1-1.28-2-1.64c-1.32-.46-2.58-1.1-2.58-2.54s1.12-2.48,3-2.48a4.22,4.22,0,0,1,2.72,1l-.69.86a3.26,3.26,0,0,0-2-.7c-1.11,0-1.6.61-1.6,1.26s.76,1.12,1.86,1.5c1.37.48,2.68,1.08,2.68,2.66,0,1.42-1.13,2.61-3.21,2.61A4.65,4.65,0,0,1,86,32.72Z"/><path class="cls-4" d="M93.54,32.72l.68-.86a3.85,3.85,0,0,0,2.63,1c1.15,0,1.71-.59,1.71-1.35s-1-1.28-2-1.64c-1.32-.46-2.58-1.1-2.58-2.54s1.12-2.48,3-2.48a4.2,4.2,0,0,1,2.72,1l-.69.86a3.25,3.25,0,0,0-2-.7c-1.12,0-1.61.61-1.61,1.26s.76,1.12,1.86,1.5c1.37.48,2.68,1.08,2.68,2.66,0,1.42-1.13,2.61-3.2,2.61A4.66,4.66,0,0,1,93.54,32.72Z"/><path class="cls-4" d="M105.8,22h6.8v1.28h-5.29v3.69h4.46V28.2h-4.46v4.29h5.47v1.28h-7Z"/><path class="cls-4" d="M116.22,29.19,113.57,25h1.62l1.17,1.9c.27.49.56,1,.85,1.46h.07c.27-.48.52-1,.79-1.46l1.06-1.9h1.57l-2.65,4.34,2.85,4.41h-1.62l-1.28-2c-.31-.52-.63-1.06-1-1.56H117c-.28.5-.57,1-.88,1.56l-1.17,2h-1.56Z"/><path class="cls-4" d="M121.67,29.39c0-2.84,1.93-4.59,3.93-4.59,2.23,0,3.51,1.58,3.51,4.1a5,5,0,0,1-.07.89h-5.89a2.88,2.88,0,0,0,2.88,3,3.93,3.93,0,0,0,2.2-.65l.52.95a4.86,4.86,0,0,1-2.9.9C123.51,34,121.67,32.29,121.67,29.39Zm6.11-.76c0-1.72-.81-2.64-2.15-2.64a2.64,2.64,0,0,0-2.48,2.64Z"/><path class="cls-4" d="M130.6,29.41c0-2.94,2-4.61,4.21-4.61a3.55,3.55,0,0,1,2.56,1l-.74.93a2.48,2.48,0,0,0-1.75-.72c-1.58,0-2.73,1.35-2.73,3.37s1.08,3.33,2.68,3.33a3.09,3.09,0,0,0,2-.83l.65,1A4.17,4.17,0,0,1,134.7,34C132.38,34,130.6,32.31,130.6,29.41Z"/><path class="cls-4" d="M139.33,30.56V25h1.49v5.34c0,1.62.51,2.33,1.66,2.33.88,0,1.51-.45,2.32-1.48V25h1.5v8.75h-1.23L145,32.4h-.06A3.7,3.7,0,0,1,142,34C140.16,34,139.33,32.79,139.33,30.56Z"/><path class="cls-4" d="M149.5,31.05V26.22h-1.3V25.11l1.37-.09.18-2.81H151V25h2.38v1.2H151v4.86c0,1.07.36,1.68,1.35,1.68a2.4,2.4,0,0,0,1-.22l.31,1.06A4,4,0,0,1,152,34C150.13,34,149.5,32.79,149.5,31.05Z"/><path class="cls-4" d="M155.11,22.24a1,1,0,1,1,1,1A.95.95,0,0,1,155.11,22.24Zm.24,2.78h1.49v8.75h-1.49Z"/><path class="cls-4" d="M159.15,29.41c0-2.94,1.9-4.61,4-4.61s4.07,1.67,4.07,4.61S165.34,34,163.2,34,159.15,32.31,159.15,29.41Zm6.57,0c0-2-1-3.37-2.52-3.37s-2.51,1.35-2.51,3.37,1,3.33,2.51,3.33S165.72,31.41,165.72,29.41Z"/><path class="cls-4" d="M169.55,25h1.22l.13,1.26h0a4.13,4.13,0,0,1,2.94-1.48c1.85,0,2.68,1.19,2.68,3.42v5.55h-1.49V28.42c0-1.64-.51-2.32-1.66-2.32A3.31,3.31,0,0,0,171,27.43v6.34h-1.49Z"/><path class="cls-4" d="M221.12,135.65l.85-1a4.69,4.69,0,0,0,3.31,1.42c1.55,0,2.47-.77,2.47-1.91s-.87-1.58-2-2.07l-1.71-.75a3.32,3.32,0,0,1-2.37-3c0-1.8,1.56-3.13,3.71-3.13a4.91,4.91,0,0,1,3.49,1.42l-.83,1a3.86,3.86,0,0,0-2.66-1.1c-1.32,0-2.18.67-2.18,1.71s1,1.57,1.94,1.95l1.7.74c1.36.57,2.43,1.4,2.43,3.15s-1.55,3.36-4,3.36A5.54,5.54,0,0,1,221.12,135.65Z"/><path class="cls-4" d="M230.57,140.78l.33-1.17a2.05,2.05,0,0,0,.64.11c1,0,1.61-.78,2-1.86l.19-.64-3.51-8.77h1.55l1.77,4.82c.28.76.57,1.66.86,2.47h.07c.24-.79.49-1.69.72-2.47l1.57-4.82h1.46l-3.3,9.47c-.61,1.73-1.53,3-3.27,3A2.91,2.91,0,0,1,230.57,140.78Z"/><path class="cls-4" d="M239.88,128.45h1.22l.13,1.26h.05a4.13,4.13,0,0,1,2.94-1.48c1.85,0,2.68,1.19,2.68,3.42v5.55h-1.5v-5.35c0-1.64-.5-2.32-1.65-2.32a3.31,3.31,0,0,0-2.38,1.33v6.34h-1.49Z"/><path class="cls-4" d="M249.08,132.84c0-2.93,2-4.61,4.21-4.61a3.57,3.57,0,0,1,2.56,1l-.74.93a2.5,2.5,0,0,0-1.75-.72c-1.58,0-2.74,1.35-2.74,3.37s1.08,3.33,2.69,3.33a3.09,3.09,0,0,0,2.05-.83l.65,1a4.17,4.17,0,0,1-2.83,1.11C250.86,137.41,249.08,135.74,249.08,132.84Z"/><path class="cls-4" d="M257,136.15l.68-.86a3.85,3.85,0,0,0,2.63,1c1.15,0,1.71-.59,1.71-1.35s-1-1.28-2-1.64c-1.31-.46-2.57-1.09-2.57-2.53s1.11-2.49,3-2.49a4.2,4.2,0,0,1,2.72,1l-.69.87a3.2,3.2,0,0,0-2-.71c-1.12,0-1.6.62-1.6,1.26,0,.8.75,1.12,1.85,1.5,1.37.48,2.68,1.08,2.68,2.66,0,1.43-1.13,2.61-3.2,2.61A4.61,4.61,0,0,1,257,136.15Z"/><path class="cls-4" d="M264.82,132.84c0-2.93,1.91-4.61,4.06-4.61s4.07,1.68,4.07,4.61-1.93,4.57-4.07,4.57S264.82,135.74,264.82,132.84Zm6.58,0c0-2-1-3.37-2.52-3.37s-2.51,1.35-2.51,3.37,1,3.33,2.51,3.33S271.4,134.84,271.4,132.84Z"/><path class="cls-4" d="M275.23,128.45h1.22l.13,1.58h.05a3.06,3.06,0,0,1,2.49-1.8,2,2,0,0,1,.93.18l-.32,1.28a2.6,2.6,0,0,0-.79-.11c-.74,0-1.62.52-2.22,2v5.62h-1.49Z"/><path class="cls-4" d="M281.74,134.48v-4.83h-1.29v-1.11l1.37-.09.18-2.81h1.24v2.81h2.38v1.2h-2.38v4.86c0,1.07.36,1.68,1.35,1.68a2.43,2.43,0,0,0,1-.22l.3,1.07a4.12,4.12,0,0,1-1.65.37C282.38,137.41,281.74,136.23,281.74,134.48Z"/><path class="cls-4" d="M240.92,142.39h6.81v1.27h-5.3v3.7h4.47v1.27h-4.47v4.29h5.48v1.28h-7Z"/><path class="cls-4" d="M252.86,143.66h-3.57v-1.27H258v1.27h-3.58V154.2h-1.51Z"/><path class="cls-4" d="M260.06,142.39h1.51v10.53h5.15v1.28h-6.66Z"/><path class="cls-4" d="M514.91,135.65l.85-1a4.71,4.71,0,0,0,3.31,1.42c1.55,0,2.47-.77,2.47-1.91s-.86-1.58-2-2.07l-1.71-.75a3.32,3.32,0,0,1-2.38-3c0-1.8,1.57-3.13,3.71-3.13a4.91,4.91,0,0,1,3.49,1.42l-.83,1a3.84,3.84,0,0,0-2.66-1.1c-1.32,0-2.18.67-2.18,1.71s1,1.57,2,1.95l1.69.74c1.37.57,2.43,1.4,2.43,3.15s-1.55,3.36-4,3.36A5.55,5.55,0,0,1,514.91,135.65Z"/><path class="cls-4" d="M524.36,140.78l.33-1.17a2.06,2.06,0,0,0,.65.11c1,0,1.6-.78,2-1.86l.2-.64L524,128.45h1.54l1.77,4.82c.29.76.58,1.66.86,2.47h.08c.23-.79.48-1.69.72-2.47l1.56-4.82H532l-3.29,9.47c-.62,1.73-1.54,3-3.28,3A2.91,2.91,0,0,1,524.36,140.78Z"/><path class="cls-4" d="M533.67,128.45h1.22l.13,1.26h.05a4.13,4.13,0,0,1,2.94-1.48c1.85,0,2.68,1.19,2.68,3.42v5.55H539.2v-5.35c0-1.64-.51-2.32-1.66-2.32a3.31,3.31,0,0,0-2.38,1.33v6.34h-1.49Z"/><path class="cls-4" d="M542.87,132.84c0-2.93,2-4.61,4.21-4.61a3.55,3.55,0,0,1,2.56,1l-.74.93a2.48,2.48,0,0,0-1.75-.72c-1.58,0-2.73,1.35-2.73,3.37s1.08,3.33,2.68,3.33a3.09,3.09,0,0,0,2-.83l.65,1a4.17,4.17,0,0,1-2.83,1.11C544.65,137.41,542.87,135.74,542.87,132.84Z"/><path class="cls-4" d="M550.75,136.15l.69-.86a3.8,3.8,0,0,0,2.62,1c1.16,0,1.72-.59,1.72-1.35s-1-1.28-2-1.64c-1.31-.46-2.57-1.09-2.57-2.53s1.11-2.49,3-2.49a4.23,4.23,0,0,1,2.72,1l-.68.87a3.31,3.31,0,0,0-2-.71c-1.12,0-1.6.62-1.6,1.26,0,.8.75,1.12,1.85,1.5,1.37.48,2.69,1.08,2.69,2.66,0,1.43-1.14,2.61-3.21,2.61A4.61,4.61,0,0,1,550.75,136.15Z"/><path class="cls-4" d="M558.62,132.84c0-2.93,1.91-4.61,4-4.61s4.07,1.68,4.07,4.61-1.93,4.57-4.07,4.57S558.62,135.74,558.62,132.84Zm6.57,0c0-2-1-3.37-2.52-3.37s-2.5,1.35-2.5,3.37,1,3.33,2.5,3.33S565.19,134.84,565.19,132.84Z"/><path class="cls-4" d="M569,128.45h1.23l.12,1.58h.06a3,3,0,0,1,2.48-1.8,2.16,2.16,0,0,1,.94.18l-.33,1.28a2.6,2.6,0,0,0-.79-.11c-.74,0-1.62.52-2.21,2v5.62H569Z"/><path class="cls-4" d="M575.54,134.48v-4.83h-1.3v-1.11l1.37-.09.18-2.81H577v2.81h2.38v1.2H577v4.87c0,1.06.36,1.67,1.35,1.67a2.25,2.25,0,0,0,1-.22l.31,1.07a4.21,4.21,0,0,1-1.66.37C576.17,137.41,575.54,136.23,575.54,134.48Z"/><path class="cls-4" d="M534.71,142.39h6.81v1.27h-5.29v3.7h4.46v1.27h-4.46v4.29h5.47v1.28h-7Z"/><path class="cls-4" d="M546.65,143.66h-3.57v-1.27h8.66v1.27h-3.58V154.2h-1.51Z"/><path class="cls-4" d="M553.85,142.39h1.51v10.53h5.15v1.28h-6.66Z"/><path class="cls-4" d="M332.71,22h3.51c2.39,0,4.07.81,4.07,2.89a2.6,2.6,0,0,1-1.73,2.57v.07a2.72,2.72,0,0,1,2.4,2.83c0,2.32-1.84,3.46-4.47,3.46h-3.78ZM336,27c2,0,2.82-.74,2.82-1.95,0-1.36-.93-1.87-2.77-1.87h-1.8V27Zm.3,5.58c2,0,3.19-.72,3.19-2.3s-1.13-2.13-3.19-2.13h-2v4.43Z"/><path class="cls-4" d="M343,30.56V25h1.5v5.34c0,1.62.5,2.33,1.65,2.33.89,0,1.52-.45,2.33-1.48V25H350v8.75h-1.22l-.13-1.37h-.05A3.71,3.71,0,0,1,345.71,34C343.85,34,343,32.79,343,30.56Z"/><path class="cls-4" d="M352,32.72l.68-.86a3.85,3.85,0,0,0,2.63,1c1.15,0,1.71-.59,1.71-1.35s-1-1.28-2-1.64c-1.31-.46-2.58-1.1-2.58-2.54s1.12-2.48,3-2.48a4.2,4.2,0,0,1,2.72,1l-.69.86a3.25,3.25,0,0,0-2-.7c-1.12,0-1.6.61-1.6,1.26s.75,1.12,1.85,1.5c1.37.48,2.68,1.08,2.68,2.66,0,1.42-1.13,2.61-3.2,2.61A4.66,4.66,0,0,1,352,32.72Z"/><path class="cls-4" d="M360.25,22.24a1,1,0,1,1,1,1A.94.94,0,0,1,360.25,22.24Zm.23,2.78H362v8.75h-1.5Z"/><path class="cls-4" d="M364.93,25h1.22l.13,1.26h.05a4.13,4.13,0,0,1,2.94-1.48c1.85,0,2.68,1.19,2.68,3.42v5.55h-1.49V28.42c0-1.64-.51-2.32-1.66-2.32a3.31,3.31,0,0,0-2.38,1.33v6.34h-1.49Z"/><path class="cls-4" d="M374.13,29.39c0-2.84,1.92-4.59,3.92-4.59,2.23,0,3.51,1.58,3.51,4.1a5,5,0,0,1-.07.89H375.6a2.89,2.89,0,0,0,2.88,3,3.88,3.88,0,0,0,2.2-.65l.52.95a4.81,4.81,0,0,1-2.9.9C376,34,374.13,32.29,374.13,29.39Zm6.1-.76c0-1.72-.81-2.64-2.14-2.64a2.64,2.64,0,0,0-2.49,2.64Z"/><path class="cls-4" d="M382.73,32.72l.68-.86a3.85,3.85,0,0,0,2.63,1c1.16,0,1.71-.59,1.71-1.35s-1-1.28-2-1.64c-1.31-.46-2.57-1.1-2.57-2.54s1.11-2.48,3-2.48a4.17,4.17,0,0,1,2.72,1l-.68.86a3.3,3.3,0,0,0-2-.7c-1.12,0-1.6.61-1.6,1.26s.75,1.12,1.85,1.5c1.37.48,2.68,1.08,2.68,2.66,0,1.42-1.13,2.61-3.2,2.61A4.66,4.66,0,0,1,382.73,32.72Z"/><path class="cls-4" d="M390.27,32.72l.69-.86a3.8,3.8,0,0,0,2.62,1c1.16,0,1.72-.59,1.72-1.35s-1-1.28-2-1.64c-1.31-.46-2.57-1.1-2.57-2.54s1.11-2.48,3-2.48a4.17,4.17,0,0,1,2.72,1l-.68.86a3.26,3.26,0,0,0-2-.7c-1.12,0-1.6.61-1.6,1.26s.75,1.12,1.85,1.5c1.37.48,2.69,1.08,2.69,2.66,0,1.42-1.14,2.61-3.21,2.61A4.66,4.66,0,0,1,390.27,32.72Z"/><path class="cls-4" d="M404.94,22h1.73l4,11.82h-1.6l-1.12-3.59h-4.3l-1.14,3.59H401ZM404,29h3.53L407,27.18c-.44-1.32-.82-2.61-1.19-4h-.07c-.37,1.37-.74,2.66-1.16,4Z"/><path class="cls-4" d="M412.18,25h1.22l.13,1.26h.05a4.13,4.13,0,0,1,2.94-1.48c1.85,0,2.68,1.19,2.68,3.42v5.55h-1.49V28.42c0-1.64-.51-2.32-1.66-2.32a3.31,3.31,0,0,0-2.38,1.33v6.34h-1.49Z"/><path class="cls-4" d="M421.48,31.5c0-1.95,1.62-2.88,5.37-3.3,0-1.1-.38-2.16-1.8-2.16a4.86,4.86,0,0,0-2.61.9l-.58-1a6.36,6.36,0,0,1,3.44-1.13c2.12,0,3,1.42,3,3.58v5.39h-1.22L427,32.72h-.05A4.54,4.54,0,0,1,424,34,2.37,2.37,0,0,1,421.48,31.5Zm5.37.14V29.26c-3,.35-3.91,1-3.91,2.15,0,1,.67,1.35,1.51,1.35A3.59,3.59,0,0,0,426.85,31.64Z"/><path class="cls-4" d="M431.1,32V21h1.49V32.11c0,.47.2.63.43.63a1,1,0,0,0,.31,0l.2,1.12a1.9,1.9,0,0,1-.87.16C431.55,34,431.1,33.26,431.1,32Z"/><path class="cls-4" d="M434.8,37.35l.33-1.17a2.06,2.06,0,0,0,.65.11c1,0,1.6-.78,2-1.86l.2-.65L434.43,25H436l1.77,4.82c.29.76.57,1.66.86,2.47h.07c.24-.79.49-1.69.72-2.47L441,25h1.46l-3.29,9.47c-.62,1.73-1.54,3-3.28,3A2.91,2.91,0,0,1,434.8,37.35Z"/><path class="cls-4" d="M444.36,31.05V26.22h-1.3V25.11l1.37-.09.18-2.81h1.25V25h2.37v1.2h-2.37v4.86c0,1.07.36,1.68,1.35,1.68a2.39,2.39,0,0,0,1-.22l.31,1.06a4,4,0,0,1-1.66.38C445,34,444.36,32.79,444.36,31.05Z"/><path class="cls-4" d="M450,22.24a1,1,0,1,1,1,1A.94.94,0,0,1,450,22.24Zm.23,2.78h1.5v8.75h-1.5Z"/><path class="cls-4" d="M454,29.41c0-2.94,2-4.61,4.21-4.61a3.55,3.55,0,0,1,2.56,1l-.74.93a2.48,2.48,0,0,0-1.75-.72c-1.58,0-2.73,1.35-2.73,3.37s1.08,3.33,2.68,3.33a3.09,3.09,0,0,0,2.05-.83l.65,1A4.17,4.17,0,0,1,458.11,34C455.79,34,454,32.31,454,29.41Z"/><path class="cls-4" d="M461.89,32.72l.69-.86a3.83,3.83,0,0,0,2.63,1c1.15,0,1.71-.59,1.71-1.35s-1-1.28-2-1.64c-1.31-.46-2.57-1.1-2.57-2.54s1.12-2.48,3-2.48a4.17,4.17,0,0,1,2.72,1l-.68.86a3.26,3.26,0,0,0-2-.7c-1.11,0-1.6.61-1.6,1.26s.76,1.12,1.85,1.5c1.37.48,2.69,1.08,2.69,2.66,0,1.42-1.14,2.61-3.21,2.61A4.66,4.66,0,0,1,461.89,32.72Z"/><path class="cls-4" d="M647.77,22.27h3c3.64,0,5.58,2.11,5.58,5.85s-1.94,6-5.5,6h-3Zm2.85,10.57c2.75,0,4.12-1.73,4.12-4.72s-1.37-4.6-4.12-4.6h-1.34v9.32Z"/><path class="cls-4" d="M658.17,31.82c0-1.95,1.63-2.88,5.37-3.3,0-1.1-.38-2.16-1.8-2.16a4.86,4.86,0,0,0-2.61.9l-.58-1A6.36,6.36,0,0,1,662,25.12c2.13,0,3,1.42,3,3.58v5.38h-1.22l-.14-1h-.06a4.54,4.54,0,0,1-2.88,1.26A2.37,2.37,0,0,1,658.17,31.82Zm5.37.14V29.58c-2.95.35-3.91,1-3.91,2.15,0,1,.67,1.35,1.52,1.35A3.59,3.59,0,0,0,663.54,32Z"/><path class="cls-4" d="M667.79,31.37V26.54h-1.3V25.42l1.37-.09.18-2.8h1.24v2.8h2.38v1.21h-2.38V31.4c0,1.06.36,1.68,1.35,1.68a2.4,2.4,0,0,0,1-.22l.31,1.06a4,4,0,0,1-1.66.38C668.42,34.3,667.79,33.11,667.79,31.37Z"/><path class="cls-4" d="M672.72,31.82c0-1.95,1.62-2.88,5.36-3.3,0-1.1-.37-2.16-1.8-2.16a4.92,4.92,0,0,0-2.61.9l-.57-1a6.33,6.33,0,0,1,3.44-1.13c2.12,0,3,1.42,3,3.58v5.38h-1.23l-.14-1h-.05a4.56,4.56,0,0,1-2.88,1.26A2.37,2.37,0,0,1,672.72,31.82Zm5.36.14V29.58c-3,.35-3.9,1-3.9,2.15,0,1,.66,1.35,1.51,1.35A3.55,3.55,0,0,0,678.08,32Z"/><path class="cls-4" d="M685.21,32.54l.85-1A4.69,4.69,0,0,0,689.37,33c1.55,0,2.47-.78,2.47-1.91s-.87-1.58-2-2.07l-1.71-.76a3.29,3.29,0,0,1-2.37-3c0-1.8,1.56-3.13,3.71-3.13A4.91,4.91,0,0,1,693,23.48l-.83,1a3.81,3.81,0,0,0-2.66-1.1c-1.32,0-2.18.67-2.18,1.71s1,1.57,1.94,1.94l1.69.74c1.37.58,2.43,1.41,2.43,3.15s-1.54,3.37-4,3.37A5.58,5.58,0,0,1,685.21,32.54Z"/><path class="cls-4" d="M694.89,29.73c0-2.94,2-4.61,4.22-4.61a3.56,3.56,0,0,1,2.55,1l-.73.94a2.5,2.5,0,0,0-1.75-.72c-1.59,0-2.74,1.35-2.74,3.37s1.08,3.33,2.69,3.33a3.09,3.09,0,0,0,2-.83l.65,1A4.22,4.22,0,0,1,699,34.3C696.68,34.3,694.89,32.63,694.89,29.73Z"/><path class="cls-4" d="M703.52,22.56a1,1,0,0,1,2,0,1,1,0,0,1-2,0Zm.23,2.77h1.49v8.75h-1.49Z"/><path class="cls-4" d="M707.55,29.71c0-2.85,1.92-4.59,3.92-4.59,2.24,0,3.51,1.58,3.51,4.1a4.23,4.23,0,0,1-.07.89H709a2.88,2.88,0,0,0,2.89,3,3.87,3.87,0,0,0,2.19-.64l.52.95a4.81,4.81,0,0,1-2.9.9C709.38,34.3,707.55,32.61,707.55,29.71Zm6.1-.76c0-1.73-.81-2.64-2.14-2.64A2.64,2.64,0,0,0,709,29Z"/><path class="cls-4" d="M717.12,25.33h1.23l.12,1.26h.06a4.15,4.15,0,0,1,2.93-1.47c1.86,0,2.69,1.19,2.69,3.42v5.54h-1.5V28.74c0-1.64-.5-2.33-1.65-2.33a3.26,3.26,0,0,0-2.38,1.34v6.33h-1.5Z"/><path class="cls-4" d="M726.32,29.73c0-2.94,2-4.61,4.22-4.61a3.56,3.56,0,0,1,2.55,1l-.74.94a2.46,2.46,0,0,0-1.74-.72c-1.59,0-2.74,1.35-2.74,3.37s1.08,3.33,2.68,3.33a3.14,3.14,0,0,0,2.06-.83l.64,1a4.17,4.17,0,0,1-2.82,1.12C728.1,34.3,726.32,32.63,726.32,29.73Z"/><path class="cls-4" d="M734.15,29.71c0-2.85,1.93-4.59,3.93-4.59,2.23,0,3.51,1.58,3.51,4.1a5,5,0,0,1-.07.89h-5.89a2.87,2.87,0,0,0,2.88,3,3.9,3.9,0,0,0,2.2-.64l.52.95a4.84,4.84,0,0,1-2.9.9C736,34.3,734.15,32.61,734.15,29.71Zm6.11-.76c0-1.73-.81-2.64-2.15-2.64A2.64,2.64,0,0,0,735.63,29Z"/><path class="cls-5" d="M39.17,161.66h7.9v2H41.55v3.28h4.68v2H41.55v3.8h5.72v2h-8.1Z"/><path class="cls-5" d="M49.73,164.9h1.94l.18,1.32h.06a4.64,4.64,0,0,1,3.22-1.56c2.12,0,3,1.44,3,3.92v6.16H55.81v-5.86c0-1.6-.46-2.18-1.5-2.18a2.94,2.94,0,0,0-2.2,1.2v6.84H49.73Z"/><path class="cls-5" d="M61.31,171.4v-4.62h-1.4V165l1.52-.12.28-3.06h2v3.06h2.5v1.88h-2.5v4.62c0,1.14.46,1.7,1.38,1.7a2.65,2.65,0,0,0,1-.2l.42,1.66a5,5,0,0,1-2,.42C62.15,175,61.31,173.54,61.31,171.4Z"/><path class="cls-5" d="M67.25,169.82c0-3.2,2.24-5.16,4.54-5.16,2.66,0,4.1,1.92,4.1,4.68a5.29,5.29,0,0,1-.12,1.2h-6.2a2.74,2.74,0,0,0,2.84,2.6,4.12,4.12,0,0,0,2.28-.68l.8,1.48a5.71,5.71,0,0,1-3.4,1C69.37,175,67.25,173.1,67.25,169.82Zm6.56-1c0-1.44-.68-2.28-2-2.28a2.35,2.35,0,0,0-2.28,2.28Z"/><path class="cls-5" d="M78.05,164.9H80l.18,1.76h.06a3.41,3.41,0,0,1,2.8-2,2.81,2.81,0,0,1,1.12.2l-.48,2a3.25,3.25,0,0,0-.94-.12c-.78,0-1.72.52-2.3,2v6H78.05Z"/><path class="cls-5" d="M85.57,164.9h1.94l.18,1h.06a4.84,4.84,0,0,1,3-1.28c2.44,0,3.86,2,3.86,5,0,3.36-2,5.3-4.18,5.3a3.89,3.89,0,0,1-2.52-1.08l.08,1.64v3.06H85.57Zm6.58,4.8c0-1.94-.64-3.08-2.1-3.08A3,3,0,0,0,88,167.7v4.54a3,3,0,0,0,1.92.78C91.15,173,92.15,171.9,92.15,169.7Z"/><path class="cls-5" d="M96.87,164.9h1.94l.18,1.76h.06a3.41,3.41,0,0,1,2.8-2,2.81,2.81,0,0,1,1.12.2l-.48,2a3.25,3.25,0,0,0-.94-.12c-.78,0-1.72.52-2.3,2v6H96.87Z"/><path class="cls-5" d="M104.17,161.88a1.42,1.42,0,1,1,1.42,1.34A1.31,1.31,0,0,1,104.17,161.88Zm.22,3h2.38v9.84h-2.38Z"/><path class="cls-5" d="M108.69,173.54l1-1.34a4.2,4.2,0,0,0,2.76,1c1,0,1.54-.48,1.54-1.14,0-.82-1-1.14-2.06-1.54-1.42-.52-2.74-1.34-2.74-2.9,0-1.72,1.4-3,3.6-3a5,5,0,0,1,3.28,1.2l-1,1.34a3.58,3.58,0,0,0-2.2-.76c-1,0-1.42.48-1.42,1.06s.7,1,1.94,1.42c1.52.52,2.86,1.3,2.86,3s-1.36,3.06-3.86,3.06A5.48,5.48,0,0,1,108.69,173.54Z"/><path class="cls-5" d="M117.65,169.82c0-3.2,2.24-5.16,4.54-5.16,2.66,0,4.1,1.92,4.1,4.68a5.29,5.29,0,0,1-.12,1.2H120a2.74,2.74,0,0,0,2.84,2.6,4.12,4.12,0,0,0,2.28-.68l.8,1.48a5.71,5.71,0,0,1-3.4,1C119.77,175,117.65,173.1,117.65,169.82Zm6.56-1c0-1.44-.68-2.28-2-2.28a2.35,2.35,0,0,0-2.28,2.28Z"/><path class="cls-5" d="M132,168.14c0-4.22,2.36-6.72,5.78-6.72s5.78,2.5,5.78,6.72-2.36,6.84-5.78,6.84S132,172.38,132,168.14Zm9.12,0c0-2.9-1.32-4.64-3.34-4.64s-3.34,1.74-3.34,4.64,1.3,4.78,3.34,4.78S141.11,171.06,141.11,168.14Z"/><path class="cls-5" d="M146.17,161.66h2.38v11.08H154v2h-7.78Z"/><path class="cls-5" d="M156.45,163.66h-3.76v-2h9.9v2h-3.76v11.08h-2.38Z"/><path class="cls-5" d="M164.77,161.66h4.14c2.9,0,5.08,1,5.08,4.06s-2.18,4.24-5,4.24h-1.84v4.78h-2.38Zm4,6.4c1.92,0,2.82-.76,2.82-2.34s-1-2.16-2.9-2.16h-1.58v4.5Z"/><path class="cls-5" d="M356.92,149.86h7.9v2H359.3v3.28H364v2H359.3v3.8H365v2h-8.1Z"/><path class="cls-5" d="M367.48,153.1h1.94l.18,1.32h.06a4.64,4.64,0,0,1,3.22-1.56c2.12,0,3,1.44,3,3.92v6.16h-2.36v-5.86c0-1.6-.46-2.18-1.5-2.18a2.94,2.94,0,0,0-2.2,1.2v6.84h-2.38Z"/><path class="cls-5" d="M379.06,159.6V155h-1.4v-1.76l1.52-.12.28-3.06h2v3.06h2.5V155h-2.5v4.62c0,1.14.46,1.7,1.38,1.7a2.65,2.65,0,0,0,1-.2l.42,1.66a5,5,0,0,1-2,.42C379.9,163.18,379.06,161.74,379.06,159.6Z"/><path class="cls-5" d="M385,158c0-3.2,2.24-5.16,4.54-5.16,2.66,0,4.1,1.92,4.1,4.68a5.29,5.29,0,0,1-.12,1.2h-6.2a2.74,2.74,0,0,0,2.84,2.6,4.12,4.12,0,0,0,2.28-.68l.8,1.48a5.71,5.71,0,0,1-3.4,1C387.12,163.18,385,161.3,385,158Zm6.56-1c0-1.44-.68-2.28-2-2.28a2.35,2.35,0,0,0-2.28,2.28Z"/><path class="cls-5" d="M395.8,153.1h1.94l.18,1.76H398a3.41,3.41,0,0,1,2.8-2,2.81,2.81,0,0,1,1.12.2l-.48,2a3.25,3.25,0,0,0-.94-.12c-.78,0-1.72.52-2.3,2v6H395.8Z"/><path class="cls-5" d="M403.32,153.1h1.94l.18,1h.06a4.84,4.84,0,0,1,3-1.28c2.44,0,3.86,2,3.86,5,0,3.36-2,5.3-4.18,5.3a3.89,3.89,0,0,1-2.52-1.08l.08,1.64v3.06h-2.38Zm6.58,4.8c0-1.94-.64-3.08-2.1-3.08a3,3,0,0,0-2.1,1.08v4.54a3,3,0,0,0,1.92.78C408.9,161.22,409.9,160.1,409.9,157.9Z"/><path class="cls-5" d="M414.62,153.1h1.94l.18,1.76h.06a3.41,3.41,0,0,1,2.8-2,2.81,2.81,0,0,1,1.12.2l-.48,2a3.25,3.25,0,0,0-.94-.12c-.78,0-1.72.52-2.3,2v6h-2.38Z"/><path class="cls-5" d="M421.92,150.08a1.42,1.42,0,1,1,1.42,1.34A1.31,1.31,0,0,1,421.92,150.08Zm.22,3h2.38v9.84h-2.38Z"/><path class="cls-5" d="M426.44,161.74l1-1.34a4.2,4.2,0,0,0,2.76,1c1,0,1.54-.48,1.54-1.14,0-.82-1-1.14-2.06-1.54-1.42-.52-2.74-1.34-2.74-2.9,0-1.72,1.4-3,3.6-3a5,5,0,0,1,3.28,1.2l-1,1.34a3.58,3.58,0,0,0-2.2-.76c-1,0-1.42.48-1.42,1.06s.7,1,1.94,1.42c1.52.52,2.86,1.3,2.86,3s-1.36,3.06-3.86,3.06A5.48,5.48,0,0,1,426.44,161.74Z"/><path class="cls-5" d="M435.4,158c0-3.2,2.24-5.16,4.54-5.16,2.66,0,4.1,1.92,4.1,4.68a5.29,5.29,0,0,1-.12,1.2h-6.2a2.74,2.74,0,0,0,2.84,2.6,4.12,4.12,0,0,0,2.28-.68l.8,1.48a5.71,5.71,0,0,1-3.4,1C437.52,163.18,435.4,161.3,435.4,158Zm6.56-1c0-1.44-.68-2.28-2-2.28a2.35,2.35,0,0,0-2.28,2.28Z"/><path class="cls-5" d="M332,173.46h3.5c4,0,6.4,2.14,6.4,6.48s-2.4,6.6-6.28,6.6H332Zm3.34,11.16c2.6,0,4.1-1.46,4.1-4.68s-1.5-4.54-4.1-4.54h-1v9.22Z"/><path class="cls-5" d="M343.79,183.9c0-2.16,1.72-3.24,5.76-3.68,0-1-.44-1.84-1.76-1.84a5.53,5.53,0,0,0-2.76.92l-.84-1.56a7.68,7.68,0,0,1,4-1.28c2.44,0,3.68,1.52,3.68,4.26v5.82H350l-.2-1.08h-.08a4.58,4.58,0,0,1-3,1.32A2.76,2.76,0,0,1,343.79,183.9Zm5.76,0v-2.08c-2.68.32-3.48.92-3.48,1.92,0,.84.56,1.16,1.36,1.16A2.93,2.93,0,0,0,349.55,183.9Z"/><path class="cls-5" d="M354.67,183.2v-4.62h-1.4v-1.76l1.52-.12.28-3.06h2v3.06h2.5v1.88H357v4.62c0,1.14.46,1.7,1.38,1.7a2.65,2.65,0,0,0,1-.2l.42,1.66a5,5,0,0,1-2,.42C355.51,186.78,354.67,185.34,354.67,183.2Z"/><path class="cls-5" d="M360.63,183.9c0-2.16,1.72-3.24,5.76-3.68,0-1-.44-1.84-1.76-1.84a5.53,5.53,0,0,0-2.76.92l-.84-1.56a7.68,7.68,0,0,1,4-1.28c2.44,0,3.68,1.52,3.68,4.26v5.82h-1.92l-.2-1.08h-.08a4.58,4.58,0,0,1-3,1.32A2.76,2.76,0,0,1,360.63,183.9Zm5.76,0v-2.08c-2.68.32-3.48.92-3.48,1.92,0,.84.56,1.16,1.36,1.16A2.93,2.93,0,0,0,366.39,183.9Z"/><path class="cls-5" d="M374.39,173.46h2.44l1.12,6.6c.22,1.4.4,2.76.56,4.28h.08c.24-1.52.5-2.9.8-4.28l1.56-6.6h2.28l1.56,6.6c.3,1.36.6,2.76.84,4.28h.08c.16-1.52.36-2.9.56-4.28l1.12-6.6h2.26l-2.5,13.08h-3l-1.56-6.88c-.24-1-.32-2-.48-3.16H382c-.16,1.2-.3,2.12-.52,3.16L380,186.54h-3Z"/><path class="cls-5" d="M390.67,183.9c0-2.16,1.72-3.24,5.76-3.68,0-1-.44-1.84-1.76-1.84a5.53,5.53,0,0,0-2.76.92l-.84-1.56a7.68,7.68,0,0,1,4-1.28c2.44,0,3.68,1.52,3.68,4.26v5.82h-1.92l-.2-1.08h-.08a4.58,4.58,0,0,1-3,1.32A2.76,2.76,0,0,1,390.67,183.9Zm5.76,0v-2.08c-2.68.32-3.48.92-3.48,1.92,0,.84.56,1.16,1.36,1.16A2.93,2.93,0,0,0,396.43,183.9Z"/><path class="cls-5" d="M401.51,176.7h1.94l.18,1.76h.06a3.41,3.41,0,0,1,2.8-2,2.81,2.81,0,0,1,1.12.2l-.48,2a3.25,3.25,0,0,0-.94-.12c-.78,0-1.72.52-2.3,2v6h-2.38Z"/><path class="cls-5" d="M408.19,181.62c0-3.2,2.24-5.16,4.54-5.16,2.66,0,4.1,1.92,4.1,4.68a5.29,5.29,0,0,1-.12,1.2h-6.2a2.74,2.74,0,0,0,2.84,2.6,4.12,4.12,0,0,0,2.28-.68l.8,1.48a5.71,5.71,0,0,1-3.4,1C410.31,186.78,408.19,184.9,408.19,181.62Zm6.56-1c0-1.44-.68-2.28-2-2.28a2.35,2.35,0,0,0-2.28,2.28Z"/><path class="cls-5" d="M419,172.42h2.38v3.64l-.1,1.88a4.5,4.5,0,0,1,3.12-1.48c2.12,0,3,1.44,3,3.92v6.16h-2.36v-5.86c0-1.6-.46-2.18-1.5-2.18a2.94,2.94,0,0,0-2.2,1.2v6.84H419Z"/><path class="cls-5" d="M429.53,181.64c0-3.28,2.24-5.18,4.7-5.18s4.68,1.9,4.68,5.18-2.24,5.14-4.68,5.14S429.53,184.9,429.53,181.64Zm7,0c0-2-.84-3.24-2.26-3.24s-2.26,1.28-2.26,3.24.84,3.22,2.26,3.22S436.49,183.58,436.49,181.64Z"/><path class="cls-5" d="M441.05,182.86V176.7h2.36v5.86c0,1.6.46,2.2,1.5,2.2.86,0,1.42-.4,2.14-1.34V176.7h2.36v9.84h-1.94l-.18-1.44h-.06a4,4,0,0,1-3.16,1.68C442,186.78,441.05,185.34,441.05,182.86Z"/><path class="cls-5" d="M451.35,185.34l1-1.34a4.2,4.2,0,0,0,2.76,1c1,0,1.54-.48,1.54-1.14,0-.82-1-1.14-2.06-1.54-1.42-.52-2.74-1.34-2.74-2.9,0-1.72,1.4-3,3.6-3a5,5,0,0,1,3.28,1.2l-1,1.34a3.58,3.58,0,0,0-2.2-.76c-1,0-1.42.48-1.42,1.06s.7,1,1.94,1.42c1.52.52,2.86,1.3,2.86,3s-1.36,3.06-3.86,3.06A5.48,5.48,0,0,1,451.35,185.34Z"/><path class="cls-5" d="M460.31,181.62c0-3.2,2.24-5.16,4.54-5.16,2.66,0,4.1,1.92,4.1,4.68a5.29,5.29,0,0,1-.12,1.2h-6.2a2.74,2.74,0,0,0,2.84,2.6,4.12,4.12,0,0,0,2.28-.68l.8,1.48a5.71,5.71,0,0,1-3.4,1C462.43,186.78,460.31,184.9,460.31,181.62Zm6.56-1c0-1.44-.68-2.28-2-2.28a2.35,2.35,0,0,0-2.28,2.28Z"/><path d="M648.18,158.1l-3.94-8.24h2.54l1.4,3.32c.38,1,.76,1.88,1.16,2.88h.08c.42-1,.82-1.92,1.2-2.88l1.4-3.32h2.48l-3.94,8.24v4.84h-2.38Z"/><path d="M654.22,158c0-3.2,2.24-5.16,4.54-5.16,2.66,0,4.1,1.92,4.1,4.68a5.29,5.29,0,0,1-.12,1.2h-6.2a2.74,2.74,0,0,0,2.84,2.6,4.12,4.12,0,0,0,2.28-.68l.8,1.48a5.71,5.71,0,0,1-3.4,1C656.34,163.18,654.22,161.3,654.22,158Zm6.56-1c0-1.44-.68-2.28-2-2.28a2.35,2.35,0,0,0-2.28,2.28Z"/><path d="M665,160.36V148.82h2.38v11.66c0,.58.26.78.5.78a1.23,1.23,0,0,0,.36,0l.28,1.74a2.8,2.8,0,0,1-1.24.22C665.64,163.18,665,162.1,665,160.36Z"/><path d="M670.46,160.36V148.82h2.38v11.66c0,.58.26.78.5.78a1.23,1.23,0,0,0,.36,0L674,163a2.8,2.8,0,0,1-1.24.22C671.08,163.18,670.46,162.1,670.46,160.36Z"/><path d="M675.26,158c0-3.28,2.24-5.18,4.7-5.18s4.68,1.9,4.68,5.18-2.24,5.14-4.68,5.14S675.26,161.3,675.26,158Zm7,0c0-2-.84-3.24-2.26-3.24s-2.26,1.28-2.26,3.24.84,3.22,2.26,3.22S682.22,160,682.22,158Z"/><path d="M685.8,153.12h2.36l1.16,5.1a27.39,27.39,0,0,1,.5,2.92h.08c.18-1.16.34-2,.54-2.92l1.2-5.1H694l1.24,5.1c.22.88.4,1.76.58,2.92h.08c.18-1.16.3-2,.5-2.92l1.16-5.1h2.2l-2.5,9.82h-2.94l-1-4.56c-.2-.88-.36-1.68-.54-3h-.08a23.68,23.68,0,0,1-.5,3l-1,4.56H688.4Z"/><path d="M703.86,161.9h-.06l-.22,1h-1.86V148.82h2.38v3.64l-.08,1.62a4.43,4.43,0,0,1,2.82-1.22c2.46,0,3.88,2,3.88,5,0,3.38-2,5.32-4.18,5.32A3.92,3.92,0,0,1,703.86,161.9Zm4.44-4c0-1.94-.64-3.08-2.1-3.08a3,3,0,0,0-2.1,1.08v4.54a2.92,2.92,0,0,0,1.92.78C707.3,161.22,708.3,160.1,708.3,157.9Z"/><path d="M713,153.1h1.94l.18,1.76h.06a3.41,3.41,0,0,1,2.8-2,2.81,2.81,0,0,1,1.12.2l-.48,2a3.25,3.25,0,0,0-.94-.12c-.78,0-1.72.52-2.3,2v6H713Z"/><path d="M720.3,150.08a1.42,1.42,0,1,1,1.42,1.34A1.31,1.31,0,0,1,720.3,150.08Zm.22,3h2.38v9.84h-2.38Z"/><path d="M725.14,158a4.88,4.88,0,0,1,5-5.18A4.18,4.18,0,0,1,733,154l-1.14,1.48a2.32,2.32,0,0,0-1.62-.64c-1.56,0-2.64,1.28-2.64,3.24s1.06,3.22,2.56,3.22a3.17,3.17,0,0,0,2-.78l1,1.5a4.89,4.89,0,0,1-3.22,1.2C727.22,163.18,725.14,161.3,725.14,158Z"/><path d="M735,148.82h2.34v8.72h.08L741,153.1h2.6l-3.34,4,3.68,5.8h-2.56l-2.5-4.22-1.5,1.7v2.52H735Z"/><path d="M626.2,173.46h3.5c4,0,6.4,2.14,6.4,6.48s-2.4,6.6-6.28,6.6H626.2Zm3.34,11.16c2.6,0,4.1-1.46,4.1-4.68s-1.5-4.54-4.1-4.54h-1v9.22Z"/><path d="M638,183.9c0-2.16,1.72-3.24,5.76-3.68,0-1-.44-1.84-1.76-1.84a5.53,5.53,0,0,0-2.76.92l-.84-1.56a7.68,7.68,0,0,1,4-1.28c2.44,0,3.68,1.52,3.68,4.26v5.82h-1.92l-.2-1.08h-.08a4.58,4.58,0,0,1-3,1.32A2.76,2.76,0,0,1,638,183.9Zm5.76,0v-2.08c-2.68.32-3.48.92-3.48,1.92,0,.84.56,1.16,1.36,1.16A2.93,2.93,0,0,0,643.74,183.9Z"/><path d="M648.86,183.2v-4.62h-1.4v-1.76l1.52-.12.28-3.06h2v3.06h2.5v1.88h-2.5v4.62c0,1.14.46,1.7,1.38,1.7a2.65,2.65,0,0,0,1-.2l.42,1.66a5,5,0,0,1-2,.42C649.7,186.78,648.86,185.34,648.86,183.2Z"/><path d="M654.82,183.9c0-2.16,1.72-3.24,5.76-3.68,0-1-.44-1.84-1.76-1.84a5.53,5.53,0,0,0-2.76.92l-.84-1.56a7.68,7.68,0,0,1,4-1.28c2.44,0,3.68,1.52,3.68,4.26v5.82H661l-.2-1.08h-.08a4.58,4.58,0,0,1-3,1.32A2.76,2.76,0,0,1,654.82,183.9Zm5.76,0v-2.08c-2.68.32-3.48.92-3.48,1.92,0,.84.56,1.16,1.36,1.16A2.93,2.93,0,0,0,660.58,183.9Z"/><path d="M668.58,173.46H671l1.12,6.6c.22,1.4.4,2.76.56,4.28h.08c.24-1.52.5-2.9.8-4.28l1.56-6.6h2.28l1.56,6.6c.3,1.36.6,2.76.84,4.28h.08c.16-1.52.36-2.9.56-4.28l1.12-6.6h2.26l-2.5,13.08h-3l-1.56-6.88c-.24-1-.32-2-.48-3.16h-.08c-.16,1.2-.3,2.12-.52,3.16l-1.48,6.88h-3Z"/><path d="M684.86,183.9c0-2.16,1.72-3.24,5.76-3.68,0-1-.44-1.84-1.76-1.84a5.53,5.53,0,0,0-2.76.92l-.84-1.56a7.68,7.68,0,0,1,4-1.28c2.44,0,3.68,1.52,3.68,4.26v5.82h-1.92l-.2-1.08h-.08a4.58,4.58,0,0,1-3,1.32A2.76,2.76,0,0,1,684.86,183.9Zm5.76,0v-2.08c-2.68.32-3.48.92-3.48,1.92,0,.84.56,1.16,1.36,1.16A2.93,2.93,0,0,0,690.62,183.9Z"/><path d="M695.7,176.7h1.94l.18,1.76h.06a3.41,3.41,0,0,1,2.8-2,2.81,2.81,0,0,1,1.12.2l-.48,2a3.25,3.25,0,0,0-.94-.12c-.78,0-1.72.52-2.3,2v6H695.7Z"/><path d="M702.38,181.62c0-3.2,2.24-5.16,4.54-5.16,2.66,0,4.1,1.92,4.1,4.68a5.29,5.29,0,0,1-.12,1.2h-6.2a2.74,2.74,0,0,0,2.84,2.6,4.12,4.12,0,0,0,2.28-.68l.8,1.48a5.71,5.71,0,0,1-3.4,1C704.5,186.78,702.38,184.9,702.38,181.62Zm6.56-1c0-1.44-.68-2.28-2-2.28a2.35,2.35,0,0,0-2.28,2.28Z"/><path d="M713.18,172.42h2.38v3.64l-.1,1.88a4.5,4.5,0,0,1,3.12-1.48c2.12,0,3,1.44,3,3.92v6.16h-2.36v-5.86c0-1.6-.46-2.18-1.5-2.18a2.94,2.94,0,0,0-2.2,1.2v6.84h-2.38Z"/><path d="M723.72,181.64c0-3.28,2.24-5.18,4.7-5.18s4.68,1.9,4.68,5.18-2.24,5.14-4.68,5.14S723.72,184.9,723.72,181.64Zm7,0c0-2-.84-3.24-2.26-3.24s-2.26,1.28-2.26,3.24.84,3.22,2.26,3.22S730.68,183.58,730.68,181.64Z"/><path d="M735.24,182.86V176.7h2.36v5.86c0,1.6.46,2.2,1.5,2.2.86,0,1.42-.4,2.14-1.34V176.7h2.36v9.84h-1.94l-.18-1.44h-.06a4,4,0,0,1-3.16,1.68C736.16,186.78,735.24,185.34,735.24,182.86Z"/><path d="M745.54,185.34l1-1.34a4.2,4.2,0,0,0,2.76,1c1,0,1.54-.48,1.54-1.14,0-.82-1-1.14-2.06-1.54-1.42-.52-2.74-1.34-2.74-2.9,0-1.72,1.4-3,3.6-3a5,5,0,0,1,3.28,1.2l-1,1.34a3.58,3.58,0,0,0-2.2-.76c-1,0-1.42.48-1.42,1.06s.7,1,1.94,1.42c1.52.52,2.86,1.3,2.86,3s-1.36,3.06-3.86,3.06A5.48,5.48,0,0,1,745.54,185.34Z"/><path d="M754.5,181.62c0-3.2,2.24-5.16,4.54-5.16,2.66,0,4.1,1.92,4.1,4.68a5.29,5.29,0,0,1-.12,1.2h-6.2a2.74,2.74,0,0,0,2.84,2.6,4.12,4.12,0,0,0,2.28-.68l.8,1.48a5.71,5.71,0,0,1-3.4,1C756.62,186.78,754.5,184.9,754.5,181.62Zm6.56-1c0-1.44-.68-2.28-2-2.28a2.35,2.35,0,0,0-2.28,2.28Z"/><polygon points="294.04 166.98 278.02 150.34 281 163.67 212.45 163.67 212.45 170.29 281 170.29 278.02 183.62 294.04 166.98"/><polygon points="588.42 166.98 572.18 150.34 575.2 163.67 505.65 163.67 505.65 170.29 575.2 170.29 572.18 183.62 588.42 166.98"/></svg>