<svg version="1.1" id="data-eye" xmlns="http://www.w3.org/2000/svg" x="0" y="0" viewBox="0 0 100 100" xml:space="preserve"><style>.st2{fill:none;stroke:#fbbe18;stroke-width:1.3607;stroke-miterlimit:10}</style><path d="M90.2 50.5S72.4 72.2 50.5 72.2 10.8 50.5 10.8 50.5s17.8-21.7 39.7-21.7 39.7 21.7 39.7 21.7z" fill="none" stroke="#4b5459" stroke-width="3.275" stroke-miterlimit="10"/><circle cx="50.5" cy="49.9" r="20.1" fill="none" stroke="#4b5459" stroke-width="2.183" stroke-miterlimit="10"/><path class="st2" d="M39.3 40.1l1.8-1h.5v8.3M39.3 53.6l1.8-1h.5v8.3M45 53.6l1.8-1h.4v8.3M58.6 53.6l1.8-1h.5v8.3M52.5 40.1l1.7-1h.5v8.3M57.9 40.1l1.7-1h.5v8.3"/><ellipse class="st2" cx="47.9" cy="42.9" rx="2.3" ry="3.9"/><ellipse class="st2" cx="53.6" cy="56.3" rx="2.3" ry="3.9"/></svg>