<svg id="lego" xmlns="http://www.w3.org/2000/svg" viewBox="0 0 100 100"><path d="M-.1-.4h100v99.9H-.1V-.4z" fill="none"/><path class="stroke-main" fill="none" stroke-width="4" stroke-miterlimit="10" d="M49.2 61.2v21.9M36.8 29.3l6.2-4m30.2 11.5l6.5 4.2v22.8L49.2 83.7 18.7 63.8V41l7.2-4.7m30.3-10.6l5.9 3.8"/><path class="stroke-main" fill="none" stroke-width="4" stroke-miterlimit="10" d="M18.7 41l30.5 19.8L79.8 41"/><ellipse class="stroke-accent" fill="none" stroke-width="4" cx="49.6" cy="22.9" rx="6.6" ry="4.3"/><path class="stroke-accent" fill="none" stroke-width="4" d="M43 22.9v4.6c0 2.4 3 4.3 6.6 4.3s6.6-1.9 6.6-4.3v-4.6"/><ellipse class="stroke-accent" fill="none" stroke-width="4" cx="32.6" cy="32.7" rx="6.6" ry="4.3"/><path class="stroke-accent" fill="none" stroke-width="4" d="M26 32.7v4.6c0 2.4 3 4.3 6.6 4.3s6.6-1.9 6.6-4.3v-4.6"/><ellipse class="stroke-accent" fill="none" stroke-width="4" cx="66.6" cy="32.7" rx="6.6" ry="4.3"/><path class="stroke-accent" fill="none" stroke-width="4" d="M60 32.7v4.6c0 2.4 3 4.3 6.6 4.3s6.6-1.9 6.6-4.3v-4.6"/><ellipse class="stroke-accent" fill="none" stroke-width="4" cx="49.6" cy="43.4" rx="6.6" ry="4.3"/><path class="stroke-accent" fill="none" stroke-width="4" d="M43 43.4V48c0 2.4 3 4.3 6.6 4.3s6.6-1.9 6.6-4.3v-4.6"/></svg>