<svg version="1.1" id="multi-use" xmlns="http://www.w3.org/2000/svg" x="0" y="0" viewBox="0 0 100 100" xml:space="preserve"><style>.st0,.st1,.st2,.st3{fill:none;stroke:#fbbe18;stroke-width:3.1983;stroke-miterlimit:10}.st1,.st2,.st3{stroke:#4b5459}.st2,.st3{stroke:#fbbe18;stroke-width:2.6653}.st3{stroke:#4b5459}</style><path class="st0" d="M50.4 31.5c7.7 0 14.5 4.6 17.4 11.3"/><path class="st1" d="M31.4 50.4c0-7.4 4.5-14.2 11-17.2"/><path class="st0" d="M50.1 69.5c-7.4 0-14.2-4.7-17.2-11.3"/><path class="st1" d="M69.3 50.5c0 7.7-4.6 14.4-11.3 17.3"/><path class="st2" d="M56.1 18.7L50.4 13l-5.8 5.8M50.4 13v20.2M44.4 82.3l5.8 5.8 5.8-5.8M50.1 67.8V88"/><g><path class="st3" d="M18.5 44.7l-5.8 5.8 5.8 5.8M12.8 50.4h20.1"/></g><g><path class="st3" d="M82 55.8l5.8-5.8-5.8-5.7M67.6 50.1h20.2"/></g></svg>