<svg version="1.1" id="speedometer" xmlns="http://www.w3.org/2000/svg" x="0" y="0" viewBox="0 0 100 100" xml:space="preserve"><style>.st2{fill:none;stroke:#4b5459;stroke-width:5.3869;stroke-miterlimit:10}</style><path d="M81 73.8c3.1-5.4 4.7-11.5 4.7-17.8 0-19.7-16-35.8-35.8-35.8S14.2 36.3 14.2 56c0 6.3 1.6 12.4 4.7 17.8l13.3-4.1" fill="none" stroke="#4b5459" stroke-width="3.367" stroke-miterlimit="10"/><path d="M59.1 57.4c.1-.5.1-1.1.1-1.6-.1-5.1-4.2-9.1-9.4-8.9-5.2.2-9.1 4.4-8.9 9.4s4.2 9.1 9.4 8.9c1.1 0 2.1-.3 3-.6L77.9 78 59.1 57.4z" fill="none" stroke="#fbbe18" stroke-width="3.367" stroke-miterlimit="10"/><path class="st2" d="M14.2 56h7.4M78.3 56h7.4M74.5 41.9l6.5-3.7M64.2 31.5l3.7-6.4M50 27.7v-7.4M35.8 31.5l-3.7-6.4M25.5 41.8L19 38.1"/></svg>