<svg id="Layer_1" data-name="Layer 1" xmlns="http://www.w3.org/2000/svg" viewBox="0 0 100 100"><defs><style>.cls-1,.cls-2,.cls-3,.cls-4{fill:none;}.cls-2,.cls-4{stroke:#fff;}.cls-2,.cls-3,.cls-4{stroke-miterlimit:10;}.cls-2,.cls-3{stroke-width:2.5px;}.cls-3{stroke:#fdcf42;}.cls-4{stroke-width:4px;}</style></defs><title>umbrella-check</title><rect class="cls-1" x="-0.07" y="-0.25" width="100.01" height="99.89"/><path class="cls-2" d="M63,54.71c.15-1.68.23-3.41.23-5.18,0-16.48-6.58-29.84-14.68-29.84S33.82,33.05,33.82,49.53c0,1.77.08,3.5.23,5.18"/><line class="cls-3" x1="48.5" y1="14.12" x2="48.5" y2="19.69"/><path class="cls-3" d="M37.61,78.23v1.63A5.42,5.42,0,0,0,43,85.28h0a5.42,5.42,0,0,0,5.42-5.42V50"/><path class="cls-4" d="M37.61,78.23v1.63A5.42,5.42,0,0,0,43,85.28h0a5.42,5.42,0,0,0,5.42-5.42V70.54"/><path class="cls-2" d="M65.79,24.48A33.4,33.4,0,0,0,15.15,52.94s4-4.65,9.56-3.89c7.14,1,9.23,5.81,9.23,5.81C36.88,52,42.36,50,48.5,50s11.62,1.88,14.55,4.71c0,0,2.1-4.92,9.24-5.88,5.58-.74,9.55,4,9.55,4a32.89,32.89,0,0,0-3.39-14.59"/><path class="cls-3" d="M70.89,27.8l4,4L85.14,20.87"/><circle class="cls-3" cx="78.46" cy="26.13" r="12.49"/></svg>