<svg id="Layer_1" data-name="Layer 1" xmlns="http://www.w3.org/2000/svg" viewBox="0 0 100 100"><defs><style>.cls-1,.cls-2,.cls-3{fill:none;}.cls-2{stroke:#00c3cd;}.cls-2,.cls-3{stroke-miterlimit:10;stroke-width:2.45px;}.cls-3{stroke:#777;}</style></defs><title>cloud-sync</title><rect class="cls-1" x="-0.09" y="-0.25" width="100.01" height="99.89"/><path class="cls-2" d="M61.07,67.15l-4.88,4.63,4.63,4.88"/><path class="cls-2" d="M57.35,71.93A19.44,19.44,0,0,0,78.47,52.66"/><path class="cls-2" d="M42.25,34.6,47.13,30,42.49,25.1"/><path class="cls-2" d="M46,29.83A19.4,19.4,0,0,0,24.85,49.1"/><path class="cls-3" d="M22.19,81.55c2.53,0,13.8,0,16.34,0V81.3c-1.46-.32-4.74-1.75-4.77-4.87V75.9h14a.72.72,0,0,0,.71-.72V54.64a.69.69,0,0,0-.21-.51h0a.73.73,0,0,0-.5-.21H13a.75.75,0,0,0-.51.21.74.74,0,0,0-.21.51V75.18a.72.72,0,0,0,.72.72H26.67v.53c0,3.1-3.09,4.53-4.48,4.87Z"/><path class="cls-3" d="M53.41,36.9a5.16,5.16,0,0,0,0,10.32h31a7.4,7.4,0,1,0,0-14.79l-.57,0-.1-.57a8.92,8.92,0,0,0-17.59-1.59l-.19.79-.69-.42a6.63,6.63,0,0,0-10.1,5.67V37l-.7,0A5.1,5.1,0,0,0,53.41,36.9Z"/></svg>