<svg xmlns="http://www.w3.org/2000/svg" viewBox="0 0 100 100"><defs><style>.cls-1,.cls-2,.cls-3{fill:none;}.cls-2{stroke:#777;stroke-width:2.5px;}.cls-2,.cls-3{stroke-miterlimit:10;}.cls-3{stroke:#00c3cd;stroke-width:2.26px;}</style></defs><title>lego</title><rect class="cls-1" x="-0.09" y="-0.38" width="100.01" height="99.89"/><line class="cls-2" x1="49.24" y1="61.2" x2="49.24" y2="83.06"/><line class="cls-2" x1="36.77" y1="29.27" x2="42.93" y2="25.3"/><polyline class="cls-2" points="73.21 36.75 79.75 41 79.75 63.85 49.24 83.67 18.73 63.85 18.73 41 25.89 36.35"/><line class="cls-2" x1="56.18" y1="25.7" x2="62.06" y2="29.5"/><polyline class="cls-2" points="18.73 41 49.24 60.82 79.75 41"/><ellipse class="cls-3" cx="49.6" cy="22.92" rx="6.61" ry="4.33"/><path class="cls-3" d="M43,22.92v4.61c0,2.39,3,4.33,6.61,4.33s6.6-1.92,6.6-4.33V22.92"/><ellipse class="cls-3" cx="32.62" cy="32.7" rx="6.61" ry="4.33"/><path class="cls-3" d="M26,32.7v4.61c0,2.42,3,4.34,6.61,4.34s6.59-1.92,6.59-4.34V32.7"/><ellipse class="cls-3" cx="66.62" cy="32.7" rx="6.61" ry="4.33"/><path class="cls-3" d="M60,32.7v4.61c0,2.42,3,4.34,6.61,4.34s6.61-1.92,6.61-4.33V32.71"/><ellipse class="cls-3" cx="49.6" cy="43.44" rx="6.61" ry="4.33"/><path class="cls-3" d="M43,43.44V48c0,2.41,3,4.35,6.61,4.35s6.6-1.93,6.6-4.35V43.44"/></svg>