<svg version="1.1" id="Layer_1" xmlns="http://www.w3.org/2000/svg" x="0" y="0" viewBox="0 0 250 58.8" xml:space="preserve"><path fill="#ffffff" d="M117.5 38.8l-3.5 7.6h2.6l.5-1.2h3.4l.5 1.2h2.6l-3.4-7.6h-2.7zm.1 5l1.2-3 1.2 3h-2.4zM125.6 12h-4.7v19h14.5v-3.4h-9.8zM78.5 27.2H87l1.6 3.8h5.1l-8.5-19h-5.5L72 31h5.1l1.4-3.8zm4.1-10.6l3 7.4h-5.9l2.9-7.4zM140.2 41.2c0-.4.3-.5.7-.5.7 0 1.4.4 2 .9v-2c-.7-.5-1.5-.8-2.3-.8-2.1 0-2.7 1.3-2.7 2.2 0 2.2 2.9 2.3 2.9 3.1 0 .2-.3.5-.8.5-.8 0-1.5-.3-2.1-.8V46c.8.4 1.7.6 2.6.6 2 0 2.7-1.2 2.7-2.2-.2-2.3-3-2.3-3-3.2zM90.4 38.8l-3.5 7.6h2.6l.5-1.2h3.4l.5 1.2h2.6l-3.4-7.6h-2.7zm.1 5l1.2-3 1.2 3h-2.4zM101.1 40.8h2.3v5.6h2.6v-5.6h2.4v-2h-7.3zM114.9 27.6h-9.8V12h-4.8v19h14.6zM78 38.8h-4.1v7.6h4.3c1.9.1 3.5-1.4 3.6-3.3v-.4c0-2.1-1.7-3.9-3.8-3.9zm1.1 3.9c0 1.4-.5 2-1.8 2l-.7-.1v-3.9h.7c1-.1 1.8.7 1.8 1.6v.4zM205.4 42l-2.2-3.2h-2.3v7.5h2.6l-.1-3.9h.1l1.9 2.8 2.1-2.8-.1 4h2.6v-7.5h-2.3zM203.5 46.3v.1zM188.4 46.3h5.6v-1.5h-3v-1.5h2.7v-1.5H191v-1.3h3v-1.7h-5.6zM219.2 41.2c0-.4.4-.5.8-.5.7.1 1.4.4 1.8.9v-2c-.7-.5-1.5-.8-2.4-.8h-.2c-1.3 0-2.3 1-2.4 2.2 0 2.2 2.7 2.3 2.7 3.1-.1.3-.3.5-.7.5-.8 0-1.5-.3-2.1-.8V46c.8.4 1.7.6 2.6.5 2 0 2.7-1.2 2.7-2.2.2-2.2-2.8-2.2-2.8-3.1zM153.3 41.4l-1.4-2.6h-3.1l2.8 4.2v3.4h2.6v-3.3l3-4.3h-2.6zM165.3 41.2c0-.4.3-.5.7-.5.7 0 1.4.4 1.9.9v-2c-.7-.5-1.5-.8-2.3-.8-2.1 0-2.7 1.3-2.7 2.2 0 2.2 2.9 2.3 2.9 3.1 0 .2-.3.5-.8.5-.8 0-1.5-.3-2.1-.8V46c.8.4 1.7.5 2.6.5 2 0 2.7-1.2 2.7-2.2 0-2.2-2.9-2.2-2.9-3.1zM174.4 40.8h2.4v5.6h2.6v-5.6h2.3v-2h-7.3zM141.5 12h4.8v19h-4.8zM214.6 21.5c0-3.4 2.9-5.7 6.9-5.7 2.3.1 4.6.8 6.5 2v-4.3c-2.1-1.2-4.5-1.7-6.9-1.7-7.3 0-11.5 4.8-11.5 9.9 0 4.8 3.8 9.6 11.1 9.6 2.6 0 5.2-.6 7.5-1.8v-4.2c-2.7 1.3-4.4 2.1-6.9 2.1-3.9-.1-6.7-2.6-6.7-5.9zM240.6 27.6v-4.7h8.7v-3.4h-8.7v-4h9.1V12h-13.8v19H250v-3.4zM167.9 12h-5.5l-7.7 19h5l1.4-3.8h8.6l1.6 3.8h5.1l-8.5-19zm-5.4 12l2.7-7.4 3.1 7.4h-5.8zM202.3 12h-4.7v11.7L187.4 12H183v19h4.9V18.9L198.3 31h4z"/><g><path fill="#ffffff" d="M26.2 21l3.1 5.9 3.3-5.9c-1.8-4.5-3.1-7.5-3.3-7.8 0 .2-1.3 3.2-3.1 7.8zM36.1 29.7C35 27.1 34 24.5 33 21.9l-2.6 6.8 3.1 5.7 2.6-4.7zM22.3 30.6c-3 7.4-6.4 15.9-9.4 23.1.5.3.9.7 1.4.9l9.9-18.4-1.9-5.6z"/><path fill="#ffffff" d="M50 8.5C38.5-2.9 19.9-2.8 8.5 8.7 3.1 14.2 0 21.6 0 29.3 0 37 3.1 44.5 8.5 50l20.7-37.9.1-.3s.1.3.3.3L50.3 50C61.7 38.5 61.6 19.8 50 8.5z"/><path fill="#ffffff" d="M22.7 29.7l2.6 4.7 3.1-5.7-2.6-6.8c-1 2.6-2.1 5.2-3.1 7.8zM27 37.5l2.3 4.5 2.5-4.5-2.5-6.4zM25.8 40.3l-6.4 16.6c.5.2.9.4 1.4.5l6.6-12.1-1.6-5zM34.4 36.2l9.9 18.4c.4-.3.9-.7 1.4-.9-3-7.2-6.4-15.7-9.3-23l-2 5.5zM36.4 30.6s0 .1 0 0zM31.3 45.4l6.6 12.1c.5-.1 1-.3 1.4-.5L33 40.4l-1.7 5zM26.5 58.6c.9 0 1.8.1 2.7.1.9 0 2-.1 2.9-.1l-2.9-8.1-2.7 8.1z"/></g></svg>