<svg id="fd7be8e0-5ea5-4cd2-b203-b339d6601731" data-name="Layer 1" xmlns="http://www.w3.org/2000/svg" viewBox="0 0 1036.43 1036.43"><path d="M0,507.94c.41-3.44,1.06-6.88,1.19-10.33A518.8,518.8,0,0,1,308.39,44.55,506.88,506.88,0,0,1,424.87,8.66C465.64,1.31,506.71-1.64,548.05.89,595.9,3.83,642.61,12.73,688,28.55A519.67,519.67,0,0,1,975.76,274.9a508.6,508.6,0,0,1,53.07,155.53c6.54,38.69,9.11,77.63,6.72,116.79-3.67,60.25-16.83,118.34-40.72,173.91A519.86,519.86,0,0,1,706,1000.67a499.36,499.36,0,0,1-108.61,29.09c-21.66,3.22-43.7,3.89-65.56,5.74-2.13.18-4.25.61-6.37.93h-14c-2.12-.32-4.24-.72-6.37-.93-24.79-2.45-49.75-3.78-74.35-7.52-52.35-8-101.9-25.19-148.94-49.37A516.93,516.93,0,0,1,1.19,538.25C1.06,534.8.41,531.36,0,527.92ZM518.48,32.41C250.59,32.43,33.05,249.74,33,517.71c0,268.35,217.21,485.59,485.53,485.7C786.42,1003.52,1003.9,786,1004,518.15,1004.13,250.06,786.56,32.4,518.48,32.41Z" style="fill:#fff"/><path d="M211.91,517.84c-.11-171.79,142.34-314.13,321.54-306.19,161.4,7.16,299.11,143.61,291.21,321.15-7.14,160.34-142.07,299-321,291.35C340.74,817.14,211.42,682,211.91,517.84Zm306.34.3a6.74,6.74,0,0,0-.14,1q0,142.82-.1,285.62c0,3.27,1.06,4.53,4.31,4.26,12.07-1,24.2-1.53,36.21-3,46-5.73,87.72-22.6,125.64-48.91A291,291,0,0,0,809.43,524.35c.16-6.73,0-6.74-6.72-6.74H523.58c-1.66,0-3.32.12-5,.18a4.26,4.26,0,0,0,.06-.5q0-143.05.14-286.12c0-3.24-1-4.54-4.28-4.26-12.07,1-24.21,1.49-36.22,3-46.47,5.84-88.6,23-126.85,49.79a288.49,288.49,0,0,0-76.58,79.14c-30.35,46.42-46,97.37-47.47,152.72-.18,6.72-.05,6.73,6.73,6.73H513.26C514.93,518.29,516.59,518.2,518.25,518.14Z" style="fill:#fff"/><path d="M268.44,203.71c6-.52,11.41-1.54,16.81-1.38,20,.59,33.88,21.14,27.38,40.12-3.13,9.15-8.66,16.77-15.23,23.74q-31.35,33.22-62.62,66.51c-.89.95-1.95,1.75-3.36,3l-88.25-83.13c5.39-6.64,10.21-13.21,15.68-19.19,16.49-18,33-36.08,50-53.61,7.85-8.09,17.48-14,29.39-14.12,19.54-.26,33.62,16.43,30.31,35.73A18.61,18.61,0,0,0,268.44,203.71ZM214.25,280.2c6,5.68,11.37,10.89,17,15.79.81.7,3.6.48,4.38-.35q23.67-24.93,47-50.2a24.53,24.53,0,0,0,4.79-8.59c2.08-6.08-.53-11.46-6.37-13.84-6.8-2.77-12,.64-16.52,5.06-8.29,8.15-16.29,16.59-24.34,25C231.64,261.88,223.22,270.78,214.25,280.2Zm36-76.62c-1-10-9.3-15.47-17.82-11.44a19.26,19.26,0,0,0-5.73,3.9c-15.05,16-30,32-45,48-2,2.14-2,3.89.23,5.89,4.19,3.79,8.36,7.61,12.32,11.65,2.24,2.28,3.8,2.44,6.07,0,14.61-15.68,29.47-31.14,43.92-47C247,211.62,248.32,207.3,250.27,203.58Z" style="fill:#fff"/><path d="M515.68,137.44c4.65-11.46,9-22.19,13.35-32.93,4.92-12.18,9.85-24.36,14.67-36.58,1-2.48,2.23-3.78,5.12-3.53,11.1.93,22.21,1.65,33.31,2.55,2.66.21,5,.49,5.1,4.47,1.22,38.08,2.66,76.16,4,114.24.06,1.8,0,3.6,0,6.25l-17-2.23c-.33-.05-.64-.19-1-.24-10.91-1.95-11-1.95-11.36-13.34q-1.19-36.93-2.27-73.85c0-.81-.16-1.62-.35-3.47a36.31,36.31,0,0,0-2.1,3.4c-8.94,19.86-17.9,39.72-26.7,59.64-1.48,3.34-3.41,4.91-7.16,4.72-5.15-.26-10.33-.24-15.48,0-3.52.16-5.43-1.23-6.83-4.4-8.91-20.07-18-40.07-27-60.09-.43-1-1-1.83-2.07-3.63-1,28.51-1.91,55.88-2.84,83.26-.22,6.65-.31,6.6-7.16,7.32-5.77.61-11.5,1.64-17.25,2.45-1.41.19-2.85.22-4.17.32,0-7.8-.2-15.07,0-22.33q1.56-47.64,3.34-95.27c.22-6.36.83-7,7.24-7.47,9.94-.76,19.92-1.19,29.83-2.3,4.27-.48,5.65,1.18,7.07,4.78C497,91.7,506.23,114.12,515.68,137.44Z" style="fill:#fff"/><path d="M790,325c-5.69-6.68-11.17-13.09-16.63-19.53-5.61-6.63-5.64-6.67-1.57-14.51,9.86-19,19.76-38,30.2-58l-27.67,14.27c-12,6.17-23.92,12.41-36,18.37a5.81,5.81,0,0,1-5.08-.69c-6.91-5.47-13.54-11.3-20.36-16.88-2.11-1.74-2.87-3.14-1.15-5.8q31.46-48.9,62.71-97.92c.27-.42.47-.89,1-1.89l23.71,19c-15.54,23.3-30.79,46.18-46.79,70.19l21.82-10.84c12.66-6.29,25.35-12.5,37.94-18.93,2.51-1.28,4.15-1.11,6.09.88,4.75,4.9,9.58,9.72,14.55,14.39,2.47,2.31,2.09,4.45.74,7.08q-14.12,27.52-28.09,55.12c-.34.66-.54,1.4-1.25,3.26l70.42-46.21,19,23.31Z" style="fill:#fff"/></svg>