<svg id="a356acf4-8b3e-4b94-844e-72a9a61ace79" data-name="Layer 1" xmlns="http://www.w3.org/2000/svg" viewBox="0 0 1036.43 194.89"><path d="M865.15,8.42V194.89L749.63,81.55l-.21.77v.9a21.64,21.64,0,0,0-.3,2.52v109h-32.4a8.83,8.83,0,0,1-.37-1.84V8.32l1.71,1.61L797.9,88.32l32.84,32.17,1.2,1h.17V8.42Z" style="fill:#fff"/><path d="M148.28,58.1c-3.86-3.89-7.41-8-11.44-11.47a53.64,53.64,0,0,0-29.35-13,70.9,70.9,0,0,0-14.12-.41A58.71,58.71,0,0,0,64.15,44a65.28,65.28,0,0,0-12.27,96.27A59.72,59.72,0,0,0,85,160.61c5.44,1.24,11.07,1.71,16.78,2.55-.24.6-.61,1.61-1,2.62-3.56,8.78-7.11,17.61-10.74,26.39-1.24,3-.7,2.92-4.29,2.42a98.63,98.63,0,0,1-25-6.71q-46.85-19.77-58.34-69.6c-1.1-4.87-1.4-10.07-2-14.93A78.78,78.78,0,0,1,2.2,77.79,93.89,93.89,0,0,1,28.63,28.45,95.54,95.54,0,0,1,77.07,2.35,92.81,92.81,0,0,1,102.16.1a154.71,154.71,0,0,1,17.41,2.28A90.52,90.52,0,0,1,162,22.84c.88.71,1.28,1.28.78,2.49C158,36.13,153.25,47,148.48,57.83A1.35,1.35,0,0,1,148.28,58.1Z" style="fill:#fff"/><path d="M470.14,194.49h-.61l-.47-.24c-3.35-8.38-6.71-16.77-10.29-25.19-1.28-3.05-2.52-6.1-3.76-9.15a3.07,3.07,0,0,0-1-.41H416.13a7.26,7.26,0,0,1,.2-1.91l10.07-24.52h17.17l.4-.3c-3.65-8.92-7.31-17.81-10.93-26.84C430,98.39,427,90.8,424,83.22c0-.37-.31-.73-.67-1.51-1.28,3.09-2.45,5.84-3.59,8.62q-13.19,32.25-26.3,64.48-7.75,19-15.43,38.07c-.41,1-.74,1.84-2.18,1.81H341.9q41.33-93.39,82.65-187c2.31,5.44,4.5,10.47,6.71,15.53l30.19,70.65,31.56,74,10.77,25.33a5.93,5.93,0,0,1,.37,1.1H471.88A16.92,16.92,0,0,0,470.14,194.49Z" style="fill:#fff"/><path d="M240.09,194.22q-6.71-16.77-13.62-33.54a7.16,7.16,0,0,0-.43-.88,19.78,19.78,0,0,0-2.28-.4h-36.2c0-.33-.4-.74-.3-1,3.35-8.22,6.71-16.47,10.33-24.66.2-.47,1.21-.84,1.88-.84h16.1c-6.94-17.11-13.82-34-20.8-51.29-.37.74-.6,1.14-.8,1.58q-13.89,34.11-27.81,68.19c-5.64,13.83-11.3,27.68-16.77,41.53-.44,1-.77,1.65-2.08,1.61h-34L195.91,7.58l4.83,11.14,19.16,45,30.19,70.84L275,192.88l.3.94a9,9,0,0,1-1.85.4Z" style="fill:#fff"/><path d="M877.83,194.22,959.78,8.65l76.65,186h-33.51a2,2,0,0,1-2.38-1.64c-3.36-10.4-6.71-20.73-10.07-31.13a2.41,2.41,0,0,0-2.73-2h-37c1.38-3.35,2.68-6.7,4-9.72,2.05-5,4.19-9.9,6.17-14.93a2.48,2.48,0,0,1,2.79-1.81H979.4c-6.91-17.08-13.75-33.88-20.73-51.06l-2.28,5.44-29.11,71.45-14.43,35.29H879.31A6.18,6.18,0,0,1,877.83,194.22Z" style="fill:#fff"/><path d="M240.06,39.11a5.9,5.9,0,0,1-1.21-1.47c-3.35-8.86-6.41-17.68-9.59-26.54a21.81,21.81,0,0,1-1-2.34c0-.31.37-.74.57-1.11a18.18,18.18,0,0,0,2.32.3h154a15.24,15.24,0,0,0,2.12-.3H389L377.69,38.78H327.07a8.83,8.83,0,0,0-1.84.37l.06.47a21.22,21.22,0,0,0-.3,2.51V194.66H292.12v-153a12.42,12.42,0,0,0-.44-2.42h-.37a12.25,12.25,0,0,0-1.91-.3H242A9.75,9.75,0,0,0,240.06,39.11Z" style="fill:#fff"/><path d="M550.21,8.79V164.23l.3.34H645.2v29.85H517.4V8.79Z" style="fill:#fff"/><path d="M661.74,9.43V8.29h32.54v186.3H661.91V12.34C661.84,11.44,661.77,10.5,661.74,9.43Z" style="fill:#fff"/></svg>