<svg version="1.1" id="Layer_1" xmlns="http://www.w3.org/2000/svg" x="0" y="0" viewBox="0 0 275 60.5" xml:space="preserve"><style>.st0{fill:#fff}</style><path class="st0" d="M157 38.8v1.9h3.3v9h2.1v-9h3.4l-.3-1.9zM170.7 45h3.6l-.3-1.8h-3.3v-2.6h4.3v-1.8h-6.3v10.9h6.5V48h-4.5zM173.6 25.3c0-3.3-2-5.6-5.1-5.6-3.1 0-5.1 2.3-5.1 5.7 0 3.3 2 5.6 5.1 5.6 3.1 0 5.1-2.3 5.1-5.7zm-5.1 4c-1.9 0-3-1.5-3-3.9s1.1-3.9 3-3.9c1.8 0 3 1.5 3 3.9s-1.1 3.9-3 3.9zM137.6 45h3.6l-.3-1.8h-3.3v-2.6h4.3v-1.8h-6.3v10.9h6.4V48h-4.4zM152.1 46l-4.9-7.2h-2v10.9h1.9v-7.5l5.2 7.5h1.7V38.8h-1.9zM198.9 29h-4.4v-3h3.6l-.3-1.7h-3.3v-2.6h4.3v-1.8h-6.4v10.9h6.5zM127.2 43.7l-1.7-.4c-.1 1-.3 1.8-.6 2.5l-2.6-2.8c-.6-.7-.9-1.1-.9-1.6 0-.7.4-1.1 1.2-1.1.8 0 1.5.3 2.4.8l.3-1.8c-.7-.4-1.7-.7-2.8-.7-2 0-3.1 1.3-3.1 2.7 0 1 .3 1.6 1 2.4-1.4.6-2.3 1.7-2.3 3.2 0 1.9 1.4 3 3.6 3 1.3 0 2.4-.5 3.3-1.4l1.3 1.3 2.1-.3-2.3-2.4c.5-1 .9-2.1 1.1-3.4zm-5.4 4.7c-1.1 0-1.8-.7-1.8-1.6 0-.8.5-1.5 1.4-2l2.5 2.6c-.6.6-1.3.9-2.1 1zM157.7 31c1.3 0 2.4-.4 3.3-.9l-.3-1.8c-.9.5-1.8.9-2.8.9-2 0-3.2-1.4-3.2-3.8 0-2.3 1.2-3.8 3.2-3.8 1.1 0 1.9.5 2.6 1l.3-2c-.8-.5-1.8-.8-3-.8-3.2 0-5.2 2.2-5.2 5.6 0 3.4 1.9 5.6 5.1 5.6zM150.5 28.9h-3.7v-9h-2.1v10.9h6zM141.6 29h-4.4v-3h3.5l-.3-1.7h-3.2v-2.6h4.2v-1.8h-6.3v10.9h6.5zM128.3 19.9l-2.8 8.2-2.8-8.2h-2.6l-.8 10.9h1.8l.6-8 2.7 8h1.9l2.7-8 .6 8h2.1l-.8-10.9zM201.8 38.9l-4.1 10.9h2.1l.9-2.8h4.1l1.1 3 2.1-.4-4-10.7h-2.2zm-.6 6.4l1.4-4.2 1.5 4.2h-2.9zM246.9 45h3.5l-.3-1.8h-3.2v-2.6h4.2v-1.8h-6.3v10.9h6.5V48h-4.4zM232.9 30.6l-2.9-4.3c1.3-.5 2.2-1.5 2.2-3.1 0-2.1-1.5-3.3-3.9-3.3h-3.4v10.9h2.1v-4.2h.9l2.8 4.4 2.2-.4zm-4.8-5.6H227v-3.4h1.1c1.4 0 2.1.6 2.1 1.6 0 1.2-.8 1.8-2.1 1.8zM238 38.8l-2.8 8.2-2.8-8.2h-2.6l-.8 10.9h1.8l.6-8 2.7 8.1h1.9l2.7-8.1.6 8h2.1l-.8-10.9zM234.7 19.9v1.8h3.3v9.1h2.1v-9.1h3.4l-.3-1.8zM274.7 38.8h-8.4v1.9h3.2v9h2.1v-9h3.4zM261.3 46l-4.9-7.2h-2v10.9h2v-7.5l5.1 7.5h1.7V38.8h-1.9zM249.6 24.5c-1.6-.7-1.9-1-1.9-1.7s.5-1.2 1.5-1.2c.9 0 1.8.4 2.6.9l.3-1.9c-.8-.4-1.7-.7-2.9-.7-2 0-3.5 1.1-3.5 3 0 1.6.9 2.3 3 3.2 1.6.7 2 1 2 1.8s-.6 1.3-1.6 1.3c-1.1 0-2.2-.5-3.1-1l-.3 1.9c.9.5 2.1.8 3.4.8 2.1 0 3.7-1.1 3.6-3 0-1.7-.9-2.5-3.1-3.4zM185.6 42.1c0-2.1-1.5-3.3-3.9-3.3h-3.4v11h2.1v-4.2h.9l2.8 4.3 2.2-.4-2.9-4.3c1.3-.5 2.2-1.5 2.2-3.1zm-4.2 1.9h-1.1v-3.5h1.2c1.3 0 2 .6 2 1.7 0 1.2-.8 1.8-2.1 1.8zM223.6 46l-4.9-7.2h-2v10.9h2v-7.5l5.1 7.5h1.7V38.8h-1.9zM186.7 26.3c1.3-.5 2.2-1.5 2.2-3.1 0-2.1-1.5-3.3-3.9-3.3h-3.4v10.9h2.1v-4.2h.9l2.8 4.4 2.2-.4-2.9-4.3zm-1.9-1.3h-1.1v-3.4h1.2c1.3 0 2 .6 2 1.6 0 1.2-.8 1.8-2.1 1.8zM205.5 24.5c-1.6-.7-1.9-1-1.9-1.7s.5-1.2 1.5-1.2c.9 0 1.8.4 2.6.9l.3-1.9c-.8-.4-1.7-.7-2.9-.7-2 0-3.5 1.1-3.5 3 0 1.6.9 2.3 3 3.2 1.6.7 2 1 2 1.8s-.6 1.3-1.6 1.3c-1.1 0-2.2-.5-3.1-1l-.3 1.9c.9.5 2.1.8 3.4.8 2.1 0 3.7-1.1 3.6-3 0-1.7-.9-2.5-3.1-3.4zM188.1 38.8v1.9h3.3v9h2.1v-9h3.3l-.3-1.9zM210.9 38.8h2.1v10.9h-2.1zM221.6 25.3c0-3.3-2-5.6-5.1-5.6-3.1 0-5.1 2.3-5.1 5.7 0 3.3 2 5.6 5.1 5.6 3.1 0 5.1-2.3 5.1-5.7zm-5.1 4c-1.9 0-3-1.5-3-3.9s1.1-3.9 3-3.9 3 1.5 3 3.9-1.1 3.9-3 3.9zM113 32c-1.8-11.7-10.5-20.5-19.8-21.2h-1.3c-9.3 0-16 7.1-22.5 14.2l-.1-.1v-.1c-3.9-3.5-9.6-6.2-14-6.5s-7.4.6-8.8.9C45.1 12 43.1 5.7 38.7 2.3 36.7.8 34.5 0 32 0c-.8 0-1.7.1-2.5.2C11.8 3.5.5 42 .2 51.9c-.1 1.7-.2 6.9 3.7 8.4 1.7.6 3.4 0 5.2-1.5l.5-.5c2.1-2.2 16.6-21.3 31.1-28.5.2 1.2.4 2.3.5 3.5 1.5 8.9 6 20.9 14.7 16.3 4.1-1.8 8-6.1 12.2-11.1l.1-.1.3-.3c.3-.4.9-1 1.5-1.7 0 0 0-.1.1-.1 2.4 3 4.5 6.2 5.5 7.7 2.7 3.7 5.9 8.5 8.9 11.2.5.5 1.2 1.2 2.4 2 .3.2.6.4.8.6.1 0 .1.1.2.1 3.7 2.4 7.7 3.3 12.5 1.5 10.9-4.3 14.2-16.8 12.6-27.4zM39.4 21.8c-.1 0-.1.1-.2.1l-.1.1c-16.5 8.3-29.4 30.1-31 33.5C8.9 51.8 20.5 9.9 30.9 8c1.9-.3 2.9.2 3.5.6 2.4 1.5 4 7.8 5 13.2zm24.5 9.7c-.3.3-.5.7-.6.8l-.2.2c-.4.5-.7 1-1.1 1.5-.1.1-.1.2-.1.2-4.2 6.1-7.3 13.4-9.4 14.3-.1.1-.3.1-.4.1H52c-.1 0-.2 0-.2-.1v-.1c-.1-.1-.2-.3-.2-.4 0-.1-.1-.2-.1-.3 0-.1-.1-.2-.1-.2-.1-.1-.1-.3-.2-.5 0-.1 0-.1-.1-.2-1-3.1-1.9-11.1-2.6-14.8-.2-1.5-.7-4.6-.7-4.9V27c1.3-.3 2.6-.6 3.9-.8 4.9-.5 8.5 1.2 12.7 4.4l.1.1c-.2.2-.4.4-.6.8zm37.7 23.7s0 .1 0 0l-.2.2c-.6.6-2.1 1.8-4.2 2h-.1c-4.7 0-9.1-7.7-15.7-18.1-2.2-3.5-4.5-6.5-6.5-8.8C80.7 24.1 86 18.1 93 18.6c7.1.5 11.8 8.3 12.8 14.5.8 6.2.3 17.2-4.2 22.1z"/></svg>