<svg id="ff0027d8-fc22-4e6d-830f-5ed8589f7eb5" data-name="Layer 1" xmlns="http://www.w3.org/2000/svg" viewBox="0 0 1024 512"><polygon points="997.13 46.55 943.38 46.55 916.51 93.09 943.38 139.64 997.13 139.64 1024 93.09 997.13 46.55" style="fill:none;stroke:#3c4447;stroke-miterlimit:10;stroke-width:0.5px"/><polygon points="997.13 139.64 943.38 139.64 916.51 186.18 943.38 232.73 997.13 232.73 1024 186.18 997.13 139.64" style="fill:none;stroke:#3c4447;stroke-miterlimit:10;stroke-width:0.5px"/><polygon points="916.44 0 862.69 0 835.82 46.55 862.69 93.09 916.44 93.09 943.31 46.55 916.44 0" style="fill:none;stroke:#3c4447;stroke-miterlimit:10;stroke-width:0.5px"/><polygon points="674.51 46.55 620.77 46.55 593.89 93.09 620.77 139.64 674.51 139.64 701.39 93.09 674.51 46.55" style="fill:none;stroke:#3c4447;stroke-miterlimit:10;stroke-width:0.5px"/><polygon points="916.44 279.27 862.69 279.27 835.82 325.81 862.69 372.36 916.44 372.36 943.31 325.81 916.44 279.27" style="fill:none;stroke:#3c4447;stroke-miterlimit:10;stroke-width:0.5px"/><polygon points="835.82 139.64 782.07 139.64 755.2 186.18 782.07 232.73 835.82 232.73 862.69 186.18 835.82 139.64" style="fill:none;stroke:#3c4447;stroke-miterlimit:10;stroke-width:0.5px"/><polygon points="755.25 186.18 701.51 186.18 674.63 232.73 701.51 279.27 755.25 279.27 782.13 232.73 755.25 186.18" style="fill:none;stroke:#3c4447;stroke-miterlimit:10;stroke-width:0.5px"/><polygon points="755.25 93.09 701.51 93.09 674.63 139.64 701.51 186.18 755.25 186.18 782.13 139.64 755.25 93.09" style="fill:none;stroke:#3c4447;stroke-miterlimit:10;stroke-width:0.5px"/><polygon points="835.82 325.82 782.07 325.82 755.2 372.36 782.07 418.91 835.82 418.91 862.69 372.36 835.82 325.82" style="fill:none;stroke:#3c4447;stroke-miterlimit:10;stroke-width:0.5px"/><polyline points="782.13 512 755.25 465.45 701.51 465.45 674.63 512" style="fill:none;stroke:#3c4447;stroke-miterlimit:10;stroke-width:0.5px"/><polygon points="997.13 325.82 943.38 325.82 916.51 372.36 943.38 418.91 997.13 418.91 1024 372.36 997.13 325.82" style="fill:none;stroke:#3c4447;stroke-miterlimit:10;stroke-width:0.5px"/><polygon points="997.13 418.91 943.38 418.91 916.51 465.45 943.38 512 997.13 512 1024 465.45 997.13 418.91" style="fill:none;stroke:#3c4447;stroke-miterlimit:10;stroke-width:0.5px"/><polygon points="674.51 325.81 620.77 325.81 593.89 372.36 620.77 418.9 674.51 418.9 701.39 372.36 674.51 325.81" style="fill:none;stroke:#3c4447;stroke-miterlimit:10;stroke-width:0.5px"/><polygon points="916.44 186.18 862.69 186.18 835.82 232.73 862.69 279.27 916.44 279.27 943.31 232.73 916.44 186.18" style="fill:none;stroke:#3c4447;stroke-miterlimit:10;stroke-width:0.5px"/><line x1="620.77" y1="46.55" x2="647.64" y2="93.09" style="fill:none;stroke:#3c4447;stroke-miterlimit:10;stroke-width:0.5px"/><line x1="620.77" y1="139.64" x2="647.64" y2="93.09" style="fill:none;stroke:#3c4447;stroke-miterlimit:10;stroke-width:0.5px"/><line x1="701.39" y1="93.09" x2="647.64" y2="93.09" style="fill:none;stroke:#3c4447;stroke-miterlimit:10;stroke-width:0.5px"/><line x1="701.42" y1="93.09" x2="728.29" y2="139.64" style="fill:none;stroke:#3c4447;stroke-miterlimit:10;stroke-width:0.5px"/><line x1="701.42" y1="186.18" x2="728.29" y2="139.64" style="fill:none;stroke:#3c4447;stroke-miterlimit:10;stroke-width:0.5px"/><line x1="782.04" y1="139.64" x2="728.29" y2="139.64" style="fill:none;stroke:#3c4447;stroke-miterlimit:10;stroke-width:0.5px"/><line x1="701.39" y1="186.18" x2="728.26" y2="232.73" style="fill:none;stroke:#3c4447;stroke-miterlimit:10;stroke-width:0.5px"/><line x1="701.39" y1="279.27" x2="728.26" y2="232.73" style="fill:none;stroke:#3c4447;stroke-miterlimit:10;stroke-width:0.5px"/><line x1="782.01" y1="232.73" x2="728.26" y2="232.73" style="fill:none;stroke:#3c4447;stroke-miterlimit:10;stroke-width:0.5px"/><line x1="782.09" y1="139.64" x2="808.96" y2="186.18" style="fill:none;stroke:#3c4447;stroke-miterlimit:10;stroke-width:0.5px"/><line x1="782.09" y1="232.73" x2="808.96" y2="186.18" style="fill:none;stroke:#3c4447;stroke-miterlimit:10;stroke-width:0.5px"/><line x1="862.71" y1="186.18" x2="808.96" y2="186.18" style="fill:none;stroke:#3c4447;stroke-miterlimit:10;stroke-width:0.5px"/><line x1="862.69" x2="889.57" y2="46.55" style="fill:none;stroke:#3c4447;stroke-miterlimit:10;stroke-width:0.5px"/><line x1="862.69" y1="93.09" x2="889.57" y2="46.55" style="fill:none;stroke:#3c4447;stroke-miterlimit:10;stroke-width:0.5px"/><line x1="943.31" y1="46.55" x2="889.57" y2="46.55" style="fill:none;stroke:#3c4447;stroke-miterlimit:10;stroke-width:0.5px"/><line x1="943.31" y1="46.55" x2="970.18" y2="93.09" style="fill:none;stroke:#3c4447;stroke-miterlimit:10;stroke-width:0.5px"/><line x1="943.31" y1="139.64" x2="970.18" y2="93.09" style="fill:none;stroke:#3c4447;stroke-miterlimit:10;stroke-width:0.5px"/><line x1="1023.93" y1="93.09" x2="970.18" y2="93.09" style="fill:none;stroke:#3c4447;stroke-miterlimit:10;stroke-width:0.5px"/><line x1="943.42" y1="139.64" x2="970.29" y2="186.18" style="fill:none;stroke:#3c4447;stroke-miterlimit:10;stroke-width:0.5px"/><line x1="943.42" y1="232.73" x2="970.29" y2="186.18" style="fill:none;stroke:#3c4447;stroke-miterlimit:10;stroke-width:0.5px"/><line x1="1024.03" y1="186.18" x2="970.29" y2="186.18" style="fill:none;stroke:#3c4447;stroke-miterlimit:10;stroke-width:0.5px"/><line x1="862.69" y1="186.18" x2="889.57" y2="232.73" style="fill:none;stroke:#3c4447;stroke-miterlimit:10;stroke-width:0.5px"/><line x1="862.69" y1="279.27" x2="889.57" y2="232.73" style="fill:none;stroke:#3c4447;stroke-miterlimit:10;stroke-width:0.5px"/><line x1="943.31" y1="232.73" x2="889.57" y2="232.73" style="fill:none;stroke:#3c4447;stroke-miterlimit:10;stroke-width:0.5px"/><line x1="862.69" y1="279.27" x2="889.57" y2="325.82" style="fill:none;stroke:#3c4447;stroke-miterlimit:10;stroke-width:0.5px"/><line x1="862.69" y1="372.36" x2="889.57" y2="325.82" style="fill:none;stroke:#3c4447;stroke-miterlimit:10;stroke-width:0.5px"/><line x1="943.31" y1="325.82" x2="889.57" y2="325.82" style="fill:none;stroke:#3c4447;stroke-miterlimit:10;stroke-width:0.5px"/><line x1="943.31" y1="325.82" x2="970.18" y2="372.36" style="fill:none;stroke:#3c4447;stroke-miterlimit:10;stroke-width:0.5px"/><line x1="943.31" y1="418.91" x2="970.18" y2="372.36" style="fill:none;stroke:#3c4447;stroke-miterlimit:10;stroke-width:0.5px"/><line x1="1023.93" y1="372.36" x2="970.18" y2="372.36" style="fill:none;stroke:#3c4447;stroke-miterlimit:10;stroke-width:0.5px"/><line x1="943.31" y1="418.91" x2="970.18" y2="465.45" style="fill:none;stroke:#3c4447;stroke-miterlimit:10;stroke-width:0.5px"/><line x1="943.31" y1="512" x2="970.18" y2="465.45" style="fill:none;stroke:#3c4447;stroke-miterlimit:10;stroke-width:0.5px"/><line x1="1023.93" y1="465.45" x2="970.18" y2="465.45" style="fill:none;stroke:#3c4447;stroke-miterlimit:10;stroke-width:0.5px"/><line x1="782.04" y1="325.82" x2="808.91" y2="372.36" style="fill:none;stroke:#3c4447;stroke-miterlimit:10;stroke-width:0.5px"/><line x1="782.04" y1="418.91" x2="808.91" y2="372.36" style="fill:none;stroke:#3c4447;stroke-miterlimit:10;stroke-width:0.5px"/><line x1="862.66" y1="372.36" x2="808.91" y2="372.36" style="fill:none;stroke:#3c4447;stroke-miterlimit:10;stroke-width:0.5px"/><line x1="620.77" y1="325.82" x2="647.64" y2="372.36" style="fill:none;stroke:#3c4447;stroke-miterlimit:10;stroke-width:0.5px"/><line x1="701.42" y1="465.51" x2="728.29" y2="512.06" style="fill:none;stroke:#3c4447;stroke-miterlimit:10;stroke-width:0.5px"/><line x1="620.77" y1="418.91" x2="647.64" y2="372.36" style="fill:none;stroke:#3c4447;stroke-miterlimit:10;stroke-width:0.5px"/><line x1="701.39" y1="372.36" x2="647.64" y2="372.36" style="fill:none;stroke:#3c4447;stroke-miterlimit:10;stroke-width:0.5px"/></svg>