<svg version="1.1" xmlns="http://www.w3.org/2000/svg" x="0" y="0" viewBox="0 0 128 34" xml:space="preserve"><circle fill-rule="evenodd" clip-rule="evenodd" fill="#ffffff" cx="10.7" cy="21.2" r="1.8"/><path fill-rule="evenodd" clip-rule="evenodd" fill="#ffffff" d="M37.4 16.6v-.3c0-2.5-.6-4.9-1.8-7 .4-.3.7-.8.7-1.4 0-1-.8-1.8-1.8-1.8-.4 0-.7.1-1 .3-1.8-2-4.1-3.7-6.8-4.7 0-.1.1-.2.1-.4 0-.7-.6-1.3-1.3-1.3-.5 0-1 .3-1.2.8-1.3-.3-2.6-.4-4-.4-1.8 0-3.5.3-5.2.8-.3-.5-.9-.8-1.5-.8-1 0-1.9.8-1.9 1.9 0 1 .8 1.9 1.9 1.9.5 0 .9-.2 1.3-.5 1.1.9 2.9 2.2 4.8 3.2 0 .1-.1.3-.1.4 0 .2 0 .4.1.6-2.2 1.5-4.1 3.6-5.2 4.9-.2-.1-.5-.2-.8-.2-.9 0-1.7.7-1.7 1.7 0 .9.7 1.7 1.7 1.7h.2c.3.8.7 1.8 1.4 2.9.5.8 1.1 1.7 2 2.6-.2-.1-.3.2-.3.5 0 .7.6 1.3 1.3 1.3.3 0 .5-.1.7-.2 1.4 1.2 3.1 2.5 5.2 3.7 0 .1-.1.3-.1.4 0 .2 0 .4.1.5-1.2.7-2.8 2.1-4 3.1-.3-.3-.8-.5-1.2-.5-1 0-1.8.8-1.8 1.8s.8 1.8 1.8 1.8c.9 0 1.7-.7 1.8-1.6 4.1-.1 7.9-1.6 10.8-4 .3.3.7.4 1.1.4.9 0 1.6-.7 1.6-1.6 0-.4-.2-.8-.4-1.1 1.6-1.9 2.7-4.2 3.2-6.7h.1c.7 0 1.3-.6 1.3-1.3.1-.8-.4-1.3-1.1-1.4zm-4.1-10c-.3.3-.5.8-.5 1.3h-.7c-.2-1.5-.7-2.8-1-3.5.8.6 1.5 1.4 2.2 2.2zm-11 1c3.2.6 6 .7 8.1.7h1.4v.1c.3 2.7-.5 4.8-2.4 6.3-.2-.3-.6-.4-1-.4-.2 0-.4.1-.6.1-1.1-1.6-3.5-4.7-5.6-6.6 0-.1 0-.2.1-.2zm7.5 8c0-.2-.1-.4-.1-.6 1.3-1.1 2-2.4 2.3-3.7.2 2.8-.4 5.5-1.4 7.9-.4-.9-.8-1.8-1.3-2.6.3-.2.5-.6.5-1zm1.9-7.7c-2.2.1-5.4 0-9.4-.8 0-.2-.1-.4-.2-.5 1.5-.8 4.4-2.2 8.4-2.5.2.4.9 1.9 1.2 3.8zM24.4 2c.2.4.6.6 1.1.6.4 0 .8-.2 1-.6 1.2.5 2.4 1.1 3.5 1.8-3.8.4-6.7 1.7-8.2 2.5-.1-.1-.3-.2-.4-.3.5-1.4 1.4-3 3-4zm-9.3 1.3c.2-.3.3-.7.3-1.1 0-.3-.1-.5-.2-.7 1.6-.5 3.3-.7 5-.7 1.4 0 2.7.2 3.9.4v.1c0 .1 0 .2.1.4-1.8 1.1-2.7 2.8-3.1 4h-.2c-.5 0-1 .3-1.2.7-1.8-.9-3.5-2.2-4.6-3.1zM17.5 21c-1.9-2.1-2.8-4.1-3.3-5.4.6-.2 1-.8 1-1.5 0-.5-.2-.9-.5-1.2 1.1-1.3 2.9-3.4 5.1-4.8.3.3.7.6 1.1.6.5 0 .9-.2 1.1-.6 2.1 1.9 4.4 5 5.6 6.5-.3.2-.4.6-.4 1 0 .2.1.5.2.7-.9.8-3.6 3-7.9 5.1-.2-.4-.7-.7-1.2-.7-.3 0-.6.1-.8.3zm1.8 1.8c.2-.2.3-.5.3-.8v-.1c4.4-2.1 7.1-4.4 8-5.2.2.2.6.4.9.4.2 0 .4 0 .5-.1.5.9 1 1.9 1.4 2.9-1.3 2.8-3 5.1-4 6.3-.2-.2-.5-.3-.9-.3s-.8.2-1.1.5c-2.1-1.2-3.8-2.4-5.1-3.6zm1.5 9.1c0-.3-.1-.6-.3-.9 1.2-1 2.8-2.4 3.9-3 .2.3.6.5 1 .5.7 0 1.3-.6 1.3-1.3 1-.3 2.7-.5 4.4-.3v.2c0 .3.1.7.3.9-2.9 2.3-6.5 3.8-10.6 3.9zm10.4-5.4c-1.8-.3-3.5-.1-4.5.2 0-.1-.1-.2-.1-.2 1-1.2 2.7-3.4 4.1-6.2.7 2 1.3 3.9 1.6 5.3-.6.1-.9.4-1.1.9zm1.4-1.1c-.3-1.4-.9-3.6-1.7-5.7 1.1-2.5 1.8-5.3 1.6-8.4.9 1 3 3.6 4.1 5.5-.3.2-.5.6-.5 1 0 .1 0 .3.1.4-1.3.9-3 2.8-3.5 7.2h-.1zm1 .3l-.6-.3c.6-4.1 2.1-5.9 3.1-6.8.1.2.3.4.6.4-.4 2.5-1.5 4.8-3.1 6.7zm3.4-9.1c-.1 0-.2 0-.2.1-1.4-2.5-4.4-5.9-4.5-6l-.1-.2c.1-.7.1-1.5 0-2.2h.7c.1.7.8 1.3 1.7 1.3.3 0 .5-.1.7-.2 1.1 2.1 1.7 4.4 1.7 6.9v.3z"/><path fill-rule="evenodd" clip-rule="evenodd" fill="#ffffff" d="M15.7 25.8c-.7 0-1.3.6-1.3 1.3 0 .7.6 1.3 1.3 1.3s1.3-.6 1.3-1.3c0-.7-.6-1.3-1.3-1.3zM1.1 9.4c-.6 0-1.1.5-1.1 1.1s.5 1.1 1.1 1.1c.6 0 1.1-.5 1.1-1.1s-.5-1.1-1.1-1.1z"/><circle fill-rule="evenodd" clip-rule="evenodd" fill="#ffffff" cx="4.5" cy="17.3" r="1.3"/><path fill-rule="evenodd" clip-rule="evenodd" fill="#ffffff" d="M9.9 11c-.1-.9-.8-1.6-1.6-1.6-.9 0-1.6.7-1.6 1.6s.7 1.6 1.6 1.6c.9 0 1.6-.7 1.6-1.6zM7.8 5.4c0-.7-.6-1.3-1.3-1.3s-1.3.6-1.3 1.3c0 .7.6 1.3 1.3 1.3.7.1 1.3-.5 1.3-1.3z"/><g><path fill-rule="evenodd" clip-rule="evenodd" fill="#ffffff" d="M87.3 9.2h5.5v4.5h1v-10h-1v4.6h-5.5V3.7h-.9v10h.9zM101.9 3.6c-2.9 0-5.1 2.3-5 5.1 0 2.8 2.2 5.1 5 5.1s5-2.3 5-5.1-2.2-5.1-5-5.1zm0 9.3c-2.3 0-4.1-1.8-4.1-4.2 0-2.3 1.8-4.2 4.1-4.2s4.1 1.9 4.1 4.2-1.8 4.2-4.1 4.2zM56.1 13.7h1V9.1l3.8-5.4h-1.2L56.6 8l-3.1-4.3h-1.1l3.7 5.4zM126.8 3.7L123.7 8l-3.1-4.3h-1.1l3.7 5.4v4.6h1V9.1l3.8-5.4zM78.4 9.8h3c2 0 2.8-1.5 2.8-3 0-1.6-.8-3.1-2.8-3.1h-4v10h1V9.8zm0-5.1h2.9c1.4 0 1.9 1 1.9 2.1s-.5 2.1-1.9 2.1h-2.9V4.7zM47.6 12.9c-1.4 0-2.3-1-2.2-1.9h-1c0 1.4 1.2 3 3.2 3 2.1 0 3.2-1.2 3.4-2.4.3-1.9-1-2.8-2.6-3.2L47 8.1c-1.4-.3-1.6-1.1-1.6-1.6 0-1.1 1.1-1.8 2.2-1.8 1.3 0 2.2.7 2.2 1.9h1c0-1.8-1.3-2.9-3.1-2.9-1.6 0-3.1 1.1-3.1 2.7 0 .8.2 2 2.3 2.5l1.3.3c1.1.2 2.1.9 1.9 2.1-.2.7-1 1.6-2.5 1.6zM69.2 12.6l3.5-7.2 1 8.3h.9l-1.2-10h-.9l-3.8 7.8-3.8-7.8h-1l-1.2 10h1l1-8.3 3.5 7.2zM116.1 12L111 3.7h-1v10h.9V5.4l5.1 8.3h1v-10h-.9zM74.2 16.9h-9.3v2.4h3.3v10h2.7v-10h3.3zM53.5 21c0-2.1-1.3-4.1-4.1-4.1h-5.1v12.4h2.6V25h.6l2.8 4.3h3.2l-3.1-4.4c2.1-.4 3.1-2.1 3.1-3.9zm-4.4 1.7h-2.2v-3.4h2.3c1 0 1.5.9 1.5 1.7s-.6 1.7-1.6 1.7zM58.1 24.3h4.6v-2.2h-4.6v-2.9h5.2v-2.3h-7.8v12.4h8V27h-5.4zM77.6 16.9L73 29.3h2.8l1.1-2.9h4.3l1.1 2.9h2.8l-4.6-12.4h-2.9zm.2 7.2l1.3-4.3 1.3 4.3h-2.6zM93.8 16.9h-2.7v12.4h7.3V27h-4.6zM86.1 16.9h2.6v12.4h-2.6z"/></g></svg>