<svg id="b36a2350-0478-4374-b7e2-7800dc22db3d" data-name="Layer 1" xmlns="http://www.w3.org/2000/svg" viewBox="0 0 297.6 98.06"><g id="ea5dd207-747e-403f-9d29-32a2d21c899b" data-name="layer1"><path id="fd2e2971-5ffd-4cda-a37d-e887b89d58c5" data-name="path4268" d="M49.72,0A49.74,49.74,0,0,0,3.45,67.94a2.55,2.55,0,0,1,1.47-3.2l19-6.4c1.23-.49,2.46.24,3.2,1.48a24.06,24.06,0,0,1-2.22-10.1A24.82,24.82,0,0,1,72.37,39.63a2.56,2.56,0,0,0,3.2,1.48l19-6.4A2.21,2.21,0,0,0,96,31.51,49.46,49.46,0,0,0,49.72,0ZM27.08,59.82A10,10,0,0,0,28.31,62,10,10,0,0,1,27.08,59.82ZM28.8,63c.49.73.74,1.23,1.23,2A8.8,8.8,0,0,1,28.8,63Zm2,2.7,1.48,1.48A8,8,0,0,1,30.77,65.72Zm2,2.22c.74.49,1.23,1.23,2,1.72C34,69.17,33.48,68.43,32.74,67.94Zm-29.29.24a47.09,47.09,0,0,0,3.93,7.88C5.91,73.35,4.68,70.89,3.45,68.18Zm32,2,2.21,1.48ZM7.38,75.82,8.86,78ZM15,85.42l1.47,1.47Zm2.46,2.21a35.62,35.62,0,0,0,3.2,2.46A35.62,35.62,0,0,1,17.48,87.63Zm4.18,3.2a10.92,10.92,0,0,0,1.72,1A10.92,10.92,0,0,1,21.66,90.83Zm3,1.72c.49.25,1,.74,1.47,1A5.07,5.07,0,0,1,24.62,92.55ZM29.05,95a4.25,4.25,0,0,0,1.23.49C30,95.26,29.54,95.26,29.05,95Zm3.44,1.47c.49.25.74.25,1.23.49A1.9,1.9,0,0,0,32.49,96.49Zm7.14.74a1.86,1.86,0,0,1-1,.49A1.86,1.86,0,0,0,39.63,97.23Zm-2.71.49c.25,0,.25,0,.5.25h0C37.17,98,36.92,98,36.92,97.72Z" style="fill:#fff"/><path id="b4f78c3b-1925-4d51-b2d2-1bc6a244eab9" data-name="path4266" d="M23.88,58.34l-19,6.4a2.22,2.22,0,0,0-1.47,3.2A50.76,50.76,0,0,0,37.17,98a2.48,2.48,0,0,0,2.46-.74L48,88.86a2.39,2.39,0,0,1,3.45,0l8.37,8.37a3,3,0,0,0,2.46.74A49.19,49.19,0,0,0,96,67.94a2.56,2.56,0,0,0-1.48-3.2l-19-6.4a2.28,2.28,0,0,0-2.95,1.48A24.22,24.22,0,0,1,61.78,71.63a2.61,2.61,0,0,1-3-.49L51.69,64a2.38,2.38,0,0,0-3.44,0l-7.14,7.14a2.7,2.7,0,0,1-3,.49A24.16,24.16,0,0,1,27.32,59.82,3.28,3.28,0,0,0,23.88,58.34Z" style="fill:#b8433d"/></g><path d="M119.88,53.34a7.72,7.72,0,0,1-1.23,4.19,7.54,7.54,0,0,1-3.2,2.95,9.37,9.37,0,0,1-4.68,1,8.44,8.44,0,0,1-6.65-3c-1.72-2-2.46-4.68-2.46-8.37V48.91a14.92,14.92,0,0,1,1-5.91,8.43,8.43,0,0,1,3.2-3.94,8.1,8.1,0,0,1,4.67-1.47,8.23,8.23,0,0,1,6.16,2.21,9.57,9.57,0,0,1,2.7,6.16h-5.16c0-1.48-.25-2.46-1-3a4.51,4.51,0,0,0-2.71-1,2.81,2.81,0,0,0-2.7,1.48,11.25,11.25,0,0,0-1,4.92v1.72c0,2.46.25,4.19,1,5.17a3,3,0,0,0,3,1.48,3.08,3.08,0,0,0,2.71-1c.74-.49,1-1.47,1-2.95Zm1.72-.49a9.12,9.12,0,0,1,1-4.43,7.31,7.31,0,0,1,2.47-3,6.46,6.46,0,0,1,3.69-1,6.87,6.87,0,0,1,4.92,2,9.11,9.11,0,0,1,2.22,5.41V53.1a9,9,0,0,1-2,5.9,7.13,7.13,0,0,1-10.34,0C122.34,57.77,121.6,55.8,121.6,52.85Zm4.18.25a6.54,6.54,0,0,0,.74,3.44,2.61,2.61,0,0,0,4.43,0,7.86,7.86,0,0,0,.74-3.94,6.44,6.44,0,0,0-.74-3.44,2.61,2.61,0,0,0-4.43,0A8.63,8.63,0,0,0,125.78,53.1ZM142.28,45l.24,1.73A5,5,0,0,1,147,44.48a3.8,3.8,0,0,1,3.94,2.46,5.08,5.08,0,0,1,4.68-2.46A4.31,4.31,0,0,1,159.26,46a7.58,7.58,0,0,1,1.23,4.67V61h-4.18V50.63a3.25,3.25,0,0,0-.49-2,1.93,1.93,0,0,0-1.73-.73,2.58,2.58,0,0,0-2.46,2V61.22h-3.94V50.88a3.18,3.18,0,0,0-.49-2,1.92,1.92,0,0,0-1.72-.74A2.46,2.46,0,0,0,143,49.65V61.22h-3.94V45ZM177,53.1a12,12,0,0,1-1.47,6.15,4.83,4.83,0,0,1-4.19,2.21,4.44,4.44,0,0,1-3.69-1.72v7.63h-3.94V44.73h3.69l.25,1.47a4.8,4.8,0,0,1,3.94-2A5.26,5.26,0,0,1,176,46.45,25.39,25.39,0,0,1,177,53.1Zm-3.93-.25a6.55,6.55,0,0,0-.74-3.45,2.58,2.58,0,0,0-2.22-1.23,2.83,2.83,0,0,0-2.71,1.48V56.3A3,3,0,0,0,170.09,58Q173,58,173.05,52.85Zm6.4-12.06a3.56,3.56,0,0,1,.49-1.73,2.39,2.39,0,0,1,3.44,0,2.08,2.08,0,0,1,.5,1.73,2.44,2.44,0,0,1-4.19,1.72C179.69,41.77,179.45,41.28,179.45,40.79Zm4.43,20.43h-4.19V45h4.19Zm7.63,0h-4.19V38.08h4.19Zm10.34.24a7.23,7.23,0,0,1-5.42-2.21,8,8,0,0,1-2.21-5.91v-.49a8.42,8.42,0,0,1,1-4.43,7.28,7.28,0,0,1,2.46-3,6,6,0,0,1,3.69-1,6.2,6.2,0,0,1,4.93,2.22A8.86,8.86,0,0,1,208,52.6v1.73h-9.6a4,4,0,0,0,1.23,2.46,3.16,3.16,0,0,0,2.46,1,4.41,4.41,0,0,0,3.69-1.72l2,2.46a5.37,5.37,0,0,1-2.46,2.22A7.85,7.85,0,0,1,201.85,61.46Zm-.5-13.29a2.26,2.26,0,0,0-2,1,5.74,5.74,0,0,0-1,2.46h5.66v-.25a3,3,0,0,0-.74-2.21A3,3,0,0,0,201.35,48.17Zm17.48.74h-1.48a2.78,2.78,0,0,0-2.95,1.72V61.22h-3.94V45h3.69v2a3.71,3.71,0,0,1,3.45-2.21,1.89,1.89,0,0,1,1.23.24Z" style="fill:#fff"/><path d="M238,54.57l2.71-16.49h4.18L240.49,61h-4.18l-3.2-15.51L229.91,61h-4.19l-4.43-22.89h4.19l2.7,16.25,3.2-16.25h3.45Zm8.12-1.72a13,13,0,0,1,.74-4.43,6.28,6.28,0,0,1,5.91-3.94,6.31,6.31,0,0,1,4.68,2,7.66,7.66,0,0,1,2,5.41V53.1a8.87,8.87,0,0,1-1.73,5.9,6.56,6.56,0,0,1-9.84,0,9.62,9.62,0,0,1-1.73-6.15Zm3.94.49a6.55,6.55,0,0,0,.74,3.45,2.61,2.61,0,0,0,4.43,0,8,8,0,0,0,.74-3.94,6.55,6.55,0,0,0-.74-3.45,2.61,2.61,0,0,0-4.43,0A7.37,7.37,0,0,0,250.09,53.34ZM270,48.91h-1.48c-1.47,0-2.46.49-2.7,1.72V61.22h-3.7V45h3.7v2a3.37,3.37,0,0,1,3.2-2.21,2.28,2.28,0,0,1,1.23.24Zm6.89,5.66-1.47,1.48V61h-3.7V37.83h3.7v12.8l.73-1,3.7-4.92h4.67l-5.17,6.89,5.67,9.6h-4.43Zm17,2.22a1.35,1.35,0,0,0-.74-1.23,10.68,10.68,0,0,0-2.22-.74c-3.44-.74-5.17-2.46-5.17-4.92a5.05,5.05,0,0,1,1.48-3.7,5.82,5.82,0,0,1,4.19-1.47,6.9,6.9,0,0,1,4.43,1.47,5.27,5.27,0,0,1,1.72,3.7h-3.69a2.1,2.1,0,0,0-.49-1.48c-.25-.49-1-.49-1.73-.49a2,2,0,0,0-1.47.49,1.85,1.85,0,0,0-.5,1.23,1.88,1.88,0,0,0,.5,1.23,8.26,8.26,0,0,0,2,.74c1,.24,1.73.49,2.47.74a4.3,4.3,0,0,1,3,4.43,4.43,4.43,0,0,1-1.72,3.69A6.44,6.44,0,0,1,291.45,62a6.83,6.83,0,0,1-3.2-.74,5.74,5.74,0,0,1-2.22-2,5,5,0,0,1-.74-2.71H289a1.91,1.91,0,0,0,.74,1.72,2.42,2.42,0,0,0,2,.74,3.56,3.56,0,0,0,1.73-.49A10.5,10.5,0,0,0,293.91,56.79Z" style="fill:#b8433d"/></svg>