<svg id="a2f66fa0-8c0c-40ed-9ebc-d7468e881727" data-name="Layer 1" xmlns="http://www.w3.org/2000/svg" viewBox="0 0 294.93 125.17"><path d="M164.74,21.86V60H99.83v9.35h64.84V84.41H85.73V21.86ZM99.74,46h49.34V36.88H99.77Z" style="fill:#fff"/><path d="M79.08,21.85V84.44h-14V36.86H14.27V84.4H0V21.85Z" style="fill:#fff"/><path d="M250.31,0h14.07V21.6h30.55V36.74H264.5v47.7H250.31Z" style="fill:#fff"/><path d="M169.43,84.48l27.35-31.39c-9-10.39-18-20.64-27.22-31.28h20.77L217,53.09,190.29,84.47Z" style="fill:#f39523"/><path d="M160.43,116l7.9-23h6.6c2.67,7.7,5.33,15.41,8.21,23.75L190.08,93h6.54c-3,10.8-5.94,21.42-8.91,32.11h-7.84c-2.63-7.27-5.28-14.62-7.93-22h-.54l-7.94,22h-7.84l-8.91-32h6.56L160,116Z" style="fill:#fff"/><path d="M130,106.86V93.09h7.63v32h-7.54V112.37H112.42V125h-7.81V93.15h7.63v13.71Z" style="fill:#fff"/><path d="M68.93,125.17H61.21c-1.1-2.19-2.23-4.48-3.42-6.87H42.14l-3.82,6.85h-7.8C35.65,114.33,40.68,103.74,45.76,93h7.93Zm-13-12.34L49.71,99.45c-2.09,4.63-4,8.88-6.06,13.38Z" style="fill:#fff"/><path d="M0,125.09V92.93H18.28a17.14,17.14,0,0,1,4.62.61A19,19,0,0,1,28,95.77a8.45,8.45,0,0,1-1.16,15c-2.87,1.35-6.26,1.79-9.46,2.15a89.85,89.85,0,0,1-9.71.08v12.09Zm7.76-17h6.09a54.33,54.33,0,0,0,7.43-.49c2.14-.37,3.39-2.5,3.33-4.76s-1.28-4.28-3.4-4.4c-4.46-.24-9-.07-13.45-.07Z" style="fill:#fff"/><path d="M210.41,93h7.89l15.25,32.11h-7.79l-3.35-6.78h-15.6c-1.24,2.2-2.52,4.49-3.86,6.86h-7.8Zm10.15,19.87c-2.17-4.6-4.13-8.77-6.28-13.35-2.17,4.76-4.09,9-6.08,13.35Z" style="fill:#fff"/><path d="M244.08,21.83l-23.5,27.33L210.36,37.3,224,21.3h19.62Z" style="fill:#46c7ef"/><path d="M220.55,56.62,244,84.35c-.94.11-1.43.22-1.92.22-5.39,0-10.78.07-16.18,0a4.3,4.3,0,0,1-2.88-1.07c-4.36-4.76-8.57-9.66-13-14.71Z" style="fill:#46c7ef"/><path d="M251.48,125.09h-7.92c0-3.16.1-6.26,0-9.35a7.63,7.63,0,0,0-1.13-3.65c-3.67-5.63-7.48-11.17-11.23-16.74-.46-.69-.87-1.41-1.44-2.32h7.7l9.88,14.78c3.12-5.12,6-9.88,9-14.77h7.84c-3.69,6-7.2,11.9-10.89,17.66a10.45,10.45,0,0,0-1.84,6.57C251.61,119.83,251.48,122.41,251.48,125.09Z" style="fill:#fff"/><path d="M65.06,98.18V93H96.93v5.06H84.25v27H77.8V98.18Z" style="fill:#fff"/></svg>