<svg id="bc665a03-63a3-4cf1-9305-867de603e98c" data-name="Layer 1" xmlns="http://www.w3.org/2000/svg" viewBox="0 0 295.82 68.65"><path d="M64.07,40.17V23a3.49,3.49,0,0,0-2.75-3.74C44.43,14.17,27.6,9,10.69,3.94,8.06,3.11,6,4.69,6,7.43V30a4,4,0,0,1-.25,1.94A2.48,2.48,0,0,1,4,33.06a3,3,0,0,1-1.74-1.12A2.49,2.49,0,0,1,2,30.37C2,22.9,1.9,15.47,2,8,2,2,6.52-1.25,12.26.45c2.42.68,4.85,1.5,7.29,2.24l41.9,12.72c4.62,1.39,6.46,3.62,6.46,8.48.06,11,.06,22,0,33.05,0,5.11-3.3,8.73-7.79,8.16a40,40,0,0,1-7.48-2.18,1.67,1.67,0,0,1-.93-2.31A1.75,1.75,0,0,1,54,59.49c1.56.44,3.12.88,4.68,1.44,3.3,1.12,5.36-.32,5.36-3.74v-17Z" style="fill:#f3cf00"/><path d="M275.8,36.92c4.93,1.25,7.36,4,7.55,8.54.19,4.06-2.81,8.11-7.11,9.48a19,19,0,0,1-4.9.87c-3.8.13-7.61.06-11.41,0a3.2,3.2,0,0,1-.69-.19,14.53,14.53,0,0,1-.06-1.62c0-10.59.06-21.24-.06-31.87,0-1.56.46-1.93,1.93-1.87,4.3.19,8.61,0,12.84.38,4.49.43,7.48,3.42,7.85,7.23.19,3.11-1.05,6.85-5.92,9m-10.6,3c0,3.55,0,6.8.07,10a1.37,1.37,0,0,0,.92.92,37.73,37.73,0,0,0,6-.25,5,5,0,0,0,4.42-5.17,4.66,4.66,0,0,0-4.36-5,59.45,59.45,0,0,0-7-.56m0-9.73h0a35.86,35.86,0,0,0,.07,3.74c0,.38.56,1,.87,1a25.8,25.8,0,0,0,5.36-.31c3.36-.81,4.86-5.24,2.74-7.67-1.18-1.39-6.54-2.62-8.29-1.43-.81.56-.5,2.68-.68,4.11a1.76,1.76,0,0,0-.07.56" style="fill:#f3cf00"/><path d="M176.92,37.64c-1.69,5.74-3.23,11-4.74,16.4-.37,1.31-.87,1.81-2.31,1.81-4.3,0-4.36.12-5.54-4-2-6.67-3.93-13.35-5.86-20a11.76,11.76,0,0,1-.31-1.43c1.93,0,3.69-.06,5.48.06.38,0,.88.75,1,1.18,1.39,5.18,2.62,10.29,3.93,15.47a4.43,4.43,0,0,0,.75,1.74c.92-3.17,1.8-6.42,2.74-9.6.75-2.62,1.43-5.24,2.31-7.85a1.68,1.68,0,0,1,1.25-1c4.55-.31,4.55-.31,5.67,4.06,1.25,5,2.5,10,3.74,15.21,1.5-6,3-11.85,4.37-17.71.31-1.25.81-1.68,2-1.62s2.56,0,4.12,0c-.69,2.49-1.39,4.67-2.06,6.93-1.68,5.61-3.36,11.22-4.92,16.89-.31,1.13-.75,1.69-2.06,1.63-4.74-.06-4.74,0-5.93-4.49l-3.69-13.66" style="fill:#f3cf00"/><path d="M104.16,55.84c-.07-.75-.13-1.25-.13-1.68,0-10.62,0-21.25-.06-31.87,0-1.56.5-2.06,2.06-2,4.11.19,8.31-.06,12.4.38,5.93.62,9.42,4.62,9.54,10.28a11.33,11.33,0,0,1-8.85,11.6,41.25,41.25,0,0,1-7.3.57c-1.18.06-1.55.43-1.55,1.62.06,3.17,0,6.29.06,9.47,0,1.31-.38,1.75-1.68,1.62s-2.87,0-4.49,0m6.17-17.7a55.65,55.65,0,0,0,6.79-.63c2.81-.56,4.24-2.93,4.24-6.11s-1.3-5-4.15-5.54a32.44,32.44,0,0,0-6-.25,1.28,1.28,0,0,0-.81.87c-.06,3.74-.06,7.48-.06,11.66" style="fill:#f3cf00"/><path d="M38,45V26.21a4.45,4.45,0,0,1,2.92-4.43,4.29,4.29,0,0,1,5,1.31A6.22,6.22,0,0,1,47,26.39c.13,12.41.06,24.88.06,37.22,0,2-.68,3.7-2.61,4.56a4.36,4.36,0,0,1-4.74-.5A4.75,4.75,0,0,1,38,63.61Z" style="fill:#f3cf00"/><path d="M142.44,56.38c-7.79,0-12.91-5.11-12.91-13,0-8.41,5.3-13.59,13.91-13.65,7.73,0,12.4,5,12.4,13.22s-5,13.39-13.39,13.39m7.41-13.08c-.06,0-.18-.06-.25-.06-.06-.88-.06-1.75-.18-2.62a6.68,6.68,0,0,0-4.74-5.8c-3.12-.69-6.05.31-7.54,2.87A10.86,10.86,0,0,0,137,48.3c1.18,2.37,3.43,3.31,6,3.31a5.57,5.57,0,0,0,5.61-3.5,29,29,0,0,0,1.31-4.8" style="fill:#f3cf00"/><path d="M203.9,44.94a6.25,6.25,0,0,0,5.8,6.73,12,12,0,0,0,8-1.75,2.32,2.32,0,0,1,.56-.3h.62a29.53,29.53,0,0,1-.06,4,2,2,0,0,1-1.12,1.24,16.83,16.83,0,0,1-13.34.56A9.9,9.9,0,0,1,200,51.92c-3.55-4.67-3.74-14.28,1.69-19.08a11.78,11.78,0,0,1,12.28-2.49c4.24,1.43,6,4.86,6.61,9.1.18,1.25.12,2.49.25,3.74s-.44,1.69-1.69,1.69c-4.48-.07-8.91,0-13.39,0H203.9Zm10.87-4.42c.31-3.56-1.63-6-4.81-6.17s-6.06,2.79-6.06,6.17Z" style="fill:#f3cf00"/><path d="M34.45,45.21v14a4.44,4.44,0,0,1-2.87,4.36,4,4,0,0,1-4.8-.92,6.06,6.06,0,0,1-1.38-3.49c-.13-9.42-.07-18.83,0-28.25,0-2.93,1.93-4.86,4.61-4.8A4.55,4.55,0,0,1,34.44,31V45.22" style="fill:#f3cf00"/><path d="M21.73,45.1v9.1A4.59,4.59,0,0,1,17.24,59a4.59,4.59,0,0,1-4.49-4.81V35.81a4.37,4.37,0,0,1,4.36-4.67,4.44,4.44,0,0,1,4.62,4.28,1.93,1.93,0,0,1,0,.34c.07,3.11,0,6.23,0,9.35" style="fill:#f3cf00"/><path d="M295.82,55.77h-6.3V20.35c1.85,0,3.74-.06,5.61.07.25,0,.63.87.63,1.38.06,4.43,0,8.85,0,13.22V55.8Z" style="fill:#f3cf00"/><path d="M232,56h-4.87c-.31,0-.62-.06-1.06-.06V30.71H232v4c.75-1,1.19-1.74,1.75-2.37a5.93,5.93,0,0,1,6.05-2,1.63,1.63,0,0,1,1.12,1c.12,1.56.06,3.11.06,4.8a21.89,21.89,0,0,0-2.24-.5c-3.75-.37-6.47,2.56-6.55,7-.06,3.8,0,7.6,0,11.46V56Z" style="fill:#f3cf00"/><path d="M9,45.14v4.92a4.47,4.47,0,0,1-4.24,4.68,4.6,4.6,0,0,1-4.68-4.3C0,46.82,0,43.27.09,39.65a4.62,4.62,0,0,1,4.74-4.24,4.47,4.47,0,0,1,4.24,4.67v5.06Z" style="fill:#f3cf00"/></svg>