<svg id="f5e13a0b-8e3b-48ed-b445-50246bc16a0c" data-name="Layer 1" xmlns="http://www.w3.org/2000/svg" viewBox="0 0 293.88 253.35"><path d="M.1,117.71c.29-.69.49-1.47.79-2.16,1.08-3.06,3.05-4.73,6.3-4.73,10.34-.1,20.58,0,30.92,0a1.66,1.66,0,0,1,.49.2v6.69c-.59,0-1.18.1-1.77.1h-22a15.69,15.69,0,0,0-3,.3A2.19,2.19,0,0,0,10,120.47,2,2,0,0,0,12,122.54c2.27.2,4.63.29,6.9.39,4.43.2,8.76.3,13.19.49,4.63.2,7.29,3,7.49,7.59v3.25c0,5.31-2.47,8.47-7.78,8.56-10.24.3-20.49.1-30.73.1v-7.09H24.52a18.66,18.66,0,0,0,3.25-.19,2.33,2.33,0,0,0,2.17-2.07,2.22,2.22,0,0,0-1.58-2.46,7.16,7.16,0,0,0-1.58-.4c-5.71-.29-11.32-.69-17-.79-4.63,0-8.17-1.28-9.45-6.2A59.34,59.34,0,0,1,.1,117.71Zm0-21.17H293.65c.39,1,.39,1.68-.89,1.68H.1Zm0,59H291.68c.89,0,2.46-.69,2,1.57H0A7.78,7.78,0,0,0,.1,155.53Z" style="fill:#fff"/><path d="M230,5.85A224.05,224.05,0,0,0,174.2,24.46a204.53,204.53,0,0,0-50.52,34.07,150.48,150.48,0,0,0-21.76,24.32c-.49.69-.89,1.38-1.48,2.37,9.85,0,19.21,0,28.56-.1A2.65,2.65,0,0,0,130.68,84a193.11,193.11,0,0,1,25.5-28.95,201.59,201.59,0,0,1,68.64-42.44A198.34,198.34,0,0,1,279.76.92c2.86-.1,5.72-.29,8.57-.39.2,0,.3-.2.49-.3C284.79,0,268.74-1.34,230,5.85ZM64.21,247.5A224.12,224.12,0,0,0,120,228.89a204.53,204.53,0,0,0,50.52-34.07,150.48,150.48,0,0,0,21.76-24.32c.49-.69.89-1.38,1.48-2.37-9.85,0-19.21,0-28.56.1a2.63,2.63,0,0,0-1.67,1.08,192.75,192.75,0,0,1-25.51,28.95,201.77,201.77,0,0,1-68.64,42.45,198.34,198.34,0,0,1-54.94,11.72c-2.86.09-5.72.29-8.57.39-.2,0-.3.2-.49.29C9.45,253.31,25.5,254.69,64.21,247.5Z" style="fill:#3c88c8"/><path d="M90.1,142.92v-7.09h23.44a18.66,18.66,0,0,0,3.25-.19,2.33,2.33,0,0,0,2.17-2.07,2.21,2.21,0,0,0-1.58-2.46,7.21,7.21,0,0,0-1.57-.4c-6-.29-12-.59-18.12-.79-5.72-.19-8.47-2.85-8.37-8.56a25.28,25.28,0,0,1,.78-6A5.83,5.83,0,0,1,96,110.72c10.54-.1,21-.1,31.61-.1v6.9c-.59,0-1.08.09-1.67.09H104c-1,0-2.07.2-3,.3a2.16,2.16,0,0,0-1.88,2.26,2,2,0,0,0,2.07,2.17c2.56.2,5.12.3,7.68.4,4.24.19,8.37.29,12.61.49,4.53.19,7.09,3,7.29,7.48V134c0,5.42-2.66,8.57-8,8.67C110.59,143.12,100.44,142.92,90.1,142.92Zm92.37-12.8V135h25v7.69H172.33V110.82h35.15v7.39h-25v5h23.34V130C198.13,130.12,190.35,130.12,182.47,130.12Zm69.92,12.7v-31.9h10v11.13h21.18V110.92h10.14v31.81H283.8V131.11H262.63v11.62C259.18,142.82,255.84,142.82,252.39,142.82Zm-3.55-32v8c-.69,0-1.28.09-1.87.09H223c-2.86,0-3.25.2-3.25,3.06-.1,3.64,0,7.28,0,10.93a1.76,1.76,0,0,0,1.77,2,10.51,10.51,0,0,0,1.77.1h25.41v8H221.76a33.27,33.27,0,0,1-4.43-.39,7.56,7.56,0,0,1-6.69-7.58c-.1-5.42-.2-10.84,0-16.25.29-5,3.05-7.58,8.27-7.78C229.05,110.52,238.9,110.82,248.84,110.82Zm-179.51,32H59.08c0-2.56-.19-5.22,0-7.78a7.72,7.72,0,0,0-2.16-5.9c-4.93-5.72-9.65-11.53-14.38-17.24a4,4,0,0,1-.69-1.08c4,0,7.78,0,11.62.1A2.29,2.29,0,0,1,55,112c3.15,3.84,6.2,7.68,9.35,11.62,3-3.64,5.91-7.19,8.67-10.83a4.33,4.33,0,0,1,4-2c3.15.2,6.4,0,9.94,0-2.16,2.56-4.13,5-6.1,7.39-3.55,4.33-7.19,8.56-10.74,12.9a4.33,4.33,0,0,0-.69,2C69.33,136.32,69.33,139.48,69.33,142.82Zm76.41,0V118.4H131.66v-7.48h37.62v7.29h-13.2v24.61Z" style="fill:#fff"/></svg>