<svg id="b55d5e60-57db-4dde-bf73-59f28c390b70" data-name="Layer 1" xmlns="http://www.w3.org/2000/svg" viewBox="0 0 100 100"><path d="M9,27.46H28.39" style="fill:none;stroke:#000;stroke-linecap:round;stroke-width:3px"/><polyline points="28.39 39.32 66.27 1.44 98.01 33.18 88.68 42.51" style="fill:none;stroke:#edc124;stroke-linejoin:round;stroke-width:3px"/><polyline points="16.81 39.32 54.7 1.44 60.48 7.23" style="fill:none;stroke:#edc124;stroke-linejoin:round;stroke-width:3px"/><path d="M42.65,39.32a14.87,14.87,0,0,1,28.11,0" style="fill:none;stroke:#edc124;stroke-width:3px"/><path d="M82.91,39.2H8.67A5.87,5.87,0,0,1,2.8,33.33h0a5.87,5.87,0,0,1,5.87-5.87" style="fill:none;stroke:#000;stroke-linecap:round;stroke-width:3px"/><path d="M75.68,10.85a13,13,0,0,1-18.36,0" style="fill:none;stroke:#edc124;stroke-linecap:round;stroke-width:3px"/><path d="M88.66,42.49a13,13,0,0,1,0-18.35" style="fill:none;stroke:#edc124;stroke-linecap:round;stroke-width:3px"/><path d="M2.8,33.31V89.92a6.77,6.77,0,0,0,6.77,6.77H82.9a6.77,6.77,0,0,0,6.77-6.77V46A6.77,6.77,0,0,0,82.9,39.2" style="fill:none;stroke:#000;stroke-linecap:round;stroke-width:3px"/><circle cx="70.76" cy="70.28" r="6.38" style="fill:none;stroke:#000;stroke-linecap:round;stroke-width:3px"/></svg>