<svg id="e904617a-1e89-4015-8c6c-7df7e26d27f8" data-name="Layer 1" xmlns="http://www.w3.org/2000/svg" viewBox="0 0 100 100"><path d="M55.41,12.86a30.9,30.9,0,0,0-4.51-.22A41.52,41.52,0,0,0,9.25,54.08m83.2,0a40.9,40.9,0,0,0-9.24-26" style="fill:none;stroke:#000;stroke-linecap:round;stroke-width:3px"/><path d="M55,13.61a9.27,9.27,0,0,0-4.18-1c-10.09,0-18.36,16.64-18.36,37.25a64.43,64.43,0,0,0,.32,6.44m36.18,0q.32-3.21.32-6.44a70.22,70.22,0,0,0-1.07-12.56" style="fill:none;stroke:#000;stroke-linecap:round;stroke-linejoin:round;stroke-width:3px"/><path d="M50.9,5.67v7M37.27,85.75v2a6.77,6.77,0,1,0,13.53,0V50.54" style="fill:none;stroke:#000;stroke-linecap:round;stroke-width:3px"/><path d="M32.87,56.44c3.65-3.54,10.41-5.9,18-5.9s14.39,2.36,18,5.9M9.25,54.19s4.94-5.91,11.92-4.94c8.91,1.18,11.38,7.41,11.38,7.41m59.9-2.8S87.51,48.07,80.53,49c-8.91,1.18-11.38,7.3-11.38,7.3" style="fill:none;stroke:#000;stroke-linecap:round;stroke-width:3px"/><circle cx="68.83" cy="21.34" r="15.89" style="fill:none;stroke:#edc124;stroke-linecap:round;stroke-width:3px"/><path d="M59.81,21.66l7.09,7.09L79.78,15.87" style="fill:none;stroke:#edc124;stroke-linecap:round;stroke-width:3px"/></svg>