<svg id="b3a27d28-7f55-4c35-b9f3-a930ef657748" data-name="Layer 1" xmlns="http://www.w3.org/2000/svg" viewBox="0 0 100 100"><path d="M84.78,54.27V91.4a3.36,3.36,0,0,1-3.39,3.34H19.48a3.37,3.37,0,0,1-3.39-3.34V54.27" style="fill:none;stroke:#000;stroke-linecap:round;stroke-width:3px"/><path d="M5.71,35.27v9.67a8.93,8.93,0,1,0,17.85,0V35.27" style="fill:none;stroke:#edc124;stroke-miterlimit:10;stroke-width:3px"/><path d="M23.56,35.27v9.67a8.93,8.93,0,1,0,17.85,0V35.27" style="fill:none;stroke:#edc124;stroke-miterlimit:10;stroke-width:3px"/><path d="M41.5,35.27v9.67a8.93,8.93,0,1,0,17.85,0V35.27" style="fill:none;stroke:#edc124;stroke-miterlimit:10;stroke-width:3px"/><path d="M59.35,35.27v9.67a8.93,8.93,0,1,0,17.85,0V35.27" style="fill:none;stroke:#edc124;stroke-miterlimit:10;stroke-width:3px"/><path d="M77.2,35.27v9.67a8.93,8.93,0,0,0,17.86,0V35.27" style="fill:none;stroke:#edc124;stroke-miterlimit:10;stroke-width:3px"/><path d="M78.63,20.84V9.1a3.77,3.77,0,0,0-3.77-3.77H26A3.77,3.77,0,0,0,22.21,9.1V20.84" style="fill:none;stroke:#000;stroke-width:3px"/><polygon points="78.6 20.41 22.16 20.41 5.71 35.27 95.06 35.27 78.6 20.41" style="fill:none;stroke:#edc124;stroke-linejoin:round;stroke-width:3px"/><rect x="39.06" y="64.79" width="22.38" height="29.95" style="fill:none;stroke:#000;stroke-linecap:round;stroke-width:3px"/><line x1="61.44" y1="81.42" x2="84.78" y2="81.42" style="fill:none;stroke:#000;stroke-linecap:round;stroke-width:3px"/><line x1="16.09" y1="81.42" x2="39.06" y2="81.42" style="fill:none;stroke:#000;stroke-linecap:round;stroke-width:3px"/></svg>