<svg id="Layer_1" data-name="Layer 1" xmlns="http://www.w3.org/2000/svg" viewBox="0 0 20.86 20.86"><path d="M8.43,9.43H5.15a2,2,0,1,0-1.72,3,2,2,0,0,0,1.72-1H8.43a1,1,0,0,0,0-2Z"/><path d="M10.93,14.76a5,5,0,0,0,0-8.66,1,1,0,0,0-1,1.73,3,3,0,0,1,0,5.2,1,1,0,0,0-.38,1.36l0,0a1,1,0,0,0,.86.5A1,1,0,0,0,10.93,14.76Z"/><path d="M11.86,17.66a8,8,0,0,0,0-14.46,1,1,0,0,0-1.34.47A1,1,0,0,0,11,5a6,6,0,0,1,0,10.84,1,1,0,0,0,.43,1.91A1.08,1.08,0,0,0,11.86,17.66Z"/><path d="M12.83.35a1,1,0,0,0-1.34.44,1,1,0,0,0,.44,1.35l.1,0a9,9,0,0,1,0,16.5A1,1,0,0,0,11.51,20h0a1,1,0,0,0,.92.6.93.93,0,0,0,.4-.09,11,11,0,0,0,0-20.16Z"/></svg>