<svg viewBox="0 0 1000 1000" xmlns="http://www.w3.org/2000/svg"><path d="m598 704.18c-1.49 58.46-7.58 116.2-26.18 172-8.73 26.17-20.4 50.89-41.07 70.2-24 22.37-43.86 22.59-68-.57-25.62-24.62-37.82-56.88-46.69-90.09-17.1-64-21.75-129.75-20.54-195.65 1-55.07 47.28-98.93 101-99.26 52.52-.32 96.61 40.2 101.22 94.08 1.46 16.3.26 32.85.26 49.29z"/><path d="m394.86 429.53c-.27-57.82 47.89-104.68 107-104.08 51.45.53 97.71 48.7 98.23 102.29.56 56.08-46.56 103.43-103 103.57-55.75.13-101.97-45.91-102.23-101.78z"/><path d="m918 412.11c-21.22-217.57-217.5-384.76-440.74-374.92-220.26 9.71-398.04 196.09-397.43 419 .6 221.65 164.62 366.81 288.35 397.66q-5.82-28.32-9.75-56.89c-4.89-6.34-12-11.4-21.78-16.1-138.65-66.58-220.49-225.59-196.28-376.94 33.28-208.1 226-341.67 434.27-301 192.72 37.65 323.29 238.13 279.57 429.5-27.09 118.59-96 203.82-205.36 256.75-4.23 2-9.58 2.73-12.71 6.45-2.67 20.61-6.08 41.1-10.38 61.46 142.65-36.46 316.01-200.38 292.24-444.97z"/><path d="m764.45 397.08c-31-129.28-147.91-215.91-284.26-211.8-124 3.73-234.81 101.29-257.85 226.31-24.34 132 55.42 247 127.15 281.19-.9-23.19-1.15-46.42-.87-69.68a30.53 30.53 0 0 0 -4.12-4.9c-41.3-40.65-62.84-90.07-66.77-148-9.42-139.14 126.63-256.42 262.51-225.37 84.46 19.3 142.49 69.54 166.76 152.93 24.63 84.8 3.22 159.55-60.05 221.8a22.08 22.08 0 0 1 -1.68 1.47c.52 18.76-.52 37.65-.52 56.45q-.19 7.71-.47 15.4c83.08-45.05 151.1-166.79 120.17-295.8z"/></svg>