<svg id="Layer_1" data-name="Layer 1" xmlns="http://www.w3.org/2000/svg" viewBox="0 0 125 127.99"><path d="M70.8,68.92a15.29,15.29,0,0,1,3.12.3,16.09,16.09,0,0,1,12,10.43c.54,1.7,1.25,4.25,1.7,6L88.19,88l2.38,0A35.1,35.1,0,0,0,125,53c0-28.93-24.13-53-61-53A65,65,0,0,0,23.45,14.48,63.88,63.88,0,0,0,0,64,65.23,65.23,0,0,0,1.78,79a64.1,64.1,0,0,0,30.71,40.68A65.06,65.06,0,0,0,64,128a66.6,66.6,0,0,0,8.29-.53,64,64,0,0,0,41.41-23.14l.66-.81-1.28-4.63-2.47.65a91.62,91.62,0,0,1-23.8,3.07,91.93,91.93,0,0,1-19.19-2A16,16,0,0,1,55.63,90a14.69,14.69,0,0,1-.83-5.11,15,15,0,0,1,4-10.53A16,16,0,0,1,70.8,68.92ZM64,6c34.12,0,55,21.92,55,47A29.08,29.08,0,0,1,92.77,81.78c-.39-1.39-.81-2.86-1.17-4a97.53,97.53,0,0,0-59.87-62A56.37,56.37,0,0,1,64,6ZM6,64A57.89,57.89,0,0,1,26,20.15,92,92,0,0,1,79.67,64.79a22,22,0,0,0-4.58-1.45,99.12,99.12,0,0,0-68.3,10.3A57.36,57.36,0,0,1,6,64Zm60.39,42.48a100.17,100.17,0,0,0,20.42,2.12,101,101,0,0,0,15.72-1.25A57.78,57.78,0,0,1,73.1,121.29a91.56,91.56,0,0,1-11-16.17A22.58,22.58,0,0,0,66.39,106.48ZM65.94,122c-.64,0-1.29,0-1.94,0a56.45,56.45,0,0,1-26.63-6.45A91.07,91.07,0,0,1,49,87.41a22.92,22.92,0,0,0,1,4.52A99.93,99.93,0,0,0,65.94,122ZM54.25,70.43A100.42,100.42,0,0,0,32,112.37,58.12,58.12,0,0,1,8.16,79.75,91.32,91.32,0,0,1,54.79,67.24c1,0,1.91,0,2.86,0A22.06,22.06,0,0,0,54.25,70.43Z"/></svg>