<svg id="Layer_1" data-name="Layer 1" xmlns="http://www.w3.org/2000/svg" viewBox="0 0 55.43 64"><g id="A"><path d="M55.42,18.58a4.88,4.88,0,0,0-2.57-4.48L30.43.83A4.93,4.93,0,0,0,25,.84L2.62,14.07A4.88,4.88,0,0,0,0,18.61v26.7a4.93,4.93,0,0,0,2.63,4.63L25.08,63.21a4.78,4.78,0,0,0,5.3,0l22.5-13.33a4.87,4.87,0,0,0,2.55-4.49Zm-22,19.29a2.12,2.12,0,0,1-.53,1.48,1.83,1.83,0,0,1-1.36.56A1.86,1.86,0,0,1,29.59,38l0-3.12c0-.82-.4-1.28-1.08-1.29a1,1,0,0,0-.79.32,1.37,1.37,0,0,0-.3.94V37.6a2.08,2.08,0,0,1-.85,1.76,2,2,0,0,1-1.13.32,1.89,1.89,0,0,1-1.9-2V34.12a3,3,0,0,0-.15-1s0,0,0,0-.06-.13-.09-.18a1,1,0,0,0-.84-.41c-.79,0-1.16.54-1.16,1.76v7.86a1.82,1.82,0,0,1-1,1.81,1.91,1.91,0,0,1-2.71-1.18,1.82,1.82,0,0,1-.08-.52l0-5.95a2.64,2.64,0,0,0-.06-.55,1,1,0,0,0-.23-.45,1.26,1.26,0,0,0-1.05-.33c-.34.1-.61.53-.84.87-.1.17,0,.46-.05.69a1.91,1.91,0,0,1-3.61.68,2,2,0,0,1-.09-.22.45.45,0,0,1,0-.11,2.2,2.2,0,0,1-.06-.37v-6a1.91,1.91,0,0,1,1.9-1.75A1.93,1.93,0,0,1,15.12,30a2.33,2.33,0,0,1,.08.36c0,.2,0,.41,0,.6,0,0,0,0,0,.05a1.45,1.45,0,0,0,.11.4,1.11,1.11,0,0,0,2.08-.54V27.06A1.89,1.89,0,0,1,20,25.26a1.71,1.71,0,0,1,1,.8,1.84,1.84,0,0,1,.24.87v1.5a1.65,1.65,0,0,0,.07.32,1,1,0,0,0,1.12.87c.68,0,1-.41,1.05-1.2V24.09a1.92,1.92,0,0,1,3-1.66,1.66,1.66,0,0,1,.69.78,2.43,2.43,0,0,1,.19,1v5.34a1.44,1.44,0,0,0,.17.77.91.91,0,0,0,.65.43,1.07,1.07,0,0,0,1.37-1.15v-4a1.86,1.86,0,0,1,2.12-1.9,1.77,1.77,0,0,1,1.68,1.57,2.71,2.71,0,0,1,0,.41v6.14h0Zm6.09-.49a2.27,2.27,0,0,1-.3,1.14,1.8,1.8,0,0,1-1.53.87,1.84,1.84,0,0,1-2-1.8V30.35a1.33,1.33,0,0,1,0-.21,1.75,1.75,0,0,1,2-1.57,1.83,1.83,0,0,1,1.82,2V34h0ZM45.56,36a1.82,1.82,0,0,1-2,1.65,1.79,1.79,0,0,1-1.71-1.36,3.4,3.4,0,0,1-.07-.46v-.89h0c0-.3,0-.61,0-.91a1.87,1.87,0,0,1,1.78-1.82,1.93,1.93,0,0,1,1.81,1,1.83,1.83,0,0,1,.14.32h0a2.45,2.45,0,0,1,.08.39A11.33,11.33,0,0,1,45.56,36Z"/></g></svg>