<svg id="overcastCanvas" xmlns="http://www.w3.org/2000/svg" viewBox="0 0 800 800"><defs><style>.cls-1{fill-rule:evenodd;}</style></defs><g id="overcastCanvas-group"><path id="overcastCanvas-bezier" class="cls-1" d="M400,800A400,400,0,1,1,800,400,399,399,0,0,1,400,800Zm0-158.33,30-30-30-115-30,115ZM361.67,640l-15,56.67,35-35Zm76.66,0-20,20,35,35Zm28.34,103.33L400,676.67l-66.67,66.66C355,746.67,376.67,750,400,750S445,748.33,466.67,743.33ZM400,50C206.67,50,50,206.67,50,400c0,153.33,98.33,283.33,235,330l75-278.33C343.33,440,333.33,420,333.33,398.33a66.67,66.67,0,0,1,133.34,0c0,21.67-10,40-26.67,53.34L515,730c136.67-46.67,235-176.67,235-330C750,206.67,593.33,50,400,50ZM628.33,573.33c-8.33,10-23.33,13.34-35,5S580,555,588.33,545c0,0,45-60,45-145s-45-145-45-145c-8.33-10-6.66-25,5-33.33s26.67-5,35,5c3.34,3.33,55,71.66,55,173.33S631.67,570,628.33,573.33Zm-121.66-65c-10-10-8.34-28.33,1.66-38.33,0,0,25-26.67,25-70s-25-68.33-25-70c-10-10-10-26.67-1.66-38.33,10-11.67,25-11.67,35-1.67,1.66,1.67,41.66,43.33,41.66,110s-40,108.33-41.66,110C531.67,520,516.67,518.33,506.67,508.33Zm-213.34,0c-10,10-25,11.67-35,1.67-1.66-3.33-41.66-43.33-41.66-110s40-106.67,41.66-110c10-10,26.67-10,35,1.67,10,10,8.34,28.33-1.66,38.33,0,1.67-25,26.67-25,70s25,70,25,70A28.22,28.22,0,0,1,293.33,508.33Zm-86.66,70c-11.67,8.34-26.67,5-35-5-3.34-3.33-55-71.66-55-173.33s51.66-170,55-173.33c8.33-10,23.33-13.34,35-5S220,245,211.67,255c0,0-45,60-45,145s45,145,45,145C220,555,216.67,570,206.67,578.33Z"/></g></svg>