<svg id="Layer_1" data-name="Layer 1" xmlns="http://www.w3.org/2000/svg" viewBox="0 0 74 80"><defs><style>.cls-1{fill-rule:evenodd;}</style></defs><path class="cls-1" d="M42.54,13.56c10-1,20.07-6.59,30.1-1.79V78C58.8,71.41,45,84.66,31.12,78V66.38C20.91,67.28,10.7,73,.49,68.18V1.91c14,6.63,28-6.62,42.05,0Zm7.64,36,3.63-.86c5.34-1.27,7.47-4.68,7.47-10.05V30c0-5.28-1.38-8.63-7.88-7.11A81.58,81.58,0,0,1,42.53,25v43.2a56.88,56.88,0,0,0,7.65-1.37Zm0-7V30.31L51.62,30c1.79-.42,2,.53,2,2.09,0,2.41,0,4.8,0,7.21,0,1.33-.17,2.47-2,2.9ZM19.71,57V38.53l1.61-.38c1.55-.37,2,.05,2,2.08v12.6c0,1.92.29,2.78.69,3.16a50.84,50.84,0,0,1,7.65-1.26v-.29A5.67,5.67,0,0,1,31,51.3V36.6c0-3.2-2.07-4.43-3.28-4.66a7,7,0,0,0,3.39-6.26V18.77c0-4.64-2.35-7.08-7-6a97.36,97.36,0,0,1-12.08,2.4v43.2A56.84,56.84,0,0,0,19.71,57Zm0-25.61V20.47l1.72-.41c1.56-.37,1.9.14,1.9,2v5.86c0,2-.57,2.75-2.13,3.11Z"/></svg>