<svg id="Layer_1" data-name="Layer 1" xmlns="http://www.w3.org/2000/svg" viewBox="0 0 78.7 78.69"><path d="M39.35,0A39.35,39.35,0,1,0,78.7,39.35,39.35,39.35,0,0,0,39.35,0ZM54.49,58a2.9,2.9,0,0,1-1.66-.59,39.48,39.48,0,0,0-20.36-5.26,62,62,0,0,0-12.42,1.36,12.2,12.2,0,0,1-1.93.39,2.45,2.45,0,0,1-2.49-2.47,2.5,2.5,0,0,1,2.14-2.7A65.56,65.56,0,0,1,32.5,47,43.71,43.71,0,0,1,55.38,53a2.62,2.62,0,0,1,1.56,2.61A2.46,2.46,0,0,1,54.49,58Zm4.29-10.42a3.6,3.6,0,0,1-2-.68c-6.4-3.8-15.27-6.32-25-6.32A50.14,50.14,0,0,0,19,42.26a6.4,6.4,0,0,1-1.91.44A3.09,3.09,0,0,1,14,39.62a3.13,3.13,0,0,1,2.45-3.29A54.51,54.51,0,0,1,32,34.18c10.3,0,20.27,2.57,28.1,7.25a3.23,3.23,0,0,1,1.8,3.11,3.06,3.06,0,0,1-3.07,3.08Zm4.88-12.11a3.72,3.72,0,0,1-2-.61c-7.13-4.27-18.18-6.62-28.87-6.62a60.66,60.66,0,0,0-15.72,1.89,8.39,8.39,0,0,1-2,.43,3.84,3.84,0,0,1-1-7.52,66.29,66.29,0,0,1,18.68-2.42c11.55,0,23.71,2.38,32.59,7.59a3.74,3.74,0,0,1,2,3.57,3.67,3.67,0,0,1-3.71,3.69Zm0,0"/></svg>