<svg enable-background="new 0 0 300 300" viewBox="0 0 300 300" xmlns="http://www.w3.org/2000/svg"><path d="m114.02 106.12h7.51v22.33h-7.51z" fill="#60c0c9" transform="matrix(.7071 -.7071 .7071 .7071 -48.4334 117.6406)"/><path d="m178.13 171.22h7.51v22.33h-7.51z" fill="#60c0c9" transform="matrix(.7071 -.7071 .7071 .7071 -75.6915 182.0392)"/><path d="m170.72 113.53h22.33v7.51h-22.33z" fill="#60c0c9" transform="matrix(.7071 -.7071 .7071 .7071 -29.6584 162.9597)"/><path d="m106.61 178.63h22.33v7.51h-22.33z" fill="#60c0c9" transform="matrix(.7071 -.7071 .7071 .7071 -94.4665 136.7003)"/><path d="m149.81 176.11c-14.42 0-26.19-11.71-26.26-26.16-.07-14.48 11.65-26.32 26.13-26.4h.13c14.44 0 26.22 11.69 26.3 26.13.07 14.5-11.66 26.36-26.16 26.43-.05 0-.09 0-.14 0zm0-45.05c-.03 0-.06 0-.1 0-10.34.05-18.71 8.51-18.66 18.85.05 10.33 8.46 18.69 18.75 18.69h.1c10.36-.05 18.75-8.53 18.69-18.89-.04-10.3-8.46-18.65-18.78-18.65z" fill="#fff"/><g fill="#60c0c9"><path d="m76.39 116.56c-22.15 0-40.17-18.02-40.17-40.17s18.02-40.17 40.17-40.17 40.17 18.02 40.17 40.17-18.03 40.17-40.17 40.17zm0-72.83c-18.01 0-32.66 14.65-32.66 32.66s14.65 32.66 32.66 32.66 32.66-14.65 32.66-32.66-14.66-32.66-32.66-32.66z"/><path d="m76.39 89.42c-11.17 0-20.26-9.09-20.26-20.26s9.09-20.26 20.26-20.26 20.26 9.09 20.26 20.26-9.09 20.26-20.26 20.26zm0-33.02c-7.03 0-12.75 5.72-12.75 12.75s5.72 12.75 12.75 12.75 12.75-5.72 12.75-12.75-5.72-12.75-12.75-12.75z"/><path d="m52.08 102.87-6.22-4.2c7.09-10.49 18.87-16.76 31.51-16.76 12.09 0 23.18 5.56 30.44 15.24l-6.01 4.5c-5.82-7.78-14.73-12.23-24.43-12.23-10.14 0-19.6 5.03-25.29 13.45z"/><path d="m223.27 116.56c-22.15 0-40.17-18.02-40.17-40.17s18.02-40.17 40.17-40.17 40.17 18.02 40.17 40.17-18.02 40.17-40.17 40.17zm0-72.83c-18.01 0-32.66 14.65-32.66 32.66s14.65 32.66 32.66 32.66 32.66-14.65 32.66-32.66-14.65-32.66-32.66-32.66z"/><path d="m223.27 89.42c-11.17 0-20.26-9.09-20.26-20.26s9.09-20.26 20.26-20.26 20.26 9.09 20.26 20.26-9.08 20.26-20.26 20.26zm0-33.02c-7.03 0-12.75 5.72-12.75 12.75s5.72 12.75 12.75 12.75 12.75-5.72 12.75-12.75c.01-7.03-5.71-12.75-12.75-12.75z"/><path d="m198.97 102.87-6.22-4.2c7.09-10.49 18.87-16.76 31.51-16.76 12.09 0 23.18 5.56 30.44 15.24l-6.01 4.5c-5.83-7.77-14.73-12.23-24.43-12.23-10.14 0-19.6 5.03-25.29 13.45z"/><path d="m76.39 263.44c-22.15 0-40.17-18.02-40.17-40.17s18.02-40.17 40.17-40.17 40.17 18.02 40.17 40.17-18.03 40.17-40.17 40.17zm0-72.82c-18.01 0-32.66 14.65-32.66 32.66s14.65 32.66 32.66 32.66 32.66-14.65 32.66-32.66-14.66-32.66-32.66-32.66z"/><path d="m76.39 236.31c-11.17 0-20.26-9.09-20.26-20.26s9.09-20.26 20.26-20.26 20.26 9.09 20.26 20.26-9.09 20.26-20.26 20.26zm0-33.02c-7.03 0-12.75 5.72-12.75 12.75s5.72 12.75 12.75 12.75 12.75-5.72 12.75-12.75-5.72-12.75-12.75-12.75z"/><path d="m52.08 249.76-6.22-4.2c7.09-10.49 18.87-16.76 31.51-16.76 12.09 0 23.18 5.56 30.44 15.24l-6.01 4.5c-5.82-7.78-14.73-12.23-24.43-12.23-10.14 0-19.6 5.02-25.29 13.45z"/><path d="m223.27 263.44c-22.15 0-40.17-18.02-40.17-40.17s18.02-40.17 40.17-40.17 40.17 18.02 40.17 40.17-18.02 40.17-40.17 40.17zm0-72.82c-18.01 0-32.66 14.65-32.66 32.66s14.65 32.66 32.66 32.66 32.66-14.65 32.66-32.66-14.65-32.66-32.66-32.66z"/><path d="m223.27 236.31c-11.17 0-20.26-9.09-20.26-20.26s9.09-20.26 20.26-20.26 20.26 9.09 20.26 20.26-9.08 20.26-20.26 20.26zm0-33.02c-7.03 0-12.75 5.72-12.75 12.75s5.72 12.75 12.75 12.75 12.75-5.72 12.75-12.75-5.71-12.75-12.75-12.75z"/><path d="m198.97 249.76-6.22-4.2c7.09-10.49 18.87-16.76 31.51-16.76 12.09 0 23.18 5.56 30.44 15.24l-6.01 4.5c-5.83-7.77-14.73-12.23-24.43-12.23-10.14 0-19.6 5.02-25.29 13.45z"/></g></svg>