<svg xmlns="http://www.w3.org/2000/svg" x="0" y="0" viewBox="0 0 100 100" xml:space="preserve"><style>.st0,.st1{fill:none;stroke:#00c3cd;stroke-width:3;stroke-linecap:round}.st1{stroke:#fff;stroke-linejoin:round}</style><path class="st0" d="M50.1 25.1c10.8 0 19.9 7.2 23 17.2"/><path class="st1" d="M49.9 25.1v-21M61.4 13.6L49.9 2.1 38.4 13.6"/><path class="st0" d="M49.9 74.9c-10.8 0-19.9-7.2-23-17.2"/><path class="st1" d="M50.1 74.9V96M38.6 86.4l11.5 11.5 11.5-11.5"/><path class="st0" d="M74.9 50.1c0 10.8-7.2 19.9-17.2 23"/><path class="st1" d="M74.9 49.9H96M86.4 61.4l11.5-11.5-11.5-11.5"/><path class="st0" d="M25.1 49.9c0-10.8 7.2-19.9 17.2-23"/><path class="st1" d="M25.1 50.1h-21M13.6 38.6L2.1 50.1l11.5 11.5"/></svg>