<svg xmlns="http://www.w3.org/2000/svg" x="0" y="0" viewBox="0 0 123 123" xml:space="preserve"><style>.st0{stroke-linecap:round}.st0,.st1,.st2{fill:none;stroke:#fff;stroke-width:3;stroke-linejoin:round;stroke-miterlimit:10}.st2{stroke:#00c3cd;stroke-linecap:round}</style><path class="st0" d="M57.9 12.2l6.4-6.4 4.3 4.2-3.9 3.9M85.8 34.9l3.8-3.8 4.3 4.2-6.4 6.4M44 9.3l6.9-7 4.3 4.2-4.5 4.5M89.2 48.3l3.9-3.8 4.2 4.2-6.4 6.4"/><path class="st1" d="M57.2 29.4c-1.9-2.1-6.9-7.3-13.3-10.5-8.3-4.1-11.3-5.1-11.3-5.1L38.3 8l31.9 7.7M70.7 42.8c2.3 2.1 7.1 6.9 10.1 12.9C84.9 64 85.9 67 85.9 67l5.8-5.8L84 29.3M57.7 61.7l-4.7-15h-.1l-15-4.8-4 4 13.3 6.6 6.5 13.2z"/><path class="st1" d="M55.3 54.6c1.4-.9 3.2-2.2 5.3-3.8 6.9-5.2 19.3-17.2 24.3-22.2s6.4-6.3 8.2-12.2c2.1-6.6-.4-9.6-.4-9.6s-3-2.5-9.6-.4c-5.9 1.8-7.1 3.2-12.2 8.2-5 5-17 17.5-22.2 24.3-1.6 2.2-2.9 3.9-3.8 5.3"/><path class="st0" d="M81.3 12.2H85c1.3 0 2.4 1.1 2.4 2.4v3.7"/><path class="st2" d="M63.4 89.6l18.2-18.2M28.1 17.9L9.8 36.1M3.4 78l26.9-26.9M49.3 70.1L22.4 97"/></svg>
