<svg enable-background="new 0 0 300 300" viewBox="0 0 300 300" xmlns="http://www.w3.org/2000/svg"><path d="m122.97 174.64-4.1-6.26 27.09-17.7v-52.86h7.48v56.91z" fill="#60c0c9"/><path d="m202.39 55.05-7.31 1.63 4.44 19.92c-14.73-9.56-32.2-14.84-49.78-14.84-50.33 0-91.29 40.95-91.29 91.29 0 50.33 40.94 91.28 91.26 91.28h3.75l-.03-21.89-7.48.01.02 14.31c-12.55-.55-24.39-3.89-34.92-9.39l7.16-12.4-6.48-3.74-7.15 12.38c-10.19-6.54-18.87-15.24-25.41-25.43l12.38-7.15-3.74-6.48-12.4 7.16c-5.5-10.53-8.82-22.36-9.38-34.9h14.33v-7.48h-14.32c.55-12.54 3.88-24.37 9.37-34.9l12.4 7.16 3.74-6.48-12.39-7.15c6.56-10.23 15.28-18.94 25.51-25.5l7.16 12.39 6.48-3.74-7.16-12.41c10.5-5.47 22.29-8.8 34.8-9.36v14.35h7.48v-14.3c15.31.69 30.36 5.65 43.08 14.19l-21.59 4.81 1.63 7.31 33.24-7.4z" fill="#fff"/><g fill="#60c0c9"><path d="m208.5 110.06h18.14v7.48h-18.14z" transform="matrix(.866 -.5 .5 .866 -27.7515 124.0314)"/><path d="m219.03 149.32h18.14v7.48h-18.14z"/><path d="m213.82 183.25h7.48v18.14h-7.48z" transform="matrix(.5 -.866 .866 .5 -57.7674 284.5878)"/><path d="m185.22 211.88h7.48v18.15h-7.48z" transform="matrix(.866 -.5 .5 .866 -85.1627 124.0897)"/></g></svg>