<svg enable-background="new 0 0 300 300" viewBox="0 0 300 300" xmlns="http://www.w3.org/2000/svg" xmlns:xlink="http://www.w3.org/1999/xlink"><linearGradient id="a" gradientUnits="userSpaceOnUse" x1="193.3828" x2="161.0784" y1="196.966" y2="106.7774"><stop offset="0" stop-color="#fff"/><stop offset=".1919" stop-color="#d6eff1"/><stop offset=".4587" stop-color="#a4dbe0"/><stop offset=".692" stop-color="#7fccd3"/><stop offset=".8804" stop-color="#68c3cc"/><stop offset="1" stop-color="#60c0c9"/></linearGradient><path d="m137.9 255.05-44.54-49.71h21.31v-23.31h-54.86c-17.54 0-31.81-14.27-31.81-31.81s14.27-31.81 31.81-31.81c1.91 0 3.81.17 5.67.51.09-21.92 17.94-39.72 39.88-39.72 7.02 0 13.94 1.89 20.06 5.46 5.86-23.28 26.57-39.47 50.64-39.47 27.59 0 50.37 21.45 52.11 48.94 24.28.1 43.9 19.78 43.9 43.95 0 24.24-19.72 43.95-43.95 43.95h-35.52v-41.57h12.03l-27.77-30.99-27.77 30.99h12.04v64.88h21.31zm-27.77-42.22 27.77 30.99 27.77-30.99h-12.03v-64.88h-21.31l44.54-49.71 44.54 49.71h-21.31v26.58h28.03c20.11 0 36.46-16.36 36.46-36.46s-16.35-36.46-36.44-36.46l-6.23.24-1.18-6.76c-1.25-23.78-20.87-42.41-44.66-42.41-20.84 0-38.75 14.17-43.54 34.46l-2.2 9.28-8.14-4.97c-5.11-3.12-10.93-4.76-16.83-4.76-17.86 0-32.38 14.53-32.38 32.38v7.87l-8.28-.55c-1.59-.33-3.23-.49-4.88-.49-13.41 0-24.32 10.91-24.32 24.31 0 13.41 10.91 24.32 24.32 24.32h62.35v38.29h-12.05z" fill="#fff"/><path d="m153.54 212.77v-64.88h-21.31l44.54-49.71 44.54 49.71h-21.32v26.59h28.04v7.49h-35.53v-41.57h12.04l-27.77-30.99-27.77 30.99h12.03v64.88z" fill="url(#a)"/><path d="m348.88 218.21c-2.99-1.36-5.65-3.2-7.91-5.46-5.12-5.12-7.95-11.92-7.96-19.16s2.81-14.05 7.92-19.18c10.56-10.58 27.76-10.59 38.34-.03 5.12 5.12 7.95 11.92 7.96 19.16s-2.81 14.05-7.92 19.18c-2.27 2.28-4.94 4.12-7.94 5.49l-1.04-2.27c2.73-1.24 5.15-2.92 7.21-4.98 4.65-4.65 7.2-10.83 7.19-17.41-.01-6.57-2.57-12.75-7.22-17.4-9.6-9.59-25.22-9.57-34.81.03-4.65 4.65-7.2 10.83-7.19 17.41.01 6.57 2.57 12.75 7.22 17.4 2.05 2.05 4.47 3.72 7.18 4.95z" fill="#fff"/><path d="m359.63 224.02c-3.05 0-5.54-2.48-5.54-5.54s2.48-5.54 5.54-5.54 5.54 2.48 5.54 5.54-2.48 5.54-5.54 5.54zm0-8.57c-1.67 0-3.04 1.36-3.04 3.04s1.36 3.04 3.04 3.04 3.04-1.36 3.04-3.04-1.36-3.04-3.04-3.04z" fill="#fff"/><path d="m363.17 210.48h-8.15l-.49-12.9 1.25-.05c5.46-.21 6.19-2.33 6.19-4.38 0-1.7-.65-2.57-1.94-2.57-1.26 0-2.1.21-2.17 3.07l-.03 1.3-8.08-.56.01-1.17c.05-6.69 4.02-10.69 10.63-10.69 5.91 0 10.19 4.45 10.19 10.58 0 5.12-2.77 9.15-7.13 10.53zm-5.74-2.5h3.34l.27-6.32.94-.2c3.71-.81 6.11-4.08 6.11-8.34 0-3.89-2.41-8.08-7.69-8.08-6.19 0-7.77 3.99-8.07 7.04l3.14.22c.23-1.75 1.1-4.2 4.58-4.2 2.69 0 4.44 1.99 4.44 5.07 0 4.01-2.47 6.29-7.35 6.79z" fill="#fff"/><g fill="#60c0c9"><path d="m381.11 186.72-4.84-1.29 19.8-11.44-1.25-2.16-19.77 11.41 1.28-4.78-2.41-.65-2.39 8.93 8.93 2.4z"/><path d="m339.1 199.95 4.84 1.3-19.81 11.44 1.25 2.16 19.77-11.41-1.28 4.78 2.42.65 2.39-8.94-8.93-2.39z"/><path d="m396.09 212.65-19.77-11.41 4.79-1.29-.65-2.41-8.93 2.39 2.39 8.94 2.41-.65-1.29-4.84 19.8 11.43z"/><path d="m339.1 186.72.65 2.42 8.93-2.4-2.39-8.93-2.42.65 1.3 4.84-19.81-11.44-1.25 2.17 19.77 11.41z"/><path d="m361.33 175.39v-22.88h-2.5v22.83l-3.5-3.5-1.77 1.77 6.54 6.54 6.54-6.54-1.76-1.77z"/></g></svg>