<svg id="b6b968c0-23e2-4a53-b40d-3efbc144452e" data-name="Layer 1" xmlns="http://www.w3.org/2000/svg" viewBox="0 0 300 300">
  <defs>
    <style>
      .b2e8b832-cac0-46fe-9b70-aa0a20d527f3, .f52920e6-4559-4018-b052-4a1b8966901e {
        fill: none;
        stroke-linecap: round;
        stroke-linejoin: round;
        stroke-width: 6px;
      }

      .b2e8b832-cac0-46fe-9b70-aa0a20d527f3 {
        stroke: #000;
      }

      .f52920e6-4559-4018-b052-4a1b8966901e {
        stroke: #00c3cd;
      }
    </style>
  </defs>
  <path class="b2e8b832-cac0-46fe-9b70-aa0a20d527f3" d="M196.55,239.41H65.74a12,12,0,0,1-12-12V58a12,12,0,0,1,12-12H235.18a12,12,0,0,1,12,12V188.19"/>
  <polygon class="b2e8b832-cac0-46fe-9b70-aa0a20d527f3" points="287.67 223.04 275.1 220.09 281.9 209.11 266.75 193.96 255.78 200.76 252.82 188.19 231.4 188.19 228.44 200.76 217.47 193.96 202.32 209.11 209.12 220.09 196.55 223.04 196.55 244.46 209.12 247.42 202.32 258.39 217.47 273.54 228.44 266.74 231.4 279.31 252.82 279.31 255.78 266.74 266.75 273.54 281.9 258.39 275.1 247.42 287.67 244.46 287.67 223.04"/>
  <circle class="b2e8b832-cac0-46fe-9b70-aa0a20d527f3" cx="242.11" cy="233.75" r="18.01"/>
  <line class="b2e8b832-cac0-46fe-9b70-aa0a20d527f3" x1="96.63" y1="122.58" x2="96.63" y2="206.68"/>
  <line class="b2e8b832-cac0-46fe-9b70-aa0a20d527f3" x1="96.63" y1="78.68" x2="96.63" y2="88.57"/>
  <line class="b2e8b832-cac0-46fe-9b70-aa0a20d527f3" x1="150.46" y1="192.45" x2="150.46" y2="206.68"/>
  <line class="b2e8b832-cac0-46fe-9b70-aa0a20d527f3" x1="150.46" y1="78.68" x2="150.46" y2="159.88"/>
  <line class="b2e8b832-cac0-46fe-9b70-aa0a20d527f3" x1="204.29" y1="140.51" x2="204.29" y2="206.68"/>
  <line class="b2e8b832-cac0-46fe-9b70-aa0a20d527f3" x1="204.29" y1="78.68" x2="204.29" y2="108.05"/>
  <circle class="f52920e6-4559-4018-b052-4a1b8966901e" cx="96.63" cy="104.8" r="16.23"/>
  <circle class="f52920e6-4559-4018-b052-4a1b8966901e" cx="150.46" cy="176.22" r="16.23"/>
  <circle class="f52920e6-4559-4018-b052-4a1b8966901e" cx="204.29" cy="124.28" r="16.23"/>
</svg>
