<svg enable-background="new 0 0 300 300" viewBox="0 0 300 300" xmlns="http://www.w3.org/2000/svg"><path d="m257.9 147.62c-1.97-2.4-48.81-58.71-107.9-58.71s-105.93 56.31-107.9 58.71l-1.95 2.38 1.95 2.38c1.97 2.4 48.81 58.71 107.9 58.71s105.93-56.31 107.9-58.71l1.95-2.38zm-54.31 2.38c0 29.55-24.04 53.59-53.59 53.59s-53.59-24.04-53.59-53.59 24.04-53.59 53.59-53.59 53.59 24.04 53.59 53.59zm-153.62 0c6.57-7.32 28.19-29.78 56.87-43.19-11.07 11.06-17.93 26.34-17.93 43.19s6.86 32.13 17.93 43.19c-28.68-13.41-50.29-35.87-56.87-43.19zm143.19 43.19c11.07-11.06 17.93-26.34 17.93-43.19s-6.86-32.13-17.93-43.19c28.68 13.41 50.29 35.87 56.87 43.19-6.58 7.32-28.19 29.78-56.87 43.19z" fill="#fff"/><g fill="#60c0c9"><path d="m170.04 120.66h7.5v58.68h-7.5z"/><path d="m146.25 137.25h7.5v42.08h-7.5z"/><path d="m122.46 151.58h7.5v27.75h-7.5z"/></g></svg>