<svg enable-background="new 0 0 300 300" viewBox="0 0 300 300" xmlns="http://www.w3.org/2000/svg"><g fill="#60c0c9"><path d="m173.17 161.43c0-12.63-9.54-17.97-19.84-21.86-10.46-4-15.77-7.14-15.77-13.19 0-4.93 4.2-9.9 13.57-9.9 4.47 0 8.73.79 12.64 2.36l2.78-6.96c-4.17-1.67-8.64-2.58-13.3-2.8v-13.05h-7.5v13.45c-10.32 1.95-15.7 9.46-15.7 16.9 0 12.32 11.9 16.87 20.61 20.2 12.54 4.73 15 9.02 15 14.84 0 6.49-6.21 13.2-16.61 13.2-7.05 0-14.3-2.18-17.21-3.72l-3.52 6.62c3.04 1.62 9.84 3.93 17.43 4.48v13.43h7.5v-13.62c12.55-1.75 19.92-11.19 19.92-20.38z"/><path d="m235.8 177.01c-13.73 0-35.51-4.69-35.51-17.3h7.5c0 4.85 14.14 9.8 28.01 9.8s28.01-4.94 28.01-9.8h7.5c.01 12.6-21.78 17.3-35.51 17.3z"/><path d="m235.8 153.05c-13.73 0-35.51-4.69-35.51-17.3h7.5c0 4.85 14.14 9.8 28.01 9.8s28.01-4.94 28.01-9.8h7.5c.01 12.6-21.78 17.3-35.51 17.3z"/><path d="m255.12 137.39c-.11.02-.21.03-.32.03-.51 0-.98-.22-1.32-.6s-.54-.92-.53-1.52c0-.71.27-1.37.69-1.87.36-.43.85-.75 1.39-.84.11-.02.21-.03.32-.03.31 0 .6.08.86.22.6.34 1 1.05 1 1.9-.02 1.32-.93 2.5-2.09 2.71z"/><path d="m255.12 160.8c-.11.02-.21.03-.32.03-.51 0-.98-.22-1.32-.6s-.54-.92-.53-1.52c0-.71.27-1.37.69-1.87.36-.43.85-.75 1.39-.84.11-.02.21-.03.32-.03.31 0 .6.08.86.22.6.34 1 1.05 1 1.9-.02 1.32-.93 2.5-2.09 2.71z"/><path d="m255.12 184.49c-.11.02-.21.03-.32.03-.51 0-.98-.22-1.32-.6s-.54-.92-.53-1.52c0-.71.27-1.37.69-1.87.36-.43.85-.75 1.39-.84.11-.02.21-.03.32-.03.31 0 .6.08.86.22.6.34 1 1.05 1 1.9-.02 1.32-.93 2.5-2.09 2.71z"/></g><path d="m235.8 129.07c-13.73 0-35.51-4.69-35.51-17.3 0-12.6 21.78-17.3 35.51-17.3s35.51 4.7 35.51 17.3c.01 12.61-21.78 17.3-35.51 17.3zm0-27.09c-13.88 0-28.01 4.95-28.01 9.8s14.14 9.8 28.01 9.8 28.01-4.94 28.01-9.8c.01-4.86-14.13-9.8-28.01-9.8z" fill="#fff"/><path d="m235.8 201.01c-13.73 0-35.51-4.69-35.51-17.3v-71.93h7.5v71.93c0 4.85 14.14 9.8 28.01 9.8s28.01-4.94 28.01-9.8v-71.35h7.5v71.35c.01 12.6-21.78 17.3-35.51 17.3z" fill="#fff"/><path d="m64.11 177.01c-13.73 0-35.51-4.69-35.51-17.3h7.5c0 4.85 14.14 9.8 28.01 9.8s28.01-4.94 28.01-9.8h7.5c0 12.6-21.78 17.3-35.51 17.3z" fill="#60c0c9"/><path d="m64.11 153.05c-13.73 0-35.51-4.69-35.51-17.3h7.5c0 4.85 14.14 9.8 28.01 9.8s28.01-4.94 28.01-9.8h7.5c0 12.6-21.78 17.3-35.51 17.3z" fill="#60c0c9"/><path d="m83.42 137.39c-.11.02-.21.03-.32.03-.51 0-.98-.22-1.32-.6s-.54-.92-.53-1.52c0-.71.27-1.37.69-1.87.36-.43.85-.75 1.39-.84.11-.02.21-.03.32-.03.31 0 .6.08.86.22.6.34 1 1.05 1 1.9-.01 1.32-.92 2.5-2.09 2.71z" fill="#60c0c9"/><path d="m83.42 160.8c-.11.02-.21.03-.32.03-.51 0-.98-.22-1.32-.6s-.54-.92-.53-1.52c0-.71.27-1.37.69-1.87.36-.43.85-.75 1.39-.84.11-.02.21-.03.32-.03.31 0 .6.08.86.22.6.34 1 1.05 1 1.9-.01 1.32-.92 2.5-2.09 2.71z" fill="#60c0c9"/><path d="m83.42 184.49c-.11.02-.21.03-.32.03-.51 0-.98-.22-1.32-.6s-.54-.92-.53-1.52c0-.71.27-1.37.69-1.87.36-.43.85-.75 1.39-.84.11-.02.21-.03.32-.03.31 0 .6.08.86.22.6.34 1 1.05 1 1.9-.01 1.32-.92 2.5-2.09 2.71z" fill="#60c0c9"/><path d="m64.11 129.07c-13.73 0-35.51-4.69-35.51-17.3 0-12.6 21.78-17.3 35.51-17.3s35.51 4.7 35.51 17.3c0 12.61-21.78 17.3-35.51 17.3zm0-27.09c-13.88 0-28.01 4.95-28.01 9.8s14.14 9.8 28.01 9.8 28.01-4.94 28.01-9.8-14.14-9.8-28.01-9.8z" fill="#fff"/><path d="m64.11 201.01c-13.73 0-35.51-4.69-35.51-17.3v-71.93h7.5v71.93c0 4.85 14.14 9.8 28.01 9.8s28.01-4.94 28.01-9.8v-71.35h7.5v71.35c0 12.6-21.78 17.3-35.51 17.3z" fill="#fff"/><path d="m85.19 103.42-6.22-4.19c16.76-24.91 44.65-39.01 74.5-37.67 17.82.79 35.32 7.34 49.28 18.44l-4.67 5.87c-12.73-10.12-28.69-16.1-44.94-16.82-27.25-1.19-52.66 11.65-67.95 34.37z" fill="#fff"/><path d="m100.29 238.86-5.56-31.46 31.46-5.56 1.3 7.39-24.07 4.25 4.26 24.07z" fill="#fff"/><path d="m149.79 231.9c-1.26 0-2.51-.03-3.77-.08-17.82-.79-35.32-7.34-49.28-18.44l4.67-5.87c12.73 10.13 28.69 16.1 44.94 16.82 25.8 1.13 50.4-10.6 65.85-31.4l6.02 4.47c-16.18 21.78-41.54 34.5-68.43 34.5z" fill="#fff"/></svg>