<svg id="b2f993b0-d1a1-4adc-9fd3-8bb3d00058dc" data-name="Layer 1" xmlns="http://www.w3.org/2000/svg" viewBox="0 0 256 256"><path d="M190.49,55.06A56.68,56.68,0,0,0,82.28,38.65a25.18,25.18,0,0,0-7-.69A38.75,38.75,0,0,0,37.6,78.1a39,39,0,0,0,38.05,40.14h111a31.58,31.58,0,0,0,31.77-31.41A32.36,32.36,0,0,0,190.49,55.06ZM134.29,4.8A56.6,56.6,0,0,0,77.4,61.34m135.43,8a32.09,32.09,0,0,0-44-10.12" style="fill:none;stroke:#ffc32d;stroke-linecap:round;stroke-linejoin:round;stroke-width:6px"/><ellipse cx="30.74" cy="191.79" rx="27.82" ry="7.8" style="fill:none;stroke:#000;stroke-linecap:round;stroke-linejoin:round;stroke-width:5px"/><path d="M58.55,209.6c0,4.3-12.45,7.8-27.81,7.8s-27.82-3.5-27.82-7.8" style="fill:none;stroke:#000;stroke-linecap:round;stroke-linejoin:round;stroke-width:5px"/><path d="M58.55,227.4c0,4.31-12.45,7.81-27.81,7.81s-27.82-3.5-27.82-7.81" style="fill:none;stroke:#000;stroke-linecap:round;stroke-linejoin:round;stroke-width:5px"/><path d="M58.55,245.21c0,4.31-12.45,7.8-27.81,7.8s-27.82-3.49-27.82-7.8" style="fill:none;stroke:#000;stroke-linecap:round;stroke-linejoin:round;stroke-width:5px"/><line x1="2.92" y1="191.79" x2="2.92" y2="245.21" style="fill:none;stroke:#000;stroke-linecap:round;stroke-linejoin:round;stroke-width:5px"/><line x1="58.55" y1="191.79" x2="58.55" y2="245.21" style="fill:none;stroke:#000;stroke-linecap:round;stroke-linejoin:round;stroke-width:5px"/><circle cx="51.33" cy="205.36" r="1.13" style="fill:none;stroke:#000;stroke-linecap:round;stroke-linejoin:round;stroke-width:5px"/><circle cx="51.33" cy="224.1" r="1.13" style="fill:none;stroke:#000;stroke-linecap:round;stroke-linejoin:round;stroke-width:5px"/><circle cx="51.33" cy="241.79" r="1.13" style="fill:none;stroke:#000;stroke-linecap:round;stroke-linejoin:round;stroke-width:5px"/><polyline points="71.66 149.01 71.95 135.37 58.3 135.08" style="fill:none;stroke:#000;stroke-linecap:round;stroke-linejoin:round;stroke-width:4px"/><line x1="39.49" y1="167.53" x2="69.19" y2="137.84" style="fill:none;stroke:#000;stroke-linecap:round;stroke-linejoin:round;stroke-width:4px"/><ellipse cx="224.95" cy="191.79" rx="27.82" ry="7.8" style="fill:none;stroke:#000;stroke-linecap:round;stroke-linejoin:round;stroke-width:5px"/><path d="M252.77,209.6c0,4.3-12.45,7.8-27.82,7.8s-27.81-3.5-27.81-7.8" style="fill:none;stroke:#000;stroke-linecap:round;stroke-linejoin:round;stroke-width:5px"/><path d="M252.77,227.4c0,4.31-12.45,7.81-27.82,7.81s-27.81-3.5-27.81-7.81" style="fill:none;stroke:#000;stroke-linecap:round;stroke-linejoin:round;stroke-width:5px"/><path d="M252.77,245.21c0,4.31-12.45,7.8-27.82,7.8s-27.81-3.49-27.81-7.8" style="fill:none;stroke:#000;stroke-linecap:round;stroke-linejoin:round;stroke-width:5px"/><line x1="197.14" y1="191.79" x2="197.14" y2="245.21" style="fill:none;stroke:#000;stroke-linecap:round;stroke-linejoin:round;stroke-width:5px"/><line x1="252.77" y1="191.79" x2="252.77" y2="245.21" style="fill:none;stroke:#000;stroke-linecap:round;stroke-linejoin:round;stroke-width:5px"/><circle cx="245.55" cy="205.36" r="1.13" style="fill:none;stroke:#000;stroke-linecap:round;stroke-linejoin:round;stroke-width:5px"/><circle cx="245.55" cy="224.1" r="1.13" style="fill:none;stroke:#000;stroke-linecap:round;stroke-linejoin:round;stroke-width:5px"/><circle cx="245.55" cy="241.79" r="1.13" style="fill:none;stroke:#000;stroke-linecap:round;stroke-linejoin:round;stroke-width:5px"/><polyline points="198.75 135.51 185.11 135.22 184.83 148.87" style="fill:none;stroke:#000;stroke-linecap:round;stroke-linejoin:round;stroke-width:4px"/><line x1="187.58" y1="137.84" x2="219.93" y2="170.19" style="fill:none;stroke:#000;stroke-linecap:round;stroke-linejoin:round;stroke-width:4px"/><ellipse cx="128.12" cy="191.84" rx="27.82" ry="7.8" style="fill:none;stroke:#000;stroke-linecap:round;stroke-linejoin:round;stroke-width:5px"/><path d="M155.93,209.64c0,4.31-12.45,7.81-27.81,7.81s-27.82-3.5-27.82-7.81" style="fill:none;stroke:#000;stroke-linecap:round;stroke-linejoin:round;stroke-width:5px"/><path d="M155.93,227.45c0,4.31-12.45,7.8-27.81,7.8s-27.82-3.49-27.82-7.8" style="fill:none;stroke:#000;stroke-linecap:round;stroke-linejoin:round;stroke-width:5px"/><path d="M155.93,245.26c0,4.31-12.45,7.8-27.81,7.8s-27.82-3.49-27.82-7.8" style="fill:none;stroke:#000;stroke-linecap:round;stroke-linejoin:round;stroke-width:5px"/><line x1="100.3" y1="191.84" x2="100.3" y2="245.26" style="fill:none;stroke:#000;stroke-linecap:round;stroke-linejoin:round;stroke-width:5px"/><line x1="155.93" y1="191.84" x2="155.93" y2="245.26" style="fill:none;stroke:#000;stroke-linecap:round;stroke-linejoin:round;stroke-width:5px"/><circle cx="148.71" cy="205.41" r="1.13" style="fill:none;stroke:#000;stroke-linecap:round;stroke-linejoin:round;stroke-width:5px"/><circle cx="148.71" cy="224.14" r="1.13" style="fill:none;stroke:#000;stroke-linecap:round;stroke-linejoin:round;stroke-width:5px"/><circle cx="148.71" cy="241.84" r="1.13" style="fill:none;stroke:#000;stroke-linecap:round;stroke-linejoin:round;stroke-width:5px"/><polyline points="137.92 141.99 128.47 132.15 118.63 141.59" style="fill:none;stroke:#000;stroke-linecap:round;stroke-linejoin:round;stroke-width:4px"/><line x1="128.37" y1="135.74" x2="128.37" y2="170.19" style="fill:none;stroke:#000;stroke-linecap:round;stroke-linejoin:round;stroke-width:4px"/></svg>