<svg id="ad9831ed-939a-4341-bd52-01040e71fb64" data-name="Layer 1" xmlns="http://www.w3.org/2000/svg" viewBox="0 0 300 300">
  <defs>
    <style>
      .a625fa99-53b7-4ee4-a0ce-ad100bbf4df6, .b0ffc5d8-ac35-452c-829a-950428b7c045 {
        fill: none;
        stroke-linecap: round;
        stroke-linejoin: round;
        stroke-width: 6px;
      }

      .b0ffc5d8-ac35-452c-829a-950428b7c045 {
        stroke: #000;
      }

      .a625fa99-53b7-4ee4-a0ce-ad100bbf4df6 {
        stroke: #00c3cd;
      }
    </style>
  </defs>
  <path class="b0ffc5d8-ac35-452c-829a-950428b7c045" d="M212.19,102.85V61.68L127.52,31.42,43,61.68v84c0,20.9,10.46,56.89,35.43,78.58a333.52,333.52,0,0,0,49.06,35.42,328.47,328.47,0,0,0,31.4-20.9"/>
  <path class="b0ffc5d8-ac35-452c-829a-950428b7c045" d="M240.09,108.75V42.49L127.52,3.85,14.92,42.56V150.17c0,26.75,14,72.82,47.22,100.65a455.22,455.22,0,0,0,65.38,45.33A458.43,458.43,0,0,0,188.8,254.3"/>
  <circle class="a625fa99-53b7-4ee4-a0ce-ad100bbf4df6" cx="210.45" cy="180.06" r="77.21"/>
  <path class="b0ffc5d8-ac35-452c-829a-950428b7c045" d="M233,167.32h8.4A15.68,15.68,0,0,1,257.05,183h0a15.69,15.69,0,0,1-15.64,15.64H217A15.68,15.68,0,0,1,201.34,183h0"/>
  <path class="b0ffc5d8-ac35-452c-829a-950428b7c045" d="M191.38,198.6H183A15.68,15.68,0,0,1,167.34,183h0A15.68,15.68,0,0,1,183,167.32h24.43A15.68,15.68,0,0,1,223.05,183h0"/>
</svg>
