<svg id="ba821090-4672-4a1f-8739-10bd4f2c7d71" data-name="Layer 1" xmlns="http://www.w3.org/2000/svg" viewBox="0 0 256 256"><path d="M116.05,97.17h8.5a25.75,25.75,0,0,0,25.9-25.61,26.38,26.38,0,0,0-22.77-25.9A46.21,46.21,0,0,0,39.45,32.28a20.31,20.31,0,0,0-5.69-.57A31.6,31.6,0,0,0,3,64.44,31.82,31.82,0,0,0,34,97.17h5.25M81.86,4.67a46.17,46.17,0,0,0-46.4,46.11M145.9,57.33A26.18,26.18,0,0,0,110,49.07" style="fill:none;stroke:#ffc32d;stroke-linecap:round;stroke-linejoin:round;stroke-width:6px"/><ellipse cx="76.78" cy="67.67" rx="37.49" ry="10.51" style="fill:none;stroke:#000;stroke-linecap:round;stroke-linejoin:round;stroke-width:6px"/><path d="M114.27,91.67c0,5.81-16.79,10.51-37.49,10.51s-37.49-4.7-37.49-10.51" style="fill:none;stroke:#000;stroke-linecap:round;stroke-linejoin:round;stroke-width:6px"/><path d="M114.27,115.67c0,5.81-16.79,10.51-37.49,10.51s-37.49-4.7-37.49-10.51" style="fill:none;stroke:#000;stroke-linecap:round;stroke-linejoin:round;stroke-width:6px"/><path d="M114.27,139.67c0,5.81-16.79,10.51-37.49,10.51s-37.49-4.7-37.49-10.51" style="fill:none;stroke:#000;stroke-linecap:round;stroke-linejoin:round;stroke-width:6px"/><line x1="39.29" y1="67.67" x2="39.29" y2="139.67" style="fill:none;stroke:#000;stroke-linecap:round;stroke-linejoin:round;stroke-width:6px"/><line x1="114.27" y1="67.67" x2="114.27" y2="139.67" style="fill:none;stroke:#000;stroke-linecap:round;stroke-linejoin:round;stroke-width:6px"/><circle cx="104.53" cy="85.96" r="1.52" style="fill:none;stroke:#000;stroke-linecap:round;stroke-linejoin:round;stroke-width:6px"/><circle cx="104.53" cy="111.21" r="1.52" style="fill:none;stroke:#000;stroke-linecap:round;stroke-linejoin:round;stroke-width:6px"/><circle cx="104.53" cy="135.06" r="1.52" style="fill:none;stroke:#000;stroke-linecap:round;stroke-linejoin:round;stroke-width:6px"/><ellipse cx="197.17" cy="169.72" rx="37.49" ry="10.51" style="fill:none;stroke:#71777c;stroke-linecap:round;stroke-linejoin:round;stroke-width:6px"/><path d="M234.66,193.72c0,5.8-16.79,10.51-37.49,10.51s-37.49-4.71-37.49-10.51" style="fill:none;stroke:#71777c;stroke-linecap:round;stroke-linejoin:round;stroke-width:6px"/><path d="M234.66,217.72c0,5.8-16.79,10.51-37.49,10.51s-37.49-4.71-37.49-10.51" style="fill:none;stroke:#71777c;stroke-linecap:round;stroke-linejoin:round;stroke-width:6px"/><path d="M234.66,241.72c0,5.8-16.79,10.51-37.49,10.51s-37.49-4.71-37.49-10.51" style="fill:none;stroke:#71777c;stroke-linecap:round;stroke-linejoin:round;stroke-width:6px"/><line x1="159.68" y1="169.72" x2="159.68" y2="241.72" style="fill:none;stroke:#71777c;stroke-linecap:round;stroke-linejoin:round;stroke-width:6px"/><line x1="234.66" y1="169.72" x2="234.66" y2="241.72" style="fill:none;stroke:#71777c;stroke-linecap:round;stroke-linejoin:round;stroke-width:6px"/><circle cx="224.92" cy="188.01" r="1.52" style="fill:none;stroke:#71777c;stroke-linecap:round;stroke-linejoin:round;stroke-width:6px"/><circle cx="224.92" cy="213.26" r="1.52" style="fill:none;stroke:#71777c;stroke-linecap:round;stroke-linejoin:round;stroke-width:6px"/><circle cx="224.92" cy="237.11" r="1.52" style="fill:none;stroke:#71777c;stroke-linecap:round;stroke-linejoin:round;stroke-width:6px"/><polyline points="112.58 163.93 95.39 163.57 95.03 180.77" style="fill:none;stroke:#ffc32d;stroke-linecap:round;stroke-linejoin:round;stroke-width:6px"/><line x1="98.5" y1="166.86" x2="147.11" y2="215.48" style="fill:none;stroke:#ffc32d;stroke-linecap:round;stroke-linejoin:round;stroke-width:6px"/></svg>