<svg id="fed03c6f-c1a8-44f8-8a9c-278c09fb9ff6" data-name="Layer 1" xmlns="http://www.w3.org/2000/svg" viewBox="0 0 256 256"><path d="M116.05,96.1h8.5a25.75,25.75,0,0,0,25.9-25.61,26.37,26.37,0,0,0-22.77-25.9A46.21,46.21,0,0,0,39.45,31.21a20.31,20.31,0,0,0-5.69-.57A31.59,31.59,0,0,0,3,63.37,31.82,31.82,0,0,0,34,96.1h5.25M81.86,3.6a46.16,46.16,0,0,0-46.4,46.11M145.9,56.26A26.18,26.18,0,0,0,110,48" style="fill:none;stroke:#ffc32d;stroke-linecap:round;stroke-linejoin:round;stroke-width:6px"/><ellipse cx="76.78" cy="66.6" rx="37.49" ry="10.51" style="fill:none;stroke:#71777c;stroke-linecap:round;stroke-linejoin:round;stroke-width:6px"/><path d="M114.27,90.6c0,5.8-16.79,10.51-37.49,10.51S39.29,96.4,39.29,90.6" style="fill:none;stroke:#71777c;stroke-linecap:round;stroke-linejoin:round;stroke-width:6px"/><path d="M114.27,114.6c0,5.8-16.79,10.51-37.49,10.51S39.29,120.4,39.29,114.6" style="fill:none;stroke:#71777c;stroke-linecap:round;stroke-linejoin:round;stroke-width:6px"/><path d="M114.27,138.6c0,5.8-16.79,10.51-37.49,10.51S39.29,144.4,39.29,138.6" style="fill:none;stroke:#71777c;stroke-linecap:round;stroke-linejoin:round;stroke-width:6px"/><line x1="39.29" y1="66.6" x2="39.29" y2="138.6" style="fill:none;stroke:#71777c;stroke-linecap:round;stroke-linejoin:round;stroke-width:6px"/><line x1="114.27" y1="66.6" x2="114.27" y2="138.6" style="fill:none;stroke:#71777c;stroke-linecap:round;stroke-linejoin:round;stroke-width:6px"/><circle cx="104.53" cy="84.89" r="1.52" style="fill:none;stroke:#71777c;stroke-linecap:round;stroke-linejoin:round;stroke-width:6px"/><circle cx="104.53" cy="110.14" r="1.52" style="fill:none;stroke:#71777c;stroke-linecap:round;stroke-linejoin:round;stroke-width:6px"/><circle cx="104.53" cy="133.99" r="1.52" style="fill:none;stroke:#71777c;stroke-linecap:round;stroke-linejoin:round;stroke-width:6px"/><ellipse cx="198.98" cy="170.19" rx="37.49" ry="10.51" style="fill:none;stroke:#000;stroke-linecap:round;stroke-linejoin:round;stroke-width:6px"/><path d="M236.47,194.19c0,5.8-16.79,10.51-37.49,10.51s-37.49-4.71-37.49-10.51" style="fill:none;stroke:#000;stroke-linecap:round;stroke-linejoin:round;stroke-width:6px"/><path d="M236.47,218.19c0,5.8-16.79,10.51-37.49,10.51s-37.49-4.71-37.49-10.51" style="fill:none;stroke:#000;stroke-linecap:round;stroke-linejoin:round;stroke-width:6px"/><path d="M236.47,242.19c0,5.8-16.79,10.51-37.49,10.51s-37.49-4.71-37.49-10.51" style="fill:none;stroke:#000;stroke-linecap:round;stroke-linejoin:round;stroke-width:6px"/><line x1="161.49" y1="170.19" x2="161.49" y2="242.19" style="fill:none;stroke:#000;stroke-linecap:round;stroke-linejoin:round;stroke-width:6px"/><line x1="236.47" y1="170.19" x2="236.47" y2="242.19" style="fill:none;stroke:#000;stroke-linecap:round;stroke-linejoin:round;stroke-width:6px"/><circle cx="226.73" cy="188.48" r="1.52" style="fill:none;stroke:#000;stroke-linecap:round;stroke-linejoin:round;stroke-width:6px"/><circle cx="226.73" cy="213.73" r="1.52" style="fill:none;stroke:#000;stroke-linecap:round;stroke-linejoin:round;stroke-width:6px"/><circle cx="226.73" cy="237.58" r="1.52" style="fill:none;stroke:#000;stroke-linecap:round;stroke-linejoin:round;stroke-width:6px"/><polyline points="129.56 212.55 146.75 212.91 147.11 195.72" style="fill:none;stroke:#ffc32d;stroke-linecap:round;stroke-linejoin:round;stroke-width:6px"/><line x1="143.64" y1="209.62" x2="95.03" y2="161.01" style="fill:none;stroke:#ffc32d;stroke-linecap:round;stroke-linejoin:round;stroke-width:6px"/></svg>