<svg width="123" height="123" xmlns="http://www.w3.org/2000/svg"><g stroke-width="3" fill="none" fill-rule="evenodd" stroke-linecap="round" stroke-linejoin="round"><path stroke="#00C3CD" d="M91.536 2.228l-11.52 11.986"/><path stroke="#FFF" d="M2.341 31.438l26.612 26.894M108.167 43.536l3.459 3.473a7.059 7.059 0 010 9.883h0a7.059 7.059 0 01-9.882 0l-2.683-2.668 8.965 8.964a6.875 6.875 0 01.042 9.812l-.353.353a6.875 6.875 0 01-9.727-.17l-2.033-2.032 6.226 6.225a7.059 7.059 0 010 9.883l-.367.367a7.059 7.059 0 01-9.882 0l-5.647-5.647 1.934 1.934a6.875 6.875 0 010 9.741l-.424.424a6.89 6.89 0 01-9.727 0l-2.315-2.316"/><path d="M120.167 31.141L97 54.802s-.085 4.236 0 8.118a15.53 15.53 0 01-2.047 8.838 21.515 21.515 0 01-3.417 3.98L73.96 93.599a7.059 7.059 0 01-9.995 0 7.059 7.059 0 010-9.996l-6.89 6.932a7.059 7.059 0 01-10.094-.099 7.059 7.059 0 01-.099-10.094l-3.458 3.487a7.059 7.059 0 01-9.996 0 7.059 7.059 0 010-9.995l3.727-3.657a7.059 7.059 0 01-10.01 0 7.059 7.059 0 010-9.995l29.93-30.327" stroke="#00C3CD"/><path d="M58.628 28.628h13.03A9.614 9.614 0 0081.274 19c0-5.31-4.304-9.614-9.614-9.614H37.918L31.353 2.51" stroke="#FFF"/></g></svg>