<svg id="a5d92ac6-d491-444b-ac8c-4379711b2946" data-name="Layer 1" xmlns="http://www.w3.org/2000/svg" viewBox="0 0 300 300">
  <defs>
    <style>
      .aac322a1-a1e3-4e8e-be42-3dd5062a9264, .af7b4c2b-06b9-4fa4-9d84-2e38d02c3d31 {
        fill: none;
        stroke-linecap: round;
        stroke-linejoin: round;
        stroke-width: 6px;
      }

      .af7b4c2b-06b9-4fa4-9d84-2e38d02c3d31 {
        stroke: #000;
      }

      .aac322a1-a1e3-4e8e-be42-3dd5062a9264 {
        stroke: #00c3cd;
      }
    </style>
  </defs>
  <path class="af7b4c2b-06b9-4fa4-9d84-2e38d02c3d31" d="M213.08,137.9h6.36a1.89,1.89,0,0,1,2.09,1.62h0v21a1.91,1.91,0,0,1-2.09,1.62h-6.36"/>
  <path class="af7b4c2b-06b9-4fa4-9d84-2e38d02c3d31" d="M94.8,131H210.65a1.22,1.22,0,0,1,1.21,1.22h0v35.57a1.22,1.22,0,0,1-1.21,1.22H94.8a1.22,1.22,0,0,1-1.22-1.22h0V132.2a1.24,1.24,0,0,1,1.1-1.21Z"/>
  <path class="af7b4c2b-06b9-4fa4-9d84-2e38d02c3d31" d="M92.35,162.1H86a1.9,1.9,0,0,1-2.09-1.62h0v-21A1.91,1.91,0,0,1,86,137.9h6.37"/>
  <path class="aac322a1-a1e3-4e8e-be42-3dd5062a9264" d="M169.54,37.06,152.72,20.27,135.89,37.06"/>
  <line class="aac322a1-a1e3-4e8e-be42-3dd5062a9264" x1="152.55" y1="24.38" x2="152.55" y2="119.88"/>
  <path class="aac322a1-a1e3-4e8e-be42-3dd5062a9264" d="M135.72,261.94l16.83,16.79,16.82-16.79"/>
  <line class="aac322a1-a1e3-4e8e-be42-3dd5062a9264" x1="152.72" y1="274.62" x2="152.72" y2="179.12"/>
  <path class="aac322a1-a1e3-4e8e-be42-3dd5062a9264" d="M265.07,166.41l16.79-16.82-16.79-16.83"/>
  <line class="aac322a1-a1e3-4e8e-be42-3dd5062a9264" x1="277.75" y1="149.41" x2="232.38" y2="149.41"/>
  <path class="aac322a1-a1e3-4e8e-be42-3dd5062a9264" d="M40.19,132.59,23.41,149.41l16.78,16.83"/>
  <line class="aac322a1-a1e3-4e8e-be42-3dd5062a9264" x1="27.52" y1="149.59" x2="71.55" y2="149.59"/>
  <line class="aac322a1-a1e3-4e8e-be42-3dd5062a9264" x1="151.35" y1="157.88" x2="195.39" y2="157.88"/>
  <path class="aac322a1-a1e3-4e8e-be42-3dd5062a9264" d="M244.09,82l0-23.77-23.77,0"/>
  <line class="aac322a1-a1e3-4e8e-be42-3dd5062a9264" x1="241.04" y1="60.97" x2="208.96" y2="93.05"/>
  <path class="aac322a1-a1e3-4e8e-be42-3dd5062a9264" d="M61.17,217.05l0,23.77,23.77,0"/>
  <line class="aac322a1-a1e3-4e8e-be42-3dd5062a9264" x1="64.22" y1="238.03" x2="95.36" y2="206.89"/>
  <path class="aac322a1-a1e3-4e8e-be42-3dd5062a9264" d="M220.18,241l23.77,0,0-23.77"/>
  <line class="aac322a1-a1e3-4e8e-be42-3dd5062a9264" x1="241.16" y1="237.91" x2="209.08" y2="205.83"/>
  <path class="aac322a1-a1e3-4e8e-be42-3dd5062a9264" d="M85.08,58l-23.76,0,0,23.77"/>
  <line class="aac322a1-a1e3-4e8e-be42-3dd5062a9264" x1="64.1" y1="61.09" x2="95.24" y2="92.23"/>
  <line class="aac322a1-a1e3-4e8e-be42-3dd5062a9264" x1="108.91" y1="141.3" x2="111.37" y2="141.3"/>
  <line class="aac322a1-a1e3-4e8e-be42-3dd5062a9264" x1="119.76" y1="141.3" x2="122.21" y2="141.3"/>
</svg>
