<svg width="123" height="123" xmlns="http://www.w3.org/2000/svg"><g stroke-width="4" fill="none" fill-rule="evenodd" stroke-linecap="round" stroke-linejoin="round"><path d="M108.661 72.856h4.108a8.061 8.061 0 008.062-8.06h0M2.087 64.795h0c0 4.447 3.6 8.054 8.047 8.061h87.304M2.087 64.795h118.744M108.661 73.336c0 8.837-7.159 16.002-15.995 16.01H30.167c-8.836-.008-15.995-7.173-15.995-16.01M2.087 43.802L30.76 56.508" stroke="#FFF"/><path d="M47.588 14.268s-7.34 4.236-3.106 10.348c4.236 6.113-1.313 10.829-1.313 10.829M59.362 2.607s4.01 1.652 4.109 5.534c.098 3.883-4.137 4.39-4.109 8.47.029 4.08 4.052 4.236 4.123 8.245.07 4.01-4.998 7.229-4.998 7.229M80.186 14.96a6.014 6.014 0 00-4.235 5.647c0 4.433 4.658 4.602 4.235 8.838a7.906 7.906 0 01-4.235 6" stroke="#00C3CD"/><path d="M107.518 56.593a6.113 6.113 0 00-4.956-2.541 5.972 5.972 0 00-2.993.819 6.72 6.72 0 00-5.647-3.149 6.833 6.833 0 00-2.273.424 5.986 5.986 0 00-11.59-.184A5.718 5.718 0 0075.682 50a5.859 5.859 0 00-2.57.635c.05-.275.08-.553.086-.833a6.085 6.085 0 00-11.83-2.06 6.07 6.07 0 00-9.7.677 6.085 6.085 0 00-11.139 2.273 6.085 6.085 0 00-3.458-1.073 6.014 6.014 0 00-3.572 1.172 6.099 6.099 0 00-5.435-3.375" stroke="#FFF"/></g></svg>