<svg width="123" height="123" xmlns="http://www.w3.org/2000/svg"><g stroke-width="3" fill="none" fill-rule="evenodd" stroke-linecap="round" stroke-linejoin="round"><path d="M14 90.305c14.333 18.78 39.045 26.347 61.444 18.812C97.842 101.58 112.947 80.62 113 57M104 28.156C91.12 7.244 65.825-2.6 42.092 4.065 18.358 10.728 1.977 32.272 2 56.793c0 1.736.079 3.471.236 5.207" stroke="#FFF"/><path d="M68 46.005A13.466 13.466 0 0057.661 41c-6.809-.066-9.651 4.514-9.599 7.718.053 3.204 2.05 5.851 9.6 7.745 7.548 1.893 10.074 4.487 10.087 8.155.013 3.667-2.644 8.327-9.93 8.38A15.011 15.011 0 0146 67.49M57.5 36v43" stroke="#00C3CD"/><path stroke="#FFF" d="M107 10l-1.151 18.43L87 30M11 108l1.151-18.43L31 88"/></g></svg>