<svg version="1.1" id="Layer_1" xmlns="http://www.w3.org/2000/svg" x="0" y="0" viewBox="0 0 100 100" xml:space="preserve"><style>.st1{fill:none;stroke:#00c3cd;stroke-width:4}</style><path d="M14.8 85.9C6.5 77 1.9 65.3 2 53.3c0-26.5 21.5-48 48-48s48 21.5 48 48c.1 12.1-4.5 23.8-12.7 32.6" fill="none" stroke="#fff" stroke-width="4" stroke-linecap="round"/><circle class="st1" cx="50" cy="53.2" r="5.6"/><path class="st1" d="M34.8 82.9h29.4c3.1-.1 5.7 2.2 5.9 5.4.1 3.1-2.2 5.7-5.4 5.9H34.8c-3.1 0-5.6-2.5-5.6-5.5v-.1c0-3.2 2.5-5.7 5.6-5.7z"/><path d="M92.6 53H90m-80 0H7.4M50 13v-2.6m28.3 14.3l1.8-1.8m-60.2 0l1.8 1.8m67.6 12l-2.4 1M13 68.2l-2.3 1m24-53.2l-1-2.3M65.3 16l1-2.3m-55.6 23l2.3 1m73.9 30.5l2.4 1M55 55.8L76.1 67M40.7 48.6l4.4 2.1" fill="none" stroke="#00c3cd" stroke-width="4" stroke-linecap="round"/></svg>
