<svg enable-background="new 0 0 300 300" viewBox="0 0 300 300" xmlns="http://www.w3.org/2000/svg"><path d="m272.22 168.42h-36.3l-1.01-2.15c-1.89-4.03-5.07-7.9-9.2-11.2-4.96-3.93-11.41-7.37-19.17-10.23l-3.35-1.23c-3.27-1.23-6.97-2.62-9.84-4.06l-3.36-1.68 1.69-3.36c.23-.47.56-.94.91-1.41.09-.12.18-.23.25-.34l.32-.52c7.2-9.59 11.49-22.8 11.49-35.33 0-11.92-3.72-22.78-10.47-30.57l-2.66-3.07 3.28-2.4c4.89-3.59 11.14-5.56 17.59-5.56 18.01 0 31.08 14.39 31.08 34.21 0 10.17-3.37 20.63-9.26 28.68-.54.82-1.15 1.72-1.88 2.5-2.48 3.31-3.02 4.27-2.64 5.77.56 2.12 8.72 5.28 15.28 7.82l2.48 1.02c16.43 5.85 24.77 14.29 24.77 25.09zm-31.64-7.49h24.15v-.52c0-7.43-6.54-13.36-19.99-18.1l-2.47-1.02c-10.61-4.11-18.27-7.08-19.83-12.93-1.3-5.2 1.29-8.65 4.03-12.31l.36-.41c.3-.3.8-1.05 1.21-1.66 5.09-6.98 7.94-15.82 7.94-24.44 0-15.73-9.7-26.72-23.58-26.72-3.47 0-6.84.74-9.8 2.13 6.19 8.75 9.56 19.93 9.56 31.98 0 13.19-4.26 27.08-11.47 37.7 1.69.68 3.48 1.36 5.14 1.99l3.19 1.17c8.61 3.17 15.76 7.01 21.35 11.44 4.32 3.43 7.8 7.44 10.21 11.7z" fill="#60c0c9"/><path d="m64.17 168.42h-36.3v-8.02c0-10.8 8.33-19.24 24.77-25.09l.68-.32 1.8-.7c6.56-2.54 14.72-5.7 15.3-7.88.36-1.45-.18-2.4-2.65-5.71-.73-.78-1.34-1.69-1.93-2.58-5.83-7.98-9.21-18.43-9.21-28.61 0-19.82 13.07-34.21 31.08-34.21 6.45 0 12.69 1.98 17.59 5.56l3.28 2.4-2.66 3.07c-6.76 7.82-10.48 18.67-10.48 30.59 0 12.53 4.3 25.74 11.49 35.33l.35.58c.04.06.13.17.22.28.35.47.68.95.91 1.41l1.69 3.36-3.36 1.68c-2.87 1.43-6.57 2.83-9.84 4.06l-3.47 1.27c-7.64 2.82-14.1 6.26-19.07 10.2-4.11 3.29-7.29 7.16-9.18 11.18zm-28.8-7.49h24.15c2.41-4.26 5.89-8.27 10.18-11.7 5.61-4.44 12.76-8.28 21.26-11.41l3.31-1.21c1.67-.63 3.46-1.3 5.14-1.99-7.21-10.62-11.47-24.5-11.47-37.7 0-12.05 3.37-23.24 9.56-31.98-2.96-1.39-6.33-2.13-9.8-2.13-13.89 0-23.58 10.99-23.58 26.72 0 8.62 2.85 17.46 7.82 24.27.53.78 1.03 1.54 1.33 1.83l.35.41c2.75 3.67 5.34 7.12 4.05 12.26-1.58 5.91-9.24 8.88-19.84 12.99l-2.47 1.02c-13.45 4.75-19.99 10.67-19.99 18.1z" fill="#60c0c9"/><path d="m217.56 186.64h-23.71v-7.49h16.22v-1.38c0-8.61-7.59-15.66-23.2-21.55l-.72-.24c-13.32-4.87-22.8-8.81-24.38-15.5-1.61-5.61 1.28-9.36 4.34-13.33.46-.7 1.14-1.72 2.16-2.78 5.58-7.45 8.78-17.54 8.78-27.73 0-18.41-11.34-31.27-27.57-31.27-15.97 0-27.57 13.15-27.57 31.27 0 10.27 3.25 20.44 8.92 27.91l.67.91c.39.53.68.97.99 1.27l.32.36c3.1 4.03 5.99 7.78 4.34 13.56-1.46 6.24-10 9.64-21.82 14.34l-3.37 1.28c-15.47 5.84-23.06 12.89-23.06 21.5v1.38h17.44v7.49h-24.66l-.28-3.75v-5.12c0-12.1 9.17-21.44 28.04-28.56l3.11-1.19c7.45-2.97 16.73-6.66 17.34-9.26.6-2.1-.02-3.2-2.9-6.94-.54-.57-1-1.21-1.54-1.94l-.61-.82c-6.62-8.73-10.43-20.55-10.43-32.42 0-22.46 14.74-38.76 35.06-38.76s35.06 16.3 35.06 38.76c0 11.87-3.8 23.69-10.44 32.44l-.34.38c-.6.6-1.03 1.24-1.52 1.99l-.19.27c-2.95 3.83-3.58 4.93-3.03 6.88.81 3.45 13.51 8.09 19.61 10.32l.76.25c19 7.16 28.18 16.5 28.18 28.6z" fill="#fff"/><g fill="#60c0c9"><path d="m157.15 244.68h-14.51l-4.61-8.74-3.96-1.64-9.44 2.92-10.26-10.26 2.92-9.43-1.64-3.96-8.74-4.61v-14.51l8.74-4.61 1.64-3.96-2.92-9.43 10.26-10.26 9.44 2.92 3.96-1.64 4.61-8.74h14.51l4.61 8.74 3.96 1.64 9.44-2.92 10.26 10.26-2.92 9.43 1.64 3.96 8.74 4.61v14.51l-8.74 4.61-1.64 3.96 2.92 9.43-10.26 10.26-9.43-2.92-3.96 1.64zm-9.99-7.49h5.48l3.76-7.13 8.96-3.71 7.7 2.38 3.87-3.87-2.38-7.7 3.71-8.96 7.13-3.76v-5.47l-7.13-3.76-3.71-8.95 2.38-7.71-3.87-3.87-7.71 2.39-8.95-3.71-3.76-7.13h-5.48l-3.76 7.13-8.96 3.71-7.71-2.39-3.87 3.87 2.39 7.7-3.71 8.95-7.14 3.76v5.47l7.13 3.76 3.71 8.96-2.39 7.7 3.87 3.87 7.71-2.38 8.96 3.71z"/><path d="m149.9 219.29c-9.7 0-17.59-7.89-17.59-17.59s7.89-17.59 17.59-17.59 17.59 7.89 17.59 17.59-7.89 17.59-17.59 17.59zm0-27.69c-5.57 0-10.1 4.53-10.1 10.1s4.53 10.1 10.1 10.1 10.1-4.53 10.1-10.1-4.53-10.1-10.1-10.1z"/></g></svg>