<svg id="ade34260-ac91-437f-baf0-fdf707aff8f3" data-name="Layer 1" xmlns="http://www.w3.org/2000/svg" viewBox="0 0 300 300"><path d="M159.9,214.43h85.86V187.05c0-14.76-11.77-26.53-36.55-35.84l-1.4-.35c-16.7-6-29.87-11.42-31.28-18.45-1.76-5.62,1.41-9.31,5.45-14.76.7-1.23,1.75-2.46,2.63-3.69,9.14-11.77,13.71-27.58,13.71-43.4,0-29.34-18.8-50.07-44.63-50.07s-44.45,21.08-44.45,50.07a77,77,0,0,0,13.7,43.4c.88,1.23,1.93,2.46,2.64,3.69,4,5.45,7,9.14,5.44,14.76-1.75,7-15.11,11.77-31.27,18.45l-1.41.35c-25,9.49-36.72,21.08-36.72,36v27.19H148" style="fill:none;stroke:#20262b;stroke-linejoin:round;stroke-width:7px"/><rect x="134.23" y="157.71" width="39.49" height="28.11" rx="8.21" transform="translate(-17.8 325.74) rotate(-90)" style="fill:none;stroke:#00c3cd;stroke-width:7px"/><line x1="147.97" y1="191.52" x2="147.97" y2="232.4" style="fill:none;stroke:#00c3cd;stroke-width:7px"/><line x1="159.9" y1="191.64" x2="159.9" y2="232.53" style="fill:none;stroke:#00c3cd;stroke-width:7px"/><polygon points="251 278.02 56.27 278.02 29.05 232.4 278.22 232.4 251 278.02" style="fill:none;stroke:#00c3cd;stroke-linejoin:round;stroke-width:7px"/></svg>