<svg enable-background="new 0 0 300 300" viewBox="0 0 300 300" xmlns="http://www.w3.org/2000/svg"><path d="m146.36 219.03h7.49v21.4h-7.49z" fill="#60c0c9"/><path d="m123.6 171.64-4.1-6.27 26.86-17.54v-52.43h7.49v56.48z" fill="#fff"/><g fill="#60c0c9"><path d="m79.03 102.25h7.49v18h-7.49z" transform="matrix(.5 -.866 .866 .5 -54.9623 127.3122)"/><path d="m63.33 146.46h18v7.49h-18z"/><path d="m73.78 185.41h18v7.49h-18z" transform="matrix(.866 -.5 .5 .866 -83.4878 66.731)"/><path d="m213.35 180.15h7.49v18h-7.49z" transform="matrix(.5 -.866 .866 .5 -55.2623 282.5925)"/><path d="m102.16 213.81h18v7.49h-18z" transform="matrix(.5002 -.8659 .8659 .5002 -132.8292 204.9964)"/><path d="m208.44 107.51h18v7.49h-18z" transform="matrix(.866 -.5 .5 .866 -26.4959 123.6259)"/><path d="m218.89 146.46h18v7.49h-18z"/></g><path d="m153.85 240.78h-3.8c-47.17-.02-86.8-36.93-90.23-84.03-3.62-49.82 33.96-93.31 83.79-96.93 18.93-1.39 38.22 3.37 54.34 13.37l-3.95 6.36c-14.78-9.17-32.48-13.53-49.85-12.26-45.7 3.33-80.18 43.21-76.86 88.92 3.14 43.2 39.49 77.06 82.76 77.08h3.8z" fill="#fff"/><path d="m232.56 187.86c10.06-21.97 10.94-46.58 2.49-69.28s-25.2-40.75-47.17-50.8c-45.42-20.78-99.29-.75-120.08 44.66l6.81 3.12c19.07-41.65 68.48-60.03 110.14-40.96 20.15 9.22 35.52 25.77 43.27 46.6s6.94 43.4-2.28 63.55c-6.82 14.91-18.2 27.64-32.17 36.22l4.56-21.38-7.33-1.56-7.05 33.07 33.07 7.05 1.56-7.33-19.72-4.2c14.7-9.35 26.65-22.92 33.9-38.76z" fill="#fff"/></svg>