<svg id="ae4702ae-2732-466a-a1d7-c460b847e55e" data-name="Layer 1" xmlns="http://www.w3.org/2000/svg" viewBox="0 0 300 300"><circle cx="150.46" cy="130.64" r="44.66" style="fill:none;stroke:#00c3cd;stroke-width:7px"/><path d="M119.75,96.49a5.76,5.76,0,0,1,4.65,2.22,11.37,11.37,0,0,1,1.82,6.27,8.86,8.86,0,0,1-1.82,6.26,5.25,5.25,0,0,1-4.65,2.22,5.76,5.76,0,0,1-4.65-2.22,9.72,9.72,0,0,1-1.61-6.26C113.28,102.35,117.73,96.49,119.75,96.49Zm0,3a2.49,2.49,0,0,0-2.22,1.41,11.72,11.72,0,0,0,0,8.29,2.4,2.4,0,0,0,3,1.41,2.45,2.45,0,0,0,1.41-1.41,11.72,11.72,0,0,0,0-8.29A2.49,2.49,0,0,0,119.75,99.52Zm15.76-3a5.76,5.76,0,0,1,4.65,2.22A11.37,11.37,0,0,1,142,105a8.86,8.86,0,0,1-1.82,6.26,5.25,5.25,0,0,1-4.65,2.22,5.76,5.76,0,0,1-4.65-2.22,9.78,9.78,0,0,1-1.61-6.26,9.79,9.79,0,0,1,1.61-6.27A5.76,5.76,0,0,1,135.51,96.49Zm0,3a2.49,2.49,0,0,0-2.22,1.41,11.72,11.72,0,0,0,0,8.29,2.4,2.4,0,0,0,3,1.41,2.42,2.42,0,0,0,1.41-1.41,11.72,11.72,0,0,0,0-8.29A2.49,2.49,0,0,0,135.51,99.52Zm17.78,10.91h2a1.49,1.49,0,0,1,1.22.41,1.53,1.53,0,0,1,.4,1c0,.4,0,.8-.4,1a2.92,2.92,0,0,1-1.22.4h-7.47a1.51,1.51,0,0,1-1.22-.4c-.4-.21-.4-.61-.4-1s0-.81.4-1a2.81,2.81,0,0,1,1.22-.41h2.42V99.52l-1.41.4h-1c-.41,0-.61,0-.81-.4a1.21,1.21,0,0,1,0-1.82,1.53,1.53,0,0,1,1-.4l3.23-.81.61-.2h.4a1.23,1.23,0,0,1,.81.2,1.53,1.53,0,0,1,.2,1Zm15.76,0h2a1.92,1.92,0,0,1,1.42.41,1.53,1.53,0,0,1,.4,1,1.58,1.58,0,0,1-.4,1,2.93,2.93,0,0,1-1.21.4H163.6a1.51,1.51,0,0,1-1.22-.4,1.58,1.58,0,0,1-.4-1,1.53,1.53,0,0,1,.4-1,2.81,2.81,0,0,1,1.22-.41H166V99.52l-1.41.4h-1c-.41,0-.61,0-.81-.4a1.5,1.5,0,0,1,.2-1.82,1.56,1.56,0,0,1,1-.4l3.23-.81.61-.2h.4a1.22,1.22,0,0,1,.81.2,1.53,1.53,0,0,1,.2,1v12.93ZM121.77,136.7h2a1.48,1.48,0,0,1,1.21.4,1.53,1.53,0,0,1,.41,1c0,.41,0,.81-.41,1a2.73,2.73,0,0,1-1.21.41h-7.47a1.49,1.49,0,0,1-1.22-.41,1.53,1.53,0,0,1-.4-1c0-.4,0-.8.4-1a2.92,2.92,0,0,1,1.22-.4h2.42V125.79l-1.41.4h-1c-.41,0-.61,0-.81-.4a1.21,1.21,0,0,1,0-1.82,1.54,1.54,0,0,1,1-.41l3.23-.8.61-.21h.4a1.18,1.18,0,0,1,.81.21,1.51,1.51,0,0,1,.2,1Zm15.76,0h2a1.48,1.48,0,0,1,1.21.4,1.53,1.53,0,0,1,.41,1c0,.41,0,.81-.41,1a2.73,2.73,0,0,1-1.21.41h-7.47a1.49,1.49,0,0,1-1.22-.41,1.53,1.53,0,0,1-.4-1c0-.4,0-.8.4-1a2.92,2.92,0,0,1,1.22-.4h2.42V125.79l-1.41.4h-1c-.41,0-.61,0-.81-.4a1.5,1.5,0,0,1,.2-1.82,1.56,1.56,0,0,1,1-.41l3.23-.8h1a1.22,1.22,0,0,1,.81.2,1.51,1.51,0,0,1,.2,1ZM151.27,123a5.76,5.76,0,0,1,4.65,2.22,12.62,12.62,0,0,1,0,12.53,5.25,5.25,0,0,1-4.65,2.22,5.76,5.76,0,0,1-4.65-2.22,9.78,9.78,0,0,1-1.61-6.26,9.79,9.79,0,0,1,1.61-6.27A6.07,6.07,0,0,1,151.27,123Zm0,2.83a2.47,2.47,0,0,0-2.22,1.41,11.72,11.72,0,0,0,0,8.29,2.4,2.4,0,0,0,3,1.41,2.42,2.42,0,0,0,1.41-1.41,11.72,11.72,0,0,0,0-8.29A2.47,2.47,0,0,0,151.27,125.79Zm17.78,10.91h2a2,2,0,0,1,1.42.4,1.58,1.58,0,0,1,.4,1,1.53,1.53,0,0,1-.4,1,2.81,2.81,0,0,1-1.21.41H163.6a1.49,1.49,0,0,1-1.22-.41,1.53,1.53,0,0,1-.4-1,1.58,1.58,0,0,1,.4-1,2.92,2.92,0,0,1,1.22-.4H166V125.79l-1.41.4h-1c-.41,0-.61,0-.81-.4A1.5,1.5,0,0,1,163,124a1.56,1.56,0,0,1,1-.41l3.23-.8.61-.21h.4a1.17,1.17,0,0,1,.81.21,1.51,1.51,0,0,1,.2,1Zm-47.28,26.47h2a1.48,1.48,0,0,1,1.21.4,1.51,1.51,0,0,1,.41,1,1.49,1.49,0,0,1-.41,1,35,35,0,0,1-6.46-2.42V152.26l-1.42.4h-1c-.4,0-.6,0-.8-.4a1.51,1.51,0,0,1-.41-1,1.49,1.49,0,0,1,.41-.81,1.54,1.54,0,0,1,1-.41l3.23-.8.6-.21h.41a1.2,1.2,0,0,1,.81.21,1.51,1.51,0,0,1,.2,1Zm13.74-13.94a5.73,5.73,0,0,1,4.65,2.22,12.62,12.62,0,0,1,0,12.53,5.25,5.25,0,0,1-4.65,2.22,5.76,5.76,0,0,1-4.65-2.22,9.79,9.79,0,0,1-1.61-6.27,9.78,9.78,0,0,1,1.61-6.26A5.73,5.73,0,0,1,135.51,149.23Zm0,2.83a2.47,2.47,0,0,0-2.22,1.41,11.69,11.69,0,0,0,0,8.28,2.36,2.36,0,0,0,4.44,0,11.69,11.69,0,0,0,0-8.28A2.89,2.89,0,0,0,135.51,152.06Zm15.76-2.83a5.73,5.73,0,0,1,4.65,2.22,12.62,12.62,0,0,1,0,12.53,5.25,5.25,0,0,1-4.65,2.22,5.76,5.76,0,0,1-4.65-2.22,9.79,9.79,0,0,1-1.61-6.27,9.78,9.78,0,0,1,1.61-6.26A6,6,0,0,1,151.27,149.23Zm0,2.83a2.47,2.47,0,0,0-2.22,1.41,11.69,11.69,0,0,0,0,8.28,2.36,2.36,0,0,0,4.44,0,11.69,11.69,0,0,0,0-8.28A2.47,2.47,0,0,0,151.27,152.06Zm17.78,11.11h2a3.5,3.5,0,0,1,1.42.2,1.56,1.56,0,0,1,.4,1c0,.41,0,.81-.4,1a3,3,0,0,1-1.21.41H163.6a1.49,1.49,0,0,1-1.22-.41,1.53,1.53,0,0,1-.4-1,1.56,1.56,0,0,1,.4-1,2.92,2.92,0,0,1,1.22-.4H166V152.26l-1.41.4h-1c-.41,0-.61,0-.81-.4a1.5,1.5,0,0,1,.2-1.82,1.56,1.56,0,0,1,1-.41l3.23-.8.61-.21h.4a1.17,1.17,0,0,1,.81.21,1.51,1.51,0,0,1,.2,1Zm13.14-66.68c2,0,5.86,13.33,4.64,14.75a5.82,5.82,0,0,1-8.28,1,2.46,2.46,0,0,1-1-1,9.79,9.79,0,0,1-1.62-6.26,9.8,9.8,0,0,1,1.62-6.27A6.05,6.05,0,0,1,182.19,96.49Zm0,3a2.51,2.51,0,0,0-2.23,1.41,11.72,11.72,0,0,0,0,8.29,2.41,2.41,0,0,0,3,1.41,3.2,3.2,0,0,0,1.41-1.41,11.72,11.72,0,0,0,0-8.29A2.49,2.49,0,0,0,182.19,99.52Zm2,37.18h2a1.49,1.49,0,0,1,1.21.4,1.58,1.58,0,0,1,.4,1c0,.41,0,.81-.4,1a2.77,2.77,0,0,1-1.21.41h-7.48a1.47,1.47,0,0,1-1.21-.41,1.53,1.53,0,0,1-.4-1c0-.4,0-.8.4-1a2.88,2.88,0,0,1,1.21-.4h2.43V125.79l-1.42.4h-1a1.08,1.08,0,0,1-.81-.4.9.9,0,0,1-.2-1,1.49,1.49,0,0,1,.41-.81,1.54,1.54,0,0,1,1-.41l3.23-.8.61-.21h.4a1.18,1.18,0,0,1,.81.21,1.51,1.51,0,0,1,.2,1Zm0,26.47-5.46,2.63a1.47,1.47,0,0,1-1.21-.41,1.53,1.53,0,0,1-.4-1,1.56,1.56,0,0,1,.4-1,2.88,2.88,0,0,1,1.21-.4h2.43V152.06l-1.42.4h-1a1.08,1.08,0,0,1-.81-.4.9.9,0,0,1-.2-1,1.46,1.46,0,0,1,.41-.81,1.49,1.49,0,0,1,1-.41l3.23-.81.61-.2h.4a1.23,1.23,0,0,1,.81.2,1.54,1.54,0,0,1,.2,1Z" style="fill:#00c3cd"/><path d="M235.13,128.18c0,53.78-43.87,61.12-44.44,98-.12,7.89-25.6,5.95-40.12,5.95-14.28,0-39.64,2.06-39.54-5.51.51-37.36-45-44.7-45-98.48a84.56,84.56,0,1,1,169.11,0Z" style="fill:none;stroke:#1d2123;stroke-linecap:round;stroke-linejoin:round;stroke-width:7px"/><path d="M183.91,233.92v39.16A2.39,2.39,0,0,1,183,275L159.5,292.84a2.4,2.4,0,0,1-1.46.49H141.55a2.35,2.35,0,0,1-1.46-.5l-23.47-18a2.41,2.41,0,0,1-.94-1.91v-39" style="fill:none;stroke:#1d2123;stroke-linecap:round;stroke-linejoin:round;stroke-width:7px"/><line x1="115.68" y1="248.09" x2="156.74" y2="248.09" style="fill:none;stroke:#1d2123;stroke-linecap:round;stroke-linejoin:round;stroke-width:7px"/><line x1="115.68" y1="262.62" x2="156.74" y2="262.62" style="fill:none;stroke:#1d2123;stroke-linecap:round;stroke-linejoin:round;stroke-width:7px"/><line x1="123.77" y1="278.8" x2="151.51" y2="278.8" style="fill:none;stroke:#1d2123;stroke-linecap:round;stroke-linejoin:round;stroke-width:7px"/><line x1="124.41" y1="278.8" x2="152.15" y2="278.8" style="fill:none;stroke:#1d2123;stroke-linecap:round;stroke-linejoin:round;stroke-width:7px"/><line x1="169.98" y1="248.09" x2="183.91" y2="248.09" style="fill:none;stroke:#1d2123;stroke-linecap:round;stroke-linejoin:round;stroke-width:7px"/><line x1="172.18" y1="262.62" x2="183.91" y2="262.62" style="fill:none;stroke:#1d2123;stroke-linecap:round;stroke-linejoin:round;stroke-width:7px"/><line x1="165.47" y1="278.8" x2="176.94" y2="278.8" style="fill:none;stroke:#1d2123;stroke-linecap:round;stroke-linejoin:round;stroke-width:7px"/><line x1="150.57" y1="6.32" x2="150.57" y2="27.65" style="fill:none;stroke:#00c3cd;stroke-linecap:round;stroke-linejoin:round;stroke-width:7px"/><line x1="30.4" y1="126.65" x2="51.58" y2="126.65" style="fill:none;stroke:#00c3cd;stroke-linecap:round;stroke-linejoin:round;stroke-width:7px"/><line x1="249.57" y1="126.65" x2="270.51" y2="126.65" style="fill:none;stroke:#00c3cd;stroke-linecap:round;stroke-linejoin:round;stroke-width:7px"/><line x1="65" y1="41.07" x2="80.57" y2="56.65" style="fill:none;stroke:#00c3cd;stroke-linecap:round;stroke-linejoin:round;stroke-width:7px"/><line x1="220.58" y1="196.65" x2="232.79" y2="208.86" style="fill:none;stroke:#00c3cd;stroke-linecap:round;stroke-linejoin:round;stroke-width:7px"/><line x1="236.35" y1="40.87" x2="220.58" y2="56.65" style="fill:none;stroke:#00c3cd;stroke-linecap:round;stroke-linejoin:round;stroke-width:7px"/><line x1="80.57" y1="196.65" x2="68.36" y2="208.86" style="fill:none;stroke:#00c3cd;stroke-linecap:round;stroke-linejoin:round;stroke-width:7px"/><line x1="195.07" y1="19.23" x2="193.91" y2="22.03" style="fill:none;stroke:#00c3cd;stroke-linecap:round;stroke-linejoin:round;stroke-width:7px"/><line x1="106.08" y1="19.23" x2="107.85" y2="23.51" style="fill:none;stroke:#00c3cd;stroke-linecap:round;stroke-linejoin:round;stroke-width:7px"/><line x1="43.16" y1="82.15" x2="46.43" y2="83.51" style="fill:none;stroke:#00c3cd;stroke-linecap:round;stroke-linejoin:round;stroke-width:7px"/><line x1="255.12" y1="169.95" x2="257.99" y2="171.14" style="fill:none;stroke:#00c3cd;stroke-linecap:round;stroke-linejoin:round;stroke-width:7px"/><line x1="43.16" y1="171.14" x2="46.27" y2="169.85" style="fill:none;stroke:#00c3cd;stroke-linecap:round;stroke-linejoin:round;stroke-width:7px"/><line x1="254.63" y1="83.55" x2="257.99" y2="82.15" style="fill:none;stroke:#00c3cd;stroke-linecap:round;stroke-linejoin:round;stroke-width:7px"/><path d="M143.61,222.36s-.84-5,0-7.76c1.32-4.24,6.61-16.57,6-21.65a21.23,21.23,0,0,0-2.06-7.54" style="fill:none;stroke:#1d2123;stroke-linecap:round;stroke-linejoin:round;stroke-width:7px"/><path d="M155.62,220s1.89-10,5.53-16.13c4.58-7.68,2.63-20.13,2.63-20.13" style="fill:none;stroke:#1d2123;stroke-linecap:round;stroke-linejoin:round;stroke-width:7px"/></svg>