<svg xmlns="http://www.w3.org/2000/svg" x="0" y="0" viewBox="0 0 100 100" xml:space="preserve"><style>.st2{fill:none;stroke:#00c3cd;stroke-width:3;stroke-linecap:round;stroke-linejoin:round}</style><path d="M1.5 46.2V13.1c0-6.2 5.1-11.3 11.3-11.3h74.1c6.2 0 11.3 5.1 11.3 11.3v74.1c0 6.2-5.1 11.3-11.3 11.3H55.3" fill="none" stroke="#00c3cd" stroke-width="3" stroke-linecap="round" stroke-linejoin="round" stroke-dasharray="7,9"/><path d="M12.1 48.6h28.7c5.8 0 10.6 4.7 10.6 10.6v28.7c0 5.8-4.7 10.6-10.6 10.6H12.1c-5.8 0-10.6-4.7-10.6-10.6V59.2c0-5.8 4.7-10.6 10.6-10.6z" fill="none" stroke="#fff" stroke-width="3"/><path class="st2" d="M93.6 5.8L63.4 36M75.6 37.4H61.7V23.5"/></svg>
