<svg id="a83977d8-ac2e-4ab2-abf9-5442e0022941" data-name="Layer 1" xmlns="http://www.w3.org/2000/svg" viewBox="0 0 300 300">
  <defs>
    <style>
      .a725961e-8ee6-4cca-b0b6-f20b73ddf324, .b6a51024-fa3b-4e8a-94dc-8be39cf6654d {
        fill: none;
        stroke: #000;
        stroke-width: 6px;
      }

      .b6a51024-fa3b-4e8a-94dc-8be39cf6654d {
        stroke-linecap: round;
        stroke-linejoin: round;
      }

      .a725961e-8ee6-4cca-b0b6-f20b73ddf324 {
        stroke-miterlimit: 10;
      }

      .e1171873-af29-4d06-a3e7-49113a7a7052 {
        fill: #00c3cd;
      }
    </style>
  </defs>
  <path class="b6a51024-fa3b-4e8a-94dc-8be39cf6654d" d="M90.86,121H202a32.3,32.3,0,0,1,32.24,32.23V264.37A32.3,32.3,0,0,1,202,296.6H90.86a32.3,32.3,0,0,1-32.23-32.23V153.19C58.27,135.44,72.76,121,90.86,121Z"/>
  <path class="a725961e-8ee6-4cca-b0b6-f20b73ddf324" d="M183.21,122.77V67.42a36.94,36.94,0,1,0-73.88,0h0v53.9"/>
  <path class="a725961e-8ee6-4cca-b0b6-f20b73ddf324" d="M85.43,121.32V67.42a60.86,60.86,0,0,1,121.68,0v55.35"/>
  <g>
    <path class="e1171873-af29-4d06-a3e7-49113a7a7052" d="M127.13,191.11c-2.39,0-4.11-2-8.43-2-4.16,0-6.45,1.27-6.45,4.07,0,2.23,1.93,3.45,4.72,4.41,3.25,1.12,6.86,1.83,10,3.76a8.48,8.48,0,0,1,4.21,7.62c0,6.7-5.43,10.56-12.79,10.56-5,0-12.24-1.88-12.24-5.18a2.73,2.73,0,0,1,2.74-2.74c2.28,0,4.16,2.89,9.39,2.89,4.78,0,6.71-2.33,6.71-5.07,0-2.34-1.83-3.66-4.37-4.68-2.84-1.11-6.4-1.77-9.55-3.5a8.48,8.48,0,0,1-4.77-7.87c0-5.59,4.47-9.4,12.75-9.4,2.18,0,10.81.67,10.81,4.47A2.63,2.63,0,0,1,127.13,191.11Z"/>
    <path class="e1171873-af29-4d06-a3e7-49113a7a7052" d="M155.16,191.11c-2.38,0-4.11-2-8.43-2-4.16,0-6.45,1.27-6.45,4.07,0,2.23,1.93,3.45,4.73,4.41,3.25,1.12,6.85,1.83,10,3.76a8.46,8.46,0,0,1,4.21,7.62c0,6.7-5.43,10.56-12.79,10.56-5,0-12.24-1.88-12.24-5.18a2.73,2.73,0,0,1,2.74-2.74c2.29,0,4.16,2.89,9.4,2.89,4.77,0,6.7-2.33,6.7-5.07,0-2.34-1.83-3.66-4.37-4.68-2.84-1.11-6.4-1.77-9.55-3.5a8.48,8.48,0,0,1-4.77-7.87c0-5.59,4.47-9.4,12.75-9.4,2.18,0,10.81.67,10.81,4.47A2.62,2.62,0,0,1,155.16,191.11Z"/>
    <path class="e1171873-af29-4d06-a3e7-49113a7a7052" d="M164.66,186.75A2.79,2.79,0,0,1,167.5,184a2.76,2.76,0,0,1,2.85,2.75V214h14.72a2.51,2.51,0,0,1,0,5H167.5a2.78,2.78,0,0,1-2.84-2.74Z"/>
    <path class="e1171873-af29-4d06-a3e7-49113a7a7052" d="M121,233.38V260.7a2.82,2.82,0,0,1-2.85,2.74,2.79,2.79,0,0,1-2.84-2.74V233.38h-9.5a2.48,2.48,0,0,1-2.43-2.49,2.52,2.52,0,0,1,2.43-2.54h24.63a2.54,2.54,0,0,1,2.49,2.54,2.5,2.5,0,0,1-2.49,2.49Z"/>
    <path class="e1171873-af29-4d06-a3e7-49113a7a7052" d="M136.58,230.63a2.84,2.84,0,0,1,5.68,0V257.9H157a2.52,2.52,0,0,1,0,5H139.42a2.78,2.78,0,0,1-2.84-2.74Z"/>
    <path class="e1171873-af29-4d06-a3e7-49113a7a7052" d="M183.24,235c-2.38,0-4.11-2-8.43-2-4.16,0-6.45,1.27-6.45,4.06,0,2.24,1.93,3.46,4.73,4.42,3.25,1.12,6.85,1.83,9.95,3.76a8.46,8.46,0,0,1,4.21,7.62c0,6.7-5.43,10.56-12.79,10.56-5,0-12.24-1.88-12.24-5.18a2.73,2.73,0,0,1,2.74-2.74c2.29,0,4.17,2.89,9.4,2.89,4.77,0,6.7-2.33,6.7-5.08,0-2.33-1.83-3.65-4.37-4.67-2.84-1.12-6.4-1.78-9.54-3.5a8.48,8.48,0,0,1-4.78-7.87c0-5.59,4.47-9.4,12.75-9.4,2.18,0,10.81.66,10.81,4.47A2.63,2.63,0,0,1,183.24,235Z"/>
  </g>
  <line class="b6a51024-fa3b-4e8a-94dc-8be39cf6654d" x1="58.63" y1="153.19" x2="234.28" y2="153.19"/>
</svg>
