<?xml version="1.0" encoding="utf-8"?>
<!-- Generator: Adobe Illustrator 25.0.0, SVG Export Plug-In . SVG Version: 6.00 Build 0)  -->
<svg version="1.1" id="Layer_1" xmlns="http://www.w3.org/2000/svg" xmlns:xlink="http://www.w3.org/1999/xlink" x="0px" y="0px"
	 viewBox="0 0 300 300" style="enable-background:new 0 0 300 300;" xml:space="preserve">
<style type="text/css">
	.st0{fill:#FFFFFF;}
	.st1{fill:#60C0C9;}
</style>
<path class="st0" d="M119.88,147.14h39.27v2.16h-39.27L119.88,147.14z"/>
<path class="st0" d="M119.88,124.98h39.27v2.16h-39.27L119.88,124.98z"/>
<path class="st1" d="M171.13,147.14h8.79v2.16h-8.79V147.14z"/>
<path class="st1" d="M171.13,124.98h8.79v2.16h-8.79V124.98z"/>
<path class="st1" d="M194.02,162.78h-87.88v-29.36h87.88V162.78z M113.34,155.59h73.48v-14.98h-73.48V155.59z"/>
<path class="st1" d="M194.02,140.61h-87.88v-29.36h87.88V140.61z M113.34,133.42h73.48v-14.98h-73.48V133.42z"/>
<path class="st0" d="M119.88,191.48h39.27v2.16h-39.27L119.88,191.48z"/>
<path class="st0" d="M119.88,169.32h39.27v2.16h-39.27L119.88,169.32z"/>
<path class="st1" d="M171.13,191.48h8.79v2.16h-8.79V191.48z"/>
<path class="st1" d="M171.13,169.32h8.79v2.16h-8.79V169.32z"/>
<path class="st1" d="M194.02,207.13h-87.88v-29.36h87.88V207.13z M113.34,199.94h73.48v-14.98h-73.48V199.94z"/>
<path class="st1" d="M194.02,184.95h-87.88v-29.36h87.88V184.95z M113.34,177.76h73.48v-14.98h-73.48V177.76z"/>
<path class="st0" d="M119.88,213.67h39.27v2.16h-39.27L119.88,213.67z"/>
<path class="st1" d="M171.13,213.67h8.79v2.16h-8.79V213.67z"/>
<path class="st1" d="M194.02,229.3h-87.88v-29.36h87.88V229.3z M113.34,222.11h73.48v-14.98h-73.48V222.11z"/>
<path class="st0" d="M76.69,107.96l-2.86-6.6c23.02-9.97,49.36-15.24,76.17-15.24s53.15,5.27,76.17,15.24l-2.86,6.6
	c-22.12-9.58-47.47-14.64-73.3-14.64C124.17,93.31,98.82,98.38,76.69,107.96z"/>
<g>
	<path class="st1" d="M204.46,130.96l33.95-60.3l6.27,3.53l-33.95,60.3L204.46,130.96z"/>
	<path class="st1" d="M218.15,138.67l33.95-60.3l6.27,3.53l-33.95,60.3L218.15,138.67z"/>
	<path class="st1" d="M231.83,146.36l33.95-60.3l6.27,3.53l-33.95,60.3L231.83,146.36z"/>
	<path class="st1" d="M55.28,74.22l6.27-3.54l34,60.27l-6.27,3.54L55.28,74.22z"/>
	<path class="st1" d="M41.61,81.94l6.27-3.54l34,60.27l-6.27,3.54L41.61,81.94z"/>
	<path class="st1" d="M27.93,89.63l6.27-3.54l34,60.27l-6.27,3.54L27.93,89.63z"/>
</g>
</svg>
