<svg xmlns="http://www.w3.org/2000/svg" x="0" y="0" viewBox="0 0 100 100" xml:space="preserve"><style>.st0,.st1{fill:none;stroke:#00c3cd;stroke-width:3;stroke-linecap:round}.st1{stroke-linejoin:round}</style><path class="st0" d="M50.1 1.5v29.6"/><path class="st1" d="M40.8 23.1l9.3 9.3 9.3-9.3"/><path class="st0" d="M50.1 99V69.4"/><path class="st1" d="M59.3 77.4L50 68.1l-9.3 9.3"/><path class="st0" d="M92.3 25.9L66.6 40.7"/><path class="st1" d="M68.9 28.7l-3.4 12.7 12.7 3.4"/><path class="st0" d="M7.9 74.7l25.6-14.8"/><path class="st1" d="M31.2 71.8l3.4-12.7L22 55.8"/><path class="st0" d="M92.3 74.6L66.7 59.8"/><path class="st1" d="M78.2 55.8l-12.7 3.4 3.4 12.7"/><path class="st0" d="M7.8 25.9l25.7 14.8"/><path class="st1" d="M22 44.7l12.7-3.4-3.4-12.7"/><circle cx="50.1" cy="50.2" r="6.8" fill="none" stroke="#fff" stroke-width="3"/></svg>
