<svg id="b4fef4eb-3db7-46c1-b893-18d99e2fa754" data-name="Layer 1" xmlns="http://www.w3.org/2000/svg" viewBox="0 0 128 128"><line x1="116.99" y1="73.96" x2="123.3" y2="73.96" style="fill:none;stroke:#000;stroke-linecap:round;stroke-width:4px"/><line x1="5.22" y1="73.96" x2="11.53" y2="73.96" style="fill:none;stroke:#000;stroke-linecap:round;stroke-width:4px"/><line x1="101.54" y1="111.25" x2="106" y2="115.71" style="fill:none;stroke:#000;stroke-linecap:round;stroke-width:4px"/><line x1="22.51" y1="32.21" x2="26.97" y2="36.67" style="fill:none;stroke:#000;stroke-linecap:round;stroke-width:4px"/><line x1="64.26" y1="14.92" x2="64.26" y2="21.23" style="fill:none;stroke:#000;stroke-linecap:round;stroke-width:4px"/><line x1="26.97" y1="111.25" x2="22.51" y2="115.71" style="fill:none;stroke:#000;stroke-linecap:round;stroke-width:4px"/><line x1="106" y1="32.21" x2="101.54" y2="36.67" style="fill:none;stroke:#000;stroke-linecap:round;stroke-width:4px"/><path d="M106.06,115.76a59.3,59.3,0,1,0-83.84.28" style="fill:none;stroke:#000;stroke-linecap:round;stroke-width:4px"/><path d="M70.61,76.74,97.19,90.63M53.35,67.81l5,2.58" style="fill:none;stroke:#fecf41;stroke-linecap:round;stroke-miterlimit:10;stroke-width:4px"/><circle cx="64.26" cy="73.96" r="6.94" style="fill:none;stroke:#fecf41;stroke-linecap:round;stroke-miterlimit:10;stroke-width:4px"/><path d="M52.8,116.48H74.52a4.13,4.13,0,1,1,0,8.26H52.8a4.11,4.11,0,0,1-4.13-4.13A4.18,4.18,0,0,1,52.8,116.48Z" style="fill:none;stroke:#fecf41;stroke-linecap:round;stroke-miterlimit:10;stroke-width:4px"/></svg>