<svg enable-background="new 0 0 300 300" viewBox="0 0 300 300" xmlns="http://www.w3.org/2000/svg"><g fill="#60c0c9"><path d="m233.15 109.8-17.55-17.95-5.35 5.24 6.19 6.32-9.61 9.61 5.29 5.3 9.55-9.56 6.13 6.27z"/><path d="m89.42 108.76 9.55 9.56 5.29-5.3-9.61-9.61 6.18-6.32-5.35-5.24-17.54 17.95 5.35 5.23z"/><path d="m158.86 150.48c-5.15-.78-10.32.53-14.58 3.69-1.26.94-2.4 2.03-3.41 3.26l-66.07 5.19-.29 7.43 64.92 10.22c.26.42.54.82.83 1.22 3.12 4.2 7.64 6.94 12.73 7.72.97.15 1.95.22 2.92.22 4.15 0 8.21-1.35 11.67-3.92 4.26-3.17 7.01-7.74 7.74-12.89.73-5.1-.59-10.22-3.71-14.42-3.13-4.2-7.66-6.94-12.75-7.72zm9.05 21.09c-.45 3.16-2.15 5.98-4.79 7.94-2.65 1.97-5.83 2.79-8.99 2.3-3.13-.48-5.92-2.18-7.86-4.79-.41-.55-.77-1.14-1.11-1.83l-2.77-2.03-35.35-5.57 36.11-2.84 2.81-1.64c.77-1.15 1.71-2.14 2.78-2.94 2.65-1.96 5.83-2.78 8.99-2.3 3.13.48 5.92 2.18 7.86 4.78s2.76 5.79 2.32 8.92z"/></g><path d="m170.24 91.29v-14.69h8.61v-27.44h-46.74v27.44h7.98v14.84c-29.85 5.82-54.42 28.21-62.3 58.46l7.24 1.89c8.33-32.04 37.3-54.41 70.45-54.41 40.14 0 72.79 32.65 72.79 72.79s-32.65 72.79-72.79 72.79c-34.81 0-64.86-24.76-71.46-58.88l-7.35 1.42c7.28 37.63 40.42 64.94 78.81 64.94 44.26 0 80.27-36.01 80.27-80.27 0-39.21-28.28-71.93-65.51-78.88zm-30.65-34.65h31.78v12.48h-31.78zm7.98 33.69v-13.73h15.19v13.64c-2.4-.22-4.82-.34-7.28-.34-2.67 0-5.3.17-7.91.43z" fill="#fff"/></svg>