<svg enable-background="new 0 0 300 300" viewBox="0 0 300 300" xmlns="http://www.w3.org/2000/svg"><path d="m211.22 219.41-54.19-31.91c-2.04.61-4.12.96-6.21 1.02-6.59.17-12.76-2.15-17.43-6.59-4.62-4.4-7.27-10.4-7.46-16.89-.39-13.56 9.92-24.49 23.48-24.88 13.53-.36 24.49 9.92 24.88 23.48.02.83 0 1.66-.07 2.51l41.71 47.56zm-55.12-39.51 3.25.27 35.56 20.94-27.42-31.27-.89-3.03c.16-1.05.22-2.02.19-2.96-.27-9.35-7.86-16.53-17.17-16.2-9.36.27-16.47 7.81-16.2 17.17.13 4.5 1.95 8.64 5.13 11.67 3.2 3.05 7.44 4.7 12.04 4.53 1.86-.05 3.71-.43 5.51-1.12z" fill="#60c0c9"/><path d="m150 80.92c-46 0-83.42 37.42-83.42 83.42 0 14.57 3.82 28.92 11.06 41.5l1.5 2.6 32.4-10.07-2.23-7.16-26.61 8.27c-5.08-9.7-7.97-20.45-8.51-31.43h12.65v-7.5h-12.67c.55-11.1 3.51-21.57 8.34-30.93l10.95 6.32 3.75-6.5-10.94-6.31c5.84-9 13.53-16.68 22.53-22.52l6.32 10.94 6.5-3.75-6.33-10.96c9.36-4.83 19.83-7.79 30.93-8.33v12.69h7.5v-12.69c11.1.54 21.58 3.49 30.94 8.32l-6.34 10.97 6.5 3.75 6.33-10.96c9.04 5.86 16.75 13.58 22.61 22.62l-10.97 6.33 3.75 6.5 10.98-6.34c4.81 9.33 7.75 19.78 8.3 30.85h-12.7v7.5h12.68c-.59 11.92-3.96 23.61-9.9 34l6.51 3.72c7.2-12.6 11.01-26.93 11.01-41.43 0-46-37.42-83.42-83.42-83.42z" fill="#fff"/></svg>