<svg enable-background="new 0 0 300 300" viewBox="0 0 300 300" xmlns="http://www.w3.org/2000/svg"><path d="m140.66 181.52c-11.06 0-20.06-9-20.06-20.06s9-20.06 20.06-20.06 20.06 9 20.06 20.06-9 20.06-20.06 20.06zm0-32.62c-6.93 0-12.57 5.64-12.57 12.57s5.64 12.57 12.57 12.57 12.57-5.64 12.57-12.57c-.01-6.93-5.64-12.57-12.57-12.57z" fill="#60c0c9"/><path d="m140.66 252.59c-50.25 0-91.13-40.88-91.13-91.13s40.88-91.13 91.13-91.13c10.81 0 21.55 1.97 31.93 5.86l-2.63 7.01c-9.53-3.57-19.39-5.38-29.3-5.38-46.12 0-83.64 37.52-83.64 83.64s37.52 83.64 83.64 83.64 83.64-37.52 83.64-83.64c0-9.86-1.8-19.67-5.34-29.17l7.02-2.62c3.85 10.34 5.81 21.03 5.81 31.79 0 50.26-40.88 91.13-91.13 91.13z" fill="#fff"/><path d="m140.66 217.31c-30.79 0-55.84-25.05-55.84-55.84s25.05-55.84 55.84-55.84c6.63 0 13.21 1.21 19.57 3.59l-2.63 7.01c-5.51-2.07-11.21-3.11-16.94-3.11-26.66 0-48.35 21.69-48.35 48.35s21.69 48.35 48.35 48.35 48.35-21.69 48.35-48.35c0-5.69-1.04-11.37-3.09-16.86l7.02-2.62c2.36 6.34 3.56 12.89 3.56 19.48 0 30.79-25.05 55.84-55.84 55.84z" fill="#fff"/><path d="m222.46 104.45-22.13-2.52-2.52-22.13 32.4-32.4 2.52 22.13 22.13 2.52zm-15.36-9.28 12.62 1.44 18.86-18.86-12.62-1.43-1.44-12.62-18.86 18.86z" fill="#60c0c9"/><path d="m136.53 98.84h126.13v7.49h-126.13z" fill="#fff" transform="matrix(.7067 -.7075 .7075 .7067 -14.0415 171.3039)"/></svg>