<svg fill="none" xmlns="http://www.w3.org/2000/svg" viewBox="0 0 74 74">
  <path d="M33.856 39.407h3.738l.273-5.871.843-.183c4.523-.98 6.816-3.907 6.816-8.702 0-6.846-5.31-7.868-8.474-7.868-5.459 0-8.317 2.274-8.71 6.945l3.796.254c.246-2.106 1.17-4.323 4.552-4.323 2.665 0 4.387 1.976 4.387 5.032 0 4.057-2.534 6.346-7.537 6.815l.316 7.901zm5.88 2.243h-8.034l-.493-12.27 1.123-.043c5.729-.22 6.502-2.471 6.502-4.646 0-1.272-.373-2.789-2.144-2.789-1.347 0-2.306.238-2.388 3.305l-.031 1.167-8.226-.552.008-1.057c.046-6.594 3.953-10.225 10.999-10.225 6.71 0 10.718 3.78 10.718 10.111 0 5.522-2.74 9.286-7.741 10.686l-.294 6.313" fill="#5EC0CA"/>
  <path d="M35.417 66h2.243v-4.463h-2.243V66M29.551 51.886l1.403 1.75 4.463-3.577v7.839h2.243V50.09l4.326 3.538 1.42-1.735-6.86-5.613-6.995 5.605" fill="#4B5458"/>
  <path d="M36.5 6.511C21.337 6.511 9 18.847 9 34.011c0 11.958 7.994 22.77 19.439 26.29l.66-2.144c-10.513-3.233-17.856-13.162-17.856-24.146 0-13.927 11.33-25.257 25.257-25.257 13.927 0 25.257 11.33 25.257 25.257 0 10.984-7.342 20.913-17.855 24.146l.66 2.145C56.005 56.78 64 45.969 64 34.01c0-15.164-12.337-27.5-27.5-27.5z" fill="#4B5458"/>
</svg>