<svg width="74" height="74" viewBox="0 0 74 74" fill="none" xmlns="http://www.w3.org/2000/svg">
<path d="M30.5631 64.6405L29.9514 64.2332C29.9024 64.2007 29.7579 64.1187 29.543 63.9941C28.0011 63.1003 23.3074 60.3799 17.9798 55.9243C11.3914 50.4138 9 41.4545 9 36.7762V16.42L30.5681 8.99999L52.1363 16.42V27.0012H50.02V17.9305L30.5681 11.2375L11.1162 17.9305V36.7762C11.1162 41.057 13.3059 49.2554 19.3372 54.3007C24.4845 58.6059 29.0278 61.2496 30.5681 62.1424C32.1083 61.2496 36.6523 58.6059 41.7997 54.3007C42.4372 53.7667 43.0539 53.1765 43.6332 52.5449L45.1923 53.9767C44.5508 54.6754 43.8663 55.3297 43.1581 55.9236C37.8288 60.3799 33.1357 63.1003 31.5931 63.9941C31.3782 64.1187 31.2337 64.2007 31.1699 64.2427L30.5631 64.6405" fill="#4B5458"/>
<path d="M40.7019 34.4015L41.107 35.1454L41.8744 34.7278V39.324H42.7209V33.7573H41.8873L40.7019 34.4015Z" fill="#5EC0CA"/>
<path d="M40.7019 42.8158L41.107 43.5598L41.8744 43.1425V47.7393H42.7209V42.172H41.8873L40.7019 42.8158Z" fill="#5EC0CA"/>
<path d="M44.2218 42.8158L44.6272 43.5598L45.3943 43.1425V47.7393H46.2408V42.172H45.4072L44.2218 42.8158Z" fill="#5EC0CA"/>
<path d="M52.7003 42.8158L53.1054 43.5598L53.8722 43.1425V47.7393H54.7186V42.172H53.8857L52.7003 42.8158" fill="#5EC0CA"/>
<path d="M56.3714 42.8158L56.7747 43.5598L57.5429 43.1431V47.7393H58.3894V42.172H57.5568L56.3714 42.8158Z" fill="#5EC0CA"/>
<path d="M50.0336 34.7278V39.324H50.88V33.7573H50.0474L48.862 34.4015L49.2654 35.1454L50.0336 34.7278" fill="#5EC0CA"/>
<path d="M53.3947 39.324H54.2412V33.7573H53.4079L52.2222 34.4015L52.6272 35.1454L53.3947 34.7278V39.324" fill="#5EC0CA"/>
<path d="M46.2458 38.5082C45.7709 38.5082 45.2429 37.6938 45.2429 36.5243C45.2429 35.3554 45.7709 34.5403 46.2458 34.5403C46.7199 34.5403 47.249 35.3554 47.249 36.5243C47.249 37.6938 46.7199 38.5082 46.2458 38.5082V38.5082ZM46.2458 33.6938C45.2091 33.6938 44.3964 34.9371 44.3964 36.5243C44.3964 38.1115 45.2091 39.3547 46.2458 39.3547C47.283 39.3547 48.0955 38.1115 48.0955 36.5243C48.0955 34.9371 47.283 33.6938 46.2458 33.6938Z" fill="#5EC0CA"/>
<path d="M49.7895 46.8949C49.315 46.8949 48.7866 46.0798 48.7866 44.9105C48.7866 43.741 49.315 42.9269 49.7895 42.9269C50.264 42.9269 50.7924 43.741 50.7924 44.9105C50.7924 46.0798 50.264 46.8949 49.7895 46.8949ZM49.7895 42.0805C48.7529 42.0805 47.9401 43.3234 47.9401 44.9105C47.9401 46.4977 48.7529 47.7414 49.7895 47.7414C50.8261 47.7414 51.6389 46.4977 51.6389 44.9105C51.6389 43.3234 50.8261 42.0805 49.7895 42.0805Z" fill="#5EC0CA"/>
<path d="M57.4212 38.5082C56.9467 38.5082 56.4182 37.6938 56.4182 36.5243C56.4182 35.3554 56.9467 34.5403 57.4212 34.5403C57.8957 34.5403 58.4248 35.3554 58.4248 36.5243C58.4248 37.6938 57.8957 38.5082 57.4212 38.5082V38.5082ZM57.4212 33.6938C56.3845 33.6938 55.5717 34.9371 55.5717 36.5243C55.5717 38.1115 56.3845 39.3547 57.4212 39.3547C58.4588 39.3547 59.2713 38.1115 59.2713 36.5243C59.2713 34.9371 58.4588 33.6938 57.4212 33.6938Z" fill="#5EC0CA"/>
<path d="M49.9498 53.2823C42.9695 53.2823 37.2911 47.6031 37.2911 40.6239C37.2911 33.6436 42.9695 27.9651 49.9498 27.9651C56.9301 27.9651 62.6082 33.6436 62.6082 40.6239C62.6082 47.6031 56.9301 53.2823 49.9498 53.2823V53.2823ZM49.9498 25.8489C41.803 25.8489 35.1748 32.4769 35.1748 40.6239C35.1748 48.7704 41.803 55.3985 49.9498 55.3985C58.0968 55.3985 64.7245 48.7704 64.7245 40.6239C64.7245 32.4769 58.0968 25.8489 49.9498 25.8489Z" fill="#5EC0CA"/>
</svg>
