<svg id="b75121f2-e9cd-4f02-b23c-3f55f57db701" data-name="b088d9fd-2dee-4eb2-b5df-832981c60622" xmlns="http://www.w3.org/2000/svg" viewBox="0 0 300 300"><path d="M184.19,182.77v.3a3.11,3.11,0,0,1-3.11,3.11h-62a3.11,3.11,0,0,1-3.11-3.11h0v-.72a3.08,3.08,0,0,1,.92-2.2l41-40.76q8.22-8.22,11.13-14.11a27,27,0,0,0,2.91-12.12q0-9.5-6.45-14.88T147,92.91a43.19,43.19,0,0,0-16.37,2.84,31.2,31.2,0,0,0-10.2,6.6,3.11,3.11,0,0,1-4.2.07l-.45-.4a3.13,3.13,0,0,1-.25-4.41l.19-.19a37.89,37.89,0,0,1,12-7.61,51.86,51.86,0,0,1,19.78-3.55q14.61,0,23.24,7.09t8.65,19.13a32.87,32.87,0,0,1-3.4,14.6q-3.41,6.93-12.76,16.16l-36.45,36.31a.06.06,0,0,0,0,.09s0,0,0,0H181a3.1,3.1,0,0,1,3.19,3Z" style="fill:#00c3cd"/><path d="M135.69,192.6V214h-6.05v-8.35h-8.26V214h-6.06V192.6h6.06v8h8.26v-8Z" style="fill:#00c3cd"/><path d="M152.7,208.35h-3.31V214h-6V192.6h9.78a12.15,12.15,0,0,1,5,1,7.32,7.32,0,0,1,3.3,2.75,8.12,8.12,0,0,1,.08,8.26,7.33,7.33,0,0,1-3.1,2.71l4.61,6.73h-6.48Zm2.87-10.13a4.11,4.11,0,0,0-2.81-.82h-3.37v6.27h3.37a4.26,4.26,0,0,0,2.81-.81,3.34,3.34,0,0,0,0-4.67Z" style="fill:#00c3cd"/><path d="M171.81,213.79a12.45,12.45,0,0,1-4-1.71l2-4.47a13.57,13.57,0,0,0,7.07,2.11c2.32,0,3.49-.58,3.49-1.74a1.45,1.45,0,0,0-1-1.36,16.08,16.08,0,0,0-3.2-.93,32.49,32.49,0,0,1-4-1.12,7,7,0,0,1-2.79-1.91,5.26,5.26,0,0,1-1.16-3.55,6.17,6.17,0,0,1,1.07-3.53,7.12,7.12,0,0,1,3.2-2.49,12.75,12.75,0,0,1,5.21-.92,18.18,18.18,0,0,1,4.16.47,12.29,12.29,0,0,1,3.61,1.39l-1.86,4.5a12.39,12.39,0,0,0-5.94-1.65,4.89,4.89,0,0,0-2.63.53,1.6,1.6,0,0,0-.82,1.4,1.39,1.39,0,0,0,1,1.28,18.22,18.22,0,0,0,3.15.89,28.2,28.2,0,0,1,4,1.11,6.82,6.82,0,0,1,2.78,1.9,5,5,0,0,1,1.18,3.53,6,6,0,0,1-1.07,3.49,7.44,7.44,0,0,1-3.21,2.49,13.2,13.2,0,0,1-5.2.93A20.29,20.29,0,0,1,171.81,213.79Z" style="fill:#00c3cd"/><line x1="150.54" y1="35.4" x2="150.54" y2="52.48" style="fill:none;stroke:#1d2123;stroke-linecap:round;stroke-linejoin:round;stroke-width:7px"/><line x1="150.54" y1="248.4" x2="150.54" y2="265.48" style="fill:none;stroke:#1d2123;stroke-linecap:round;stroke-linejoin:round;stroke-width:7px"/><line x1="93.02" y1="50.81" x2="101.56" y2="65.6" style="fill:none;stroke:#1d2123;stroke-linecap:round;stroke-linejoin:round;stroke-width:7px"/><line x1="199.52" y1="235.28" x2="208.06" y2="250.07" style="fill:none;stroke:#1d2123;stroke-linecap:round;stroke-linejoin:round;stroke-width:7px"/><line x1="50.91" y1="92.92" x2="65.7" y2="101.46" style="fill:none;stroke:#1d2123;stroke-linecap:round;stroke-linejoin:round;stroke-width:7px"/><line x1="235.38" y1="199.42" x2="250.17" y2="207.96" style="fill:none;stroke:#1d2123;stroke-linecap:round;stroke-linejoin:round;stroke-width:7px"/><line x1="35.5" y1="150.44" x2="52.58" y2="150.44" style="fill:none;stroke:#1d2123;stroke-linecap:round;stroke-linejoin:round;stroke-width:7px"/><line x1="248.5" y1="150.44" x2="265.58" y2="150.44" style="fill:none;stroke:#1d2123;stroke-linecap:round;stroke-linejoin:round;stroke-width:7px"/><line x1="50.91" y1="207.96" x2="65.7" y2="199.42" style="fill:none;stroke:#1d2123;stroke-linecap:round;stroke-linejoin:round;stroke-width:7px"/><line x1="235.38" y1="101.46" x2="250.17" y2="92.92" style="fill:none;stroke:#1d2123;stroke-linecap:round;stroke-linejoin:round;stroke-width:7px"/><line x1="93.02" y1="250.07" x2="101.56" y2="235.28" style="fill:none;stroke:#1d2123;stroke-linecap:round;stroke-linejoin:round;stroke-width:7px"/><line x1="199.52" y1="65.6" x2="208.06" y2="50.81" style="fill:none;stroke:#1d2123;stroke-linecap:round;stroke-linejoin:round;stroke-width:7px"/><path d="M261,86.25A128,128,0,1,1,150,22" style="fill:none;stroke:#1d2123;stroke-linejoin:round;stroke-width:7px"/><path d="M150,22A127.93,127.93,0,0,1,261,86.25" style="fill:none;stroke:#00c3cd;stroke-linejoin:round;stroke-width:7px"/></svg>