<svg id="bd4aaa5a-ff29-4a0a-bf19-b062acfddee3" data-name="Layer 1" xmlns="http://www.w3.org/2000/svg" viewBox="0 0 300 300">
  <defs>
    <style>
      .a57073c0-0383-4bb3-9813-e7a6143a27cb, .b8f165a8-ccba-48b4-b541-6b39f5c22080, .eacf0fea-93a1-4670-9aa7-eef5f3de6085 {
        fill: none;
        stroke-linecap: round;
        stroke-linejoin: round;
        stroke-width: 6px;
      }

      .a57073c0-0383-4bb3-9813-e7a6143a27cb {
        stroke: #000;
      }

      .b8f165a8-ccba-48b4-b541-6b39f5c22080, .eacf0fea-93a1-4670-9aa7-eef5f3de6085 {
        stroke: #00c3cd;
      }

      .eacf0fea-93a1-4670-9aa7-eef5f3de6085 {
        stroke-dasharray: 4.05 12.15;
      }
    </style>
  </defs>
  <path class="a57073c0-0383-4bb3-9813-e7a6143a27cb" d="M133.46,265.09h6.36a1.91,1.91,0,0,1,2.09,1.63h0v20.95a1.91,1.91,0,0,1-2.09,1.63h-6.36"/>
  <path class="a57073c0-0383-4bb3-9813-e7a6143a27cb" d="M15.18,258.2H131a1.22,1.22,0,0,1,1.2,1.22h0V295a1.21,1.21,0,0,1-1.2,1.21H15.18A1.21,1.21,0,0,1,14,295h0v-35.6a1.23,1.23,0,0,1,1.1-1.2Z"/>
  <path class="a57073c0-0383-4bb3-9813-e7a6143a27cb" d="M12.72,289.3H6.36a1.9,1.9,0,0,1-2.09-1.63h0V266.72a1.92,1.92,0,0,1,2.09-1.63h6.36"/>
  <g>
    <path class="a57073c0-0383-4bb3-9813-e7a6143a27cb" d="M125.63,43.84A44.65,44.65,0,0,0,40.39,31a28.06,28.06,0,0,0-5.64-.6C18.26,30.36,4.91,44.52,4.91,62S18.28,93.54,34.75,93.54h87.47a25,25,0,0,0,3.41-49.7Z"/>
    <path class="a57073c0-0383-4bb3-9813-e7a6143a27cb" d="M79.27,4.26A40.7,40.7,0,0,0,38.58,45"/>
    <path class="a57073c0-0383-4bb3-9813-e7a6143a27cb" d="M143.13,54.91a23.76,23.76,0,0,0-32.76-7.49h0"/>
  </g>
  <line class="b8f165a8-ccba-48b4-b541-6b39f5c22080" x1="71.39" y1="285.49" x2="115.43" y2="285.49"/>
  <line class="b8f165a8-ccba-48b4-b541-6b39f5c22080" x1="28.95" y1="268.9" x2="31.4" y2="268.9"/>
  <line class="b8f165a8-ccba-48b4-b541-6b39f5c22080" x1="39.79" y1="268.9" x2="42.25" y2="268.9"/>
  <path class="a57073c0-0383-4bb3-9813-e7a6143a27cb" d="M221.89,189.18h57.38v-2.29c0-4.57-3.69-8.26-11.44-11.18l-.38-.13c-5.21-1.91-9.28-3.56-9.79-5.72-.51-1.78.38-2.92,1.65-4.57a7.67,7.67,0,0,1,.89-1.15,22.61,22.61,0,0,0,4.28-13.47c0-9.15-5.85-15.64-14-15.64s-14,6.61-14,15.64a22.86,22.86,0,0,0,4.32,13.47c.29.39.6.77.92,1.13,1.27,1.65,2.16,2.79,1.65,4.57-.5,2.16-4.7,3.69-9.78,5.72l-.38.13c-7.76,2.94-11.44,6.63-11.44,11.2v2.29Z"/>
  <g>
    <g>
      <line class="b8f165a8-ccba-48b4-b541-6b39f5c22080" x1="211.5" y1="211.32" x2="210.09" y2="212.73"/>
      <line class="eacf0fea-93a1-4670-9aa7-eef5f3de6085" x1="201.49" y1="221.33" x2="171.41" y2="251.41"/>
      <line class="b8f165a8-ccba-48b4-b541-6b39f5c22080" x1="167.12" y1="255.71" x2="165.7" y2="257.12"/>
    </g>
    <polyline class="b8f165a8-ccba-48b4-b541-6b39f5c22080" points="214.73 199 223.83 199 223.83 208.09"/>
    <polyline class="b8f165a8-ccba-48b4-b541-6b39f5c22080" points="163.02 268.9 153.92 268.9 153.92 259.81"/>
  </g>
  <g>
    <g>
      <line class="b8f165a8-ccba-48b4-b541-6b39f5c22080" x1="211.5" y1="146.58" x2="210.09" y2="145.17"/>
      <line class="eacf0fea-93a1-4670-9aa7-eef5f3de6085" x1="201.49" y1="136.57" x2="171.41" y2="106.49"/>
      <line class="b8f165a8-ccba-48b4-b541-6b39f5c22080" x1="167.12" y1="102.19" x2="165.7" y2="100.78"/>
    </g>
    <polyline class="b8f165a8-ccba-48b4-b541-6b39f5c22080" points="223.83 149.81 223.83 158.9 214.73 158.9"/>
    <polyline class="b8f165a8-ccba-48b4-b541-6b39f5c22080" points="153.92 98.09 153.92 89 163.02 89"/>
  </g>
</svg>
