<svg id="Layer_1" data-name="Layer 1" xmlns="http://www.w3.org/2000/svg" viewBox="0 0 267.96 99.6"><defs><style>.cls-1{fill:#679cc5;}.cls-1,.cls-2,.cls-3,.cls-4{fill-rule:evenodd;}.cls-2{fill:#2874ad;}.cls-3{fill:#025b9e;}.cls-4{fill:#fff;}</style></defs><g id="Layer_2" data-name="Layer 2"><g id="Layer_1-2" data-name="Layer 1-2"><g id="Imported-Layers-3"><path id="Fill-1" class="cls-1" d="M95.64,36.84A43.22,43.22,0,0,0,16.43,20,42.9,42.9,0,0,0,41.54,96.62,43.34,43.34,0,0,0,89.43,85.4a42.75,42.75,0,0,0,6.21-48.56"/><path id="Fill-2" class="cls-2" d="M95.64,36.84A43.14,43.14,0,0,0,59,13.78,43.42,43.42,0,0,0,16.43,20a42.78,42.78,0,0,0-1.78,42.73A42.63,42.63,0,0,0,28.49,88.57a43.45,43.45,0,0,0,13.05,8.05,43.17,43.17,0,0,0,38.1-20,42.87,42.87,0,0,0,16-39.79"/><path id="Fill-3" class="cls-3" d="M84.19,40.45A42.92,42.92,0,0,0,59,13.78,43.18,43.18,0,0,0,25.29,28,42.65,42.65,0,0,0,14.65,62.74a43.27,43.27,0,0,0,65,13.89A42.69,42.69,0,0,0,84.2,40.45"/><path id="Fill-4" class="cls-4" d="M37.16,58.59V64.2H32.84V58.59H20.75V55.16c3.22-5.7,4.89-11.84,4.89-16.07H30c0,4.3-1.86,10.45-5,15.76h7.92V44.41h4.32V54.85H40.8v3.74H37.16"/><path id="Fill-5" class="cls-4" d="M56.75,56c0-2.87-1.93-4.68-5.12-4.68a6.27,6.27,0,0,0-5.11,2.34l-2.66-1.21.87-13.35H59.9v4H48.3l-.57,6.15a8.71,8.71,0,0,1,5-1.44c4.81,0,8.53,3.13,8.53,8.11,0,4.56-3.3,8.75-9.55,8.75-4.21,0-7.39-1.66-9.37-5L46,57.6a6,6,0,0,0,5.54,3.2c3,0,5.15-1.8,5.15-4.78"/><path id="Fill-6" class="cls-4" d="M64,64.21V60.55h6.21V44A22.35,22.35,0,0,1,64,45.69l-.54-3.39c3.72-.68,6.18-1.63,7.81-3.21h3.34V60.55h5.87v3.66H64"/><path id="Fill-7" class="cls-4" d="M123.61,64.2l-5.38-10.1H111V64.2h-3.56V39.1H118.5c5.19,0,8.45,2.9,8.45,7.35a7.29,7.29,0,0,1-5.19,7l5.87,10.74Zm-5.22-21.86H111V51h7.51c2.92,0,4.77-1.73,4.77-4.3s-2-4.37-4.88-4.37Z"/><path id="Fill-8" class="cls-4" d="M149.15,55.2H133.69c.19,4.07,2.76,6.44,6.63,6.44a7.71,7.71,0,0,0,5.83-2.56l2.2,2.15a10.56,10.56,0,0,1-8.11,3.43c-6.4,0-10.08-4.38-10.08-10.18s3.64-10.33,9.67-10.33c5.79,0,9.39,4.29,9.39,9.76a9.3,9.3,0,0,1-.07,1.29m-3.34-2.53a6,6,0,1,0-12.05,0h12.05"/><path id="Fill-9" class="cls-4" d="M159.3,64.66c-3.86,0-6.93-1.51-8.71-4.19L153,58.66a7.72,7.72,0,0,0,6.48,3.17c2.66,0,4.59-1.06,4.59-3.17s-1.78-2.37-5.42-3c-3.87-.72-7-1.85-7-5.7s3.56-5.76,7.39-5.76a11,11,0,0,1,8,3.28l-2.2,2.07A7.52,7.52,0,0,0,159,47c-2.08,0-4.17.76-4.17,2.64s2.24,2.45,4.89,3c3.94.75,7.7,1.65,7.7,5.84,0,3.73-3,6.26-8.08,6.26"/><path id="Fill-10" class="cls-4" d="M188.33,55.2H172.87c.19,4.07,2.77,6.44,6.63,6.44a7.74,7.74,0,0,0,5.84-2.56l2.2,2.15a10.58,10.58,0,0,1-8.11,3.43c-6.41,0-10.09-4.38-10.09-10.18S173,44.15,179,44.15c5.79,0,9.4,4.29,9.4,9.76a9.31,9.31,0,0,1-.08,1.29M185,52.67a6,6,0,0,0-12.06,0H185"/><path id="Fill-11" class="cls-4" d="M210.91,64.13a6.52,6.52,0,0,1-2.27.38,3.51,3.51,0,0,1-3.83-3.13A8,8,0,0,1,198,64.66c-4.06,0-6.71-2.23-6.71-6,0-4.56,4-5.5,6.82-5.88,3-.42,6.25-.42,6.25-2.91,0-2.18-2.38-2.86-4.47-2.86a10.45,10.45,0,0,0-6.14,2.07l-1.52-2.49a13.34,13.34,0,0,1,7.89-2.48c4.47,0,7.62,1.88,7.62,6.41v9.27c0,1.43.45,2.11,1.55,2.11a2.23,2.23,0,0,0,1.18-.3l.41,2.49Zm-6.44-10.86c-1.33,1.66-3.26,1.62-5.69,2-2.23.37-4.09.9-4.09,3.31s1.82,3.32,4.09,3.32c2.88,0,5.69-1.54,5.69-5.28Z"/><path id="Fill-12" class="cls-4" d="M223.65,48.07a4.8,4.8,0,0,0-2.28-.61c-2.62,0-5.08,2.3-5.08,6.53V64.2H213V44.6h3.3v3.32c1.33-2.12,3.3-3.7,5.72-3.7a5,5,0,0,1,2.7.72l-1.06,3.13"/><path id="Fill-13" class="cls-4" d="M242.22,60.55a9.45,9.45,0,0,1-8,4.11c-5.83,0-9.55-4.41-9.55-10.26s3.72-10.25,9.55-10.25a9.26,9.26,0,0,1,7.85,4.07l-2.46,2a6,6,0,0,0-5.27-3.06c-3.83,0-6.18,3.14-6.18,7.28s2.39,7.28,6.14,7.28a6.18,6.18,0,0,0,5.34-2.94l2.55,1.81"/><path id="Fill-14" class="cls-4" d="M245.73,64.21V37.29H249V47.84a7.84,7.84,0,0,1,6.74-3.69c4.25,0,6.9,2.75,6.9,7.42V64.21h-3.29V52.33c0-2.34-.73-5.09-4.4-5.09a5.81,5.81,0,0,0-6,5.64c0,.16,0,.31,0,.47V64.21h-3.3"/><path id="Fill-15" class="cls-4" d="M265.9,45.11a.18.18,0,0,1-.16-.1l-.48-1h-.85v1a.18.18,0,0,1-.18.17H264a.18.18,0,0,1-.18-.17V42.12A.16.16,0,0,1,264,42h1.21a1,1,0,0,1,1.12.86.66.66,0,0,1,0,.14,1,1,0,0,1-.52.87l.48,1a.17.17,0,0,1,0,.17.18.18,0,0,1-.15.08Zm-.69-1.69c.34,0,.55-.18.55-.47s-.21-.45-.55-.45h-.8v.92Z"/><path id="Fill-16" class="cls-4" d="M265,46.49a3,3,0,1,1,3-3,3,3,0,0,1-3,3m0-5.37a2.41,2.41,0,1,0,2.42,2.41A2.41,2.41,0,0,0,265,41.12"/></g></g></g></svg>