<svg id="bff6ce2f-d6ed-4f13-a54e-825b2e516316" data-name="Layer 1" xmlns="http://www.w3.org/2000/svg" viewBox="0 0 601 162"><path d="M133.9,112.8c-.2-4.9-1.2-8.7-3.3-11.2s-5.2-3.8-9.4-3.8-7.7,1.4-10.1,4.1-3.8,6.4-4,11.1Zm-7.3,48.8c-13.4,0-23.7-3.4-30.9-10.1S85,135.2,85,122.8c0-12.2,3.4-21.9,10-29.1s16-10.9,28-10.9q16.35,0,24.6,9.3c5.5,6.1,8.2,15,8.2,26.4v8.4H107.3a21.83,21.83,0,0,0,2.1,8.7,14.29,14.29,0,0,0,4.7,5.6,16.45,16.45,0,0,0,6.6,2.9,35.79,35.79,0,0,0,8.3.9,32.88,32.88,0,0,0,7.6-.9,37.43,37.43,0,0,0,6.9-2.4,33.83,33.83,0,0,0,5-2.7,40.31,40.31,0,0,0,3.8-2.6h2.4v19.1c-1.8.7-3.4,1.5-5,2.1a39.55,39.55,0,0,1-6.1,2c-2.4.7-4.9,1.1-7.5,1.6a87.7,87.7,0,0,1-9.5.4m111.1-1.9H215.4V122.8q0-4.5-.3-9a21.71,21.71,0,0,0-1.3-6.6,6.88,6.88,0,0,0-3.3-3.6,14.8,14.8,0,0,0-11.2,0,24.94,24.94,0,0,0-6,3.4v52.8H171.2V85.3h22.1v8.2a60.34,60.34,0,0,1,10.6-7.6,24,24,0,0,1,11.4-2.7c7.3,0,12.8,2.4,16.6,7.2s5.7,11.8,5.7,20.9l.1,48.4Zm62.5-37.1a44.23,44.23,0,0,0-1.1-11.1,18.93,18.93,0,0,0-2.9-7,9.71,9.71,0,0,0-4.4-3.8,14,14,0,0,0-5.6-1.1,13.33,13.33,0,0,0-5.4,1,10.8,10.8,0,0,0-4.4,3.7,20.48,20.48,0,0,0-3,7.1,51.06,51.06,0,0,0-1.1,11.4,42.22,42.22,0,0,0,1.1,11.1,21.09,21.09,0,0,0,2.8,6.7,10.11,10.11,0,0,0,4.4,3.8,14.48,14.48,0,0,0,5.9,1.2,13.2,13.2,0,0,0,5.4-1.2,10.34,10.34,0,0,0,4.4-3.6,19.68,19.68,0,0,0,2.9-6.9,49.62,49.62,0,0,0,1-11.3m22.8-.2c0,12.3-3.2,21.9-9.6,29S297.9,162,286.2,162s-20.6-3.5-27-10.6-9.7-16.7-9.7-29,3.2-22.1,9.7-29.1,15.5-10.5,27-10.5,20.7,3.5,27.1,10.6,9.7,16.7,9.7,29m58.9,10.9a21.74,21.74,0,0,1-2.9,6.9,9.78,9.78,0,0,1-4.4,3.6,13.2,13.2,0,0,1-5.4,1.2,14.48,14.48,0,0,1-5.9-1.2,9.5,9.5,0,0,1-4.4-3.8,26.48,26.48,0,0,1-2.8-6.7,47,47,0,0,1-1.1-11.1,51.06,51.06,0,0,1,1.1-11.4,20.48,20.48,0,0,1,3-7.1,11.47,11.47,0,0,1,4.4-3.7,13.33,13.33,0,0,1,5.4-1,14,14,0,0,1,5.6,1.1,11.1,11.1,0,0,1,4.4,3.8,21.7,21.7,0,0,1,2.9,7,48.2,48.2,0,0,1,1.1,11.1,46.8,46.8,0,0,1-1,11.3m.9-87.6v43c-3.2-1.7-8.4-4.3-11.1-5a33.13,33.13,0,0,0-9.2-1.2,26.09,26.09,0,0,0-11.6,2.8,26.7,26.7,0,0,0-9.3,7.7,11,11,0,0,0-1.7,2.5c-5.1,6.8-7.6,15.6-7.6,26.7,0,12.3,3.2,21.9,9.7,29s15.5,10.6,27,10.6c11.7,0,20.7-3.5,27.1-10.6,6.2-6.9,9.4-16.1,9.7-27.8V45.9h-23ZM49.7,133.3a21.74,21.74,0,0,1-2.9,6.9,9.78,9.78,0,0,1-4.4,3.6A13.2,13.2,0,0,1,37,145a14.48,14.48,0,0,1-5.9-1.2,9.5,9.5,0,0,1-4.4-3.8,25,25,0,0,1-2.8-6.7,47,47,0,0,1-1.1-11.1,51.06,51.06,0,0,1,1.1-11.4,20.48,20.48,0,0,1,3-7.1,11.47,11.47,0,0,1,4.4-3.7,13.33,13.33,0,0,1,5.4-1,14,14,0,0,1,5.6,1.1,11.1,11.1,0,0,1,4.4,3.8,21.7,21.7,0,0,1,2.9,7A48.2,48.2,0,0,1,50.7,122a46.8,46.8,0,0,1-1,11.3m1-87.6v43c-3.2-1.7-8.4-4.3-11.1-5a33.13,33.13,0,0,0-9.2-1.2,26.09,26.09,0,0,0-11.6,2.8A26.7,26.7,0,0,0,9.5,93a11,11,0,0,0-1.7,2.5C2.5,102.2,0,111,0,122.1c0,12.3,3.2,21.9,9.7,29s15.5,10.6,27,10.6c11.7,0,20.7-3.5,27.1-10.6,6.2-6.9,9.4-16.1,9.7-27.8V45.8C73.4,45.7,50.7,45.7,50.7,45.7Zm417.6,76.6a44.23,44.23,0,0,0-1.1-11.1,18.93,18.93,0,0,0-2.9-7,10.36,10.36,0,0,0-4.4-3.8,14,14,0,0,0-5.6-1.1,13.33,13.33,0,0,0-5.4,1,10.8,10.8,0,0,0-4.4,3.7,20.48,20.48,0,0,0-3,7.1,50.74,50.74,0,0,0-1.1,11.3,42.22,42.22,0,0,0,1.1,11.1,19,19,0,0,0,2.8,6.7,10.11,10.11,0,0,0,4.4,3.8,14.48,14.48,0,0,0,5.9,1.2A13.2,13.2,0,0,0,460,144a10.34,10.34,0,0,0,4.4-3.6,19.68,19.68,0,0,0,2.9-6.9,53.59,53.59,0,0,0,1-11.2m22.7-.2c0,12.3-3.2,21.9-9.6,29s-15.5,10.6-27.1,10.6-20.6-3.5-27-10.6-9.7-16.7-9.7-29,3.2-22.1,9.7-29.1,15.5-10.6,27-10.6,20.6,3.5,27.1,10.6,9.6,16.8,9.6,29.1" style="fill:#fff"/><path d="M510.5,64.5l11.4,19.7L502.2,95.6,490.7,75.9Zm23.9,26.9h22.8v22.8H534.4Zm35.4-7.2,11.5-19.7L601,75.9,589.6,95.6Zm0-54.1,19.8-11.4L601,38.5,581.2,49.9,569.8,30.1Z" style="fill:#f0524a"/><path d="M534.4,45.7h22.8V68.5H534.4Z" style="fill:#fff"/><path d="M534.4,0h22.8V22.8H534.4ZM490.6,38.5,502,18.7l19.8,11.4L510.4,49.9Z" style="fill:#f0524a"/></svg>