<svg id="b4acc525-22b6-4faa-a6ba-3b2edab7ea10" data-name="Layer 1" xmlns="http://www.w3.org/2000/svg" viewBox="0 0 300 50.94"><path d="M53.93,10.62l4.34-.85L54.68,9l1.9-2.29-3.34.85.59-3.29L51.54,5.78l-1.1-4.24L49.5,6.38,46.75,4.24l.9,2.94L45,6.68,47.3,9.07l-3.79.8,3.84.85L45.8,12.46l2.4-.19-1.1,3.24,2.64-2.7.8,4.34.85-4.34,2,2.15-.24-2.69,2.94,1c-.05.05-2.2-2.64-2.2-2.64ZM52.44,9.47a1.8,1.8,0,1,1-1.8-1.79A1.79,1.79,0,0,1,52.44,9.47Z" style="fill:#df3741"/><path d="M28.6,8.72,25.06,21a35.67,35.67,0,0,0-.8,4.14H24L19.67,8.72H8L3,39.94h11l1.3-13.36c.1-1.25.2-2.5.3-3.79h.39a17.8,17.8,0,0,0,.7,3.89l4.09,13.26h6.63l4.49-14a17,17,0,0,0,.7-3.14h.2l1.55,17.15h11L40.12,8.72ZM56.08,25.58V17.9H45.36v22H56V32.56c1.44,5.09,5.88,7.78,11.77,7.78a19,19,0,0,0,5.38-1l.5-9.07A6.89,6.89,0,0,1,69.54,32a3.24,3.24,0,1,1,.15-6.48,6.58,6.58,0,0,1,3.94,1.79V18.45A22.12,22.12,0,0,0,66.9,17.3,11.2,11.2,0,0,0,56.08,25.58Zm230-8.08-3.79,8.63-1.09,3.34h-.3l-.05-3.34-1.1-8.63H258.44l-.2,3.19h-.3a6,6,0,0,0-5.89-3.64c-5.33,0-9.27,4.64-10.77,9.43-.55-5.69-5.28-9-11.67-9a14.84,14.84,0,0,0-12.06,5.89l.84-5.29-3.59.2L216,10.92H205.18L204,18.3l-2.19-.1v-.1H191.32l0,2.64H191a6.38,6.38,0,0,0-5.94-3.14c-5.23,0-9.07,4.19-10.67,8.88l1.4-8.68c-3.59-.05-5.64.55-8,3.44h-.25l.7-2.94H157.61l-3.64.2,1.14-7.38H144.34l-1.19,7.38-2.6-.2L139.45,25c-1.09-2.19-3.34-3.49-6.33-4.14l-2.44-.6c-.85-.2-2.2-.35-2.05-1.54s1.75-1.7,2.7-1.7a10.09,10.09,0,0,1,6.23,2.35l4.34-8a16.61,16.61,0,0,0-9.48-2.75c-6.78,0-14.21,4.14-15.41,11.57-.79,4.94,2.5,7.48,6.84,8.28l2.19.4c1,.2,2.44.35,2.29,1.75s-2.09,1.84-3.19,1.84a9.82,9.82,0,0,1-6.63-2.89l-.6-.6c-.2-7.48-6.18-11.47-13.31-11.47-4.74,0-8.93,1.75-11.32,5.09V17.55c-3.59-.05-5.59.55-7.43,3.44H85.6l.25-2.94H75.18V40H85.85V31.61c0-2.74,1.44-4.38,4.19-4.38a4,4,0,0,1,1.39.24c-.05.6-.1,1.2-.1,1.85,0,7.33,6.49,11.22,13.37,11.22a15.42,15.42,0,0,0,8.67-2.49,25.4,25.4,0,0,0,11.47,2.79c6.79,0,14.17-3.74,15.36-11.17a8.26,8.26,0,0,0,0-3.14l1.85-.1L139.7,40.09h10.78l2.14-13.66,3.59.25-2.14,13.56h10.67L166,31.81c.4-2.74,2.1-4.39,4.84-4.39a4.75,4.75,0,0,1,2.89,1.1,3.92,3.92,0,0,0-.1.7c-.84,5.34,1.5,11.37,7.48,11.37,3,0,5-1.3,7.23-3.44h.25L187.83,40H198.3l2.14-13.56,2.3-.2L200.59,40h10.77l2.15-13.66,2.34.1a16,16,0,0,0-.8,2.89c-1.19,7.63,4.54,11.17,11.52,11.17,5,0,11.37-2.44,13.62-7.73H229.76a2.63,2.63,0,0,1-2.44,1.8c-2.19,0-2.19-2-1.89-3.79h15.2c0,4.78,2.6,9.27,7.78,9.27a8.52,8.52,0,0,0,7-3.64h.29l-.54,2.19a5.86,5.86,0,0,1-5.64,4.84,10.93,10.93,0,0,1-7.33-2.69l-3.54,7.43,1,.35a24,24,0,0,0,9.17,1.74c7.68,0,15.31-3.49,16.61-12.06l3.14-19.55,5.88,18.65-7.43,11.27h11.27l19-31.12-11.27.05ZM105,32.16a2.91,2.91,0,0,1-3-3,3,3,0,1,1,6,0A3,3,0,0,1,105,32.16Zm84.92-3.39a3.51,3.51,0,0,1-3.34,3.29c-1.9,0-2.49-1.49-2.29-3.24a3.41,3.41,0,0,1,3.24-3,2.33,2.33,0,0,1,2.39,2.94Zm41.34-2.64v.1h-5.34V26a3.28,3.28,0,0,1,2.45-2.94,2.05,2.05,0,0,1,.55-.05,2.33,2.33,0,0,1,1.74.79,2.53,2.53,0,0,1,.6,2.3ZM257,28.52a3.25,3.25,0,0,1-3.19,3c-1.85,0-2.79-1.29-2.49-3.14a3.67,3.67,0,0,1,3.44-3.19c1.79.15,2.49,1.7,2.24,3.29Z" style="fill:#df3741"/></svg>