<svg id="ee504484-e4d9-4703-b676-7e1dc3f739b9" data-name="Layer 1" xmlns="http://www.w3.org/2000/svg" viewBox="0 0 299.96 107.6"><circle cx="49.7" cy="101.6" r="6" style="fill:#c1392b"/><circle cx="59.7" cy="91" r="5.3" style="fill:#c1392b"/><circle cx="64.2" cy="79.5" r="4.6" style="fill:#c1392b"/><circle cx="62.5" cy="68.1" r="4.1" style="fill:#c1392b"/><circle cx="56.1" cy="62.3" r="3.2" style="fill:#c1392b"/><circle cx="50.8" cy="58.2" r="2.5" style="fill:#c1392b"/><circle cx="45.4" cy="56.1" r="1.8" style="fill:#c1392b"/><circle cx="40.8" cy="55.7" r="1.1" style="fill:#c1392b"/><circle cx="49.7" cy="13.9" r="5.6" style="fill:#aed320"/><circle cx="36.7" cy="15.2" r="4.6" style="fill:#aed320"/><circle cx="27.4" cy="22.1" r="3.9" style="fill:#aed320"/><circle cx="22" cy="30" r="3.4" style="fill:#aed320"/><circle cx="20.7" cy="38.2" r="3" style="fill:#aed320"/><circle cx="24" cy="45.5" r="2.5" style="fill:#aed320"/><circle cx="26.8" cy="51.1" r="1.8" style="fill:#aed320"/><circle cx="31" cy="54.2" r="1.2" style="fill:#aed320"/><circle cx="27.3" cy="5.2" r="5.2" style="fill:#f04a12"/><circle cx="16.2" cy="12.9" r="5.1" style="fill:#f04a12"/><circle cx="7.2" cy="22.1" r="4.6" style="fill:#f04a12"/><circle cx="4.2" cy="32.5" r="4.2" style="fill:#f04a12"/><circle cx="5.5" cy="42.7" r="4.1" style="fill:#f04a12"/><circle cx="11.4" cy="48.4" r="3.2" style="fill:#f04a12"/><circle cx="16.9" cy="52.3" r="2.5" style="fill:#f04a12"/><circle cx="22.7" cy="54.9" r="1.8" style="fill:#f04a12"/><circle cx="27.3" cy="55.7" r="1.1" style="fill:#f04a12"/><circle cx="54.3" cy="29.8" r="3.8" style="fill:#00a7e5"/><circle cx="63.4" cy="35.5" r="4.8" style="fill:#00a7e5"/><circle cx="44.8" cy="29.3" r="3.3" style="fill:#00a7e5"/><circle cx="37.4" cy="32.8" r="3" style="fill:#00a7e5"/><circle cx="34.4" cy="38.7" r="2.5" style="fill:#00a7e5"/><circle cx="32.6" cy="44" r="1.8" style="fill:#00a7e5"/><circle cx="32.5" cy="48.5" r="1.3" style="fill:#00a7e5"/><circle cx="33.1" cy="52.2" r="1.1" style="fill:#00a7e5"/><circle cx="45.7" cy="67" r="2.6" style="fill:#f1c40f"/><circle cx="48.3" cy="73.4" r="3" style="fill:#f1c40f"/><circle cx="48.4" cy="82.2" r="3.4" style="fill:#f1c40f"/><circle cx="42.7" cy="89.5" r="4.4" style="fill:#f1c40f"/><circle cx="32.6" cy="95.4" r="4.8" style="fill:#f1c40f"/><circle cx="20" cy="97.3" r="5.7" style="fill:#f1c40f"/><circle cx="43" cy="61.7" r="1.9" style="fill:#f1c40f"/><circle cx="38.9" cy="58.6" r="1.7" style="fill:#f1c40f"/><circle cx="35.1" cy="56.2" r="1.3" style="fill:#f1c40f"/><circle cx="15.2" cy="82.8" r="4.1" style="fill:#9a59b5"/><circle cx="5" cy="78.3" r="4.9" style="fill:#9a59b5"/><circle cx="24.5" cy="82.8" r="3.3" style="fill:#9a59b5"/><circle cx="31.9" cy="79.5" r="3.2" style="fill:#9a59b5"/><circle cx="34.8" cy="73.4" r="2.7" style="fill:#9a59b5"/><circle cx="36.7" cy="68.1" r="1.9" style="fill:#9a59b5"/><circle cx="36.7" cy="63.6" r="1.3" style="fill:#9a59b5"/><circle cx="36.1" cy="59.9" r="1.1" style="fill:#9a59b5"/><path d="M96.3,46.5c0-4.3,4.1-5.6,8.2-5.6a19,19,0,0,1,6.1,1.1,11.84,11.84,0,0,0,3.5,1,2.85,2.85,0,0,0,2.8-3c0-1.6-1.1-2.4-2.4-3a25.26,25.26,0,0,0-9.9-2.1c-7,0-14.6,3.5-14.6,11.6,0,13.5,21.9,11.7,21.9,20.3,0,5.1-4.3,6.3-8.6,6.3a20.81,20.81,0,0,1-9.6-2.7,5.43,5.43,0,0,0-2.7-.9,2.88,2.88,0,0,0-2.8,2.9,3.48,3.48,0,0,0,2.1,3.2,27.77,27.77,0,0,0,13.1,3.5c8.9,0,14.9-5.6,14.9-12.3C118.2,52.8,96.3,54.6,96.3,46.5Zm55.1,25.4c-1.6,0-3.4,1.3-6,1.3-4.1,0-8.9-1.3-8.9-10.5V41.5h11a3,3,0,1,0,0-6h-11V25.8a3.1,3.1,0,1,0-6.2,0v9.7h-3.7a3,3,0,1,0,0,6h3.7V62.7c0,14.5,7.7,16.5,15.3,16.5a14.16,14.16,0,0,0,5-.8c2.2-.8,3.4-2,3.4-3.5a2.59,2.59,0,0,0-2.6-3Zm32.4-36.6a18.41,18.41,0,0,0-3.8-.4c-6.2,0-10.5,4.4-11.3,7.2V38.6a3.1,3.1,0,1,0-6.2,0v37a3.1,3.1,0,1,0,6.2,0V59.1C168.7,43,176.4,41,180,41c1.7,0,2.6.6,3.8.6a2.93,2.93,0,0,0,3-2.9,3.46,3.46,0,0,0-3-3.4Zm14.6.2a3,3,0,0,0-3.1,3.1v37a3.1,3.1,0,1,0,6.2,0v-37A3,3,0,0,0,198.4,35.5Zm0-14.7a3,3,0,0,0-3.1,3.1v.6a3.1,3.1,0,1,0,6.2,0v-.7A3,3,0,0,0,198.4,20.8Zm20.1,14.7a3,3,0,0,0-3.1,3.1v37a3.1,3.1,0,0,0,6.2,0v-37A3.05,3.05,0,0,0,218.5,35.5Zm0-14.7a3,3,0,0,0-3.1,3.1v.6a3.1,3.1,0,0,0,6.2,0v-.7A3,3,0,0,0,218.5,20.8Zm81.3,28.5c-.3-7.8-5.3-13-12.9-14.2a16.56,16.56,0,0,0-16.3,6.3c-1.1,1.4-1.6,1.4-2.6-.1-3.8-5.5-9.2-7.1-15.6-6.1-4.4.7-7.4,3.4-10.3,6.9a6.93,6.93,0,0,1-.3-1.6c0-2.4-.1-5.1-3.4-5s-3,2.9-3,5.2V66.5c0,3.1-.1,6.2.1,9.2a4.14,4.14,0,0,0,2,2.8,3.14,3.14,0,0,0,3.1-.6,6.09,6.09,0,0,0,1.1-3.8c.1-7.1-.1-14.2.1-21.3s5.6-12.4,12.1-12.2,10.4,4.9,10.4,12.3V73.2c0,1-.2,2.4.4,3.1.8,1,1.3,2.1,3.3,2.1,1.5,0,2.1-1.4,2.6-2.5a14.67,14.67,0,0,0,.1-3.1c.1-7.3-.1-14.6.4-21.9a11.18,11.18,0,0,1,11.3-10.4c5.8,0,9.8,3.5,10.8,9.6a20,20,0,0,1,.2,3.5V74.9c0,2.2.9,3.8,3.4,3.7,2.3-.1,3-1.6,3-3.7C299.9,66.4,300.1,57.8,299.8,49.3Z" style="fill:#fff"/></svg>