<svg id="Layer_1" data-name="Layer 1" xmlns="http://www.w3.org/2000/svg" viewBox="0 0 300 77.41"><rect x="35.96" y="50.09" width="264.04" height="26.32"/><rect width="244.76" height="51.09"/><path d="M20.86,8.4h9.71l10.6,34H32.61l-2-7.83H20.55l-2,7.83h-8.3Zm1.25,19.89h7l-.73-2.92C27.44,22,26.55,18,25.66,14.45h-.21C24.62,18,23.73,22,22.84,25.37Z" style="fill:#fff"/><path d="M44.68,8.4h8.41l8.36,16.29a81.78,81.78,0,0,1,3.34,7.67H65a117.3,117.3,0,0,1-1-12.53V8.4h7.68v34H63.27L54.87,26.1c-1.15-2.3-2.25-5-3.29-7.68h-.21a118.68,118.68,0,0,1,1,12.53V42.39H44.68Z" style="fill:#fff"/><path d="M77.39,38.05l4.28-5.27A13.56,13.56,0,0,0,90.24,36c3.08,0,4.48-1.15,4.48-3,0-2-1.82-2.61-4.8-3.81l-4.33-1.88c-3.61-1.41-6.9-4.39-6.9-9.29,0-5.69,5.12-10.29,12.33-10.29A16.31,16.31,0,0,1,102,12l-4.23,5.27A12.13,12.13,0,0,0,91,14.77c-2.51,0-4.13,1-4.13,2.76,0,2,2.14,2.67,5.17,3.87l4.23,1.72c4.23,1.67,6.74,4.49,6.74,9.24,0,5.69-4.76,10.66-13,10.66A18.11,18.11,0,0,1,77.39,38.05Z" style="fill:#fff"/><path d="M105.45,8.4h8.25L115.84,24c.47,3.6.88,7.15,1.25,10.86h.21c.63-3.71,1.3-7.31,2-10.86L122.83,8.4h7L133.28,24c.67,3.44,1.35,7.1,2,10.86h.21c.37-3.76.84-7.37,1.25-10.86L139,8.4h7.73l-6,34H130.46l-3.08-14.88c-.58-2.67-.94-5.33-1.26-8h-.21c-.36,2.71-.73,5.37-1.3,8l-2.93,14.88H111.55Z" style="fill:#fff"/><path d="M151.31,8.4h21.52v6.78H159.46v6.38h11.43v6.78H159.46V35.6h13.89v6.79h-22Z" style="fill:#fff"/><path d="M180.05,8.4h12.48c7.2,0,13.26,2.5,13.26,10.7,0,5-2.35,8.15-5.85,9.82l7.57,13.47h-9.08l-6.27-12h-4v12h-8.14ZM191.9,24c3.86,0,5.95-1.67,5.95-4.91s-2.09-4.28-5.95-4.28h-3.71V24Z" style="fill:#fff"/><path d="M209.46,38.05l4.28-5.27A13.56,13.56,0,0,0,222.31,36c3.08,0,4.49-1.15,4.49-3,0-2-1.83-2.61-4.81-3.81l-4.33-1.88c-3.6-1.41-6.89-4.39-6.89-9.29,0-5.69,5.11-10.29,12.32-10.29a16.31,16.31,0,0,1,11,4.23l-4.23,5.27a12.13,12.13,0,0,0-6.79-2.5c-2.51,0-4.13,1-4.13,2.76,0,2,2.15,2.67,5.17,3.87l4.23,1.72c4.23,1.67,6.74,4.49,6.74,9.24,0,5.69-4.75,10.66-12.95,10.66A18.11,18.11,0,0,1,209.46,38.05Z" style="fill:#fff"/><path d="M43.08,56.66h7.2V58h-5.6v4.21h4.76v1.35H44.68v5.58h-1.6Z" style="fill:#fff"/><path d="M51.6,62.85c0-4,2.19-6.42,5.33-6.42s5.36,2.44,5.36,6.42-2.21,6.54-5.36,6.54S51.6,66.87,51.6,62.85Zm9,0c0-3.1-1.47-5-3.7-5s-3.67,1.91-3.67,5S54.71,68,56.93,68,60.63,66,60.63,62.85Z" style="fill:#fff"/><path d="M65,56.66h3.9c2.56,0,4.39.92,4.39,3.53a3.41,3.41,0,0,1-2.8,3.52l3.18,5.45H71.84l-3-5.28H66.58v5.28H65Zm3.68,5.93c1.94,0,3-.8,3-2.4S70.6,58,68.66,58H66.58v4.63Z" style="fill:#fff"/><path d="M82.21,56.66H84l4.21,12.5h-1.7l-1.18-3.79H80.82l-1.2,3.79H78Zm-1,7.41H85l-.59-1.88c-.46-1.39-.86-2.76-1.26-4.21h-.07c-.38,1.45-.78,2.82-1.22,4.21Z" style="fill:#fff"/><path d="M92.56,56.66h1.66l1.29,6.8c.25,1.36.46,2.69.69,4.1h.08c.24-1.41.53-2.74.83-4.1l1.74-6.8h1.58l1.69,6.8c.31,1.34.63,2.69.9,4.1h.07c.21-1.41.44-2.74.67-4.1l1.34-6.8h1.54L104,69.16h-2l-1.85-7.54c-.23-1-.38-1.85-.55-2.94h-.08c-.19,1.09-.38,2-.59,2.94l-1.81,7.54h-2Z" style="fill:#fff"/><path d="M108,62.85c0-4,2.19-6.42,5.33-6.42s5.36,2.44,5.36,6.42-2.21,6.54-5.36,6.54S108,66.87,108,62.85Zm9,0c0-3.1-1.47-5-3.7-5s-3.67,1.91-3.67,5S111.08,68,113.31,68,117,66,117,62.85Z" style="fill:#fff"/><path d="M121.36,56.66h3.9c2.56,0,4.39.92,4.39,3.53a3.41,3.41,0,0,1-2.8,3.52L130,69.16h-1.81l-3-5.28H123v5.28h-1.6ZM125,62.59c1.94,0,3-.8,3-2.4S127,58,125,58H123v4.63Z" style="fill:#fff"/><path d="M132.22,56.66h1.6V67.81h5.45v1.35h-7.05Z" style="fill:#fff"/><path d="M141.49,56.66h3.12c3.85,0,5.91,2.23,5.91,6.19s-2.06,6.31-5.83,6.31h-3.2Zm3,11.19c2.91,0,4.36-1.83,4.36-5S147.41,58,144.5,58h-1.41v9.87Z" style="fill:#fff"/><path d="M159.63,58h-3.77V56.66H165V58h-3.79V69.16h-1.6Z" style="fill:#fff"/><path d="M167.26,56.66h1.6v5.22h5.79V56.66h1.6v12.5h-1.6V63.29h-5.79v5.87h-1.6Z" style="fill:#fff"/><path d="M182.24,56.66h1.82l4.21,12.5h-1.69l-1.18-3.79h-4.56l-1.2,3.79H178Zm-1,7.41H185l-.59-1.88c-.46-1.39-.86-2.76-1.26-4.21h-.08c-.38,1.45-.78,2.82-1.22,4.21Z" style="fill:#fff"/><path d="M191.59,58h-3.77V56.66H197V58h-3.79V69.16h-1.6Z" style="fill:#fff"/><path d="M202.31,62.91c0-4,2.36-6.48,5.54-6.48A4.66,4.66,0,0,1,211.3,58l-.88,1a3.4,3.4,0,0,0-2.55-1.13c-2.34,0-3.91,1.93-3.91,5S205.45,68,207.81,68a3.74,3.74,0,0,0,2.9-1.35l.87,1a4.81,4.81,0,0,1-3.82,1.81C204.63,69.39,202.31,67,202.31,62.91Z" style="fill:#fff"/><path d="M216.47,56.66h1.83l4.21,12.5h-1.7l-1.18-3.79h-4.55l-1.2,3.79h-1.62Zm-1,7.41h3.73l-.59-1.88c-.46-1.39-.86-2.76-1.26-4.21h-.07c-.38,1.45-.78,2.82-1.22,4.21Z" style="fill:#fff"/><path d="M224.28,56.66H226l4.45,7.79c.48.84.92,1.78,1.36,2.69h.07c-.09-1.3-.21-2.67-.21-4V56.66h1.51v12.5h-1.72L227,61.37c-.48-.84-.94-1.77-1.35-2.69h-.08c.09,1.26.21,2.61.21,3.91v6.57h-1.51Z" style="fill:#fff"/><path d="M236.08,60.23a2.67,2.67,0,0,0,1.45-2.37.52.52,0,0,1-.17,0,.94.94,0,0,1-1-1,1,1,0,0,1,1-1.07c.76,0,1.2.63,1.2,1.74a3.69,3.69,0,0,1-2,3.39Z" style="fill:#fff"/><path d="M244,58h-3.77V56.66h9.16V58h-3.79V69.16H244Z" style="fill:#fff"/><path d="M254.11,56.66h1.66l1.3,6.8c.24,1.36.45,2.69.68,4.1h.08c.24-1.41.53-2.74.84-4.1l1.73-6.8H262l1.7,6.8c.3,1.34.62,2.69.89,4.1h.08c.21-1.41.43-2.74.66-4.1l1.34-6.8h1.54l-2.61,12.5h-2l-1.85-7.54c-.23-1-.38-1.85-.55-2.94h-.08c-.19,1.09-.38,2-.59,2.94l-1.81,7.54h-2Z" style="fill:#fff"/><path d="M272.92,56.66h1.83L279,69.16h-1.69l-1.18-3.79h-4.56l-1.2,3.79h-1.62Zm-1,7.41h3.73l-.59-1.88c-.45-1.39-.85-2.76-1.25-4.21h-.08c-.38,1.45-.78,2.82-1.22,4.21Z" style="fill:#fff"/><path d="M280.74,56.66h1.6v12.5h-1.6Z" style="fill:#fff"/><path d="M288.34,58h-3.77V56.66h9.16V58h-3.79V69.16h-1.6Z" style="fill:#fff"/></svg>