<svg width="1710" height="586" xmlns="http://www.w3.org/2000/svg" xmlns:xlink="http://www.w3.org/1999/xlink"><defs><path id="a" d="M0 0h1710v586H0z"/></defs><g transform="matrix(-1 0 0 1 1710 0)" fill="none" fill-rule="evenodd"><mask id="b" fill="#fff"><use xlink:href="#a"/></mask><use fill="#1F292E" xlink:href="#a"/><g opacity=".798" mask="url(#b)" stroke-linecap="round" stroke-linejoin="round"><g stroke="#00C3CD"><path d="M601 333.839l-.187-.325"/><path stroke-dasharray="0.757,5.049" d="M598.288 329.142l-85.839-148.68"/><path d="M511.187 178.275l-.186-.325M151.581 420.52h-.375"/><path stroke-dasharray="0.747,4.978" d="M146.227 420.519l-312.362-.074"/><path stroke-dasharray="0.745,4.969" d="M988.328 658.31L892.43 492.204"/><path d="M891.187 490.052l-.186-.325"/><path stroke-dasharray="0.754,5.024" d="M318.301 710.226L62.444 267.056"/><path d="M61.188 264.88l-.187-.325h-.375"/><path stroke-dasharray="0.761,5.073" d="M55.553 264.556H-76.089"/><path d="M811 489.727l-.187.326"/><path stroke-dasharray="0.757,5.049" d="M808.288 494.425l-85.839 148.681"/><path stroke-dasharray="0.752,5.011" d="M268.307 796.841L102.441 509.544"/><path d="M101.188 507.374l-.187-.325h-.375"/><path stroke-dasharray="0.745,4.969" d="M95.656 507.049H-96.141"/><path stroke-dasharray="0.755,5.035" d="M1138.295 640.932l-105.849-183.341"/><path d="M1031.188 455.41l-.188-.325.188-.324"/><path stroke-dasharray="0.751,5.007" d="M1033.691 450.425L1219.56 128.48"/><path d="M1220.812 126.311l.187-.324"/><path stroke-dasharray="0.745,4.969" d="M1875.656 195.271h-191.797"/><path d="M1681.375 195.271H1681l-.187.325"/><path stroke-dasharray="0.754,5.024" d="M1678.301 199.947l-255.857 443.17"/><path stroke-dasharray="0.757,5.049" d="M1805.576 108.666h-171.677"/><path d="M1631.375 108.667H1631l-.187.325"/><path stroke-dasharray="0.752,5.011" d="M1628.307 113.331l-165.866 287.298"/><path d="M1461.187 402.799l-.186.325"/></g><g stroke="#FFF"><path d="M1130.023 247.234l-.187-.325"/><path stroke-dasharray="0.744,4.96" d="M1127.369 242.606L992.42 7.218"/><path d="M991.186 5.066L991 4.741l.188-.325"/><path stroke-dasharray="0.745,4.969" d="M993.672.113l55.898-96.822"/><path d="M461 437.766h.375"/><path stroke-dasharray="0.745,4.969" d="M466.344 437.766h111.797"/><path d="M580.625 437.765H581l.187-.325"/><path stroke-dasharray="0.745,4.969" d="M583.672 433.137l95.898-166.106"/><path d="M680.813 264.88l.186-.325h.375"/><path stroke-dasharray="0.745,4.969" d="M686.344 264.555h191.797"/><path d="M880.625 264.555H881l.187-.325"/><path stroke-dasharray="0.745,4.969" d="M883.672 259.927l75.898-131.463"/><path d="M960.812 126.311l.187-.324M541 437.765l-.187.325"/><path stroke-dasharray="0.745,4.968" d="M538.328 442.393l-15.898 27.538"/><path d="M521.188 472.082l-.187.325.187.325"/><path stroke-dasharray="0.754,5.024" d="M523.699 477.083l255.857 443.169"/><path d="M1681 368.481l.187-.325"/><path stroke-dasharray="0.745,4.969" d="M1683.672 363.853l35.898-62.18"/><path d="M1351 74.024h.375"/><path stroke-dasharray="0.745,4.969" d="M1356.344 74.024h231.797"/><path d="M1590.625 74.024h.375l.187-.325"/><path stroke-dasharray="0.745,4.969" d="M1593.672 69.396l95.898-166.105"/></g><g opacity=".295" stroke="#FFCD32"><path d="M1661 541.691l-70-121.247M701 818.828H561L351 455.087l-340-.001M1461 888.111l140-242.494v.001h200l70-121.248"/><path d="M-159 749.543h320l60-103.927 180 .001 140 242.495h120l70-121.247h140l110-190.533v.001l-100-173.21M511 281.876L381 507.05M1171 39.381l560 .001 50-86.605M2391 420.444l-150-259.815h-680l-140 242.494H981l-70-121.246"/><path d="M1241 403.123L1101 645.62l70 121.245h120l70 121.246h480l60 103.926-60 .001-80 138.568 30 51.963h300L2171 1044"/></g></g></g></svg>