<svg viewBox="0 0 1920 320" xmlns="http://www.w3.org/2000/svg"><path clip-rule="evenodd" d="M0 0h1920v320H0z" fill="#1f292e" fill-rule="evenodd"/><g fill="none" stroke-linecap="round" stroke-linejoin="round"><g stroke="#00c3cd"><path d="M1445.7 320l151.5-264.5" stroke-dasharray=".745 4.966"/><path d="M1598.5 53.3l.2-.3h.4"/><path d="M1604.1 53l315.9.3" stroke-dasharray=".75 4.999"/><path d="M1919.3 228l-53.6 92.9" stroke-dasharray=".75 5"/><path d="M1210 209.3h.4"/><path d="M1215.3 209.3h191.8" stroke-dasharray=".745 4.969"/><path d="M1409.6 209.3h.4l.2-.3"/><path d="M1412.7 204.7l135.9-235.4" stroke-dasharray=".745 4.969"/><path d="M906.6-4.4l32 55.4" stroke-dasharray=".751 5.007"/><path d="M939.8 53.1l.2.3h.4"/><path d="M945.4 53.4h171.7" stroke-dasharray=".757 5.049"/><path d="M1119.6 53.4h.4l.2.3"/><path d="M1122.7 58.1l151.7 262.7" stroke-dasharray=".754 5.029"/><path d="M0 174.7L68.6 56" stroke-dasharray=".757 5.049"/><path d="M69.8 53.8l.2-.3h.4M1620 157.4L1710.9 0M1020 157.4h300l92.7-160.5M1920 157.4h-80l-70 121.2 24.4 42.2M1920 36.1h-230M0 28.1h90"/><path d="M860 53.4l130 225.2h340l140-242.5"/></g><path d="M1690 36.1l-.2-.3" stroke="#fff"/><path d="M1687.3 31.5L1669.1 0" stroke="#fff" stroke-dasharray=".745 4.969"/><path d="M1027.3-3.1L1213.9 320" stroke="#fff" stroke-dasharray=".75 4.998"/><path d="M-1.4 97l128.6 222.7" stroke="#fff" stroke-dasharray=".745 4.969"/><path d="M1650 209.3h-.4" stroke="#fff"/><path d="M1644.6 209.3h-171.7" stroke="#fff" stroke-dasharray=".75 5"/><path d="M1470.4 209.3h-.4l-.2.3" stroke="#fff"/><path d="M1467.3 214l-35.9 62.2" stroke="#fff" stroke-dasharray=".745 4.969"/><path d="M1430.2 278.3l-.2.3M829.8 105.7l.2-.3h.4" stroke="#fff"/><path d="M835.5 105.4h91.6" stroke="#fff" stroke-dasharray=".767 5.116"/><path d="M929.6 105.4h.4l.2.3" stroke="#fff"/><path d="M932.7 110.1L1053.9 320" stroke="#fff" stroke-dasharray=".75 5"/><path d="M1140 88.1h-1.5" stroke="#00c3cd"/><path d="M1128.2 88.1H906.6" stroke="#00c3cd" stroke-dasharray="3.078 10.26"/><path d="M901.5 88.1H900" stroke="#00c3cd"/><path d="M.2 278.3l26.5-46" stroke="#00c3cd" stroke-dasharray="3.018 10.06"/><path d="M29.2 228l.8-1.3h1.5" stroke="#00c3cd"/><path d="M1850 1.5l70 121.2M1386.1 320L1500 122.7h160l70 121.2h-140l-43.9 76m-514.8-179.8H1270l-40-69.3M53.4 245.1l-43.8 76" stroke="#ffcd32"/></g></svg>