<svg enable-background="new 0 0 1920 500" viewBox="0 0 1920 500" xmlns="http://www.w3.org/2000/svg"><path clip-rule="evenodd" d="m0 0h1920v500h-1920z" fill="#0d171c" fill-rule="evenodd"/><g fill="none" stroke-linecap="round" stroke-linejoin="round"><g stroke="#00c3cd"><path d="m1170 145.5-.2.3"/><path d="m1167.3 150.1-95.9 166.1" stroke-dasharray=".745 4.969"/><path d="m1070.2 318.3-.2.3m230-225.1-.2.3"/><path d="m1297.3 98.1-215.9 374" stroke-dasharray=".745 4.969"/><path d="m1080.2 474.2-.2.3.2.3"/><path d="m1082.7 479.2 12.3 21.4" stroke-dasharray=".745 4.969"/><path d="m1560 405.3h.4"/><path d="m1565.3 405.3h191.8" stroke-dasharray=".745 4.969"/><path d="m1759.6 405.3h.4l.2.3"/><path d="m1762.7 409.9 52 90.1" stroke-dasharray=".754 5.024"/><path d="m174.5 2.5-175.9 304.6" stroke-dasharray=".745 4.969"/><path d="m1630 318.7h.4"/><path d="m1635.4 318.7h171.7" stroke-dasharray=".757 5.049"/><path d="m1809.6 318.7h.4l.2.3"/><path d="m1812.7 323.3 102.3 177.2" stroke-dasharray=".752 5.011"/><path d="m1405.3 500 3.2-5.6" stroke-dasharray=".755 5.035"/><path d="m1409.8 492.2.2-.3h.4"/><path d="m1415.5 491.9h91.6" stroke-dasharray=".767 5.116"/><path d="m1509.6 491.9h.4l.2-.3"/><path d="m1512.7 487.2 195.9-339.3" stroke-dasharray=".745 4.969"/><path d="m1709.8 145.8.2-.3"/><path d="m-.5 388h172.5" stroke-dasharray=".761 5.075"/><path d="m50.6-.6 85.8 148.7" stroke-dasharray=".757 5.049"/><path d="m819.8 474.2.2.3h.4"/><path d="m825.4 474.6h171.7" stroke-dasharray=".757 5.049"/><path d="m999.6 474.6h.4l.2.3"/><path d="m1002.7 479.2 12 20.8" stroke-dasharray=".745 4.969"/><path d="m0 474.3h76.4l38.2-66.2h97.4m529 31.8h179l140-242.5h220l40-69.3m25 372.4 125-216.5h360l100 173.2"/><path d="m705 500.5 35-60.6"/></g><path d="m925 500.5 133.6-231.4" stroke="#fff" stroke-dasharray=".745 4.969"/><path d="m1059.8 267 .2-.3-.2-.3" stroke="#fff"/><path d="m1057.3 262.1-75.9-131.5" stroke="#fff" stroke-dasharray=".745 4.969"/><path d="m1920 284h-67.1" stroke="#fff" stroke-dasharray=".745 4.969"/><path d="m1850.4 284h-.4l-.2-.3" stroke="#fff"/><path d="m1847.3 279.4-95.9-166.1" stroke="#fff" stroke-dasharray=".745 4.969"/><path d="m1750.2 111.1-.2-.3" stroke="#fff"/><path d="m62 436.8-35.9 62.2" stroke="#fff" stroke-dasharray=".745 4.969"/><path d="m1002.7 98.2 105.8 183.3" stroke="#fff" stroke-dasharray=".755 5.035"/><path d="m1109.8 283.7.2.3h.4" stroke="#fff"/><path d="m1115.4 284h171.7" stroke="#fff" stroke-dasharray=".757 5.049"/><path d="m1149.6 284h.4l.2.3" stroke="#fff"/><path d="m1239.8 439.6.2.3h.4" stroke="#fff"/><path d="m1245.5 439.9h91.6" stroke="#fff" stroke-dasharray=".767 5.116"/><path d="m1339.6 439.9h.4l.2-.3" stroke="#fff"/><path d="m1342.7 435.3 175.9-304.7" stroke="#fff" stroke-dasharray=".745 4.969"/><path d="m1519.8 128.5.2-.3" stroke="#fff"/><path d="m1305 500.5 21.8-37.8" stroke="#00c3cd" stroke-dasharray="2.936 9.786"/><path d="m1329.2 458.5.8-1.3m160 0h-1.5" stroke="#00c3cd"/><path d="m1478.2 457.2h-141.6" stroke="#00c3cd" stroke-dasharray="3.078 10.261"/><path d="m1331.5 457.2h-1.5m-180 0 .8-1.3" stroke="#00c3cd"/><path d="m1155.7 447.3 231-400.1" stroke="#00c3cd" stroke-dasharray="2.994 9.979"/><path d="m1389.2 42.8.8-1.3m-120 415.7h-1.5" stroke="#00c3cd"/><path d="m1258.5 457.2h-202.1" stroke="#00c3cd" stroke-dasharray="2.986 9.954"/><path d="m1051.5 457.2h-1.5l-.8-1.3" stroke="#00c3cd"/><path d="m1044.3 447.4-81.1-140.4" stroke="#00c3cd" stroke-dasharray="2.967 9.888"/><path d="m960.8 302.6-.8-1.3h-1.5" stroke="#00c3cd"/><path d="m948.6 301.3h-162.2" stroke="#00c3cd" stroke-dasharray="2.966 9.888"/><path d="m70.7 148.1h-72.2" stroke="#00c3cd" stroke-dasharray="2.966 9.888"/><path d="m781.5 301.3h-1.5l-.8-1.3" stroke="#00c3cd"/><path d="m1660 24.2-.8 1.3" stroke="#fff"/><path d="m1654.3 34.2-231 400.1" stroke="#fff" stroke-dasharray="2.994 9.979"/><path d="m42.9 34.2 69.7 120.7" stroke="#fff" stroke-dasharray="2.994 9.979"/><path d="m1420.8 438.6-.8 1.3h1.5" stroke="#fff"/><path d="m1431.5 439.9h282" stroke="#fff" stroke-dasharray="3.01 10.034"/><path d="m-1.5 34.2h44.1" stroke="#fff" stroke-dasharray="3.01 10.034"/><path d="m1718.5 439.9h1.5l.8 1.3" stroke="#fff"/><path d="m1725.7 449.8 29.3 50.8" stroke="#fff" stroke-dasharray="2.967 9.889"/><path d="m1920 249.4h-210l-50-86.6m-1661.5 258h174.4l15.6 27m841.5-59.8-64.7 112m160 0 74.7-129.4h680l40.4 69.9m-1849-328.9 65-112.6" stroke="#ffcd32"/></g></svg>