<svg viewBox="0 0 1920 500" xmlns="http://www.w3.org/2000/svg"><path clip-rule="evenodd" d="M0 0h1920v500H0z" fill="#0d171c" fill-rule="evenodd"/><g fill="none" stroke-linecap="round" stroke-linejoin="round"><g stroke="#00c3cd"><path d="M1777.6 500.5l57.9-100.3" stroke-dasharray=".757 5.049"/><path d="M1836.8 397.9l.2-.3h.4"/><path d="M1842.4 397.6h78.6" stroke-dasharray=".761 5.073"/><path d="M1107 380.3l.2.3"/><path d="M1109.7 384.9l67.1 116.3m279.3-1.2l-27.7-47.9" stroke-dasharray=".745 4.969"/><path d="M1427.2 449.9l-.2-.3M937 293.7l.2.3"/><path d="M939.7 298.4l105.8 183.3" stroke-dasharray=".755 5.035"/><path d="M1046.8 483.9l.2.3"/><path d="M1467-.8l228.6 395.9" stroke-dasharray=".754 5.024"/><path d="M1696.8 397.3l.2.3h.4"/><path d="M1702.3 397.6h71.8" stroke-dasharray=".745 4.969"/><path d="M1776.6 397.6h.4"/><path d="M1567.4-.1l88.2 152.7" stroke-dasharray=".752 5.011"/><path d="M1656.8 154.8l.2.3m-680 69.3l.2-.3"/><path d="M979.7 219.7l105.8-183.3" stroke-dasharray=".755 5.035"/><path d="M1086.8 34.2l.2-.3h.4"/><path d="M1092.5 33.9h91.6" stroke-dasharray=".767 5.116"/><path d="M1186.6 33.9h.4l.2-.3"/><path d="M1189.7 29.2L1206.3.5" stroke-dasharray=".745 4.969"/><path d="M1567 414.9h-180l-49.1 85.1m149.1-85.1l-170.7-295.8m450.7 53.3h-60L1597 363l79.4 137.5M967 276.4l-80-138.6L966.3.5m60.7 206.6l70-121.2M-.2 115.7L66.6 0M157 328.3H17L0 298.9"/></g><path d="M1217 397.6l.2.3" stroke="#fff"/><path d="M1219.8 402.5l25.7 44.5" stroke="#fff" stroke-dasharray=".783 5.22"/><path d="M1246.8 449.3l.2.3-.2.3" stroke="#fff"/><path d="M1244.3 454.3l-27.1 47" stroke="#fff" stroke-dasharray=".755 5.035"/><path d="M1217.4 51.2h-.4l-.2.3" stroke="#fff"/><path d="M1214.3 55.8l-135.9 235.4" stroke="#fff" stroke-dasharray=".745 4.969"/><path d="M1077.2 293.4l-.2.3M117 120.5l.2-.3" stroke="#fff"/><path d="M119.7 115.9L186.6 0" stroke="#fff" stroke-dasharray=".745 4.969"/><path d="M1717 120.5h-.4" stroke="#fff"/><path d="M1711.7 120.5h-311.8" stroke="#fff" stroke-dasharray=".745 4.969"/><path d="M1397.4 120.5h-.4l-.2.3" stroke="#fff"/><path d="M1394.3 125.2l-85.8 148.7" stroke="#fff" stroke-dasharray=".757 5.049"/><path d="M1307.2 276l-.2.3.2.3" stroke="#fff"/><path d="M1309.7 281.1l85.8 148.7" stroke="#fff" stroke-dasharray=".757 5.049"/><path d="M1396.8 431.9l.2.3" stroke="#fff"/><path d="M1313 208.1l-45.8-79.3" stroke="#fff" stroke-dasharray=".767 5.116"/><path d="M1265.9 126.6l-.2-.3.2-.3" stroke="#fff"/><path d="M1268.4 121.6l69.5-120.3" stroke="#fff" stroke-dasharray=".754 5.024"/><path d="M1807 207.1l.8 1.3" stroke="#00c3cd"/><path d="M1812.6 216.9l110.5 191.4" stroke="#00c3cd" stroke-dasharray="2.936 9.788"/><path d="M937 120.5l.8-1.3" stroke="#00c3cd"/><path d="M942.6 110.7l61.2-105.9" stroke="#00c3cd" stroke-dasharray="2.936 9.786"/><path d="M1006.3.5l.8-1.3M1517 155.1h-1.5" stroke="#00c3cd"/><path d="M1505.4 155.1h-281.9" stroke="#00c3cd" stroke-dasharray="3.01 10.032"/><path d="M1218.5 155.1h-1.5l-.8 1.3" stroke="#00c3cd"/><path d="M1211.3 165l-81.1 140.4" stroke="#00c3cd" stroke-dasharray="2.967 9.888"/><path d="M1127.8 309.7l-.8 1.3.8 1.3" stroke="#00c3cd"/><path d="M1132.7 320.9l81.1 140.4" stroke="#00c3cd" stroke-dasharray="2.967 9.888"/><path d="M1216.3 465.6l.8 1.3" stroke="#00c3cd"/><path d="M1905.2 293.7h-221.6" stroke="#fff" stroke-dasharray="3.078 10.26"/><path d="M1678.5 293.7h-1.5l-.8 1.3" stroke="#fff"/><path d="M1671.3 303.6L1590.2 444" stroke="#fff" stroke-dasharray="2.967 9.888"/><path d="M1587.8 448.3l-.8 1.3.8 1.3M1387 345.7h-1.5" stroke="#fff"/><path d="M1375.6 345.7H853.4" stroke="#fff" stroke-dasharray="2.967 9.889"/><path d="M848.5 345.7H847" stroke="#fff"/><path d="M1571.3 303.6L1490.2 444" stroke="#fff" stroke-dasharray="2.967 9.889"/><path d="M1487.8 448.3l-.8 1.3M58.5 189.8H57l-.8-1.3" stroke="#fff"/><path d="M51.3 179.9l-53.7-93" stroke="#fff" stroke-dasharray="2.967 9.888"/><path d="M0 397.6h50.4" stroke="#fff" stroke-dasharray="3.078 10.261"/><path d="M55.5 397.6H57" stroke="#fff"/><path d="M1457 293.7l70-121.2m49.4 328L1517 397.6h-200l-70-121.2M-.2 414.9H47l49.6 86" stroke="#ffcd32"/><path d="M927 172.4l70-121.2h120l140 242.5h140l70-121.2h160l20 34.6M1 51.2h16l20 34.6h69m1771 69.3l43 74.5" stroke="#ffcd32"/></g></svg>