<svg width="1920" height="707" xmlns="http://www.w3.org/2000/svg" xmlns:xlink="http://www.w3.org/1999/xlink"><defs><path id="a" d="M0 0h1920v707H0z"/></defs><g fill="none" fill-rule="evenodd"><mask id="b" fill="#fff"><use xlink:href="#a"/></mask><g mask="url(#b)" stroke-linecap="round" stroke-linejoin="round"><g stroke="#00C3CD"><path d="M1247.375 507.32H1247l-.187.326"/><path stroke-dasharray="0.757,5.049" d="M1449.712 814.4l85.839-148.68"/><path d="M1536.813 663.534l.186-.325h.375"/><path stroke-dasharray="0.757,5.049" d="M1542.424 663.209l171.677.001"/><path d="M1716.625 663.21h.375l.187.325"/><path stroke-dasharray="0.754,5.024" d="M1719.699 667.886l125.857 217.997"/><path stroke-dasharray="0.745,4.969" d="M-137.656 593.926H94.141"/><path d="M96.625 593.926H97M977 247.506l.187.325"/><path stroke-dasharray="0.745,4.969" d="M979.672 252.134l135.898 235.389"/><path d="M1116.813 489.675l.186.325-.187.324"/><path stroke-dasharray="0.745,4.969" d="M1114.328 494.627l-95.898 166.106"/><path d="M1017.188 662.885l-.187.324h-.375"/><path stroke-dasharray="0.745,4.969" d="M1011.656 663.209h-71.797"/><path d="M937.375 663.209H937M847 403.395l-.187-.325"/><path stroke-dasharray="0.745,4.969" d="M844.328 398.767L768.43 267.304"/><path d="M767.188 265.152l-.187-.325M1487 160.901h.375"/><path stroke-dasharray="0.757,5.049" d="M1179.712-59.575l85.839 148.681"/><path d="M1266.813 91.292l.186.325h.375"/><path stroke-dasharray="0.757,5.049" d="M1272.424 91.617h171.677"/><path d="M1446.625 91.618h.375l.187.325"/><path stroke-dasharray="0.757,5.049" d="M1449.712 96.315l85.839 148.68"/><path d="M1536.813 247.182l.186.325h.375"/><path stroke-dasharray="0.757,5.049" d="M1542.424 247.506h171.677"/><path d="M1716.625 247.506h.375l.187-.325"/><path stroke-dasharray="0.752,5.011" d="M1719.693 242.841l165.866-287.297"/><path d="M437 247.506h.375"/><path stroke-dasharray="0.757,5.049" d="M442.424 247.506h171.677"/><path d="M616.625 247.505H617l.187-.325"/><path stroke-dasharray="0.757,5.049" d="M619.712 242.808l85.839-148.68"/><path d="M706.813 91.941l.186-.325h.375"/><path stroke-dasharray="0.761,5.073" d="M712.447 91.617h131.642"/><path d="M846.625 91.617H847l.187-.325"/><path stroke-dasharray="0.755,5.035" d="M849.705 86.932L955.554-96.409"/><path stroke-dasharray="0.745,4.969" d="M-20.328 78.924L75.57 245.03"/><path d="M76.813 247.182l.186.325v-.001h.375"/><path stroke-dasharray="0.745,4.969" d="M82.344 247.506h271.797"/><path d="M356.625 247.506H357l-.188-.325"/><path stroke-dasharray="0.745,4.969" d="M354.328 242.878l-55.898-96.822"/><path d="M297.188 143.905l-.187-.325"/><path stroke-dasharray="0.761,5.073" d="M-60.276 390.792L5.544 504.8"/><path d="M6.813 506.996l.186.325h.375"/><path stroke-dasharray="0.745,4.969" d="M12.344 507.321h271.797"/><path d="M286.625 507.32H287l.187-.324"/><path stroke-dasharray="0.757,5.049" d="M289.712 502.623l85.839-148.68"/><path d="M376.813 351.756l.186-.325"/></g><g opacity=".7" stroke="#00C3CD"><path d="M1647 611.247l-.75-1.299"/><path stroke-dasharray="2.758,9.194000000000001" d="M1641.653 601.986l-21.604-37.423"/><path d="M1617.75 560.582l-.75-1.299h-1.5"/><path stroke-dasharray="2.966,9.888" d="M1605.611 559.283l-162.167.001"/><path d="M1438.5 559.284h-1.5"/><path stroke-dasharray="3,10" d="M22.75 861.102l121-209.585"/><path d="M146.25 647.188l.75-1.3h1.5"/><path stroke-dasharray="2.966,9.888" d="M158.388 645.889h162.167"/><path d="M325.5 645.889h1.5l.75-1.3"/><path stroke-dasharray="3.078,10.261" d="M332.88 635.704l90.805-157.283"/><path d="M426.25 473.978l.75-1.299M1746.959 22.334h-1.5"/><path stroke-dasharray="2.936,9.787000000000001" d="M1735.673 22.334l-262.279-.001"/><path d="M1468.5 22.332h-1.5"/><path stroke-dasharray="2.986,9.954000000000001" d="M2055.546 368.752h-422.068"/><path d="M1628.5 368.752h-1.5l-.75 1.3"/><path stroke-dasharray="2.986,9.954000000000001" d="M1621.273 378.672l-101.035 175.002"/><path d="M1517.75 557.985l-.75 1.299M407 507.321l.75-1.299"/><path stroke-dasharray="2.967,9.888" d="M412.694 497.458l81.083-140.445"/><path d="M496.25 352.731l.75-1.299h-1.5"/><path stroke-dasharray="2.936,9.788" d="M485.712 351.432H223.395"/><path d="M218.5 351.432H217M1737 178.223h-1.5"/><path stroke-dasharray="3,10" d="M1725.5 178.223h-762"/><path d="M958.5 178.223H957l-.75 1.3"/><path stroke-dasharray="2.967,9.888" d="M951.306 188.086l-81.083 140.445"/><path d="M867.75 332.813l-.75 1.299h-1.5"/><path stroke-dasharray="3.079,10.263" d="M855.236 334.112H753.632"/><path d="M748.5 334.111H747l-.75 1.3"/><path stroke-dasharray="3.078,10.26" d="M741.12 344.296L630.314 536.221"/><path d="M627.75 540.664l-.75 1.3.75 1.298"/><path stroke-dasharray="3.079,10.263" d="M632.882 552.15l50.803 87.995"/><path d="M686.25 644.59l.75 1.299h1.5"/><path stroke-dasharray="2.966,9.888" d="M698.389 645.889h162.167"/><path d="M865.5 645.889h1.5l.75 1.299"/><path stroke-dasharray="2.967,9.888" d="M872.694 655.751l81.083 140.445M2.694 14.875L83.777 155.32"/><path d="M86.25 159.602l.75 1.299"/></g><g opacity=".404" stroke="#FFCD32"><path d="M1807 611.246l-70 121.247H937L807 957.667l70 121.246M877 282.148l40 69.284h60M937 74.295l20 34.643-60 103.926 140 242.494h800l60 103.925 220 .001"/><path d="M1287 264.828h140l210-363.741 340-.001M527 334.111L387 91.617v.001H187L117-29.63M627 403.395l110 190.531L597 836.42"/></g></g></g></svg>