<svg enable-background="new 0 0 1920 320" viewBox="0 0 1920 320" xmlns="http://www.w3.org/2000/svg"><path clip-rule="evenodd" d="m0 0h1920v320h-1920z" fill="#1f292e" fill-rule="evenodd"/><g fill="none" stroke-linecap="round" stroke-linejoin="round"><path d="m1312 186.7.2-.3" stroke="#00c3cd"/><path d="m1314.7 181.9 65.8-114" stroke="#00c3cd" stroke-dasharray=".761 5.073"/><path d="m1381.8 65.7.2-.3m-420 103.9h.4" stroke="#00c3cd"/><path d="m967.3 169.3h151.8" stroke="#00c3cd" stroke-dasharray=".745 4.969"/><path d="m1121.6 169.3h.4l.2-.3" stroke="#00c3cd"/><path d="m1124.7 164.7 75.9-131.5" stroke="#00c3cd" stroke-dasharray=".745 4.969"/><path d="m1201.8 31.1.2-.3" stroke="#00c3cd"/><path d="m1922.7 117.4h-67.8" stroke="#00c3cd" stroke-dasharray=".761 5.073"/><path d="m1852.4 117.4h-.4l-.2.3" stroke="#00c3cd"/><path d="m1849.3 122-115.9 200.7m-104.1-2.1-75.9-131.5" stroke="#00c3cd" stroke-dasharray=".745 4.969"/><path d="m1552.2 187-.2-.3" stroke="#00c3cd"/><path d="m159 320-5.5-9.6" stroke="#00c3cd" stroke-dasharray=".745 4.969"/><path d="m152.2 308.2-.2-.3h-.4" stroke="#00c3cd"/><path d="m146.7 307.9-146.7-.4" stroke="#00c3cd" stroke-dasharray=".742 4.948"/><path d="m0 188 80.5-137.4" stroke="#00c3cd" stroke-dasharray=".754 5.025"/><path d="m1002 169.3.2.3" stroke="#00c3cd"/><path d="m1004.7 174 85.9 148.8m378.4-2.8-67-116-88.6-153.4" stroke="#00c3cd" stroke-dasharray=".751 5.007"/><path d="m1312.2 48.4-.2-.3" stroke="#00c3cd"/><path d="m14.7 130.1 75.9-131.5" stroke="#00c3cd" stroke-dasharray=".745 4.969"/><path d="m1689.3 320.6-47.3-82m128.6 84.2-48.6-84.1 130-225.2m-360 138.5-87.8-152m-42.2 204h-300l-50 86.6m-891.4 32.2-88.6-153.5h-30m1100 34.7 68.6 118.8" stroke="#00c3cd"/><path d="m1362 65.4-.2.3" stroke="#fff"/><path d="m1359.3 70.2-45.8 79.3" stroke="#fff" stroke-dasharray=".767 5.116"/><path d="m1312.2 151.7-.2.3.2.3" stroke="#fff"/><path d="m1314.7 156.7 94.6 163.9" stroke="#fff" stroke-dasharray=".75 5"/><path d="m1922.7 98.8-29.3 50.8" stroke="#fff" stroke-dasharray=".745 4.969"/><path d="m1892.2 151.7-.2.3" stroke="#fff"/><path d="m1302 100.1.8-1.3" stroke="#00c3cd"/><path d="m1307.8 90.1 54.1-93.7" stroke="#00c3cd" stroke-dasharray="3 10"/><path d="m1252.5 47.2-.8 1.3" stroke="#00c3cd"/><path d="m1246.8 57.1-81.6 141.3" stroke="#00c3cd" stroke-dasharray="2.984 9.946"/><path d="m1162.8 202.7-.8 1.3.8 1.3" stroke="#00c3cd"/><path d="m1167.9 214.2 61.4 106.4" stroke="#00c3cd" stroke-dasharray="3.078 10.26"/><path d="m1712 82.7-138.6 240m-611.9-67.8h140m169.8-154.8h170.7l58.6-101.4" stroke="#ffcd32"/><path d="m1334.7 320.6 137.3-237.9h320l70 121.2h60.7m-540.7-103.8 127.3 220.5m-345.1-320.6 127.8 221.3-57 98.7m684.8-320-37.8 65.4" stroke="#ffcd32"/></g></svg>