<svg width="582" height="380" xmlns="http://www.w3.org/2000/svg" xmlns:xlink="http://www.w3.org/1999/xlink"><defs><path id="a" d="M0 0h1920v380H0z"/></defs><g fill="none" fill-rule="evenodd"><mask id="b" fill="#fff"><use xlink:href="#a"/></mask><g mask="url(#b)"><g stroke-linecap="round" stroke-linejoin="round" stroke="#00C3CD"><path stroke-dasharray="0.755,5.034" d="M-103.591 270.457h211.698"/><path d="M110.625 270.457H111l.187.324"/><path stroke-dasharray="0.745,4.969" d="M113.672 275.085L289.57 579.759"/><path stroke-dasharray="0.757,5.049" d="M-33.576 149.209l171.677.001"/><path d="M140.625 149.21H141l.187.325"/><path stroke-dasharray="0.754,5.024" d="M143.699 153.886l125.857 217.997"/></g><g stroke-linecap="round" stroke-linejoin="round" stroke="#FFF"><path stroke-dasharray="0.754,5.029" d="M-143.596 235.814H328.11"/><path d="M330.625 235.814H331l.187.326"/><path stroke-dasharray="0.783,5.22" d="M333.798 240.661l25.71 44.531"/><path d="M360.813 287.453l.186.325h.375"/><path stroke-dasharray="0.755,5.034" d="M366.409 287.778l211.698-.001"/><path d="M580.625 287.777H581M521 114.568h-.375"/><path stroke-dasharray="0.752,5.011" d="M515.614 114.568l-331.733-.001"/><path d="M181.375 114.567H181l-.187-.324"/><path stroke-dasharray="0.745,4.969" d="M178.328 109.939l-55.898-96.82"/><path d="M121.188 10.966l-.187-.325"/></g><g stroke-linecap="round" stroke-linejoin="round" stroke="#00C3CD"><path d="M71 97.247l-.75-1.299"/><path stroke-dasharray="2.758,9.194000000000001" d="M65.653 87.986L44.049 50.563"/><path d="M41.75 46.582L41 45.283h-1.5"/><path stroke-dasharray="2.966,9.888" d="M29.611 45.283l-162.167.001"/><path stroke-dasharray="2.986,9.954000000000001" d="M45.273-135.328L-55.762 39.674"/></g><g opacity=".499"><path stroke="#FFCD32" stroke-linecap="round" stroke-linejoin="round" d="M231 97.246l-70 121.247h-800l-130 225.174 70 121.246"/><path stroke="#FFCD32" stroke-linecap="round" stroke-linejoin="round" d="M281 460.988H121l-50 86.604h-180l-120-207.85v-.002h-120l-70 121.248h-140l-110 190.53 100 173.21M-639-439.705l20 34.643-60 103.926 140 242.494h800l60 103.925 220 .001"/></g></g></g></svg>