<svg id="fcb81518-7bf6-420e-8a80-1ba66f5515fd" data-name="Layer 1" xmlns="http://www.w3.org/2000/svg" viewBox="0 0 1024 512"><polygon points="841.91 51.29 750.87 0 659.82 51.29 659.82 76.71 750.87 128 841.91 76.71 841.91 51.29" style="fill:none;stroke:#424649;stroke-miterlimit:10;stroke-width:0.5px"/><line x1="750.87" y1="102.81" x2="841.91" y2="51.52" style="fill:none;stroke:#424649;stroke-miterlimit:10;stroke-width:0.5px"/><line x1="659.82" y1="51.52" x2="750.87" y2="102.81" style="fill:none;stroke:#424649;stroke-miterlimit:10;stroke-width:0.5px"/><line x1="750.87" y1="102.59" x2="750.87" y2="128" style="fill:none;stroke:#424649;stroke-miterlimit:10;stroke-width:0.5px"/><polygon points="841.91 179.29 750.87 128 659.82 179.29 659.82 204.71 750.87 256 841.91 204.71 841.91 179.29" style="fill:none;stroke:#424649;stroke-miterlimit:10;stroke-width:0.5px"/><line x1="750.87" y1="230.81" x2="841.91" y2="179.52" style="fill:none;stroke:#424649;stroke-miterlimit:10;stroke-width:0.5px"/><line x1="659.82" y1="179.52" x2="750.87" y2="230.81" style="fill:none;stroke:#424649;stroke-miterlimit:10;stroke-width:0.5px"/><line x1="750.87" y1="230.59" x2="750.87" y2="256" style="fill:none;stroke:#424649;stroke-miterlimit:10;stroke-width:0.5px"/><polygon points="841.91 307.29 750.87 256 659.82 307.29 659.82 332.71 750.87 384 841.91 332.71 841.91 307.29" style="fill:none;stroke:#424649;stroke-miterlimit:10;stroke-width:0.5px"/><line x1="750.87" y1="358.81" x2="841.91" y2="307.52" style="fill:none;stroke:#424649;stroke-miterlimit:10;stroke-width:0.5px"/><line x1="659.82" y1="307.52" x2="750.87" y2="358.81" style="fill:none;stroke:#424649;stroke-miterlimit:10;stroke-width:0.5px"/><line x1="750.87" y1="358.59" x2="750.87" y2="384" style="fill:none;stroke:#424649;stroke-miterlimit:10;stroke-width:0.5px"/><polygon points="1024 179.29 932.96 128 841.91 179.29 841.91 204.71 932.96 256 1024 204.71 1024 179.29" style="fill:none;stroke:#424649;stroke-miterlimit:10;stroke-width:0.5px"/><line x1="932.96" y1="230.81" x2="1024" y2="179.52" style="fill:none;stroke:#424649;stroke-miterlimit:10;stroke-width:0.5px"/><line x1="841.91" y1="179.52" x2="932.96" y2="230.81" style="fill:none;stroke:#424649;stroke-miterlimit:10;stroke-width:0.5px"/><line x1="932.96" y1="230.59" x2="932.96" y2="256" style="fill:none;stroke:#424649;stroke-miterlimit:10;stroke-width:0.5px"/><polygon points="1024 307.29 932.96 256 841.91 307.29 841.91 332.71 932.96 384 1024 332.71 1024 307.29" style="fill:none;stroke:#424649;stroke-miterlimit:10;stroke-width:0.5px"/><line x1="932.96" y1="358.81" x2="1024" y2="307.52" style="fill:none;stroke:#424649;stroke-miterlimit:10;stroke-width:0.5px"/><line x1="841.91" y1="307.52" x2="932.96" y2="358.81" style="fill:none;stroke:#424649;stroke-miterlimit:10;stroke-width:0.5px"/><line x1="932.96" y1="358.59" x2="932.96" y2="384" style="fill:none;stroke:#424649;stroke-miterlimit:10;stroke-width:0.5px"/><polygon points="477.73 307.29 386.69 256 295.64 307.29 295.64 332.71 386.69 384 477.73 332.71 477.73 307.29" style="fill:none;stroke:#424649;stroke-miterlimit:10;stroke-width:0.5px"/><line x1="386.69" y1="358.81" x2="477.73" y2="307.52" style="fill:none;stroke:#424649;stroke-miterlimit:10;stroke-width:0.5px"/><line x1="295.64" y1="307.52" x2="386.69" y2="358.81" style="fill:none;stroke:#424649;stroke-miterlimit:10;stroke-width:0.5px"/><line x1="386.69" y1="358.59" x2="386.69" y2="384" style="fill:none;stroke:#424649;stroke-miterlimit:10;stroke-width:0.5px"/><polygon points="659.82 179.29 568.78 128 477.73 179.29 477.73 204.71 568.78 256 659.82 204.71 659.82 179.29" style="fill:none;stroke:#424649;stroke-miterlimit:10;stroke-width:0.5px"/><line x1="568.78" y1="230.81" x2="659.82" y2="179.52" style="fill:none;stroke:#424649;stroke-miterlimit:10;stroke-width:0.5px"/><line x1="477.73" y1="179.52" x2="568.78" y2="230.81" style="fill:none;stroke:#424649;stroke-miterlimit:10;stroke-width:0.5px"/><line x1="568.78" y1="230.59" x2="568.78" y2="256" style="fill:none;stroke:#424649;stroke-miterlimit:10;stroke-width:0.5px"/><polygon points="659.82 307.29 568.78 256 477.73 307.29 477.73 332.71 568.78 384 659.82 332.71 659.82 307.29" style="fill:none;stroke:#424649;stroke-miterlimit:10;stroke-width:0.5px"/><line x1="568.78" y1="358.81" x2="659.82" y2="307.52" style="fill:none;stroke:#424649;stroke-miterlimit:10;stroke-width:0.5px"/><line x1="477.73" y1="307.52" x2="568.78" y2="358.81" style="fill:none;stroke:#424649;stroke-miterlimit:10;stroke-width:0.5px"/><line x1="568.78" y1="358.59" x2="568.78" y2="384" style="fill:none;stroke:#424649;stroke-miterlimit:10;stroke-width:0.5px"/><polygon points="1024 435.29 932.96 384 841.91 435.29 841.91 460.71 932.96 512 1024 460.71 1024 435.29" style="fill:none;stroke:#424649;stroke-miterlimit:10;stroke-width:0.5px"/><line x1="932.96" y1="486.81" x2="1024" y2="435.52" style="fill:none;stroke:#424649;stroke-miterlimit:10;stroke-width:0.5px"/><line x1="841.91" y1="435.52" x2="932.96" y2="486.81" style="fill:none;stroke:#424649;stroke-miterlimit:10;stroke-width:0.5px"/><line x1="932.96" y1="486.59" x2="932.96" y2="512" style="fill:none;stroke:#424649;stroke-miterlimit:10;stroke-width:0.5px"/><polygon points="659.82 435.29 568.78 384 477.73 435.29 477.73 460.71 568.78 512 659.82 460.71 659.82 435.29" style="fill:none;stroke:#424649;stroke-miterlimit:10;stroke-width:0.5px"/><line x1="568.78" y1="486.81" x2="659.82" y2="435.52" style="fill:none;stroke:#424649;stroke-miterlimit:10;stroke-width:0.5px"/><line x1="477.73" y1="435.52" x2="568.78" y2="486.81" style="fill:none;stroke:#424649;stroke-miterlimit:10;stroke-width:0.5px"/><line x1="568.78" y1="486.59" x2="568.78" y2="512" style="fill:none;stroke:#424649;stroke-miterlimit:10;stroke-width:0.5px"/><polygon points="841.91 435.29 750.87 384 659.82 435.29 659.82 460.71 750.87 512 841.91 460.71 841.91 435.29" style="fill:none;stroke:#424649;stroke-miterlimit:10;stroke-width:0.5px"/><line x1="750.87" y1="486.81" x2="841.91" y2="435.52" style="fill:none;stroke:#424649;stroke-miterlimit:10;stroke-width:0.5px"/><line x1="659.82" y1="435.52" x2="750.87" y2="486.81" style="fill:none;stroke:#424649;stroke-miterlimit:10;stroke-width:0.5px"/><line x1="750.87" y1="486.59" x2="750.87" y2="512" style="fill:none;stroke:#424649;stroke-miterlimit:10;stroke-width:0.5px"/></svg>