<svg id="fcd81d11-0885-425d-b5ea-1bba1046b0ee" data-name="Layer 1" xmlns="http://www.w3.org/2000/svg" viewBox="0 0 1024 512"><polygon points="841.34 51.29 750.29 0 659.25 51.29 659.25 76.71 750.29 128 841.34 76.71 841.34 51.29" style="fill:none;stroke:#d7d9db;stroke-miterlimit:10;stroke-width:0.5px"/><line x1="750.29" y1="102.81" x2="841.34" y2="51.52" style="fill:none;stroke:#d7d9db;stroke-miterlimit:10;stroke-width:0.5px"/><line x1="659.25" y1="51.52" x2="750.29" y2="102.81" style="fill:none;stroke:#d7d9db;stroke-miterlimit:10;stroke-width:0.5px"/><line x1="750.29" y1="102.59" x2="750.29" y2="128" style="fill:none;stroke:#d7d9db;stroke-miterlimit:10;stroke-width:0.5px"/><polygon points="841.34 179.29 750.29 128 659.25 179.29 659.25 204.71 750.29 256 841.34 204.71 841.34 179.29" style="fill:none;stroke:#d7d9db;stroke-miterlimit:10;stroke-width:0.5px"/><line x1="750.29" y1="230.81" x2="841.34" y2="179.52" style="fill:none;stroke:#d7d9db;stroke-miterlimit:10;stroke-width:0.5px"/><line x1="659.25" y1="179.52" x2="750.29" y2="230.81" style="fill:none;stroke:#d7d9db;stroke-miterlimit:10;stroke-width:0.5px"/><line x1="750.29" y1="230.59" x2="750.29" y2="256" style="fill:none;stroke:#d7d9db;stroke-miterlimit:10;stroke-width:0.5px"/><polygon points="841.34 307.29 750.29 256 659.25 307.29 659.25 332.71 750.29 384 841.34 332.71 841.34 307.29" style="fill:none;stroke:#d7d9db;stroke-miterlimit:10;stroke-width:0.5px"/><line x1="750.29" y1="358.81" x2="841.34" y2="307.52" style="fill:none;stroke:#d7d9db;stroke-miterlimit:10;stroke-width:0.5px"/><line x1="659.25" y1="307.52" x2="750.29" y2="358.81" style="fill:none;stroke:#d7d9db;stroke-miterlimit:10;stroke-width:0.5px"/><line x1="750.29" y1="358.59" x2="750.29" y2="384" style="fill:none;stroke:#d7d9db;stroke-miterlimit:10;stroke-width:0.5px"/><polygon points="1023.43 179.29 932.38 128 841.34 179.29 841.34 204.71 932.38 256 1023.43 204.71 1023.43 179.29" style="fill:none;stroke:#d7d9db;stroke-miterlimit:10;stroke-width:0.5px"/><line x1="932.38" y1="230.81" x2="1023.43" y2="179.52" style="fill:none;stroke:#d7d9db;stroke-miterlimit:10;stroke-width:0.5px"/><line x1="841.34" y1="179.52" x2="932.38" y2="230.81" style="fill:none;stroke:#d7d9db;stroke-miterlimit:10;stroke-width:0.5px"/><line x1="932.38" y1="230.59" x2="932.38" y2="256" style="fill:none;stroke:#d7d9db;stroke-miterlimit:10;stroke-width:0.5px"/><polygon points="1023.43 307.29 932.38 256 841.34 307.29 841.34 332.71 932.38 384 1023.43 332.71 1023.43 307.29" style="fill:none;stroke:#d7d9db;stroke-miterlimit:10;stroke-width:0.5px"/><line x1="932.38" y1="358.81" x2="1023.43" y2="307.52" style="fill:none;stroke:#d7d9db;stroke-miterlimit:10;stroke-width:0.5px"/><line x1="841.34" y1="307.52" x2="932.38" y2="358.81" style="fill:none;stroke:#d7d9db;stroke-miterlimit:10;stroke-width:0.5px"/><line x1="932.38" y1="358.59" x2="932.38" y2="384" style="fill:none;stroke:#d7d9db;stroke-miterlimit:10;stroke-width:0.5px"/><polygon points="477.16 307.29 386.11 256 295.07 307.29 295.07 332.71 386.11 384 477.16 332.71 477.16 307.29" style="fill:none;stroke:#d7d9db;stroke-miterlimit:10;stroke-width:0.5px"/><line x1="386.11" y1="358.81" x2="477.16" y2="307.52" style="fill:none;stroke:#d7d9db;stroke-miterlimit:10;stroke-width:0.5px"/><line x1="295.07" y1="307.52" x2="386.11" y2="358.81" style="fill:none;stroke:#d7d9db;stroke-miterlimit:10;stroke-width:0.5px"/><line x1="386.11" y1="358.59" x2="386.11" y2="384" style="fill:none;stroke:#d7d9db;stroke-miterlimit:10;stroke-width:0.5px"/><polygon points="659.25 179.29 568.2 128 477.16 179.29 477.16 204.71 568.2 256 659.25 204.71 659.25 179.29" style="fill:none;stroke:#d7d9db;stroke-miterlimit:10;stroke-width:0.5px"/><line x1="568.2" y1="230.81" x2="659.25" y2="179.52" style="fill:none;stroke:#d7d9db;stroke-miterlimit:10;stroke-width:0.5px"/><line x1="477.16" y1="179.52" x2="568.2" y2="230.81" style="fill:none;stroke:#d7d9db;stroke-miterlimit:10;stroke-width:0.5px"/><line x1="568.2" y1="230.59" x2="568.2" y2="256" style="fill:none;stroke:#d7d9db;stroke-miterlimit:10;stroke-width:0.5px"/><polygon points="659.25 307.29 568.2 256 477.16 307.29 477.16 332.71 568.2 384 659.25 332.71 659.25 307.29" style="fill:none;stroke:#d7d9db;stroke-miterlimit:10;stroke-width:0.5px"/><line x1="568.2" y1="358.81" x2="659.25" y2="307.52" style="fill:none;stroke:#d7d9db;stroke-miterlimit:10;stroke-width:0.5px"/><line x1="477.16" y1="307.52" x2="568.2" y2="358.81" style="fill:none;stroke:#d7d9db;stroke-miterlimit:10;stroke-width:0.5px"/><line x1="568.2" y1="358.59" x2="568.2" y2="384" style="fill:none;stroke:#d7d9db;stroke-miterlimit:10;stroke-width:0.5px"/><polygon points="1023.43 435.29 932.38 384 841.34 435.29 841.34 460.71 932.38 512 1023.43 460.71 1023.43 435.29" style="fill:none;stroke:#d7d9db;stroke-miterlimit:10;stroke-width:0.5px"/><line x1="932.38" y1="486.81" x2="1023.43" y2="435.52" style="fill:none;stroke:#d7d9db;stroke-miterlimit:10;stroke-width:0.5px"/><line x1="841.34" y1="435.52" x2="932.38" y2="486.81" style="fill:none;stroke:#d7d9db;stroke-miterlimit:10;stroke-width:0.5px"/><line x1="932.38" y1="486.59" x2="932.38" y2="512" style="fill:none;stroke:#d7d9db;stroke-miterlimit:10;stroke-width:0.5px"/><polygon points="659.25 435.29 568.2 384 477.16 435.29 477.16 460.71 568.2 512 659.25 460.71 659.25 435.29" style="fill:none;stroke:#d7d9db;stroke-miterlimit:10;stroke-width:0.5px"/><line x1="568.2" y1="486.81" x2="659.25" y2="435.52" style="fill:none;stroke:#d7d9db;stroke-miterlimit:10;stroke-width:0.5px"/><line x1="477.16" y1="435.52" x2="568.2" y2="486.81" style="fill:none;stroke:#d7d9db;stroke-miterlimit:10;stroke-width:0.5px"/><line x1="568.2" y1="486.59" x2="568.2" y2="512" style="fill:none;stroke:#d7d9db;stroke-miterlimit:10;stroke-width:0.5px"/><polygon points="841.34 435.29 750.29 384 659.25 435.29 659.25 460.71 750.29 512 841.34 460.71 841.34 435.29" style="fill:none;stroke:#d7d9db;stroke-miterlimit:10;stroke-width:0.5px"/><line x1="750.29" y1="486.81" x2="841.34" y2="435.52" style="fill:none;stroke:#d7d9db;stroke-miterlimit:10;stroke-width:0.5px"/><line x1="659.25" y1="435.52" x2="750.29" y2="486.81" style="fill:none;stroke:#d7d9db;stroke-miterlimit:10;stroke-width:0.5px"/><line x1="750.29" y1="486.59" x2="750.29" y2="512" style="fill:none;stroke:#d7d9db;stroke-miterlimit:10;stroke-width:0.5px"/></svg>