<svg id="Layer_1" data-name="Layer 1" xmlns="http://www.w3.org/2000/svg" viewBox="0 0 300 300"><rect x="-0.54" y="-1.11" width="300" height="300" style="fill:none"/><polygon points="235.09 82.06 149.83 138.19 64.2 81.7 63.84 82.06 63.84 160.48 149.83 217.34 235.09 161.21 235.09 82.06" style="fill:#fecf41;opacity:0.800000011920929;isolation:isolate"/><polygon points="235.09 2.88 149.83 59 64.2 2.51 63.84 2.88 63.84 81.29 149.83 138.15 235.09 82.02 235.09 2.88" style="fill:#fecf41;opacity:0.6000000238418579;isolation:isolate"/><polygon points="235.09 161.22 149.83 217.34 64.2 160.85 63.84 161.22 63.84 239.63 149.83 296.49 235.09 240.37 235.09 161.22" style="fill:#fecf41"/><path d="M21.29,192l11.24-15.79c6.46,6,14.12,10.8,23.32,10.8,11,0,18.13-5.86,18.13-16.93,0-10.8-7-16.7-17-16.7-6.26,0-9.52,1.38-16,5.52l-11.14-7.2,3-54.52H94.09v21H54.43L52.66,138.4a28.48,28.48,0,0,1,12-2.47c18.64,0,34.38,10.54,34.38,33.5,0,24-18.54,37.72-39.6,37.72C41.81,207.15,29.77,200.45,21.29,192Z"/><path d="M102.41,150.65c0-36.74,15.42-55.54,38.63-55.54s38.62,18.94,38.62,55.54-15.42,56.5-38.62,56.5S102.41,187.39,102.41,150.65Zm53.6,0c0-29.46-6.56-36.21-15-36.21s-15,6.75-15,36.21,6.56,37.17,15,37.17S156,180.1,156,150.65Z"/><path d="M184.28,131.55c0-17.94,8.18-28.36,19.44-28.36s19.45,10.42,19.45,28.36-8.19,28.64-19.45,28.64S184.28,149.55,184.28,131.55Zm26.64,0c0-12.74-3.25-17.07-7.2-17.07s-7.19,4.33-7.19,17.07,3.24,17.34,7.19,17.34S210.92,144.3,210.92,131.55Zm35.77-28.36h10.13l-42,93H204.64Zm-8.51,64.4c0-18,8.18-28.36,19.45-28.36s19.44,10.41,19.44,28.36-8.18,28.63-19.44,28.63S238.18,185.58,238.18,167.59Zm26.64,0c0-12.75-3.25-17.07-7.19-17.07s-7.2,4.32-7.2,17.07,3.25,17.34,7.2,17.34S264.82,180.33,264.82,167.59Z"/></svg>