<svg id="Layer_1" data-name="Layer 1" xmlns="http://www.w3.org/2000/svg" viewBox="0 0 300 300"><path d="M141.29,210.15a53.23,53.23,0,0,1-33-15.23l14.09-19.65c9.65,7.8,17.43,9.66,25.22,9.66,9.27,0,13-3.33,13-10,0-15.22-47.84-17.24-47.84-49.69,0-18.73,10.57-31.71,28.54-35.61V70.33H162V89.24c11.69,2,20.77,7.79,28.19,16l-15.94,17.43c-6.3-5.56-13-8.53-20-8.53-7.24,0-11.13,2.6-11.13,9.65,0,14.09,47.85,14.83,47.85,48.58,0,18-9.46,32.08-28.93,36.72v19.65H141.29Z"/><path d="M149.63,278.41a128.9,128.9,0,1,0-128.9-128.9A128.9,128.9,0,0,0,149.63,278.41Zm0-16.76a111.69,111.69,0,0,1-71.06-25.39L236.38,78.44a112.15,112.15,0,0,1-86.75,183.21Zm0-224.28a111.74,111.74,0,0,1,75.48,29.2L66.7,225A112.14,112.14,0,0,1,149.63,37.37Z" style="fill:#fecf41"/><rect y="-0.48" width="300" height="300" style="fill:none"/></svg>