<svg id="abf1b6ad-9e25-4842-92c9-223457cdf25c" data-name="Layer 1" xmlns="http://www.w3.org/2000/svg" xmlns:xlink="http://www.w3.org/1999/xlink" viewBox="0 0 384.7 92.4"><defs><linearGradient id="a482b800-3ebc-4585-b300-fe7d72a8d6d4" x1="36.96" y1="5005" x2="60.7" y2="5005" gradientTransform="translate(0 -4966)" gradientUnits="userSpaceOnUse"><stop offset="0" stop-color="#762123"/><stop offset="1" stop-color="#762123" stop-opacity="0"/></linearGradient></defs><path d="M107.5,39.5H93.4V36.2h14.1Z" style="fill:#231f20"/><path d="M37,76.8h0c0,2.9,8.4.7,8.4,3.3V73.6C41.5,73.9,38,74.6,37,76.8Z" style="fill:#666"/><path d="M37,21V4.3c1.7-3.2,8.9-3.2,15.4-3.2H90.2V17.8H52.4C46.9,17.8,38.6,17.4,37,21Zm0,39.2V76.9c1.6-3.6,9.9-3.2,15.4-3.2H90.2V56.9H52.4C45.9,56.9,38.7,56.9,37,60.2Zm0-28V48.9c1.6-3.6,9.9-3.2,15.4-3.2H84V29H52.4C45.9,29,38.7,29,37,32.2Z" style="fill:#c41230"/><path d="M60.7,1.1H52.4c-6.5,0-13.7,0-15.4,3.2V76.9c1.6-3.6,9.9-3.2,15.4-3.2h8.3Z" style="fill:url(#a482b800-3ebc-4585-b300-fe7d72a8d6d4)"/><rect y="53.2" width="37" height="21.8" style="fill:#fff"/><path d="M37,10.8c-2.4.1-4.9.1-7,.1H0V55.7H30c2.4,0,4.8,0,7-.2Z" style="fill:#c1d2e1"/><path d="M6.9,15.3l.8,2.5h2.7L8.2,19.4,9,21.9,6.9,20.3,4.8,21.9l.8-2.5L3.4,17.8H6.1Zm11,2.5H15.2l2.2,1.6-.8,2.5,2.1-1.6,2.1,1.6L20,19.4l2.2-1.6H19.5l-.8-2.5Zm11.7,0H26.9l2.2,1.6-.8,2.5,2.1-1.6,2.1,1.6-.8-2.5,2.2-1.6H31.2l-.8-2.5ZM6.1,27.8H3.4l2.2,1.6-.8,2.5,2.1-1.6L9,31.9l-.8-2.5,2.2-1.6H7.7l-.8-2.5Zm11.8,0H15.2l2.2,1.6-.8,2.5,2.1-1.6,2.1,1.6L20,29.4l2.2-1.6H19.5l-.8-2.5Zm11.7,0H26.9l2.2,1.6-.8,2.5,2.1-1.6,2.1,1.6-.8-2.5,2.2-1.6H31.2l-.8-2.5ZM6.1,37.7H3.4l2.2,1.6-.8,2.5,2.1-1.6L9,41.8l-.8-2.5,2.2-1.6H7.7l-.8-2.5Zm11.8,0H15.2l2.2,1.6-.8,2.5,2.1-1.6,2.1,1.6L20,39.3l2.2-1.6H19.5l-.8-2.5Zm11.7,0H26.9l2.2,1.6-.8,2.5,2.1-1.6,2.1,1.6-.8-2.5,2.2-1.6H31.2l-.8-2.5ZM6.1,47.6H3.4l2.2,1.6-.8,2.5,2.1-1.6L9,51.7l-.8-2.5,2.2-1.6H7.7l-.8-2.5Zm11.8,0H15.2l2.2,1.6-.8,2.5,2.1-1.6,2.1,1.6L20,49.2l2.2-1.6H19.5l-.8-2.5Zm11.7,0H26.9l2.2,1.6-.8,2.5,2.1-1.6,2.1,1.6-.8-2.5,2.2-1.6H31.2l-.8-2.5Z" style="fill:#fff"/><path d="M37,76.9V66.6c-2.4.1-4.9.1-7,.1H0V83.4H30c6.5,0,13.7,0,15.4-3.2,0-2.7-8.4-.5-8.4-3.3Z" style="fill:#e5d3d5"/><path d="M224.2,55.5c-3.3,13.1-14.9,19.1-27.7,19.1-7.9,0-15.7-1.7-21.8-7.1a26.67,26.67,0,0,1-8.8-20.3,29.87,29.87,0,0,1,7.8-20.4c5.5-5.7,13.8-8.4,21.5-8.4,18,0,29,11.6,29,29.4v2.9H187.9c0,5.8,1.9,10,8.3,10,4.8,0,7.4-1.9,8.3-6.6ZM203.1,40.2c0-5.3-1.7-9.3-7.6-9.3-5.5,0-7.5,4.3-7.5,9.3Z" style="fill:#005288"/><path d="M245.7,30.7c1.8-7.5,5.7-12.8,14.1-12.2l2.9.2V37.6a17.52,17.52,0,0,0-4-.5c-3.4,0-6.9.6-8.6,3.7-1.5,2.6-1.5,6.1-1.5,9.3V73.6H227.7v-54h17.8V30.7Z" style="fill:#005288"/><rect x="267.5" y="5" width="20.9" height="9.4" style="fill:#005288"/><rect x="267.5" y="19.6" width="20.9" height="54.1" style="fill:#005288"/><path d="M294.6,20.6c0-5.3.3-10.3,3.9-14.7C302.7.8,309.2,0,315.5,0a117.42,117.42,0,0,1,15.6,1.4L325.2,14a46.17,46.17,0,0,0-5-.2c-3.8,0-5.4,2.5-4.9,7.6h8.4l4.9,13.3H315.5V73.6H294.6Z" style="fill:#005288"/><path d="M151.9,73.6H129.2L105.8,1.1h21.1l14.7,47.3L155,1.1h19.5Z" style="fill:#005288"/><path d="M365,21.4l-8.8,27.8L345.9,21.4H326.4l18.2,47.1c.5,1.5,1.4,3.3,1.4,4.9,0,4.2-6.3,4.1-9.2,4.1a64.83,64.83,0,0,1-7.6-.6v15c4.2.4,7.5.5,10.7.5,12.1,0,17.5-4.2,21.5-15.4l20.1-55.6Z" style="fill:#005288"/><rect x="373.6" y="64.7" width="11.1" height="11.1" style="fill:none"/><g style="isolation:isolate"><path d="M380.5,68.1a3.34,3.34,0,0,1-.9,2.3,3.17,3.17,0,0,1-2.3.9,3.34,3.34,0,0,1-2.3-.9,3.17,3.17,0,0,1-.9-2.3,3.34,3.34,0,0,1,.9-2.3,3.17,3.17,0,0,1,2.3-.9,3.34,3.34,0,0,1,2.3.9A3.17,3.17,0,0,1,380.5,68.1Zm-.3,0a2.79,2.79,0,0,0-.8-2,2.57,2.57,0,0,0-2-.8,2.79,2.79,0,0,0-2,.8,2.57,2.57,0,0,0-.8,2,2.79,2.79,0,0,0,.8,2,2.57,2.57,0,0,0,2,.8,2.79,2.79,0,0,0,2-.8A3.18,3.18,0,0,0,380.2,68.1Zm-4.1-1.9h1.3a1.33,1.33,0,0,1,1,.3,1,1,0,0,1,0,1.4,4.88,4.88,0,0,1-.7.3c.1.1.2.1.3.2s.1.2.3.3a1.38,1.38,0,0,0,.3.4l.4.6h-.6l-.3-.6c-.3-.4-.5-.7-.6-.8s-.4-.1-.7-.1h-.3v1.5h-.4Zm.5.4v1.2h.4a2.51,2.51,0,0,0,1-.1c.1,0,.2-.1.3-.2a.37.37,0,0,0,.1-.3.52.52,0,0,0-.2-.4,1.44,1.44,0,0,0-.9-.2Z" style="fill:#005287"/></g></svg>