<svg id="a620bb62-fef2-46b7-ba93-26a0580bb585" data-name="Layer 1" xmlns="http://www.w3.org/2000/svg" viewBox="0 0 658.18 217.89"><path d="M274.56,17.83c7.13,0,24.07.9,35.66.9h36.84c14.56,0,26.75-.6,31.8-1.49-.6,7.73-1.19,32.09-.6,42.49l-5.64.6A90,90,0,0,0,367.27,38c-3.86-9.21-7.43-12.48-28.82-12.48H323.59c-3,0-3.57,1.49-3.86,5.05-.3,8.92-.9,22.59-.9,40.71v31.8c3.27,0,10.4.29,13.67.29,19.91,0,25-4.75,26.15-21.69H364c-1.19,16.64-1.48,40.12-.3,54.08h-5.34C356,116.49,353,110.55,332.5,110.55c-4.45,0-10.4,0-13.67.29v27.93c0,17.54.6,39.23,1.19,49.33.3,6.24,2.08,7.43,20.8,7.43,20.21,0,26.15-1.49,32.39-9.8,6-7.43,9.51-19.91,12.19-30l4.75,1.19c0,7.13-4.75,40.12-6.24,46.36-7.13-.6-19.61-1.19-45.46-1.19H309c-11.59,0-28.83.89-36.25.89l.59-5.65,12.78-1.48c4.16-.6,5.94-2.68,6.24-9.81.89-11.88,1.19-27.34,1.19-47.54V79.94c0-25-.3-40.12-.6-48.73-.3-4.76-2.38-6.24-7.72-6.84l-10.7-.89Z" style="fill:#0a4a8f"/><path d="M401.14,17.83c7.13,0,24.07.9,35.66.9h36.85c14.56,0,26.74-.6,31.79-1.49-.59,7.73-1.19,32.09-.59,42.49l-5.65.6A90,90,0,0,0,493.85,38C490,28.83,486.42,25.56,465,25.56H450.17c-3,0-3.56,1.49-3.86,5.05-.3,8.92-.89,22.59-.89,40.71v31.8c3.27,0,10.4.29,13.67.29,19.9,0,25-4.75,26.15-21.69h5.34c-1.18,16.64-1.48,40.12-.29,54.08h-5.35c-2.38-19.31-5.35-25.25-25.85-25.25-4.46,0-10.4,0-13.67.29v27.93c0,17.54.59,39.23,1.19,49.33.29,6.24,2.08,7.43,20.8,7.43,20.2,0,26.14-1.49,32.38-9.8,5.95-7.43,9.51-19.91,12.19-30l4.75,1.19c0,7.13-4.75,40.12-6.24,46.36-7.13-.6-19.61-1.19-45.46-1.19H435.61c-11.59,0-28.82.89-36.25.89l.59-5.65,12.78-1.48c4.16-.6,5.94-2.68,6.24-9.81.89-11.88,1.19-27.34,1.19-47.54V79.94c0-25-.3-40.12-.6-48.73-.29-4.76-2.37-6.24-7.72-6.84l-10.7-.89Z" style="fill:#0a4a8f"/><path d="M597.26,14.86c47.55,0,60.92,51.41,60.92,91.23,0,65.37-22,99.84-63,99.84-42.79,0-63.59-38.33-63.59-93.9,0-51.7,20.51-97.17,65.37-97.17Zm-2.67,5.95c-10.7,0-17.83,7.13-24.07,19.91-5.65,12.18-10.1,38.33-10.1,68.34,0,29.71,4.75,57.65,10.69,70.42,7.13,15.16,14.86,19.91,25.26,19.91,10.1,0,17.24-4.45,23.77-20.2,5.65-13.08,9.21-39.82,9.21-68,0-27.93-3.56-54.68-9.5-70.13-5.35-13.07-12.78-20.2-25-20.2Z" style="fill:#0a4a8f"/><path d="M132.69,64.12l6.75-38.61H192.3c36.28,0,52.18-17.71,59.14-25.51,5.07,37.55-34.8,63.07-66.86,63.3C163.7,63.45,132.69,64.12,132.69,64.12Z" style="fill:#0a4a8f"/><path d="M132.69,64.12l-6.75,38.61H73.08c-36.28,0-52.18,17.71-59.14,25.52C8.87,90.7,48.74,65.18,80.8,64.94,101.68,64.79,132.69,64.12,132.69,64.12Z" style="fill:#0a4a8f"/><path d="M119.19,140.9l-6.75,38.61H59.58C23.3,179.51,7.4,197.22.44,205c-5.06-37.54,34.8-63.06,66.86-63.3C88.18,141.57,119.19,140.9,119.19,140.9Z" style="fill:#0a4a8f"/><path d="M119.19,141.53l6.75-38.6H178.8c36.28,0,52.18-17.71,59.14-25.52,5.07,37.55-34.8,63.07-66.86,63.3C150.2,140.86,119.19,141.53,119.19,141.53Z" style="fill:#0a4a8f"/><path d="M105.48,217.89l6.75-38.61h52.86c36.28,0,48.39-16.65,59.14-25.51,5.07,37.54-34.8,63.07-66.86,63.3C136.49,217.22,105.48,217.89,105.48,217.89Z" style="fill:#0a4a8f"/></svg>