<svg width="298" height="160" xmlns="http://www.w3.org/2000/svg" xmlns:xlink="http://www.w3.org/1999/xlink"><defs><path id="a" d="M0 0h370v330H0z"/></defs><g transform="translate(-72 -170)" fill="none" fill-rule="evenodd"><mask id="b" fill="#fff"><use xlink:href="#a"/></mask><g style="mix-blend-mode:multiply" mask="url(#b)" stroke-linecap="round" stroke-linejoin="round"><path stroke="#FFF" stroke-width=".5" d="M211.184 268.728l-81.048-46.797M211.184 569.818v-301.09"/><path stroke="#46CDC8" stroke-width=".5" d="M357.022 240.21l-1.3-.75"/><path stroke="#46CDC8" stroke-width=".5" stroke-dasharray="3.074999928474426,6.149999856948853" d="M350.398 236.384l-93.201-53.808"/><path stroke="#46CDC8" stroke-width=".5" d="M254.536 181.038l-1.3-.75M253.237 266.856l-1.3-.75"/><path stroke="#46CDC8" stroke-width=".5" stroke-dasharray="3.074999928474426,6.149999856948853" d="M246.61 263.029l-93.197-53.812"/><path stroke="#46CDC8" stroke-width=".5" d="M150.749 207.685l-1.3-.75"/><path stroke="#46CDC8" stroke-width=".5" stroke-dasharray="2.987999975681305,5.979000091552734" d="M253.237 644.94V271.345"/><path stroke="#46CDC8" stroke-width=".5" d="M253.237 268.356v-1.5"/><path stroke="#46CDC8" stroke-width=".9" d="M267.485 261.837l81.048-46.794M186.437 308.63l81.048-46.794M267.485 313.284v93.588M349.764 305.875l81.048-46.794M268.716 352.668l81.048-46.794"/><path stroke="#FFF" stroke-width=".75" d="M313.41 212.043l1.299-.75"/><path stroke="#FFF" stroke-width=".75" stroke-dasharray="3.074999928474426,6.149999856948853" d="M320.035 208.217l93.198-53.808"/><path stroke="#FFF" stroke-width=".75" d="M209.624 271.965l1.299-.75"/><path stroke="#FFF" stroke-width=".75" stroke-dasharray="3.074999928474426,6.149999856948853" d="M216.248 268.139l93.2-53.808"/><path stroke="#FFF" stroke-width=".75" d="M312.11 212.793l1.299-.75M313.41 277.926v1.5"/><path stroke="#FFF" stroke-width=".75" stroke-dasharray="3.074999928474426,6.149999856948853" d="M313.41 285.575v107.62"/><path stroke="#FFF" stroke-width=".75" d="M313.41 210.543v1.5M314.986 328.358l1.299-.75"/><path stroke="#FFF" stroke-width=".75" stroke-dasharray="3.074999928474426,6.149999856948853" d="M321.61 324.531l93.199-53.81"/><path stroke="#46CDC8" stroke-width=".75" stroke-dasharray="3.893999934196472,7.7909996509552" d="M279.84 554.443v-370.04"/><path stroke="#46CDC8" stroke-width=".75" d="M279.84 180.509v-1.92M176.053 238.51l-1.662.96"/><path stroke="#46CDC8" stroke-width=".75" stroke-dasharray="3.998999834060669,8.001000165939331" d="M167.46 243.47l-90.065 52"/><path stroke="#46CDC8" stroke-width=".75" d="M73.93 297.47l-1.662.96"/><path stroke="#FFF" stroke-width=".75" d="M236.227 225.699l1.662-.96"/><path stroke="#FFF" stroke-width=".75" stroke-dasharray="3.998999834060669,8.001000165939331" d="M244.819 220.738l90.065-52.002"/><path stroke="#FFF" stroke-width=".75" d="M340.013 231.66v1.924"/><path stroke="#FFF" stroke-width=".75" stroke-dasharray="3.998999834060669,8.001000165939331" d="M340.013 241.58v104.001"/><path stroke="#FFF" stroke-width=".75" d="M341.589 282.092l1.665-.96"/><path stroke="#FFF" stroke-width=".75" stroke-dasharray="3.998999834060669,8.001000165939331" d="M350.182 277.132l90.066-52.002"/><path stroke="#FDCF41" stroke-width="2.25" d="M292.232 247.918l-81.048-46.795M292.232 397.892V247.918M374.51 251.34l-81.047 46.794"/></g></g></svg>