<svg viewBox="0 0 1920 320" xmlns="http://www.w3.org/2000/svg"><mask id="a" height="321.4" maskUnits="userSpaceOnUse" width="1924.5" x="-.8" y="-.5"><path clip-rule="evenodd" d="M0 0h1920v320H0z" fill="#fff" fill-rule="evenodd"/></mask><path clip-rule="evenodd" d="M0 0h1920v320H0z" fill="#1f292e" fill-rule="evenodd"/><g fill="none" mask="url(#a)" opacity=".798" stroke-linecap="round" stroke-linejoin="round"><g stroke="#00c3cd"><path d="M1485.1 20.1L1312 320" stroke-dasharray=".745 4.969"/><path d="M1731 252.5h.4"/><path d="M1736.4 252.5h185.7" stroke-dasharray=".755 5.034"/><path d="M1551.8 320.4l17.8-30.9" stroke-dasharray=".745 4.969"/><path d="M1570.8 287.4l.2-.3h.4"/><path d="M1576.5 287.1h131.6" stroke-dasharray=".761 5.073"/><path d="M1710.6 287.1h.4l.2-.3"/><path d="M1713.7 282.4l85.8-148.7" stroke-dasharray=".757 5.049"/><path d="M1800.8 131.5l.2-.3h.4"/><path d="M1806.4 131.2h113.7" stroke-dasharray=".757 5.049"/><path d="M1922.6 131.2h.4l.2.3"/><path d="M1356.8 0l-74.3 128.7" stroke-dasharray=".745 4.969"/><path d="M1281.2 130.9l-.2.3h-.4"/><path d="M1275.7 131.2h-71.8" stroke-dasharray=".745 4.969"/><path d="M1201.4 131.2h-.4M1 183.2h119.4"/></g><g stroke="#fff"><path d="M1012 320l37.6-65.1" stroke-dasharray=".745 4.969"/><path d="M1050.8 252.8l.2-.3"/><path d="M1631.8 320.4L1759.6 99" stroke-dasharray=".745 4.969"/><path d="M1760.8 96.9l.2-.3m-70 121.2h.4"/><path d="M1696.4 217.8h225.7" stroke-dasharray=".754 5.029"/><path d="M1671 252.5h-.4"/><path d="M1665.6 252.5h-211.7" stroke-dasharray=".755 5.034"/><path d="M1451.4 252.5h-.4l-.2-.3"/><path d="M1448.3 247.8l-95.9-166.1" stroke-dasharray=".745 4.969"/><path d="M1351.2 79.6l-.2-.3h-.4"/><path d="M1345.7 79.2h-151.8" stroke-dasharray=".745 4.969"/><path d="M1191.4 79.2h-.4l-.2-.3"/><path d="M1188.3 74.6l-43-74.6m86.7 320l47.6-82.4" stroke-dasharray=".745 4.969"/><path d="M1280.8 235.5l.2-.3"/><path d="M146.4 289.2H.1" stroke-dasharray=".755 5.034"/><path d="M-.3 64.1L36.7 0m1008.6 0l24.3 42.1" stroke-dasharray=".745 4.969"/><path d="M1070.8 44.3l.2.3-.2.3"/><path d="M1068.3 49.2L911.8 320.4M1656.8 0l-130.4 225.8" stroke-dasharray=".745 4.969"/><path d="M1511.2 252.1l-.2.3"/></g><path d="M.2 115.2l.8-1.3h1.5" stroke="#00c3cd"/><path d="M.4 303.9h14.2" stroke="#00c3cd" stroke-dasharray="2.966 9.888"/><path d="M19.5 303.9H21l.8-1.3" stroke="#00c3cd"/><path d="M26.9 293.7l90.8-157.3" stroke="#00c3cd" stroke-dasharray="3.078 10.261"/><path d="M891.8 8.7L891 10l.8 1.3" stroke="#00c3cd"/><path d="M896.9 20.1l50.8 88" stroke="#00c3cd" stroke-dasharray="3.079 10.263"/><path d="M950.3 112.6l.8 1.3h1.5" stroke="#00c3cd"/><path d="M962.4 113.9h162.2" stroke="#00c3cd" stroke-dasharray="2.966 9.888"/><path d="M1129.5 113.9h1.5l.8 1.3" stroke="#00c3cd"/><path d="M1136.7 123.8l81.1 140.4" stroke="#00c3cd" stroke-dasharray="2.967 9.888"/><path d="M1220.3 268.5l.8 1.3" stroke="#00c3cd"/><path d="M1921 200.5h-720l-69.2 119.9M965.3 0l35.8 61.9L861 304.4M55.2 0L81 44.6l-30 52H-.3" stroke="#ffcd32"/></g></svg>