<svg xmlns="http://www.w3.org/2000/svg" x="0" y="0" viewBox="0 0 1920 730" xml:space="preserve" enable-background="new 0 0 1920 730"><style>.st5,.st6{fill:none;stroke-linecap:round;stroke-linejoin:round}.st5{stroke:#00c3cd}.st6{stroke-dasharray:.745,4.969}.st6,.st7,.st9{stroke:#00c3cd}.st7{fill:none;stroke-linecap:round;stroke-linejoin:round;stroke-dasharray:.755,5.035}.st9{stroke-dasharray:.757,5.049}.st10,.st12,.st13,.st14,.st19,.st20,.st22,.st9{fill:none;stroke-linecap:round;stroke-linejoin:round}.st10{stroke-dasharray:.752,5.011;stroke:#00c3cd}.st12,.st13,.st14,.st19,.st20,.st22{stroke:#fff}.st13,.st14,.st19,.st20,.st22{stroke-dasharray:.745,4.969}.st14,.st19,.st20,.st22{stroke-dasharray:.757,5.049}.st19,.st20,.st22{stroke:#00c3cd;stroke-dasharray:2.967,9.888}.st20,.st22{stroke-dasharray:3.078,10.261}.st22{stroke:#fff;stroke-dasharray:2.967,9.89}.st25{stroke:#fff;stroke-dasharray:3.01,10.034}.st25,.st27,.st28{fill:none;stroke-linecap:round;stroke-linejoin:round}.st27{stroke-dasharray:2.967,9.889;stroke:#fff}.st28{stroke:#ffcd32}</style><path id="a_1_" d="M0 .1h1920v730H0V.1z" fill-rule="evenodd" clip-rule="evenodd" fill="#0d171c"/><defs><filter id="Adobe_OpacityMaskFilter" filterUnits="userSpaceOnUse" x="-.6" y="-3.2" width="1922.8" height="736.4"><feColorMatrix values="1 0 0 0 0 0 1 0 0 0 0 0 1 0 0 0 0 0 1 0"/></filter></defs><mask maskUnits="userSpaceOnUse" x="-.6" y="-3.2" width="1922.8" height="736.4" id="b_1_"><g filter="url(#Adobe_OpacityMaskFilter)"><path id="a_2_" d="M0 .1h1920v730H0V.1z" fill-rule="evenodd" clip-rule="evenodd" fill="#fff"/></g></mask><g opacity=".703" mask="url(#b_1_)"><path d="M1842.4 445.6l78.6-136.1" fill="none" stroke="#00c3cd" stroke-linecap="round" stroke-linejoin="round" stroke-dasharray=".751,5.007"/><path class="st5" d="M1841 448.1l.2-.3"/><path class="st6" d="M910.6 565l95.9 166.1"/><path class="st7" d="M901-2.3l-21.3 36.9"/><path class="st5" d="M1181.4 378.8h-.4"/><path class="st6" d="M1378.1 378.8h-191.8"/><path class="st5" d="M1381.2 378.5l-.2.3h-.4"/><path d="M1601.2-2.7l-217.5 376.8" fill="none" stroke="#00c3cd" stroke-linecap="round" stroke-linejoin="round" stroke-dasharray=".754,5.024"/><path class="st5" d="M1251.4 465.4h-.4"/><path class="st9" d="M1428.1 465.4h-171.7M172.9 511.6H1.2"/><path class="st5" d="M1431.2 465.1l-.2.3h-.4"/><path class="st10" d="M1599.6 173.4l-165.9 287.3M195.1-2.7L29.2 284.6M154.6 549.8L49 732.8"/><path class="st5" d="M1601 170.9l-.2.3M921.2 102l-.2-.3"/><path class="st7" d="M1029.6 289.7L923.7 106.3"/><path class="st5" d="M1031.4 292.2h-.4l-.2-.3"/><path d="M1128.1 292.2h-91.6" fill="none" stroke="#00c3cd" stroke-linecap="round" stroke-linejoin="round" stroke-dasharray=".767,5.116"/><path class="st5" d="M1131.2 292.5l-.2-.3h-.4"/><path class="st6" d="M1329.6 636.1l-195.9-339.3"/><path class="st5" d="M1331 638.6l-.2-.3"/><g><path class="st5" d="M1271 240.2L1410.6-1.6m511.1 171.2L1861 274.9M1560.8-2.7l90.2 156.3h60l70 121.2h140m-240 .1l-140 242.5 40 69.3m-110-259.9L1371 500h-360L831 188.3l80-138.6m130 190.5L971 119"/></g><g><path class="st12" d="M1380.8 205.9l.2-.3"/><path class="st13" d="M1342.4 238.4l35.9-62.2"/><path class="st12" d="M1340.6 241.9h.4l.2-.3"/><path class="st14" d="M1163.9 240.9h171.7"/><path class="st12" d="M1160.8 240.5l.2.3h.4"/><path class="st13" d="M1022.4.8l135.9 235.4"/><path class="st12" d="M1660.6 205.6h.4"/><path class="st13" d="M1343.9 205.6h311.8"/><path class="st12" d="M1340.8 205.3l.2.3h.4"/><path class="st14" d="M1252.4 52.2l85.8 148.7"/><path class="st12" d="M1251.2 49.4l-.2.3.2.3"/><path class="st14" d="M1281-2.3L1253.7 45"/><path class="st12" d="M1710.6 500h.4"/><path class="st13" d="M1473.9 500h231.8M1.6 309.3h71.8M.3 169.6h227.8"/><path class="st12" d="M1470.8 500.4l.2-.3h.4"/><path class="st13" d="M1372.4 670.8l95.9-166.1"/><path class="st12" d="M1371 673.2l.2-.3M861.4 344.1h-.4l-.2.3"/><path d="M958.1 344.1h-91.6" fill="none" stroke="#fff" stroke-linecap="round" stroke-linejoin="round" stroke-dasharray=".767,5.116"/><path class="st12" d="M961.2 344.5l-.2-.3h-.4"/><path class="st13" d="M1139.6 653.4L963.7 348.8"/><path class="st12" d="M1142.2 656.8h-.7l-.4-.6"/><path class="st13" d="M1145.6 656.9h476.2"/></g><g><path class="st5" d="M1751.8 117.7l-.8 1.3"/><path d="M1821.2-2.7l-64.6 111.9" fill="none" stroke="#00c3cd" stroke-linecap="round" stroke-linejoin="round" stroke-dasharray="2.936,9.788"/><path class="st5" d="M881.8 206.9l-.8-1.3"/><path d="M947.8 321.3l-61.2-105.9" fill="none" stroke="#00c3cd" stroke-linecap="round" stroke-linejoin="round" stroke-dasharray="2.936,9.786"/><path class="st5" d="M951 326.8l-.8-1.3m509.3-154.6h1.5"/><path d="M1167.5 170.9h281.9" fill="none" stroke="#00c3cd" stroke-linecap="round" stroke-linejoin="round" stroke-dasharray="3.01,10.032"/><path class="st5" d="M1160.2 169.6l.8 1.3h1.5"/><path class="st19" d="M1074.2 20.6l81.1 140.4"/><path class="st5" d="M1071.8 13.7l-.8 1.3.8 1.3"/><path class="st19" d="M1080.6-1.6l-3.9 6.8"/><path class="st5" d="M1109.5 326.8h1.5"/><path class="st20" d="M957.6 326.8h141.6M.8 460.7h141.6"/><path class="st5" d="M951 326.8h1.5"/></g><g><path d="M1594.2 505.6l131.2 227.2" fill="none" stroke="#fff" stroke-linecap="round" stroke-linejoin="round" stroke-dasharray="2.936,9.788"/><path class="st12" d="M1591.8 498.7l-.8 1.3.8 1.3"/><path class="st22" d="M1857.8 37.9l-261.1 452.2"/><path class="st12" d="M1859.5 32.4h1.5l-.8 1.3"/><path d="M1627.6 32.4h221.6" fill="none" stroke="#fff" stroke-linecap="round" stroke-linejoin="round" stroke-dasharray="3.078,10.26"/><path class="st12" d="M1620.2 31.1l.8 1.3h1.5"/><path d="M1601.2-2.7l14.1 25.2" fill="none" stroke="#fff" stroke-linecap="round" stroke-linejoin="round" stroke-dasharray="2.967,9.888"/><path class="st25" d="M877.7 130.6l-77-133.3"/><path class="st12" d="M881 136.3l-.8-1.3"/><path d="M1044.2 349.8l220.1 381.3" fill="none" stroke="#fff" stroke-linecap="round" stroke-linejoin="round" stroke-dasharray="2.994,9.979"/><path class="st12" d="M1042.5 344.1h-1.5l.8 1.3"/><path class="st25" d="M1334.5 344.1h-282"/><path class="st12" d="M1341.8 342.8l-.8 1.3h-1.5"/><path class="st27" d="M1517.8 37.9l-171.1 296.3"/><path class="st12" d="M1520.2 31.1l.8 1.3-.8 1.3"/><path class="st27" d="M1500.8-2.7l14.5 25.2"/><path class="st22" d="M261 1.2L-.1 453.4"/></g><g><path class="st28" d="M1203 120.6L1133-.6m658 708.5l130-225.2M1.6 731.1L90 578M1281 621.3l50-86.6h560M-.1 149.6l50-86.6h220m1651.8 106.6l-280.7 1.3-140 242.5H941M1731 119l-20 34.6h-160l-70-121.2h-140l-140 242.5h-120l-70-121.2H871L780.8-2.7"/></g></g><path class="st20" d="M-1.4 671.3h127.7l21.2-36.7h99l49.4-85.8"/><path class="st5" d="M0 495.7L40 565"/><path class="st28" d="M-1.4 232.8L87 385.9M0 654.8h177.3l43.4 75.2"/></svg>