<?xml version="1.0" encoding="utf-8"?>
<!-- Generator: Adobe Illustrator 24.0.3, SVG Export Plug-In . SVG Version: 6.00 Build 0)  -->
<svg version="1.1" id="Layer_1" xmlns="http://www.w3.org/2000/svg" xmlns:xlink="http://www.w3.org/1999/xlink" x="0px" y="0px"
	 viewBox="0 0 1920 730" style="enable-background:new 0 0 1920 730;" xml:space="preserve">
<style type="text/css">
	.st0{fill-rule:evenodd;clip-rule:evenodd;fill:#0D171C;}
	.st1{filter:url(#Adobe_OpacityMaskFilter);}
	.st2{fill-rule:evenodd;clip-rule:evenodd;fill:#FFFFFF;}
	.st3{opacity:0.703;mask:url(#b_2_);}
	.st4{fill:none;stroke:#00C3CD;stroke-linecap:round;stroke-linejoin:round;stroke-dasharray:0.745,4.969;}
	.st5{fill:none;stroke:#00C3CD;stroke-linecap:round;stroke-linejoin:round;stroke-dasharray:0.755,5.035;}
	.st6{fill:none;stroke:#00C3CD;stroke-linecap:round;stroke-linejoin:round;}
	.st7{fill:none;stroke:#00C3CD;stroke-linecap:round;stroke-linejoin:round;stroke-dasharray:0.754,5.024;}
	.st8{fill:none;stroke:#00C3CD;stroke-linecap:round;stroke-linejoin:round;stroke-dasharray:0.757,5.049;}
	.st9{fill:none;stroke:#00C3CD;stroke-linecap:round;stroke-linejoin:round;stroke-dasharray:0.752,5.011;}
	.st10{fill:none;stroke:#00C3CD;stroke-linecap:round;stroke-linejoin:round;stroke-dasharray:0.767,5.116;}
	.st11{fill:none;stroke:#FFFFFF;stroke-linecap:round;stroke-linejoin:round;}
	.st12{fill:none;stroke:#FFFFFF;stroke-linecap:round;stroke-linejoin:round;stroke-dasharray:0.745,4.969;}
	.st13{fill:none;stroke:#FFFFFF;stroke-linecap:round;stroke-linejoin:round;stroke-dasharray:0.757,5.049;}
	.st14{fill:none;stroke:#FFFFFF;stroke-linecap:round;stroke-linejoin:round;stroke-dasharray:0.767,5.116;}
	.st15{fill:none;stroke:#00C3CD;stroke-linecap:round;stroke-linejoin:round;stroke-dasharray:2.936,9.788;}
	.st16{fill:none;stroke:#00C3CD;stroke-linecap:round;stroke-linejoin:round;stroke-dasharray:2.936,9.786;}
	.st17{fill:none;stroke:#00C3CD;stroke-linecap:round;stroke-linejoin:round;stroke-dasharray:3.01,10.032;}
	.st18{fill:none;stroke:#00C3CD;stroke-linecap:round;stroke-linejoin:round;stroke-dasharray:2.967,9.888;}
	.st19{fill:none;stroke:#00C3CD;stroke-linecap:round;stroke-linejoin:round;stroke-dasharray:3.078,10.261;}
	.st20{fill:none;stroke:#FFFFFF;stroke-linecap:round;stroke-linejoin:round;stroke-dasharray:2.936,9.788;}
	.st21{fill:none;stroke:#FFFFFF;stroke-linecap:round;stroke-linejoin:round;stroke-dasharray:2.967,9.89;}
	.st22{fill:none;stroke:#FFFFFF;stroke-linecap:round;stroke-linejoin:round;stroke-dasharray:3.078,10.26;}
	.st23{fill:none;stroke:#FFFFFF;stroke-linecap:round;stroke-linejoin:round;stroke-dasharray:2.967,9.888;}
	.st24{fill:none;stroke:#FFFFFF;stroke-linecap:round;stroke-linejoin:round;stroke-dasharray:3.01,10.034;}
	.st25{fill:none;stroke:#FFFFFF;stroke-linecap:round;stroke-linejoin:round;stroke-dasharray:2.994,9.979;}
	.st26{fill:none;stroke:#FFFFFF;stroke-linecap:round;stroke-linejoin:round;stroke-dasharray:2.967,9.889;}
	.st27{fill:none;stroke:#FFCD32;stroke-linecap:round;stroke-linejoin:round;}
</style>
<path id="a_1_" class="st0" d="M0,0.1h1920v730H0V0.1z"/>
<defs>
	<filter id="Adobe_OpacityMaskFilter" filterUnits="userSpaceOnUse" x="-0.6" y="-3.2" width="1924.4" height="736.5">
		<feColorMatrix  type="matrix" values="1 0 0 0 0  0 1 0 0 0  0 0 1 0 0  0 0 0 1 0"/>
	</filter>
</defs>
<mask maskUnits="userSpaceOnUse" x="-0.6" y="-3.2" width="1924.4" height="736.5" id="b_2_">
	<g class="st1">
		<path id="a_3_" class="st2" d="M0,0h1920v730H0V0z"/>
	</g>
</mask>
<g class="st3">
	<path class="st4" d="M1146.5-1l-95.9,166.1"/>
	<path class="st5" d="M1019.7,695.5l21.3,36.9"/>
	<path class="st6" d="M1321,351.3h0.4"/>
	<path class="st4" d="M1326.3,351.3h191.8"/>
	<path class="st6" d="M1520.6,351.3h0.4l0.2,0.3"/>
	<path class="st7" d="M1523.7,356l217.5,376.8"/>
	<path class="st6" d="M1391,264.7h0.4"/>
	<path class="st8" d="M1396.4,264.7h171.7 M1.2,218.5h171.7"/>
	<path class="st6" d="M1570.6,264.7h0.4l0.2,0.3"/>
	<path class="st9" d="M1573.7,269.4l165.9,287.3 M29.2,445.5l165.9,287.3 M49-2.7l105.6,183"/>
	<path class="st6" d="M1740.8,558.9l0.2,0.3 M1061,628.4l0.2-0.3"/>
	<path class="st5" d="M1063.7,623.8l105.9-183.4"/>
	<path class="st6" d="M1170.8,438.2l0.2-0.3h0.4"/>
	<path class="st10" d="M1176.5,437.9h91.6"/>
	<path class="st6" d="M1270.6,437.9h0.4l0.2-0.3"/>
	<path class="st4" d="M1273.7,433.3L1469.6,94"/>
	<path class="st6" d="M1470.8,91.8l0.2-0.3"/>
	<g>
		<path class="st6" d="M1550.6,731.7L1411,489.9 M1921,455.3l-70,121.2h-60l-90.2,156.3 M1721,143.4l-40,69.3l140,242.5 M1051,680.4
			l-80-138.6l180-311.7h360l100,173.2 M1111,611.1l70-121.2"/>
	</g>
	<g>
		<path class="st11" d="M1521,524.5l-0.2-0.3"/>
		<path class="st12" d="M1518.3,553.9l-35.9-62.2"/>
		<path class="st11" d="M1481.2,488.5l-0.2-0.3h-0.4"/>
		<path class="st13" d="M1475.6,489.2h-171.7"/>
		<path class="st11" d="M1301.4,489.3h-0.4l-0.2,0.3"/>
		<path class="st12" d="M1298.3,493.9l-135.9,235.4"/>
		<path class="st11" d="M1801,524.5h-0.4"/>
		<path class="st12" d="M1795.7,524.5h-311.8"/>
		<path class="st11" d="M1481.4,524.5h-0.4l-0.2,0.3"/>
		<path class="st13" d="M1478.2,529.2l-85.8,148.7"/>
		<path class="st11" d="M1391.2,680.1l-0.2,0.3l0.2,0.3"/>
		<path class="st13" d="M1393.7,685.1l27.3,47.3"/>
		<path class="st11" d="M1851,230.1h-0.4"/>
		<path class="st12" d="M1845.7,230.1h-231.8 M73.4,420.8H1.6 M228.1,560.5H0.3"/>
		<path class="st11" d="M1611.4,230h-0.4l-0.2-0.3"/>
		<path class="st12" d="M1608.3,225.4l-95.9-166.1"/>
		<path class="st11" d="M1511.2,57.2l-0.2-0.3 M1000.8,385.7l0.2,0.3h0.4"/>
		<path class="st14" d="M1006.5,386h91.6"/>
		<path class="st11" d="M1100.6,385.9h0.4l0.2-0.3"/>
		<path class="st12" d="M1103.7,381.3l175.9-304.6"/>
		<path class="st11" d="M1281.1,73.9l0.4-0.6h0.7"/>
		<path class="st12" d="M1761.8,73.2h-476.2"/>
	</g>
	<g>
		<path class="st6" d="M1891,611.1l0.8,1.3"/>
		<path class="st15" d="M1896.6,620.9l26.7,46.2"/>
		<path class="st6" d="M1021,524.5l0.8-1.3"/>
		<path class="st16" d="M1026.6,514.7l61.2-105.9"/>
		<path class="st6" d="M1090.2,404.6l0.8-1.3 M1601,559.2h-1.5"/>
		<path class="st17" d="M1589.4,559.2h-281.9"/>
		<path class="st6" d="M1302.5,559.2h-1.5l-0.8,1.3"/>
		<path class="st18" d="M1295.3,569.1l-81.1,140.4"/>
		<path class="st6" d="M1211.8,713.8l-0.8,1.3l0.8,1.3"/>
		<path class="st18" d="M1216.7,724.9l3.9,6.8"/>
		<path class="st6" d="M1251,403.3h-1.5"/>
		<path class="st19" d="M1239.2,403.3h-141.6 M142.4,269.4H0.8"/>
		<path class="st6" d="M1092.5,403.3h-1.5"/>
	</g>
	<g>
		<path class="st20" d="M1865.4-2.7l-131.2,227.2"/>
		<path class="st11" d="M1731.8,228.8l-0.8,1.3l0.8,1.3"/>
		<path class="st21" d="M1736.7,240l184.1,318.9"/>
		<path class="st22" d="M1923.3,697.7h-155.7"/>
		<path class="st11" d="M1762.5,697.7h-1.5l-0.8,1.3"/>
		<path class="st23" d="M1755.3,707.6l-14.1,25.2"/>
		<path class="st24" d="M940.7,732.8l77-133.3"/>
		<path class="st11" d="M1020.2,595.1l0.8-1.3"/>
		<path class="st25" d="M1404.3-1l-220.1,381.3"/>
		<path class="st11" d="M1181.8,384.7l-0.8,1.3h1.5"/>
		<path class="st24" d="M1192.5,386h282"/>
		<path class="st11" d="M1479.5,386h1.5l0.8,1.3"/>
		<path class="st26" d="M1486.7,395.9l171.1,296.3"/>
		<path class="st11" d="M1660.2,696.4l0.8,1.3l-0.8,1.3"/>
		<path class="st26" d="M1655.3,707.6l-14.5,25.2"/>
		<path class="st21" d="M-0.1,276.7L261,728.9"/>
	</g>
	<g>
		<path class="st27" d="M1273,730.7l70-121.2 M90,152.1L1.6-1 M1921,195.4h-450l-50-86.6 M269.9,667.1h-220l-50-86.6 M1081,316.7
			h560l140,242.5l139.8-0.3 M920.8,732.8l90.2-156.4h140l70-121.2h120l140,242.5h140l70-121.2h160l20,34.6"/>
	</g>
</g>
<path class="st19" d="M295.9,181.3l-49.4-85.8h-99l-21.2-36.7H-1.4"/>
<path class="st6" d="M40,165.1L0,234.4"/>
<path class="st27" d="M87,344.2L-1.4,497.3 M220.7,0.1l-43.4,75.2H0"/>
</svg>
