<svg id="a6d24807-67cf-4842-8ff5-f6fd781c9a8c" data-name="Layer 2" xmlns="http://www.w3.org/2000/svg" viewBox="0 0 1920 730"><line x1="1589.66" y1="501.3" x2="1589.51" y2="501.03" style="fill:none;stroke:#22beca;stroke-linecap:round;stroke-linejoin:round;stroke-width:1.62056723576397px"/><line x1="1587.47" y1="497.49" x2="1520.49" y2="381.08" style="fill:none;stroke:#22beca;stroke-linecap:round;stroke-linejoin:round;stroke-width:1.62056723576397px;stroke-dasharray:0.613257646560669,4.088384628295898"/><polyline points="1519.47 379.31 1519.32 379.04 1519.62 379.04" style="fill:none;stroke:#22beca;stroke-linecap:round;stroke-linejoin:round;stroke-width:1.62056723576397px"/><line x1="1523.71" y1="379.04" x2="1662.82" y2="379.04" style="fill:none;stroke:#22beca;stroke-linecap:round;stroke-linejoin:round;stroke-width:1.62056723576397px;stroke-dasharray:0.6137042045593262,4.0913615226745605"/><line x1="1664.87" y1="379.04" x2="1665.17" y2="379.04" style="fill:none;stroke:#22beca;stroke-linecap:round;stroke-linejoin:round;stroke-width:1.62056723576397px"/><line x1="1746.2" y1="126.41" x2="1746.05" y2="126.68" style="fill:none;stroke:#22beca;stroke-linecap:round;stroke-linejoin:round;stroke-width:1.62056723576397px"/><line x1="1744.03" y1="130.16" x2="1601.51" y2="377.04" style="fill:none;stroke:#22beca;stroke-linecap:round;stroke-linejoin:round;stroke-width:1.62056723576397px;stroke-dasharray:0.6039431095123291,4.026288032531738"/><line x1="1600.5" y1="378.78" x2="1600.35" y2="379.04" style="fill:none;stroke:#22beca;stroke-linecap:round;stroke-linejoin:round;stroke-width:1.62056723576397px"/><line x1="1920.11" y1="631.67" x2="1919.8" y2="631.67" style="fill:none;stroke:#22beca;stroke-linecap:round;stroke-linejoin:round;stroke-width:1.62056723576397px"/><line x1="1915.7" y1="631.67" x2="1780.96" y2="631.67" style="fill:none;stroke:#22beca;stroke-linecap:round;stroke-linejoin:round;stroke-width:1.62056723576397px;stroke-dasharray:0.6152436137199402,4.101624488830566"/><polyline points="1778.91 631.67 1778.61 631.67 1778.46 631.93" style="fill:none;stroke:#22beca;stroke-linecap:round;stroke-linejoin:round;stroke-width:1.62056723576397px"/><line x1="1776.4" y1="635.5" x2="1722.95" y2="727.96" style="fill:none;stroke:#22beca;stroke-linecap:round;stroke-linejoin:round;stroke-width:1.62056723576397px;stroke-dasharray:0.6173234581947327,4.115490436553955"/><line x1="1721.92" y1="729.74" x2="1721.77" y2="730" style="fill:none;stroke:#22beca;stroke-linecap:round;stroke-linejoin:round;stroke-width:1.62056723576397px"/><line x1="1696.85" y1="126.41" x2="1697.15" y2="126.41" style="fill:none;stroke:#22beca;stroke-linecap:round;stroke-linejoin:round;stroke-width:1.62056723576397px"/><line x1="1701.21" y1="126.41" x2="1825.09" y2="126.41" style="fill:none;stroke:#22beca;stroke-linecap:round;stroke-linejoin:round;stroke-width:1.62056723576397px;stroke-dasharray:0.6082606911659241,4.055071830749512"/><polyline points="1827.12 126.41 1827.42 126.41 1827.57 126.68" style="fill:none;stroke:#22beca;stroke-linecap:round;stroke-linejoin:round;stroke-width:1.62056723576397px"/><line x1="1829.62" y1="130.22" x2="1899.17" y2="250.69" style="fill:none;stroke:#22beca;stroke-linecap:round;stroke-linejoin:round;stroke-width:1.62056723576397px;stroke-dasharray:0.6137173175811768,4.09144926071167"/><polyline points="1900.19 252.47 1900.35 252.73 1900.65 252.73" style="fill:none;stroke:#22beca;stroke-linecap:round;stroke-linejoin:round;stroke-width:1.62056723576397px"/><line x1="1904.95" y1="252.73" x2="1917.65" y2="252.73" style="fill:none;stroke:#22beca;stroke-linecap:round;stroke-linejoin:round;stroke-width:1.62056723576397px;stroke-dasharray:0.6456872820854187,4.304582118988037"/><line x1="1919.8" y1="252.73" x2="1920.11" y2="252.73" style="fill:none;stroke:#22beca;stroke-linecap:round;stroke-linejoin:round;stroke-width:1.62056723576397px"/><line x1="1446.39" y1="701.85" x2="1430.14" y2="730" style="fill:none;stroke:#22beca;stroke-linecap:round;stroke-linejoin:round;stroke-width:1.62056723576397px"/><polyline points="1688.11 308.87 1543.63 308.87 1486.91 210.62 1373.47 210.62" style="fill:none;stroke:#22beca;stroke-linecap:round;stroke-linejoin:round;stroke-width:1.62056723576397px"/><polyline points="960.22 701.85 1559.83 701.85 1673.27 505.36 1616.55 407.11" style="fill:none;stroke:#22beca;stroke-linecap:round;stroke-linejoin:round;stroke-width:1.62056723576397px"/><polyline points="1405.88 519.39 1130.04 519.39 1025.05 701.85" style="fill:none;stroke:#22beca;stroke-linecap:round;stroke-linejoin:round;stroke-width:1.62056723576397px"/><polyline points="1673.27 0.1 1543.63 224.66 1920.11 224.66" style="fill:none;stroke:#22beca;stroke-linecap:round;stroke-linejoin:round;stroke-width:1.62056723576397px"/><polyline points="1920.11 603.6 1903.79 603.6 1847.07 505.36 1738.1 505.36 1681.38 407.11 1786.71 224.66" style="fill:none;stroke:#22beca;stroke-linecap:round;stroke-linejoin:round;stroke-width:1.62056723576397px"/><line x1="1819.12" y1="336.94" x2="1819.28" y2="336.68" style="fill:none;stroke:#fff;stroke-linecap:round;stroke-linejoin:round;stroke-width:1.62056723576397px"/><line x1="1821.32" y1="333.14" x2="1918.93" y2="164.2" style="fill:none;stroke:#fff;stroke-linecap:round;stroke-linejoin:round;stroke-width:1.62056723576397px;stroke-dasharray:0.6122965812683105,4.081977367401123"/><line x1="1919.96" y1="162.43" x2="1920.11" y2="162.17" style="fill:none;stroke:#fff;stroke-linecap:round;stroke-linejoin:round;stroke-width:1.62056723576397px"/><line x1="1315.03" y1="255.34" x2="1314.88" y2="255.6" style="fill:none;stroke:#fff;stroke-linecap:round;stroke-linejoin:round;stroke-width:1.62056723576397px"/><line x1="1312.87" y1="259.09" x2="1283.78" y2="309.47" style="fill:none;stroke:#fff;stroke-linecap:round;stroke-linejoin:round;stroke-width:1.62056723576397px;stroke-dasharray:0.6039122939109802,4.026082515716553"/><line x1="1282.77" y1="311.21" x2="1282.62" y2="311.48" style="fill:none;stroke:#fff;stroke-linecap:round;stroke-linejoin:round;stroke-width:1.62056723576397px"/><line x1="1786.71" y1="0.1" x2="1786.56" y2="0.36" style="fill:none;stroke:#fff;stroke-linecap:round;stroke-linejoin:round;stroke-width:1.62056723576397px"/><line x1="1784.55" y1="3.85" x2="1739.25" y2="82.3" style="fill:none;stroke:#fff;stroke-linecap:round;stroke-linejoin:round;stroke-width:1.62056723576397px;stroke-dasharray:0.6039274334907532,4.026183128356934"/><polyline points="1738.25 84.05 1738.1 84.31 1737.79 84.31" style="fill:none;stroke:#fff;stroke-linecap:round;stroke-linejoin:round;stroke-width:1.62056723576397px"/><line x1="1733.7" y1="84.31" x2="1594.59" y2="84.31" style="fill:none;stroke:#fff;stroke-linecap:round;stroke-linejoin:round;stroke-width:1.62056723576397px;stroke-dasharray:0.6137042045593262,4.0913615226745605"/><polyline points="1592.55 84.31 1592.24 84.31 1592.09 84.57" style="fill:none;stroke:#fff;stroke-linecap:round;stroke-linejoin:round;stroke-width:1.62056723576397px"/><line x1="1590.08" y1="88.06" x2="1512.37" y2="222.65" style="fill:none;stroke:#fff;stroke-linecap:round;stroke-linejoin:round;stroke-width:1.62056723576397px;stroke-dasharray:0.6039368510246277,4.026246070861816"/><line x1="1511.37" y1="224.4" x2="1511.22" y2="224.66" style="fill:none;stroke:#fff;stroke-linecap:round;stroke-linejoin:round;stroke-width:1.62056723576397px"/><line x1="1250.21" y1="311.48" x2="1250.51" y2="311.48" style="fill:none;stroke:#fff;stroke-linecap:round;stroke-linejoin:round;stroke-width:1.62056723576397px"/><line x1="1254.54" y1="311.48" x2="1442.36" y2="311.48" style="fill:none;stroke:#fff;stroke-linecap:round;stroke-linejoin:round;stroke-width:1.62056723576397px;stroke-dasharray:0.6039263010025024,4.026175498962402"/><polyline points="1444.37 311.48 1444.67 311.48 1444.52 311.74" style="fill:none;stroke:#fff;stroke-linecap:round;stroke-linejoin:round;stroke-width:1.62056723576397px"/><line x1="1442.49" y1="315.27" x2="1293.61" y2="573.5" style="fill:none;stroke:#fff;stroke-linecap:round;stroke-linejoin:round;stroke-width:1.62056723576397px;stroke-dasharray:0.6116390228271484,4.077593803405762"/><polyline points="1292.59 575.27 1292.44 575.53 1292.13 575.53" style="fill:none;stroke:#fff;stroke-linecap:round;stroke-linejoin:round;stroke-width:1.62056723576397px"/><line x1="1288.11" y1="575.53" x2="970.64" y2="575.53" style="fill:none;stroke:#fff;stroke-linecap:round;stroke-linejoin:round;stroke-width:1.62056723576397px;stroke-dasharray:0.6039310097694397,4.026206970214844"/><line x1="968.63" y1="575.53" x2="968.33" y2="575.53" style="fill:none;stroke:#fff;stroke-linecap:round;stroke-linejoin:round;stroke-width:1.62056723576397px"/><line x1="1149.72" y1="543.12" x2="1149.11" y2="544.17" style="fill:none;stroke:#22beca;stroke-linecap:round;stroke-linejoin:round;stroke-width:1.62056723576397px"/><line x1="1144.93" y1="551.35" x2="1076.36" y2="669.13" style="fill:none;stroke:#22beca;stroke-linecap:round;stroke-linejoin:round;stroke-width:1.62056723576397px;stroke-dasharray:2.492969274520874,8.309898376464844"/><polyline points="1074.27 672.73 1073.66 673.78 1072.45 673.78" style="fill:none;stroke:#22beca;stroke-linecap:round;stroke-linejoin:round;stroke-width:1.62056723576397px"/><line x1="1065.05" y1="673.78" x2="1020.66" y2="673.78" style="fill:none;stroke:#22beca;stroke-linecap:round;stroke-linejoin:round;stroke-width:1.62056723576397px;stroke-dasharray:2.2193374633789062,7.397791862487793"/><line x1="1016.96" y1="673.78" x2="1015.75" y2="673.78" style="fill:none;stroke:#22beca;stroke-linecap:round;stroke-linejoin:round;stroke-width:1.62056723576397px"/><line x1="1138.49" y1="617.64" x2="1139.7" y2="617.64" style="fill:none;stroke:#22beca;stroke-linecap:round;stroke-linejoin:round;stroke-width:1.62056723576397px"/><line x1="1147.69" y1="617.64" x2="1309.92" y2="617.64" style="fill:none;stroke:#22beca;stroke-linecap:round;stroke-linejoin:round;stroke-width:1.62056723576397px;stroke-dasharray:2.3973987102508545,7.991329669952393"/><polyline points="1313.91 617.64 1315.13 617.64 1315.74 616.59" style="fill:none;stroke:#22beca;stroke-linecap:round;stroke-linejoin:round;stroke-width:1.62056723576397px"/><line x1="1319.81" y1="609.54" x2="1434.41" y2="411.69" style="fill:none;stroke:#22beca;stroke-linecap:round;stroke-linejoin:round;stroke-width:1.62056723576397px;stroke-dasharray:2.441059112548828,8.13686466217041"/><line x1="1436.44" y1="408.16" x2="1437.05" y2="407.11" style="fill:none;stroke:#22beca;stroke-linecap:round;stroke-linejoin:round;stroke-width:1.62056723576397px"/><line x1="1920.11" y1="112.38" x2="1918.89" y2="112.38" style="fill:none;stroke:#22beca;stroke-linecap:round;stroke-linejoin:round;stroke-width:1.62056723576397px"/><line x1="1909.52" y1="112.38" x2="1889.85" y2="112.38" style="fill:none;stroke:#22beca;stroke-linecap:round;stroke-linejoin:round;stroke-width:1.62056723576397px;stroke-dasharray:2.810899496078491,9.36966609954834"/><polyline points="1885.16 112.38 1883.95 112.38 1883.34 111.33" style="fill:none;stroke:#22beca;stroke-linecap:round;stroke-linejoin:round;stroke-width:1.62056723576397px"/><line x1="1879.18" y1="104.13" x2="1821.81" y2="4.75" style="fill:none;stroke:#22beca;stroke-linecap:round;stroke-linejoin:round;stroke-width:1.62056723576397px;stroke-dasharray:2.4944632053375244,8.314878463745117"/><line x1="1819.73" y1="1.15" x2="1819.12" y2="0.1" style="fill:none;stroke:#22beca;stroke-linecap:round;stroke-linejoin:round;stroke-width:1.62056723576397px"/><line x1="1920.11" y1="427.84" x2="1919.5" y2="426.79" style="fill:none;stroke:#fff;stroke-linecap:round;stroke-linejoin:round;stroke-width:1.62056723576397px"/><line x1="1915.68" y1="420.12" x2="1902.67" y2="397.46" style="fill:none;stroke:#fff;stroke-linecap:round;stroke-linejoin:round;stroke-width:1.62056723576397px;stroke-dasharray:2.3052351474761963,7.684117794036865"/><polyline points="1900.76 394.13 1900.15 393.08 1898.94 393.08" style="fill:none;stroke:#fff;stroke-linecap:round;stroke-linejoin:round;stroke-width:1.62056723576397px"/><line x1="1890.62" y1="393.08" x2="1775.88" y2="393.08" style="fill:none;stroke:#fff;stroke-linecap:round;stroke-linejoin:round;stroke-width:1.62056723576397px;stroke-dasharray:2.4944024085998535,8.314675331115723"/><polyline points="1771.72 393.08 1770.51 393.08 1769.9 392.03" style="fill:none;stroke:#fff;stroke-linecap:round;stroke-linejoin:round;stroke-width:1.62056723576397px"/><line x1="1765.89" y1="385.09" x2="1700.19" y2="271.29" style="fill:none;stroke:#fff;stroke-linecap:round;stroke-linejoin:round;stroke-width:1.62056723576397px;stroke-dasharray:2.4037423133850098,8.01247501373291"/><polyline points="1698.19 267.82 1697.58 266.76 1698.19 265.71" style="fill:none;stroke:#fff;stroke-linecap:round;stroke-linejoin:round;stroke-width:1.62056723576397px"/><line x1="1702.27" y1="258.64" x2="1848.89" y2="4.69" style="fill:none;stroke:#fff;stroke-linecap:round;stroke-linejoin:round;stroke-width:1.62056723576397px;stroke-dasharray:2.4504048824310303,8.168017387390137"/><line x1="1850.93" y1="1.15" x2="1851.53" y2="0.1" style="fill:none;stroke:#fff;stroke-linecap:round;stroke-linejoin:round;stroke-width:1.62056723576397px"/><line x1="1373.47" y1="603.6" x2="1372.25" y2="603.6" style="fill:none;stroke:#fff;stroke-linecap:round;stroke-linejoin:round;stroke-width:1.62056723576397px"/><line x1="1364.19" y1="603.6" x2="1200.45" y2="603.6" style="fill:none;stroke:#fff;stroke-linecap:round;stroke-linejoin:round;stroke-width:1.62056723576397px;stroke-dasharray:2.4196999073028564,8.065667152404785"/><line x1="1196.42" y1="603.6" x2="1195.21" y2="603.6" style="fill:none;stroke:#fff;stroke-linecap:round;stroke-linejoin:round;stroke-width:1.62056723576397px"/><line x1="1920.11" y1="435.18" x2="1918.89" y2="435.18" style="fill:none;stroke:#fff;stroke-linecap:round;stroke-linejoin:round;stroke-width:1.62056723576397px"/><line x1="1910.72" y1="435.18" x2="1670.47" y2="435.18" style="fill:none;stroke:#fff;stroke-linecap:round;stroke-linejoin:round;stroke-width:1.62056723576397px;stroke-dasharray:2.4515278339385986,8.171759605407715"/><polyline points="1666.38 435.18 1665.17 435.18 1664.56 436.24" style="fill:none;stroke:#fff;stroke-linecap:round;stroke-linejoin:round;stroke-width:1.62056723576397px"/><line x1="1660.5" y1="443.28" x2="1546.27" y2="641.13" style="fill:none;stroke:#fff;stroke-linecap:round;stroke-linejoin:round;stroke-width:1.62056723576397px;stroke-dasharray:2.4391191005706787,8.13039779663086"/><polyline points="1544.23 644.65 1543.63 645.71 1542.41 645.71" style="fill:none;stroke:#fff;stroke-linecap:round;stroke-linejoin:round;stroke-width:1.62056723576397px"/><line x1="1534.22" y1="645.71" x2="1176.21" y2="645.71" style="fill:none;stroke:#fff;stroke-linecap:round;stroke-linejoin:round;stroke-width:1.62056723576397px;stroke-dasharray:2.457740545272827,8.192469596862793"/><polyline points="1172.11 645.71 1170.9 645.71 1170.29 646.76" style="fill:none;stroke:#fff;stroke-linecap:round;stroke-linejoin:round;stroke-width:1.62056723576397px"/><line x1="1166.14" y1="653.97" x2="1125.01" y2="725.34" style="fill:none;stroke:#fff;stroke-linecap:round;stroke-linejoin:round;stroke-width:1.62056723576397px;stroke-dasharray:2.496222496032715,8.3207426071167"/><line x1="1122.93" y1="728.95" x2="1122.33" y2="730" style="fill:none;stroke:#fff;stroke-linecap:round;stroke-linejoin:round;stroke-width:1.62056723576397px"/><line x1="1592.28" y1="730" x2="1592.88" y2="728.95" style="fill:none;stroke:#fff;stroke-linecap:round;stroke-linejoin:round;stroke-width:1.62056723576397px"/><line x1="1597.04" y1="721.75" x2="1686.79" y2="566.15" style="fill:none;stroke:#fff;stroke-linecap:round;stroke-linejoin:round;stroke-width:1.62056723576397px;stroke-dasharray:2.4947903156280518,8.31596851348877"/><polyline points="1688.87 562.55 1689.48 561.5 1690.69 561.5" style="fill:none;stroke:#fff;stroke-linecap:round;stroke-linejoin:round;stroke-width:1.62056723576397px"/><line x1="1699.01" y1="561.5" x2="1813.75" y2="561.5" style="fill:none;stroke:#fff;stroke-linecap:round;stroke-linejoin:round;stroke-width:1.62056723576397px;stroke-dasharray:2.4944024085998535,8.314675331115723"/><line x1="1817.91" y1="561.5" x2="1819.12" y2="561.5" style="fill:none;stroke:#fff;stroke-linecap:round;stroke-linejoin:round;stroke-width:1.62056723576397px"/><line x1="1527.42" y1="112.38" x2="1430.19" y2="280.8" style="fill:none;stroke:#ffce32;stroke-linecap:round;stroke-linejoin:round;stroke-width:1.62056723576397px"/><polyline points="1155.55 280.8 1592.24 280.8 1648.9 182.55" style="fill:none;stroke:#ffce32;stroke-linecap:round;stroke-linejoin:round;stroke-width:1.62056723576397px"/><polyline points="1551.73 575.53 1495.01 477.29 1608.45 477.29" style="fill:none;stroke:#ffce32;stroke-linecap:round;stroke-linejoin:round;stroke-width:1.62056723576397px"/><polyline points="1511.35 730 1454.36 631.09 1340.92 631.09 1251.92 477.29" style="fill:none;stroke:#ffce32;stroke-linecap:round;stroke-linejoin:round;stroke-width:1.62056723576397px"/><polyline points="1624.65 730 1657.07 673.78 1920.11 673.78" style="fill:none;stroke:#ffce32;stroke-linecap:round;stroke-linejoin:round;stroke-width:1.62056723576397px"/><line x1="1673.27" y1="280.8" x2="1559.83" y2="477.29" style="fill:none;stroke:#ffce32;stroke-linecap:round;stroke-linejoin:round;stroke-width:1.62056723576397px"/><line x1="1920.11" y1="575.19" x2="1863.28" y2="673.78" style="fill:none;stroke:#ffce32;stroke-linecap:round;stroke-linejoin:round;stroke-width:1.62056723576397px"/><polyline points="1624.65 280.8 1738.1 280.8 1738.1 280.8 1794.82 379.04 1920 379.04" style="fill:none;stroke:#ffce32;stroke-linecap:round;stroke-linejoin:round;stroke-width:1.62056723576397px"/></svg>