<svg viewBox="0 0 1920 320" xmlns="http://www.w3.org/2000/svg"><path clip-rule="evenodd" d="M0 0h1920v320H0z" fill="#1f292e" fill-rule="evenodd"/><g fill="none" stroke-linecap="round" stroke-linejoin="round"><g stroke="#00c3cd"><path d="M1905.9 0l-25.4 44.1" stroke-dasharray=".745 4.969"/><path d="M1879.2 46.2l-.2.3.2.3"/><path d="M1881.7 51.2l38.3 66.4" stroke-dasharray=".745 4.969"/><path d="M1196.1 319l-65.7-114" stroke-dasharray=".757 5.046"/><path d="M1129.2 202.8l-.2-.3h.4"/><path d="M1134.4 202.4h171.7" stroke-dasharray=".757 5.049"/><path d="M1308.6 202.4h.4"/><path d="M1345.9 0l-115.4 200" stroke-dasharray=".745 4.969"/><path d="M1229.2 202.1l-.2.3"/><path d="M1592.1 0l25.4 44" stroke-dasharray=".757 5.049"/><path d="M1618.8 46.2l.2.3h.4"/><path d="M1624.4 46.6h171.7" stroke-dasharray=".757 5.049"/><path d="M1798.6 46.6h.4l.2.3"/><path d="M1801.7 51.2l75.9 131.5" stroke-dasharray=".745 4.969"/><path d="M1878.8 184.8l.2.3-.2.3"/><path d="M1876.3 189.8l-77.1 133.6" stroke-dasharray=".745 4.969"/><path d="M1337.3 115.8H1159L1092.1 0m206.7 323.4l-49.8-86.3M1149 98.5l-129.8 224.8m357.7-3.3l-47.9-82.9 130-225.2"/></g><path d="M1499 150.5l.2-.3" stroke="#fff"/><path d="M1501.7 145.9L1585.9 0" stroke="#fff" stroke-dasharray=".745 4.969"/><path d="M949 63.9l-.2.3" stroke="#fff"/><path d="M946.3 68.5l-35.9 62.2" stroke="#fff" stroke-dasharray=".745 4.969"/><path d="M909.2 132.8l-.2.3" stroke="#fff"/><path d="M1125.9 0l-12.7 22" stroke="#fff" stroke-dasharray=".745 4.969"/><path d="M1741.7 319l125.9-218" stroke="#fff" stroke-dasharray=".754 5.024"/><path d="M1868.8 98.8l.2-.3M869 133.2h.4" stroke="#fff"/><path d="M874.3 133.2h151.8" stroke="#fff" stroke-dasharray=".745 4.969"/><path d="M1028.6 133.2h.4l-.2.3" stroke="#fff"/><path d="M1026.3 137.8L919 323.7" stroke="#fff" stroke-dasharray=".745 4.969"/><path d="M913.3 195l-72.1 125" stroke="#00c3cd" stroke-dasharray="2.986 9.955"/><path d="M961.1 320l14.6-25.2" stroke="#00c3cd" stroke-dasharray="3.078 10.26"/><path d="M978.3 290.3l.8-1.3h-1.5" stroke="#00c3cd"/><path d="M967.2 289H865.6" stroke="#00c3cd" stroke-dasharray="3.078 10.26"/><path d="M860.5 289H859" stroke="#00c3cd"/><path d="M1920 160L1832.1 0" stroke="#00c3cd" stroke-dasharray="2.967 9.888"/><path d="M1065.9 0L1019 81.2m180 0L1245.8 0m73.2 81.2l-140 242.5m660 0l70-121.2h11M1259 81.2h140l70 121.2h140l70 121.2" stroke="#ffcd32"/><path d="M10.1 323l25.4-44.1" stroke="#00c3cd" stroke-dasharray=".745 4.969"/><path d="M36.8 276.7l.2-.3-.2-.3" stroke="#00c3cd"/><path d="M34.3 271.8L-4 205.4" stroke="#00c3cd" stroke-dasharray=".745 4.969"/><path d="M291.6 276.4H119.9" stroke="#00c3cd" stroke-dasharray=".757 5.049"/><path d="M117.4 276.4h-.4l-.2-.3" stroke="#00c3cd"/><path d="M114.3 271.8L38.4 140.3" stroke="#00c3cd" stroke-dasharray=".745 4.969"/><path d="M37.2 138.2l-.2-.3.2-.3" stroke="#00c3cd"/><path d="M39.7 133.2L116.8-.4" stroke="#00c3cd" stroke-dasharray=".745 4.969"/><path d="M174.3 4L48.4 222" stroke="#fff" stroke-dasharray=".754 5.024"/><path d="M47.2 224.1l-.2.4" stroke="#fff"/><path d="M72.7 303.6L83.9 323" stroke="#00c3cd" stroke-dasharray="2.967 9.888"/><path d="M77-.7L7 120.5H-4" stroke="#ffcd32"/></g></svg>