<svg width="594" height="380" xmlns="http://www.w3.org/2000/svg" xmlns:xlink="http://www.w3.org/1999/xlink"><defs><path id="a" d="M0 0h1920v380H0z"/></defs><g transform="translate(-1326)" fill="none" fill-rule="evenodd"><mask id="b" fill="#fff"><use xlink:href="#a"/></mask><g mask="url(#b)" stroke-linecap="round" stroke-linejoin="round"><g opacity=".495" stroke="#00C3CD"><path d="M1377 183.173h760l140 242.493-50 86.607"/><path d="M2207 650.84l-140-242.494h-400l-130-225.173M1997-267.173L1877-59.32h-220l-20 34.642h460l190 329.1h-80"/></g><g stroke="#FFF"><path stroke-dasharray="0.745,4.969" d="M1994.328-123.977L1918.43 7.486"/><path d="M1917.188 9.639l-.188.324h-.374"/><path stroke-dasharray="0.757,5.049" d="M1911.576 9.963l-171.676.001"/><path d="M1737.375 9.964H1737l-.187.324"/><path stroke-dasharray="0.745,4.969" d="M1734.328 14.592l-75.898 131.463"/><path d="M1657.188 148.206l-.188.324h-.374"/><path stroke-dasharray="0.761,5.073" d="M1651.552 148.53h-131.641"/><path d="M1517.375 148.53H1517l-.187.325"/><path stroke-dasharray="0.75,5" d="M1514.313 153.186l-225.875 391.236"/><path stroke-dasharray="0.745,4.969" d="M1984.328 646.212L1808.43 341.538"/><path d="M1807.188 339.387l-.188-.324h-.374"/><path stroke-dasharray="0.754,5.029" d="M1801.596 339.063l-471.707-.002"/><path d="M1327.375 339.061H1327"/></g><g stroke="#00C3CD"><path d="M1577 183.174l.75 1.299"/><path stroke-dasharray="2.758,9.194000000000001" d="M1582.347 192.435l21.605 37.422"/><path d="M1606.25 233.838l.75 1.299v-.001h1.5"/><path stroke-dasharray="2.966,9.888" d="M1618.388 235.136h162.167"/><path d="M1785.5 235.136h1.5l.75 1.3"/><path stroke-dasharray="3.01,10.034" d="M1792.767 245.125l140.975 244.182"/></g><g opacity=".499" stroke="#FFCD32"><path d="M2097 113.889h-420l-31.791-53.068L1527 61.926"/><path d="M1497 460.309h260l130-225.173h140L2187-42"/><path d="M2827-180.568h-100L2627-7.358l60 103.925h140l-70 121.247h-420l-310-536.95h-140L1757-544.31"/><path d="M2097-197.89h-420l-190 329.1h-160"/></g></g></g></svg>