<svg id="b3cf9268-054f-4fc6-b28c-9a13d34a3909" data-name="Layer 1" xmlns="http://www.w3.org/2000/svg" viewBox="0 0 1024 512"><polygon points="997.09 46.52 943.35 46.52 916.47 93.06 943.35 139.61 997.09 139.61 1023.97 93.06 997.09 46.52" style="fill:none;stroke:#dee0e2;stroke-miterlimit:10;stroke-width:0.5px"/><polygon points="997.09 139.61 943.35 139.61 916.47 186.15 943.35 232.7 997.09 232.7 1023.97 186.15 997.09 139.61" style="fill:none;stroke:#dee0e2;stroke-miterlimit:10;stroke-width:0.5px"/><polygon points="916.4 -0.03 862.66 -0.03 835.78 46.52 862.66 93.06 916.4 93.06 943.28 46.52 916.4 -0.03" style="fill:none;stroke:#dee0e2;stroke-miterlimit:10;stroke-width:0.5px"/><polygon points="674.48 46.52 620.73 46.52 593.86 93.06 620.73 139.61 674.48 139.61 701.35 93.06 674.48 46.52" style="fill:none;stroke:#dee0e2;stroke-miterlimit:10;stroke-width:0.5px"/><polygon points="916.4 279.24 862.66 279.24 835.78 325.78 862.66 372.33 916.4 372.33 943.28 325.78 916.4 279.24" style="fill:none;stroke:#dee0e2;stroke-miterlimit:10;stroke-width:0.5px"/><polygon points="835.79 139.61 782.04 139.61 755.17 186.15 782.04 232.7 835.79 232.7 862.66 186.15 835.79 139.61" style="fill:none;stroke:#dee0e2;stroke-miterlimit:10;stroke-width:0.5px"/><polygon points="755.22 186.15 701.47 186.15 674.6 232.7 701.47 279.24 755.22 279.24 782.09 232.7 755.22 186.15" style="fill:none;stroke:#dee0e2;stroke-miterlimit:10;stroke-width:0.5px"/><polygon points="755.22 93.06 701.47 93.06 674.6 139.61 701.47 186.15 755.22 186.15 782.09 139.61 755.22 93.06" style="fill:none;stroke:#dee0e2;stroke-miterlimit:10;stroke-width:0.5px"/><polygon points="835.79 325.79 782.04 325.79 755.17 372.33 782.04 418.88 835.79 418.88 862.66 372.33 835.79 325.79" style="fill:none;stroke:#dee0e2;stroke-miterlimit:10;stroke-width:0.5px"/><polyline points="782.09 511.97 755.22 465.43 701.47 465.43 674.6 511.97" style="fill:none;stroke:#dee0e2;stroke-miterlimit:10;stroke-width:0.5px"/><polygon points="997.09 325.79 943.35 325.79 916.47 372.33 943.35 418.88 997.09 418.88 1023.97 372.33 997.09 325.79" style="fill:none;stroke:#dee0e2;stroke-miterlimit:10;stroke-width:0.5px"/><polygon points="997.09 418.88 943.35 418.88 916.47 465.43 943.35 511.97 997.09 511.97 1023.97 465.43 997.09 418.88" style="fill:none;stroke:#dee0e2;stroke-miterlimit:10;stroke-width:0.5px"/><polygon points="674.48 325.78 620.73 325.78 593.86 372.33 620.73 418.88 674.48 418.88 701.35 372.33 674.48 325.78" style="fill:none;stroke:#dee0e2;stroke-miterlimit:10;stroke-width:0.5px"/><line x1="620.73" y1="46.52" x2="647.61" y2="93.06" style="fill:none;stroke:#dee0e2;stroke-miterlimit:10;stroke-width:0.5px"/><line x1="620.73" y1="139.61" x2="647.61" y2="93.06" style="fill:none;stroke:#dee0e2;stroke-miterlimit:10;stroke-width:0.5px"/><line x1="701.35" y1="93.06" x2="647.61" y2="93.06" style="fill:none;stroke:#dee0e2;stroke-miterlimit:10;stroke-width:0.5px"/><line x1="701.39" y1="93.06" x2="728.26" y2="139.61" style="fill:none;stroke:#dee0e2;stroke-miterlimit:10;stroke-width:0.5px"/><line x1="701.39" y1="186.15" x2="728.26" y2="139.61" style="fill:none;stroke:#dee0e2;stroke-miterlimit:10;stroke-width:0.5px"/><line x1="782.01" y1="139.61" x2="728.26" y2="139.61" style="fill:none;stroke:#dee0e2;stroke-miterlimit:10;stroke-width:0.5px"/><line x1="701.35" y1="186.15" x2="728.22" y2="232.7" style="fill:none;stroke:#dee0e2;stroke-miterlimit:10;stroke-width:0.5px"/><line x1="701.35" y1="279.24" x2="728.22" y2="232.7" style="fill:none;stroke:#dee0e2;stroke-miterlimit:10;stroke-width:0.5px"/><line x1="781.97" y1="232.7" x2="728.22" y2="232.7" style="fill:none;stroke:#dee0e2;stroke-miterlimit:10;stroke-width:0.5px"/><line x1="782.06" y1="139.61" x2="808.93" y2="186.15" style="fill:none;stroke:#dee0e2;stroke-miterlimit:10;stroke-width:0.5px"/><line x1="782.06" y1="232.7" x2="808.93" y2="186.15" style="fill:none;stroke:#dee0e2;stroke-miterlimit:10;stroke-width:0.5px"/><line x1="862.68" y1="186.15" x2="808.93" y2="186.15" style="fill:none;stroke:#dee0e2;stroke-miterlimit:10;stroke-width:0.5px"/><line x1="862.66" y1="-0.03" x2="889.53" y2="46.52" style="fill:none;stroke:#dee0e2;stroke-miterlimit:10;stroke-width:0.5px"/><line x1="862.66" y1="93.06" x2="889.53" y2="46.52" style="fill:none;stroke:#dee0e2;stroke-miterlimit:10;stroke-width:0.5px"/><line x1="943.28" y1="46.52" x2="889.53" y2="46.52" style="fill:none;stroke:#dee0e2;stroke-miterlimit:10;stroke-width:0.5px"/><line x1="943.28" y1="46.52" x2="970.15" y2="93.06" style="fill:none;stroke:#dee0e2;stroke-miterlimit:10;stroke-width:0.5px"/><line x1="943.28" y1="139.61" x2="970.15" y2="93.06" style="fill:none;stroke:#dee0e2;stroke-miterlimit:10;stroke-width:0.5px"/><line x1="1023.9" y1="93.06" x2="970.15" y2="93.06" style="fill:none;stroke:#dee0e2;stroke-miterlimit:10;stroke-width:0.5px"/><line x1="943.38" y1="139.61" x2="970.25" y2="186.15" style="fill:none;stroke:#dee0e2;stroke-miterlimit:10;stroke-width:0.5px"/><line x1="943.38" y1="232.7" x2="970.25" y2="186.15" style="fill:none;stroke:#dee0e2;stroke-miterlimit:10;stroke-width:0.5px"/><line x1="1024" y1="186.15" x2="970.25" y2="186.15" style="fill:none;stroke:#dee0e2;stroke-miterlimit:10;stroke-width:0.5px"/><line x1="862.66" y1="279.24" x2="889.53" y2="325.79" style="fill:none;stroke:#dee0e2;stroke-miterlimit:10;stroke-width:0.5px"/><line x1="862.66" y1="372.33" x2="889.53" y2="325.79" style="fill:none;stroke:#dee0e2;stroke-miterlimit:10;stroke-width:0.5px"/><line x1="943.28" y1="325.79" x2="889.53" y2="325.79" style="fill:none;stroke:#dee0e2;stroke-miterlimit:10;stroke-width:0.5px"/><line x1="943.28" y1="325.79" x2="970.15" y2="372.33" style="fill:none;stroke:#dee0e2;stroke-miterlimit:10;stroke-width:0.5px"/><line x1="943.28" y1="418.88" x2="970.15" y2="372.33" style="fill:none;stroke:#dee0e2;stroke-miterlimit:10;stroke-width:0.5px"/><line x1="1023.9" y1="372.33" x2="970.15" y2="372.33" style="fill:none;stroke:#dee0e2;stroke-miterlimit:10;stroke-width:0.5px"/><line x1="943.28" y1="418.88" x2="970.15" y2="465.42" style="fill:none;stroke:#dee0e2;stroke-miterlimit:10;stroke-width:0.5px"/><line x1="943.28" y1="511.97" x2="970.15" y2="465.42" style="fill:none;stroke:#dee0e2;stroke-miterlimit:10;stroke-width:0.5px"/><line x1="1023.9" y1="465.42" x2="970.15" y2="465.42" style="fill:none;stroke:#dee0e2;stroke-miterlimit:10;stroke-width:0.5px"/><line x1="782.01" y1="325.79" x2="808.88" y2="372.33" style="fill:none;stroke:#dee0e2;stroke-miterlimit:10;stroke-width:0.5px"/><line x1="782.01" y1="418.88" x2="808.88" y2="372.33" style="fill:none;stroke:#dee0e2;stroke-miterlimit:10;stroke-width:0.5px"/><line x1="862.62" y1="372.33" x2="808.88" y2="372.33" style="fill:none;stroke:#dee0e2;stroke-miterlimit:10;stroke-width:0.5px"/><line x1="620.73" y1="325.79" x2="647.61" y2="372.33" style="fill:none;stroke:#dee0e2;stroke-miterlimit:10;stroke-width:0.5px"/><line x1="701.39" y1="465.48" x2="728.26" y2="512.03" style="fill:none;stroke:#dee0e2;stroke-miterlimit:10;stroke-width:0.5px"/><line x1="620.73" y1="418.88" x2="647.61" y2="372.33" style="fill:none;stroke:#dee0e2;stroke-miterlimit:10;stroke-width:0.5px"/><line x1="701.35" y1="372.33" x2="647.61" y2="372.33" style="fill:none;stroke:#dee0e2;stroke-miterlimit:10;stroke-width:0.5px"/><path d="M931.13,226.51l4.42-7.26-19.1-33.07h-38l-4.07,7.25,18.92,33.08Zm-48.82,6.36L863.2,199.8h-8.49l-18.92,33.07L854.71,266h8.49Zm48.82,6.37h-38l-18.93,32.9,4.07,7.08h38l19.1-32.72Z" style="fill:none;stroke:#facd42;stroke-miterlimit:10"/></svg>