<svg width="370" height="207" xmlns="http://www.w3.org/2000/svg" xmlns:xlink="http://www.w3.org/1999/xlink"><defs><path id="a" d="M0 0h370v330H0z"/></defs><g transform="translate(0 -123)" fill="none" fill-rule="evenodd"><mask id="b" fill="#fff"><use xlink:href="#a"/></mask><g style="mix-blend-mode:multiply" mask="url(#b)" stroke-linecap="round" stroke-linejoin="round"><path stroke="#FFF" stroke-width=".5" d="M284.835 204.293l46.797-81.048M-16.255 204.293h301.089"/><path stroke="#46CDC8" stroke-width=".5" stroke-dasharray="3.074999928474426,6.149999856948853" d="M317.179 343.507l53.808-93.201"/><path stroke="#46CDC8" stroke-width=".5" d="M286.707 246.346l.75-1.299"/><path stroke="#46CDC8" stroke-width=".5" stroke-dasharray="3.074999928474426,6.149999856948853" d="M290.534 239.72l53.811-93.198"/><path stroke="#46CDC8" stroke-width=".5" d="M345.878 143.858l.75-1.299M285.207 246.346h1.5"/><path stroke="#46CDC8" stroke-width=".9" d="M291.726 260.594l46.794 81.048M244.933 179.546l46.794 81.048M240.278 260.594H146.69M566.689 260.594H291.727M200.894 261.825l46.794 81.048"/><path stroke="#FFF" stroke-width=".75" d="M341.519 306.519l.75 1.299"/><path stroke="#FFF" stroke-width=".75" stroke-dasharray="3.074999928474426,6.149999856948853" d="M345.345 313.144l53.808 93.198"/><path stroke="#FFF" stroke-width=".75" d="M281.598 202.733l.75 1.299"/><path stroke="#FFF" stroke-width=".75" stroke-dasharray="3.074999928474426,6.149999856948853" d="M285.424 209.357l53.808 93.201"/><path stroke="#FFF" stroke-width=".75" d="M340.769 305.219l.75 1.299M275.636 306.519h-1.5"/><path stroke="#FFF" stroke-width=".75" stroke-dasharray="3.074999928474426,6.149999856948853" d="M267.987 306.519H160.368"/><path stroke="#FFF" stroke-width=".75" d="M157.294 306.519h-1.5"/><path stroke="#FFF" stroke-width=".75" stroke-dasharray="3.009000062942505,6.01800012588501" d="M686.106 306.519H346.029"/><path stroke="#FFF" stroke-width=".75" d="M343.019 306.519h-1.5M225.204 308.095l.75 1.299"/><path stroke="#FFF" stroke-width=".75" stroke-dasharray="3.074999928474426,6.149999856948853" d="M229.031 314.72l53.811 93.198"/><path stroke="#FFF" stroke-width=".75" d="M327.864 229.336l.96 1.662"/><path stroke="#FFF" stroke-width=".75" stroke-dasharray="3.998999834060669,8.001000165939331" d="M332.824 237.928l52.002 90.065"/><path stroke="#FDCF41" stroke-width="2.25" d="M305.645 285.341l46.794-81.048M155.671 285.341h149.973M302.223 367.62l-46.794-81.048"/></g></g></svg>