<svg width="365" height="217" xmlns="http://www.w3.org/2000/svg" xmlns:xlink="http://www.w3.org/1999/xlink"><defs><path id="a" d="M0 0h370v330H0z"/></defs><g transform="translate(-5 -113)" fill="none" fill-rule="evenodd"><mask id="b" fill="#fff"><use xlink:href="#a"/></mask><g style="mix-blend-mode:multiply" mask="url(#b)" stroke-linecap="round" stroke-linejoin="round"><path stroke="#FFF" stroke-width=".5" d="M253.165 194.293l-46.797-81.048M554.255 194.293H253.166"/><path stroke="#46CDC8" stroke-width=".5" stroke-dasharray="3.074999928474426,6.149999856948853" d="M220.821 333.507l-53.808-93.201"/><path stroke="#46CDC8" stroke-width=".5" d="M165.476 237.645l-.75-1.299"/><path stroke="#46CDC8" stroke-width=".5" stroke-dasharray="2.987999975681305,5.979000091552734" d="M629.378 236.346H255.781"/><path stroke="#46CDC8" stroke-width=".5" d="M252.793 236.346h-1.5"/><path stroke="#46CDC8" stroke-width=".9" d="M246.274 250.594l-46.794 81.048M293.067 169.546l-46.794 81.048M297.722 250.594h93.588M337.106 251.825l-46.794 81.048"/><path stroke="#FFF" stroke-width=".75" d="M196.481 296.519l-.75 1.299"/><path stroke="#FFF" stroke-width=".75" stroke-dasharray="3.074999928474426,6.149999856948853" d="M192.655 303.144l-53.808 93.198"/><path stroke="#FFF" stroke-width=".75" d="M256.402 192.733l-.75 1.299"/><path stroke="#FFF" stroke-width=".75" stroke-dasharray="3.074999928474426,6.149999856948853" d="M252.576 199.357l-53.808 93.201"/><path stroke="#FFF" stroke-width=".75" d="M197.231 295.219l-.75 1.299M262.364 296.519h1.5"/><path stroke="#FFF" stroke-width=".75" stroke-dasharray="3.074999928474426,6.149999856948853" d="M270.013 296.519h107.619"/><path stroke="#FFF" stroke-width=".75" stroke-dasharray="3.009000062942505,6.01800012588501" d="M-148.106 296.519h340.077"/><path stroke="#FFF" stroke-width=".75" d="M194.981 296.519h1.5M312.796 298.095l-.75 1.299"/><path stroke="#FFF" stroke-width=".75" stroke-dasharray="3.074999928474426,6.149999856948853" d="M308.969 304.72l-53.811 93.198"/><path stroke="#46CDC8" stroke-width=".75" stroke-dasharray="3.893999934196472,7.7909996509552" d="M538.88 262.949H168.841"/><path stroke="#46CDC8" stroke-width=".75" d="M164.946 262.949h-1.92"/><path stroke="#FFF" stroke-width=".75" stroke-dasharray="3.998999834060669,8.001000165939331" d="M205.176 227.928l-52.002 90.065"/><path stroke="#FFF" stroke-width=".75" d="M151.176 321.459l-.96 1.662M335.94 323.122l.96 1.665M216.098 323.122h1.923"/><path stroke="#FFF" stroke-width=".75" stroke-dasharray="3.998999834060669,8.001000165939331" d="M226.018 323.122h104.001"/><path stroke="#FFF" stroke-width=".75" d="M334.021 323.122h1.92M266.53 324.698l-.96 1.665"/><path stroke="#FDCF41" stroke-width="2.25" d="M232.355 275.341l-46.794-81.048M382.329 275.341H232.356M235.777 357.62l46.794-81.048"/></g></g></svg>