<svg version="1.1" id="Layer_1" xmlns="http://www.w3.org/2000/svg" x="0" y="0" viewBox="0 0 1920 500" xml:space="preserve"><style>.st1{fill:none;stroke-linecap:round;stroke-linejoin:round}.st1,.st2,.st3{stroke:#00c3cd}.st2{fill:none;stroke-linecap:round;stroke-linejoin:round;stroke-dasharray:.761,5.073}.st3{stroke-dasharray:.757,5.049}.st3,.st4,.st8,.st9{fill:none;stroke-linecap:round;stroke-linejoin:round}.st4{stroke-dasharray:.745,4.969;stroke:#00c3cd}.st8,.st9{stroke:#fff}.st9{stroke-dasharray:.745,4.969}.st11{stroke:#fff;stroke-dasharray:.757,5.049}.st11,.st12,.st18{fill:none;stroke-linecap:round;stroke-linejoin:round}.st12{stroke-dasharray:.754,5.029;stroke:#fff}.st18{stroke:#ffcd32}</style><path id="a_1_" d="M0 0h1920v500H0V0z" fill-rule="evenodd" clip-rule="evenodd" fill="#1f292e"/><path class="st1" d="M984 392.6h.4"/><path class="st2" d="M989.4 392.6H1121"/><path class="st1" d="M1123.6 392.6h.4l.2.3"/><path class="st3" d="M1126.7 397.3L1186 500"/><path class="st4" d="M1110.6 0l-95.2 164.9"/><path class="st1" d="M1014.2 167.1l-.2.3.2.3"/><path d="M1016.7 172.1l45.8 79.3" fill="none" stroke="#00c3cd" stroke-linecap="round" stroke-linejoin="round" stroke-dasharray=".767,5.116"/><path class="st1" d="M1063.8 253.7l.2.3m390-190.5h.4"/><path d="M1459.4 63.5h211.7" fill="none" stroke="#00c3cd" stroke-linecap="round" stroke-linejoin="round" stroke-dasharray=".755,5.034"/><path class="st1" d="M1673.6 63.5h.4l.2.3"/><path class="st4" d="M1676.7 68.1l175.9 304.7"/><path class="st1" d="M1853.8 374.9l.2.3h.4"/><path class="st4" d="M1859.3 375.2h64.8"/><path class="st1" d="M1194 271.3l.2-.3"/><path class="st4" d="M1196.7 266.7l95.9-166.1"/><path class="st1" d="M1293.8 98.4l.2-.3h.4"/><path class="st2" d="M1299.4 98.1H1431"/><path class="st1" d="M1433.6 98.1h.4l.2-.3"/><path class="st3" d="M1436.7 93.4L1494-5.8"/><path d="M1737.4 0l95.2 164.9" fill="none" stroke="#00c3cd" stroke-linecap="round" stroke-linejoin="round" stroke-dasharray=".754,5.024"/><path class="st1" d="M1833.8 167.1l.2.3h.4"/><path class="st4" d="M1839.3 167.4h82.8"/><g><path class="st1" d="M1113.3 497.8l50.8-87.9M1324 306l-70-121.2M972 500l122-211.4"/></g><g><path class="st8" d="M1304 219.3l.2-.3"/><path class="st9" d="M1306.7 214.7L1430.6 0"/><path d="M1922.6 202h-305.7" fill="none" stroke="#fff" stroke-linecap="round" stroke-linejoin="round" stroke-dasharray=".75,5"/><path class="st8" d="M1614.4 202h-.4l-.2.3"/><path class="st11" d="M1611.3 206.7l-85.8 148.7"/><path class="st8" d="M1524.2 357.6l-.2.3.2.3"/><path class="st11" d="M1526.7 362.6L1606 500"/><path class="st8" d="M1414 28.8h.4"/><path class="st12" d="M1419.4 28.8h471.7M1141.5 359.6h471.7"/><path class="st8" d="M1893.6 28.8h.4l.2.3"/><path d="M1896.8 33.7l25.7 44.5" fill="none" stroke="#fff" stroke-linecap="round" stroke-linejoin="round" stroke-dasharray=".783,5.22"/><path class="st8" d="M1394 63.5h-.4"/><path d="M1388.6 63.5h-211.7" fill="none" stroke="#fff" stroke-linecap="round" stroke-linejoin="round" stroke-dasharray=".755,5.034"/><path class="st8" d="M1174.4 63.5h-.4l-.2-.3"/><path class="st9" d="M1171.3 58.8l-34-58.8M956 500l-80.6-139.6"/><path class="st8" d="M874.2 358.2l-.2-.3.2-.3"/><path class="st9" d="M876.7 353.3l175.9-304.7M1270.6 0l-35.2 61"/><path class="st8" d="M1234.2 63.1l-.2.3"/></g><g><path class="st1" d="M1494 202l-.8 1.3"/><path d="M1488.1 212.2l-110.8 191.9" fill="none" stroke="#00c3cd" stroke-linecap="round" stroke-linejoin="round" stroke-dasharray="3.078,10.26"/><path class="st1" d="M1374.8 408.6l-.8 1.3.8 1.3"/><path d="M1379.9 420.1L1426 500" fill="none" stroke="#00c3cd" stroke-linecap="round" stroke-linejoin="round" stroke-dasharray="3.079,10.262"/><path d="M897.4 0l43.4 75.2" fill="none" stroke="#00c3cd" stroke-linecap="round" stroke-linejoin="round" stroke-dasharray="2.967,9.888"/><path class="st1" d="M943.2 79.5l.8 1.3"/></g><g><path class="st18" d="M1454 444.5h280M1144 254h200l144.1 249.6"/><path class="st18" d="M1844 254h-160l-50 86.6h-180l-120-207.9h-120L1144 254h-140L894 444.5l32 55.5"/></g><path class="st1" d="M-1.4 115.3L65.4-.5M155.9 327.9h-140l-17-29.5"/><path class="st8" d="M115.9 120l.2-.3"/><path class="st9" d="M118.6 115.4L185.4-.5"/><path class="st8" d="M57.4 189.3h-1.5l-.8-1.3"/><path d="M50.2 179.4l-53.7-93" fill="none" stroke="#fff" stroke-linecap="round" stroke-linejoin="round" stroke-dasharray="2.967,9.888"/><path d="M-1.1 397.2h50.4" fill="none" stroke="#fff" stroke-linecap="round" stroke-linejoin="round" stroke-dasharray="3.078,10.261"/><path class="st8" d="M54.4 397.2h1.5"/><path class="st18" d="M-1.4 414.5h47.2l49.6 86M-.1 50.7h16l20 34.7h69"/></svg>