<svg width="576" height="315" xmlns="http://www.w3.org/2000/svg" xmlns:xlink="http://www.w3.org/1999/xlink"><defs><path id="a" d="M0 0h1920v315H0z"/></defs><g transform="translate(-1344)" fill="none" fill-rule="evenodd"><mask id="b" fill="#fff"><use xlink:href="#a"/></mask><g mask="url(#b)"><g opacity=".495" stroke-linecap="round" stroke-linejoin="round" stroke="#00C3CD"><path d="M1435-94.827h760l140 242.493-50 86.607"/><path d="M2265 372.84l-140-242.494h-400L1595-94.827M1585 372.84l140-242.494M2055-545.173L1935-337.32h-220l-20 34.642h460l190 329.1h-80"/></g><g stroke-linecap="round" stroke-linejoin="round" stroke="#FFF"><path stroke-dasharray="0.75,5" d="M1572.313-124.814l-225.875 391.236"/><path d="M1345.188 268.588l-.188.325"/><path stroke-dasharray="0.745,4.969" d="M2042.328 368.212L1866.43 63.538"/><path d="M1865.188 61.387l-.188-.324h-.374"/><path stroke-dasharray="0.754,5.029" d="M1859.596 61.063l-471.707-.002"/><path d="M1385.375 61.061H1385"/></g><g stroke-linecap="round" stroke-linejoin="round" stroke="#00C3CD"><path stroke-dasharray="3.01,10.034" d="M1850.767-32.875l140.975 244.182"/><path stroke-dasharray="3.078,10.26" d="M1983.24 216.951l-221.61-.001"/><path d="M1756.5 216.95h-1.5"/></g><g opacity=".499"><path stroke="#FFCD32" stroke-linecap="round" stroke-linejoin="round" d="M1555 182.309h260l130-225.173h140L2245-320"/></g></g></g></svg>