<svg width="551" height="358" xmlns="http://www.w3.org/2000/svg" xmlns:xlink="http://www.w3.org/1999/xlink"><defs><path id="a" d="M0 0h1920v380H0z"/></defs><g transform="translate(0 -22)" fill="none" fill-rule="evenodd"><mask id="b" fill="#fff"><use xlink:href="#a"/></mask><g mask="url(#b)" stroke-linecap="round" stroke-linejoin="round"><g stroke="#00C3CD"><path d="M229.419 178.52h.375"/><path stroke-dasharray="0.747,4.978" d="M234.773 178.519l312.362-.074"/><path d="M549.625 178.443H550"/><path stroke-dasharray="0.754,5.024" d="M62.699 468.226l255.857-443.17"/><path d="M319.813 22.88l.186-.325h.375"/><path stroke-dasharray="0.761,5.073" d="M325.447 22.556h131.642"/><path d="M459.625 22.555H460"/><path stroke-dasharray="0.752,5.011" d="M112.693 554.841l165.866-287.297"/><path d="M279.813 265.374l.186-.325h.375"/><path stroke-dasharray="0.745,4.969" d="M285.344 265.049h191.797"/><path d="M479.625 265.049H480"/></g><g stroke="#FFF"><path stroke-dasharray="0.754,5.029" d="M-244.596 109.161H227.11"/><path d="M229.625 109.161H230"/></g><g stroke="#00C3CD"><path d="M139.959 334.334h-1.5"/><path stroke-dasharray="2.936,9.787000000000001" d="M128.673 334.334l-262.279-.001"/></g><g stroke="#FFF"><path d="M50 143.803h-1.5"/><path stroke-dasharray="2.974,9.914" d="M38.586 143.803h-562.129"/><path d="M520 299.69h-1.5"/><path stroke-dasharray="3.024,10.08" d="M508.42 299.69l-741.88.001"/></g><g opacity=".499" stroke="#FFCD32"><path d="M-320 576.828h140L30 213.087l340-.001"/><path d="M540 507.543H220l-60-103.927-180 .001-140 242.494h0-120l-70-121.246h-140l-110-190.533v.001l100-173.21"/></g></g></g></svg>