<svg id="a240a99c-ab6a-4441-a30f-145b49fce4ce" data-name="Layer 1" xmlns="http://www.w3.org/2000/svg" viewBox="0 0 494.23 226.84"><ellipse cx="20.38" cy="7.83" rx="19.38" ry="6.83" style="fill:#fff;stroke:#2b83e4;stroke-miterlimit:10;stroke-width:2px"/><path d="M20.38,14.65C9.67,14.65,1,11.6,1,7.83V45.48c0,3.77,8.67,6.83,19.38,6.83s19.37-3.06,19.37-6.83V7.83C39.75,11.6,31.08,14.65,20.38,14.65Z" style="fill:#2b83e4;stroke:#2b83e4;stroke-miterlimit:10;stroke-width:2px"/><path d="M372.2,127.37H487.06a1.23,1.23,0,0,1,1.24,1.22v10.64a1.22,1.22,0,0,1-1.24,1.22H372.2a1.23,1.23,0,0,1-1.24-1.22V128.59A1.24,1.24,0,0,1,372.2,127.37Z" style="fill:#99a4ad;stroke:#4b5458;stroke-miterlimit:10;stroke-width:2px"/><path d="M371.9,137.73h-5.28a6.44,6.44,0,0,1-.06-1.21V131a6.29,6.29,0,0,1,.06-1.2h5.28" style="fill:none;stroke:#4b5458;stroke-miterlimit:10;stroke-width:2px"/><path d="M487.88,129.83h5.28a6.29,6.29,0,0,1,.06,1.2v5.49a6.44,6.44,0,0,1-.06,1.21h-5.28" style="fill:none;stroke:#4b5458;stroke-miterlimit:10;stroke-width:2px"/><path d="M492.16,92H489V90.3h0A1.25,1.25,0,0,0,487.76,89H371.86a1.26,1.26,0,0,0-1.24,1.28V92H367.2A2.07,2.07,0,0,0,365.13,94v27.05a2.07,2.07,0,0,0,2.07,2.07h3.42v1.94h0a1.26,1.26,0,0,0,1.25,1.28h115.9a1.26,1.26,0,0,0,1.24-1.29v-1.94h3.15a2.07,2.07,0,0,0,2.07-2.07V94A2.07,2.07,0,0,0,492.16,92Zm-122,26.3a1.31,1.31,0,1,1,1.31-1.31A1.31,1.31,0,0,1,370.17,118.25Zm0-18.82a1.31,1.31,0,1,1,1.31-1.3A1.3,1.3,0,0,1,370.17,99.43Zm119.51,18.82a1.31,1.31,0,1,1,1.31-1.31A1.31,1.31,0,0,1,489.68,118.25Zm0-18.82a1.31,1.31,0,0,1,0-2.61,1.31,1.31,0,1,1,0,2.61Z" style="fill:#4b5458"/><polygon points="438.74 107.31 439.59 105.88 435.85 99.43 428.42 99.43 427.62 100.86 431.31 107.31 438.74 107.31" style="fill:#facd42"/><polygon points="429.17 108.56 425.44 102.11 425.44 102.11 425.44 102.11 423.79 102.11 423.79 102.11 420.1 108.56 423.79 115 423.79 115 425.44 115 425.44 115 425.44 115 429.17 108.56" style="fill:#facd42"/><polygon points="438.74 109.8 431.31 109.8 427.62 116.25 427.62 116.26 427.62 116.26 428.42 117.64 435.85 117.64 439.59 111.24 439.58 111.23 439.59 111.23 438.74 109.8" style="fill:#facd42"/><path d="M372.2,142.37H487.06a1.23,1.23,0,0,1,1.24,1.22v10.64a1.22,1.22,0,0,1-1.24,1.22H372.2a1.23,1.23,0,0,1-1.24-1.22V143.59A1.24,1.24,0,0,1,372.2,142.37Z" style="fill:#99a4ad;stroke:#4b5458;stroke-miterlimit:10;stroke-width:2px"/><path d="M371.9,152.73h-5.28a6.44,6.44,0,0,1-.06-1.21V146a6.29,6.29,0,0,1,.06-1.2h5.28" style="fill:none;stroke:#4b5458;stroke-miterlimit:10;stroke-width:2px"/><path d="M487.88,144.83h5.28a6.29,6.29,0,0,1,.06,1.2v5.49a6.44,6.44,0,0,1-.06,1.21h-5.28" style="fill:none;stroke:#4b5458;stroke-miterlimit:10;stroke-width:2px"/><line x1="374.86" y1="131.46" x2="397.32" y2="131.46" style="fill:none;stroke:#4b5458;stroke-miterlimit:10;stroke-width:3px"/><line x1="397.18" y1="131.46" x2="401.18" y2="131.46" style="fill:none;stroke:#facd42;stroke-miterlimit:10;stroke-width:3px"/><line x1="374.86" y1="136.09" x2="397.32" y2="136.09" style="fill:none;stroke:#4b5458;stroke-miterlimit:10;stroke-width:3px"/><line x1="397.18" y1="136.09" x2="401.18" y2="136.09" style="fill:none;stroke:#facd42;stroke-miterlimit:10;stroke-width:3px"/><line x1="402.68" y1="131.46" x2="425.14" y2="131.46" style="fill:none;stroke:#4b5458;stroke-miterlimit:10;stroke-width:3px"/><line x1="425" y1="131.46" x2="429" y2="131.46" style="fill:none;stroke:#facd42;stroke-miterlimit:10;stroke-width:3px"/><line x1="402.68" y1="136.09" x2="425.14" y2="136.09" style="fill:none;stroke:#4b5458;stroke-miterlimit:10;stroke-width:3px"/><line x1="425" y1="136.09" x2="429" y2="136.09" style="fill:none;stroke:#facd42;stroke-miterlimit:10;stroke-width:3px"/><line x1="430.5" y1="131.46" x2="452.96" y2="131.46" style="fill:none;stroke:#4b5458;stroke-miterlimit:10;stroke-width:3px"/><line x1="452.83" y1="131.46" x2="456.82" y2="131.46" style="fill:none;stroke:#facd42;stroke-miterlimit:10;stroke-width:3px"/><line x1="430.5" y1="136.09" x2="452.96" y2="136.09" style="fill:none;stroke:#4b5458;stroke-miterlimit:10;stroke-width:3px"/><line x1="452.83" y1="136.09" x2="456.82" y2="136.09" style="fill:none;stroke:#facd42;stroke-miterlimit:10;stroke-width:3px"/><line x1="458.33" y1="131.46" x2="480.79" y2="131.46" style="fill:none;stroke:#4b5458;stroke-miterlimit:10;stroke-width:3px"/><line x1="480.65" y1="131.46" x2="484.64" y2="131.46" style="fill:none;stroke:#facd42;stroke-miterlimit:10;stroke-width:3px"/><line x1="458.33" y1="136.09" x2="480.79" y2="136.09" style="fill:none;stroke:#4b5458;stroke-miterlimit:10;stroke-width:3px"/><line x1="480.65" y1="136.09" x2="484.64" y2="136.09" style="fill:none;stroke:#facd42;stroke-miterlimit:10;stroke-width:3px"/><line x1="375" y1="146.46" x2="397.46" y2="146.46" style="fill:none;stroke:#4b5458;stroke-miterlimit:10;stroke-width:3px"/><line x1="397.32" y1="146.46" x2="401.32" y2="146.46" style="fill:none;stroke:#facd42;stroke-miterlimit:10;stroke-width:3px"/><line x1="375" y1="151.09" x2="397.46" y2="151.09" style="fill:none;stroke:#4b5458;stroke-miterlimit:10;stroke-width:3px"/><line x1="397.32" y1="151.09" x2="401.32" y2="151.09" style="fill:none;stroke:#facd42;stroke-miterlimit:10;stroke-width:3px"/><line x1="402.82" y1="146.46" x2="425.28" y2="146.46" style="fill:none;stroke:#4b5458;stroke-miterlimit:10;stroke-width:3px"/><line x1="425.14" y1="146.46" x2="429.14" y2="146.46" style="fill:none;stroke:#facd42;stroke-miterlimit:10;stroke-width:3px"/><line x1="402.82" y1="151.09" x2="425.28" y2="151.09" style="fill:none;stroke:#4b5458;stroke-miterlimit:10;stroke-width:3px"/><line x1="425.14" y1="151.09" x2="429.14" y2="151.09" style="fill:none;stroke:#facd42;stroke-miterlimit:10;stroke-width:3px"/><line x1="430.64" y1="146.46" x2="453.1" y2="146.46" style="fill:none;stroke:#4b5458;stroke-miterlimit:10;stroke-width:3px"/><line x1="452.96" y1="146.46" x2="456.96" y2="146.46" style="fill:none;stroke:#facd42;stroke-miterlimit:10;stroke-width:3px"/><line x1="430.64" y1="151.09" x2="453.1" y2="151.09" style="fill:none;stroke:#4b5458;stroke-miterlimit:10;stroke-width:3px"/><line x1="452.96" y1="151.09" x2="456.96" y2="151.09" style="fill:none;stroke:#facd42;stroke-miterlimit:10;stroke-width:3px"/><line x1="458.46" y1="146.46" x2="480.92" y2="146.46" style="fill:none;stroke:#4b5458;stroke-miterlimit:10;stroke-width:3px"/><line x1="480.79" y1="146.46" x2="484.78" y2="146.46" style="fill:none;stroke:#facd42;stroke-miterlimit:10;stroke-width:3px"/><line x1="458.46" y1="151.09" x2="480.92" y2="151.09" style="fill:none;stroke:#4b5458;stroke-miterlimit:10;stroke-width:3px"/><line x1="480.79" y1="151.09" x2="484.78" y2="151.09" style="fill:none;stroke:#facd42;stroke-miterlimit:10;stroke-width:3px"/><polygon points="338.62 119.79 334.38 115.55 334.38 115.55 321.62 102.8 317.38 107.04 327.14 116.79 274.28 116.79 274.28 122.79 327.14 122.79 317.38 132.54 321.62 136.78 334.38 124.03 334.38 124.03 338.62 119.79 338.62 119.79 338.62 119.79" style="fill:#facd42"/><path d="M10.18,34.53l1-1.21a3.09,3.09,0,0,0,2,.74c.71,0,1-.26,1-.68s-.42-.6-1.1-.88l-1-.43a2.29,2.29,0,0,1-1.58-2.14,2.58,2.58,0,0,1,2.83-2.36,3.75,3.75,0,0,1,2.53,1l-1,1.21a2.8,2.8,0,0,0-1.56-.57c-.57,0-.94.23-.94.63s.49.62,1.18.89l1,.4a2.13,2.13,0,0,1,1.55,2.12c0,1.31-1.09,2.45-3,2.45A4.18,4.18,0,0,1,10.18,34.53Z" style="fill:#fff"/><path d="M19.73,35.58c-1.64-.36-2.72-1.8-2.72-4,0-2.57,1.45-4,3.57-4s3.58,1.46,3.58,4c0,2.07-1,3.47-2.46,3.92a2,2,0,0,0,1.7.73,3.17,3.17,0,0,0,.88-.12l.32,1.33a3.12,3.12,0,0,1-1.41.28A3.64,3.64,0,0,1,19.73,35.58Zm2.52-4c0-1.52-.63-2.41-1.67-2.41s-1.66.89-1.66,2.41.64,2.55,1.66,2.55S22.25,33.21,22.25,31.59Z" style="fill:#fff"/><path d="M25.61,27.72h1.87V34h3v1.56H25.61Z" style="fill:#fff"/><ellipse cx="67.94" cy="8.74" rx="19.38" ry="6.83" style="fill:#fff;stroke:#2b83e4;stroke-miterlimit:10;stroke-width:2px"/><path d="M67.94,15.57c-10.71,0-19.38-3.06-19.38-6.83V46.4c0,3.77,8.67,6.83,19.38,6.83s19.37-3.06,19.37-6.83V8.74C87.31,12.51,78.64,15.57,67.94,15.57Z" style="fill:#2b83e4;stroke:#2b83e4;stroke-miterlimit:10;stroke-width:2px"/><path d="M57.74,35.45l1-1.22a3.15,3.15,0,0,0,2,.75c.71,0,1-.27,1-.69s-.42-.6-1.1-.87l-1-.43A2.29,2.29,0,0,1,58,30.85a2.57,2.57,0,0,1,2.83-2.36,3.75,3.75,0,0,1,2.53,1l-1,1.21a2.8,2.8,0,0,0-1.56-.57c-.57,0-.95.22-.95.63s.5.61,1.19.89l1,.39a2.16,2.16,0,0,1,1.55,2.13c0,1.31-1.09,2.44-3,2.44A4.21,4.21,0,0,1,57.74,35.45Z" style="fill:#fff"/><path d="M67.29,36.5c-1.64-.36-2.72-1.8-2.72-4,0-2.57,1.45-4,3.57-4s3.58,1.46,3.58,4c0,2.07-1,3.46-2.46,3.92a2,2,0,0,0,1.7.73,3.17,3.17,0,0,0,.88-.12l.32,1.33a3.12,3.12,0,0,1-1.41.28A3.64,3.64,0,0,1,67.29,36.5Zm2.52-4c0-1.53-.64-2.41-1.67-2.41s-1.66.88-1.66,2.41.64,2.55,1.66,2.55S69.81,34.13,69.81,32.51Z" style="fill:#fff"/><path d="M73.17,28.63H75v6.25h3v1.56H73.17Z" style="fill:#fff"/><ellipse cx="115.5" cy="8.74" rx="19.38" ry="6.83" style="fill:#fff;stroke:#2b83e4;stroke-miterlimit:10;stroke-width:2px"/><path d="M115.5,15.57c-10.71,0-19.38-3.06-19.38-6.83V46.4c0,3.77,8.67,6.83,19.38,6.83s19.37-3.06,19.37-6.83V8.74C134.87,12.51,126.2,15.57,115.5,15.57Z" style="fill:#2b83e4;stroke:#2b83e4;stroke-miterlimit:10;stroke-width:2px"/><path d="M105.3,35.45l1-1.22a3.15,3.15,0,0,0,2,.75c.71,0,1-.27,1-.69s-.42-.6-1.1-.87l-1-.43a2.29,2.29,0,0,1-1.58-2.14,2.57,2.57,0,0,1,2.83-2.36,3.75,3.75,0,0,1,2.53,1l-1,1.21a2.8,2.8,0,0,0-1.56-.57c-.57,0-1,.22-1,.63s.5.61,1.19.89l1,.39a2.16,2.16,0,0,1,1.55,2.13c0,1.31-1.09,2.44-3,2.44A4.21,4.21,0,0,1,105.3,35.45Z" style="fill:#fff"/><path d="M114.85,36.5c-1.64-.36-2.72-1.8-2.72-4,0-2.57,1.45-4,3.57-4s3.58,1.46,3.58,4c0,2.07-1,3.46-2.46,3.92a2,2,0,0,0,1.7.73,3.17,3.17,0,0,0,.88-.12l.32,1.33a3.12,3.12,0,0,1-1.41.28A3.64,3.64,0,0,1,114.85,36.5Zm2.52-4c0-1.53-.64-2.41-1.67-2.41S114,31,114,32.51s.64,2.55,1.66,2.55S117.37,34.13,117.37,32.51Z" style="fill:#fff"/><path d="M120.73,28.63h1.87v6.25h3v1.56h-4.91Z" style="fill:#fff"/><ellipse cx="163.05" cy="8.74" rx="19.38" ry="6.83" style="fill:#fff;stroke:#2b83e4;stroke-miterlimit:10;stroke-width:2px"/><path d="M163.05,15.57c-10.7,0-19.37-3.06-19.37-6.83V46.4c0,3.77,8.67,6.83,19.37,6.83s19.38-3.06,19.38-6.83V8.74C182.43,12.51,173.76,15.57,163.05,15.57Z" style="fill:#2b83e4;stroke:#2b83e4;stroke-miterlimit:10;stroke-width:2px"/><path d="M152.86,35.45l1-1.22a3.15,3.15,0,0,0,2,.75c.71,0,1-.27,1-.69s-.42-.6-1.1-.87l-1-.43a2.29,2.29,0,0,1-1.58-2.14A2.57,2.57,0,0,1,156,28.49a3.75,3.75,0,0,1,2.53,1l-1,1.21A2.8,2.8,0,0,0,156,30.1c-.57,0-1,.22-1,.63s.5.61,1.19.89l1,.39a2.16,2.16,0,0,1,1.55,2.13c0,1.31-1.09,2.44-3,2.44A4.21,4.21,0,0,1,152.86,35.45Z" style="fill:#fff"/><path d="M162.41,36.5c-1.64-.36-2.72-1.8-2.72-4,0-2.57,1.45-4,3.57-4s3.58,1.46,3.58,4c0,2.07-1,3.46-2.46,3.92a2,2,0,0,0,1.7.73A3.17,3.17,0,0,0,167,37l.32,1.33a3.12,3.12,0,0,1-1.41.28A3.64,3.64,0,0,1,162.41,36.5Zm2.52-4c0-1.53-.64-2.41-1.67-2.41s-1.66.88-1.66,2.41.64,2.55,1.66,2.55S164.93,34.13,164.93,32.51Z" style="fill:#fff"/><path d="M168.29,28.63h1.87v6.25h3v1.56h-4.91Z" style="fill:#fff"/><ellipse cx="210.61" cy="8.89" rx="19.38" ry="6.83" style="fill:#fff;stroke:#2b83e4;stroke-miterlimit:10;stroke-width:2px"/><path d="M210.61,15.71c-10.7,0-19.37-3.05-19.37-6.82V46.54c0,3.77,8.67,6.83,19.37,6.83S230,50.31,230,46.54V8.89C230,12.66,221.32,15.71,210.61,15.71Z" style="fill:#2b83e4;stroke:#2b83e4;stroke-miterlimit:10;stroke-width:2px"/><path d="M200.42,35.59l1-1.21a3.14,3.14,0,0,0,2,.74c.71,0,1-.26,1-.68s-.42-.6-1.1-.88l-1-.43A2.27,2.27,0,0,1,200.72,31a2.58,2.58,0,0,1,2.83-2.37,3.75,3.75,0,0,1,2.53,1l-1,1.22a2.75,2.75,0,0,0-1.56-.58c-.58,0-1,.23-1,.64s.49.61,1.19.88l1,.4a2.14,2.14,0,0,1,1.55,2.12c0,1.31-1.09,2.45-3,2.45A4.17,4.17,0,0,1,200.42,35.59Z" style="fill:#fff"/><path d="M210,36.64c-1.64-.36-2.72-1.8-2.72-4,0-2.57,1.45-4,3.57-4s3.58,1.47,3.58,4c0,2.07-1,3.47-2.46,3.92a2,2,0,0,0,1.7.73,2.84,2.84,0,0,0,.88-.12l.32,1.33a3.13,3.13,0,0,1-1.42.28A3.63,3.63,0,0,1,210,36.64Zm2.52-4c0-1.52-.64-2.41-1.67-2.41s-1.66.89-1.66,2.41.64,2.56,1.66,2.56S212.49,34.27,212.49,32.65Z" style="fill:#fff"/><path d="M215.85,28.78h1.87V35h3v1.56h-4.91Z" style="fill:#fff"/><ellipse cx="20.81" cy="64.26" rx="19.38" ry="6.83" style="fill:#fff;stroke:#2b83e4;stroke-miterlimit:10;stroke-width:2px"/><path d="M20.81,71.08C10.1,71.08,1.43,68,1.43,64.26v37.65c0,3.77,8.67,6.83,19.38,6.83s19.37-3.06,19.37-6.83V64.26C40.18,68,31.51,71.08,20.81,71.08Z" style="fill:#2b83e4;stroke:#2b83e4;stroke-miterlimit:10;stroke-width:2px"/><path d="M10.61,91l1-1.21a3.19,3.19,0,0,0,2,.74c.71,0,1-.27,1-.68s-.42-.6-1.1-.88l-1-.43a2.29,2.29,0,0,1-1.58-2.14A2.58,2.58,0,0,1,13.74,84a3.75,3.75,0,0,1,2.53,1l-1,1.21a2.8,2.8,0,0,0-1.56-.57c-.57,0-1,.23-1,.63s.5.61,1.19.89l1,.4a2.14,2.14,0,0,1,1.55,2.12c0,1.31-1.09,2.45-3,2.45A4.18,4.18,0,0,1,10.61,91Z" style="fill:#fff"/><path d="M20.16,92c-1.64-.36-2.72-1.8-2.72-4,0-2.57,1.45-4,3.57-4s3.58,1.46,3.58,4c0,2.07-1,3.46-2.46,3.92a2,2,0,0,0,1.7.73,3.17,3.17,0,0,0,.88-.12L25,93.88a3.12,3.12,0,0,1-1.41.28A3.64,3.64,0,0,1,20.16,92Zm2.52-4c0-1.52-.64-2.41-1.67-2.41s-1.66.89-1.66,2.41S20,90.57,21,90.57,22.68,89.64,22.68,88Z" style="fill:#fff"/><path d="M26,84.14h1.87v6.25h3V92H26Z" style="fill:#fff"/><ellipse cx="68.37" cy="65.17" rx="19.38" ry="6.83" style="fill:#fff;stroke:#2b83e4;stroke-miterlimit:10;stroke-width:2px"/><path d="M68.37,72C57.66,72,49,68.94,49,65.17v37.66c0,3.77,8.67,6.83,19.38,6.83s19.37-3.06,19.37-6.83V65.17C87.74,68.94,79.07,72,68.37,72Z" style="fill:#2b83e4;stroke:#2b83e4;stroke-miterlimit:10;stroke-width:2px"/><path d="M58.17,91.87l1-1.21a3.15,3.15,0,0,0,2,.75c.71,0,1-.27,1-.69s-.42-.6-1.1-.87l-1-.43a2.29,2.29,0,0,1-1.58-2.14,2.57,2.57,0,0,1,2.83-2.36,3.75,3.75,0,0,1,2.53,1l-1,1.21a2.8,2.8,0,0,0-1.56-.57c-.57,0-.95.22-.95.63s.5.61,1.19.89l1,.39a2.16,2.16,0,0,1,1.55,2.13c0,1.3-1.09,2.44-3,2.44A4.18,4.18,0,0,1,58.17,91.87Z" style="fill:#fff"/><path d="M67.72,92.93c-1.64-.36-2.72-1.8-2.72-4,0-2.57,1.45-4,3.57-4s3.58,1.46,3.58,4c0,2.07-1,3.46-2.46,3.92a2,2,0,0,0,1.7.73,3.17,3.17,0,0,0,.88-.12l.32,1.33a3.12,3.12,0,0,1-1.41.28A3.64,3.64,0,0,1,67.72,92.93Zm2.52-4c0-1.53-.64-2.41-1.67-2.41s-1.66.88-1.66,2.41.64,2.55,1.66,2.55S70.24,90.56,70.24,88.94Z" style="fill:#fff"/><path d="M73.6,85.06h1.87v6.25h3v1.56H73.6Z" style="fill:#fff"/><ellipse cx="115.92" cy="65.17" rx="19.38" ry="6.83" style="fill:#fff;stroke:#2b83e4;stroke-miterlimit:10;stroke-width:2px"/><path d="M115.92,72c-10.7,0-19.37-3.06-19.37-6.83v37.66c0,3.77,8.67,6.83,19.37,6.83s19.38-3.06,19.38-6.83V65.17C135.3,68.94,126.63,72,115.92,72Z" style="fill:#2b83e4;stroke:#2b83e4;stroke-miterlimit:10;stroke-width:2px"/><path d="M105.73,91.87l1-1.21a3.15,3.15,0,0,0,2,.75c.71,0,1-.27,1-.69s-.42-.6-1.1-.87l-1-.43A2.29,2.29,0,0,1,106,87.28a2.57,2.57,0,0,1,2.83-2.36,3.75,3.75,0,0,1,2.53,1l-1,1.21a2.8,2.8,0,0,0-1.56-.57c-.57,0-1,.22-1,.63s.5.61,1.19.89l1,.39a2.16,2.16,0,0,1,1.55,2.13c0,1.3-1.09,2.44-3,2.44A4.18,4.18,0,0,1,105.73,91.87Z" style="fill:#fff"/><path d="M115.28,92.93c-1.64-.36-2.72-1.8-2.72-4,0-2.57,1.45-4,3.57-4s3.58,1.46,3.58,4c0,2.07-1,3.46-2.46,3.92a2,2,0,0,0,1.7.73,3.17,3.17,0,0,0,.88-.12l.32,1.33a3.13,3.13,0,0,1-1.42.28A3.63,3.63,0,0,1,115.28,92.93Zm2.52-4c0-1.53-.64-2.41-1.67-2.41s-1.66.88-1.66,2.41.64,2.55,1.66,2.55S117.8,90.56,117.8,88.94Z" style="fill:#fff"/><path d="M121.16,85.06H123v6.25h3v1.56h-4.91Z" style="fill:#fff"/><ellipse cx="163.48" cy="65.17" rx="19.38" ry="6.83" style="fill:#fff;stroke:#2b83e4;stroke-miterlimit:10;stroke-width:2px"/><path d="M163.48,72c-10.7,0-19.37-3.06-19.37-6.83v37.66c0,3.77,8.67,6.83,19.37,6.83s19.38-3.06,19.38-6.83V65.17C182.86,68.94,174.19,72,163.48,72Z" style="fill:#2b83e4;stroke:#2b83e4;stroke-miterlimit:10;stroke-width:2px"/><path d="M153.29,91.87l1-1.21a3.15,3.15,0,0,0,2,.75c.71,0,1-.27,1-.69s-.42-.6-1.1-.87l-1-.43a2.29,2.29,0,0,1-1.58-2.14,2.57,2.57,0,0,1,2.83-2.36,3.75,3.75,0,0,1,2.53,1l-1,1.21a2.8,2.8,0,0,0-1.56-.57c-.58,0-.95.22-.95.63s.49.61,1.19.89l1,.39a2.16,2.16,0,0,1,1.55,2.13c0,1.3-1.09,2.44-3,2.44A4.17,4.17,0,0,1,153.29,91.87Z" style="fill:#fff"/><path d="M162.84,92.93c-1.64-.36-2.72-1.8-2.72-4,0-2.57,1.45-4,3.57-4s3.58,1.46,3.58,4c0,2.07-1,3.46-2.46,3.92a2,2,0,0,0,1.7.73,3.17,3.17,0,0,0,.88-.12l.32,1.33a3.13,3.13,0,0,1-1.42.28A3.63,3.63,0,0,1,162.84,92.93Zm2.52-4c0-1.53-.64-2.41-1.67-2.41s-1.67.88-1.67,2.41.65,2.55,1.67,2.55S165.36,90.56,165.36,88.94Z" style="fill:#fff"/><path d="M168.72,85.06h1.87v6.25h3v1.56h-4.91Z" style="fill:#fff"/><ellipse cx="211.04" cy="65.32" rx="19.38" ry="6.83" style="fill:#fff;stroke:#2b83e4;stroke-miterlimit:10;stroke-width:2px"/><path d="M211,72.14c-10.7,0-19.37-3-19.37-6.82V103c0,3.77,8.67,6.83,19.37,6.83s19.38-3.06,19.38-6.83V65.32C230.42,69.09,221.74,72.14,211,72.14Z" style="fill:#2b83e4;stroke:#2b83e4;stroke-miterlimit:10;stroke-width:2px"/><path d="M200.85,92l1-1.21a3.11,3.11,0,0,0,2,.74c.71,0,1-.26,1-.68s-.42-.6-1.1-.88l-1-.43a2.28,2.28,0,0,1-1.58-2.14A2.57,2.57,0,0,1,204,85.06a3.75,3.75,0,0,1,2.53,1l-1,1.22a2.75,2.75,0,0,0-1.56-.58c-.58,0-.95.23-.95.63s.49.62,1.19.89l1,.4a2.14,2.14,0,0,1,1.55,2.12c0,1.31-1.09,2.45-3,2.45A4.17,4.17,0,0,1,200.85,92Z" style="fill:#fff"/><path d="M210.4,93.07c-1.64-.36-2.72-1.8-2.72-4,0-2.57,1.45-4,3.57-4s3.58,1.47,3.58,4c0,2.07-1,3.47-2.46,3.92a2,2,0,0,0,1.7.73,2.84,2.84,0,0,0,.88-.12l.32,1.33a3.13,3.13,0,0,1-1.42.28A3.63,3.63,0,0,1,210.4,93.07Zm2.52-4c0-1.52-.64-2.41-1.67-2.41s-1.67.89-1.67,2.41.65,2.55,1.67,2.55S212.92,90.7,212.92,89.08Z" style="fill:#fff"/><path d="M216.28,85.21h1.87v6.24h3V93h-4.91Z" style="fill:#fff"/><ellipse cx="20.81" cy="121.75" rx="19.38" ry="6.83" style="fill:#fff;stroke:#2b83e4;stroke-miterlimit:10;stroke-width:2px"/><path d="M20.81,128.57c-10.71,0-19.38-3-19.38-6.82V159.4c0,3.77,8.67,6.83,19.38,6.83s19.37-3.06,19.37-6.83V121.75C40.18,125.52,31.51,128.57,20.81,128.57Z" style="fill:#2b83e4;stroke:#2b83e4;stroke-miterlimit:10;stroke-width:2px"/><path d="M10.61,148.45l1-1.21a3.14,3.14,0,0,0,2,.74c.71,0,1-.26,1-.68s-.42-.6-1.1-.88l-1-.43a2.29,2.29,0,0,1-1.58-2.14,2.58,2.58,0,0,1,2.83-2.36,3.75,3.75,0,0,1,2.53,1l-1,1.21a2.8,2.8,0,0,0-1.56-.57c-.57,0-1,.23-1,.63s.5.62,1.19.89l1,.4a2.14,2.14,0,0,1,1.55,2.12c0,1.31-1.09,2.45-3,2.45A4.18,4.18,0,0,1,10.61,148.45Z" style="fill:#fff"/><path d="M20.16,149.5c-1.64-.36-2.72-1.8-2.72-4,0-2.57,1.45-4,3.57-4s3.58,1.46,3.58,4c0,2.07-1,3.47-2.46,3.92a2,2,0,0,0,1.7.73,3.17,3.17,0,0,0,.88-.12l.32,1.33a3.12,3.12,0,0,1-1.41.28A3.64,3.64,0,0,1,20.16,149.5Zm2.52-4c0-1.52-.64-2.41-1.67-2.41s-1.66.89-1.66,2.41.64,2.55,1.66,2.55S22.68,147.13,22.68,145.51Z" style="fill:#fff"/><path d="M26,141.64h1.87v6.24h3v1.56H26Z" style="fill:#fff"/><ellipse cx="68.37" cy="122.66" rx="19.38" ry="6.83" style="fill:#fff;stroke:#2b83e4;stroke-miterlimit:10;stroke-width:2px"/><path d="M68.37,129.49c-10.71,0-19.38-3.06-19.38-6.83v37.66c0,3.77,8.67,6.83,19.38,6.83s19.37-3.06,19.37-6.83V122.66C87.74,126.43,79.07,129.49,68.37,129.49Z" style="fill:#2b83e4;stroke:#2b83e4;stroke-miterlimit:10;stroke-width:2px"/><path d="M58.17,149.37l1-1.22a3.15,3.15,0,0,0,2,.75c.71,0,1-.27,1-.69s-.42-.6-1.1-.87l-1-.43a2.29,2.29,0,0,1-1.58-2.14,2.57,2.57,0,0,1,2.83-2.36,3.75,3.75,0,0,1,2.53,1l-1,1.21A2.8,2.8,0,0,0,61.3,144c-.57,0-.95.22-.95.63s.5.61,1.19.89l1,.4a2.14,2.14,0,0,1,1.55,2.12c0,1.31-1.09,2.44-3,2.44A4.17,4.17,0,0,1,58.17,149.37Z" style="fill:#fff"/><path d="M67.72,150.42c-1.64-.36-2.72-1.8-2.72-4,0-2.57,1.45-4,3.57-4s3.58,1.46,3.58,4c0,2.07-1,3.46-2.46,3.92a2,2,0,0,0,1.7.73,3.17,3.17,0,0,0,.88-.12l.32,1.33a3.12,3.12,0,0,1-1.41.28A3.64,3.64,0,0,1,67.72,150.42Zm2.52-4c0-1.53-.64-2.41-1.67-2.41s-1.66.88-1.66,2.41.64,2.55,1.66,2.55S70.24,148.05,70.24,146.43Z" style="fill:#fff"/><path d="M73.6,142.55h1.87v6.25h3v1.56H73.6Z" style="fill:#fff"/><ellipse cx="115.92" cy="122.66" rx="19.38" ry="6.83" style="fill:#fff;stroke:#2b83e4;stroke-miterlimit:10;stroke-width:2px"/><path d="M115.92,129.49c-10.7,0-19.37-3.06-19.37-6.83v37.66c0,3.77,8.67,6.83,19.37,6.83s19.38-3.06,19.38-6.83V122.66C135.3,126.43,126.63,129.49,115.92,129.49Z" style="fill:#2b83e4;stroke:#2b83e4;stroke-miterlimit:10;stroke-width:2px"/><path d="M105.73,149.37l1-1.22a3.15,3.15,0,0,0,2,.75c.71,0,1-.27,1-.69s-.42-.6-1.1-.87l-1-.43a2.29,2.29,0,0,1-1.58-2.14,2.57,2.57,0,0,1,2.83-2.36,3.75,3.75,0,0,1,2.53,1l-1,1.21a2.8,2.8,0,0,0-1.56-.57c-.57,0-1,.22-1,.63s.5.61,1.19.89l1,.4a2.14,2.14,0,0,1,1.55,2.12c0,1.31-1.09,2.44-3,2.44A4.17,4.17,0,0,1,105.73,149.37Z" style="fill:#fff"/><path d="M115.28,150.42c-1.64-.36-2.72-1.8-2.72-4,0-2.57,1.45-4,3.57-4s3.58,1.46,3.58,4c0,2.07-1,3.46-2.46,3.92a2,2,0,0,0,1.7.73,3.17,3.17,0,0,0,.88-.12l.32,1.33a3.13,3.13,0,0,1-1.42.28A3.63,3.63,0,0,1,115.28,150.42Zm2.52-4c0-1.53-.64-2.41-1.67-2.41s-1.66.88-1.66,2.41.64,2.55,1.66,2.55S117.8,148.05,117.8,146.43Z" style="fill:#fff"/><path d="M121.16,142.55H123v6.25h3v1.56h-4.91Z" style="fill:#fff"/><ellipse cx="163.48" cy="122.66" rx="19.38" ry="6.83" style="fill:#fff;stroke:#2b83e4;stroke-miterlimit:10;stroke-width:2px"/><path d="M163.48,129.49c-10.7,0-19.37-3.06-19.37-6.83v37.66c0,3.77,8.67,6.83,19.37,6.83s19.38-3.06,19.38-6.83V122.66C182.86,126.43,174.19,129.49,163.48,129.49Z" style="fill:#2b83e4;stroke:#2b83e4;stroke-miterlimit:10;stroke-width:2px"/><path d="M153.29,149.37l1-1.22a3.15,3.15,0,0,0,2,.75c.71,0,1-.27,1-.69s-.42-.6-1.1-.87l-1-.43a2.29,2.29,0,0,1-1.58-2.14,2.57,2.57,0,0,1,2.83-2.36,3.75,3.75,0,0,1,2.53,1l-1,1.21a2.8,2.8,0,0,0-1.56-.57c-.58,0-.95.22-.95.63s.49.61,1.19.89l1,.4a2.14,2.14,0,0,1,1.55,2.12c0,1.31-1.09,2.44-3,2.44A4.16,4.16,0,0,1,153.29,149.37Z" style="fill:#fff"/><path d="M162.84,150.42c-1.64-.36-2.72-1.8-2.72-4,0-2.57,1.45-4,3.57-4s3.58,1.46,3.58,4c0,2.07-1,3.46-2.46,3.92a2,2,0,0,0,1.7.73,3.17,3.17,0,0,0,.88-.12l.32,1.33a3.13,3.13,0,0,1-1.42.28A3.63,3.63,0,0,1,162.84,150.42Zm2.52-4c0-1.53-.64-2.41-1.67-2.41s-1.67.88-1.67,2.41.65,2.55,1.67,2.55S165.36,148.05,165.36,146.43Z" style="fill:#fff"/><path d="M168.72,142.55h1.87v6.25h3v1.56h-4.91Z" style="fill:#fff"/><ellipse cx="211.04" cy="122.81" rx="19.38" ry="6.83" style="fill:#fff;stroke:#2b83e4;stroke-miterlimit:10;stroke-width:2px"/><path d="M211,129.63c-10.7,0-19.37-3-19.37-6.82v37.65c0,3.77,8.67,6.83,19.37,6.83s19.38-3.06,19.38-6.83V122.81C230.42,126.58,221.74,129.63,211,129.63Z" style="fill:#2b83e4;stroke:#2b83e4;stroke-miterlimit:10;stroke-width:2px"/><path d="M200.85,149.51l1-1.21a3.11,3.11,0,0,0,2,.74c.71,0,1-.26,1-.68s-.42-.6-1.1-.88l-1-.43a2.27,2.27,0,0,1-1.58-2.13,2.57,2.57,0,0,1,2.83-2.37,3.75,3.75,0,0,1,2.53,1l-1,1.22a2.75,2.75,0,0,0-1.56-.58c-.58,0-.95.23-.95.64s.49.61,1.19.88l1,.4a2.14,2.14,0,0,1,1.55,2.12c0,1.31-1.09,2.45-3,2.45A4.17,4.17,0,0,1,200.85,149.51Z" style="fill:#fff"/><path d="M210.4,150.56c-1.64-.36-2.72-1.79-2.72-4,0-2.57,1.45-4,3.57-4s3.58,1.47,3.58,4c0,2.08-1,3.47-2.46,3.92a2,2,0,0,0,1.7.73,2.84,2.84,0,0,0,.88-.12l.32,1.34a3.29,3.29,0,0,1-1.42.27A3.63,3.63,0,0,1,210.4,150.56Zm2.52-4c0-1.52-.64-2.41-1.67-2.41s-1.67.89-1.67,2.41.65,2.56,1.67,2.56S212.92,148.19,212.92,146.57Z" style="fill:#fff"/><path d="M216.28,142.7h1.87v6.24h3v1.56h-4.91Z" style="fill:#fff"/><ellipse cx="20.38" cy="180.3" rx="19.38" ry="6.83" style="fill:#fff;stroke:#2b83e4;stroke-miterlimit:10;stroke-width:2px"/><path d="M20.38,187.12C9.67,187.12,1,184.07,1,180.3V218c0,3.77,8.67,6.83,19.38,6.83s19.37-3.06,19.37-6.83V180.3C39.75,184.07,31.08,187.12,20.38,187.12Z" style="fill:#2b83e4;stroke:#2b83e4;stroke-miterlimit:10;stroke-width:2px"/><path d="M10.18,207l1-1.21a3.09,3.09,0,0,0,2,.74c.71,0,1-.26,1-.68s-.42-.6-1.1-.88l-1-.43a2.27,2.27,0,0,1-1.58-2.13A2.58,2.58,0,0,1,13.31,200a3.75,3.75,0,0,1,2.53,1l-1,1.22a2.75,2.75,0,0,0-1.56-.58c-.57,0-.94.23-.94.64s.49.61,1.18.88l1,.4a2.13,2.13,0,0,1,1.55,2.12c0,1.31-1.09,2.45-3,2.45A4.18,4.18,0,0,1,10.18,207Z" style="fill:#fff"/><path d="M19.73,208.05c-1.64-.35-2.72-1.79-2.72-4,0-2.56,1.45-4,3.57-4s3.58,1.47,3.58,4c0,2.08-1,3.47-2.46,3.92a2,2,0,0,0,1.7.73,2.84,2.84,0,0,0,.88-.12l.32,1.34a3.28,3.28,0,0,1-1.41.27A3.64,3.64,0,0,1,19.73,208.05Zm2.52-4c0-1.52-.63-2.41-1.67-2.41s-1.66.89-1.66,2.41.64,2.56,1.66,2.56S22.25,205.68,22.25,204.06Z" style="fill:#fff"/><path d="M25.61,200.19h1.87v6.25h3V208H25.61Z" style="fill:#fff"/><ellipse cx="67.94" cy="181.22" rx="19.38" ry="6.83" style="fill:#fff;stroke:#2b83e4;stroke-miterlimit:10;stroke-width:2px"/><path d="M67.94,188c-10.71,0-19.38-3-19.38-6.82v37.65c0,3.77,8.67,6.83,19.38,6.83s19.37-3.06,19.37-6.83V181.22C87.31,185,78.64,188,67.94,188Z" style="fill:#2b83e4;stroke:#2b83e4;stroke-miterlimit:10;stroke-width:2px"/><path d="M57.74,207.92l1-1.21a3.14,3.14,0,0,0,2,.74c.71,0,1-.26,1-.68s-.42-.6-1.1-.88l-1-.43A2.29,2.29,0,0,1,58,203.32,2.58,2.58,0,0,1,60.87,201a3.75,3.75,0,0,1,2.53,1l-1,1.21a2.8,2.8,0,0,0-1.56-.57c-.57,0-.95.23-.95.63s.5.62,1.19.89l1,.4a2.14,2.14,0,0,1,1.55,2.12c0,1.31-1.09,2.45-3,2.45A4.18,4.18,0,0,1,57.74,207.92Z" style="fill:#fff"/><path d="M67.29,209c-1.64-.36-2.72-1.8-2.72-4,0-2.57,1.45-4,3.57-4s3.58,1.46,3.58,4c0,2.07-1,3.47-2.46,3.92a2,2,0,0,0,1.7.73,3.17,3.17,0,0,0,.88-.12l.32,1.33a3.12,3.12,0,0,1-1.41.28A3.64,3.64,0,0,1,67.29,209Zm2.52-4c0-1.52-.64-2.41-1.67-2.41s-1.66.89-1.66,2.41.64,2.55,1.66,2.55S69.81,206.6,69.81,205Z" style="fill:#fff"/><path d="M73.17,201.11H75v6.24h3v1.56H73.17Z" style="fill:#fff"/><ellipse cx="115.5" cy="181.22" rx="19.38" ry="6.83" style="fill:#fff;stroke:#2b83e4;stroke-miterlimit:10;stroke-width:2px"/><path d="M115.5,188c-10.71,0-19.38-3-19.38-6.82v37.65c0,3.77,8.67,6.83,19.38,6.83s19.37-3.06,19.37-6.83V181.22C134.87,185,126.2,188,115.5,188Z" style="fill:#2b83e4;stroke:#2b83e4;stroke-miterlimit:10;stroke-width:2px"/><path d="M105.3,207.92l1-1.21a3.14,3.14,0,0,0,2,.74c.71,0,1-.26,1-.68s-.42-.6-1.1-.88l-1-.43a2.29,2.29,0,0,1-1.58-2.14,2.58,2.58,0,0,1,2.83-2.36,3.75,3.75,0,0,1,2.53,1l-1,1.21a2.8,2.8,0,0,0-1.56-.57c-.57,0-1,.23-1,.63s.5.62,1.19.89l1,.4a2.14,2.14,0,0,1,1.55,2.12c0,1.31-1.09,2.45-3,2.45A4.18,4.18,0,0,1,105.3,207.92Z" style="fill:#fff"/><path d="M114.85,209c-1.64-.36-2.72-1.8-2.72-4,0-2.57,1.45-4,3.57-4s3.58,1.46,3.58,4c0,2.07-1,3.47-2.46,3.92a2,2,0,0,0,1.7.73,3.17,3.17,0,0,0,.88-.12l.32,1.33a3.12,3.12,0,0,1-1.41.28A3.64,3.64,0,0,1,114.85,209Zm2.52-4c0-1.52-.64-2.41-1.67-2.41S114,203.46,114,205s.64,2.55,1.66,2.55S117.37,206.6,117.37,205Z" style="fill:#fff"/><path d="M120.73,201.11h1.87v6.24h3v1.56h-4.91Z" style="fill:#fff"/><ellipse cx="163.05" cy="181.22" rx="19.38" ry="6.83" style="fill:#fff;stroke:#2b83e4;stroke-miterlimit:10;stroke-width:2px"/><path d="M163.05,188c-10.7,0-19.37-3-19.37-6.82v37.65c0,3.77,8.67,6.83,19.37,6.83s19.38-3.06,19.38-6.83V181.22C182.43,185,173.76,188,163.05,188Z" style="fill:#2b83e4;stroke:#2b83e4;stroke-miterlimit:10;stroke-width:2px"/><path d="M152.86,207.92l1-1.21a3.14,3.14,0,0,0,2,.74c.71,0,1-.26,1-.68s-.42-.6-1.1-.88l-1-.43a2.29,2.29,0,0,1-1.58-2.14A2.58,2.58,0,0,1,156,201a3.75,3.75,0,0,1,2.53,1l-1,1.21a2.8,2.8,0,0,0-1.56-.57c-.57,0-1,.23-1,.63s.5.62,1.19.89l1,.4a2.14,2.14,0,0,1,1.55,2.12c0,1.31-1.09,2.45-3,2.45A4.18,4.18,0,0,1,152.86,207.92Z" style="fill:#fff"/><path d="M162.41,209c-1.64-.36-2.72-1.8-2.72-4,0-2.57,1.45-4,3.57-4s3.58,1.46,3.58,4c0,2.07-1,3.47-2.46,3.92a2,2,0,0,0,1.7.73,3.17,3.17,0,0,0,.88-.12l.32,1.33a3.12,3.12,0,0,1-1.41.28A3.64,3.64,0,0,1,162.41,209Zm2.52-4c0-1.52-.64-2.41-1.67-2.41s-1.66.89-1.66,2.41.64,2.55,1.66,2.55S164.93,206.6,164.93,205Z" style="fill:#fff"/><path d="M168.29,201.11h1.87v6.24h3v1.56h-4.91Z" style="fill:#fff"/><ellipse cx="210.61" cy="181.36" rx="19.38" ry="6.83" style="fill:#fff;stroke:#2b83e4;stroke-miterlimit:10;stroke-width:2px"/><path d="M210.61,188.18c-10.7,0-19.37-3.05-19.37-6.82V219c0,3.77,8.67,6.82,19.37,6.82S230,222.79,230,219V181.36C230,185.13,221.32,188.18,210.61,188.18Z" style="fill:#2b83e4;stroke:#2b83e4;stroke-miterlimit:10;stroke-width:2px"/><path d="M200.42,208.06l1-1.21a3.14,3.14,0,0,0,2,.74c.71,0,1-.26,1-.68s-.42-.6-1.1-.88l-1-.43a2.27,2.27,0,0,1-1.58-2.13,2.57,2.57,0,0,1,2.83-2.36,3.7,3.7,0,0,1,2.53,1l-1,1.21a2.82,2.82,0,0,0-1.56-.58c-.58,0-1,.23-1,.64s.49.61,1.19.89l1,.39a2.14,2.14,0,0,1,1.55,2.12c0,1.31-1.09,2.45-3,2.45A4.17,4.17,0,0,1,200.42,208.06Z" style="fill:#fff"/><path d="M210,209.12c-1.64-.36-2.72-1.8-2.72-4,0-2.56,1.45-4,3.57-4s3.58,1.46,3.58,4c0,2.08-1,3.47-2.46,3.92a2,2,0,0,0,1.7.74,3.17,3.17,0,0,0,.88-.12l.32,1.33a3.29,3.29,0,0,1-1.42.27A3.64,3.64,0,0,1,210,209.12Zm2.52-4c0-1.52-.64-2.41-1.67-2.41s-1.66.89-1.66,2.41.64,2.56,1.66,2.56S212.49,206.74,212.49,205.12Z" style="fill:#fff"/><path d="M215.85,201.25h1.87v6.25h3v1.56h-4.91Z" style="fill:#fff"/></svg>