<svg version="1.1" id="Layer_1" xmlns="http://www.w3.org/2000/svg" x="0" y="0" viewBox="0 0 2246 1400" xml:space="preserve"><style>.st1,.st2{fill:none;stroke:#25beca;stroke-width:.7308;stroke-linecap:round;stroke-linejoin:round}.st2{stroke-dasharray:.5454,3.643}.st6{stroke-dasharray:.5563,3.703}.st11,.st6,.st7{fill:none;stroke:#25beca;stroke-width:.7308;stroke-linecap:round;stroke-linejoin:round}.st7{stroke-dasharray:.5508,3.6702}.st11{stroke-miterlimit:10}.st12,.st13,.st14,.st15,.st20,.st22,.st24,.st28,.st29,.st30,.st31,.st32{fill:none;stroke:#fff;stroke-width:.7308;stroke-linecap:round;stroke-linejoin:round}.st13,.st14,.st15,.st20,.st22,.st24,.st28,.st29,.st30,.st31,.st32{stroke-dasharray:.5454,3.643}.st14,.st15,.st20,.st22,.st24,.st28,.st29,.st30,.st31,.st32{stroke-dasharray:.5508,3.6866}.st15,.st20,.st22,.st24,.st28,.st29,.st30,.st31,.st32{stroke-dasharray:.5563,3.703}.st20,.st22,.st24,.st28,.st29,.st30,.st31,.st32{stroke:#25beca;stroke-dasharray:2.1542,7.1769}.st22,.st24,.st28,.st29,.st30,.st31,.st32{stroke-dasharray:2.176,7.2532}.st24,.st28,.st29,.st30,.st31,.st32{stroke-dasharray:2.2578,7.5259}.st28,.st29,.st30,.st31,.st32{stroke:#fff}.st29,.st30,.st31,.st32{stroke-dasharray:2.2196,7.4059}.st30,.st31,.st32{stroke-dasharray:2.2578,7.5313}.st31,.st32{stroke-dasharray:2.176,7.2532}.st32{stroke-dasharray:2.1869,7.2805}.st36{stroke:#fff;stroke-dasharray:2.1651,7.2205}.st36,.st39,.st41{fill:none;stroke-width:.7308;stroke-linecap:round;stroke-linejoin:round}.st39{stroke-dasharray:2.1978,7.335;stroke:#fff}.st41{stroke:#ffcf33;stroke-miterlimit:10}</style><path fill="#10191d" d="M0 0h2250v1400.4H0z"/><path class="st1" d="M1965.3 1321.5l-.1-.2"/><path class="st2" d="M1963.4 1318.1l-143.7-248.8"/><path class="st1" d="M1818.8 1067.7l-.1-.2M1752.7 1258h.2"/><path class="st2" d="M1756.6 1258h170"/><path class="st1" d="M1928.4 1258h.3M2016.7 1181.8l-.2-.2"/><path class="st2" d="M2014.7 1178.4l-143.6-248.8"/><path class="st1" d="M1870.1 928l-.1-.3h-.3"/><path fill="none" stroke="#25beca" stroke-width=".731" stroke-linecap="round" stroke-linejoin="round" stroke-dasharray=".5454,3.6266" d="M1866.1 927.7l-156.7-.3"/><path class="st1" d="M1707.5 927.4h-.2l.1-.3"/><path fill="none" stroke="#25beca" stroke-width=".731" stroke-linecap="round" stroke-linejoin="round" stroke-dasharray=".5508,3.6866" d="M1709.3 923.9L1817.6 739"/><path class="st1" d="M1818.5 737.5l.2-.3M1957.3 1181.8h.3"/><path fill="none" stroke="#25beca" stroke-width=".731" stroke-linecap="round" stroke-linejoin="round" stroke-dasharray=".5617,3.7248" d="M1961.3 1181.8h126.6"/><path class="st1" d="M2089.7 1181.8h.3l.1-.2"/><path class="st6" d="M2092 1178.4l62.9-109.1"/><path class="st1" d="M2155.9 1067.7l.1-.2h.3"/><path class="st2" d="M2159.9 1067.5h84.7"/><path class="st1" d="M2246.4 1067.5h.3l.1-.3"/><path class="st7" d="M2245.5 791.5l-29.8-52.5"/><path class="st1" d="M2214.8 737.5l-.1-.3M1752.7 800.7l.1-.2"/><path class="st2" d="M1754.6 797.3l55.7-96.4"/><path class="st1" d="M1811.2 699.3l.1-.2M1860.3 149.2l-.1-.2"/><path fill="none" stroke="#25beca" stroke-width=".731" stroke-linecap="round" stroke-linejoin="round" stroke-dasharray=".5563,3.6975" d="M1858.3 145.8l-60.6-105.4"/><path class="st1" d="M1796.8 38.8l-.1-.2h.2"/><path class="st6" d="M1800.6 38.6h125.9"/><path class="st1" d="M1928.4 38.6h.3"/><path class="st2" d="M1892.5.5l-21.4 36.3"/><path class="st1" d="M1870.1 38.3l-.1.3M2247.5 267.5l-.1-.3h-.3"/><path fill="none" stroke="#25beca" stroke-width=".731" stroke-linecap="round" stroke-linejoin="round" stroke-dasharray=".5508,3.6811" d="M2243.4 267.2h-209.9"/><path class="st1" d="M2031.6 267.2h-.3l-.1.3"/><path class="st7" d="M2029.4 270.6l-165.7 287"/><path class="st1" d="M1862.8 559.1l-.1.3.1.2"/><path class="st2" d="M1864.6 562.8l99.7 172.6"/><path class="st1" d="M1965.2 737l.1.2h.3"/><path fill="none" stroke="#25beca" stroke-width=".731" stroke-linecap="round" stroke-linejoin="round" stroke-dasharray=".5508,3.6757" d="M1969.3 737.2h278.6"/><path class="st1" d="M2249.7 737.2h.3l.2-.2"/><path class="st11" d="M2247.7 661h-33M1276 661h557.3L1936 838.8l-36.7 63.5"/><path class="st11" d="M1884.7 1004L1782 826.1h-293.3L1393.3 661M1877.3 1092.9h293.4l75.8 131.6M1386 1004l102.7-177.9M1730.7 330.7l-88 152.5h-161.4l-14.6 25.4H1804l139.3 241.3h-58.6M2207.3 419.7l39.2-68.2M1232 330.7h601.3L1936 152.9 1884.7 64"/><path class="st11" d="M1789.5.5L1694 165.6h-249.6l-95.1 165.1M2245.3 241.8h-96.6l-51.4-88.9h-102.6L1943.3 64 1980.5.5M1928.7 343.4l44 76.3h88l-88 152.4 80.6 139.7M1394.5 2.5l50.2 86.9h-264"/><path class="st12" d="M2068 991.3l.1.2"/><path class="st13" d="M2070 994.7l129 223.4"/><path class="st12" d="M2199.9 1219.7l.1.2-.1.2"/><path class="st13" d="M2198.1 1223.3l-70.4 121.8"/><path class="st12" d="M2126.8 1346.7l-.1.2M1606 1054.8l-.1-.3"/><path class="st13" d="M1604 1051.4l-26.3-45.6"/><path class="st12" d="M1576.8 1004.2l-.1-.2M2075.3 1385l-.1-.2"/><path class="st14" d="M2073.4 1381.6l-92.3-159.9"/><path class="st12" d="M1980.1 1220.1l-.1-.2h-.3"/><path class="st13" d="M1976.1 1219.9h-111.3"/><path class="st12" d="M1862.9 1219.9h-.2M2200 1321.5l.1-.2"/><path class="st15" d="M2202 1318.1l44.5-76.6"/><path class="st12" d="M1730.7 432.4l-.2.2"/><path class="st13" d="M1728.7 435.8l-55.7 96.4"/><path class="st12" d="M1672.1 533.7l-.1.3h-.3"/><path class="st15" d="M1668 534h-125.9"/><path class="st12" d="M1540.3 534h-.3l-.1.2"/><path class="st13" d="M1538 537.4l-55.6 96.4"/><path class="st12" d="M1481.5 635.4l-.2.2h-.2"/><path fill="none" stroke="#fff" stroke-width=".731" stroke-linecap="round" stroke-linejoin="round" stroke-dasharray=".5617,3.7193" d="M1477.3 635.6h-96.5"/><path class="st12" d="M1378.9 635.6h-.2l-.2.2"/><path fill="none" stroke="#fff" stroke-width=".731" stroke-linecap="round" stroke-linejoin="round" stroke-dasharray=".5508,3.6702" d="M1376.7 639L1211 925.9"/><path class="st12" d="M2251.3 749.9l-.1.3"/><path fill="none" stroke="#fff" stroke-width=".731" stroke-linecap="round" stroke-linejoin="round" stroke-dasharray=".5617,3.752" d="M2249.3 753.4l-33.5 58.2"/><path class="st12" d="M2214.8 813.2l-.1.2.1.3M1547.3 1004h.3"/><path class="st13" d="M1551.2 1004h170"/><path class="st12" d="M1723.1 1004h.2l-.1-.3"/><path class="st13" d="M1721.4 1000.6l-129-223.5"/><path class="st12" d="M1591.5 775.6l-.2-.3h-.2"/><path class="st14" d="M1587.4 775.3h-346"/><path class="st12" d="M2068 559.4l.1.2"/><path class="st13" d="M2070 562.8l41 71"/><path class="st12" d="M2111.9 635.4l.1.2h.3"/><path fill="none" stroke="#fff" stroke-width=".731" stroke-linecap="round" stroke-linejoin="round" stroke-dasharray=".5454,3.6539" d="M2115.9 635.6h127"/><path class="st12" d="M2244.8 635.6h.2M2068 .5l.1-.3"/><path class="st13" d="M1716.5.5l-124.1 214.1"/><path class="st12" d="M1591.5 216.2l-.2.2h-.2"/><path class="st13" d="M1587.4 216.4h-316.6"/><path class="st1" d="M1994.7 965.9l.5.9"/><path class="st20" d="M1998.8 973l44.9 77.7"/><path class="st1" d="M2045.5 1053.8l.5 1M1422.7 661l.5 1"/><path fill="none" stroke="#25beca" stroke-width=".731" stroke-linecap="round" stroke-linejoin="round" stroke-dasharray="2.0233,6.7406" d="M1426.6 667.8l15.8 27.4"/><path class="st1" d="M1444.1 698.2l.6.9h1.1"/><path class="st22" d="M1453 699.1h118.9"/><path class="st1" d="M1575.6 699.1h1.1l.5 1"/><path fill="none" stroke="#25beca" stroke-width=".731" stroke-linecap="round" stroke-linejoin="round" stroke-dasharray="2.2087,7.3568" d="M1580.9 706.4l103.4 179.1"/><path class="st1" d="M1686.1 888.7l.6.9h-1.1"/><path class="st24" d="M1678 889.6h-162.5"/><path class="st1" d="M1511.8 889.6h-1.1M1557.3 1406.4l.6-.9"/><path fill="none" stroke="#25beca" stroke-width=".728" stroke-linecap="round" stroke-linejoin="round" stroke-dasharray="2.2047,7.3473" d="M2007 1402.6l117.3-203.9"/><path class="st1" d="M2126.1 1195.5l.6-1h1.1"/><path class="st22" d="M2135 1194.5h111"/><path class="st1" d="M2171.1 736.6l-.6.9"/><path fill="none" stroke="#25beca" stroke-width=".731" stroke-linecap="round" stroke-linejoin="round" stroke-dasharray="2.1869,7.2968" d="M2166.9 743.8l-59.8 103.6"/><path class="st1" d="M2105.2 850.6l-.5.9.5 1"/><path class="st24" d="M2109 859l81.2 140.8"/><path class="st1" d="M2192.1 1003l.6 1M1554.7 25.9l-.6.9"/><path fill="none" stroke="#25beca" stroke-width=".731" stroke-linecap="round" stroke-linejoin="round" stroke-dasharray="2.1923,7.3023" d="M1550.5 33.2l-154.8 268"/><path class="st1" d="M1393.9 304.4l-.6.9h-1.1"/><path class="st20" d="M1385 305.3h-302.3"/><path class="st1" d="M1452 254.5h1.1"/><path class="st24" d="M1460.6 254.5h133.2"/><path class="st1" d="M1597.6 254.5h1.1l.5-.9"/><path class="st24" d="M1603 247.1l81.2-140.8"/><path class="st1" d="M1686.1 103l.6-.9h-1.1"/><path class="st24" d="M1678 102.1h-162.5"/><path class="st1" d="M1511.8 102.1h-1.1"/><path class="st12" d="M1760 1016.7l.6.9"/><path class="st28" d="M1764.3 1024.1l81.3 140.8"/><path class="st12" d="M1847.5 1168.1l.5 1-.5 1"/><path class="st28" d="M1843.7 1176.6l-81.3 140.7"/><path class="st12" d="M1760.6 1320.6l-.6.9M2148.7 445.1h1.1"/><path class="st29" d="M2157.2 445.1h86.7"/><path class="st12" d="M1657.3 788l.6-.9"/><path class="st30" d="M1661.6 780.6l22.6-39.2"/><path class="st12" d="M1686.1 738.2l.6-1h1.1"/><path class="st30" d="M1695.3 737.2h45.2M1249.6 166.6l22.6-39.2"/><path class="st12" d="M1274.1 124.2l.6-1h1.1"/><path class="st30" d="M1283.3 123.2h45.2"/><path class="st12" d="M1744.2 737.2h1.1M2038.7 864.2h1.1"/><path class="st29" d="M2047.2 864.2l199.3.3"/><path class="st12" d="M2207.3 165.6l-.5-.9"/><path class="st31" d="M2203.2 158.4l-59.5-103"/><path class="st12" d="M2141.9 52.2l-.6-.9h-1.1"/><path class="st28" d="M2132.7 51.3h-103.8"/><path class="st12" d="M2025.1 51.3h-1.1l-.5-1"/><path class="st31" d="M2019.8 44.1L1994.5.5"/><path class="st12" d="M2002 902.3l-.5-.9"/><path class="st32" d="M1997.8 895.1l-140.1-242.7"/><path class="st12" d="M1855.9 649.3l-.6-1 .6-1"/><path class="st28" d="M1859.6 640.8l66.6-115.3"/><path class="st12" d="M1928.1 522.2l.6-.9h1.1"/><path class="st28" d="M1937.3 521.3h162.5"/><path class="st12" d="M2103.6 521.3h1.1l.5-1"/><path class="st28" d="M2109 513.8l37.2-64.5"/><path class="st12" d="M2148.1 446l.6-.9-.6-1"/><path fill="none" stroke="#fff" stroke-width=".731" stroke-linecap="round" stroke-linejoin="round" stroke-dasharray="2.1542,7.1769" d="M2144.5 437.9l-44.8-77.7"/><path class="st12" d="M2097.9 357.1l-.6-1h-1.1"/><path fill="none" stroke="#fff" stroke-width=".731" stroke-linecap="round" stroke-linejoin="round" stroke-dasharray="2.0233,6.7406" d="M2089.5 356.1h-31.7"/><path class="st12" d="M2054.4 356.1h-1.1M1664.7 241.8h-1.1"/><path fill="none" stroke="#fff" stroke-width=".731" stroke-linecap="round" stroke-linejoin="round" stroke-dasharray="2.1923,7.3023" d="M1656.3 241.8h-148.2"/><path class="st12" d="M1504.4 241.8h-1.1M2163.3 89.4h-1.1"/><path class="st36" d="M2155 89.4h-221.6"/><path class="st12" d="M1929.8 89.4h-1.1l-.6.9"/><path fill="none" stroke="#fff" stroke-width=".731" stroke-linecap="round" stroke-linejoin="round" stroke-dasharray="2.2087,7.3568" d="M1924.4 96.7l-103.3 179.1"/><path class="st12" d="M1819.2 279l-.5.9h-1.1"/><path fill="none" stroke="#fff" stroke-width=".731" stroke-linecap="round" stroke-linejoin="round" stroke-dasharray="2.225,7.4114" d="M1810.2 279.9h-324.1"/><path class="st12" d="M1482.4 279.9h-1.1l-.5 1"/><path class="st39" d="M1477.1 287.2l-88.7 153.7"/><path class="st12" d="M1386.5 444.1l-.5 1h-1.1"/><path class="st39" d="M1377.6 445.1h-177.5"/><path class="st12" d="M1804 457.8l.6-1"/><path class="st32" d="M1808.2 450.5l140.1-242.7"/><path class="st12" d="M1950.1 204.7l.6-1h1.1"/><path class="st28" d="M1959.3 203.7h103.9"/><path class="st12" d="M2066.9 203.7h1.1M1628 559.4l-.6-1"/><path class="st36" d="M1623.8 552.2l-110.8-192"/><path class="st12" d="M1511.2 357.1l-.5-1h-1.1"/><path fill="none" stroke="#fff" stroke-width=".731" stroke-linecap="round" stroke-linejoin="round" stroke-dasharray="2.1105,7.0405" d="M1502.5 356.1h-60.6"/><path class="st12" d="M1438.4 356.1h-1.1"/><path class="st41" d="M2016.7 775.3l229.8.2M1745.3 1042.1l73.4 127h-44M1467.4 1042.1h365.9M2097.3 686.4L2200 864.2l-51.3 89H2046l-51.3 88.9h-117.4l-36.6-63.5M2104.7 1308.8l58.6-101.6-80.6-139.7M1804 610.2h-308l-23.3-38.9-86.7.8"/><path class="st41" d="M1364 864.2h190.7l95.3-165.1h102.7L1870 495.9M1826 216.4l-51.3-88.9h102.6"/><path class="st41" d="M2246 686.4h-266l-227.3-393.8H1650l-95.3-165.1M2246.5 427.5l-53.8 93.8 44 76.2h8.7"/><path class="st41" d="M1840.7 445.1l80.6-139.8 325.2.2M1906.5.5l-73.2 127M2025.5 2.5l20.5 36.1h102.7l51.3 88.9-102.7 177.8M1804 381.5h-308l-139.3 241.4h-249.4"/><path class="st41" d="M1481.3 407h-146.6l-141.2-244.5"/></svg>