<svg id="Layer_1" data-name="Layer 1" xmlns="http://www.w3.org/2000/svg" viewBox="0 0 300 300"><rect y="-0.48" width="300" height="300" style="fill:none"/><polygon points="63.84 217.14 149.09 161.02 234.72 217.51 235.09 217.15 235.09 138.73 149.09 81.87 63.84 138 63.84 217.14" style="fill:#fecf41;opacity:0.800000011920929;isolation:isolate"/><polygon points="63.84 296.33 149.09 240.21 234.72 296.7 235.09 296.33 235.09 217.92 149.09 161.06 63.84 217.19 63.84 296.33" style="fill:#fecf41;opacity:0.6000000238418579;isolation:isolate"/><polygon points="63.84 137.99 149.09 81.87 234.72 138.36 235.09 137.99 235.09 59.58 149.09 2.72 63.84 58.84 63.84 137.99" style="fill:#fecf41"/><path d="M32.79,182.82H55.9V123.36H36V107.28c11.56-2.17,19.26-5,26.8-9.88H81.86v85.42h19.76v20.93H32.79Z"/><path d="M101.37,150.16c0-36.35,15.41-54.77,38.52-54.77s38.52,18.59,38.52,54.77S163,205.77,139.89,205.77,101.37,186.34,101.37,150.16Zm52.59,0c0-28.81-6.36-34.67-14.07-34.67-7.87,0-14.07,5.86-14.07,34.67,0,28.64,6.2,35.67,14.07,35.67C147.6,185.83,154,178.8,154,150.16Z"/><path d="M203.14,147.65l-28.3-52.93h29l8.88,19.76c2.51,5,4.85,10.72,7.87,17.59h.67c2.51-6.87,4.86-12.56,6.87-17.59l8-19.76h27.63l-28.14,54.1,30,54.93h-29l-10.21-21.44c-2.68-5.53-5.19-11.22-7.87-17.91h-.67c-2.51,6.69-5,12.38-7.37,17.91L201,203.75H173.16Z"/></svg>