<svg xmlns="http://www.w3.org/2000/svg" viewBox="0 0 242.7 40.9" style="width:150px;max-width:150px"><path fill="#f3f6f6" d="M186.5 15.4h3.4v2.8h.1c.2-.5.5-.9.9-1.3s.8-.7 1.3-1 1-.5 1.5-.7c.6-.2 1.1-.2 1.7-.2s1.1.1 1.5.2l-.2 3.7c-.3-.1-.6-.1-.8-.2-.3-.1-.6-.1-.8-.1-1.7 0-3 .5-3.8 1.4-.9.9-1.3 2.4-1.3 4.4v9h-3.4v-18h-.1zM66.2 18L58.6 7.6h-4.4l10.4 13.6v12.2h3.5V21L78.3 7.6h-4.4L66.2 18zm64.7 6.4c0 5.2-4.2 9.5-9.5 9.5s-9.5-4.2-9.5-9.5c0-5.2 4.2-9.5 9.5-9.5s9.5 4.3 9.5 9.5zm-9.4-6.1c-3.4 0-6.1 2.7-6.1 6.1s2.7 6.1 6.1 6.1 6.1-2.7 6.1-6.1-2.8-6.1-6.1-6.1zm-39-3.4c-5.2 0-9.5 4.2-9.5 9.5s4.2 9.5 9.5 9.5c2.8 0 5.3-1.2 7-3.1l-3-1.7c-1.1.9-2.5 1.5-4 1.5-2.9 0-5.4-2.1-6-4.8h15.3c.1-.4.1-.8.1-1.3 0-5.3-4.2-9.6-9.4-9.6zm0 3.4c2.8 0 5.2 2 5.9 4.6H76.6c.6-2.6 3-4.6 5.9-4.6zm134.1 12.2c-3.4 0-6.1-2.7-6.1-6.1s2.7-6.1 6.1-6.1c1.5 0 2.9.6 4 1.5l3-1.7c-1.7-1.9-4.2-3.2-7-3.2-5.2 0-9.5 4.2-9.5 9.5s4.2 9.5 9.5 9.5c2.8 0 5.3-1.2 7-3.1l-3-1.7c-1.1.8-2.5 1.4-4 1.4zm-84.3-15.1h3.8l4 13.5h.1l4.3-13.5h3.6l4.6 13.5h.1l3.8-13.5h3.6l-5.8 18h-3.5l-4.8-13.5h-.1l-4.4 13.5H138l-5.7-18zm67.5 0h3.4v18h-3.4v-18zm0-6.5h3.4v3.4h-3.4V8.9zm-104 24.5h3.4V9.6l-3.4-2v25.8zm9 0h3.4V9.6l-3.4-2v25.8zm68.4-18.5c-2.3 0-4.4.8-6.1 2.2V9.5l-3.4-2v25.8h3.4v-1.8c1.6 1.4 3.8 2.2 6.1 2.2 5.2 0 9.5-4.2 9.5-9.5 0-5-4.3-9.3-9.5-9.3zm0 15.6c-3.4 0-6.1-2.7-6.1-6.1s2.7-6.1 6.1-6.1 6.1 2.7 6.1 6.1-2.7 6.1-6.1 6.1zm60.4-6.9l8.4-8.2h-4.7l-7.8 7.8V9.6l-3.4-2v25.8h3.4v-9.3l8.4 9.3h4.8l-9.1-9.8z"/><path fill="#fdcf41" d="M35.4 0H18.7l-1.8 3.2 8.3 14.5h16.7l1.9-3.2L35.4 0z"/><path fill="#cf8a00" d="M35.4 0l-1.8 3.2 8.3 14.5 1.9-3.2L35.4 0z"/><path fill="#fff3a2" d="M35.4 0l-1.8 3.2H16.9L18.7 0h16.7z"/><path fill="#fdcf41" d="M0 20.5L8.3 35H12l8.4-14.5L12 6H8.3L0 20.5z"/><path fill="#fff3a2" d="M0 20.5h3.7L12 6H8.3L0 20.5z"/><path fill="#cf8a00" d="M0 20.5h3.7L12 35H8.3L0 20.5z"/><path fill="#fdcf41" d="M35.4 40.9l8.4-14.4-1.9-3.2H25.2l-8.3 14.5 1.8 3.1h16.7z"/><path fill="#cf8a00" d="M35.4 40.9l-1.8-3.1H16.9l1.8 3.1h16.7z"/><path fill="#cf8a00" d="M35.4 40.9l-1.8-3.1 8.3-14.5 1.9 3.2-8.4 14.4z"/></svg>