<svg version="1.1"  xmlns="http://www.w3.org/2000/svg" x="0" y="0" viewBox="0 0 242.7 69.7" xml:space="preserve">
    <path fill="#bcbec0" d="M186.5 29.7h3.4v2.8h.1c.2-.5.5-.9.9-1.3s.8-.7 1.3-1c.5-.3 1-.5 1.5-.7.6-.2 1.1-.2 1.7-.2.5 0 1 .1 1.5.2l-.2 3.7c-.3-.1-.6-.1-.8-.2-.3-.1-.5-.1-.8-.1-1.4-.1-2.8.4-3.8 1.4-.9.9-1.3 2.4-1.3 4.4v9h-3.4v-18h-.1zM66.2 32.3l-7.6-10.4h-4.4l10.4 13.6v12.2h3.5V35.3l10.2-13.4h-4.4zM130.9 38.7c0 5.2-4.3 9.5-9.5 9.5s-9.5-4.3-9.5-9.5 4.3-9.5 9.5-9.5 9.5 4.3 9.5 9.5zm-9.4-6.1c-3.4 0-6.1 2.7-6.1 6.1s2.7 6.1 6.1 6.1c3.4 0 6.1-2.7 6.1-6.1 0-3.4-2.7-6.1-6.1-6.1zM82.5 29.2c-5.2 0-9.5 4.3-9.5 9.5s4.3 9.5 9.5 9.5c2.7 0 5.2-1.1 7-3.1l-3-1.7c-1.1.9-2.5 1.5-4 1.5-2.9 0-5.3-2-6-4.8h15.3c.1-.4.1-.9.1-1.3.1-5.2-4.2-9.5-9.4-9.6zm0 3.4c2.8 0 5.2 1.9 5.9 4.6H76.6c.7-2.7 3.1-4.6 5.9-4.6zM216.6 44.8c-3.4 0-6.1-2.7-6.1-6.1 0-3.4 2.7-6.1 6.1-6.1 1.5 0 2.9.6 4 1.5l3-1.7c-3.5-3.9-9.5-4.2-13.3-.6s-4.2 9.5-.6 13.3c3.5 3.9 9.5 4.2 13.3.6l.6-.6-3-1.7c-1.2.9-2.6 1.4-4 1.4zM132.3 29.7h3.8l4 13.5h.1l4.3-13.5h3.6l4.6 13.5h.1l3.8-13.5h3.6l-5.8 18h-3.5l-4.8-13.5h-.1l-4.4 13.5H138l-5.7-18zM199.8 29.7h3.4v18h-3.4v-18zM199.8 23.2h3.4v3.4h-3.4zM95.8 47.7h3.4V23.9l-3.4-2zM104.8 47.7h3.4V23.9l-3.4-2zM173.2 29.2c-2.2 0-4.4.8-6.1 2.2v-7.6l-3.4-2v25.8h3.4v-1.8c1.7 1.4 3.9 2.2 6.1 2.2 5.2 0 9.4-4.2 9.4-9.4s-4.2-9.4-9.4-9.4zm0 15.6c-3.4 0-6.1-2.7-6.1-6.1s2.7-6.1 6.1-6.1c3.4 0 6.1 2.7 6.1 6.1 0 3.3-2.7 6.1-6.1 6.1.1 0 0 0 0 0zM233.6 37.9l8.4-8.2h-4.7l-7.8 7.8V23.9l-3.4-2v25.8h3.4v-9.3l8.4 9.3h4.8z"/>
    <path fill="#fecf41" d="M35.4 14.3H18.7l-1.8 3.2L25.2 32h16.7l1.9-3.2zM0 34.8l8.3 14.5H12l8.4-14.5L12 20.3H8.3zM35.4 55.2l8.4-14.4-1.9-3.2H25.2l-8.3 14.5 1.8 3.1z"/>
</svg>