<svg version="1.1" id="Layer_1" xmlns="http://www.w3.org/2000/svg" x="0" y="0" viewBox="0 0 3379 1408" xml:space="preserve">
  <defs/>
  <style>
    .st1{opacity:6.000000e-02;fill:#22292d}
  </style>
  <path fill="#22292d" d="M2708-1002.8v-.6l-.3.3z"/>
  <path class="st1" d="M33.3 1369.1L0 1402.4v4h4l33.3-33.3z"/>
  <path transform="rotate(-45.001 140 1266.408)" class="st1" d="M59 1263.5h162v5.7H59z"/>
  <path transform="rotate(-45.001 302.003 1104.412)" class="st1" d="M221 1101.5h162v5.7H221z"/>
  <path transform="rotate(-45.001 464.005 942.414)" class="st1" d="M383 939.5h162v5.7H383z"/>
  <path transform="rotate(-45.001 626.005 780.414)" class="st1" d="M545 777.5h162v5.7H545z"/>
  <path transform="rotate(-45.001 788.01 618.416)" class="st1" d="M707 615.5h162v5.7H707z"/>
  <path transform="rotate(-45.001 950.011 456.417)" class="st1" d="M869 453.5h162v5.7H869z"/>
  <path transform="rotate(-45.001 1112.012 294.419)" class="st1" d="M1031 291.5h162v5.7h-162z"/>
  <path transform="rotate(-45.001 1274.017 132.42)" class="st1" d="M1193 129.5h162v5.7h-162z"/>
  <path transform="rotate(-45.001 1436.02 -29.58)" class="st1" d="M1355-32.5h162v5.7h-162z"/>
  <path class="st1" d="M1620 1406.4v-4l-4 4zM924.3 1288.1l-114.6 114.6 3.8 3.7h.5l114.3-114.3z"/>
  <path transform="rotate(-45.001 1031.007 1185.422)" class="st1" d="M950 1182.5h162v5.7H950z"/>
  <path transform="rotate(-45.001 1193.012 1023.423)" class="st1" d="M1112 1020.5h162v5.7h-162z"/>
  <path transform="rotate(-45.001 1355.01 861.423)" class="st1" d="M1274 858.5h162v5.7h-162z"/>
  <path transform="rotate(-45.001 1517.01 699.424)" class="st1" d="M1436 696.5h162v5.7h-162z"/>
  <path class="st1" d="M1620 592.9v-.5l-.3.3zM1288.8 1328.6l-77.8 77.8h8l73.8-73.8z"/>
  <path transform="rotate(-45.001 1395.504 1225.924)" class="st1" d="M1314.5 1223h162v5.7h-162z"/>
  <path transform="rotate(-45.001 1557.508 1063.926)" class="st1" d="M1476.5 1061h162v5.7h-162z"/>
  <path class="st1" d="M118.3 482.1l-4-4L0 592.4v.5l3.8 3.8z"/>
  <path transform="rotate(-45.001 221.01 375.408)" class="st1" d="M140 372.5h162v5.7H140z"/>
  <path transform="rotate(-45.001 383.01 213.41)" class="st1" d="M302 210.5h162v5.7H302z"/>
  <path transform="rotate(-45.001 545.016 51.411)" class="st1" d="M464 48.5h162v5.7H464z"/>
  <path transform="rotate(-45.001 99.504 901.91)" class="st1" d="M18.5 899h162v5.7h-162z"/>
  <path transform="rotate(-45.001 261.506 739.91)" class="st1" d="M180.5 737h162v5.7h-162z"/>
  <path transform="rotate(-45.001 423.506 577.91)" class="st1" d="M342.5 575h162v5.7h-162z"/>
  <path transform="rotate(-45.001 585.508 415.912)" class="st1" d="M504.5 413h162v5.7h-162z"/>
  <path transform="rotate(-45.001 747.513 253.914)" class="st1" d="M666.5 251h162v5.7h-162z"/>
  <path transform="rotate(-45.001 909.516 91.915)" class="st1" d="M828.5 89h162v5.7h-162z"/>
  <path transform="rotate(-45.001 1071.511 -70.08)" class="st1" d="M990.5-73h162v5.7h-162z"/>
  <path class="st1" d="M73.8 113.6L0 187.4v8.1l77.8-77.9z"/>
  <path transform="rotate(-45.001 180.515 10.907)" class="st1" d="M99.5 8h162v5.7h-162z"/>
  <path class="st1" d="M75.5-90.6L0-15.1V-7l79.5-79.6z"/>
  <path transform="rotate(-45.001 60.748 333.167)" class="st1" d="M-20.2 330.3h162v5.7h-162z"/>
  <path transform="rotate(-45.001 222.75 171.17)" class="st1" d="M141.8 168.3h162v5.7h-162z"/>
  <path transform="rotate(-45.001 384.755 9.17)" class="st1" d="M303.8 6.3h162V12h-162z"/>
  <path transform="rotate(-45.001 101.243 697.668)" class="st1" d="M20.3 694.8h162v5.7h-162z"/>
  <path transform="rotate(-45.001 263.246 535.67)" class="st1" d="M182.3 532.8h162v5.7h-162z"/>
  <path transform="rotate(-45.001 425.25 373.673)" class="st1" d="M344.3 370.8h162v5.7h-162z"/>
  <path transform="rotate(-45.001 587.254 211.674)" class="st1" d="M506.3 208.8h162v5.7h-162z"/>
  <path transform="rotate(-45.001 749.253 49.676)" class="st1" d="M668.3 46.8h162v5.7h-162z"/>
  <path class="st1" d="M35 1164.9l-35 35v8.1l39-39.1z"/>
  <path transform="rotate(-45.001 141.74 1062.17)" class="st1" d="M60.8 1059.3h162v5.7h-162z"/>
  <path transform="rotate(-45.001 303.743 900.172)" class="st1" d="M222.8 897.3h162v5.7h-162z"/>
  <path transform="rotate(-45.001 465.742 738.172)" class="st1" d="M384.8 735.3h162v5.7h-162z"/>
  <path transform="rotate(-45.001 627.748 576.176)" class="st1" d="M546.8 573.3h162v5.7h-162z"/>
  <path transform="rotate(-45.001 789.753 414.178)" class="st1" d="M708.7 411.3h162v5.7h-162z"/>
  <path transform="rotate(-45.001 951.751 252.179)" class="st1" d="M870.7 249.3h162v5.7h-162z"/>
  <path transform="rotate(-45.001 1113.754 90.18)" class="st1" d="M1032.7 87.3h162V93h-162z"/>
  <path transform="rotate(-45.001 1275.756 -71.818)" class="st1" d="M1194.7-74.7h162v5.7h-162z"/>
  <path class="st1" d="M237.5 1367.4l-39 39h8l35-35z"/>
  <path transform="rotate(-45.001 344.239 1264.674)" class="st1" d="M263.3 1261.8h162v5.7h-162z"/>
  <path transform="rotate(-45.001 506.241 1102.675)" class="st1" d="M425.3 1099.8h162v5.7h-162z"/>
  <path transform="rotate(-45.001 668.247 940.68)" class="st1" d="M587.3 937.8h162v5.7h-162z"/>
  <path transform="rotate(-45.001 830.246 778.68)" class="st1" d="M749.3 775.8h162v5.7h-162z"/>
  <path transform="rotate(-45.001 992.244 616.68)" class="st1" d="M911.2 613.8h162v5.7h-162z"/>
  <path transform="rotate(-45.001 1154.25 454.682)" class="st1" d="M1073.2 451.8h162v5.7h-162z"/>
  <path transform="rotate(-45.001 1316.25 292.684)" class="st1" d="M1235.2 289.8h162v5.7h-162z"/>
  <path transform="rotate(-45.001 1478.252 130.686)" class="st1" d="M1397.2 127.8h162v5.7h-162z"/>
  <path class="st1" d="M1585 28l35-35v-8.1l-39 39z"/>
  <path transform="rotate(-45.001 708.743 1305.182)" class="st1" d="M627.8 1302.3h162v5.7h-162z"/>
  <path transform="rotate(-45.001 870.746 1143.183)" class="st1" d="M789.8 1140.3h162v5.7h-162z"/>
  <path transform="rotate(-45.001 1032.745 981.182)" class="st1" d="M951.7 978.3h162v5.7h-162z"/>
  <path transform="rotate(-45.001 1194.736 819.181)" class="st1" d="M1113.7 816.3h162v5.7h-162z"/>
  <path transform="rotate(-45.001 1356.748 657.185)" class="st1" d="M1275.7 654.3h162v5.7h-162z"/>
  <path transform="rotate(-45.001 1518.758 495.186)" class="st1" d="M1437.7 492.3h162v5.7h-162z"/>
  <path transform="rotate(-45.001 1073.246 1345.686)" class="st1" d="M992.3 1342.8h162v5.7h-162z"/>
  <path transform="rotate(-45.001 1235.246 1183.686)" class="st1" d="M1154.2 1180.8h162v5.7h-162z"/>
  <path transform="rotate(-45.001 1397.23 1021.683)" class="st1" d="M1316.2 1018.8h162v5.7h-162z"/>
  <path transform="rotate(-45.001 1559.246 859.688)" class="st1" d="M1478.2 856.8h162v5.7h-162z"/>
  <path class="st1" d="M1493 1326.9l-79.5 79.5h8l75.5-75.5zM1544.5 1283.5l75.5-75.5v-8.1l-79.5 79.5z"/>
  <path transform="rotate(-45.001 504.5 1306.914)" class="st1" d="M423.5 1304h162v5.7h-162z"/>
  <path transform="rotate(-45.001 666.503 1144.916)" class="st1" d="M585.5 1142h162v5.7h-162z"/>
  <path transform="rotate(-45.001 828.508 982.918)" class="st1" d="M747.5 980h162v5.7h-162z"/>
  <path transform="rotate(-45.001 990.51 820.92)" class="st1" d="M909.5 818h162v5.7h-162z"/>
  <path transform="rotate(-45.001 1152.51 658.92)" class="st1" d="M1071.5 656h162v5.7h-162z"/>
  <path transform="rotate(-45.001 1314.512 496.921)" class="st1" d="M1233.5 494h162v5.7h-162z"/>
  <path transform="rotate(-45.001 1476.525 334.92)" class="st1" d="M1395.5 332h162v5.7h-162z"/>
  <path transform="rotate(-45.001 1685.761 340.426)" class="st1" d="M1604.8 337.5h162v5.7h-162z"/>
  <path transform="rotate(-45.001 1847.764 178.427)" class="st1" d="M1766.8 175.5h162v5.7h-162z"/>
  <path transform="rotate(-45.001 2009.762 16.43)" class="st1" d="M1928.7 13.6h162v5.7h-162z"/>
  <path transform="rotate(-45.001 1653.763 177.424)" class="st1" d="M1572.8 174.5h162v5.7h-162z"/>
  <path transform="rotate(-45.001 1815.766 15.425)" class="st1" d="M1734.8 12.5h162v5.7h-162z"/>
  <path transform="rotate(-45.001 1689.76 550.428)" class="st1" d="M1608.8 547.5h162v5.7h-162z"/>
  <path transform="rotate(-45.001 1851.762 388.429)" class="st1" d="M1770.8 385.5h162v5.7h-162z"/>
  <path transform="rotate(-45.001 2013.76 226.431)" class="st1" d="M1932.7 223.6h162v5.7h-162z"/>
  <path transform="rotate(-45.001 2175.746 64.438)" class="st1" d="M2094.7 61.6h162v5.7h-162z"/>
  <path transform="rotate(-45.001 2337.761 -97.565)" class="st1" d="M2256.7-100.4h162v5.7h-162z"/>
  <path class="st1" d="M2648-15.8v-.6l-.3.3z"/>
  <path transform="rotate(-45.001 1736.758 696.43)" class="st1" d="M1655.8 693.5h162v5.7h-162z"/>
  <path transform="rotate(-45.001 1898.761 534.43)" class="st1" d="M1817.8 531.5h162v5.7h-162z"/>
  <path transform="rotate(-45.001 2060.758 372.432)" class="st1" d="M1979.7 369.6h162v5.7h-162z"/>
  <path transform="rotate(-45.001 2222.744 210.439)" class="st1" d="M2141.7 207.6h162v5.7h-162z"/>
  <path transform="rotate(-45.001 2384.76 48.436)" class="st1" d="M2303.7 45.6h162v5.7h-162z"/>
  <path transform="rotate(-45.001 2867.775 -6.564)" class="st1" d="M2786.7-9.4h162v5.7h-162z"/>
  <path class="st1" d="M2652 194.2v-.6l-.3.3z"/>
  <path transform="rotate(-45.001 1740.756 906.431)" class="st1" d="M1659.8 903.5h162v5.7h-162z"/>
  <path transform="rotate(-45.001 1902.76 744.432)" class="st1" d="M1821.8 741.5h162v5.7h-162z"/>
  <path transform="rotate(-45.001 2064.756 582.434)" class="st1" d="M1983.7 579.6h162v5.7h-162z"/>
  <path transform="rotate(-45.001 2226.74 420.439)" class="st1" d="M2145.7 417.6h162v5.7h-162z"/>
  <path transform="rotate(-45.001 2388.757 258.437)" class="st1" d="M2307.7 255.6h162v5.7h-162z"/>
  <path transform="rotate(-45.001 2575.25 71.956)" class="st1" d="M2460.8 67.9h228.9V76h-228.9z"/>
  <path transform="rotate(-45.001 2508.541 -63.833)" class="st1" d="M2427.5-66.7h162v5.7h-162z"/>
  <path class="st1" d="M2644 392.2v-.6l-.3.3z"/>
  <path transform="rotate(-45.001 1732.754 1104.433)" class="st1" d="M1651.8 1101.5h162v5.7h-162z"/>
  <path transform="rotate(-45.001 1894.757 942.434)" class="st1" d="M1813.8 939.5h162v5.7h-162z"/>
  <path transform="rotate(-45.001 2056.753 780.435)" class="st1" d="M1975.7 777.6h162v5.7h-162z"/>
  <path transform="rotate(-45.001 2218.738 618.438)" class="st1" d="M2137.7 615.6h162v5.7h-162z"/>
  <path transform="rotate(-45.001 2380.755 456.438)" class="st1" d="M2299.7 453.6h162v5.7h-162z"/>
  <path transform="rotate(-45.001 2542.77 294.436)" class="st1" d="M2461.7 291.6h162v5.7h-162z"/>
  <path transform="rotate(-45.001 2714.542 138.172)" class="st1" d="M2633.5 135.3h162v5.7h-162z"/>
  <path transform="rotate(-45.001 1671.425 1384.063)" class="st1" d="M1590.4 1381.2h162v5.7h-162z"/>
  <path transform="rotate(-45.001 1833.424 1222.064)" class="st1" d="M1752.4 1219.2h162v5.7h-162z"/>
  <path transform="rotate(-45.001 1995.403 1060.063)" class="st1" d="M1914.4 1057.2h162v5.7h-162z"/>
  <path transform="rotate(-45.001 2157.423 898.066)" class="st1" d="M2076.4 895.2h162v5.7h-162z"/>
  <path transform="rotate(-45.001 2334.938 734.807)" class="st1" d="M2253.9 731.9h162v5.7h-162z"/>
  <path transform="rotate(-45.001 2496.94 572.808)" class="st1" d="M2415.9 569.9h162v5.7h-162z"/>
  <path transform="rotate(-45.001 2658.936 410.81)" class="st1" d="M2577.9 407.9h162v5.7h-162z"/>
  <path transform="rotate(-45.001 2820.917 248.818)" class="st1" d="M2739.9 245.9h162v5.7h-162z"/>
  <path transform="rotate(-45.001 2982.937 86.814)" class="st1" d="M2901.9 83.9h162v5.7h-162z"/>
  <path transform="rotate(-45.001 1866.426 1424.066)" class="st1" d="M1785.4 1421.2h162v5.7h-162z"/>
  <path transform="rotate(-45.001 2028.425 1262.066)" class="st1" d="M1947.4 1259.2h162v5.7h-162z"/>
  <path transform="rotate(-45.001 2190.402 1100.065)" class="st1" d="M2109.4 1097.2h162v5.7h-162z"/>
  <path transform="rotate(-45.001 2352.424 938.068)" class="st1" d="M2271.4 935.2h162v5.7h-162z"/>
  <path transform="rotate(-45.001 2529.939 774.81)" class="st1" d="M2448.9 771.9h162v5.7h-162z"/>
  <path transform="rotate(-45.001 2691.942 612.81)" class="st1" d="M2610.9 609.9h162v5.7h-162z"/>
  <path transform="rotate(-45.001 2853.936 450.813)" class="st1" d="M2772.9 447.9h162v5.7h-162z"/>
  <path transform="rotate(-45.001 3015.916 288.821)" class="st1" d="M2934.9 285.9h162v5.7h-162z"/>
  <path transform="rotate(-45.001 3177.937 126.817)" class="st1" d="M3096.9 123.9h162v5.7h-162z"/>
  <path transform="rotate(-45.001 3337.726 -28.454)" class="st1" d="M3256.7-31.3h162v5.7h-162z"/>
  <path transform="rotate(-45.001 2044.427 1487.068)" class="st1" d="M1963.4 1484.2h162v5.7h-162z"/>
  <path transform="rotate(-45.001 2206.426 1325.068)" class="st1" d="M2125.4 1322.2h162v5.7h-162z"/>
  <path transform="rotate(-45.001 2368.401 1163.068)" class="st1" d="M2287.4 1160.2h162v5.7h-162z"/>
  <path transform="rotate(-45.001 2530.424 1001.07)" class="st1" d="M2449.4 998.2h162v5.7h-162z"/>
  <path transform="rotate(-45.001 2707.94 837.812)" class="st1" d="M2626.9 834.9h162v5.7h-162z"/>
  <path transform="rotate(-45.001 2869.943 675.812)" class="st1" d="M2788.9 672.9h162v5.7h-162z"/>
  <path transform="rotate(-45.001 3031.937 513.815)" class="st1" d="M2950.9 510.9h162v5.7h-162z"/>
  <path transform="rotate(-45.001 3193.915 351.823)" class="st1" d="M3112.9 348.9h162v5.7h-162z"/>
  <path transform="rotate(-45.001 3355.938 189.82)" class="st1" d="M3274.9 186.9h162v5.7h-162z"/>
  <path transform="rotate(-45.001 2353.426 1428.07)" class="st1" d="M2272.4 1425.2h162v5.7h-162z"/>
  <path transform="rotate(-45.001 2515.4 1266.07)" class="st1" d="M2434.4 1263.2h162v5.7h-162z"/>
  <path transform="rotate(-45.001 2677.423 1104.073)" class="st1" d="M2596.4 1101.2h162v5.7h-162z"/>
  <path transform="rotate(-45.001 2854.94 940.814)" class="st1" d="M2773.9 937.9h162v5.7h-162z"/>
  <path transform="rotate(-45.001 3016.943 778.815)" class="st1" d="M2935.9 775.9h162v5.7h-162z"/>
  <path transform="rotate(-45.001 3178.937 616.817)" class="st1" d="M3097.9 613.9h162v5.7h-162z"/>
  <path transform="rotate(-45.001 3340.914 454.825)" class="st1" d="M3259.9 451.9h162v5.7h-162z"/>
  <path transform="rotate(-45.001 3502.937 292.821)" class="st1" d="M3421.9 289.9h162v5.7h-162z"/>
  <path transform="rotate(-45.001 2566.419 1445.073)" class="st1" d="M2485.4 1442.2h162v5.7h-162z"/>
  <path transform="rotate(-45.001 2743.936 1281.816)" class="st1" d="M2662.9 1278.9h162v5.7h-162z"/>
  <path transform="rotate(-45.001 2905.939 1119.816)" class="st1" d="M2824.9 1116.9h162v5.7h-162z"/>
  <path transform="rotate(-45.001 3067.932 957.818)" class="st1" d="M2986.9 954.9h162v5.7h-162z"/>
  <path transform="rotate(-45.001 3229.909 795.823)" class="st1" d="M3148.9 792.9h162v5.7h-162z"/>
  <path transform="rotate(-45.001 3391.932 633.822)" class="st1" d="M3310.9 630.9h162v5.7h-162z"/>
  <path transform="rotate(-45.001 2875.397 1361.075)" class="st1" d="M2794.4 1358.2h162v5.7h-162z"/>
  <path transform="rotate(-45.001 3037.424 1199.077)" class="st1" d="M2956.4 1196.2h162v5.7h-162z"/>
  <path transform="rotate(-45.001 3214.942 1035.818)" class="st1" d="M3133.9 1032.9h162v5.7h-162z"/>
  <path transform="rotate(-45.001 3376.945 873.82)" class="st1" d="M3295.9 870.9h162v5.7h-162z"/>
  <path transform="rotate(-45.001 3064.937 1427.82)" class="st1" d="M2983.9 1424.9h162v5.7h-162z"/>
  <path transform="rotate(-45.001 3226.94 1265.82)" class="st1" d="M3145.9 1262.9h162v5.7h-162z"/>
  <path transform="rotate(-45.001 3388.933 1103.823)" class="st1" d="M3307.9 1100.9h162v5.7h-162z"/>
</svg>
