<svg xmlns="http://www.w3.org/2000/svg" class="w-1/2 mx-auto xs:w-3/4 self-center" viewBox="0 0 245 245"><defs><filter id="a" height="130%"><feGaussianBlur in="SourceAlpha" stdDeviation="3"/><feOffset dx="2" dy="2" result="offsetblur"/><feComponentTransfer><feFuncA slope=".35" type="linear"/></feComponentTransfer><feMerge><feMergeNode/><feMergeNode in="SourceGraphic"/></feMerge></filter></defs><path fill="#5b5b5d" d="M164.9,175.2c2-10.4,4.1-20.7,6.1-31.2c1.4,0,2.8,0,4.3,0c2,10.4,4.1,20.8,6.1,31.1c0.1,0,0.2,0,0.3,0 c2-10.3,4-20.6,5.9-31c1.4,0,2.8,0,4.4,0c-2.4,12.2-4.8,24.4-7.2,36.5c-2,0-4,0-6.1,0c-1.8-8.9-3.6-17.8-5.3-26.8 c-0.1,0-0.2,0-0.3,0c-1.8,8.9-3.6,17.8-5.4,26.7c-2,0-3.9,0-6,0c-2.4-12.1-4.9-24.3-7.3-36.6c1.4,0,2.5-0.1,3.7,0 c0.3,0,0.8,0.6,0.8,0.9c1.7,8.6,3.3,17.2,5,25.8c0.3,1.4,0.6,2.8,0.8,4.3C164.8,175.2,164.9,175.2,164.9,175.2z"/><path fill="#02a1dc" d="M0,144.3c4.7,0,9.4-0.2,14.1,0.1c2.7,0.1,4.7,1.9,5.6,4.4c0.8,2.2,1.3,4.5,1.5,6.8c0.5,5.6,0.6,11.3-0.4,16.9 c-0.2,1-0.5,2-0.8,2.9c-1,2.9-3.1,4.7-6.1,4.8c-4.6,0.2-9.2,0.1-13.9,0.1C0,168.3,0,156.3,0,144.3z M5.6,175.5c1.9,0,3.6,0,5.4,0 c2,0,3.3-1,3.8-2.9c0.2-0.6,0.4-1.2,0.5-1.8c0.2-3.9,0.5-7.7,0.5-11.6c0-2.5-0.4-5-0.8-7.5c-0.2-1.1-0.8-2.3-2.1-2.5 c-2.4-0.3-4.9-0.3-7.3-0.4C5.6,157.8,5.6,166.5,5.6,175.5z"/><path fill="#59595b" d="M118.3,180.7c-0.7-4.7-1.3-9.4-2-14.2c-2.9,0-5.7,0-8.7,0c0,4.7,0,9.4,0,14.2c-1.5,0-2.9,0-4.4,0 c0-12.2,0-24.3,0-36.7c1.1,0,2.1,0,3.2,0c3.6,0.1,7.2-0.1,10.7,0.3c3.9,0.4,6,2.5,6.4,6.4c0.3,3.1,0.2,6.2-0.1,9.3 c-0.1,1.4-1.1,2.8-1.9,4c-0.6,0.8-0.8,1.5-0.7,2.5c0.7,4.7,1.4,9.5,2.1,14.3C121.4,180.7,119.9,180.7,118.3,180.7z M107.6,162.4 c2.6,0,5,0.1,7.4,0c2.7-0.1,4.2-1.6,4.3-4.2c0.1-2,0.1-3.9,0-5.9c-0.1-2.2-1.1-3.8-3-4c-2.9-0.4-5.8-0.4-8.7-0.5 C107.6,152.9,107.6,157.6,107.6,162.4z"/><path fill="#5b5b5d" d="M150.9,162.6c-0.3,3.9-0.5,7.9-1.1,11.8c-0.7,4.5-2.7,6.3-7.1,6.8c-2.4,0.2-4.9,0.1-7.4-0.2 c-2.6-0.3-4.7-1.9-5.3-4.6c-0.7-3-1.2-6-1.3-9c-0.1-5.1,0.2-10.3,0.4-15.5c0-0.5,0.2-1.1,0.3-1.6c0.9-4.3,2.7-6.2,7-6.6 c2.5-0.3,5-0.1,7.5,0.2c2.7,0.4,4.7,2,5.3,4.7c0.7,3.3,1,6.7,1.3,10c0.1,1.3,0,2.6,0,4C150.8,162.6,150.8,162.6,150.9,162.6z M133,162.5c0.1,0,0.3,0,0.4,0c0,3-0.1,5.9,0,8.9c0.2,4.4,1.7,6,5.9,6.1c3.5,0.1,5.9-0.2,6.5-5.1c0.8-6.4,0.7-12.8,0.1-19.1 c-0.4-4.4-1.6-5.6-5.8-5.7c-3.6-0.1-6,0.4-6.5,4.9C133.2,155.7,133.2,159.1,133,162.5z"/><path fill="#58585a" d="M222.7,144.1c1.4,0,2.8,0,4.3,0c0,5.3,0,10.5,0,15.8c4.2,0,8.3,0,12.6,0c0-5.2,0-10.4,0-15.7 c1.5,0,2.9,0,4.4,0c0,12.2,0,24.3,0,36.6c-1.4,0-2.8,0-4.3,0c0-5.5,0-11,0-16.6c-4.2,0-8.3,0-12.6,0c0,5.5,0,11,0,16.6 c-1.5,0-2.9,0-4.4,0C222.7,168.6,222.7,156.4,222.7,144.1z"/><path fill="#02a1dc" d="M45.3,159.5c-0.5,1.7-0.8,3.2-1.3,4.6c-0.1,0.4-0.7,0.8-1.1,0.8c-2.6,0.1-5.1,0-7.7,0c-0.4,0-0.9,0-1.5,0 c0,5.4,0,10.6,0,15.9c-2.2,0-4.3,0-6.4,0c0-12.2,0-24.4,0-36.7c7,0,13.9,0,21,0c-0.6,1.6-1.1,3.1-1.7,4.6c-0.1,0.3-0.8,0.5-1.2,0.5 c-3.4,0-6.8,0-10.2,0c-0.4,0-0.9,0-1.4,0c0,3.4,0,6.7,0,10.2C37.5,159.5,41.3,159.5,45.3,159.5z"/><path fill="#5b5b5d" d="M92.9,176.8c0-3.6,0-6.9,0-10.3c-1.6,0-3.1,0-4.7,0c0-1.2,0-2.3,0-3.4c3,0,5.9,0,9,0c0,0.3,0.1,0.7,0.1,1 c0,4.8,0,9.7,0,14.5c0,0.9-0.2,1.3-1.1,1.5c-4.1,1.1-8.2,1.7-12.5,1c-2.8-0.4-4.8-1.9-5.6-4.6c-0.6-1.9-1.1-4-1.2-6 c-0.5-6.4-0.5-12.8,0.4-19.1c0.8-5.4,3.4-7.7,8.8-7.8c3.1,0,6.3,0.3,9.4,0.6c0.3,0,0.8,0.6,0.8,0.9c0.1,1.1,0,2.2,0,3.4 c-1.9-0.2-3.7-0.4-5.5-0.5c-1.6-0.1-3.2,0-4.8,0.1c-2.2,0.2-3.7,1.5-4.1,3.6c-0.5,2.5-0.8,5.2-0.8,7.7c0,4.1,0,8.2,0.5,12.3 c0.4,3.9,2.2,5.2,6.2,5.3C89.6,177.2,91.2,176.9,92.9,176.8z"/><path fill="#02a1dc" d="M61.1,143.9c0.1,0.3,0.1,0.4,0.1,0.5c0,10,0,19.9-0.1,29.9c0,3.9-1.8,5.9-5.7,6.2c-3.2,0.3-6.4,0.1-9.7,0.1 c0.5-1.3,1.1-2.7,1.7-4.1c0.1-0.3,0.7-0.5,1.1-0.5c1.5-0.1,3.1-0.2,4.6-0.3c1.1-0.1,1.6-0.8,1.7-1.8c0-0.5,0.1-1.1,0.1-1.6 c0-8.9,0-17.7,0-26.6c0-0.5,0-1.1,0-1.7C57.1,143.9,59,143.9,61.1,143.9z"/><path fill="#5a5a5c" d="M204.6,148.3c-3.1,0-5.9,0-8.9,0c0-1.4,0-2.8,0-4.3c7.4,0,14.7,0,22.2,0c0,1.4,0,2.7,0,4.3c-2.9,0-5.8,0-8.9,0 c0,10.9,0,21.6,0,32.4c-1.5,0-2.9,0-4.4,0C204.6,170,204.6,159.3,204.6,148.3z"/><path fill="#02a1dc" d="M120.1 60.2L73.9 129.6 166.3 129.6z"/><path fill="#fff" d="M149,109c0.3-1.7,0.5-3.5,0.4-5.2l-0.1-0.2c-0.1-4.2-1.2-8.4-3.3-12.3c-0.2-0.3-0.3-0.6-0.5-0.8v0 c-0.1-0.2-0.2-0.3-0.3-0.5c-0.4-0.7-0.9-1.3-1.4-1.9c-0.1-0.1-0.2-0.3-0.4-0.4c-0.7-0.9-1.4-1.7-2.2-2.4c0,0-0.1-0.1-0.1-0.1 c-0.1-0.1-0.1-0.1-0.2-0.2c-4-3.9-9.3-6.8-15.4-7.9c-10.8-2-21.2,1.9-27.5,9.3c-0.1,0.1-0.2,0.2-0.2,0.3c-0.1,0.1-0.2,0.2-0.3,0.3 c-0.1,0.2-0.3,0.4-0.4,0.6c0,0,0,0,0,0.1c-2.5,3.3-4.2,7.2-4.9,11.5c-0.2,1.5-0.3,3-0.3,4.5l0,0c0.3,12.3,9.4,23.3,22.4,26.4h0 c0.3,0.1,0.5,0.1,0.8,0.2c0.2,0,0.4,0.1,0.6,0.1c0.1,0,0.1,0,0.2,0c0.1,0,0.3,0,0.4,0.1c1.6,0.2,3.3,0.4,4.9,0.4 c2.3,0,4.5-0.2,6.7-0.8h0.3C138.7,127.6,147,119.6,149,109z" filter="url(#a)"/><path fill="#02a1dc" d="M149,109c0.3-1.7,0.5-3.5,0.4-5.2l-0.1-0.2c-0.1-4.2-1.2-8.4-3.3-12.3c-0.2-0.3-0.3-0.6-0.5-0.8v0	c-0.1-0.2-0.2-0.3-0.3-0.5c-0.4-0.7-0.9-1.3-1.4-1.9c-0.1-0.1-0.2-0.3-0.4-0.4c-0.7-0.9-1.4-1.7-2.2-2.4c0,0-0.1-0.1-0.1-0.1	c-0.1-0.1-0.1-0.1-0.2-0.2c-4-3.9-9.3-6.8-15.4-7.9c-10.8-2-21.2,1.9-27.5,9.3c-0.1,0.1-0.2,0.2-0.2,0.3c-0.1,0.1-0.2,0.2-0.3,0.3	c-0.1,0.2-0.3,0.4-0.4,0.6c0,0,0,0,0,0.1c-2.5,3.3-4.2,7.2-4.9,11.5c-0.2,1.5-0.3,3-0.3,4.5l0,0c0.3,12.3,9.4,23.3,22.4,26.4h0	c0.3,0.1,0.5,0.1,0.8,0.2c0.2,0,0.4,0.1,0.6,0.1c0.1,0,0.1,0,0.2,0c0.1,0,0.3,0,0.4,0.1c1.6,0.2,3.3,0.4,4.9,0.4	c2.3,0,4.5-0.2,6.7-0.8h0.3C138.7,127.6,147,119.6,149,109z M148.4,102.2c0.2,2,0.1,4-0.2,6c0,0.1,0,0.2-0.1,0.2	c-0.5,0.8-1.1,1.6-2,2.4c0.6-3.7,0.5-8-1.1-12.9v-0.1l0.2-0.2c0.7-0.8,1.2-1.6,1.5-2.5C147.6,97.3,148.2,99.6,148.4,102.2z M122.2,99.7c-0.2,0-0.5-0.1-0.7-0.1c-3.8-0.6-7.3-1.5-10.3-2.7c2.2-4.6,4.4-8.1,6.4-10.7c1.8,0.7,3.9,1.2,6.2,1.6	c0.1,0,0.2,0,0.3,0.1C123.7,91,123.1,94.9,122.2,99.7z M124.9,88c2.3,0.3,4.5,0.4,6.4,0.2c1.4,3.1,2.7,7.1,3.4,11.9	c-3.2,0.4-6.9,0.4-10.9-0.1C124.4,95.3,124.7,91.3,124.9,88z M109.6,96.3c-3.1-1.3-5.6-2.8-7.3-4.5c3.1-3.8,6.9-6.5,10.4-8.4	c0.9,0.9,2.3,1.8,4,2.4C114.3,88.4,111.8,91.8,109.6,96.3z M109,97.7c-0.8,1.6-1.5,3.4-2.1,5.3c-0.9,2.5-1.5,4.8-2,6.9	c-3.6-1.5-6.6-3.4-8.6-5.3c0.6-3.1,1.9-6.6,4.3-10.2c0.4-0.5,0.7-1.1,1.1-1.5C103.2,94.6,105.8,96.3,109,97.7z M109,102.2	c0.5-1.4,1.1-2.7,1.6-3.9c3.1,1.2,6.7,2.2,10.6,2.8v0c0.2,0.1,0.5,0.1,0.8,0.1c-0.3,1.6-0.6,3.3-0.9,5.1c-0.5,2.8-1,5.4-1.5,7.6	c-0.2,0-0.4-0.1-0.5-0.1c-4.6-0.8-8.9-1.9-12.6-3.4C107,108.1,107.8,105.3,109,102.2z M121.6,115.8L121.6,115.8	c4.5,0.5,8.9,0.5,12.6,0.1c-0.9,4.6-2.4,7.8-4.1,10c-3.3,0.3-7,0.2-11-0.3C119.8,123.3,120.7,120.1,121.6,115.8z M121.8,114.3	c0.4-2.1,0.8-4.6,1.1-7.3c0.2-1.9,0.5-3.7,0.7-5.4c4.1,0.5,7.9,0.4,11.2,0c0.3,2.5,0.4,5.3,0.2,8.2c-0.1,1.7-0.3,3.2-0.5,4.7	C130.7,114.8,126.4,114.8,121.8,114.3z M132.4,88c1.8-0.2,3.1-0.7,4.1-1.3c2.8,2.7,5.4,6.2,7.1,10.6c-1.8,1.1-4.4,2-7.4,2.4	C135.5,95,134,91.1,132.4,88z M136.7,109.7c0.2-3.1,0.1-5.9-0.3-8.4c3.1-0.5,5.7-1.5,7.6-2.8v0.1c1.6,4.8,1.6,9.3,0.9,13	c-2.1,1.2-5.1,2.1-8.6,2.7C136.5,112.8,136.6,111.3,136.7,109.7z M137.5,85.9c0.2-0.3,0.4-0.7,0.5-1.1c0.2-0.5,0.1-0.8-0.1-1.3	l0.1,0.1l0.7,0.5c1.6,1.3,3.1,2.8,4.4,4.5c1.4,1.8,2.4,3.7,3.3,5.6c-0.2,0.9-0.8,1.7-1.7,2.4l-0.1,0.1c-0.1-0.2-0.2-0.4-0.2-0.5	c-1.5-3.8-3.7-6.7-6-9.1c-0.3-0.3-0.7-0.6-1-0.9L137.5,85.9z M134.3,81c0.8,0.4,1.5,0.8,2.2,1.3c-0.7-0.4-1.4-0.6-2-0.9	c-4-1.8-6.7-2.2-8.1-2.2c0.7,0,1.9-0.1,2.7-0.1h1C131.6,79.7,132.9,80.3,134.3,81z M117.5,77.5c0.7,0.1,1.8,0.2,2.6,0.3	c2.4,0.3,5.1,1.3,5.1,1.3s-2.6-1.1-4.6-1.5c-0.5-0.1-1-0.2-1.5-0.2c0.2-0.1,0.6-0.1,0.9-0.1c1.2,0,2.4,0.1,3.8,0.2	c0.8,0.8,1.5,1.5,1.5,1.5s-0.6-0.9-1.1-1.5c0.2,0,0.4,0.1,0.6,0.1c0.5,0.1,1,0.2,1.5,0.3c-0.3,0.3-0.8,1.1-0.8,1.1s0.5-0.5,0.9-0.8	c0.1-0.1,0.2-0.2,0.2-0.2c1,0.2,2,0.5,2.9,0.8c-1.4,0-3.8,0.3-3.8,0.3h0.2c-0.3,0-0.5,0.1-0.5,0.1s4.2,0.2,9.5,2.6	c0.7,0.3,1.4,0.7,2.1,1.1c0.1,0.3,0.2,0.6,0.1,0.9c-0.1,0.3-0.2,0.5-0.3,0.8c-0.1,0.2-0.2,0.3-0.4,0.4c-5.3-4.3-10.6-5.7-10.6-5.7	s4.9,1.9,9.9,6.4c-0.9,0.5-2.2,1-3.8,1.2c-3-5.1-6.1-7.5-6.1-7.5s2.6,2.6,5.1,7.7c-1.8,0.2-3.8,0.2-5.8-0.2c0.3-4.9,0.3-7.7,0.3-7.7	l-0.2,0.2c0,0-0.2,2.4-0.8,7.3h-0.2c-2.1-0.3-4-0.8-5.7-1.5c3.8-4.6,6.7-6,6.7-6s-3.4,1.5-7.6,5.7c-1.5-0.7-2.7-1.5-3.5-2.2	c6-2.9,11-3.5,11-3.5s-5.4,0.2-11.6,2.9c-0.5-0.7-0.8-1.5-0.7-2.1c0-0.2,0.1-0.3,0.1-0.4c6.9-1.5,12-0.5,12-0.5s-4.8-1.4-11.6-0.2	c0.3-0.4,0.8-0.8,1.4-1.1C115.6,77.8,116.6,77.6,117.5,77.5z M107.4,80.3c1.9-0.9,4-1.7,6.1-2.1c-0.7,0.3-1.1,0.7-1.5,1.1	c-0.7,0.2-1.5,0.3-2.1,0.5c-0.9,0.2-1.8,0.6-2.7,0.9c-1.1,0.5-2.2,1.1-3.3,1.8C105,81.6,106.2,80.9,107.4,80.3z M99.8,86.3	c0-0.2,0.1-0.3,0.2-0.5c1.8-1.5,4-3,6.6-4.2c1.1-0.5,2.3-1,3.5-1.3c0.5-0.2,1-0.3,1.5-0.4c-0.1,0.2-0.2,0.4-0.2,0.6	c-0.2,0.7,0.1,1.5,0.7,2.2c-3.6,1.8-7.4,4.4-10.5,8.3c-0.3-0.3-0.5-0.6-0.8-1C100,88.9,99.6,87.5,99.8,86.3z M92.7,102.3L92.7,102.3	c0-0.4,0-0.8,0.1-1.2c0.1,0.2,0.2,0.5,0.2,0.8c0.4,1,1.1,2.1,1.9,3c-0.7,3.8-0.4,6.8,0.2,9.1C93.4,110.3,92.6,106.3,92.7,102.3z M93.6,101.1c-0.3-0.6-0.5-1.2-0.5-1.8c0.8-4.9,3-9.3,6.1-12.8c-0.1,0.2-0.1,0.4-0.2,0.5c-0.2,1.4,0.2,2.8,1.1,4.2	c0.2,0.3,0.4,0.5,0.6,0.8c-3.1,4.2-4.8,8.1-5.6,11.5C94.5,102.8,94,101.9,93.6,101.1z M96.4,116.3c-0.6-2.2-1.2-6-0.5-10.5l0,0	c2.1,2,5,3.8,8.6,5.4c-0.9,4.5-0.8,7.9-0.4,10.3c-3-1.3-5.4-2.9-7.2-4.5L96.4,116.3z M98.2,118.9c-0.2-0.2-0.2-0.3-0.4-0.5	c1.7,1.5,3.9,2.8,6.5,4.1l0,0c0.4,1.4,0.8,2.4,1.3,3.1C102.8,123.8,100.2,121.5,98.2,118.9z M116.2,129.6c-3.2-0.5-6.2-1.5-9-3.1	c-0.4-0.7-0.8-1.8-1.2-3.4c3.2,1.3,6.9,2.3,10.9,3h0.2C116.6,128,116.4,129,116.2,129.6z M117.1,125.3c-4.1-0.7-8-1.7-11.3-3	c-0.5-2.4-0.6-5.8,0.2-10.3l0,0c3.7,1.5,8,2.7,12.6,3.4c0.2,0,0.3,0.1,0.5,0.1c-0.8,4.4-1.5,7.6-2,9.8H117.1z M117.5,129.7	c0.2-0.5,0.7-1.5,1.3-3.4c3.8,0.5,7.4,0.5,10.6,0.2c-1.3,1.5-2.6,2.4-3.7,3C123.1,130,120.3,130.1,117.5,129.7z M137.1,125.1	c-3,2-6.3,3.4-9.7,4.2c1.1-0.6,2.4-1.5,3.7-2.9c2.6-0.4,5-1,6.9-1.9C137.7,124.7,137.4,124.9,137.1,125.1z M131.7,125.6	c1.8-2.1,3.4-5.4,4.3-10c3.4-0.5,6.4-1.5,8.6-2.8c-1.3,5.1-4,8.9-5.6,10.9C137.1,124.6,134.5,125.2,131.7,125.6z M140.5,122.5	c1.9-2.2,4.2-5.7,5.4-10.4l0,0c0.8-0.6,1.5-1.3,1.9-2C146.6,114.8,144.1,119.1,140.5,122.5z"/></svg>