<svg xmlns="http://www.w3.org/2000/svg" x="0" y="0" viewBox="0 0 245 245" xml:space="preserve"><style>.st0{fill:#222}</style><g id="Page-1"><g id="gv"><path id="Fill-1" class="st0" d="M76 198.4c-42 0-76-34-76-75.9s34-75.9 76-75.9c5.5 0 10.8.6 16 1.7L109 82c-8.8-5.9-19.3-9.6-30.9-9.9H76c-27.9 0-50.5 22.8-50.5 50.6 0 27.9 22.6 50.7 50.6 50.7 23.6 0 43.4-17.3 49-37.7h-54v-26.2H123l22.3 44.4c-12.1 26.1-38.5 44.5-69.3 44.5"/><path id="Fill-2" class="st0" d="M169.8 198L155 168.7l60.3-120.5H245L169.8 198"/></g></g></svg>
