<svg xmlns="http://www.w3.org/2000/svg" viewBox="0 0 245 226.5"><linearGradient id="a" gradientUnits="userSpaceOnUse" x1="395.45" y1="162.131" x2="427.657" y2="145.742" gradientTransform="rotate(180 215.994 113.5)"><stop offset="0" stop-color="#c26716"/><stop offset=".079" stop-color="#c96d17"/><stop offset=".432" stop-color="#e3861a"/><stop offset=".75" stop-color="#f2951c"/><stop offset="1" stop-color="#f89a1d"/></linearGradient><path d="M36.4 148.4H0V0h36.4v148.4z" fill="url(#a)"/><linearGradient id="b" gradientUnits="userSpaceOnUse" x1="267.043" y1="162.243" x2="299.25" y2="145.854" gradientTransform="matrix(1 0 0 -1 -138.187 227)"><stop offset="0" stop-color="#c26716"/><stop offset=".079" stop-color="#c96d17"/><stop offset=".432" stop-color="#e3861a"/><stop offset=".75" stop-color="#f2951c"/><stop offset="1" stop-color="#f89a1d"/></linearGradient><path d="M129-.1h36.4v148.4H129V-.1z" fill="url(#b)"/><path d="M165.4 0h-39.8L82.7 107.8 39.9 0H0l58.9 148.7h47.2L165.4 0z" fill="#f89a1d"/><path d="M88.8 218.1c.2-.6.4-1.2.6-1.9l5.7-18c2.3-7 4.6-14 6.9-21.1.3-.9.7-1.3 1.7-1.3 4 .1 8 .1 12.1 0 1.1 0 1.6.4 1.6 1.4 0 .3.1.6.1.9.1 2-.3 2.5-2.3 2.5h-3.3v39.9h3.2c2 0 2.4.3 2.4 2.4s-.4 2.5-2.4 2.5c-4.3 0-8.6-.1-12.9 0-1.3 0-1.7-.4-1.7-1.6 0-.2-.1-.4-.1-.7-.1-2.4.1-2.6 2.5-2.6h2.9v-39.6s-.1 0-.1-.1c-.5 1.5-1 2.9-1.5 4.4L93.7 217l-2.1 6c-.2.6-.5.9-1.2.9-1.2-.1-2.5-.1-3.7 0-1.3.1-1.7-.4-2-1.5-3.7-11.2-7.4-22.4-11.2-33.6-.8-2.5-1.7-4.9-2.7-7.4v39h4.1c.7 0 1.2.2 1.2.9v4H61.2c-.3 0-1-.2-1-.4-.1-1.3-.1-2.7 0-4 0-.2.6-.4 1-.4 1.3-.1 2.7 0 4.1 0v-39.9c-1.4 0-2.7-.1-4 0-1 .1-1.3-.4-1.4-1.2v-.3c-.3-3.2-.1-3.3 3-3.3h10.7c.7 0 1.1.1 1.3.8 3.9 11.8 7.8 23.6 11.6 35.4.6 2 1.1 4 1.7 5.9.3.2.4.2.6.2zm90.3 3.1c0-.6.1-1 .1-1.5V203c0-1.1-.1-2.2-.3-3.2-.8-3.6-3.3-5-7.3-4.8-3.8.3-6.5 3.6-7.1 6.5-.3 1.3-.5 2.7-.6 4-.1 5.1 0 10.3 0 15.7 1 0 2 .1 2.9 0 1-.1 1.4.4 1.5 1.3v.9c0 1.9-.2 2-2 2-3.8 0-7.6-.1-11.4 0-1.2 0-1.8-.4-1.8-1.6 0-.5.1-1.1.1-1.6 0-.9.5-1.2 1.3-1.1 1.1.1 2.3 0 3.5 0v-26c-1.1 0-2.3-.1-3.4 0-.9.1-1.3-.3-1.4-1.2 0-.3-.1-.5-.1-.8-.1-2.1.2-2.4 2.3-2.4h6.5c1 0 1.3.3 1.2 1.3s0 2.1 0 3c1.5-1.2 2.8-2.5 4.4-3.5 3.5-2.4 11.6-2.7 15.4 2.1 1.7 2.2 2.3 4.8 2.3 7.5.1 6.1.1 12.3 0 18.4 0 1.3.3 1.7 1.6 1.6.4-.1.7-.1 1.1 0 .7.1 1.9.2 2 .5.2 1.1.1 2.2 0 3.3 0 .2-.6.4-1 .4h-12.6c-.8 0-1.1-.3-1.2-1 0-.3-.1-.5-.1-.8-.1-2.3.1-2.5 2.3-2.5.4.2 1.1.2 1.8.2zm19.7-42.9h-3.5c-.8 0-1.2-.3-1.3-1.1 0-.4-.1-.7-.1-1.1-.1-2 .2-2.2 2.1-2.2h8.7v45.6c0 1.4.3 1.9 1.7 1.7h.7c2.5 0 3.2 1 2.4 3.4-.1.3-.7.8-1 .8-4.5.1-8.9.1-13.4 0-.4 0-.8-.5-1.1-.9-.1-.1-.1-.4-.1-.7-.2-2.4 0-2.7 2.4-2.7h2.4c.1-14.2.1-28.4.1-42.8zm-55.6 41.5c-4.1 2.1-11.1 2.6-15-2.4-1.7-2.2-2.7-4.6-2.6-7.5h23.3c-.3-2.9-.4-5.6-.9-8.3-1.2-5.7-5.2-10.7-11.7-11.5-6.3-.8-11.8 1.9-14.7 7.5-2.5 4.9-2.8 10.2-1.9 15.4 1.2 6.8 5.3 11.2 12 13 5.2 1.3 10.1.1 14.7-2.4.3-.1.5-.5.5-.8.1-1.6 0-3.2 0-5.1-1.3.8-2.5 1.5-3.7 2.1zm-9.5-25c5.2-.2 8.8 3.8 8.9 10.7h-17c-.5-4.3 2.9-10.5 8.1-10.7zm110.1 6.6c-1.4-4.9-4.4-8.7-9.2-10.4-8.4-2.9-16.3.2-20.1 8.6-1.6 3.7-2 7.6-1.5 11.7 1.1 8.6 7.3 15.8 17 15.2 4.5-.3 8.2-2.2 10.9-5.7 2.8-3.7 3.9-8 4.1-13.5-.3-1.4-.6-3.7-1.2-5.9zm-7.7 16.5c-3.8 5.2-12.1 4.8-15.2-1.1-1.4-2.8-2.1-5.6-2.1-8.7 0-3.5.8-6.7 2.9-9.7 3.2-4.7 11.1-4.6 14.4.2 3.5 4.9 3.5 14.5 0 19.3z" fill="#141819"/></svg>
