<svg xmlns="http://www.w3.org/2000/svg" x="0" y="0" viewBox="0 0 245 245" xml:space="preserve"><style>.st1{fill:#fff}</style><path d="M244.9 101.2c3.3 19.1-48.7 44.2-116.3 55.9C61 168.9 3.5 163 .2 143.8-3.1 124.7 49 99.6 116.5 87.9c67.6-11.8 125-5.8 128.4 13.3z" fill="#034ea2"/><path class="st1" d="M181.3 129.6l-.4-19.9h6.3v25.1h-9l-6.3-20.6h-.1l.3 20.6h-6.2v-25.1h9.4l5.8 19.9zM67.3 112.1l-3.5 23h-6.9l4.7-25.4h11.3l4.7 25.4h-6.8l-3.4-23zM96.8 129.1l3.1-19.4h10.4l.5 25.4h-6.3l-.2-22.8h-.1l-4.3 22.8h-6.4l-4.2-22.8h-.2l-.1 22.8h-6.4l.6-25.4h10.3l3.2 19.4zM46.3 127.9c.2.6.2 1.4.1 1.9-.2.8-.8 1.7-2.5 1.7-1.6 0-2.6-.9-2.6-2.3v-2.5h-6.8v2c0 5.6 4.4 7.4 9.2 7.4 4.6 0 8.4-1.6 9-5.8.3-2.2.1-3.6 0-4.2-1.1-5.3-10.7-6.9-11.4-9.8-.1-.5-.1-1 0-1.3.2-.8.7-1.7 2.3-1.7 1.5 0 2.4.9 2.4 2.3v1.6h6.3v-1.8c0-5.5-5-6.4-8.5-6.4-4.5 0-8.2 1.5-8.9 5.6-.2 1.1-.2 2.2.1 3.4 1 5.1 10 6.6 11.3 9.9zM128.7 127.9c.2.6.2 1.4.1 1.9-.2.8-.8 1.7-2.4 1.7-1.6 0-2.5-.9-2.5-2.3v-2.4H117v1.9c0 5.6 4.4 7.3 9.1 7.3 4.5 0 8.3-1.5 8.9-5.7.3-2.2.1-3.6 0-4.1-1.1-5.3-10.6-6.8-11.3-9.8-.1-.5-.1-1 0-1.3.2-.8.7-1.7 2.3-1.7 1.5 0 2.3.9 2.3 2.3v1.5h6.3v-1.8c0-5.5-4.9-6.3-8.5-6.3-4.5 0-8.1 1.5-8.8 5.6-.2 1.1-.2 2.1.1 3.4 1.1 5 10 6.5 11.3 9.8zM149.9 131.3c1.8 0 2.3-1.2 2.4-1.8.1-.3.1-.6.1-1v-18.7h6.4V128c0 .5 0 1.4-.1 1.7-.5 4.7-4.2 6.3-8.8 6.3-4.7 0-8.4-1.5-8.8-6.3 0-.2-.1-1.2-.1-1.7v-18.2h6.4v18.7c0 .3 0 .7.1 1 .1.6.7 1.8 2.4 1.8zM202.8 131c1.8 0 2.5-1.2 2.6-1.8 0-.3.1-.6.1-1v-3.7h-2.6v-3.7h9v6.8c0 .5 0 .8-.1 1.7-.4 4.6-4.4 6.3-8.9 6.3s-8.5-1.6-8.9-6.3c-.1-.8-.1-1.2-.1-1.7v-10.7c0-.5.1-1.2.1-1.7.6-4.7 4.4-6.3 8.9-6.3s8.4 1.5 8.9 6.3c.1.8.1 1.7.1 1.7v.8h-6.4v-1.4s0-.6-.1-1c-.1-.6-.6-1.8-2.5-1.8-1.8 0-2.4 1.2-2.5 1.8-.1.3-.1.8-.1 1.2v11.6c0 .3 0 .7.1 1-.1.8.5 1.9 2.4 1.9z"/></svg>