<svg xmlns="http://www.w3.org/2000/svg" x="0" y="0" viewBox="0 0 245 245" xml:space="preserve"><path fill="#1176c0" d="M0 132.3h6.7v15.9h4.6v-15.9h6.8v-4H0zM40 136.2h-9.2v-7.9h-4.6v19.9h4.6v-8H40v8h4.6v-19.8l-4.6-.1zM54.3 128.4h4.6v19.8h-4.6zM80.1 139c1.8-1 2.7-2.6 2.7-4.8 0-1.7-.6-3.1-1.7-4.2-1.2-1.1-2.9-1.7-5-1.7h-7v19.8h4.6v-8h.7c1.2 0 2.2.2 4 3.3l2.8 4.7h5.2l-3.4-5.6c-1.4-2-2-2.8-2.9-3.5zm-6.4-7h1.8c1.2 0 2.7.4 2.7 2.3 0 .9-.3 1.5-.8 1.9-.5.3-1.2.5-2.2.5h-1.5V132zM100.5 128.4h-7.9v19.8h8c6.5 0 10.6-3.8 10.6-10-.1-6-4.2-9.8-10.7-9.8zm-3.5 3.7h3c4.3 0 6.6 2.2 6.6 6.1 0 4-2.2 6.2-6.3 6.2H97v-12.3zM144.6 130c-1.2-1-3-1.6-5.1-1.6h-7.3v19.8h4.6v-7.9h2.6c2.2 0 4-.5 5.3-1.6 1.2-1 1.9-2.6 1.9-4.4-.1-1.7-.7-3.3-2-4.3zm-7.9 2.1h2c2.8 0 3.2 1.1 3.2 2.3 0 1.2-.4 2.3-3.1 2.3h-2.1v-4.6zM165.6 128.2c-3.4 0-6.2 1.1-8.2 3.2-1.7 1.8-2.7 4.3-2.7 7 0 5 3.7 10.1 10.8 10.1 3.3 0 6.1-1.1 8.1-3.1 1.9-1.9 2.9-4.4 2.9-7.1 0-5.9-4.6-10.1-10.9-10.1zm-.1 16.1c-1.7 0-3.3-.6-4.4-1.7-1.2-1.1-1.8-2.6-1.8-4.3 0-1.7.6-3.2 1.7-4.3 1.1-1.1 2.7-1.7 4.6-1.7 1.9 0 3.5.7 4.6 1.9 1 1.1 1.6 2.6 1.6 4.1 0 3.7-2.4 6-6.3 6zM185.4 128.4h4.6v19.8h-4.6zM214 141.1l-10.6-12.6-3.6-.1v19.9h4.3v-12.6l10.5 12.6h3.7v-19.8H214zM227 128.5v3.9h6.6v15.9h4.5v-15.9l6.8.1v-4z"/><g><path d="M39.4 96.5H1.8c-.3 0-.6.1-.8.3-.3.1-.4.3-.6.7-.1.1-.3.4-.3.7v12.6c0 1 .7 1.7 1.7 1.7h17.4c1 0 1.3-.3 1.7-1.1.3-1.1 1-2.1 1.7-3.1 2.9-4.6 7.3-7.4 12.4-9.3 2-.7 5.4-2 7.9-2.5h-3.5z" fill="#33b3e8"/><path fill="#1176c0" d="M243.5 96.5H68.9c-.4 0-.8 0-1.3.1-2.4.7-4.1 2.2-4.5 4.8-.4 2.7.6 4.8 2.7 6.3 4.9 3.5 10.5 4.6 16.3 4.6 52 .1 103.9 0 155.9 0H243.2c1 0 1.7-.7 1.7-1.7V98.2c.3-.9-.4-1.7-1.4-1.7z"/></g></svg>