<svg xmlns="http://www.w3.org/2000/svg" viewBox="0 0 245 245" xmlns:v="https://vecta.io/nano"><path d="M45.7 98.3v45.6H0V98.3h45.7zm-5 5.7h-1.1c-.6 0-1.1.1-1.7.1-.9.1-1.8.3-2.7.5-1.7.4-3.4 1-4.9 1.9-2.1 1.2-3.9 2.8-5.4 4.7-1 1.2-1.8 2.5-2.6 3.8a60.91 60.91 0 0 0-2.3 4.4l-2.3 4.6c-.6 1.2-1.3 2.4-2.1 3.6-.7 1.1-1.5 2-2.5 2.9-1.3 1.1-2.7 1.8-4.3 2.1a13.33 13.33 0 0 1-2.8.3h-.3v5.3H6c.4 0 .9 0 1.3-.1l2.7-.4c2.1-.5 4.1-1.4 5.8-2.7a19.33 19.33 0 0 0 3.5-3.5c1-1.4 1.9-2.8 2.7-4.3l2.2-4.5 2.3-4.5c.7-1.2 1.4-2.4 2.3-3.5s1.8-2.1 3-2.9c2.1-1.5 4.4-2.2 7-2.5.6-.1 1.2-.1 1.7-.1h.2V104c0 .1 0 0 0 0zm204 23.9c-.1 0-.1-.1 0 0v-20.6 20.6z" fill="#f26b35"/><path d="M244.6 107.3v20.5c-.1 2-.6 3.9-1.6 5.6a11.5 11.5 0 0 1-3.9 4c-1.2.7-2.5 1.2-4 1.5-1.1.2-2.3.3-3.4.2-2.6-.2-4.9-1.1-6.9-2.9-1.7-1.5-2.8-3.4-3.5-5.5-.5-1.5-.6-3.1-.5-4.7.2-2.8 1.2-5.4 3.1-7.5 1.4-1.6 3.2-2.7 5.2-3.3.8-.2 1.6-.3 2.4-.4 1.1 0 2.1.1 3.2.4 1.4.4 2.6 1.1 3.7 2.1l.2.2v-9.6h5.6c.3-.6.3-.6.4-.6zm-5.9 19.7c0-.6-.1-1.2-.2-1.8-.4-1.4-1.1-2.7-2.3-3.6-1.7-1.4-3.6-1.6-5.7-.8-1.3.5-2.2 1.4-2.9 2.7-1 1.8-1.2 3.7-.6 5.6.4 1.4 1.2 2.6 2.4 3.4 1.4 1 2.9 1.3 4.5 1 1.2-.3 2.2-.9 3-1.8 1.2-1.4 1.8-2.9 1.8-4.7zm-98.3 2.3h-17.5v.1c.4 1.3 1.1 2.4 2.2 3.3.8.6 1.8 1 2.8 1.1 1.2.1 2.3 0 3.4-.5 1-.4 1.7-1.1 2.3-2 0-.1.1-.1.1-.2h6.3v.2c-1.2 3.6-3.5 6-7.1 7.1-1.4.5-2.9.6-4.3.6-4.9-.1-9.3-3.3-11-7.9-.4-1.1-.6-2.3-.7-3.5a12.7 12.7 0 0 1 4-9.9c1.7-1.5 3.6-2.5 5.8-2.9 1-.2 2-.2 3-.2 1.3.1 2.6.4 3.8.9 2.7 1.2 4.7 3.1 5.9 5.8.5 1.1.8 2.4 1 3.6.1 1 .2 1.9.2 2.9 0 .4 0 .8-.1 1.2-.1.2-.1.2-.1.3zm-17.4-4.9h11.5v-.2c-.5-1.5-1.4-2.7-2.8-3.5-1-.6-2.2-.8-3.3-.7a5.92 5.92 0 0 0-3.3 1.3c-1 .8-1.6 1.8-2 3-.1 0-.1 0-.1.1zm-34.2 14.2h-6v-31.3h5.9c.1.1 0 .2 0 .4v8.8c.1 0 .2-.1.3-.2 1-.7 2-1.1 3.1-1.4.9-.2 1.7-.2 2.6-.2.9.1 1.8.2 2.6.5 2.3.8 4 2.3 5.1 4.5.5 1 .8 2.1 1 3.2l.2 2.3v13.4h-5.8v-13.5c0-.6-.1-1.2-.2-1.8-.1-.2-.1-.4-.2-.5-.4-1-1.1-1.6-2.2-1.9-1.2-.4-2.4-.4-3.6.1-1.5.6-2.3 1.7-2.6 3.3-.1.3-.1.7-.1 1v13c-.1 0-.1.1-.1.3zm75-31.3h6c.1.1 0 .2 0 .3v8.8c.1 0 .2-.1.2-.1 1.1-.8 2.2-1.3 3.5-1.5.7-.1 1.5-.2 2.2-.1l2.3.4c2.5.8 4.4 2.4 5.5 4.7.5 1 .8 2 .9 3.1.1.7.1 1.4.1 2.1v13.4h-5.9v-13.5c0-.7-.1-1.3-.3-1.9-.1-.4-.3-.8-.6-1.1-.4-.6-1-1-1.7-1.2-1.1-.4-2.3-.4-3.4 0-1.5.5-2.4 1.6-2.8 3.2-.1.4-.1.8-.1 1.1v13.4h-6v-30.9c.1.1.1-.1.1-.2zm33.6 7.4c4.3 0 7.9 2.2 10 5.6.8 1.4 1.4 2.9 1.7 4.4.2 1 .2 2 .2 3-.2 2.7-1.1 5.2-2.8 7.3-1.8 2.1-4 3.4-6.7 3.9-1.1.2-2.2.3-3.3.2-4-.4-7.2-2.7-9-5.7-.7-1.3-1.2-2.6-1.5-4.1-.2-1-.2-2-.2-3 .2-3.4 1.5-6.3 4.1-8.7a11.4 11.4 0 0 1 5.5-2.7c.7-.1 1.4-.2 2-.2zm-5.6 12.5c0 .4 0 1 .2 1.5.2.9.5 1.8 1.1 2.6 1 1.4 2.4 2.2 4.1 2.4 1.3.1 2.4-.3 3.5-1 1-.7 1.7-1.7 2.1-2.8.6-1.7.7-3.5.1-5.2a6.57 6.57 0 0 0-1.7-2.9c-.9-.9-2.1-1.4-3.4-1.5-1.2-.1-2.4.3-3.4 1-.9.6-1.5 1.4-2 2.4-.4 1-.6 2.1-.6 3.5zm-50.6 3.8h6c0 .1.1.1.1.2.3.6.7 1.1 1.3 1.5.7.5 1.4.8 2.2.9.9.2 1.7.2 2.6.1l1.5-.3c.3-.1.6-.3.9-.5.3-.3.5-.6.6-1a1.54 1.54 0 0 0-.7-1.6c-.3-.2-.6-.3-.9-.4-.6-.2-1.1-.3-1.7-.4l-2.7-.5a20.42 20.42 0 0 1-4.1-1c-.7-.3-1.3-.6-2-1-.6-.4-1.1-.8-1.5-1.4-.6-.8-1-1.8-1.1-2.8-.2-2.4.8-4.4 2.7-5.9 1-.8 2.1-1.3 3.3-1.7.9-.3 1.9-.4 2.8-.5.8 0 1.5-.1 2.3 0 1.8.2 3.4.6 5 1.5 1.5.9 2.6 2.1 3.3 3.7.3.6.5 1.2.6 1.9v.1h-6.1l-.1-.1c-.2-.5-.5-.8-1-1.1s-1-.5-1.5-.6c-.7-.1-1.5-.2-2.3-.1-.5 0-1 .1-1.4.3-.3.1-.6.2-.9.4-.2.1-.3.3-.5.4-.3.5-.3 1.1.2 1.5.2.2.4.3.6.4.4.2.9.3 1.3.4.8.2 1.6.3 2.4.4 1.6.3 3.1.5 4.6 1 .7.2 1.5.5 2.1.9.5.3 1 .6 1.4 1 .8.7 1.3 1.7 1.5 2.7.3 1.3.2 2.7-.2 4-.4 1.2-1.2 2.2-2.2 3.1-.9.8-2 1.4-3.2 1.8-.9.3-1.9.5-2.9.6-.9.1-1.8.1-2.7 0-1.8-.1-3.6-.5-5.2-1.4-1.3-.7-2.4-1.6-3.2-2.8-.8-1.1-1.3-2.4-1.5-3.7.3.2.3.1.3 0 0 .1 0 0 0 0zm-74.6-18.2h-8.3v-5.4H81v5.5h-8.6v25.8h-5.9v-25.4c.1-.2.1-.3.1-.5zm143.7-5.5h6v21.4c0 .5 0 1.1.1 1.6.1.3.1.6.2.8.4 1 1.1 1.6 2.1 1.9.5.1 1 .2 1.5.1h.4v5.4c-.1.1-.2.1-.3.1-1.1.1-2.1.1-3.1-.1-1.5-.3-2.9-.9-4.1-1.9-1-.9-1.6-1.9-2.1-3.1-.3-.8-.5-1.7-.6-2.6-.1-.7-.1-1.3-.1-2v-21.6zm-99.2 31.3h-5.9v-13.4c0-1 .1-2 .3-2.9.3-1.5 1-2.9 2-4.1 1.1-1.4 2.6-2.3 4.3-2.9 1-.3 1.9-.5 2.9-.5.9-.1 1.8 0 2.6.1h.1v5.5c-.1.1-.2 0-.2 0-.6-.1-1.2-.1-1.9-.1-.7.1-1.4.3-2 .6-1.2.6-1.8 1.6-2.1 2.9-.1.4-.1.9-.1 1.4v13.4z" fill="#061e33"/></svg>