<svg viewBox="0 0 100 100" xmlns="http://www.w3.org/2000/svg" fill-rule="evenodd" clip-rule="evenodd" stroke-linejoin="round" stroke-miterlimit="2"><g fill-rule="nonzero"><path d="M34.34 61.405l1.246.103 13.643 8.033-10.52-11.994-.34-1.162c.06-.403.084-.774.075-1.137-.105-3.588-3.015-6.34-6.587-6.213-3.59.105-6.32 2.998-6.214 6.586.05 1.725.75 3.315 1.97 4.478a6.276 6.276 0 004.617 1.736 6.37 6.37 0 002.11-.43zm21.143 15.158L34.696 64.322a9.13 9.13 0 01-2.384.389c-2.527.066-4.896-.824-6.684-2.53-1.773-1.689-2.789-3.988-2.861-6.476-.15-5.201 3.804-9.395 9.007-9.546 5.189-.137 9.395 3.805 9.546 9.006.009.318 0 .638-.027.965l16.002 18.244-1.812 2.189z" fill="#fdbf14"/><path d="M32 23.437c-17.644 0-32 14.355-32 32 0 5.59 1.467 11.093 4.243 15.917l.574.998 12.427-3.862-.854-2.748-10.206 3.173a29.091 29.091 0 01-3.263-12.057h4.852v-2.877H2.915A28.915 28.915 0 016.114 42.12l4.201 2.425 1.439-2.492-4.195-2.421a29.32 29.32 0 018.642-8.639l2.424 4.197 2.492-1.438-2.429-4.203a28.899 28.899 0 0111.867-3.198v4.868h2.877V26.35A28.91 28.91 0 0145.3 29.541l-2.43 4.21 2.49 1.438 2.429-4.205a29.328 29.328 0 018.671 8.676l-4.207 2.428 1.438 2.491 4.211-2.43a28.886 28.886 0 013.184 11.832h-4.872v2.877h4.863a29.185 29.185 0 01-3.799 13.043l2.499 1.427A32.08 32.08 0 0064 55.437c0-17.645-14.355-32-32-32z" fill="#4b5458"/></g></svg>