<svg viewBox="0 0 100 100" xmlns="http://www.w3.org/2000/svg" fill-rule="evenodd" clip-rule="evenodd" stroke-linejoin="round" stroke-miterlimit="2"><g fill-rule="nonzero"><path d="M66.828 81.224h12.647l.001-49.258h4.936L73.153 19.4 61.894 31.966h4.934v49.258zm15.147 2.5H64.328V34.466h-8.03l16.855-18.812 16.854 18.812h-8.031l-.001 49.258z" fill="#4b5458"/><path d="M38.679 81.224h12.648l.001-31.267h4.935L45.004 37.391 33.745 49.957h4.934v31.267zm15.148 2.5H36.179V52.457h-8.03l16.855-18.813L61.86 52.457h-8.032l-.001 31.267z" fill="#fdbf14"/><path d="M10.53 81.224h12.646l.001-13.276h4.936L16.854 55.382 5.595 67.948h4.935v13.276zm15.146 2.5H8.03V70.448H0l16.854-18.812 16.855 18.812h-8.032l-.001 13.276z" fill="#4b5458"/></g></svg>