<svg viewBox="0 0 100 100" xmlns="http://www.w3.org/2000/svg" fill-rule="evenodd" clip-rule="evenodd" stroke-linejoin="round" stroke-miterlimit="2"><path fill="#fdbf14" fill-rule="nonzero" d="M28.96 72.413h2.5v7.141h-2.5z"/><path d="M21.366 56.599l-1.367-2.093 8.962-5.855V31.155h2.5v18.848l-10.095 6.596z" fill="#4b5458" fill-rule="nonzero"/><path d="M9.718 39.031l-5.202-3.004 1.25-2.165 5.202 3.004-1.25 2.165zM1.252 48.193h6.007v2.5H1.252zM5.767 65.026l-1.25-2.165 5.202-3.003 1.25 2.165-5.202 3.003zM54.543 65.026l-5.202-3.003 1.25-2.165 5.202 3.003-1.25 2.165zM16.794 75.147l-2.164-1.25 3.004-5.203 2.164 1.25-3.004 5.203zM50.704 39.031l-1.25-2.165 5.202-3.004 1.25 2.165-5.202 3.004zM53.163 48.193h6.007v2.5h-6.007z" fill="#fdbf14" fill-rule="nonzero"/><path d="M31.46 79.67h-1.268C14.45 79.662 1.225 67.345.08 51.629c-1.21-16.626 11.334-31.137 27.96-32.346 6.319-.463 12.755 1.125 18.134 4.461l-1.318 2.124a27.919 27.919 0 00-16.634-4.092C12.97 22.886 1.466 36.196 2.575 51.448c1.049 14.416 13.18 25.715 27.618 25.722h1.268v2.5z" fill="#4b5458" fill-rule="nonzero"/><path d="M57.725 62.011c3.355-7.332 3.65-15.543.832-23.119-2.82-7.577-8.41-13.598-15.741-16.953-15.157-6.936-33.133-.252-40.07 14.903l2.274 1.04c6.362-13.901 22.85-20.032 36.755-13.67 6.724 3.078 11.852 8.6 14.438 15.552 2.587 6.95 2.315 14.482-.762 21.207-2.276 4.976-6.074 9.222-10.734 12.086l1.52-7.137-2.444-.521-2.353 11.037 11.037 2.354.52-2.446-6.578-1.403c4.899-3.117 8.889-7.647 11.306-12.93z" fill="#4b5458" fill-rule="nonzero"/></svg>