<svg viewBox="0 0 100 100" xmlns="http://www.w3.org/2000/svg" fill-rule="evenodd" clip-rule="evenodd" stroke-linejoin="round" stroke-miterlimit="2"><g fill-rule="nonzero"><path d="M70.979 63.38h8.061v-.174c0-2.481-2.182-4.458-6.671-6.042l-.825-.34c-3.539-1.371-6.095-2.362-6.617-4.316-.434-1.737.432-2.891 1.348-4.113l.116-.133c.102-.102.273-.359.412-.566 1.691-2.317 2.642-5.269 2.642-8.146 0-5.248-3.236-8.914-7.87-8.914a7.736 7.736 0 00-3.272.711c2.067 2.919 3.192 6.651 3.192 10.673 0 4.402-1.42 9.037-3.828 12.58.563.228 1.158.452 1.714.661l1.068.393c2.874 1.058 5.259 2.338 7.127 3.817 1.437 1.149 2.6 2.488 3.403 3.909zm10.561 2.5H69.427l-.338-.717c-.633-1.344-1.694-2.636-3.07-3.736-1.655-1.311-3.809-2.461-6.396-3.414l-1.123-.412c-1.089-.41-2.323-.874-3.279-1.353l-1.117-.558.558-1.118c.078-.157.19-.32.309-.477l.082-.115.107-.169c2.401-3.202 3.835-7.61 3.835-11.791 0-3.978-1.241-7.601-3.495-10.201l-.887-1.025 1.093-.801c1.633-1.198 3.717-1.857 5.869-1.857 6.009 0 10.37 4.8 10.37 11.414 0 3.396-1.126 6.886-3.091 9.573-.175.265-.379.572-.625.834-.826 1.104-1.007 1.423-.881 1.925.189.708 2.912 1.763 5.099 2.611l.828.339c5.484 1.953 8.265 4.77 8.265 8.374v2.674zM2.5 63.38h7.96c.85-1.541 2.008-2.861 3.521-4.018 1.85-1.465 4.235-2.744 7.072-3.789l.711-.259c.676-.259 1.406-.539 2.108-.826-2.44-3.652-3.827-8.181-3.827-12.563 0-4.015 1.121-7.742 3.181-10.658a7.572 7.572 0 00-3.261-.727c-4.56 0-7.87 3.75-7.87 8.916 0 2.876.951 5.828 2.609 8.097.17.252.342.51.445.613l.084.093c.738.902 1.852 2.265 1.385 4.135-.535 2.007-3.188 3.109-7.179 4.552l-.237.112C4.629 58.806 2.5 60.729 2.5 63.11v.27zm9.518 2.5H0v-2.77c0-4.645 4.69-6.998 8.25-8.364l.271-.126c1.766-.638 5.44-1.965 5.676-2.851.12-.481-.074-.912-.866-1.886-.256-.269-.469-.589-.676-.9-1.933-2.643-3.06-6.132-3.06-9.527 0-6.508 4.458-11.416 10.37-11.416 2.103 0 4.068.618 5.839 1.836l1.151.792-.916 1.057c-2.252 2.599-3.494 6.222-3.494 10.2 0 4.154 1.402 8.456 3.845 11.803l.109.179.072.095c.117.156.228.317.307.474l.578 1.154-1.172.54c-1.129.521-2.455 1.03-3.625 1.478l-.777.283c-2.553.941-4.707 2.091-6.366 3.404-1.434 1.097-2.461 2.344-3.16 3.828l-.338.717z" fill="#fdbf14"/><path d="M20.36 69.46H60.8V69c0-2.874-2.532-5.226-7.741-7.19l-.24-.079c-4.446-1.626-7.61-2.941-8.136-5.174-.536-1.872.427-3.124 1.447-4.45.164-.249.384-.579.72-.928 1.863-2.488 2.93-5.856 2.93-9.254 0-6.143-3.783-10.434-9.2-10.434-5.331 0-9.2 4.388-9.2 10.434 0 3.428 1.085 6.823 2.976 9.315l.222.3c.13.179.227.323.33.425l.108.123c1.034 1.345 1.997 2.597 1.446 4.526-.488 2.081-3.338 3.215-7.282 4.785l-1.124.427c-5.164 1.948-7.696 4.3-7.696 7.174v.46zm42.94 2.5H17.86V69c0-4.037 3.062-7.154 9.359-9.529l1.037-.395c2.487-.99 5.583-2.222 5.787-3.092.199-.701-.006-1.066-.965-2.316-.181-.191-.338-.406-.518-.651l-.2-.272c-2.21-2.912-3.48-6.858-3.48-10.82 0-7.494 4.921-12.934 11.7-12.934 6.78 0 11.7 5.44 11.7 12.934 0 3.961-1.27 7.907-3.484 10.826l-.112.128c-.198.199-.342.414-.508.664l-.065.088c-.984 1.28-1.195 1.645-1.009 2.296.272 1.151 4.507 2.7 6.542 3.445l.252.083C60.239 61.846 63.3 64.962 63.3 69v2.96z" fill="#4b5458"/></g></svg>