<svg viewBox="0 0 100 100" xmlns="http://www.w3.org/2000/svg" fill-rule="evenodd" clip-rule="evenodd" stroke-linejoin="round" stroke-miterlimit="2"><g fill-rule="nonzero"><path d="M25.473 82.954l-.723-.482c-.057-.037-.228-.135-.482-.282-1.821-1.056-7.366-4.269-13.66-9.533C2.825 66.147 0 55.563 0 50.037V25.989l25.479-8.766 25.479 8.766v12.5h-2.5V27.773l-22.979-7.906L2.5 27.773v22.264c0 5.056 2.586 14.742 9.711 20.702a93.654 93.654 0 0013.268 9.263 93.642 93.642 0 0013.269-9.263 23.189 23.189 0 002.166-2.074l1.841 1.691a25.354 25.354 0 01-2.403 2.3c-6.296 5.265-11.84 8.478-13.662 9.534-.254.147-.425.245-.5.294l-.717.47z" fill="#4b5458"/><path d="M37.451 47.231l.478.879.906-.493v5.43h1V46.47h-.984l-1.4.761zM37.451 57.172l.478.879.906-.493v5.43h1v-6.577h-.984l-1.4.761zM41.609 57.172l.478.879.907-.493v5.43h1v-6.577h-.985l-1.4.761zM51.625 57.172l.478.879.906-.493v5.43h1v-6.577h-.984l-1.4.761zM55.961 57.172l.477.879.907-.493v5.43h1v-6.577h-.983l-1.401.761zM48.474 47.617v5.43h1V46.47h-.983l-1.401.761.477.879.907-.493zM52.445 53.047h1V46.47h-.985l-1.4.761.479.879.906-.493v5.43zM44 52.083c-.561 0-1.185-.962-1.185-2.344 0-1.381.624-2.344 1.185-2.344.56 0 1.185.963 1.185 2.344 0 1.382-.625 2.344-1.185 2.344zm0-5.688c-1.225 0-2.185 1.469-2.185 3.344 0 1.875.96 3.344 2.185 3.344s2.185-1.469 2.185-3.344c0-1.875-.96-3.344-2.185-3.344zM48.186 61.99c-.561 0-1.185-.963-1.185-2.344 0-1.381.624-2.344 1.185-2.344s1.185.963 1.185 2.344c0 1.381-.624 2.344-1.185 2.344zm0-5.688c-1.225 0-2.185 1.469-2.185 3.344 0 1.875.96 3.344 2.185 3.344s2.185-1.469 2.185-3.344c0-1.875-.96-3.344-2.185-3.344zM57.202 52.083c-.561 0-1.185-.962-1.185-2.344 0-1.381.624-2.344 1.185-2.344.56 0 1.185.963 1.185 2.344 0 1.382-.625 2.344-1.185 2.344zm0-5.688c-1.225 0-2.185 1.469-2.185 3.344 0 1.875.96 3.344 2.185 3.344s2.185-1.469 2.185-3.344c0-1.875-.96-3.344-2.185-3.344z" fill="#fdbf14"/><path d="M48.375 69.536c-8.246 0-14.954-6.709-14.954-14.954 0-8.246 6.708-14.955 14.954-14.955 8.247 0 14.955 6.709 14.955 14.955 0 8.245-6.708 14.954-14.955 14.954zm0-32.409c-9.624 0-17.454 7.83-17.454 17.455 0 9.624 7.83 17.454 17.454 17.454 9.625 0 17.455-7.83 17.455-17.454 0-9.625-7.83-17.455-17.455-17.455z" fill="#fdbf14"/></g></svg>