<svg viewBox="0 0 100 100" xmlns="http://www.w3.org/2000/svg" fill-rule="evenodd" clip-rule="evenodd" stroke-linejoin="round" stroke-miterlimit="2"><g fill-rule="nonzero"><path d="M49.886 68.233c.688-1.262 1.449-2.953 2.111-5.177h5.848a19.291 19.291 0 01-7.959 5.177zm-8.908.812c-.683-.968-1.902-2.819-2.938-5.989h11.337c-1.038 3.175-2.259 5.027-2.942 5.993-.888.127-1.79.214-2.713.214a19.25 19.25 0 01-2.744-.218zm-11.379-5.989h5.82c.66 2.217 1.419 3.904 2.105 5.166a19.294 19.294 0 01-7.925-5.166zm7.846-31.247c-.721 1.279-1.496 2.991-2.154 5.291h-5.833a19.294 19.294 0 017.987-5.291zm8.994-.856c.771 1.064 2.038 2.875 3.073 6.147H37.905c1.032-3.268 2.299-5.079 3.069-6.143.9-.129 1.812-.219 2.748-.219.924 0 1.827.088 2.717.215zM57.985 37.1h-5.859c-.66-2.307-1.439-4.022-2.16-5.303a19.288 19.288 0 018.019 5.303zm-4.328 11.667c-.067-3.671-.414-6.696-.92-9.167h7.173a19.112 19.112 0 013.012 9.167h-9.265zm-.002 2.5h9.265a19.128 19.128 0 01-3.104 9.289h-7.177c.552-2.529.941-5.602 1.016-9.289zm-17.393 0h14.893c-.079 3.767-.502 6.826-1.082 9.289H37.344c-.581-2.463-1.003-5.522-1.082-9.289zm.979-11.667h12.934c.533 2.404.912 5.409.982 9.167H36.26c.07-3.758.449-6.763.981-9.167zm-3.481 9.167h-9.239a19.123 19.123 0 013.012-9.167h7.148c-.507 2.471-.854 5.496-.921 9.167zm-9.237 2.5h9.24c.074 3.687.462 6.76 1.015 9.289h-7.151a19.128 19.128 0 01-3.104-9.289zm19.199-23.029c-12 0-21.763 9.762-21.763 21.762s9.763 21.763 21.763 21.763c12 0 21.762-9.763 21.762-21.763 0-12-9.762-21.762-21.762-21.762z" fill="#fdbf14"/><path d="M43.718 8.779a4.05 4.05 0 014.045 4.045 4.05 4.05 0 01-4.045 4.046 4.05 4.05 0 01-4.046-4.046 4.05 4.05 0 014.046-4.045zm-1.25 10.468v5.795h2.5v-5.795c3.012-.585 5.295-3.241 5.295-6.423a6.553 6.553 0 00-6.545-6.545 6.553 6.553 0 00-6.546 6.545c0 3.182 2.283 5.838 5.296 6.423zM14.57 20.855a4.037 4.037 0 012.862-1.182c1.035 0 2.071.394 2.86 1.182a4.052 4.052 0 010 5.722 4.052 4.052 0 01-5.722 0 4.052 4.052 0 010-5.722zm2.861 9.403a6.54 6.54 0 003.658-1.117l4.097 4.098 1.768-1.767-4.098-4.099c1.717-2.543 1.452-6.036-.797-8.285-2.554-2.553-6.706-2.552-9.256 0a6.552 6.552 0 000 9.256 6.525 6.525 0 004.628 1.914zM6.546 54.05A4.05 4.05 0 012.5 50.005a4.05 4.05 0 014.046-4.046 4.05 4.05 0 014.045 4.046 4.05 4.05 0 01-4.045 4.045zm6.422-2.795h5.796v-2.5h-5.796c-.585-3.013-3.242-5.296-6.422-5.296A6.553 6.553 0 000 50.005a6.553 6.553 0 006.546 6.545c3.18 0 5.837-2.282 6.422-5.295zM20.298 79.151a4.05 4.05 0 01-5.722 0 4.052 4.052 0 010-5.721 4.052 4.052 0 015.722 0 4.023 4.023 0 011.184 2.861c0 1.081-.42 2.096-1.184 2.86zm4.894-12.383l-4.097 4.098c-2.546-1.717-6.038-1.453-8.287.797a6.554 6.554 0 000 9.256 6.529 6.529 0 004.629 1.914 6.525 6.525 0 004.628-1.914 6.499 6.499 0 001.917-4.628 6.495 6.495 0 00-1.118-3.66l4.096-4.096-1.768-1.767zM43.725 91.222a4.05 4.05 0 01-4.044-4.045 4.05 4.05 0 014.044-4.046 4.05 4.05 0 014.046 4.046 4.05 4.05 0 01-4.046 4.045zm1.25-10.468v-5.796h-2.5v5.796c-3.012.586-5.294 3.241-5.294 6.423a6.552 6.552 0 006.544 6.545 6.553 6.553 0 006.546-6.545c0-3.182-2.283-5.837-5.296-6.423zM72.873 79.145a4.05 4.05 0 01-5.722 0 4.05 4.05 0 010-5.721 4.053 4.053 0 015.722 0 4.05 4.05 0 010 5.721zm-6.519-8.285l-4.097-4.098-1.768 1.767 4.098 4.098c-1.717 2.545-1.452 6.037.797 8.286a6.525 6.525 0 004.628 1.914 6.525 6.525 0 004.628-1.914 6.552 6.552 0 000-9.256c-2.25-2.25-5.742-2.513-8.286-.797zM80.897 54.041a4.05 4.05 0 01-4.045-4.045 4.05 4.05 0 014.045-4.045 4.05 4.05 0 014.046 4.045 4.05 4.05 0 01-4.046 4.045zm0-10.59c-3.18 0-5.837 2.282-6.422 5.295H68.68v2.5h5.795c.585 3.013 3.242 5.295 6.422 5.295a6.553 6.553 0 006.546-6.545 6.553 6.553 0 00-6.546-6.545zM67.145 20.85a4.036 4.036 0 012.862-1.184c1.035 0 2.071.395 2.86 1.184a4.052 4.052 0 010 5.721 4.053 4.053 0 01-5.722 0 4.024 4.024 0 01-1.184-2.861c0-1.081.42-2.096 1.184-2.86zm-4.894 12.383l4.098-4.098a6.534 6.534 0 003.657 1.117 6.529 6.529 0 004.629-1.914 6.554 6.554 0 000-9.256 6.552 6.552 0 00-9.257 0 6.499 6.499 0 00-1.917 4.628c0 1.324.391 2.587 1.118 3.66l-4.096 4.096 1.768 1.767z" fill="#4b5458"/></g></svg>