<svg  data-name="Layer 1" xmlns="http://www.w3.org/2000/svg" viewBox="0 0 100 100"><defs><style>.cls-1{fill:none;stroke:#000;stroke-linecap:round;stroke-linejoin:round;stroke-width:2px;}</style></defs><title>lego-black</title><path class="cls-1" d="M18.68,30.49l-7.16,4.74a5.15,5.15,0,0,0-2.36,4.25V64.84a5.63,5.63,0,0,0,2.7,4.75l35,22a5.16,5.16,0,0,0,5.48,0l35-22a5.62,5.62,0,0,0,2.6-4.75V39.53a5.3,5.3,0,0,0-2.4-4.41l-7-4.58"/><line class="cls-1" x1="40.5" y1="16.3" x2="33.02" y2="21.16"/><line class="cls-1" x1="65.93" y1="21.04" x2="58.62" y2="16.29"/><ellipse class="cls-1" cx="49.57" cy="14.38" rx="9.26" ry="6.07"/><path class="cls-1" d="M40.31,14.38v6.46c0,3.35,4.15,6.07,9.26,6.07s9.26-2.69,9.26-6.07V14.38"/><ellipse class="cls-1" cx="28.18" cy="26.72" rx="9.26" ry="6.07"/><path class="cls-1" d="M18.92,26.72v6.46c0,3.39,4.15,6.09,9.26,6.09s9.25-2.7,9.25-6.09V26.72"/><ellipse class="cls-1" cx="70.94" cy="26.72" rx="9.26" ry="6.07"/><path class="cls-1" d="M61.66,26.72v6.46c0,3.39,4.16,6.09,9.28,6.09s9.26-2.7,9.26-6.08V26.73"/><ellipse class="cls-1" cx="49.57" cy="40.75" rx="9.26" ry="6.07"/><path class="cls-1" d="M40.31,40.75v6.44c0,3.37,4.15,6.09,9.26,6.09s9.26-2.69,9.26-6.09V40.75"/><path class="cls-1" d="M52,61.08a5.36,5.36,0,0,1-5.76,0"/><path class="cls-1" d="M52,61.08,89.46,37.26"/><path class="cls-1" d="M46.24,61.06,9.65,37.3"/><line class="cls-1" x1="49.12" y1="62.83" x2="49.12" y2="92.37"/></svg>