<svg  data-name="Layer 1" xmlns="http://www.w3.org/2000/svg" viewBox="0 0 100 100"><defs><style>.cls-1{fill:none;stroke:#000;stroke-linecap:round;stroke-linejoin:round;stroke-width:2px;}</style></defs><title>pay-black</title><path class="cls-1" d="M17,75.42A42.07,42.07,0,0,0,92.52,50"/><path class="cls-1" d="M86.32,28A42.05,42.05,0,0,0,8.41,50q0,2,.18,4"/><path class="cls-1" d="M58.53,41.7a10.19,10.19,0,0,0-7.82-3.78c-5.15-.05-7.3,3.41-7.26,5.83S45,48.17,50.71,49.6s7.62,3.39,7.63,6.16-2,6.29-7.51,6.33a11.36,11.36,0,0,1-8.94-4.16"/><line class="cls-1" x1="50.67" y1="33.34" x2="50.67" y2="66.66"/><polyline class="cls-1" points="88.38 13.64 87.52 27.97 73.44 29.19"/><polyline class="cls-1" points="15.45 89.01 16.31 74.68 30.39 73.46"/></svg>