<svg version="1.1" id="Layer_1" xmlns="http://www.w3.org/2000/svg" x="0" y="0" viewBox="0 0 100 100" xml:space="preserve"><style>.st0{fill:none;stroke:#000;stroke-width:3;stroke-linecap:round;stroke-linejoin:round}.st2{fill:#00c3cd}</style><path class="st0" d="M67.5 36.7v-9.6l-24.2-8.3-24.2 8.3v23.1c0 5.8 3 15.7 10.2 21.7 4.4 3.7 9.1 6.9 14.1 9.8 3.2-1.8 6.3-3.8 9.3-6"/><path class="st0" d="M75.6 38.4v-19L43.3 8.3 11 19.4v30.9c0 7.7 4 20.9 13.5 28.9 5.9 4.9 12.1 9.2 18.8 13 6.2-3.5 12-7.5 17.6-12"/><circle cx="67.1" cy="58.8" r="22.1" fill="none" stroke="#00c3cd" stroke-width="3"/><path class="st2" d="M51.9 41.9c.9 0 1.8.4 2.3 1.1.6.9.9 2 .9 3.1.1 1.1-.2 2.2-.9 3.1-.5.7-1.4 1.2-2.3 1.1-.9 0-1.8-.4-2.3-1.1-.6-.9-.9-2-.8-3.1-.1-1.3 2.1-4.2 3.1-4.2zm0 1.5c-.5 0-.9.3-1.1.7-.5 1.3-.5 2.8 0 4.1.2.6.9.9 1.5.7.3-.1.6-.4.7-.7.5-1.3.5-2.8 0-4.1-.2-.4-.6-.7-1.1-.7zM59.7 41.9c.9 0 1.8.4 2.3 1.1.6.9.9 2 .9 3.1.1 1.1-.2 2.2-.9 3.1-.5.7-1.4 1.2-2.3 1.1-.9 0-1.8-.4-2.3-1.1-.6-.9-.9-2-.8-3.1-.1-1.1.2-2.2.8-3.1.5-.7 1.4-1.1 2.3-1.1zm0 1.5c-.5 0-.9.3-1.1.7-.5 1.3-.5 2.8 0 4.1.2.6.9.9 1.5.7.3-.1.6-.4.7-.7.5-1.3.5-2.8 0-4.1-.2-.4-.6-.7-1.1-.7zM68.5 48.8h1c.2 0 .4 0 .6.2.1.1.2.3.2.5s0 .4-.2.5c-.2.1-.4.2-.6.2h-3.7c-.2 0-.4 0-.6-.2-.2-.1-.2-.3-.2-.5s0-.4.2-.5c.2-.1.4-.2.6-.2H67v-5.4l-.7.2h-.5c-.2 0-.3 0-.4-.2-.1-.1-.2-.3-.2-.5 0-.1.1-.3.2-.4.1-.1.3-.2.5-.2l1.6-.4.3-.1h.2c.1 0 .3 0 .4.1.1.1.1.3.1.5v6.4zM76.3 48.8h1c.2 0 .5 0 .7.2.1.1.2.3.2.5s-.1.4-.2.5c-.2.1-.4.2-.6.2h-3.8c-.2 0-.4 0-.6-.2-.1-.1-.2-.3-.2-.5s.1-.4.2-.5c.2-.1.4-.2.6-.2h1.2v-5.4l-.7.2h-.5c-.2 0-.3 0-.4-.2-.1-.1-.1-.3-.1-.5 0-.1.1-.3.2-.4.1-.1.3-.2.5-.2l1.6-.4.3-.1h.2c.1 0 .3 0 .4.1.1.1.1.3.1.5v6.4zM52.9 61.8h1c.2 0 .4 0 .6.2.1.1.2.3.2.5s0 .4-.2.5c-.2.1-.4.2-.6.2h-3.7c-.2 0-.4 0-.6-.2-.1-.1-.2-.3-.2-.5s0-.4.2-.5c.2-.1.4-.2.6-.2h1.2v-5.4l-.7.2h-.5c-.2 0-.3 0-.4-.2-.1-.1-.2-.3-.2-.5 0-.1.1-.3.2-.4.1-.1.3-.2.5-.2l1.6-.4.3-.1h.2c.1 0 .3 0 .4.1.1.1.1.3.1.5v6.4zM60.7 61.8h1c.2 0 .4 0 .6.2.1.1.2.3.2.5s0 .4-.2.5c-.2.1-.4.2-.6.2H58c-.2 0-.4 0-.6-.2-.1-.1-.2-.3-.2-.5s0-.4.2-.5c.2-.1.4-.2.6-.2h1.2v-5.4l-.7.2H58c-.2 0-.3 0-.4-.2-.1-.1-.1-.3-.1-.5 0-.1.1-.3.2-.4.1-.1.3-.2.5-.2l1.6-.4h.5c.1 0 .3 0 .4.1.1.1.1.3.1.5l-.1 6.3zM67.5 55c.9 0 1.8.4 2.3 1.1 1.1 1.9 1.1 4.3 0 6.2-.5.7-1.4 1.2-2.3 1.1-.9 0-1.8-.4-2.3-1.1-.6-.9-.9-2-.8-3.1-.1-1.1.2-2.2.8-3.1.6-.7 1.4-1.1 2.3-1.1zm0 1.4c-.5 0-.9.3-1.1.7-.5 1.3-.5 2.8 0 4.1.2.6.9.9 1.5.7.3-.1.6-.4.7-.7.5-1.3.5-2.8 0-4.1-.2-.4-.6-.7-1.1-.7zM76.3 61.8h1c.2 0 .5 0 .7.2.1.1.2.3.2.5s-.1.4-.2.5c-.2.1-.4.2-.6.2h-3.8c-.2 0-.4 0-.6-.2-.1-.1-.2-.3-.2-.5s.1-.4.2-.5c.2-.1.4-.2.6-.2h1.2v-5.4l-.7.2h-.5c-.2 0-.3 0-.4-.2-.1-.1-.1-.3-.1-.5 0-.1.1-.3.2-.4.1-.1.3-.2.5-.2l1.6-.4.3-.1h.2c.1 0 .3 0 .4.1.1.1.1.3.1.5l-.1 6.4zM52.9 74.9h1c.2 0 .4 0 .6.2.1.1.2.3.2.5s-.1.4-.2.5c-1.1-.3-2.2-.7-3.2-1.2v-5.4l-.7.2h-.5c-.2 0-.3 0-.4-.2-.1-.1-.2-.3-.2-.5 0-.1.1-.3.2-.4.1-.1.3-.2.5-.2l1.6-.4.3-.1h.2c.1 0 .3 0 .4.1.1.1.1.3.1.5l.1 6.4zM59.7 68c.9 0 1.8.4 2.3 1.1 1.1 1.9 1.1 4.3 0 6.2-.5.7-1.4 1.2-2.3 1.1-.9 0-1.8-.4-2.3-1.1-.6-.9-.9-2-.8-3.1-.1-1.1.2-2.2.8-3.1.5-.7 1.4-1.1 2.3-1.1zm0 1.4c-.5 0-.9.3-1.1.7-.5 1.3-.5 2.8 0 4.1.2.6.9.9 1.5.7.3-.1.6-.4.7-.7.5-1.3.5-2.8 0-4.1-.2-.4-.6-.6-1.1-.7zM67.5 68c.9 0 1.8.4 2.3 1.1 1.1 1.9 1.1 4.3 0 6.2-.5.7-1.4 1.2-2.3 1.1-.9 0-1.8-.4-2.3-1.1-.6-.9-.9-2-.8-3.1-.1-1.1.2-2.2.8-3.1.6-.7 1.4-1.1 2.3-1.1zm0 1.4c-.5 0-.9.3-1.1.7-.5 1.3-.5 2.8 0 4.1.2.6.9.9 1.5.7.3-.1.6-.4.7-.7.5-1.3.5-2.8 0-4.1-.2-.4-.6-.7-1.1-.7zM76.3 74.9h1c.2 0 .5 0 .7.1.1.1.2.3.2.5s0 .4-.2.5c-.2.1-.4.2-.6.2h-3.8c-.2 0-.4 0-.6-.2-.1-.1-.2-.3-.2-.5s.1-.4.2-.5c.2-.1.4-.2.6-.2h1.2v-5.3l-.7.2h-.5c-.2 0-.3 0-.4-.2-.1-.1-.1-.3-.1-.5 0-.1.1-.3.2-.4.1-.1.3-.2.5-.2l1.6-.4.3-.1h.2c.1 0 .3 0 .4.1.1.1.1.3.1.5l-.1 6.4zM82.8 41.9c1 0 2.9 6.6 2.3 7.3-1 1.3-2.8 1.5-4.1.5-.2-.1-.4-.3-.5-.5-.6-.9-.9-2-.8-3.1-.1-1.1.2-2.2.8-3.1.6-.7 1.4-1.1 2.3-1.1zm0 1.5c-.5 0-.9.3-1.1.7-.5 1.3-.5 2.8 0 4.1.2.6.9.9 1.5.7.3-.1.5-.4.7-.7.5-1.3.5-2.8 0-4.1-.2-.4-.6-.7-1.1-.7zM83.8 61.8h1c.2 0 .4 0 .6.2.1.1.2.3.2.5s0 .4-.2.5c-.2.1-.4.2-.6.2h-3.7c-.2 0-.4 0-.6-.2-.1-.1-.2-.3-.2-.5s0-.4.2-.5c.2-.1.4-.2.6-.2h1.2v-5.4l-.7.2h-.5c-.2 0-.3-.1-.4-.2-.1-.1-.2-.3-.1-.5 0-.1.1-.3.2-.4.1-.1.3-.2.5-.2l1.6-.4.3-.1h.2c.1 0 .3 0 .4.1.1.1.1.3.1.5l-.1 6.4zM83.8 74.9l-2.7 1.3c-.2 0-.4 0-.6-.2-.1-.1-.2-.3-.2-.5s.1-.4.2-.5c.2-.1.4-.2.6-.2h1.2v-5.4l-.7.2h-.5c-.2 0-.3-.1-.4-.2-.1-.1-.2-.3-.1-.5 0-.1.1-.3.2-.4.1-.1.3-.2.5-.2l1.6-.4.3-.1h.2c.1 0 .3 0 .4.1.1.1.1.3.1.5l-.1 6.5z"/></svg>