<svg version="1.1" id="Layer_1" xmlns="http://www.w3.org/2000/svg" x="0" y="0" viewBox="0 0 100 100" xml:space="preserve"><style>.st0,.st1{fill:none;stroke:#00c3cd;stroke-width:3;stroke-linecap:round;stroke-linejoin:round}.st1{stroke:#fff}</style><path class="st0" d="M63.8 18.1l-5.4 2.4 2.4 5.4M35.8 80.2l5.4-2.4-2.4-5.5"/><path class="st1" d="M12 16.8h38c1.9 0 3.4 1.5 3.4 3.4v6c0 1.9-1.5 3.4-3.4 3.4H12c-1.9 0-3.4-1.5-3.4-3.4v-6c0-1.9 1.5-3.4 3.4-3.4z"/><circle class="st1" cx="16" cy="23.2" r="1.1"/><path class="st1" d="M25.4 23.2h21.8M12 29.7h37.9c1.9 0 3.4 1.5 3.4 3.4v6c0 1.9-1.5 3.4-3.4 3.4H12c-1.9 0-3.4-1.5-3.4-3.4v-6c0-1.8 1.5-3.4 3.4-3.4z"/><circle class="st1" cx="16" cy="36.1" r="1.1"/><path class="st1" d="M25.4 36.1h21.8M50.9 56.9h37.9c1.9 0 3.4 1.5 3.4 3.4v6c0 1.9-1.5 3.4-3.4 3.4H50.9c-1.9 0-3.4-1.5-3.4-3.4v-6c0-1.8 1.5-3.4 3.4-3.4z"/><circle class="st1" cx="54.8" cy="63.3" r="1.1"/><path class="st1" d="M64.2 63.3h21.9M50.9 69.9h37.9c1.9 0 3.4 1.5 3.4 3.4v6c0 1.9-1.5 3.4-3.4 3.4H50.9c-1.9 0-3.4-1.5-3.4-3.4v-6c0-1.9 1.5-3.4 3.4-3.4z"/><circle class="st1" cx="54.8" cy="76.3" r="1.1"/><path class="st1" d="M64.2 76.3h21.9"/><path class="st0" d="M59.7 21c12.5 3.9 21 15.4 21 28.5M40.4 77.4C28.8 73.1 21 61.9 21 49.5"/></svg>