<svg version="1.1" id="Layer_1" xmlns="http://www.w3.org/2000/svg" x="0" y="0" viewBox="0 0 100 100" xml:space="preserve"><style>.st0,.st1{fill:none;stroke:#000;stroke-width:3;stroke-linecap:round}.st1{stroke-linejoin:round}</style><path class="st0" d="M55.1 15.4c-1.4-.2-2.8-.2-4.2-.2-21.4-.1-38.7 17.2-38.8 38.6M89.6 53.8c0-8.8-3-17.4-8.6-24.2"/><path class="st1" d="M54.7 16.1c-1.2-.6-2.5-.9-3.9-.9-9.4 0-17.1 15.5-17.1 34.7 0 2 .1 4.1.3 6M67.7 55.9c.2-2 .3-4 .3-6 0-3.9-.3-7.9-1-11.7"/><path class="st0" d="M50.9 8.7v6.5M38.2 83.3v1.9c0 3.5 2.8 6.3 6.3 6.3s6.3-2.8 6.3-6.3V50.5"/><path class="st0" d="M34.1 56c3.4-3.3 9.7-5.5 16.8-5.5s13.4 2.2 16.8 5.5M12.1 53.9s4.6-5.5 11.1-4.6c8.3 1.1 10.6 6.9 10.6 6.9M89.6 53.6s-4.6-5.4-11.1-4.5c-8.3 1.1-10.6 6.8-10.6 6.8"/><circle cx="67.6" cy="23.3" r="14.8" fill="none" stroke="#00c3cd" stroke-width="3"/><path d="M59.2 23.6l6.6 6.6 12-12" fill="none" stroke="#00c3cd" stroke-width="3" stroke-linecap="round" stroke-linejoin="round"/></svg>