<svg xmlns="http://www.w3.org/2000/svg" viewBox="0 0 100 100"><path d="M34 43.6h30.7c4.9 0 8.9 4 8.9 8.9v30.7c0 4.9-4 8.9-8.9 8.9H34c-4.9 0-8.9-4-8.9-8.9V52.5c-.1-4.9 3.9-8.9 8.9-8.9z" fill="none" stroke="#000" stroke-width="3" stroke-linecap="round" stroke-linejoin="round"/><path d="M32.5 43.7V25.1c.2-9.3 7.9-16.6 17.2-16.4 9 .2 16.2 7.4 16.4 16.4v7c-.1 1.8-1.7 3.2-3.5 3.1-1.7-.1-3-1.4-3.1-3.1v-7c0-5.6-4.6-10.2-10.2-10.2s-10.2 4.6-10.2 10.2h0v18.6" fill="none" stroke="#000" stroke-width="3" stroke-miterlimit="10"/><path d="M56.5 62.9c0-4-3.3-7.2-7.3-7.2S42 58.9 42 62.9c0 2.5 1.3 4.7 3.3 6.1v5.7c0 2.2 1.8 4 4 4s4-1.8 4-4v-5.4-.4c2.1-1.3 3.3-3.6 3.2-6z" fill="none" stroke="#00c3cd" stroke-width="3" stroke-miterlimit="10"/></svg>