<svg  data-name="Layer 1" xmlns="http://www.w3.org/2000/svg" viewBox="0 0 100 100"><defs><style>.cls-1,.cls-2{fill:none;stroke:#333;stroke-width:2px;}.cls-1{stroke-linecap:round;stroke-linejoin:round;}.cls-3{fill:#333;}</style></defs><title>protect-data-gray</title><path class="cls-1" d="M67.52,36.7V27.1L43.29,18.76,19.06,27.1V50.25c0,5.76,3,15.68,10.16,21.66a96.25,96.25,0,0,0,14.07,9.76,99.11,99.11,0,0,0,9.34-6"/><path class="cls-1" d="M75.57,38.39v-19L43.29,8.31,11,19.41V50.27c0,7.67,4,20.88,13.53,28.86a130.46,130.46,0,0,0,18.75,13,130.86,130.86,0,0,0,17.57-12"/><circle class="cls-2" cx="67.07" cy="58.84" r="22.14"/><path class="cls-3" d="M51.89,41.92a2.76,2.76,0,0,1,2.32,1.14,5,5,0,0,1,.86,3.09,5,5,0,0,1-.86,3.09,2.77,2.77,0,0,1-2.32,1.13,2.72,2.72,0,0,1-2.3-1.13,5,5,0,0,1-.85-3.09C48.74,44.84,50.92,41.92,51.89,41.92Zm0,1.44a1.19,1.19,0,0,0-1.07.73,5.58,5.58,0,0,0,0,4.1,1.14,1.14,0,0,0,2.14,0,5.45,5.45,0,0,0,0-4.1A1.17,1.17,0,0,0,51.9,43.36Z"/><path class="cls-3" d="M59.71,41.92A2.77,2.77,0,0,1,62,43.06a5,5,0,0,1,.86,3.09A5,5,0,0,1,62,49.24a2.79,2.79,0,0,1-2.33,1.13,2.75,2.75,0,0,1-2.3-1.13,5.1,5.1,0,0,1-.85-3.09,5.06,5.06,0,0,1,.85-3.09A2.73,2.73,0,0,1,59.71,41.92Zm0,1.44a1.18,1.18,0,0,0-1.07.73,5.58,5.58,0,0,0,0,4.1,1.14,1.14,0,0,0,2.14,0,5.58,5.58,0,0,0,0-4.1A1.18,1.18,0,0,0,59.73,43.36Z"/><path class="cls-3" d="M68.52,48.81h1a1,1,0,0,1,.62.16.62.62,0,0,1,.19.52.6.6,0,0,1-.19.51.92.92,0,0,1-.62.16H65.79a.92.92,0,0,1-.62-.16.63.63,0,0,1-.18-.51.65.65,0,0,1,.18-.52,1,1,0,0,1,.62-.16H67V43.43l-.72.19-.27.05a.53.53,0,0,1-.16,0,.49.49,0,0,1-.4-.16.68.68,0,0,1-.15-.47.53.53,0,0,1,.16-.38,1.07,1.07,0,0,1,.49-.23L67.51,42l.33-.07.21,0a.43.43,0,0,1,.36.14.79.79,0,0,1,.11.47Z"/><path class="cls-3" d="M76.34,48.81h1A.91.91,0,0,1,78,49a.62.62,0,0,1,.19.52A.63.63,0,0,1,78,50a.92.92,0,0,1-.62.16H73.62A1,1,0,0,1,73,50a.63.63,0,0,1-.18-.51A.62.62,0,0,1,73,49a.92.92,0,0,1,.62-.16H74.8V43.43l-.71.19-.27.05-.16,0a.51.51,0,0,1-.41-.16.73.73,0,0,1-.14-.47.49.49,0,0,1,.16-.38,1,1,0,0,1,.49-.23L75.34,42l.32-.07.21,0a.47.47,0,0,1,.37.14.8.8,0,0,1,.1.47Z"/><path class="cls-3" d="M52.87,61.85h1a1,1,0,0,1,.62.16.62.62,0,0,1,.19.52.6.6,0,0,1-.19.51.92.92,0,0,1-.62.16H50.14a.92.92,0,0,1-.62-.16.63.63,0,0,1-.18-.51.65.65,0,0,1,.18-.52,1,1,0,0,1,.62-.16h1.19V56.47l-.72.19-.27.05a.53.53,0,0,1-.16,0,.49.49,0,0,1-.4-.16.68.68,0,0,1-.15-.47.53.53,0,0,1,.16-.38,1.07,1.07,0,0,1,.49-.23l1.58-.44.33-.07.21,0a.43.43,0,0,1,.36.14.79.79,0,0,1,.11.47Z"/><path class="cls-3" d="M60.69,61.85h1a.91.91,0,0,1,.61.16.62.62,0,0,1,.19.52.63.63,0,0,1-.18.51.92.92,0,0,1-.62.16H58a1,1,0,0,1-.63-.16.63.63,0,0,1-.18-.51.62.62,0,0,1,.19-.52.92.92,0,0,1,.62-.16h1.18V56.47l-.71.19-.27.05-.16,0a.51.51,0,0,1-.41-.16.73.73,0,0,1-.14-.47.49.49,0,0,1,.16-.38,1,1,0,0,1,.49-.23l1.58-.44L60,55l.21,0a.47.47,0,0,1,.37.14.8.8,0,0,1,.1.47Z"/><path class="cls-3" d="M67.54,55a2.76,2.76,0,0,1,2.32,1.14,6,6,0,0,1,0,6.18,2.77,2.77,0,0,1-2.32,1.13,2.72,2.72,0,0,1-2.3-1.13,5,5,0,0,1-.85-3.1,5,5,0,0,1,.85-3.08A2.71,2.71,0,0,1,67.54,55Zm0,1.44a1.19,1.19,0,0,0-1.07.73,5.58,5.58,0,0,0,0,4.1,1.14,1.14,0,0,0,2.14,0,5.45,5.45,0,0,0,0-4.1A1.17,1.17,0,0,0,67.55,56.4Z"/><path class="cls-3" d="M76.34,61.85h1A.91.91,0,0,1,78,62a.62.62,0,0,1,.19.52A.63.63,0,0,1,78,63a.92.92,0,0,1-.62.16H73.62A1,1,0,0,1,73,63a.63.63,0,0,1-.18-.51A.62.62,0,0,1,73,62a.92.92,0,0,1,.62-.16H74.8V56.47l-.71.19-.27.05-.16,0a.51.51,0,0,1-.41-.16.73.73,0,0,1-.14-.47.49.49,0,0,1,.16-.38,1,1,0,0,1,.49-.23l1.58-.44.32-.07.21,0a.47.47,0,0,1,.37.14.8.8,0,0,1,.1.47Z"/><path class="cls-3" d="M52.87,74.89h1a1,1,0,0,1,.62.15.66.66,0,0,1,.19.53.62.62,0,0,1-.19.51,26.67,26.67,0,0,1-3.19-1.19V69.51l-.72.19-.27,0a.53.53,0,0,1-.16,0,.49.49,0,0,1-.4-.16.68.68,0,0,1-.15-.47.53.53,0,0,1,.16-.38,1.07,1.07,0,0,1,.49-.23l1.58-.44.33-.07.21,0a.43.43,0,0,1,.36.14.79.79,0,0,1,.11.47Z"/><path class="cls-3" d="M59.71,68A2.77,2.77,0,0,1,62,69.14a6,6,0,0,1,0,6.18,2.79,2.79,0,0,1-2.33,1.13,2.75,2.75,0,0,1-2.3-1.13,5.11,5.11,0,0,1-.85-3.1,5.05,5.05,0,0,1,.85-3.08A2.73,2.73,0,0,1,59.71,68Zm0,1.44a1.18,1.18,0,0,0-1.07.73,5.58,5.58,0,0,0,0,4.1,1.14,1.14,0,0,0,2.14,0,5.58,5.58,0,0,0,0-4.1A1.18,1.18,0,0,0,59.73,69.44Z"/><path class="cls-3" d="M67.54,68a2.76,2.76,0,0,1,2.32,1.14,6,6,0,0,1,0,6.18,2.77,2.77,0,0,1-2.32,1.13,2.72,2.72,0,0,1-2.3-1.13,5,5,0,0,1-.85-3.1,5,5,0,0,1,.85-3.08A2.71,2.71,0,0,1,67.54,68Zm0,1.44a1.19,1.19,0,0,0-1.07.73,5.58,5.58,0,0,0,0,4.1,1.14,1.14,0,0,0,2.14,0,5.45,5.45,0,0,0,0-4.1A1.17,1.17,0,0,0,67.55,69.44Z"/><path class="cls-3" d="M76.34,74.89h1A1,1,0,0,1,78,75a.66.66,0,0,1,.19.53.65.65,0,0,1-.18.51.92.92,0,0,1-.62.16H73.62a1,1,0,0,1-.63-.16.65.65,0,0,1-.18-.51A.66.66,0,0,1,73,75a1,1,0,0,1,.62-.15H74.8V69.51l-.71.19-.27,0a.6.6,0,0,1-.16,0,.51.51,0,0,1-.41-.16.73.73,0,0,1-.14-.47.49.49,0,0,1,.16-.38,1,1,0,0,1,.49-.23l1.58-.44.32-.07.21,0a.47.47,0,0,1,.37.14.8.8,0,0,1,.1.47Z"/><path class="cls-3" d="M82.83,41.92c1,0,2.9,6.56,2.32,7.32a2.93,2.93,0,0,1-4.62,0,5,5,0,0,1-.85-3.09,5,5,0,0,1,.85-3.09A2.72,2.72,0,0,1,82.83,41.92Zm0,1.44a1.17,1.17,0,0,0-1.06.73,5.65,5.65,0,0,0,0,4.1,1.15,1.15,0,0,0,2.15,0,5.58,5.58,0,0,0,0-4.1A1.19,1.19,0,0,0,82.84,43.36Z"/><path class="cls-3" d="M83.81,61.85h1a.94.94,0,0,1,.62.16.62.62,0,0,1,.19.52.63.63,0,0,1-.18.51,1,1,0,0,1-.63.16H81.09a1,1,0,0,1-.63-.16.63.63,0,0,1-.18-.51.62.62,0,0,1,.19-.52.92.92,0,0,1,.62-.16h1.18V56.47l-.71.19-.28.05a.53.53,0,0,1-.16,0,.51.51,0,0,1-.4-.16.68.68,0,0,1-.14-.47.49.49,0,0,1,.16-.38,1,1,0,0,1,.49-.23l1.58-.44.32-.07.21,0a.43.43,0,0,1,.36.14.72.72,0,0,1,.11.47Z"/><path class="cls-3" d="M83.81,74.89l-2.72,1.35a1,1,0,0,1-.63-.16.65.65,0,0,1-.18-.51.66.66,0,0,1,.19-.53,1,1,0,0,1,.62-.15h1.18V69.51l-.71.19-.28,0a.53.53,0,0,1-.16,0,.51.51,0,0,1-.4-.16.68.68,0,0,1-.14-.47.49.49,0,0,1,.16-.38,1,1,0,0,1,.49-.23l1.58-.44.32-.07.21,0a.43.43,0,0,1,.36.14.72.72,0,0,1,.11.47Z"/></svg>