<svg  data-name="Layer 1" xmlns="http://www.w3.org/2000/svg" viewBox="0 0 100 100"><defs><style>.cls-1{fill:none;stroke:#333;stroke-linecap:round;stroke-linejoin:round;stroke-width:2px;}</style></defs><title>replicate-gray</title><path class="cls-1" d="M62.2,21.91l-4.79,2.14,2.14,4.79"/><path class="cls-1" d="M37.57,76.58l4.79-2.14-2.14-4.8"/><rect class="cls-1" x="13.6" y="20.73" width="39.41" height="11.27" rx="3"/><circle class="cls-1" cx="19.07" cy="26.37" r="1.81"/><line class="cls-1" x1="30.36" y1="26.37" x2="49.58" y2="26.37"/><rect class="cls-1" x="13.6" y="32.13" width="39.41" height="11.27" rx="3.01"/><circle class="cls-1" cx="19.07" cy="37.77" r="1.81"/><line class="cls-1" x1="30.36" y1="37.77" x2="49.58" y2="37.77"/><rect class="cls-1" x="47.84" y="56.07" width="39.41" height="11.27" rx="3"/><circle class="cls-1" cx="53.31" cy="61.71" r="1.81"/><line class="cls-1" x1="64.59" y1="61.71" x2="83.81" y2="61.71"/><rect class="cls-1" x="47.84" y="67.47" width="39.41" height="11.27" rx="3.01"/><circle class="cls-1" cx="53.31" cy="73.11" r="1.81"/><line class="cls-1" x1="64.59" y1="73.11" x2="83.81" y2="73.11"/><path class="cls-1" d="M58.56,24.41a26.29,26.29,0,0,1,18.5,25.1"/><path class="cls-1" d="M41.62,74.11a26.27,26.27,0,0,1-17.08-24.6"/></svg>