<svg  data-name="Layer 1" xmlns="http://www.w3.org/2000/svg" viewBox="0 0 100 100"><defs><style>.cls-1,.cls-2,.cls-3{fill:none;stroke:#333;stroke-width:2px;}.cls-1,.cls-2{stroke-linecap:round;}.cls-2{stroke-linejoin:round;}</style></defs><title>umbrella-check-gray</title><path class="cls-1" d="M55.11,15.43a39.91,39.91,0,0,0-4.25-.23A38.69,38.69,0,0,0,12.07,53.79"/><path class="cls-1" d="M89.64,53.79a38.24,38.24,0,0,0-8.58-24.2"/><path class="cls-2" d="M54.72,16.09a9.08,9.08,0,0,0-3.86-.89c-9.43,0-17.07,15.53-17.07,34.7,0,2.05.09,4.07.26,6"/><path class="cls-2" d="M67.66,55.92c.17-2,.27-4,.27-6a68.34,68.34,0,0,0-1-11.73"/><line class="cls-1" x1="50.86" y1="8.72" x2="50.86" y2="15.2"/><path class="cls-1" d="M38.19,83.28v1.9a6.3,6.3,0,0,0,6.3,6.3h0a6.31,6.31,0,0,0,6.31-6.3V50.45"/><path class="cls-1" d="M34.07,56c3.41-3.29,9.65-5.5,16.78-5.5S64.23,52.66,67.64,56"/><path class="cls-1" d="M12.07,53.94s4.62-5.48,11.11-4.6c8.31,1.12,10.61,6.91,10.61,6.91"/><path class="cls-1" d="M89.64,53.64S85,48.24,78.53,49.1c-8.31,1.11-10.6,6.82-10.6,6.82"/><circle class="cls-3" cx="67.64" cy="23.33" r="14.81"/><path class="cls-2" d="M59.18,23.65l6.6,6.6,12-12"/></svg>